<?xml version="1.0" standalone="no"?>
<!DOCTYPE svg PUBLIC "-//W3C//DTD SVG 20010904//EN"
 "http://www.w3.org/TR/2001/REC-SVG-20010904/DTD/svg10.dtd">
<svg version="1.0" xmlns="http://www.w3.org/2000/svg"
 width="1748.000000pt" height="1748.000000pt" viewBox="0 0 1748.000000 1748.000000"
 preserveAspectRatio="xMidYMid meet">
<metadata>
Created by potrace 1.14, written by Peter Selinger 2001-2017
</metadata>
<g transform="translate(0.000000,1748.000000) scale(0.100000,-0.100000)"
fill="#000000" stroke="none">
<path d="M8368 17365 c-2 -2 -61 -6 -131 -10 -71 -3 -145 -8 -165 -10 -20 -2
-73 -6 -117 -10 -44 -3 -93 -8 -110 -10 -16 -1 -61 -6 -100 -10 -38 -3 -77 -8
-85 -10 -8 -2 -44 -7 -80 -10 -36 -4 -67 -8 -70 -10 -3 -2 -30 -6 -60 -10 -30
-3 -80 -10 -110 -15 -30 -5 -72 -12 -93 -16 -77 -11 -435 -84 -542 -109 -60
-14 -117 -28 -125 -30 -300 -70 -934 -280 -1197 -396 -24 -11 -45 -19 -47 -19
-6 0 -284 -123 -366 -162 -242 -115 -596 -305 -786 -423 -18 -11 -54 -33 -81
-49 -221 -134 -677 -454 -844 -594 -165 -137 -330 -276 -353 -297 -237 -209
-577 -551 -771 -775 -26 -30 -61 -71 -79 -90 -17 -20 -58 -69 -90 -110 -33
-41 -65 -79 -71 -85 -6 -5 -40 -48 -75 -95 -35 -47 -69 -90 -75 -96 -5 -6 -17
-22 -25 -34 -8 -12 -38 -52 -66 -88 -94 -125 -359 -521 -370 -554 -3 -10 -10
-18 -15 -18 -5 0 -9 -4 -9 -10 0 -5 -15 -33 -34 -62 -149 -235 -376 -677 -538
-1048 -33 -77 -36 -83 -68 -165 -17 -44 -35 -89 -40 -100 -39 -82 -185 -519
-249 -740 -60 -210 -148 -571 -170 -702 -17 -97 -18 -102 -35 -193 -8 -47 -18
-103 -21 -125 -3 -22 -7 -51 -10 -65 -3 -14 -7 -41 -9 -60 -2 -19 -7 -51 -10
-70 -6 -38 -13 -96 -22 -175 -3 -27 -7 -63 -9 -80 -2 -16 -7 -70 -10 -120 -3
-49 -8 -99 -10 -110 -26 -129 -26 -1091 -1 -1315 3 -19 7 -69 10 -110 4 -41 8
-91 10 -110 3 -19 7 -62 11 -95 3 -33 8 -73 10 -90 2 -16 7 -50 10 -75 3 -25
7 -54 9 -65 2 -11 7 -42 10 -70 11 -80 55 -336 66 -380 5 -22 12 -56 16 -75 3
-19 10 -55 15 -80 6 -25 13 -54 15 -65 2 -11 6 -29 8 -40 9 -46 87 -345 106
-410 12 -38 23 -78 25 -87 19 -85 207 -636 250 -733 7 -16 36 -84 63 -150 28
-66 62 -146 76 -177 14 -31 26 -59 26 -62 0 -8 194 -400 243 -491 184 -342
381 -659 600 -965 75 -105 291 -386 348 -455 43 -50 215 -251 224 -261 5 -6
51 -55 100 -110 150 -164 480 -489 622 -611 11 -10 47 -40 78 -68 32 -27 63
-55 69 -60 6 -6 58 -49 116 -95 58 -47 107 -87 110 -90 3 -3 43 -35 90 -70 47
-36 89 -69 95 -73 185 -146 809 -557 845 -557 6 0 10 -3 10 -7 0 -5 10 -13 23
-19 23 -11 74 -39 227 -124 148 -82 496 -250 700 -337 183 -79 215 -92 380
-153 47 -18 94 -36 105 -41 47 -20 392 -131 525 -168 80 -23 159 -46 177 -51
18 -6 42 -13 54 -15 12 -3 56 -13 98 -24 87 -23 239 -57 291 -66 19 -3 43 -8
52 -11 9 -3 27 -7 40 -9 13 -3 46 -9 73 -15 28 -6 64 -12 80 -15 17 -2 95 -15
175 -28 80 -14 168 -28 195 -32 28 -3 61 -8 75 -10 55 -8 122 -16 177 -20 32
-3 69 -7 83 -10 14 -2 66 -7 115 -11 50 -4 108 -8 130 -10 422 -33 1202 -23
1552 21 16 2 57 6 93 10 55 5 158 19 320 41 19 3 85 13 145 24 61 10 128 21
150 25 22 3 47 7 55 10 8 2 26 6 40 9 119 21 258 53 530 120 334 83 755 224
1135 379 101 42 139 58 310 135 82 37 434 213 520 260 146 80 212 118 288 164
43 26 80 48 82 48 2 0 82 50 177 111 337 216 628 431 928 683 23 19 157 135
186 161 243 215 567 543 774 784 30 35 60 69 65 75 19 21 200 242 225 275 14
19 63 84 110 146 47 62 92 123 100 135 8 12 29 41 46 64 39 53 202 297 240
359 16 27 36 59 44 72 114 177 287 490 416 755 71 145 194 415 194 425 0 3 9
24 20 48 112 244 316 863 404 1227 17 69 78 348 81 369 2 14 13 71 24 126 11
55 22 120 26 145 3 25 8 52 10 60 2 8 7 38 10 66 3 28 8 61 10 75 7 36 22 151
31 244 3 33 7 71 9 84 2 12 7 60 10 105 3 44 8 95 10 111 27 212 27 1006 0
1325 -3 30 -7 78 -9 105 -15 171 -70 590 -90 685 -3 13 -8 42 -11 65 -4 22
-10 56 -15 75 -5 19 -11 51 -13 70 -7 49 -64 306 -92 415 -71 271 -143 519
-165 570 -5 11 -14 38 -20 60 -6 22 -14 47 -17 55 -4 8 -7 17 -7 20 -3 12 -70
198 -81 225 -7 17 -33 82 -58 146 -195 502 -496 1078 -810 1553 -81 122 -216
317 -226 326 -3 3 -22 28 -41 55 -19 28 -40 57 -47 65 -6 8 -47 60 -90 115
-43 55 -83 107 -90 115 -19 24 -127 154 -138 166 -5 6 -32 37 -60 69 -27 32
-54 63 -60 70 -283 311 -503 529 -755 750 -69 61 -130 115 -136 120 -6 6 -30
26 -54 45 -24 19 -62 51 -85 70 -23 19 -56 46 -75 60 -18 14 -68 52 -110 85
-42 33 -89 69 -105 80 -15 11 -39 29 -54 41 -14 11 -55 40 -91 65 -36 24 -71
50 -78 57 -7 6 -17 12 -21 12 -4 0 -16 8 -27 18 -11 9 -27 22 -36 27 -58 36
-305 196 -313 203 -17 13 -332 195 -450 259 -203 111 -361 188 -640 312 -22
10 -60 27 -85 39 -25 11 -109 45 -188 76 -579 230 -1179 398 -1792 502 -148
26 -164 28 -260 39 -30 3 -62 8 -70 10 -8 2 -42 7 -75 10 -33 3 -75 8 -94 11
-18 2 -59 6 -90 9 -31 3 -78 7 -106 10 -27 3 -81 8 -120 11 -38 2 -101 7 -140
10 -79 6 -891 14 -897 9z"/>
</g>
</svg>
