<?xml version="1.0" standalone="no"?>
<!DOCTYPE svg PUBLIC "-//W3C//DTD SVG 20010904//EN"
 "http://www.w3.org/TR/2001/REC-SVG-20010904/DTD/svg10.dtd">
<svg version="1.0" xmlns="http://www.w3.org/2000/svg"
 width="158.000000pt" height="158.000000pt" viewBox="0 0 158.000000 158.000000"
 preserveAspectRatio="xMidYMid meet">
<metadata>
Created by potrace 1.11, written by Peter Selinger 2001-2013
</metadata>
<g transform="translate(0.000000,158.000000) scale(0.100000,-0.100000)"
fill="#000000" stroke="none">
<path d="M0 790 l0 -790 275 0 c213 0 275 3 275 13 0 6 3 23 7 37 l6 25 -28
-25 -28 -25 6 37 6 38 -24 -28 -24 -27 -1 30 c0 17 12 55 26 85 l25 55 -27
-25 c-14 -14 -33 -38 -40 -55 l-13 -30 -1 41 c0 29 8 53 30 85 16 24 30 47 30
52 0 18 -53 -29 -70 -62 l-19 -36 -1 38 c0 21 9 56 20 77 11 22 18 40 14 40
-11 0 -35 -30 -49 -62 -19 -43 -19 -15 0 48 l14 49 -19 -24 c-24 -28 -26 -12
-4 32 l15 32 -30 -33 c-26 -27 -31 -29 -31 -13 0 10 7 24 15 31 8 7 15 17 15
23 0 6 -13 -2 -30 -18 -39 -37 -39 -13 -1 26 34 34 29 37 -17 9 -37 -23 -46
-25 -36 -9 5 8 -1 10 -20 7 -29 -6 -30 -5 -16 23 13 23 -2 26 -20 4 -7 -8 -17
-15 -23 -15 -5 0 -2 8 7 19 16 17 16 19 -3 24 -11 2 -24 0 -31 -7 -8 -8 -9 -6
-4 9 4 11 11 26 17 33 6 8 5 12 -4 12 -10 0 -10 3 -1 12 15 15 16 32 2 23 -6
-3 -10 -1 -10 5 0 11 58 50 74 50 5 0 0 -10 -12 -23 -27 -28 -28 -39 -4 -30
16 6 16 5 1 -13 -31 -37 -32 -47 -4 -28 l28 18 -12 -23 c-15 -27 -11 -33 23
-35 17 0 24 -6 21 -13 -7 -20 10 -15 30 7 15 17 16 23 6 33 -11 9 -14 9 -18 0
-3 -7 -11 -13 -18 -13 -10 0 -5 14 15 44 37 54 38 67 5 36 -14 -13 -28 -21
-31 -17 -11 11 21 62 56 85 29 20 31 23 10 17 -14 -4 -35 -13 -47 -21 -12 -8
-25 -14 -29 -14 -15 0 33 43 69 61 38 20 51 33 20 22 -16 -6 -17 -5 -3 12 8
10 29 26 45 37 17 10 23 18 15 18 -11 1 -10 4 4 15 11 8 16 15 10 15 -5 0 -2
5 6 10 12 8 13 12 2 19 -10 6 -8 10 10 14 12 4 33 7 46 7 23 0 23 0 -5 -25
l-28 -24 25 -1 24 0 -23 -17 c-23 -16 -23 -17 -5 -24 18 -7 18 -8 -2 -8 -11
-1 -31 -13 -45 -27 -24 -26 -24 -26 -1 -15 19 10 22 9 22 -8 0 -25 16 -36 24
-15 3 8 2 12 -4 9 -6 -3 -10 -1 -10 5 0 6 11 16 25 22 20 9 28 8 44 -6 19 -17
19 -17 14 6 -4 19 -1 17 16 -9 11 -17 33 -39 48 -47 20 -11 23 -15 10 -16 -15
0 -16 -2 -5 -14 9 -10 18 -11 31 -5 19 11 23 -1 5 -19 -19 -19 13 -15 42 5 24
16 24 16 10 -1 -14 -18 -13 -18 10 -11 l25 7 -24 -26 c-33 -36 -4 -36 38 0 40
34 57 64 42 74 -9 5 -8 10 4 20 8 7 15 17 15 22 0 6 -6 5 -15 -2 -20 -17 -40
-3 -23 18 10 12 10 14 1 8 -8 -4 -13 -2 -14 6 -2 35 -10 52 -44 93 -34 43 -55
60 -39 33 6 -10 4 -10 -7 -2 -8 6 -34 11 -57 10 -24 -1 -46 2 -48 6 -5 7 11
11 19 6 2 -2 11 3 20 11 10 7 17 10 17 6 0 -4 6 -2 14 4 10 8 16 9 21 1 3 -6
11 -8 16 -5 5 4 9 1 9 -5 0 -6 4 -9 9 -5 6 3 14 -3 20 -12 6 -10 11 -13 11 -8
0 6 14 -6 30 -25 19 -22 28 -28 24 -15 -7 20 -7 20 13 0 11 -11 28 -34 38 -50
l19 -30 -23 20 -24 20 14 -25 c7 -14 12 -31 10 -39 -1 -7 2 -10 8 -6 6 3 11 0
10 -7 -1 -19 -17 -55 -18 -40 -1 7 -5 11 -11 7 -6 -3 -6 -15 0 -30 5 -13 7
-35 4 -49 -3 -17 0 -26 8 -26 9 0 8 -3 -2 -10 -10 -6 -11 -10 -2 -10 6 0 12
-4 12 -9 0 -5 -10 -7 -22 -4 -22 4 -22 4 -4 -11 10 -8 16 -19 13 -24 -4 -4 4
-17 16 -27 20 -18 21 -20 4 -23 -11 -2 -16 -9 -13 -18 3 -8 0 -14 -6 -14 -7 0
-6 -5 2 -15 10 -13 9 -15 -11 -15 -24 -1 -24 -1 -4 -16 19 -14 19 -15 -3 -20
-27 -8 -28 -20 -3 -33 18 -10 18 -13 4 -52 -10 -32 -11 -49 -3 -72 14 -41 13
-47 -10 -47 -27 0 -87 55 -112 104 -12 23 -31 79 -44 126 -20 74 -23 80 -24
45 0 -22 -7 -51 -15 -65 -20 -35 -20 -57 0 -40 21 18 20 -2 -6 -70 l-21 -55
26 24 c24 23 26 23 26 5 0 -10 -12 -42 -26 -69 -25 -47 -25 -49 -5 -30 l22 19
-10 -28 c-12 -29 -15 -93 -5 -83 3 3 12 23 19 44 14 38 14 38 15 8 3 -66 15
-69 35 -8 12 39 20 51 23 38 6 -31 19 -39 27 -16 7 24 23 28 31 7 3 -8 12 -12
19 -10 8 3 18 -5 25 -18 10 -21 10 -22 -4 -4 -14 18 -15 17 -22 -10 l-7 -28
-9 25 c-10 26 -10 26 -45 -28 -10 -16 -12 -14 -13 17 l0 35 -20 -44 c-11 -24
-20 -47 -20 -52 0 -5 198 -9 460 -9 l460 0 0 355 c-1 211 -5 353 -10 350 -5
-3 -6 -13 -3 -21 5 -14 3 -15 -16 -4 -19 10 -26 9 -42 -6 -10 -9 -22 -14 -25
-11 -4 4 1 9 10 13 9 3 16 12 16 20 0 8 9 19 19 26 15 9 17 15 9 25 -8 10 -6
13 6 13 9 0 16 8 16 18 0 14 2 15 10 2 7 -10 10 100 9 333 0 245 -4 347 -11
347 -6 0 -19 7 -29 16 -16 15 -17 14 -12 -6 4 -17 2 -21 -8 -18 -8 3 -13 11
-11 18 2 10 0 11 -11 2 -10 -9 -17 -9 -26 1 -10 9 -11 8 -5 -8 12 -34 16 -38
25 -24 7 11 9 11 9 -2 0 -9 -10 -21 -22 -28 -22 -11 -21 -11 8 -8 32 3 35 -3
24 -48 -5 -21 1 -29 10 -15 6 9 10 10 10 3 0 -33 -28 -19 -65 32 -10 13 -13
14 -9 4 4 -12 -1 -16 -17 -15 -12 0 -24 -6 -26 -14 -4 -13 -3 -13 6 0 6 8 11
10 11 4 0 -23 -15 -24 -32 -2 -12 16 -16 17 -12 5 5 -14 2 -16 -17 -14 -20 3
-26 14 -38 62 -8 34 -10 60 -5 64 11 7 11 18 -1 45 -8 18 -9 18 -21 1 -12 -17
-14 -17 -20 -1 -3 9 -4 28 -2 41 l5 25 -643 0 -644 0 0 -790z m377 774 c-3 -3
-12 -4 -19 -1 -8 3 -5 6 6 6 11 1 17 -2 13 -5z m413 -10 c0 -2 -9 -4 -21 -4
-11 0 -18 4 -14 10 5 8 35 3 35 -6z m763 -124 c-4 -16 -8 -18 -19 -9 -16 13
-19 23 -5 14 5 -3 12 -1 16 5 10 16 14 12 8 -10z m-1488 -8 c-3 -3 -11 0 -18
7 -9 10 -8 11 6 5 10 -3 15 -9 12 -12z m224 -65 c-2 -18 0 -38 5 -45 4 -6 5
-16 1 -21 -3 -6 3 -14 12 -20 14 -8 15 -11 3 -11 -9 0 -6 -6 10 -16 l25 -15
-28 4 c-20 3 -25 1 -17 -8 5 -6 7 -15 3 -18 -3 -4 0 -13 7 -22 10 -12 10 -15
-1 -15 -8 -1 -3 -11 13 -25 18 -15 23 -25 15 -28 -7 -3 -3 -6 9 -6 11 -1 21
-8 21 -16 0 -18 -2 -18 -30 -4 -22 12 -22 12 -3 -10 20 -22 9 -30 -12 -9 -9 9
-12 6 -12 -17 0 -55 -30 -4 -42 71 -14 92 -2 264 19 264 2 0 3 -15 2 -33z
m842 -12 c-30 -35 -42 -63 -20 -49 7 4 7 -1 -1 -16 -11 -20 -10 -21 9 -15 28
8 26 -3 -5 -40 -23 -27 -25 -28 -19 -7 6 22 5 23 -14 12 -20 -10 -21 -9 -15
16 l7 26 -28 -18 -28 -18 12 22 c10 19 9 21 -6 15 -29 -10 59 78 92 93 47 21
50 17 16 -21z m436 -3 c3 -32 -9 -42 -23 -20 -4 7 -3 8 4 4 16 -9 15 7 0 22
-9 9 -9 12 3 12 12 0 12 2 -1 11 -13 9 -13 10 0 6 8 -2 16 -17 17 -35z m-97 1
c0 -8 -5 -13 -12 -11 -18 6 -21 25 -3 25 8 0 15 -7 15 -14z m-927 -107 c11
-16 16 -26 9 -22 -7 4 -12 3 -12 -3 0 -5 8 -15 18 -20 16 -10 16 -10 -1 -11
-10 0 -15 -5 -12 -11 4 -5 -1 -20 -12 -31 -16 -20 -17 -21 0 -15 9 4 17 2 17
-3 0 -6 5 -10 11 -10 5 0 8 4 5 8 -7 12 48 9 56 -3 12 -16 9 -30 -4 -17 -15
15 -32 16 -22 1 4 -8 -1 -9 -16 -4 -15 5 -20 4 -16 -4 10 -15 -7 -14 -23 2
-11 10 -13 8 -9 -8 5 -21 -15 -49 -26 -38 -10 10 -7 25 4 18 18 -11 11 14 -10
35 -16 16 -18 24 -10 41 10 18 9 19 -17 13 -26 -7 -27 -6 -13 11 14 17 13 17
-10 10 l-25 -8 20 22 c16 19 17 24 5 31 -12 8 -10 10 8 10 22 0 22 1 7 31
l-16 30 23 -12 c22 -11 22 -11 7 7 -9 10 -19 28 -22 39 -7 21 47 -35 86 -89z
m827 92 c0 -4 -7 -8 -15 -8 -8 0 -15 4 -15 8 0 5 7 9 15 9 8 0 15 -4 15 -9z
m117 -20 c-3 -8 -6 -5 -6 6 -1 11 2 17 5 13 3 -3 4 -12 1 -19z m-17 2 c0 -5
-2 -10 -4 -10 -3 0 -8 5 -11 10 -3 6 -1 10 4 10 6 0 11 -4 11 -10z m-1345 -60
c-3 -5 -12 -10 -18 -10 -7 0 -6 4 3 10 19 12 23 12 15 0z m-82 -15 c-3 -9 -8
-14 -10 -11 -3 3 -2 9 2 15 9 16 15 13 8 -4z m107 -15 c0 -5 -2 -10 -4 -10 -3
0 -8 5 -11 10 -3 6 -1 10 4 10 6 0 11 -4 11 -10z m982 -12 c-7 -7 -12 -8 -12
-2 0 14 12 26 19 19 2 -3 -1 -11 -7 -17z m-472 -119 c0 -6 -4 -7 -10 -4 -5 3
-10 11 -10 16 0 6 5 7 10 4 6 -3 10 -11 10 -16z m-221 -64 c11 -19 17 -35 14
-35 -14 0 -43 34 -43 52 0 26 5 23 29 -17z m31 -9 c0 -5 -7 -3 -15 4 -8 7 -15
20 -15 28 0 13 3 12 15 -4 8 -10 15 -23 15 -28z m21 22 c11 -21 11 -22 -4 -9
-10 7 -17 17 -17 22 0 15 9 10 21 -13z m-44 -72 c16 -8 21 -16 13 -16 -11 0
-10 -4 5 -17 19 -15 18 -15 -20 -10 -35 5 -38 4 -22 -7 16 -13 16 -14 -4 -19
-12 -3 -31 -1 -41 4 -17 9 -18 8 -9 -9 6 -11 16 -23 23 -26 7 -3 -3 -3 -22 0
l-35 5 24 -21 23 -20 -43 0 c-32 0 -40 -3 -29 -10 8 -5 26 -10 40 -10 24 -1
24 -1 6 -15 -11 -8 -31 -15 -45 -15 -14 0 -33 -5 -41 -11 -11 -7 -3 -9 32 -7
59 4 50 -6 -27 -31 l-60 -19 50 -2 50 -2 -42 -19 c-24 -11 -40 -25 -38 -32 3
-6 -10 -22 -27 -34 -36 -25 -50 -22 -25 5 23 25 21 31 -5 24 -22 -5 -22 -4 -5
15 9 11 14 23 10 26 -3 4 0 7 7 7 10 0 9 5 -3 18 -24 26 -22 46 2 32 32 -16
33 -12 6 17 -14 15 -25 36 -25 45 0 16 2 16 21 -3 11 -11 24 -18 27 -14 4 3 2
9 -4 13 -11 7 -34 46 -34 57 0 4 13 -3 29 -14 36 -26 49 -27 29 -3 -9 9 -21
27 -27 40 -12 22 -11 23 8 13 33 -18 44 -14 36 17 -5 22 -4 25 6 15 20 -20 31
-15 24 8 -6 18 -5 19 13 10 31 -16 35 -13 18 11 -24 34 -19 40 15 23 29 -16
30 -16 20 4 -18 34 -12 34 24 2 44 -38 53 -40 26 -5 -12 15 -21 34 -21 43 0 9
8 3 20 -16 10 -17 32 -39 47 -47z m83 -46 c-20 -13 -33 -13 -25 0 3 6 14 10
23 10 15 0 15 -2 2 -10z m-10 -30 c-20 -13 -43 -13 -35 0 3 6 16 10 28 10 18
0 19 -2 7 -10z m-385 -100 c-3 -5 -11 -10 -16 -10 -6 0 -7 5 -4 10 3 6 11 10
16 10 6 0 7 -4 4 -10z m775 -14 c1 17 2 17 20 -5 11 -13 20 -19 20 -15 0 17
36 33 51 22 11 -8 11 -9 -3 -5 -9 3 -24 -3 -34 -14 -17 -19 -19 -19 -30 -4
-11 15 -13 15 -22 -1 -8 -15 -11 -14 -26 7 l-16 23 0 -29 c-1 -23 -3 -26 -10
-14 -5 8 -6 26 -3 38 l6 22 23 -22 c23 -21 24 -21 24 -3z m-250 5 c0 -6 -4
-13 -10 -16 -5 -3 -10 1 -10 9 0 9 5 16 10 16 6 0 10 -4 10 -9z m-520 -20 c-7
-14 -6 -21 2 -23 9 -3 8 -12 -5 -32 l-18 -27 28 7 28 7 -22 -25 c-27 -29 -28
-35 -7 -40 14 -3 13 -7 -6 -31 -24 -30 -21 -48 4 -28 13 11 14 5 10 -48 -4
-54 -2 -60 13 -54 15 5 15 3 -3 -18 -34 -39 -39 -56 -9 -29 l28 25 -13 -23
c-11 -22 -10 -23 11 -17 23 8 23 7 6 -18 -23 -35 -23 -54 0 -36 25 20 -23 -58
-57 -95 l-28 -28 6 28 c5 26 4 28 -12 15 -31 -26 -25 -5 14 44 40 51 45 72 10
40 -20 -18 -20 -18 -14 13 7 33 -3 41 -24 20 -17 -17 -15 4 3 28 21 27 19 32
-12 26 l-28 -5 38 46 c20 25 37 48 37 52 0 4 -19 -8 -42 -26 -74 -56 -74 -57
-54 -24 10 17 29 41 41 55 25 28 49 70 40 70 -4 0 -22 -12 -41 -26 -39 -30
-46 -19 -9 16 31 29 35 56 6 40 -11 -5 -23 -10 -27 -10 -13 0 31 42 61 58 l30
16 -25 6 -25 7 25 11 c14 6 18 11 10 12 -11 0 -8 6 9 20 29 25 34 25 21 1z
m580 -15 c0 -28 -18 -46 -45 -46 -30 0 -65 28 -65 52 0 20 1 20 18 5 26 -24
63 -22 69 3 7 25 23 16 23 -14z m325 -46 c-3 -5 -11 -10 -16 -10 -6 0 -7 5 -4
10 3 6 11 10 16 10 6 0 7 -4 4 -10z m-760 -310 c-3 -5 -1 -10 5 -10 6 0 9 -4
5 -10 -3 -5 -12 -7 -21 -3 -11 4 -12 9 -3 19 13 16 23 19 14 4z m13 -47 c-11
-14 -10 -15 9 -9 21 7 22 5 16 -25 -5 -29 -4 -31 16 -24 20 6 22 5 12 -13 -15
-28 -14 -42 3 -36 10 4 12 -2 9 -21 -4 -20 -2 -24 11 -19 14 5 16 2 10 -21 -5
-21 -4 -26 6 -20 9 5 10 2 5 -14 -7 -23 4 -28 24 -9 12 11 13 9 6 -7 -4 -11
-8 -29 -10 -39 -1 -11 -8 -22 -15 -24 -9 -3 -11 2 -7 17 4 17 2 21 -9 17 -11
-4 -13 0 -8 19 8 31 1 31 -27 3 l-21 -23 21 43 c23 45 21 48 -10 31 -20 -10
-20 -9 -4 20 17 34 14 37 -16 20 -20 -10 -20 -10 -4 21 22 42 14 47 -24 15
l-31 -27 25 44 c29 50 31 63 10 54 -51 -21 -51 -21 -31 2 12 14 14 22 7 22
-21 0 -4 16 19 17 19 2 20 0 8 -14z m582 -93 c0 -5 -4 -10 -10 -10 -5 0 -10 5
-10 10 0 6 5 10 10 10 6 0 10 -4 10 -10z m-724 -23 c7 10 14 13 14 7 0 -6 -10
-24 -22 -40 -13 -15 -23 -35 -23 -43 0 -8 -7 -17 -15 -19 -12 -4 -13 -3 -3 10
7 8 10 18 6 21 -3 4 0 13 7 22 15 18 -1 20 -18 3 -21 -21 -13 1 11 28 18 21
23 23 25 9 3 -15 5 -15 18 2z m275 -190 c-10 -9 -11 -8 -5 6 3 10 9 15 12 12
3 -3 0 -11 -7 -18z"/>
<path d="M1514 1544 c5 -12 2 -15 -10 -10 -9 4 -24 1 -32 -6 -13 -11 -14 -11
-8 1 6 9 5 12 -5 9 -8 -3 -13 -11 -11 -17 1 -8 -3 -8 -17 1 -11 7 -17 17 -14
23 4 5 2 6 -3 2 -5 -5 -9 -14 -9 -19 0 -6 -6 -13 -14 -16 -9 -3 -11 0 -6 9 5
8 -2 5 -15 -6 -21 -18 -23 -18 -17 -2 4 11 3 16 -3 12 -13 -8 -6 -48 10 -53 7
-3 10 0 6 7 -4 6 -1 11 6 12 7 0 22 2 33 4 10 2 25 -1 31 -6 8 -6 13 -6 16 0
1 5 15 12 30 15 15 2 33 8 39 12 7 4 9 3 6 -3 -4 -6 6 -10 23 -9 22 1 30 6 30
20 0 11 -3 16 -6 13 -4 -3 -16 0 -28 8 -27 20 -40 19 -32 -1z"/>
<path d="M1556 1478 c3 -5 10 -6 15 -3 13 9 11 12 -6 12 -8 0 -12 -4 -9 -9z"/>
<path d="M1356 1451 c-4 -5 -3 -17 1 -27 5 -13 3 -15 -8 -9 -8 4 -11 5 -7 0
11 -12 68 -14 68 -3 0 6 6 5 15 -2 11 -9 18 -9 35 3 19 13 19 15 3 29 -19 16
-56 21 -47 6 3 -5 10 -6 15 -3 5 4 9 0 9 -8 0 -18 -38 -15 -52 4 -8 11 -9 10
-4 -4 4 -12 2 -17 -6 -14 -7 2 -12 12 -12 21 2 18 -2 21 -10 7z"/>
<path d="M1486 1381 c-4 -5 -2 -12 3 -15 5 -4 12 -2 15 3 4 5 2 12 -3 15 -5 4
-12 2 -15 -3z"/>
<path d="M727 858 c18 -20 26 -19 18 4 -3 8 -12 15 -20 15 -13 0 -12 -4 2 -19z"/>
<path d="M491 656 c-1 -20 3 -27 13 -23 9 4 16 -3 20 -16 5 -18 8 -19 15 -8 9
14 -9 43 -26 41 -4 -1 -10 7 -14 17 -6 14 -8 12 -8 -11z"/>
<path d="M596 584 c-5 -14 -9 -14 -23 -3 -15 13 -15 12 -5 -8 16 -29 32 -38
32 -19 0 20 9 20 30 1 15 -14 19 -13 36 7 16 19 16 20 1 9 -15 -12 -21 -11
-41 8 -21 20 -24 20 -30 5z"/>
<path d="M616 23 c-11 -11 -6 -23 9 -23 8 0 15 4 15 9 0 13 -16 22 -24 14z"/>
</g>
</svg>
