<svg width="32" height="32" viewBox="0 0 32 32" fill="none" xmlns="http://www.w3.org/2000/svg">
<rect width="32" height="32" fill="white"/>
<path d="M13.457 23L12.4219 19.6016H7.2168L6.18164 23H2.91992L7.95898 8.66406H11.6602L16.7188 23H13.457ZM11.6992 17.0625L10.6641 13.7422C10.599 13.5208 10.5111 13.2376 10.4004 12.8926C10.2962 12.541 10.1888 12.1862 10.0781 11.8281C9.97396 11.4635 9.88932 11.1478 9.82422 10.8809C9.75911 11.1478 9.66797 11.4798 9.55078 11.877C9.4401 12.2676 9.33268 12.6387 9.22852 12.9902C9.12435 13.3418 9.04948 13.5924 9.00391 13.7422L7.97852 17.0625H11.6992ZM26.9531 19.0352C26.9531 19.8815 26.748 20.6172 26.3379 21.2422C25.9277 21.8672 25.3288 22.349 24.541 22.6875C23.7598 23.026 22.8092 23.1953 21.6895 23.1953C21.1947 23.1953 20.7096 23.1628 20.2344 23.0977C19.7656 23.0326 19.3132 22.9382 18.877 22.8145C18.4473 22.6842 18.0371 22.5247 17.6465 22.3359V19.5234C18.3236 19.8229 19.0267 20.0931 19.7559 20.334C20.485 20.5749 21.2077 20.6953 21.9238 20.6953C22.4186 20.6953 22.8158 20.6302 23.1152 20.5C23.4212 20.3698 23.6426 20.1908 23.7793 19.9629C23.916 19.735 23.9844 19.4746 23.9844 19.1816C23.9844 18.8236 23.8639 18.5176 23.623 18.2637C23.3822 18.0098 23.0501 17.7721 22.627 17.5508C22.2103 17.3294 21.7383 17.0918 21.2109 16.8379C20.8789 16.6816 20.5176 16.4928 20.127 16.2715C19.7363 16.0436 19.3652 15.7669 19.0137 15.4414C18.6621 15.1159 18.3724 14.722 18.1445 14.2598C17.9232 13.791 17.8125 13.2311 17.8125 12.5801C17.8125 11.7272 18.0078 10.998 18.3984 10.3926C18.7891 9.78711 19.3457 9.32487 20.0684 9.00586C20.7975 8.68034 21.6569 8.51758 22.6465 8.51758C23.3887 8.51758 24.0951 8.60547 24.7656 8.78125C25.4427 8.95052 26.1491 9.19792 26.8848 9.52344L25.9082 11.877C25.2507 11.61 24.6615 11.4049 24.1406 11.2617C23.6198 11.112 23.0892 11.0371 22.5488 11.0371C22.1712 11.0371 21.849 11.099 21.582 11.2227C21.3151 11.3398 21.1133 11.5091 20.9766 11.7305C20.8398 11.9453 20.7715 12.196 20.7715 12.4824C20.7715 12.821 20.8691 13.1074 21.0645 13.3418C21.2663 13.5697 21.5658 13.791 21.9629 14.0059C22.3665 14.2207 22.8678 14.4714 23.4668 14.7578C24.196 15.1029 24.8177 15.4642 25.332 15.8418C25.8529 16.2129 26.2533 16.6523 26.5332 17.1602C26.8132 17.6615 26.9531 18.2865 26.9531 19.0352Z" fill="#6366F1"/>
</svg>
