<?xml version="1.0" standalone="no"?>
<!DOCTYPE svg PUBLIC "-//W3C//DTD SVG 1.1//EN" "http://www.w3.org/Graphics/SVG/1.1/DTD/svg11.dtd" >
<svg>
<metadata>
Created by FontForge 20090622 at Thu Apr 30 12:34:34 2015
 By deploy user
Copyright (c) 2011 by Ania Kruk (hello@aniakruk.com), with Reserved Font Name Cookie.
</metadata>
<defs>
<font id="Cookie-Regular" horiz-adv-x="501" >
  <font-face 
    font-family="Cookie"
    font-weight="400"
    font-stretch="normal"
    units-per-em="1000"
    panose-1="2 0 0 0 0 0 0 0 0 0"
    ascent="800"
    descent="-200"
    x-height="354"
    cap-height="616"
    bbox="-163 -320 947 789"
    underline-thickness="50"
    underline-position="-50"
    unicode-range="U+0020-U+2265"
  />
<missing-glyph horiz-adv-x="355" 
 />
    <glyph glyph-name="f_f" unicode="ff" horiz-adv-x="424" 
d="M233 243l7 38q-41 8 -41 45.5t54 37.5q51 256 127 256q15 0 26 -25t11 -73t-22 -114.5t-53 -105.5l3 -7q29 -13 59.5 -13t48 3.5t19.5 3.5q12 0 12 -13q0 -11 -20.5 -16.5t-47.5 -5.5t-63 11q30 -84 30 -218.5t-30 -214.5t-79 -80q-28 0 -50 19t-22 64q0 158 26 368
q-29 -15 -58 -24q16 -70 16 -131t-2 -99.5t-9 -89t-18 -88.5t-32 -64.5t-52.5 -26.5t-52 21t-20.5 84q0 178 20 387q-57 23 -57 82q0 36 18.5 60t46.5 24q8 0 12 -1q14 89 26.5 146t42 97t57.5 40q32 0 32 -71q0 -110 -82 -251q25 -27 45 -84q34 9 72 29zM85 164
q-10 -137 -10 -249t3 -154t14 -42q30 0 49 87.5t19 188.5t-21 176q-24 -7 -54 -7zM274 -25q0 -184 17 -184q24 0 42.5 71t18.5 161q0 190 -38 244l-18 -18q-22 -168 -22 -274zM369 402.5q24 63.5 24 97.5q0 65 -12 65q-37 0 -71 -216q10 -8 20 -24q15 14 39 77.5zM176 538
q0 40 -9 40q-16 0 -34.5 -72t-33.5 -192q77 134 77 224zM22 307q-28 0 -28 -30t32 -52l9 80q-7 2 -13 2zM88 206q15 0 39 2q-14 37 -32 57l-2 -4q-4 -36 -5 -55z" />
    <glyph glyph-name=".notdef" horiz-adv-x="355" 
 />
    <glyph glyph-name=".null" horiz-adv-x="0" 
 />
    <glyph glyph-name="nonmarkingreturn" horiz-adv-x="333" 
 />
    <glyph glyph-name="space" unicode=" " horiz-adv-x="199" 
 />
    <glyph glyph-name="exclam" unicode="!" horiz-adv-x="253" 
d="M79 -8.5q-14 9.5 -13.5 31.5t20 34.5t36.5 12.5t28.5 -9.5t11.5 -23.5q0 -55 -54 -55q-15 0 -29 9.5zM194 569.5q11 -10.5 11 -25t-2 -28t-6.5 -32t-10 -49.5t-21.5 -134t-23 -143q-2 -9 -9.5 -17t-15.5 -8q-22 0 -22 39q0 63 3 106.5t4 81.5q1 83 10.5 123.5t27 68.5
t34.5 28q9 0 20 -10.5z" />
    <glyph glyph-name="quotedbl" unicode="&#x22;" horiz-adv-x="248" 
d="M48 580q21 0 30 -6.5t9 -27.5t-10.5 -73t-19.5 -73q-5 -9 -18.5 -9t-15.5 11q-8 35 -8 145q0 33 33 33zM160 580q21 0 30 -6.5t9 -27.5t-10.5 -73t-19.5 -73q-5 -9 -18.5 -9t-15.5 11q-8 35 -8 145q0 33 33 33z" />
    <glyph glyph-name="numbersign" unicode="#" horiz-adv-x="572" 
d="M289 240l-89 -3q-11 -78 -31 -167q-20 -80 -53 -80q-15 0 -30.5 5t-16.5 15q0 26 30.5 92.5t35.5 86.5l12 47q-10 -1 -37.5 -6.5t-44.5 -5.5q-32 0 -32 18q0 7 22.5 13t43.5 8l56 5q11 54 22 129l-88 -11q-30 0 -30 16q0 7 23 13.5t43 8.5l56 6q15 109 25 139q8 31 21 31
q8 0 13.5 -5t5.5 -16t-4 -24t-8.5 -21t-6.5 -24.5t-8 -76.5q71 7 140 11q14 90 23.5 123t22 33t12.5 -12.5t-6 -26.5q-6 -43 -13 -115q78 5 110.5 5t32.5 -14q0 -5 -6 -16.5t-21.5 -23.5t-42 -12t-80.5 9q-8 -72 -14 -109q75 5 106.5 5t31.5 -14q0 -5 -6.5 -15t-22 -20
t-46.5 -10t-70 4q-12 -78 -29 -161.5t-47 -83.5q-14 0 -27.5 5t-14.5 15q0 27 27 95t31 84l12 50q-13 1 -33 1zM317 401l-100 -3q-7 -85 -12 -126l126 10q2 13 7 37l14 80q-9 2 -35 2z" />
    <glyph glyph-name="dollar" unicode="$" horiz-adv-x="481" 
d="M337 459l5 26q-2 52 -68 54q-2 -59 -8 -199q120 -64 143 -109q12 -23 12 -50q0 -73 -50 -119t-124 -60q-7 -69 -28 -69t-22 63q-80 0 -131.5 28t-51.5 91q0 32 20.5 58t61.5 26q16 0 29 -9.5t15 -23.5q0 -15 -18 -15q-34 0 -34 -29q0 -32 28.5 -59t80.5 -28q0 9 19 261
q-102 54 -122 94q-10 20 -10 44q0 54 44.5 93t105.5 50q0 56 26 56q15 0 15 -52q48 0 86 -20t38 -61q0 -56 -42 -56q-20 0 -20 15zM348 159q0 59 -85 111q-13 -199 -13 -228q42 12 70 44t28 73zM155 446q0 -40 66 -80l11 166q-32 -12 -54.5 -36t-22.5 -50z" />
    <glyph glyph-name="percent" unicode="%" horiz-adv-x="521" 
d="M51 18q0 15 16.5 34.5l50 59t60.5 87.5q92 161 150 251q-39 -12 -70 -15q-4 -48 -38 -83t-86 -35t-76 29t-24 69t28 72t75 32q5 0 8 -1q17 14 43 14t45.5 -19.5t24.5 -49.5q44 3 95 24q14 21 34.5 47.5t47.5 26.5t27 -20q0 -30 -35 -45q-40 -18 -165 -262
q-109 -214 -146 -232q-12 -6 -30 -6q-35 0 -35 22zM328.5 69.5q19.5 -22.5 49 -22.5t47 24t17.5 52t-5.5 41.5t-11 18t-7 4.5t-7.5 -3t-14 -3q-19 0 -19 14q0 27 39 27q25 0 44.5 -21t19.5 -67t-34 -83.5t-97 -37.5q-43 0 -68.5 29.5t-25.5 72.5t28 81.5t75 38.5
q14 0 14 -10q0 -7 -15.5 -10.5t-32 -32t-16.5 -59.5t19.5 -53.5zM142 349q37 0 55.5 25.5t20.5 58.5q-41 1 -65 16t-24 36q0 10 4 18q-50 -9 -50 -78q0 -30 18 -53t41 -23zM176 507q-9 0 -9 -10.5t13 -19t35 -12.5q-10 42 -39 42z" />
    <glyph glyph-name="ampersand" unicode="&#x26;" horiz-adv-x="532" 
d="M140 312q-51 94 -51 152t43 103t110.5 45t105.5 -29.5t38 -81.5t-45 -95q-47 -43 -83.5 -66t-40.5 -26q68 -98 168 -185q17 36 17 66.5t-12 48t-27.5 19.5t-15.5 13q0 14 14 22t41.5 8t46 -22t18.5 -54q0 -70 -45 -132q70 -55 132 -78l19 -6.5t13 -5.5q12 -5 12 -14.5
t-21.5 -22t-38.5 -12.5q-78 0 -178 80q-75 -52 -172.5 -52t-142.5 41.5t-45 99t36.5 99t103.5 85.5zM85 155q0 -53 39 -90t98 -37t109 37q-98 89 -172 211q-74 -55 -74 -121zM282.5 416.5q29.5 31.5 29.5 70t-22 62.5t-61.5 24t-58 -28.5t-18.5 -75t44 -121.5
q57 37 86.5 68.5z" />
    <glyph glyph-name="quotesingle" unicode="'" horiz-adv-x="130" 
d="M41 580q21 0 30 -6.5t9 -27.5t-10.5 -73t-19.5 -73q-4 -9 -18 -9t-16 11q-8 35 -8 145q0 33 33 33z" />
    <glyph glyph-name="parenleft" unicode="(" horiz-adv-x="274" 
d="M238.5 -73.5q7.5 -11.5 7.5 -17t-12 -8.5t-22 -3q-34 0 -51 18q-49 49 -72.5 128t-23.5 166q0 181 138 360q37 48 61 48q9 0 9 -13t-28 -44q-109 -130 -109 -306.5t64 -275.5q6 -9 18.5 -25t20 -27.5z" />
    <glyph glyph-name="parenright" unicode=")" horiz-adv-x="258" 
d="M40.5 589.5q-7.5 11.5 -7.5 17t12 8.5t22 3q34 0 51 -18q49 -49 72.5 -128t23.5 -166q0 -181 -138 -360q-37 -48 -61 -48q-9 0 -9 13t28 44q109 130 109 306.5t-64 275.5q-6 9 -18.5 25t-20 27.5z" />
    <glyph glyph-name="asterisk" unicode="*" horiz-adv-x="373" 
d="M132 320q-34 0 -34 30q0 14 20.5 39t26.5 38q-40 -8 -77 -8t-38 16q0 12 22 12q65 0 107 16q-37 41 -42.5 45.5t-15.5 12t-13 10t-10 9t-9 10.5q-7 14 -7 24q0 23 28 23q12 0 20 -8t14.5 -16t11.5 -15q19 -23 40 -53q13 46 15.5 92t19.5 46q15 0 15 -45t-13 -107
q9 6 31 24t41.5 30t34.5 12t15 -23.5t-24 -36.5q-45 -27 -90 -45q6 -6 27 -22q52 -37 52 -54q0 -11 -12 -11q-38 0 -92 58q-2 -5 -7.5 -25t-9.5 -29.5t-11 -22.5q-13 -26 -36 -26z" />
    <glyph glyph-name="plus" unicode="+" horiz-adv-x="402" 
d="M187 72q-13 0 -21 8.5t-8 19t8 34.5q14 41 19 100q-12 1 -41 1t-48.5 -3t-21.5 -3q-24 0 -24 18q0 13 11 24t18 11t15 -1q32 -4 96 -4q9 81 9 103t10 32.5t16 10.5q9 0 9 -83q0 -23 -2 -63q73 0 93 6l27 9q11 0 11 -15.5t-10.5 -31.5t-25.5 -16q-53 0 -97 2
q-12 -129 -21 -144t-22 -15z" />
    <glyph glyph-name="comma" unicode="," horiz-adv-x="152" 
d="M49 58.5q19 17.5 34 17.5t27 -18.5t12 -43.5t-36.5 -76.5t-61.5 -51.5q-8 0 -8 11t20 37t20 40.5t-13 29.5t-13 26t19 28.5z" />
    <glyph glyph-name="hyphen" unicode="-" horiz-adv-x="287" 
d="M244 267q-3 -69 -85 -69q-13 0 -40 4.5t-53.5 4.5t-42 -2t-17.5 -2q-21 1 -20.5 21.5t20.5 28.5q14 7 93.5 7t102 9t32.5 9t10 -11z" />
    <glyph glyph-name="period" unicode="." horiz-adv-x="178" 
d="M42 -8.5q-14 9.5 -14 31.5t20 34.5t37 12.5t28.5 -9.5t11.5 -23.5q0 -55 -54 -55q-15 0 -29 9.5z" />
    <glyph glyph-name="slash" unicode="/" horiz-adv-x="274" 
d="M-19 -137.5q-9 13.5 -9 29t13 49t27 61.5l61 111q41 81 83 240t57 191.5t35 32.5q7 0 7 -12t-6 -36q-91 -391 -166 -581q-16 -40 -40 -69.5t-38.5 -29.5t-23.5 13.5z" />
    <glyph glyph-name="zero" unicode="0" horiz-adv-x="467" 
d="M251 504l-52 -5q-8 0 -8 10q0 17 27 29t63 12q63 0 107 -60t44 -174q0 -111 -55 -211q-27 -49 -75 -79.5t-109 -30.5q-85 0 -124.5 58.5t-39.5 148.5q0 169 81 275q34 45 58 45q7 0 7 -7q0 -6 -9 -18q-42 -60 -51 -116t-9 -142t31 -140.5t75 -54.5t72.5 22.5t42.5 59.5
q27 73 27 156t-26 152.5t-77 69.5z" />
    <glyph glyph-name="one" unicode="1" horiz-adv-x="313" 
d="M169 503q34 57 68 57t34 -134q0 -39 -6.5 -103t-8.5 -92q0 -75 -5.5 -130.5t-7.5 -65.5t-8 -23q-10 -22 -50 -22q-22 0 -22 48t18.5 174.5t18.5 193.5t-7.5 67t-40.5 -65t-48.5 -101t-22.5 -65.5t-14 -43.5t-19 -14q-19 0 -19 20.5t45.5 118.5t94.5 180z" />
    <glyph glyph-name="two" unicode="2" horiz-adv-x="415" 
d="M108 455q0 -14 9.5 -36.5t9.5 -35t-8.5 -24.5t-22.5 -12t-23.5 23t-9.5 46q0 64 51 104t111 40t103.5 -33t43.5 -87.5t-20.5 -93.5t-47.5 -63l-80.5 -71t-93.5 -90q36 -6 99.5 -24.5t74.5 -18.5q37 0 70 54q17 29 24 29q9 0 9 -12q0 -28 -28.5 -74t-51.5 -63.5t-69 -17.5
q-14 0 -73 33t-95 33q-28 -61 -51 -61q-17 0 -27.5 10t-10.5 32t23 51t53 33q34 36 77 77t61.5 60t38 45t26 51t6.5 63t-23 66.5t-61 28.5t-66 -14t-28 -48z" />
    <glyph glyph-name="three" unicode="3" horiz-adv-x="404" 
d="M94 492l5 -25q0 -8 -12.5 -8t-21 18.5t-8.5 40.5t15 40t37 18t81 -20t103 -21q21 25 42 25q41 0 41 -60q0 -19 -25 -31t-49 -12q-15 -18 -44.5 -50.5t-53.5 -61.5q24 4 48 4q57 0 90 -47.5t33 -100.5q0 -100 -73 -155.5t-172 -55.5q-41 0 -79.5 28t-38.5 56
q0 13 6.5 21.5t21 8.5t29.5 -12t23 -26.5t23.5 -26.5t35.5 -12q68 0 107.5 49.5t39.5 115.5q0 38 -26 77t-66 39q-16 0 -36 -4t-31.5 -4t-11.5 9t8 17q74 70 120 136q-36 8 -83 30t-55 22q-23 0 -23 -22z" />
    <glyph glyph-name="four" unicode="4" horiz-adv-x="440" 
d="M239 161l-195 -11q-17 0 -27 9t-10 19.5t27 18.5q8 26 62.5 155t59 145.5t9.5 38.5t9 33t17 23t28 12t21.5 -13t6.5 -28q0 -38 -26 -77.5t-70 -123.5t-73 -160q48 0 100.5 11.5t71.5 14.5q15 174 38 174q11 0 22.5 -15t11.5 -30l-8 -123q39 0 68.5 -18t29.5 -39
q0 -26 -33 -26q-14 0 -35.5 5.5t-36.5 5.5q-2 -42 -2 -130q0 -18 -15.5 -30t-43.5 -12q-20 0 -20 33q0 53 13 138z" />
    <glyph glyph-name="five" unicode="5" horiz-adv-x="391" 
d="M119 348q35 11 94 11t99 -47t40 -104.5t-22 -102.5t-56 -69q-69 -46 -127 -46t-101 26t-43 55q0 14 9 26.5t23 12.5t27.5 -13t21.5 -29t27 -29t46 -13q45 0 82 41.5t37 106.5t-36.5 104.5t-88.5 39.5q-20 0 -38.5 -6t-33.5 -6t-15 13t13 18q15 71 15 120q-19 4 -32.5 16
t-13.5 28.5t13.5 31t26.5 14.5t24 -9.5t15 -24.5q40 0 78.5 13t61.5 28l42.5 28t26.5 13q19 0 19 -43q0 -24 -21.5 -45t-72 -36.5t-128.5 -15.5q0 -34 -12 -107z" />
    <glyph glyph-name="six" unicode="6" horiz-adv-x="447" 
d="M278 560q54 0 86 -28t32 -75q0 -19 -9 -39t-31 -20q-30 0 -30 28q0 7 5.5 20.5t5.5 21.5q-1 53 -63.5 53t-105.5 -66.5t-52 -191.5q49 59 142 59q56 0 94.5 -42.5t38.5 -111t-47.5 -123.5t-129.5 -55q-176 0 -176 207q0 193 91 295q60 68 149 68zM307.5 246
q-22.5 40 -62 40t-71.5 -16q-46 -25 -59 -54q0 -59 18 -117q10 -32 33 -51.5t55 -19.5q51 0 80 40.5t29 89t-22.5 88.5z" />
    <glyph glyph-name="seven" unicode="7" horiz-adv-x="354" 
d="M167 225q-13 0 -30 -5.5t-27 -5.5q-20 0 -20 16q0 39 97 39q47 104 72 172q-46 10 -118 36t-80 26q-21 0 -21 -22q0 -8 4.5 -19.5t4.5 -15.5q0 -8 -7 -8q-16 0 -28.5 23.5t-12.5 45.5t14 40t36 18t103.5 -24.5t125.5 -25.5q6 9 22 20.5t28.5 11.5t23.5 -18.5t11 -48.5
q0 -18 -20.5 -29t-45.5 -14q-23 -69 -62 -173q31 -3 66.5 -3t35.5 -16q0 -13 -27 -15q-9 -1 -89 -3q-43 -115 -48 -132t-9 -37t-8.5 -32t-18.5 -24t-31.5 -12t-25 13t-7.5 28q0 36 36 85q16 23 56 109z" />
    <glyph glyph-name="eight" unicode="8" horiz-adv-x="405" 
d="M135 542q25 18 33.5 18t8.5 -8.5t-19 -31.5q-31 -37 -31 -77q0 -62 85 -112q101 64 101 120q0 33 -17.5 51.5t-36.5 18.5t-35 -6t-21 -6q-9 0 -9 14t23 25.5t57.5 11.5t66.5 -22t32 -58q0 -37 -12 -55l-18 -27q-12 -18 -54.5 -48t-48.5 -35q134 -78 134 -172
q0 -77 -57 -115t-154 -38q-59 0 -104.5 28t-45.5 86q0 107 156 200q-32 21 -50 34.5t-35 39t-17 53.5q0 63 68 111zM295 134q0 80 -95 150q-115 -97 -115 -177q0 -37 28 -63t75.5 -26t77 34t29.5 82z" />
    <glyph glyph-name="nine" unicode="9" horiz-adv-x="428" 
d="M174 27q42 0 71.5 30t42.5 79q24 84 24 178q0 212 -95 212q-41 0 -72.5 -45.5t-31.5 -101.5q0 -71 27 -107q18 -22 49.5 -22t63 14t37 14t5.5 -8q0 -19 -34 -38t-90 -19t-88.5 47t-32.5 106q0 77 51.5 135.5t122.5 58.5q39 0 69 -15t47.5 -38t29.5 -55q19 -54 19 -124
q0 -338 -233 -338q-43 0 -77.5 25.5t-35 57t19.5 31.5t34 -12t21 -26.5t21.5 -26.5t34.5 -12z" />
    <glyph glyph-name="colon" unicode=":" horiz-adv-x="205" 
d="M83 -8.5q-14 9.5 -14 31.5t20 34.5t37 12.5t28.5 -9.5t11.5 -23.5q0 -55 -54 -55q-15 0 -29 9.5zM83 276.5q-14 9.5 -14 31.5t20 34.5t37 12.5t28.5 -9.5t11.5 -23.5q0 -55 -54 -55q-15 0 -29 9.5z" />
    <glyph glyph-name="semicolon" unicode=";" horiz-adv-x="203" 
d="M87 58.5q19 17.5 34 17.5t27 -18.5t12 -43.5t-36.5 -76.5t-61.5 -51.5q-8 0 -8 11t20 37t20 40.5t-13 29.5t-13 26t19 28.5zM83 276.5q-14 9.5 -14 31.5t20 34.5t37 12.5t28.5 -9.5t11.5 -23.5q0 -55 -54 -55q-15 0 -29 9.5z" />
    <glyph glyph-name="less" unicode="&#x3c;" horiz-adv-x="443" 
d="M388 409q21 0 21 -17q0 -25 -49 -51q-21 -12 -98 -40.5t-129 -52.5q85 -24 170.5 -64.5t85.5 -58.5q0 -33 -19 -33q-15 0 -126 50t-159 63.5t-48 32.5q0 10 9 17t29 7t237 105q23 11 48.5 26.5t27.5 15.5z" />
    <glyph glyph-name="equal" unicode="=" horiz-adv-x="511" 
d="M365 138q-37 0 -91.5 9t-77 9t-38 -3.5t-36.5 -3.5q-38 0 -38 27q0 29 71 29q34 0 66 -5q49 -9 85 -9q45 0 89 27q4 3 8.5 3t4.5 -16t-12 -41.5t-31 -25.5zM183 287l-73 -4q-21 1 -20.5 21.5t20.5 28.5q14 7 134.5 7t143 9t32.5 9t10 -11q-3 -69 -85 -69z" />
    <glyph glyph-name="greater" unicode="&#x3e;" horiz-adv-x="453" 
d="M56 88q-21 0 -21 17q0 25 49 51q21 12 98 40.5t129 52.5q-83 18 -169.5 61t-86.5 62q0 37 21 37q13 0 120.5 -55t147 -64t52.5 -14t13 -14t-10.5 -18t-31.5 -10t-235 -104q-23 -11 -48.5 -26.5t-27.5 -15.5z" />
    <glyph glyph-name="question" unicode="?" horiz-adv-x="386" 
d="M160 133q-24 0 -39 19t-15 45.5t15.5 47t37.5 34.5t44.5 30t38 45t15.5 71.5t-23.5 70.5t-65.5 28q-18 0 -34 -16q-20 -21 -32 -54q-12 -26 -33 -26q-12 0 -18.5 9t-6.5 19q1 43 52.5 73.5t103.5 30.5t94.5 -30.5t42.5 -81t-18 -86t-44 -55t-52.5 -34.5t-44.5 -29.5
t-18 -28t15 -26.5t15 -19.5t-11 -21.5t-19 -15zM104 -8.5q-14 9.5 -13.5 31.5t20 34.5t36.5 12.5t28.5 -9.5t11.5 -23.5q0 -55 -54 -55q-15 0 -29 9.5z" />
    <glyph glyph-name="at" unicode="@" horiz-adv-x="727" 
d="M406 11q-7 7 -7 36.5t2 85.5q-28 -71 -53.5 -104.5t-66.5 -33.5t-71 37.5t-30 118t45.5 142.5t119.5 62q32 0 72 -42q9 13 30 32.5t35.5 19.5t14.5 -43t-15 -76t-15 -112t6 -90t22 -11q33 0 59.5 32t39 72.5t12.5 75.5q0 115 -54.5 191.5t-154 76.5t-173 -52.5
t-110.5 -131.5t-37 -164q0 -119 77 -188t183 -69q86 0 176 45q50 25 57.5 25t7.5 -14q0 -20 -63 -54q-109 -59 -232.5 -59t-203 75.5t-79.5 200.5q0 186 113 305t299 119q82 0 146.5 -43.5t95 -102.5t30.5 -116q0 -117 -55 -189.5t-159 -72.5q-44 0 -64 16zM339 315
q-28 0 -59.5 -41.5t-31.5 -97.5t16.5 -92t43.5 -36q34 0 99 171l4 50q-9 16 -32 31t-40 15z" />
    <glyph glyph-name="A" unicode="A" 
d="M396 46q18 0 48 41.5t59.5 107t36 65.5t6.5 -8q0 -28 -29 -89q-79 -168 -134 -168q-46 0 -66 16q-9 9 -9 190l-164 -12q-19 -52 -34 -104t-20 -64q-11 -26 -53 -26q-28 0 -28 24t38 70q7 9 46 97q-14 -1 -27 -1q-35 0 -35 30q0 27 28 27q2 0 57 -5q15 35 32 69
q131 274 180 274q37 0 51 -343h9q7 0 7 -10t-15 -17q6 -164 16 -164zM159 232q117 0 149 1q-1 16 -2 56t-2 69.5l-2 61.5q-4 69 -12 69q-11 0 -45 -65t-53 -110z" />
    <glyph glyph-name="B" unicode="B" horiz-adv-x="506" 
d="M255 26q54 0 95.5 38t41.5 87.5t-31 91.5q-34 -17 -67 -17q-77 0 -77 48q0 14 19 25.5t54.5 11.5t77.5 -21q40 43 40 97q0 67 -58.5 106.5t-125.5 39.5q-14 0 -21 -1q-1 -29 -5 -93q-6 -96 -6 -293q0 -76 -11 -76q-43 0 -55 12t-12 69q0 14 5.5 115t5.5 163t4 91
q-53 -18 -57 -58q-4 -33 -14.5 -46t-28 -13t-23.5 9.5t-6 19.5q0 87 135 120q17 68 54 68q15 0 15 -56q26 3 64.5 3t88.5 -14.5t87 -51t37 -81.5q0 -84 -81 -151q56 -44 56 -105t-38 -101q-71 -73 -190 -73q-81 0 -116 11q-7 2 -14.5 10.5t-7.5 21.5q0 21 41 21q13 0 57 -14
t67 -14zM340 265q-30 25 -56.5 25t-26.5 -11q0 -23 49 -23q18 0 34 9z" />
    <glyph glyph-name="C" unicode="C" horiz-adv-x="412" 
d="M410 165q7 10 20 35q32 57 38.5 57t6.5 -8q0 -49 -51 -124q-92 -135 -245 -135q-43 0 -79 20t-57 51q-43 63 -43 132q0 174 90.5 280.5t214.5 106.5q47 0 77 -27.5t30 -69.5t-21 -78t-50.5 -36t-29.5 16q0 18 19.5 41t19.5 46q0 71 -75.5 71t-136.5 -101t-61 -208
q0 -74 42 -131.5t118 -57.5q90 0 173 120z" />
    <glyph glyph-name="D" unicode="D" horiz-adv-x="654" 
d="M78 359l6 -64q0 -10 -10.5 -16t-17.5 -6q-14 0 -24.5 22.5t-10.5 41.5q0 74 51.5 125.5t130.5 77.5q0 34 14.5 64.5t45.5 30.5q13 0 13 -37v-42q32 4 47 4q133 0 210.5 -74.5t77.5 -187.5q0 -78 -28 -138t-76 -95q-96 -70 -230 -70h-21q-3 -29 -8 -29q-47 0 -63 13
q-7 7 -8 24q-89 25 -89 55q0 10 7 15.5t15.5 5.5t66.5 -24q9 262 23 450q-55 -19 -88.5 -57t-33.5 -89zM296 521q-14 0 -21 -1q-4 -175 -10 -294q-5 -155 -7 -195q20 -3 42 -3q95 0 165 70.5t70 173.5t-67 176t-172 73z" />
    <glyph glyph-name="E" unicode="E" horiz-adv-x="436" 
d="M271 335.5q-16 8.5 -37 8.5t-41 -10q34 -31 75 -31q9 0 14 4.5t5 7.5q0 12 -16 20.5zM334 482l2 27q0 22 -16.5 41.5t-44.5 19.5q-48 0 -87 -43t-39 -91.5t25 -81.5q43 19 80 19t59.5 -12.5t22.5 -37.5t-24.5 -37t-54.5 -12q-56 0 -102 31q-24 -25 -38.5 -59t-14.5 -63
q0 -59 38 -108t101 -49q132 0 215 174q28 57 35.5 57t7.5 -8q0 -40 -49.5 -120.5t-107 -112t-141 -31.5t-131.5 49t-48 122q0 48 28.5 92.5t73.5 76.5q-47 39 -47 94q0 76 59 128.5t143 52.5q55 0 92.5 -28.5t37.5 -67.5q0 -22 -13 -36t-33 -14q-29 0 -29 28z" />
    <glyph glyph-name="F" unicode="F" horiz-adv-x="409" 
d="M69 401l10 -47q0 -17 -12 -28t-28 -11t-23.5 15t-7.5 33q0 54 46.5 97.5t105.5 43.5h6q20 76 60 76q12 0 12 -32q0 -6 -3 -48q15 -2 35 -5q47 -7 78.5 -7t64 10.5t43.5 10.5q28 0 28 -28.5t-30 -43t-87 -14.5t-139 26q-12 -69 -14 -104t-4 -104q42 2 116 2q13 0 22.5 -10
t9.5 -21t-7 -18t-15 -7l-127 7q-4 -98 -6.5 -133t-19.5 -65t-40 -30q-13 0 -28.5 13.5t-15.5 25.5t3.5 18.5t8 13t6.5 10.5q12 26 22 143l-39 -5q-8 0 -13 5.5t-5 13t3 13.5t12 9.5t13 4.5q16 4 32 4q2 24 5.5 104t10.5 125q-6 1 -18 1q-71 0 -71 -64z" />
    <glyph glyph-name="G" unicode="G" horiz-adv-x="551" 
d="M487 214q31 9 65 30.5t43 21.5t9 -11.5t-14 -21.5q-51 -36 -106 -55q-21 -97 -94 -145t-167 -48q-60 0 -105.5 21t-69.5 54q-48 65 -48 137q0 93 28.5 168.5t74.5 121t99.5 69.5t108.5 24t101 -35.5t46 -81.5q0 -15 -11.5 -25t-27.5 -10q-23 0 -32 32q-22 77 -105 77
q-70 0 -135.5 -87t-65.5 -206q0 -84 50.5 -146t126.5 -62q61 0 104 35t55 90q-25 -5 -61 -5t-62.5 17t-26.5 46.5t30.5 50.5t77.5 21t79.5 -19t32.5 -58zM372 257q-45 0 -45 -20q0 -15 18 -25t37.5 -10t39.5 2q-1 24 -16 38.5t-34 14.5z" />
    <glyph glyph-name="H" unicode="H" horiz-adv-x="550" 
d="M79 446.5q12 -19.5 12 -31t-5.5 -20.5t-14.5 -9q-17 0 -28 29t-11 61q0 48 35.5 86t90.5 38q37 0 55.5 -35.5t18.5 -80.5t-2.5 -84.5t-4.5 -61t-8 -68t-8 -64.5q80 0 168 81q12 144 33.5 225.5t43.5 114.5t47.5 33t42 -23t16.5 -55q0 -118 -105 -255q-6 -79 -6 -145.5
t19.5 -129t19.5 -70t-11 -12t-24 -4.5q-35 0 -57 18q-11 9 -18 61t-7 97.5t3 98.5q-89 -76 -169 -79q-1 -14 -2 -46.5t-3 -48t-8 -35.5q-10 -37 -48 -37q-23 0 -23 39.5t12 137.5q-45 19 -45 67q0 35 18 59.5t44 24.5q9 92 9 142q0 90 -28 90q-64 0 -64 -65q0 -24 12 -43.5z
M528 565q0 15 -4.5 27.5t-11.5 12.5q-28 0 -51 -217q67 102 67 177zM147 291q-14 -10 -14 -27t8 -28z" />
    <glyph glyph-name="I" unicode="I" horiz-adv-x="429" 
d="M371 502l4 -186q0 -336 -230 -336q-45 0 -81.5 21t-36.5 65q0 27 14 44.5t37.5 17.5t23.5 -11q0 -5 -6 -19.5t-6 -29t17 -31t51 -16.5t59 14t40 41.5t24.5 56.5t13.5 73q6 65 6 147.5t2 136.5q-128 -22 -128 -110q0 -25 -10.5 -39t-26.5 -14q-30 0 -30 34q0 61 53.5 102
t145.5 61q7 41 34 66.5t49 25.5t35.5 -12.5t13.5 -33.5q0 -49 -68 -68zM398 582q-22 0 -26 -45q36 11 36 29q0 16 -10 16z" />
    <glyph glyph-name="J" unicode="J" horiz-adv-x="415" 
d="M78 361q0 61 53 102t144 61q6 42 34 67t50.5 25t36 -12.5t13.5 -33.5q0 -49 -69 -68q-15 -280 -15 -287q30 17 70.5 32.5t57.5 15.5t17 -7q0 -13 -12 -17q-65 -21 -134 -63q-8 -212 -10 -254q-7 -118 -52 -180t-125 -62q-63 0 -100 51.5t-37 113.5q0 88 62 166.5
t189 161.5l21 316q-127 -22 -127 -109q0 -25 -10.5 -39t-26.5 -14q-30 0 -30 34zM151 -284q68 0 80 151q6 76 10.5 151l6.5 107q-41 -29 -66 -49.5t-54 -51.5q-55 -62 -55 -150q0 -85 29 -130q19 -28 49 -28zM368 582q-22 0 -26 -45q36 11 36 29q0 16 -10 16z" />
    <glyph glyph-name="K" unicode="K" horiz-adv-x="653" 
d="M617 -33l40 4q9 0 9 -8q-2 -18 -31.5 -38t-68.5 -20q-42 0 -88 94q-40 79 -81 185q-29 -16 -60 -21q-44 -203 -216 -203q-45 0 -83 21t-38 65q0 27 14 44.5t37.5 17.5t23.5 -11q0 -5 -6 -19.5t-6 -29t17 -31t51 -16.5t59 15.5t40 45.5t24.5 61t13.5 77q7 66 7 152t2 138
q-128 -22 -128 -110q0 -25 -10.5 -39t-26.5 -14q-30 0 -30 34q0 60 54 101.5t144 61.5q7 40 35.5 66t51 26t36 -12.5t13.5 -33.5q0 -49 -68 -68l4 -186q0 -58 -7 -108q51 16 100 91t84 191q27 90 91 90q27 0 27 -33q0 -32 -40 -59q-15 -10 -17 -14q-78 -179 -143 -248
q63 -129 102.5 -194t67.5 -65zM375 582q-21 0 -26 -45q36 11 36 29q0 16 -10 16z" />
    <glyph glyph-name="L" unicode="L" horiz-adv-x="482" 
d="M266.5 521.5q51.5 58.5 135.5 58.5t84 -58q0 -39 -18.5 -71.5t-49.5 -54.5q-61 -41 -143 -59q-20 -172 -59 -246q92 -31 124 -39.5t67.5 -8.5t48.5 29t19 29q12 0 12 -15q0 -47 -35 -80t-76 -33q-42 0 -76 14t-43 18l-36.5 17l-38.5 18q-38 -40 -102 -40q-26 0 -46 19
t-20 45q0 57 65 57q28 0 78 -13q19 60 40 218q-11 -1 -29.5 -1t-18.5 6q0 19 52 24q14 108 65.5 166.5zM383.5 413.5q41.5 33.5 41.5 87.5t-37 54q-81 0 -110 -189q64 14 105.5 47.5zM134 61q-58 25 -71.5 25t-13.5 -14t12.5 -24t32.5 -10t40 23z" />
    <glyph glyph-name="M" unicode="M" horiz-adv-x="651" 
d="M529 46q18 0 48.5 41.5t60 107t36 65.5t6.5 -8q0 -28 -34 -102q-73 -155 -131 -155q-22 0 -40 5.5t-22 10.5q-10 12 -10 88q0 180 12 292q-58 -57 -106 -130q21 -80 21 -138.5t-22.5 -90.5t-56.5 -32q-41 0 -41 79q0 54 43 143q-20 70 -58 137q-16 -91 -49 -186
t-68 -141.5t-83 -46.5q-35 0 -35 27q0 22 15 31t35.5 13.5t26.5 10.5q39 41 73.5 140t50.5 203q-43 56 -43 83.5t14.5 48.5t47.5 21q10 0 17 -25.5t7 -53.5q61 -89 93 -184q56 92 128 170q31 189 72 189q14 0 29.5 -21t15.5 -43q0 -68 -59 -138q-12 -85 -12 -248t18 -163z
M303 179q-24 -53 -24 -94.5t10 -41.5t15 24.5t5 51.5t-6 60z" />
    <glyph glyph-name="N" unicode="N" horiz-adv-x="497" 
d="M179.5 171q-28.5 -96 -62.5 -141t-82 -45q-35 0 -35 27q0 22 15 31t35.5 13.5t26.5 10.5q37 39 68.5 139.5t45.5 204.5q-43 45 -43 73t16 64.5t38 36.5q13 0 23 -32t10 -80q52 -66 81 -114q31 102 85 171.5t124 69.5q25 0 40 -18t15 -40t-8.5 -39.5t-22.5 -17.5t-14 14
t-8.5 21.5t-21.5 7.5q-41 0 -77 -43q-51 -61 -85 -174q66 -142 66 -230q0 -36 -16 -63.5t-47 -27.5q-66 0 -66 112q0 79 12 150q-30 64 -68 117q-16 -102 -44.5 -198zM316 186q-5 -36 -5 -74t5 -59t11 -21q12 0 12 41t-23 113z" />
    <glyph glyph-name="O" unicode="O" horiz-adv-x="586" 
d="M21 223q0 67 25.5 132.5t73.5 108.5q12 65 62.5 105.5t144.5 40.5t150.5 -73.5t56.5 -191.5q0 -77 -23 -146q46 16 83.5 40.5t38.5 24.5q11 0 11 -13q0 -11 -48 -42.5t-99 -44.5q-37 -81 -105 -127.5t-164.5 -46.5t-151.5 64.5t-55 168.5zM443 187q13 45 13 100
q0 118 -44.5 200t-126.5 82q-35 0 -69.5 -19.5t-49.5 -52.5q52 29 105.5 29t53.5 -15q0 -9 -7 -14t-14 -5q-86 0 -146 -58q8 -102 89.5 -174.5t195.5 -72.5zM265 41q120 0 167 113q-120 0 -208.5 63t-104.5 165q-28 -53 -28 -119q0 -91 50.5 -156.5t123.5 -65.5z" />
    <glyph glyph-name="P" unicode="P" horiz-adv-x="553" 
d="M291 579q6 1 32.5 1t64 -9.5t73 -31t57 -63t21.5 -98.5q0 -94 -73 -152t-193 -58q0 -195 -69 -195q-46 0 -46 39q0 12 12 33t17 48t8 87q-41 13 -41 36t21 23q11 0 22 -3q13 267 18 295q-57 -14 -94.5 -46t-37.5 -76q0 -25 -10.5 -39t-26.5 -14q-30 0 -30 34
q0 67 59.5 115.5t148.5 65.5q19 64 53 64q14 0 14 -56zM464 350q0 90 -51.5 137.5t-124.5 50.5q-15 -177 -15 -333q14 -2 22 -2q84 0 126.5 43t42.5 104z" />
    <glyph glyph-name="Q" unicode="Q" horiz-adv-x="599" 
d="M342 592q97 0 153 -63t56 -174t-47.5 -202t-132.5 -134q43 -38 61 -38q53 0 86 49q17 25 27 25t10 -10q0 -24 -17 -50q-50 -78 -139 -78q-39 0 -106 78q-28 -5 -51 -5q-91 0 -148.5 66t-57.5 161q0 146 72 255q35 55 95.5 87.5t138.5 32.5zM315 546q-107 0 -157.5 -79
t-50.5 -209q0 -54 22 -101t57 -78q29 29 60 29t93 -58q65 21 99 86.5t34 166.5t-44 172t-113 71z" />
    <glyph glyph-name="R" unicode="R" horiz-adv-x="584" 
d="M551 -43l33 8q16 0 16 -16q-1 -26 -26.5 -46.5t-57.5 -20.5t-51 31q-27 45 -51 161q-11 56 -26 92q-27 -9 -57 -9t-52.5 12.5t-22.5 30.5q2 46 74 46q35 0 75 -31q62 47 62 131q0 50 -19 88.5t-50 60.5q-61 43 -136 43q-2 -22 -7 -70q-10 -100 -12 -155l-3 -158
q0 -182 -72 -182q-46 0 -46 39q0 10 13.5 34t19.5 55.5t13 185t19 241.5q-53 -15 -86.5 -46t-33.5 -73q0 -24 -11 -38.5t-27 -14.5q-29 0 -29 31q0 70 56.5 115.5t139.5 65.5q20 67 56 67q14 0 14 -32q0 -7 -2 -25q11 2 42 2t70 -9t78.5 -30.5t63.5 -65t24 -101.5t-30 -108
t-78 -80q34 -42 53.5 -103t36.5 -93.5t27 -32.5zM311 198q14 -6 29.5 -6t28.5 5q-20 23 -46 23t-26 -8t14 -14z" />
    <glyph glyph-name="S" unicode="S" horiz-adv-x="479" 
d="M333 459l5 26q-4 54 -73 54q-40 0 -69.5 -28.5t-29.5 -60t26.5 -55t64 -42t75 -40t64 -55.5t26.5 -77q0 -89 -70 -140t-151 -51t-135 29.5t-54 89.5q0 32 22 58t63 26q16 0 29 -9t16 -24q0 -15 -18 -15q-34 0 -34 -29q1 -33 31.5 -60t86 -27t95 38t39.5 92q0 36 -27 65
t-65 49.5l-76.5 41.5t-65.5 51t-27 68q0 67 57.5 107t130.5 40q49 0 89 -20t41 -61q0 -24 -12 -40t-32.5 -16t-21.5 15z" />
    <glyph glyph-name="T" unicode="T" horiz-adv-x="420" 
d="M307 326v170q-19 4 -55 12.5t-55 12.5q-57 12 -90 12q-63 0 -63 -35q0 -39 26.5 -66t47.5 -27t37.5 11t29.5 11q17 0 17 -17.5t-15.5 -28.5t-48.5 -11q-53 0 -90 46t-37 94t22 72t55 24q76 0 226 -48q12 63 45 63q15 0 15 -82q97 -30 167 -30q45 0 79 29q10 8 17.5 8
t7.5 -7q0 -27 -40 -48.5t-96 -21.5t-135 14q2 -138 2 -190t-3.5 -89t-15.5 -77.5t-31.5 -68t-54 -45.5t-80 -18t-82 21t-36.5 65q0 27 14 44.5t37.5 17.5t23.5 -11q0 -5 -6 -19.5t-6 -29t18.5 -31.5t53.5 -17q99 0 99 291z" />
    <glyph glyph-name="U" unicode="U" horiz-adv-x="509" 
d="M415 46q17 0 47 41.5t59.5 107t36 65.5t6.5 -8q0 -28 -29 -89q-79 -168 -132 -168q-46 0 -65 15q-8 8 -8 39t5 96q-38 -65 -80.5 -107.5t-84 -42.5t-67.5 44.5t-26 120t15 189t15 168.5q0 14 -7 14q-16 0 -36.5 -23.5t-27.5 -72.5q-1 -11 -8.5 -19.5t-15.5 -8.5
q-12 0 -12 20t20 56.5t52.5 66.5t63.5 30q36 0 35.5 -57.5t-12.5 -167.5t-12 -165q0 -140 52 -140q30 0 70 48t71 112q20 256 29 317q2 9 31 31t44.5 22t15.5 -58q0 -44 -7 -76t-17.5 -75l-15.5 -64q-10 -134 -10 -234q0 -27 5 -27z" />
    <glyph glyph-name="V" unicode="V" horiz-adv-x="507" 
d="M234 -20q-83 0 -113 72q-21 49 -33 124q-30 -34 -40 -46.5t-18 -12.5q-12 0 -12 10q0 6 6 12q35 35 60 64q-8 57 -8 121.5t12 121.5t40.5 95.5t70.5 38.5q51 0 51 -87q0 -112 -90 -231q7 -90 35 -169q11 -32 24.5 -47.5t38 -15.5t55 33.5t56.5 87t44 129t18 157.5
t-12 115.5t-41 60.5q-38 32 -38 63q0 15 12.5 26.5t25.5 11.5q33 0 55.5 -21t32.5 -57q18 -63 18 -138q0 -141 -38.5 -263t-96 -188.5t-115.5 -66.5zM212 480q0 53 -12 53q-8 0 -18 -24t-18 -67t-8 -84t1 -58q55 92 55 180z" />
    <glyph glyph-name="W" unicode="W" horiz-adv-x="689" 
d="M452 480l-6 -74q0 -140 18 -246.5t43 -106.5q34 0 75 95t41 190q0 109 -23 148q-9 14 -28 33q-35 35 -35 67q0 15 8.5 24.5t20.5 9.5q31 0 52 -24.5t30 -63.5q17 -69 17 -146q0 -179 -66.5 -290t-130.5 -111q-46 0 -68.5 98t-22.5 249q-60 -250 -127 -316
q-33 -31 -71 -31q-20 0 -39.5 17.5t-28.5 46.5q-20 59 -20 225q-42 6 -75 22q-16 8 -16 18t20 10l72 -15q9 173 65 267q30 51 67 51q67 0 67 -100q0 -81 -31 -155t-93 -94q0 -67 8 -120q16 -105 39 -105q19 0 50 57.5t60.5 155.5t38.5 193q1 14 27 32t36 18q26 0 26 -29z
M233.5 390.5q23.5 64.5 23.5 102t-3 55.5q-7 31 -19 31q-22 0 -43.5 -91.5t-24.5 -178.5q43 17 66.5 81.5z" />
    <glyph glyph-name="X" unicode="X" horiz-adv-x="524" 
d="M405 -20q-38 0 -67 39.5t-89 169.5q-129 -209 -173 -209q-50 0 -50 29q0 16 24 39.5l77 75.5t100 114q-43 86 -79 140q-1 -2 -52 -118q-10 -26 -26 -26q-11 0 -11 14t11 36q32 57 57 126q-31 50 -31 63q0 44 11 85.5t32 41.5q48 0 48 -83l95 -200q22 27 59 101.5t69 128
t57 53.5t25 -21q0 -26 -8.5 -41t-27.5 -32t-30 -32q-56 -81 -124 -199q101 -214 123 -214q34 0 112 173q12 27 21 27q3 0 6.5 -5.5t3.5 -13.5q-2 -42 -62 -152t-101 -110z" />
    <glyph glyph-name="Y" unicode="Y" horiz-adv-x="519" 
d="M113 517q0 14 -7 14q-16 0 -36.5 -23.5t-27.5 -72.5q-1 -11 -8.5 -19.5t-15.5 -8.5q-12 0 -12 20t20 56.5t52.5 66.5t63.5 30q36 0 35.5 -57.5t-12.5 -167.5t-12 -165q0 -140 52 -140q38 0 88.5 71t76.5 145q20 218 31 281q2 9 31 31t44.5 22t15.5 -47q0 -55 -10 -95
l-34 -131q-12 -80 -17 -227q44 23 76 23q12 0 12 -8.5t-12 -13.5q-41 -13 -78 -37q0 -223 -30.5 -303.5t-130.5 -80.5q-110 0 -110 93q0 69 53.5 141.5t143.5 136.5q3 63 8 135q-40 -79 -89.5 -135t-94 -56t-70.5 44.5t-26 120t15 189t15 168.5zM260.5 -91.5
q-34.5 -58.5 -34.5 -103t17 -67t39 -22.5q31 0 47.5 66.5t22.5 226.5q-57 -42 -91.5 -100.5z" />
    <glyph glyph-name="Z" unicode="Z" 
d="M490 456q-23 -21 -54.5 -21t-72.5 19q-108 -130 -208 -329q48 -7 138.5 -36t101.5 -29q57 0 123 143q26 57 38 57q6 0 6 -12.5t-34 -89t-56.5 -113.5t-47.5 -53.5t-74 -16.5q-24 0 -102 43t-118 43q-31 -61 -58 -61q-43 0 -43 38q0 17 20.5 44.5t47.5 39.5
q124 212 241 345q-128 73 -195 73q-25 0 -25 -43q0 -12 6 -34.5t6 -26.5q0 -12 -11.5 -12t-24 34.5t-12.5 71.5t15 63.5t39.5 26.5t50.5 -6t45 -13t44.5 -21.5l37.5 -21.5l66 -46q52 50 82 50q20 0 35.5 -13t15.5 -42.5t-23 -50.5zM460 507q0 14 -16 14t-41 -23q17 -9 27 -9
q30 0 30 18z" />
    <glyph glyph-name="bracketleft" unicode="[" horiz-adv-x="372" 
d="M323 551l-71 4q-63 0 -69 -6q-15 -15 -15 -55q0 -95 -12 -294.5t-12 -239t5 -46.5t53 -7t78.5 8t44.5 8t19 -5t5 -10q0 -16 -23 -24q-40 -14 -127 -14t-112 11q-12 5 -12 35q0 104 14.5 292t14.5 253q0 134 41 134l82 -5l103 5q9 0 16.5 -8t7.5 -19q0 -17 -31 -17z" />
    <glyph glyph-name="backslash" unicode="\" horiz-adv-x="274" 
d="M283 -108.5q0 -15.5 -9 -29t-23.5 -13.5t-38.5 29.5t-40 69.5q-75 190 -166 581q-6 24 -6 36t7 12q20 0 35 -32.5t57 -191.5t83 -240q70 -126 85.5 -166t15.5 -55.5z" />
    <glyph glyph-name="bracketright" unicode="]" horiz-adv-x="336" 
d="M29 -86l79 -10q49 0 62.5 13.5t13.5 53.5q0 95 13 294.5t13 241t-6 50t-44 8.5t-61 -10t-36 -10q-26 0 -26 18q0 14 25.5 23t98 9t97.5 -11q12 -5 12 -35q0 -103 -6.5 -291t-6.5 -276t-33 -99q-9 -3 -42 -7.5t-71.5 -4.5t-88.5 6q-17 2 -17 22q0 15 24 15z" />
    <glyph glyph-name="asciicircum" unicode="^" horiz-adv-x="536" 
d="M424 441q9 -5 9 -11t-15 -16.5t-27 -10.5q-33 0 -79.5 36.5t-74.5 114.5q-26 -67 -72.5 -113t-68.5 -46q-33 0 -36 17q0 7 15.5 15.5t33.5 23.5t39 37.5t28 34.5t19.5 37t21 39.5t23 25.5t25.5 11q16 0 24.5 -31t14.5 -46q14 -39 69 -87q12 -11 51 -31z" />
    <glyph glyph-name="underscore" unicode="_" horiz-adv-x="460" 
d="M140 -96l-120 -5q-21 0 -21 20q0 13 10 27.5t20 14.5q1 0 29 -3q82 -9 198 -9t142 11t35 11t9 -14.5t-14 -37.5t-28 -23q-60 0 -140 4t-120 4z" />
    <glyph glyph-name="grave" unicode="`" horiz-adv-x="344" 
d="M159.5 522q7.5 -18 11.5 -24t7.5 -10.5t6.5 -7.5t8 -6.5l8 -5.5t9.5 -5.5t9 -4.5t10.5 -5l10 -5q13 -6 13 -17q0 -15 -17.5 -15t-45.5 9.5t-49 23.5q-50 34 -50 72q0 11 16 26.5t23.5 15.5t14.5 -11.5t14.5 -29.5z" />
    <glyph glyph-name="a" unicode="a" horiz-adv-x="383" 
d="M281 -5q-39 0 -59 16q-7 7 -7 35.5t2 76.5q-26 -65 -51.5 -96.5t-65.5 -31.5t-70 37.5t-30 118t45.5 142.5t119.5 62q32 0 72 -42q8 11 28.5 26.5t35 15.5t14.5 -38q0 -10 -5.5 -39t-12.5 -42q-9 -23 -9 -163q0 -27 6 -27q17 1 47 42.5t59.5 106.5t36 65t6.5 -8
q0 -28 -29 -89q-79 -168 -133 -168zM159 315q-28 0 -59.5 -41.5t-31.5 -97.5t16.5 -92t43.5 -36q33 0 97 165q1 8 2.5 27.5t2.5 29.5q-9 16 -31.5 30.5t-39.5 14.5z" />
    <glyph glyph-name="b" unicode="b" horiz-adv-x="358" 
d="M187 345q46 0 76 -33.5t31 -93.5q41 12 72.5 29t33.5 17q6 0 6 -10t-28.5 -31t-85.5 -42q-12 -89 -72 -137.5t-120 -48.5t-80 44.5t-20 140.5t14 182t36 135.5t45.5 76t44.5 26.5q10 0 18.5 -24t8.5 -59q0 -77 -28 -180q19 8 48 8zM232 165q-8 -1 -33.5 -1t-56 17.5
t-41.5 48.5q-10 -25 -23 -48q2 -76 12 -109t32 -33q35 0 68.5 29.5t41.5 95.5zM143 499q0 42 -11 42q-9 0 -21.5 -43.5t-23 -118t-10.5 -147.5q66 187 66 267zM171 309q-14 0 -22.5 -8.5t-8.5 -22.5q0 -31 27.5 -51.5t66.5 -20.5q-1 41 -16 72t-47 31z" />
    <glyph glyph-name="c" unicode="c" horiz-adv-x="286" 
d="M179 243l8 51q0 11 -7 20t-18 9q-37 0 -64 -55.5t-27 -106.5t21 -82.5t51.5 -31.5t54.5 14t44 40q42 55 72 125q8 18 12.5 26t10 8t5.5 -8q0 -33 -23 -79t-38.5 -70.5t-39.5 -51.5q-50 -56 -125 -56q-57 0 -86.5 40.5t-29.5 86.5q0 114 49.5 173.5t125.5 59.5
q32 0 50.5 -16.5t18.5 -37.5q0 -39 -14 -58t-34 -19q-17 0 -17 19z" />
    <glyph glyph-name="d" unicode="d" horiz-adv-x="394" 
d="M285 -5q-34 0 -53 15q-8 8 -8 42t3 89q-27 -72 -55 -109t-70.5 -37t-72 37t-29.5 118t45.5 143t119.5 62q36 0 75 -28q16 195 29 220q6 11 28.5 32t37.5 21t15 -47q0 -55 -10 -95l-34 -131q-14 -108 -14 -254q0 -27 6 -27q18 1 48 42t59.5 106.5t36 65.5t6.5 -8
q0 -28 -29 -89q-79 -168 -134 -168zM159 319q-27 0 -54 -43t-27 -99.5t14.5 -92.5t36.5 -36q45 0 103 180q5 55 5 65q-29 26 -78 26z" />
    <glyph glyph-name="e" unicode="e" horiz-adv-x="293" 
d="M122 -5q-56 0 -89 42.5t-33 96.5q0 109 46 165t119 56q34 0 56 -18.5t22 -50.5q0 -60 -50.5 -100.5t-123.5 -42.5q4 -39 26.5 -67.5t52.5 -28.5t54 14t44 40q42 55 72 125q8 18 12.5 26t10 8t5.5 -8q0 -50 -61 -150q-66 -107 -163 -107zM69 167q59 10 86.5 38t27.5 73
t-29 45q-35 0 -59 -48.5t-26 -107.5z" />
    <glyph glyph-name="f" unicode="f" horiz-adv-x="227" 
d="M149 211q54 13 90.5 33t38.5 20q6 0 6 -10t-20 -25q-42 -31 -105 -53q26 -99 26 -210q0 -93 -21 -178q-12 -48 -37.5 -78t-62.5 -30q-32 0 -44 28q-15 33 -17 63q-3 47 -3 153t16 256q-36 26 -36 63.5t16 58t40 26.5q14 87 27.5 150t41.5 102.5t56 39.5q32 0 32 -71
q0 -112 -83 -252q21 -30 39 -86zM79 161q-9 -123 -9 -282.5t17 -159.5q30 0 50 78.5t20 176t-22 195.5q-30 -8 -56 -8zM94 311q29 48 53 113.5t24 109.5t-9 44q-16 0 -34.5 -73t-33.5 -194zM94 271l-6 -10l-5 -51q13 -4 23.5 -4t17.5 1q-13 39 -30 64zM32 303
q-15 -5 -15 -23t8 -31q4 36 7 54z" />
    <glyph glyph-name="g" unicode="g" horiz-adv-x="372" 
d="M171.5 33q-26.5 -38 -69.5 -38t-72.5 37t-29.5 118t45.5 143t119.5 62q15 0 36 -12.5t37 -30.5q3 10 29 31.5t40.5 21.5t14.5 -43t-18 -76q-10 -67 -11 -124q98 124 104.5 131t11.5 7q10 0 10 -10q0 -6 -4 -13q-32 -47 -126 -165q-6 -119 -8 -162q-5 -127 -35.5 -178.5
t-108.5 -51.5q-34 0 -63.5 20.5t-29.5 71t38.5 103.5t140.5 163l6 115q-31 -82 -57.5 -120zM159 319q-28 0 -59.5 -43.5t-31.5 -100t16.5 -92t41.5 -35.5t48 41t59 141q2 34 2 43q-8 15 -33 30.5t-43 15.5zM220 -9q-114 -123 -114 -197q0 -34 12 -56t33 -22q32 0 45 35
t19 142z" />
    <glyph glyph-name="h" unicode="h" horiz-adv-x="371" 
d="M83 54l1 -31q0 -28 -16 -28q-24 0 -46 6.5t-22 18t5.5 79t5.5 101.5v58q0 256 91 326q21 16 43 16q10 0 20 -22t10 -57q0 -86 -29 -161t-59 -115q-1 -25 -1 -78q4 6 42 68t64.5 91t47.5 29t37.5 -14t16.5 -35q0 -44 -9.5 -129.5t-9.5 -108t6 -22.5q17 1 47 42.5
t59.5 106.5t36 65t6.5 -8q0 -28 -29 -89q-79 -168 -133 -168q-39 0 -59 16q-7 7 -7 36.5t5.5 96t5.5 99.5t-11.5 33t-60.5 -68.5t-52 -87.5q-6 -35 -6 -66zM148 499q0 42 -11 42q-18 0 -35 -111q-9 -59 -13 -137q59 123 59 206z" />
    <glyph glyph-name="i" unicode="i" horiz-adv-x="175" 
d="M37 489q0 18 19 31t34 13q27 0 27 -31t-16 -53.5t-45 -22.5q-19 0 -19 63zM66 -5q-39 0 -59 16q-7 7 -7 50t6.5 143.5t11.5 108.5t31 30t40.5 22t14.5 -38q0 -10 -5.5 -39t-12.5 -42q-13 -33 -13 -173q0 -27 6 -27q17 1 47 42.5t59.5 106.5t36 65t6.5 -8q0 -28 -29 -89
q-79 -168 -133 -168z" />
    <glyph glyph-name="j" unicode="j" horiz-adv-x="168" 
d="M16 38q13 262 14.5 272t28.5 32.5t41.5 22.5t14.5 -43t-18 -76q-9 -76 -11 -124q98 124 104.5 131t11.5 7q10 0 10 -10q0 -6 -4 -13q-32 -47 -126 -165q-6 -119 -8 -162q-5 -127 -35.5 -178.5t-108.5 -51.5q-34 0 -63.5 20.5t-29.5 64t20.5 83.5t43 66t62 67t53.5 57z
M13 -9q-114 -123 -114 -197q0 -34 12 -56t33 -22q32 0 45 35t19 142zM47 489q0 18 19 31t34 13q27 0 27 -31t-16 -53.5t-45 -22.5q-19 0 -19 63z" />
    <glyph glyph-name="k" unicode="k" horiz-adv-x="343" 
d="M322 -35l27 3q8 0 8 -8q0 -14 -19 -21t-43 -7q-45 0 -75.5 36t-84.5 133q-13 21 -13 32q0 15 42 35q68 35 68 88q0 15 -10.5 25.5t-27.5 10.5q-24 0 -57 -56.5t-44.5 -106t-11.5 -106.5q0 -28 -16 -28q-23 0 -44 6.5t-21 17t8 95t9 121.5q4 204 24 312q3 9 27.5 31
t39.5 22t14.5 -37.5t-16.5 -160.5t-20 -225q18 64 57.5 121t79.5 57q68 0 68 -66q0 -44 -26 -79.5t-70 -57.5q-9 -4 -9 -9t3 -10q63 -111 107 -156q12 -12 26 -12z" />
    <glyph glyph-name="l" unicode="l" horiz-adv-x="175" 
d="M73 -5q-22 0 -40.5 5.5t-22.5 10.5q-10 12 -10 124.5t25 305.5q21 159 98 159q18 0 26 -19.5t8 -37.5q0 -130 -79 -291q-3 -83 -3 -144.5t11 -61.5q17 1 47 42.5t59.5 106.5t36 65t6.5 -8q0 -28 -29 -89q-79 -168 -133 -168zM132 534q0 32 -8 32q-30 0 -44 -249
q52 137 52 217z" />
    <glyph glyph-name="m" unicode="m" horiz-adv-x="542" 
d="M83 54l1 -31q0 -28 -16 -28q-24 0 -46 6.5t-22 18t5.5 79t5.5 101.5v59q0 48 10 58t35.5 29t37 19t14.5 -4t3 -15q0 -53 -20 -100q-5 -57 -5 -79q53 99 74 130q37 58 67 58q19 0 35.5 -15t16.5 -37t-0.5 -41.5t-1.5 -30.5t-1 -14q4 8 34 45t40.5 48t22.5 22
q23 23 41.5 23t35 -14t16.5 -35q0 -44 -9.5 -129.5t-9.5 -108t6 -22.5q17 1 47 42.5t59.5 106.5t36 65t6.5 -8q0 -28 -29 -89q-79 -168 -133 -168q-34 0 -54 16q-7 7 -7 36.5t5.5 96t5.5 99.5t-11 33q-13 0 -56.5 -44t-46.5 -62q-6 -34 -6 -147q0 -28 -15 -28
q-23 0 -43.5 6.5t-20.5 18t6 98.5t6 122.5t-11.5 35.5t-55.5 -68.5t-48.5 -95.5t-4.5 -58z" />
    <glyph glyph-name="n" unicode="n" horiz-adv-x="371" 
d="M78 54l1 -31q0 -28 -16 -28q-24 0 -46 6.5t-22 18t5.5 79t5.5 101.5v59q0 48 10 58t35.5 29t37 19t14.5 -4t3 -15q0 -53 -20 -100q-5 -57 -5 -79q4 6 42 68t64.5 91t47.5 29t37.5 -14t16.5 -35q0 -44 -9.5 -129.5t-9.5 -108t6 -22.5q17 1 47 42.5t59.5 106.5t36 65
t6.5 -8q0 -28 -29 -89q-79 -168 -133 -168q-39 0 -59 16q-7 7 -7 36.5t5.5 96t5.5 99.5t-11.5 33t-60.5 -68.5t-52 -87.5q-6 -35 -6 -66z" />
    <glyph glyph-name="o" unicode="o" horiz-adv-x="364" 
d="M313 217q40 13 55.5 22.5l23.5 14.5l12 7q5 3 8 3q8 0 8 -9t-31 -31.5t-77 -40.5q-7 -84 -53 -136t-131 -52q-62 0 -95 49.5t-33 116t39.5 125.5t101.5 59q28 20 66.5 20t71.5 -41t34 -107zM248 166l-36 -2q-46 0 -78 27.5t-32 60.5t11 57q-43 -34 -43 -134
q0 -48 20 -91.5t63 -43.5t67 36.5t28 89.5zM186 332q-16 0 -25 -14.5t-9 -31.5q0 -37 25.5 -60t59.5 -23h12q-2 49 -16.5 89t-46.5 40z" />
    <glyph glyph-name="p" unicode="p" horiz-adv-x="360" 
d="M31 311q11 13 35 33.5t38 20.5t14 -39.5t-21 -77.5q-4 -18 -6 -52q29 79 58 119t70.5 40t72.5 -37.5t31 -118t-45.5 -142.5t-119.5 -62q-38 0 -77 28q0 -191 -22 -291q-2 -9 -26.5 -30.5t-36 -21.5t-16.5 16t-5 30q0 103 42 265q7 94 9.5 206t4.5 114zM164 31
q29 0 60 40.5t31 100t-16.5 95t-44.5 35.5q-48 0 -109 -199q-2 -28 -2 -44q28 -28 81 -28z" />
    <glyph glyph-name="q" unicode="q" horiz-adv-x="378" 
d="M169 -261q0 73 33 163l12 212q-25 -60 -49.5 -89.5t-65 -29.5t-70 37t-29.5 118t45.5 143t119.5 62q32 0 71 -41q47 51 69 51q15 0 15 -38q0 -9 -7 -37.5t-14 -41.5q-6 -20 -10 -102.5t-5 -97.5q13 21 56 100q64 116 78 116q8 0 8 -11t-11 -24q-54 -65 -134 -247
q0 -168 -27 -249q-5 -14 -27.5 -33.5t-37.5 -19.5q-10 0 -15 18.5t-5 40.5zM159 319q-28 0 -59.5 -43.5t-31.5 -100t16.5 -92t40.5 -35.5t45 34t51 114l8 86q-12 14 -33.5 25.5t-36.5 11.5z" />
    <glyph glyph-name="r" unicode="r" horiz-adv-x="255" 
d="M87 261l55 6q8 0 14 -9t6 -19t-6.5 -68t-6.5 -91.5t6 -33.5q17 1 47 42.5t59.5 106.5t36 65t6.5 -8q0 -28 -29 -89q-79 -168 -133 -168q-39 0 -59 16q-7 7 -7 87t17 137q-58 0 -81 37q-12 19 -12 43t10 42t28.5 18t34 -19.5t15.5 -43.5t-14 -48q4 -3 13 -3z" />
    <glyph glyph-name="s" unicode="s" horiz-adv-x="208" 
d="M148 306l2 15q0 18 -20.5 18t-39.5 -26.5t-19 -43.5t2 -27t4.5 -16.5t8.5 -15.5t9 -13l11 -14q7 -10 10 -13q52 43 124 96q4 3 9 3q10 0 10 -11t-9 -17q-64 -41 -121 -89q22 -32 22 -70t-29 -65t-74 -27t-45 43q0 31 66 95q-5 6 -18 19.5t-19.5 21.5t-15.5 21
q-16 25 -16 54q0 59 38 95.5t81 36.5q27 0 42 -14.5t15 -29.5q0 -34 -16 -34q-12 0 -12 8zM84 109q-40 -40 -40 -64.5t25 -24.5q15 0 25 12q22 30 -10 77z" />
    <glyph glyph-name="t" unicode="t" horiz-adv-x="201" 
d="M224 163q-79 -168 -133.5 -168t-64 13t-9.5 86t14 211q-50 10 -53 41q0 16 21 16t37 -8q9 72 21 146q3 19 19 36t31 17q13 0 13 -41q0 -19 -14 -175q27 5 59.5 20t38.5 15q18 0 18 -11q1 -10 -37 -27.5t-82 -26.5q-12 -146 -12 -221q0 -40 12 -40q18 1 48 42t59.5 106.5
t36 65.5t6.5 -8q0 -28 -29 -89z" />
    <glyph glyph-name="u" unicode="u" horiz-adv-x="365" 
d="M0 87l6 112q0 107 10 117t35.5 29.5t37 19.5t14.5 -4t3 -16q0 -43 -19 -87q-15 -92 -15 -151t19 -59q23 0 54 40t62 119q9 100 14.5 108t27.5 29t36.5 21t14.5 -38q0 -10 -5.5 -39t-12.5 -42q-11 -28 -11 -173q0 -27 6 -27q17 1 47 42.5t59.5 106.5t36 65t6.5 -8
q0 -28 -29 -89q-79 -168 -133 -168q-39 0 -59 16q-7 7 -7 43t3 80q-32 -68 -64 -103.5t-71.5 -35.5t-52.5 21t-13 71z" />
    <glyph glyph-name="v" unicode="v" horiz-adv-x="350" 
d="M125 44q36 0 63 37.5t40 91.5q-36 11 -55 38.5t-19 63.5t18.5 63t53.5 27q21 0 32 -26.5t11 -59.5t-5 -66q15 -6 32 -6q39 0 75 36q18 18 24.5 18t6.5 -10t-13 -24q-53 -59 -134 -59q-19 -73 -59 -123t-98 -50q-34 0 -56 29q-37 47 -37 138q0 31 5 80t11.5 60t32 27
t35.5 16q15 0 15 -18q0 -51 -26 -111q0 -71 11.5 -121.5t35.5 -50.5zM216 327q-8 0 -8 -33t30 -63q2 12 2 24q0 72 -24 72z" />
    <glyph glyph-name="w" unicode="w" horiz-adv-x="465" 
d="M416 207q42 0 78 36q18 18 24.5 18t6.5 -10t-13 -24q-53 -59 -133 -59q-16 -74 -50 -123.5t-86 -49.5t-75 61q-41 -61 -85 -61q-83 0 -83 160q0 111 22 151q4 7 30 23t36 16q15 0 15 -18q-2 -47 -28 -111q-6 -12 -6 -57.5t10.5 -80t30.5 -34.5t49 48q-5 25 -5 53.5t6 61
t24 65.5t43 33q8 0 11.5 -5t3.5 -24q0 -51 -27 -127q4 -44 20.5 -74.5t36.5 -30.5q29 0 49 37.5t31 91.5q-37 10 -57 38t-20 64.5t17.5 63t51.5 26.5q46 0 46 -99q0 -26 -3 -54q15 -5 29 -5zM337 327q-9 0 -9 -34t31 -63q1 5 1 15q0 82 -23 82z" />
    <glyph glyph-name="x" unicode="x" horiz-adv-x="316" 
d="M240 51q30 0 96 146q8 17 13 29.5t9 19.5q6 14 11.5 14t5.5 -8q0 -29 -30 -92q-77 -165 -125 -165q-36 0 -47 17.5t-45 91.5q-30 -53 -51.5 -81t-39.5 -28t-28 4t-12.5 8.5t-2.5 11.5t13 19q56 51 100 110q-14 27 -37 59.5l-37.5 53.5t-14.5 38.5t13.5 44t32 26.5t27 -18
t8.5 -37q9 -15 52 -104q15 24 37 65.5t34 60t20 18.5q18 0 23.5 -6t5.5 -18t-9.5 -23t-21.5 -20.5t-23.5 -25.5t-48.5 -85q61 -126 72 -126z" />
    <glyph glyph-name="y" unicode="y" horiz-adv-x="350" 
d="M0 87l6 112q0 107 10 117t35.5 29.5t37 19.5t14.5 -4t3 -16q0 -43 -19 -87q-15 -92 -15 -151t14 -59q24 0 55.5 42.5t64.5 125.5q1 22 2 46.5t2 36t1.5 16.5t27.5 27.5t41.5 22.5t14.5 -38q0 -10 -5.5 -39t-12.5 -42q-8 -71 -11 -124q98 124 104.5 131t11.5 7
q10 0 10 -10q0 -6 -4 -13q-32 -47 -126 -165q-6 -119 -8 -162q-5 -127 -35.5 -178.5t-108.5 -51.5q-34 0 -63.5 20.5t-29.5 71t38.5 103.5t140.5 163l6 109q-34 -75 -67 -113.5t-73 -38.5t-51 20t-11 72zM193 -9q-114 -123 -114 -197q0 -34 12 -56t33 -22q32 0 45 35t19 142
z" />
    <glyph glyph-name="z" unicode="z" horiz-adv-x="340" 
d="M169 224q-121 0 -153 38q-16 19 -16 43t14.5 36.5t31 12.5t27.5 -13.5t11 -25.5q0 -18 40 -25.5t78 -7.5q39 55 55 62q6 2 13 2q16 0 16 -32t-14 -49t-49 -32q-59 -54 -116 -125q26 -6 79 -23.5t61 -17.5q41 0 101 133q27 60 33.5 60t6.5 -15t-29 -82q-77 -173 -146 -173
q-7 0 -64 25t-86 25q-25 -37 -48 -37q-15 0 -15 27.5t22.5 55t48.5 27.5z" />
    <glyph glyph-name="braceleft" unicode="{" horiz-adv-x="295" 
d="M179 473l6 -110q0 -60 -53 -95q21 -12 32 -40t11 -54t-10.5 -73.5t-10.5 -73.5q0 -68 37 -98l11 -6q18 -10 18 -17.5t-28 -7.5q-43 0 -75.5 42.5t-32.5 111.5q0 20 11 60t11 59t-6 43t-12 31q-17 -3 -31 -3q-17 0 -17 18q0 9 7 19t15 10l16 -2q15 0 21 9q20 27 20 63
l-11 96q0 63 33 113t86 50q28 0 28 -10q0 -6 -14 -12.5t-17 -8.5q-45 -30 -45 -114z" />
    <glyph glyph-name="bar" unicode="|" horiz-adv-x="191" 
d="M74 -167q-21 0 -21 91q0 28 5 102q22 319 34 532q2 43 23 43q17 0 17 -31q0 -138 -26 -615q-6 -122 -32 -122z" />
    <glyph glyph-name="braceright" unicode="}" horiz-adv-x="274" 
d="M86 43l-6 110q0 73 53 108q-43 25 -43 84q0 23 10.5 70.5t10.5 73.5q0 68 -37 98l-11 6q-18 10 -18 17.5t28 7.5q43 0 75.5 -42.5t32.5 -111.5q0 -20 -11 -60t-11 -70t18 -50q17 3 31 3q17 0 17 -18q0 -9 -7 -19t-15 -10l-16 2q-15 0 -21 -9q-20 -27 -20 -76l11 -96
q0 -63 -33 -113t-86 -50q-28 0 -28 10q0 6 14 12.5t17 8.5q45 30 45 114z" />
    <glyph glyph-name="asciitilde" unicode="~" horiz-adv-x="455" 
d="M86.5 261q39.5 35 72.5 35t84.5 -27t72.5 -27t37.5 12t26 23.5t17.5 11.5t8 -7q0 -43 -34 -78t-73 -35t-85 36t-67 36t-49 -30.5t-40 -30.5q-10 0 -10 12q0 34 39.5 69z" />
    <glyph glyph-name="exclamdown" unicode="&#xa1;" horiz-adv-x="223" 
d="M163 355.5q14 -9.5 14 -31.5t-20 -34.5t-37 -12.5t-28.5 9.5t-11.5 23.5q0 55 54 55q15 0 29 -9.5zM47 -225q-11 8 -11 24t7.5 46.5t13 60t21 137t22.5 146.5q2 9 9.5 17t15.5 8q22 0 22 -39q0 -63 -3 -106.5t-4 -80.5q-1 -84 -10.5 -124.5t-27 -68.5t-31 -28t-24.5 8z
" />
    <glyph glyph-name="cent" unicode="&#xa2;" horiz-adv-x="368" 
d="M188 323l-20 -281q79 0 147 136q9 16 16 16t7 -14.5t-19.5 -54t-62 -81.5t-91.5 -47q-7 -64 -25 -64q-15 0 -15 40q0 16 1 23q-49 7 -78 46.5t-29 79.5q0 94 38.5 151.5t98.5 74.5q2 52 22 52q14 0 14 -27q0 -3 -0.5 -10t-0.5 -9q5 1 17 1q32 0 50.5 -16.5t18.5 -37.5
q0 -38 -13 -57.5t-29 -19.5t-16 19l8 51q0 29 -39 29zM105 243.5q-20 -47.5 -20 -85.5q0 -72 49 -105l22 258q-31 -20 -51 -67.5z" />
    <glyph glyph-name="sterling" unicode="&#xa3;" horiz-adv-x="480" 
d="M328 316l25 6q10 0 10 -11.5t-9 -27t-22 -15.5q-48 0 -120 5l-7 -75q22 -2 46 -2t43 2t29.5 5.5t14.5 3.5q8 0 8 -8q0 -47 -35 -47q-21 0 -111 10q-10 -55 -18 -73l59 -9q99 -15 145 -15q20 0 20 -31q0 -12 -12.5 -25.5t-27.5 -13.5q-74 0 -210 50q-35 -42 -85 -42
q-20 0 -37.5 13t-17.5 36.5t17 36t42 12.5t49 -4q5 19 10 67l-39 -4q-39 0 -39 22.5t67 22.5h15l6 70l-58 -6q-20 0 -20 16q0 11 8 22t14 11t10 -2q11 -3 49 -5q14 153 87 192q31 17 78.5 17t76.5 -26.5t29 -71.5q0 -17 -9.5 -28t-23.5 -11t-20.5 7t-6.5 16l5 28
q0 27 -16.5 43.5t-38.5 16.5t-35.5 -6.5t-22.5 -20.5t-15 -27.5t-9.5 -35l-5.5 -34t-3.5 -34.5t-2.5 -27h17q75 0 97 7zM107 60q-25 7 -40.5 7t-15.5 -12q0 -7 7 -13t20.5 -6t28.5 24z" />
    <glyph glyph-name="currency" unicode="&#xa4;" horiz-adv-x="417" 
d="M130 388q44 28 95 28t82 -14q33 41 59 32q8 -3 1 -22l-24 -35q32 -34 32 -89q0 -86 -46 -147q31 -31 38.5 -54t-17.5 -28q-28 -4 -64 40q-45 -31 -98.5 -31t-88.5 20q-35 -42 -62 -38q-25 5 -16 32q6 18 35 49q-19 32 -19 81q0 86 58 148q-5 8 -12 18q-16 23 -17 26
q-7 19 1 22q28 10 63 -38zM129 147q21 -39 69 -39t78.5 49.5t30.5 98.5t-24.5 88t-68 39t-75 -51t-31.5 -98.5t21 -86.5z" />
    <glyph glyph-name="yen" unicode="&#xa5;" horiz-adv-x="482" 
d="M333 269l25 6q10 0 10 -11.5t-9 -27t-22 -15.5l-84 2l-4 -74q57 0 73.5 5.5t20.5 5.5q8 0 8 -8q0 -47 -35 -47q-37 0 -69 5q-1 -20 -1 -45t-1.5 -35t-6.5 -20q-9 -20 -49 -20q-22 0 -22 36.5t7 90.5l-71 -4q-26 0 -32.5 5.5t-6.5 16.5q0 23 64 23q16 0 51 -4q6 48 7 74
q-43 0 -68 -3t-27 -3q-20 0 -20 16q0 11 8 22t14 11t13 -2q16 -5 80 -7q-7 47 -52 116q-7 10 -26.5 30.5t-33.5 38.5t-14 30t14 27.5t22 15.5t18 -10q23 -21 60 -78.5t56 -113.5q14 40 56 102.5t65 83.5t38 21t15 -20q0 -35 -24 -44q-22 -7 -73 -83.5t-52 -115.5q56 0 78 7z
" />
    <glyph glyph-name="brokenbar" unicode="&#xa6;" horiz-adv-x="191" 
d="M105 269q-24 0 -24 41t8 130.5t10 117.5q2 43 27 43q20 0 20 -31q0 -205 -8 -268q-2 -14 -12 -23.5t-21 -9.5zM73 201q3 35 34 35q25 0 25 -29q0 -48 -8 -139t-9.5 -116t-3 -41.5t-5.5 -36.5q-8 -41 -28 -41q-25 0 -25 78.5t20 289.5z" />
    <glyph glyph-name="section" unicode="&#xa7;" horiz-adv-x="414" 
d="M138 -103.5q23 -17.5 53 -17.5t54.5 19t24.5 39.5t-36 54.5t-79 64.5t-79 66.5t-36 62q1 46 33 87t94 51q-83 66 -83 103q0 45 37 84t100 39t96 -29t33 -71q0 -18 -12 -31t-34 -13t-22 20q0 4 6.5 14t6.5 16q0 27 -23 44.5t-53 17.5t-54.5 -19t-24.5 -39.5t36 -54.5
t79 -64.5t79 -66.5t36 -62q-1 -47 -33 -87.5t-95 -50.5q84 -67 84 -103q0 -44 -37 -83.5t-99.5 -39.5t-96 31t-33.5 69q0 18 12 31t34 13t22 -20q0 -4 -6.5 -14t-6.5 -16q0 -27 23 -44.5zM305 185q0 20 -24 44.5t-71 60.5q-45 0 -75 -23t-30 -56q0 -15 15.5 -34.5t31 -32.5
t48.5 -38q45 0 75 23t30 56z" />
    <glyph glyph-name="dieresis" unicode="&#xa8;" horiz-adv-x="367" 
d="M76.5 457q-13.5 9 -13.5 29t18.5 32t34.5 12t27 -9t11 -22q0 -51 -51 -51q-13 0 -26.5 9zM220.5 457q-13.5 9 -13.5 29t19 32t35 12t26.5 -9t10.5 -22q0 -51 -50 -51q-14 0 -27.5 9z" />
    <glyph glyph-name="copyright" unicode="&#xa9;" horiz-adv-x="448" 
d="M234 469l5 28q0 13 -18 13t-31 -29t-13 -57q0 -63 39 -63q23 0 49 33q6 9 12.5 9t6.5 -7t-10 -21q-27 -35 -73 -35q-30 0 -47 20.5t-17 45.5q0 59 28.5 91t66.5 32q17 0 25.5 -9.5t8.5 -24.5t-7.5 -25.5t-16 -10.5t-8.5 10zM303 539.5q-28 36.5 -81 36.5t-91.5 -47
t-38.5 -106.5t34 -92.5t83.5 -33t85.5 41t36 103t-28 98.5zM241 601q58 0 99 -37t41 -99q0 -83 -53.5 -139t-145.5 -56q-59 0 -101 33.5t-42 94.5q0 82 53 142.5t149 60.5z" />
    <glyph glyph-name="ordfeminine" unicode="&#xaa;" horiz-adv-x="392" 
d="M142 360.5q-22 -27.5 -56.5 -27.5t-60 32t-25.5 99.5t41 121.5t99 54q13 0 31.5 -11t31.5 -26q6 9 21.5 23t26.5 14q14 0 14 -33q0 -7 -5.5 -31.5t-11.5 -38t-6 -138.5q0 -23 5 -23q27 1 62 71q5 11 13 11q6 0 6 -10q0 -22 -33 -68.5t-62.5 -46.5t-43.5 14q-5 5 -5 29
t2 68q-22 -56 -44 -83.5zM136 606q-25 0 -53 -35t-28 -83t15.5 -79t38.5 -31q28 0 83 140q1 21 5 48q-7 14 -26.5 27t-34.5 13z" />
    <glyph glyph-name="guillemotleft" unicode="&#xab;" horiz-adv-x="458" 
d="M370.5 336.5q4.5 5.5 9 5.5t9 -8t4.5 -18q0 -26 -29.5 -52t-110.5 -77q54 -29 88.5 -68t34.5 -55.5t-9.5 -32t-16 -15.5t-29 27.5l-53.5 62.5q-35 40 -58 48q-4 2 -5 3t-4.5 3t-4.5 3q-6 6 -6.5 8t-1.5 4.5t-1 9.5t6.5 14.5t14.5 7.5t53.5 31t65.5 50.5t29.5 31zM238 321
q0 -59 -134 -138q41 -16 83.5 -66.5t42.5 -67.5t-12 -30t-20 -13q-6 0 -15 18t-32 50t-46.5 50t-37.5 24t-21 9.5t-7 11.5t5.5 20t11.5 12t21 9q40 22 74 55t47 50l18 24t7 7q5 0 10 -8.5t5 -16.5z" />
    <glyph glyph-name="logicalnot" unicode="&#xac;" horiz-adv-x="455" 
d="M337 211l-180 5q-24 0 -48 -3t-25 -3q-21 0 -21 20q0 13 10 27.5t20 14.5q1 0 14 -3q39 -9 129.5 -9t116.5 11t38 11q10 0 10 -12t-6.5 -27t-9 -24.5t-8 -49.5t-13 -60t-20.5 -20q-25 0 -25 19q0 13 7.5 43t10.5 60z" />
    <glyph glyph-name="registered" unicode="&#xae;" horiz-adv-x="448" 
d="M184 452l-1 -55q0 -51 -20 -51q-24 0 -24 11q0 5 8.5 20t8.5 59.5t2 67.5q-9 -4 -14 -10.5t-12 -6.5t-7 12q0 20 39 26q7 18 23 18q4 0 4 -14q96 0 96 -63q0 -30 -34 -51q5 -6 13 -30.5t26.5 -24.5t32 24t13.5 56q0 60 -35 98t-89.5 38t-95 -45.5t-40.5 -107.5t42.5 -96
t95.5 -34q21 0 27.5 3.5t12.5 7.5q12 11 23 11t11 -8q0 -18 -31 -30t-73 -12q-67 0 -115.5 38t-48.5 112t55.5 129.5t137.5 55.5t127 -36t45 -95t-28 -97.5t-77 -38.5q-34 0 -42 43q0 15 -6 30q-7 -2 -18 -2q-23 0 -23 15.5t17 15.5t29 -7q15 10 15 32q0 51 -64 51
q-6 -36 -6 -59z" />
    <glyph glyph-name="macron" unicode="&#xaf;" horiz-adv-x="339" 
d="M294 549q-3 -69 -85 -69q-13 0 -40 4.5t-53.5 4.5t-42 -2t-17.5 -2q-21 1 -20.5 21.5t20.5 28.5q14 7 93.5 7t102 9t32.5 9t10 -11z" />
    <glyph glyph-name="degree" unicode="&#xb0;" horiz-adv-x="280" 
d="M126 415q74 0 74 87q0 18 -5.5 31.5t-11 18t-7 4.5t-7.5 -3t-14 -3q-19 0 -19 14q0 25 38 25q21 0 42 -19.5t21 -66t-32.5 -82t-96.5 -35.5q-43 0 -66.5 27.5t-23.5 68.5t27 80t72 39q14 0 14 -9q0 -5 -16.5 -8t-32 -31.5t-15.5 -60t18 -54.5t41 -23z" />
    <glyph glyph-name="plusminus" unicode="&#xb1;" horiz-adv-x="500" 
d="M368 307l-96 2l-9 -61q-8 -49 -49 -49q-8 0 -16 6.5t-8 14t4 16.5q11 25 21 76q-59 0 -75 -2.5t-22.5 -2.5t-13 7.5t-6.5 16t11.5 17t18 8.5t13.5 -1q21 -3 81 -3q8 54 8 83q0 12 11 19t28 7q11 0 11 -47q0 -18 -4 -62q71 0 92.5 5.5t23.5 5.5q11 0 11 -12t-10.5 -28
t-24.5 -16zM159 115l-72 -4q-20 0 -20 15q0 10 10 26.5t20 16.5q1 0 13 -3q33 -6 123 -6t116 8.5t34.5 8.5t8.5 -11.5t-13.5 -34t-27.5 -22.5z" />
    <glyph glyph-name="twosuperior" unicode="&#xb2;" horiz-adv-x="271" 
d="M82 409l81 -20q20 0 38 29q10 16 13 16q8 0 8 -19.5t-15.5 -42.5t-27 -31t-24.5 -8t-49 17t-55 17q-13 -29 -33 -29q-18 0 -18 22t14.5 38t35.5 16l36 37t29.5 31t16.5 22q16 22 16 49q0 57 -43.5 57t-43.5 -32q0 -8 4.5 -19t4.5 -17t-6.5 -13t-11.5 -7q-10 0 -15 12.5
t-5 25.5q0 36 26.5 58t60 22t54.5 -20.5t21 -50t-9.5 -50t-20 -32t-38 -36t-44.5 -42.5z" />
    <glyph glyph-name="threesuperior" unicode="&#xb3;" horiz-adv-x="209" 
d="M17 589l5 -18q0 -5 -5 -5q-10 0 -16.5 15.5t-6.5 27.5t7.5 21.5t19 9.5t47 -12t59.5 -12q11 14 25 14q20 0 20 -32q0 -11 -13.5 -20t-30.5 -9q-6 -7 -20 -21.5l-25 -26.5q10 1 21 1q32 0 51 -23.5t19 -65t-36 -70.5t-90 -29q-26 0 -46 14t-20 25.5t4.5 17.5t14.5 6
t25 -18.5t31 -18.5q67 0 67 72q0 23 -11.5 45t-31.5 22l-34 -5q-10 0 -10 12q0 5 4 9q33 30 54 61l-65 24q-13 0 -13 -11z" />
    <glyph glyph-name="acute" unicode="&#xb4;" horiz-adv-x="348" 
d="M179 513q0 8 -5 15.5t-5 12.5t17.5 14t28.5 9t21.5 -12t10.5 -34q0 -34 -43 -66q-20 -15 -46.5 -26t-39 -11t-12.5 9q0 5 14 13q58 28 59 76z" />
    <glyph glyph-name="mu" unicode="&#xb5;" horiz-adv-x="457" 
d="M354 46q18 0 48 41.5t59.5 107t36 65.5t6.5 -8q0 -28 -29 -89q-79 -168 -134 -168q-39 0 -59 16q-7 7 -7 45.5t2 60.5q-53 -122 -114 -122q-35 0 -59 51l-20 -132t-14 -92q-7 -43 -29.5 -73t-39 -30t-28 7t-11.5 17.5t16.5 33.5t22 38.5t17.5 58.5q38 144 60 274
q-7 50 -7 100t11.5 67.5t29.5 33.5t32 16q19 0 19 -28t-11 -71.5t-18 -61.5q0 -66 14 -111t40 -45q21 0 42.5 36.5t53.5 121.5q9 101 14.5 109t27.5 29t36.5 21t14.5 -38q0 -9 -5.5 -38t-14.5 -47.5t-9 -168.5q0 -27 6 -27z" />
    <glyph glyph-name="mu" unicode="&#x3bc;" horiz-adv-x="457" 
d="M354 46q18 0 48 41.5t59.5 107t36 65.5t6.5 -8q0 -28 -29 -89q-79 -168 -134 -168q-39 0 -59 16q-7 7 -7 45.5t2 60.5q-53 -122 -114 -122q-35 0 -59 51l-20 -132t-14 -92q-7 -43 -29.5 -73t-39 -30t-28 7t-11.5 17.5t16.5 33.5t22 38.5t17.5 58.5q38 144 60 274
q-7 50 -7 100t11.5 67.5t29.5 33.5t32 16q19 0 19 -28t-11 -71.5t-18 -61.5q0 -66 14 -111t40 -45q21 0 42.5 36.5t53.5 121.5q9 101 14.5 109t27.5 29t36.5 21t14.5 -38q0 -9 -5.5 -38t-14.5 -47.5t-9 -168.5q0 -27 6 -27z" />
    <glyph glyph-name="paragraph" unicode="&#xb6;" horiz-adv-x="649" 
d="M511 428l7 -263q0 -170 -63 -170q-16 0 -28.5 9.5t-12.5 25.5t9 32q27 42 34 125t7 169t4 114q-44 1 -94 10q2 -138 2 -188.5t-3.5 -87.5t-15.5 -77.5t-31.5 -68t-54 -45.5t-80 -18t-82 21t-36.5 65q0 27 14 44.5t37.5 17.5t23.5 -11q0 -5 -6 -19.5t-6 -29t18.5 -31.5
t53.5 -17q99 0 99 291v167q-95 21 -112 21q-45 0 -75.5 -29.5t-30.5 -72t26.5 -69.5t47.5 -27t37.5 11t29.5 11q17 0 17 -17.5t-15.5 -28.5t-48.5 -11q-55 0 -96 44t-41 97q0 74 36 118t111 44q42 0 120 -29q12 66 43 66q18 0 18 -86q62 -18 104 -24q23 54 79 54
q19 0 29 -10.5t10 -23.5q0 -27 -21 -44t-63 -18q-1 -14 -1 -41zM553 541q-25 0 -35 -32h6q44 0 44 19q0 13 -15 13z" />
    <glyph glyph-name="periodcentered" unicode="&#xb7;" horiz-adv-x="107" 
d="M-5 202.5q-14 9.5 -14 31.5t20 34.5t37 12.5t28.5 -9.5t11.5 -23.5q0 -55 -54 -55q-15 0 -29 9.5z" />
    <glyph glyph-name="onesuperior" unicode="&#xb9;" horiz-adv-x="204" 
d="M148 568l-8 -105q0 -37 -5 -87q-6 -43 -44 -43q-12 0 -12 26t10 94t10 104t-4 36q-10 0 -52 -100q-4 -9 -8 -24.5t-7.5 -23t-10.5 -7.5q-17 0 -17 12q0 4 17.5 46.5t69.5 126.5q10 17 41 17q20 0 20 -72z" />
    <glyph glyph-name="ordmasculine" unicode="&#xba;" horiz-adv-x="320" 
d="M277 520q11 4 29.5 14.5t23 10.5t4.5 -8.5t-20.5 -23t-39.5 -22.5q-9 -70 -49 -114t-108 -44q-51 0 -79.5 37.5t-28.5 94.5t34.5 107.5t88.5 50.5q26 17 59 17t59.5 -32t26.5 -88zM136 370q71 0 83 105q-9 -2 -28 -2q-40 0 -66.5 23t-26.5 50.5t9 45.5q-37 -30 -37 -115
q0 -45 19.5 -76t46.5 -31zM221 506q0 37 -13 72t-37 35q-14 0 -22 -12.5t-8 -26.5q0 -29 23 -48.5t57 -19.5z" />
    <glyph glyph-name="guillemotright" unicode="&#xbb;" horiz-adv-x="460" 
d="M82.5 15.5q-4.5 -5.5 -9 -5.5t-9 8t-4.5 18q0 26 29.5 52t110.5 77q-54 29 -88.5 68t-34.5 55.5t9.5 32t16 15.5t29 -27.5l52.5 -62.5q36 -40 59 -48q4 -2 5 -3t4.5 -3t4.5 -3q6 -6 6.5 -8t1.5 -4.5t1 -9.5t-6.5 -14.5t-14.5 -7.5t-53.5 -31t-65.5 -50.5t-29.5 -31z
M215 31q0 59 134 138q-41 16 -83.5 66.5t-42.5 67.5t12 30t20 13q6 0 15 -18t32 -50t46.5 -50t37.5 -24t21 -9.5t7 -11.5t-5.5 -20t-11.5 -12t-21 -9q-40 -22 -74 -55t-47 -50l-18 -24t-7 -7q-5 0 -10 8.5t-5 16.5z" />
    <glyph glyph-name="onequarter" unicode="&#xbc;" horiz-adv-x="716" 
d="M186 7q0 24 38 92.5t70 115.5q100 149 170 313q14 32 39 32q8 0 8 -10t-22 -63t-97 -198.5t-110.5 -225t-69.5 -79.5q-8 0 -17 6t-9 17zM538 72l-115 -5q-21 0 -21 22q0 16 27 18q8 20 37 86t32.5 75t5.5 17.5t4 12.5q6 15 16.5 15t16 -8t5.5 -18t-3.5 -18t-11 -19
t-9.5 -15q-41 -71 -60 -127q15 2 43 6.5t41 5.5q7 88 19 88q6 0 14 -7.5t8 -15.5q0 -27 -5 -62q22 -1 34 -12.5t12 -23.5q0 -19 -17 -19l-34 5q-1 -8 -1 -24l1 -32q-2 -22 -34 -22q-10 0 -10 22t5 55zM229 469l-8 -105q0 -37 -5 -87q-6 -43 -44 -43q-12 0 -12 26t10 94
t10 104t-4 36q-10 0 -52 -100q-4 -9 -8 -24.5t-7.5 -23t-10.5 -7.5q-17 0 -17 12q0 4 17.5 46.5t69.5 126.5q10 17 41 17q20 0 20 -72z" />
    <glyph glyph-name="onehalf" unicode="&#xbd;" horiz-adv-x="764" 
d="M186 7q0 24 38 92.5t70 115.5q100 149 170 313q14 32 39 32q8 0 8 -10t-22 -63t-97 -198.5t-110.5 -225t-69.5 -79.5q-8 0 -17 6t-9 17zM522 71l81 -20q20 0 38 29q10 16 13 16q8 0 8 -18.5t-16 -42.5t-27.5 -32t-24 -8t-48 17t-55.5 17q-13 -29 -33 -29q-18 0 -18 22
t14.5 38t35.5 16l36 37t29.5 31t16.5 22q16 22 16 49q0 57 -43.5 57t-43.5 -32q0 -8 4.5 -19t4.5 -17t-6.5 -13t-11.5 -7q-10 0 -15 12.5t-5 25.5q0 36 26.5 58t60 22t54.5 -20.5t21 -50t-9.5 -50t-20 -32t-38 -36t-44.5 -42.5zM232 466l-8 -105q0 -37 -5 -87
q-6 -43 -44 -43q-12 0 -12 26t10 94t10 104t-4 36q-10 0 -52 -100q-4 -9 -8 -24.5t-7.5 -23t-10.5 -7.5q-17 0 -17 12q0 4 17.5 46.5t69.5 126.5q10 17 41 17q20 0 20 -72z" />
    <glyph glyph-name="threequarters" unicode="&#xbe;" horiz-adv-x="697" 
d="M186 7q0 24 38 92.5t70 115.5q100 149 170 313q14 32 39 32q8 0 8 -10t-22 -63t-97 -198.5t-110.5 -225t-69.5 -79.5q-8 0 -17 6t-9 17zM112 491l5 -18q0 -5 -5 -5q-10 0 -16.5 15.5t-6.5 27.5t7.5 21.5t19 9.5t47 -12t59.5 -12q11 17 22 17t17 -10t6 -23t-13.5 -22
t-30.5 -9q-6 -7 -20 -21.5l-25 -26.5q10 1 21 1q32 0 51 -23.5t19 -65t-38 -70.5t-94 -29q-26 0 -44 14t-18 25.5t4.5 17.5t14.5 6t25 -18.5t31 -18.5q69 0 69 72q0 24 -11 46.5t-31 22.5l-34 -5q-11 0 -11 10q0 5 4 9q33 30 54 61l-65 24q-13 0 -13 -11zM538 72l-115 -5
q-21 0 -21 22q0 16 27 18q8 20 37 86t32.5 75t5.5 17.5t4 12.5q6 15 16.5 15t16 -8t5.5 -18t-3.5 -18t-11 -19t-9.5 -15q-41 -71 -60 -127q15 2 43 6.5t41 5.5q7 88 19 88q6 0 14 -7.5t8 -15.5q0 -27 -5 -62q22 -1 34 -12.5t12 -23.5q0 -19 -17 -19l-34 5q-1 -8 -1 -24
l1 -32q-2 -22 -34 -22q-10 0 -10 22t5 55z" />
    <glyph glyph-name="questiondown" unicode="&#xbf;" horiz-adv-x="355" 
d="M214 214q24 0 39 -19t15 -45.5t-15.5 -47t-37.5 -34.5t-44.5 -30t-38 -45t-15.5 -71.5t23.5 -70.5t65 -28t66.5 70q9 26 33 26q12 0 18.5 -9t6.5 -19q-1 -43 -52.5 -73.5t-103.5 -30.5t-94.5 30.5t-42.5 81t18 86t44 55t52.5 34.5t44.5 29.5t18 28t-15 26.5t-15 19.5
t11 21.5t19 15zM270 355.5q14 -9.5 14 -31.5t-20 -34.5t-37 -12.5t-28.5 9.5t-11.5 23.5q0 55 54 55q15 0 29 -9.5z" />
    <glyph glyph-name="Agrave" unicode="&#xc0;" 
d="M396 46q17 0 47 41.5t59.5 107t36 65.5t6.5 -8q0 -28 -29 -89q-79 -168 -133 -168q-46 0 -66 16q-9 9 -9 190l-164 -12q-19 -52 -34 -104t-20 -64q-11 -26 -53 -26q-28 0 -28 24t38 70q7 9 46 97q-14 -1 -27 -1q-35 0 -35 30q0 27 28 27q2 0 57 -5q15 35 32 69
q131 274 180 274q37 0 51 -343h9q7 0 7 -10t-15 -17q6 -164 16 -164zM159 232q117 0 149 1q-1 16 -2 56t-2 69.5l-2 61.5q-4 69 -12 69q-11 0 -45 -65t-53 -110zM336.5 729q7.5 -18 11.5 -24t7.5 -10.5t6.5 -7.5t8 -6.5l8 -5.5t9.5 -5.5t9 -4.5t10.5 -5l10 -5q13 -7 13 -17
q0 -15 -17.5 -15t-45.5 9.5t-49 23.5q-50 34 -50 72q0 11 16 26.5t23.5 15.5t14.5 -11.5t14.5 -29.5z" />
    <glyph glyph-name="Aacute" unicode="&#xc1;" 
d="M396 46q18 0 48 41.5t59.5 107t36 65.5t6.5 -8q0 -28 -29 -89q-79 -168 -134 -168q-46 0 -66 16q-9 9 -9 190l-164 -12q-19 -52 -34 -104t-20 -64q-11 -26 -53 -26q-28 0 -28 24t38 70q7 9 46 97q-14 -1 -27 -1q-35 0 -35 30q0 27 28 27q2 0 57 -5q15 35 32 69
q131 274 180 274q37 0 51 -343h9q7 0 7 -10t-15 -17q6 -164 16 -164zM159 232q117 0 149 1q-1 16 -2 56t-2 69.5l-2 61.5q-4 69 -12 69q-11 0 -45 -65t-53 -110zM333 719q0 8 -5 15.5t-5 12.5t17.5 14t28.5 9t21.5 -12t10.5 -34q0 -34 -43 -66q-20 -15 -46.5 -26t-39 -11
t-12.5 9q0 5 14 13q58 28 59 76z" />
    <glyph glyph-name="Acircumflex" unicode="&#xc2;" 
d="M396 46q18 0 48 41.5t59.5 107t36 65.5t6.5 -8q0 -28 -29 -89q-79 -168 -134 -168q-46 0 -66 16q-9 9 -9 190l-164 -12q-19 -52 -34 -104t-20 -64q-11 -26 -53 -26q-28 0 -28 24t38 70q7 9 46 97q-14 -1 -27 -1q-35 0 -35 30q0 27 28 27q2 0 57 -5q15 35 32 69
q131 274 180 274q37 0 51 -343h9q7 0 7 -10t-15 -17q6 -164 16 -164zM159 232q117 0 149 1q-1 16 -2 56t-2 69.5l-2 61.5q-4 69 -12 69q-11 0 -45 -65t-53 -110zM432 623q-12 -8 -18 -8q-52 0 -87 71q-12 -26 -43 -43t-45.5 -17t-15.5 9q0 4 8.5 8t17 9.5t19.5 16l17 16
t10 16t5 13.5q5 12 5 27q1 8 18.5 18.5t25.5 10.5q12 0 15 -19.5t6.5 -32.5t15.5 -33q17 -26 42 -37q16 -7 16 -12t-12 -13z" />
    <glyph glyph-name="Atilde" unicode="&#xc3;" 
d="M396 46q18 0 48 41.5t59.5 107t36 65.5t6.5 -8q0 -28 -29 -89q-79 -168 -134 -168q-46 0 -66 16q-9 9 -9 190l-164 -12q-19 -52 -34 -104t-20 -64q-11 -26 -53 -26q-28 0 -28 24t38 70q7 9 46 97q-14 -1 -27 -1q-35 0 -35 30q0 27 28 27q2 0 57 -5q15 35 32 69
q131 274 180 274q37 0 51 -343h9q7 0 7 -10t-15 -17q6 -164 16 -164zM159 232q117 0 149 1q-1 16 -2 56t-2 69.5l-2 61.5q-4 69 -12 69q-11 0 -45 -65t-53 -110zM338.5 704.5q50.5 -20.5 61 -20.5t21.5 16.5t17 16.5q13 0 13 -21.5t-23 -45.5t-49 -24t-62 21.5t-55 21.5
q-7 0 -13.5 -14t-14.5 -14q-17 0 -17 20t14.5 42t35.5 22t71.5 -20.5z" />
    <glyph glyph-name="Adieresis" unicode="&#xc4;" 
d="M396 46q18 0 48 41.5t59.5 107t36 65.5t6.5 -8q0 -28 -29 -89q-79 -168 -134 -168q-46 0 -66 16q-9 9 -9 190l-164 -12q-19 -52 -34 -104t-20 -64q-11 -26 -53 -26q-28 0 -28 24t38 70q7 9 46 97q-14 -1 -27 -1q-35 0 -35 30q0 27 28 27q2 0 57 -5q15 35 32 69
q131 274 180 274q37 0 51 -343h9q7 0 7 -10t-15 -17q6 -164 16 -164zM159 232q117 0 149 1q-1 16 -2 56t-2 69.5l-2 61.5q-4 69 -12 69q-11 0 -45 -65t-53 -110zM232.5 632q-13.5 9 -13.5 29t18.5 32t34.5 12t27 -9t11 -22q0 -51 -51 -51q-13 0 -26.5 9zM376.5 632
q-13.5 9 -13.5 29t19 32t35 12t26.5 -9t10.5 -22q0 -51 -50 -51q-14 0 -27.5 9z" />
    <glyph glyph-name="Aring" unicode="&#xc5;" 
d="M396 46q18 0 48 41.5t59.5 107t36 65.5t6.5 -8q0 -28 -29 -89q-79 -168 -134 -168q-46 0 -66 16q-9 9 -9 190l-164 -12q-19 -52 -34 -104t-20 -64q-11 -26 -53 -26q-28 0 -28 24t38 70q7 9 46 97q-14 -1 -27 -1q-35 0 -35 30q0 27 28 27q2 0 57 -5q15 35 32 69
q89 187 143 248q-28 11 -28 41.5t16.5 51.5t43.5 21t40.5 -14.5t13.5 -35.5q0 -41 -32 -59q22 -56 34 -322h9q7 0 7 -10t-15 -17q6 -164 16 -164zM159 232q117 0 149 1q-1 16 -2 56t-2 69.5l-2 61.5q-4 69 -12 69q-11 0 -45 -65t-53 -110zM342 630q-6 8 -17 8t-19.5 -9
t-8.5 -21q0 -28 22 -28q12 0 20.5 9.5t8.5 21t-6 19.5z" />
    <glyph glyph-name="AE" unicode="&#xc6;" horiz-adv-x="731" 
d="M415 48q38 -49 104.5 -49t125.5 62t98 144q4 10 9 19t8 15t5 9.5t5 7.5q4 6 10 6t6 -8q0 -36 -50.5 -123t-109.5 -130t-146 -43t-135 49t-48 122q0 12 2 72q-5 0 -65 -4.5t-90 -6.5q-18 -52 -33.5 -104.5t-20.5 -64.5q-11 -26 -53 -26q-28 0 -28 24t38 70q7 9 46 97
q-10 -1 -27 -1q-35 0 -35 30q0 27 28 27q2 0 57 -5q45 107 114 225t98 118q32 0 38 -121q25 54 83.5 84t112.5 30t78.5 -23.5t24.5 -54.5t-14 -49.5t-34 -18.5q-17 0 -17 19q0 6 4.5 21t4.5 29t-15.5 30t-41.5 16q-57 0 -92.5 -40t-35.5 -92t25 -85q44 21 80.5 21t59 -12.5
t22.5 -37t-27 -36.5t-63.5 -12t-92.5 28q-23 -25 -37 -58.5t-14 -61.5q0 -59 38 -108zM159 232q86 0 142 1q4 90 4 143q0 113 -15 113q-11 0 -59 -93t-72 -164zM543 276q9 0 14 4.5t5 7.5q0 12 -16 20.5t-37.5 8.5t-41.5 -11q33 -30 76 -30zM371 271l29 24q-17 13 -30 32
q0 -39 1 -56z" />
    <glyph glyph-name="Ccedilla" unicode="&#xc7;" horiz-adv-x="412" 
d="M195 -9q0 -6 12 -15q36 -27 36 -55t-22.5 -49.5t-44.5 -21.5t-40.5 7t-18.5 18q0 18 16 18q3 0 10 -4.5t17.5 -4.5t19.5 10t9 29t-16 35t-16 21.5t3 11.5q-75 8 -117.5 71t-42.5 131q0 174 90.5 280.5t214.5 106.5q47 0 77 -27.5t30 -69.5t-21 -78t-50.5 -36t-29.5 16
q0 18 19.5 41t19.5 46q0 71 -75.5 71t-136.5 -101t-61 -208q0 -74 42 -131.5t119 -57.5q90 0 173 120q7 10 21 35q31 57 37.5 57t6.5 -8q0 -49 -51 -124q-34 -50 -95.5 -92t-134.5 -42z" />
    <glyph glyph-name="Egrave" unicode="&#xc8;" horiz-adv-x="442" 
d="M334 482l2 27q0 22 -16.5 41.5t-44.5 19.5q-48 0 -87 -43t-39 -91.5t25 -81.5q43 19 80 19t59.5 -12.5t22.5 -37.5t-24.5 -37t-54.5 -12q-56 0 -102 31q-24 -25 -38.5 -59t-14.5 -63q0 -59 38 -108t101 -49q132 0 215 174q28 57 35.5 57t7.5 -8q0 -40 -49.5 -120.5
t-107 -112t-141 -31.5t-131.5 49t-48 122q0 48 28.5 92.5t73.5 76.5q-47 39 -47 94q0 76 59 128.5t143 52.5q55 0 92.5 -28.5t37.5 -67.5q0 -22 -13 -36t-33 -14q-29 0 -29 28zM271 335.5q-16 8.5 -37 8.5t-41 -10q34 -31 75 -31q9 0 14 4.5t5 7.5q0 12 -16 20.5zM278.5 729
q7.5 -18 11.5 -24t7.5 -10.5t6.5 -7.5t8 -6.5l8 -5.5t9.5 -5.5t9 -4.5t10.5 -5l10 -5q13 -7 13 -17q0 -15 -17.5 -15t-45.5 9.5t-49 23.5q-50 34 -50 72q0 11 16 26.5t23.5 15.5t14.5 -11.5t14.5 -29.5z" />
    <glyph glyph-name="Eacute" unicode="&#xc9;" horiz-adv-x="442" 
d="M334 482l2 27q0 22 -16.5 41.5t-44.5 19.5q-48 0 -87 -43t-39 -91.5t25 -81.5q43 19 80 19t59.5 -12.5t22.5 -37.5t-24.5 -37t-54.5 -12q-56 0 -102 31q-24 -25 -38.5 -59t-14.5 -63q0 -59 38 -108t101 -49q132 0 215 174q28 57 35.5 57t7.5 -8q0 -40 -49.5 -120.5
t-107 -112t-141 -31.5t-131.5 49t-48 122q0 48 28.5 92.5t73.5 76.5q-47 39 -47 94q0 76 59 128.5t143 52.5q55 0 92.5 -28.5t37.5 -67.5q0 -22 -13 -36t-33 -14q-29 0 -29 28zM271 335.5q-16 8.5 -37 8.5t-41 -10q34 -31 75 -31q9 0 14 4.5t5 7.5q0 12 -16 20.5zM288 738
q0 8 -5 15.5t-5 12.5t17.5 14t28.5 9t21.5 -11.5t10.5 -34.5q0 -34 -43 -66q-20 -15 -46.5 -26t-39 -11t-12.5 9q0 5 14 13q58 28 59 76z" />
    <glyph glyph-name="Ecircumflex" unicode="&#xca;" horiz-adv-x="442" 
d="M334 482l2 27q0 22 -16.5 41.5t-44.5 19.5q-48 0 -87 -43t-39 -91.5t25 -81.5q43 19 80 19t59.5 -12.5t22.5 -37.5t-24.5 -37t-54.5 -12q-56 0 -102 31q-24 -25 -38.5 -59t-14.5 -63q0 -59 38 -108t101 -49q132 0 215 174q28 57 35.5 57t7.5 -8q0 -40 -49.5 -120.5
t-107 -112t-141 -31.5t-131.5 49t-48 122q0 48 28.5 92.5t73.5 76.5q-47 39 -47 94q0 76 59 128.5t143 52.5q55 0 92.5 -28.5t37.5 -67.5q0 -22 -13 -36t-33 -14q-29 0 -29 28zM271 335.5q-16 8.5 -37 8.5t-41 -10q34 -31 75 -31q9 0 14 4.5t5 7.5q0 12 -16 20.5zM387 623
q-12 -8 -18 -8q-52 0 -87 71q-12 -26 -43 -43t-45.5 -17t-15.5 9q0 4 8.5 8t17 9.5t19.5 16l17 16t10 16t5 13.5q5 12 5 27q1 8 18.5 18.5t25.5 10.5q12 0 15 -19.5t6.5 -32.5t16.5 -33q16 -26 41 -37q16 -7 16 -12t-12 -13z" />
    <glyph glyph-name="Edieresis" unicode="&#xcb;" horiz-adv-x="442" 
d="M334 482l2 27q0 22 -16.5 41.5t-44.5 19.5q-48 0 -87 -43t-39 -91.5t25 -81.5q43 19 80 19t59.5 -12.5t22.5 -37.5t-24.5 -37t-54.5 -12q-56 0 -102 31q-24 -25 -38.5 -59t-14.5 -63q0 -59 38 -108t101 -49q132 0 215 174q28 57 35.5 57t7.5 -8q0 -40 -49.5 -120.5
t-107 -112t-141 -31.5t-131.5 49t-48 122q0 48 28.5 92.5t73.5 76.5q-47 39 -47 94q0 76 59 128.5t143 52.5q55 0 92.5 -28.5t37.5 -67.5q0 -22 -13 -36t-33 -14q-29 0 -29 28zM271 335.5q-16 8.5 -37 8.5t-41 -10q34 -31 75 -31q9 0 14 4.5t5 7.5q0 12 -16 20.5zM186.5 662
q-13.5 9 -13.5 29t18.5 32t34.5 12t27 -9t11 -22q0 -51 -51 -51q-13 0 -26.5 9zM330.5 662q-13.5 9 -13.5 29t19 32t35 12t26.5 -9t10.5 -22q0 -51 -50 -51q-14 0 -27.5 9z" />
    <glyph glyph-name="Igrave" unicode="&#xcc;" horiz-adv-x="429" 
d="M371 502l4 -186q0 -336 -230 -336q-45 0 -81.5 21t-36.5 65q0 27 14 44.5t37.5 17.5t23.5 -11q0 -5 -6 -19.5t-6 -29t17 -31t51 -16.5t59 14t40 41.5t24.5 56.5t13.5 73q6 65 6 147.5t2 136.5q-128 -22 -128 -110q0 -25 -10.5 -39t-26.5 -14q-30 0 -30 34q0 61 53.5 102
t145.5 61q7 41 34 66.5t49 25.5t35.5 -12.5t13.5 -33.5q0 -49 -68 -68zM398 582q-22 0 -26 -45q36 11 36 29q0 16 -10 16zM271.5 729q7.5 -18 11.5 -24t7.5 -10.5t6.5 -7.5t8 -6.5l8 -5.5t9.5 -5.5t9 -4.5t10.5 -5l10 -5q13 -7 13 -17q0 -15 -17.5 -15t-45.5 9.5t-49 23.5
q-50 34 -50 72q0 11 16 26.5t23.5 15.5t14.5 -11.5t14.5 -29.5z" />
    <glyph glyph-name="Iacute" unicode="&#xcd;" horiz-adv-x="429" 
d="M371 502l4 -186q0 -336 -230 -336q-45 0 -81.5 21t-36.5 65q0 27 14 44.5t37.5 17.5t23.5 -11q0 -5 -6 -19.5t-6 -29t17 -31t51 -16.5t59 14t40 41.5t24.5 56.5t13.5 73q6 65 6 147.5t2 136.5q-128 -22 -128 -110q0 -25 -10.5 -39t-26.5 -14q-30 0 -30 34q0 61 53.5 102
t145.5 61q7 41 34 66.5t49 25.5t35.5 -12.5t13.5 -33.5q0 -49 -68 -68zM398 582q-22 0 -26 -45q36 11 36 29q0 16 -10 16zM307 719q0 8 -5 15.5t-5 12.5t17.5 14t28.5 9t21.5 -12t10.5 -34q0 -34 -43 -66q-20 -15 -46.5 -26t-39 -11t-12.5 9q0 5 14 13q58 28 59 76z" />
    <glyph glyph-name="Icircumflex" unicode="&#xce;" horiz-adv-x="429" 
d="M371 502l4 -186q0 -336 -230 -336q-45 0 -81.5 21t-36.5 65q0 27 14 44.5t37.5 17.5t23.5 -11q0 -5 -6 -19.5t-6 -29t17 -31t51 -16.5t59 14t40 41.5t24.5 56.5t13.5 73q6 65 6 147.5t2 136.5q-128 -22 -128 -110q0 -25 -10.5 -39t-26.5 -14q-30 0 -30 34q0 61 53.5 102
t145.5 61q7 41 34 66.5t49 25.5t35.5 -12.5t13.5 -33.5q0 -49 -68 -68zM398 582q-22 0 -26 -45q36 11 36 29q0 16 -10 16zM431.5 662q4.5 -3 4.5 -7t-12 -12t-25 -8t-42 19t-45 48q-12 -26 -44.5 -43t-43 -17t-17 5.5t-6.5 10t26 15.5q54 25 62 69q1 8 17.5 18t25.5 10
t15.5 -23t19 -39t29.5 -26.5t24 -13.5t11.5 -6z" />
    <glyph glyph-name="Idieresis" unicode="&#xcf;" horiz-adv-x="429" 
d="M371 502l4 -186q0 -336 -230 -336q-45 0 -81.5 21t-36.5 65q0 27 14 44.5t37.5 17.5t23.5 -11q0 -5 -6 -19.5t-6 -29t17 -31t51 -16.5t59 14t40 41.5t24.5 56.5t13.5 73q6 65 6 147.5t2 136.5q-128 -22 -128 -110q0 -25 -10.5 -39t-26.5 -14q-30 0 -30 34q0 61 53.5 102
t145.5 61q7 41 34 66.5t49 25.5t35.5 -12.5t13.5 -33.5q0 -49 -68 -68zM398 582q-22 0 -26 -45q36 11 36 29q0 16 -10 16zM180.5 662q-13.5 9 -13.5 29t18.5 32t34.5 12t27 -9t11 -22q0 -51 -51 -51q-13 0 -26.5 9zM324.5 662q-13.5 9 -13.5 29t19 32t35 12t26.5 -9
t10.5 -22q0 -51 -50 -51q-14 0 -27.5 9z" />
    <glyph glyph-name="Eth" unicode="&#xd0;" horiz-adv-x="633" 
d="M57 359l6 -64q0 -10 -10.5 -16t-17.5 -6q-14 0 -24.5 22.5t-10.5 41.5q0 74 51.5 125.5t130.5 77.5q0 7 1 10q6 44 19.5 64.5t39.5 20.5q13 0 13 -37v-42q32 4 47 4q133 0 210.5 -74.5t77.5 -187.5q0 -78 -28 -138t-76 -95q-96 -70 -230 -70h-21q-3 -29 -9 -29
q-46 0 -62 13q-7 7 -8 24q-34 7 -64 24q-25 13 -25 27t7 19.5t15.5 5.5t66.5 -24q2 69 6 146q-28 0 -67.5 7t-39.5 18.5t25 11.5l84 -3q9 174 15 270q-55 -19 -88.5 -57t-33.5 -89zM275 521q-14 0 -21 -1q-3 -114 -9 -260q8 4 17 10q16 11 30.5 11t29.5 -5.5t15 -14.5
q0 -27 -94 -50q-1 -33 -2.5 -73t-2 -65t-1.5 -42q19 -3 42 -3q95 0 165 70.5t70 173.5t-67 176t-172 73z" />
    <glyph glyph-name="Ntilde" unicode="&#xd1;" horiz-adv-x="497" 
d="M179.5 171q-28.5 -96 -62.5 -141t-82 -45q-35 0 -35 27q0 22 15 31t35.5 13.5t26.5 10.5q37 39 68.5 139.5t45.5 204.5q-43 45 -43 73t16 64.5t38 36.5q13 0 23 -32t10 -80q52 -66 81 -114q31 102 85 171.5t124 69.5q25 0 40 -18t15 -40t-8.5 -39.5t-22.5 -17.5t-14 14
t-8.5 21.5t-21.5 7.5q-41 0 -77 -43q-51 -61 -85 -174q66 -142 66 -230q0 -36 -16 -63.5t-47 -27.5q-66 0 -66 112q0 79 12 150q-30 64 -68 117q-16 -102 -44.5 -198zM316 186q-5 -36 -5 -74t5 -59t11 -21q12 0 12 41t-23 113zM323.5 678.5q50.5 -20.5 61 -20.5t21.5 16.5
t17 16.5q13 0 13 -21.5t-23 -45.5t-49 -24t-62 21.5t-55 21.5q-7 0 -13.5 -14t-14.5 -14q-17 0 -17 20t14.5 42t35.5 22t71.5 -20.5z" />
    <glyph glyph-name="Ograve" unicode="&#xd2;" horiz-adv-x="586" 
d="M21 223q0 67 25.5 132.5t73.5 108.5q12 65 62.5 105.5t144.5 40.5t150.5 -73.5t56.5 -191.5q0 -77 -23 -146q46 16 83.5 40.5t38.5 24.5q11 0 11 -13q0 -11 -48 -42.5t-99 -44.5q-37 -81 -105 -127.5t-164.5 -46.5t-151.5 64.5t-55 168.5zM443 187q13 45 13 100
q0 118 -44.5 200t-126.5 82q-35 0 -69.5 -19.5t-49.5 -52.5q52 29 105.5 29t53.5 -15q0 -9 -7 -14t-14 -5q-86 0 -146 -58q8 -102 89.5 -174.5t195.5 -72.5zM265 41q120 0 167 113q-120 0 -208.5 63t-104.5 165q-28 -53 -28 -119q0 -91 50.5 -156.5t123.5 -65.5zM327.5 729
q7.5 -18 11.5 -24t7.5 -10.5t6.5 -7.5t8 -6.5l8 -5.5t9.5 -5.5t9 -4.5t10.5 -5l10 -5q13 -7 13 -17q0 -15 -17.5 -15t-45.5 9.5t-49 23.5q-50 34 -50 72q0 11 16 26.5t23.5 15.5t14.5 -11.5t14.5 -29.5z" />
    <glyph glyph-name="Oacute" unicode="&#xd3;" horiz-adv-x="588" 
d="M21 223q0 67 25.5 132.5t73.5 108.5q12 65 62.5 105.5t144.5 40.5t150.5 -73.5t56.5 -191.5q0 -77 -23 -146q46 16 83.5 40.5t38.5 24.5q11 0 11 -13q0 -11 -48 -42.5t-99 -44.5q-37 -81 -105 -127.5t-164.5 -46.5t-151.5 64.5t-55 168.5zM443 187q13 45 13 100
q0 118 -44.5 200t-126.5 82q-35 0 -69.5 -19.5t-49.5 -52.5q52 29 105.5 29t53.5 -15q0 -9 -7 -14t-14 -5q-86 0 -146 -58q8 -102 89.5 -174.5t195.5 -72.5zM265 41q120 0 167 113q-120 0 -208.5 63t-104.5 165q-28 -53 -28 -119q0 -91 50.5 -156.5t123.5 -65.5zM331 738
q0 8 -5 15.5t-5 12.5t17.5 14t28.5 9t21.5 -11.5t10.5 -34.5q0 -34 -43 -66q-20 -15 -46.5 -26t-39 -11t-12.5 9q0 5 14 13q58 28 59 76z" />
    <glyph glyph-name="Ocircumflex" unicode="&#xd4;" horiz-adv-x="588" 
d="M429 623q-12 -8 -18 -8q-52 0 -87 71q-12 -26 -43 -43t-45.5 -17t-15.5 9q0 4 8.5 8t17 9.5t19.5 16l17 16t10 16t5 13.5q5 12 5 27q1 8 18.5 18.5t25.5 10.5q12 0 15 -19.5t6.5 -32.5t16.5 -33q16 -26 41 -37q16 -7 16 -12t-12 -13zM21 223q0 67 25.5 132.5t73.5 108.5
q12 65 62.5 105.5t144.5 40.5t150.5 -73.5t56.5 -191.5q0 -77 -23 -146q46 16 83.5 40.5t38.5 24.5q11 0 11 -13q0 -11 -48 -42.5t-99 -44.5q-37 -81 -105 -127.5t-164.5 -46.5t-151.5 64.5t-55 168.5zM443 187q13 45 13 100q0 118 -44.5 200t-126.5 82q-35 0 -69.5 -19.5
t-49.5 -52.5q52 29 105.5 29t53.5 -15q0 -9 -7 -14t-14 -5q-86 0 -146 -58q8 -102 89.5 -174.5t195.5 -72.5zM265 41q120 0 167 113q-120 0 -208.5 63t-104.5 165q-28 -53 -28 -119q0 -91 50.5 -156.5t123.5 -65.5z" />
    <glyph glyph-name="Otilde" unicode="&#xd5;" horiz-adv-x="588" 
d="M21 223q0 67 25.5 132.5t73.5 108.5q12 65 62.5 105.5t144.5 40.5t150.5 -73.5t56.5 -191.5q0 -77 -23 -146q46 16 83.5 40.5t38.5 24.5q11 0 11 -13q0 -11 -48 -42.5t-99 -44.5q-37 -81 -105 -127.5t-164.5 -46.5t-151.5 64.5t-55 168.5zM443 187q13 45 13 100
q0 118 -44.5 200t-126.5 82q-35 0 -69.5 -19.5t-49.5 -52.5q52 29 105.5 29t53.5 -15q0 -9 -7 -14t-14 -5q-86 0 -146 -58q8 -102 89.5 -174.5t195.5 -72.5zM265 41q120 0 167 113q-120 0 -208.5 63t-104.5 165q-28 -53 -28 -119q0 -91 50.5 -156.5t123.5 -65.5z
M324.5 750.5q50.5 -20.5 61 -20.5t21.5 16.5t17 16.5q13 0 13 -21.5t-23 -45.5t-49 -24t-62 21.5t-55 21.5q-7 0 -13.5 -14t-14.5 -14q-17 0 -17 20t14.5 42t35.5 22t71.5 -20.5z" />
    <glyph glyph-name="Odieresis" unicode="&#xd6;" horiz-adv-x="590" 
d="M21 223q0 67 25.5 132.5t73.5 108.5q12 65 62.5 105.5t144.5 40.5t150.5 -73.5t56.5 -191.5q0 -77 -23 -146q46 16 83.5 40.5t38.5 24.5q11 0 11 -13q0 -11 -48 -42.5t-99 -44.5q-37 -81 -105 -127.5t-164.5 -46.5t-151.5 64.5t-55 168.5zM443 187q13 45 13 100
q0 118 -44.5 200t-126.5 82q-35 0 -69.5 -19.5t-49.5 -52.5q52 29 105.5 29t53.5 -15q0 -9 -7 -14t-14 -5q-86 0 -146 -58q8 -102 89.5 -174.5t195.5 -72.5zM265 41q120 0 167 113q-120 0 -208.5 63t-104.5 165q-28 -53 -28 -119q0 -91 50.5 -156.5t123.5 -65.5zM215.5 662
q-13.5 9 -13.5 29t18.5 32t34.5 12t27 -9t11 -22q0 -51 -51 -51q-13 0 -26.5 9zM359.5 662q-13.5 9 -13.5 29t19 32t35 12t26.5 -9t10.5 -22q0 -51 -50 -51q-14 0 -27.5 9z" />
    <glyph glyph-name="multiply" unicode="&#xd7;" horiz-adv-x="445" 
d="M217 287l93 91q22 22 35.5 22t13.5 -10q0 -8 -52 -62t-70 -74q46 -80 89 -112q25 -19 25 -25q0 -13 -12.5 -22t-28.5 -9q-51 0 -116 121l-36.5 -44.5l-28 -35l-19.5 -22.5q-16 -19 -27 -19q-23 0 -23 23q0 21 24.5 48t36.5 39q43 43 52 49q-24 49 -36.5 77.5t-14.5 31
t-7.5 7.5t-8.5 8q-8 8 -8 18q0 16 20 16q10 0 18 -4q23 -10 81 -112z" />
    <glyph glyph-name="Oslash" unicode="&#xd8;" horiz-adv-x="601" 
d="M345 592q13 61 35 61q18 0 18 -19q0 -9 -11 -46q77 -14 120.5 -75.5t43.5 -156.5t-33.5 -174.5t-99.5 -132t-154 -58.5q-9 -77 -57 -77q-14 0 -24 7.5t-10 24.5t25 49q-74 15 -118 77.5t-44 139t18 141.5t54 119.5t97 87t140 32.5zM315 546q-107 0 -157.5 -79t-50.5 -209
q0 -68 35 -125.5t85 -80.5q28 87 63.5 272.5t43.5 219.5q-12 2 -19 2zM373 530q-22 -92 -55 -264.5t-44 -224.5q97 0 147.5 70t50.5 186q0 81 -27 144t-72 89z" />
    <glyph glyph-name="Ugrave" unicode="&#xd9;" horiz-adv-x="519" 
d="M416 46q17 0 47 41.5t59.5 107t36 65.5t6.5 -8q0 -28 -29 -89q-79 -168 -133 -168q-46 0 -65 15q-8 8 -8 39t5 96q-38 -65 -80.5 -107.5t-84 -42.5t-67.5 44.5t-26 120t15 189t15 168.5q0 14 -7 14q-16 0 -36.5 -23.5t-27.5 -72.5q-1 -11 -8.5 -19.5t-15.5 -8.5
q-12 0 -12 20t20 56.5t52.5 66.5t63.5 30q36 0 35.5 -57.5t-12.5 -167.5t-12 -165q0 -140 52 -140q30 0 70 48t71 112q20 256 29 317q2 9 31 31t44.5 22t15.5 -58q0 -44 -7 -76t-17.5 -75l-15.5 -64q-10 -134 -10 -234q0 -27 6 -27zM267.5 729q7.5 -18 11.5 -24t7.5 -10.5
t6.5 -7.5t8 -6.5l8 -5.5t9.5 -5.5t9 -4.5t10.5 -5l10 -5q13 -7 13 -17q0 -15 -17.5 -15t-45.5 9.5t-49 23.5q-50 34 -50 72q0 11 16 26.5t23.5 15.5t14.5 -11.5t14.5 -29.5z" />
    <glyph glyph-name="Uacute" unicode="&#xda;" horiz-adv-x="519" 
d="M416 46q17 0 47 41.5t59.5 107t36 65.5t6.5 -8q0 -28 -29 -89q-79 -168 -133 -168q-46 0 -65 15q-8 8 -8 39t5 96q-38 -65 -80.5 -107.5t-84 -42.5t-67.5 44.5t-26 120t15 189t15 168.5q0 14 -7 14q-16 0 -36.5 -23.5t-27.5 -72.5q-1 -11 -8.5 -19.5t-15.5 -8.5
q-12 0 -12 20t20 56.5t52.5 66.5t63.5 30q36 0 35.5 -57.5t-12.5 -167.5t-12 -165q0 -140 52 -140q30 0 70 48t71 112q20 256 29 317q2 9 31 31t44.5 22t15.5 -58q0 -44 -7 -76t-17.5 -75l-15.5 -64q-10 -134 -10 -234q0 -27 6 -27zM301 719q0 8 -5 15.5t-5 12.5t17.5 14
t28.5 9t21.5 -12t10.5 -34q0 -34 -43 -66q-20 -15 -46.5 -26t-39 -11t-12.5 9q0 5 14 13q58 28 59 76z" />
    <glyph glyph-name="Ucircumflex" unicode="&#xdb;" horiz-adv-x="519" 
d="M416 46q17 0 47 41.5t59.5 107t36 65.5t6.5 -8q0 -28 -29 -89q-79 -168 -133 -168q-46 0 -65 15q-8 8 -8 39t5 96q-38 -65 -80.5 -107.5t-84 -42.5t-67.5 44.5t-26 120t15 189t15 168.5q0 14 -7 14q-16 0 -36.5 -23.5t-27.5 -72.5q-1 -11 -8.5 -19.5t-15.5 -8.5
q-12 0 -12 20t20 56.5t52.5 66.5t63.5 30q36 0 35.5 -57.5t-12.5 -167.5t-12 -165q0 -140 52 -140q30 0 70 48t71 112q20 256 29 317q2 9 31 31t44.5 22t15.5 -58q0 -44 -7 -76t-17.5 -75l-15.5 -64q-10 -134 -10 -234q0 -27 6 -27zM386 623q-12 -8 -18 -8q-52 0 -87 71
q-12 -26 -43 -43t-45.5 -17t-15.5 9q0 4 8.5 8t17 9.5t19.5 16l17 16t10 16t5 13.5q5 12 5 27q1 8 18.5 18.5t25.5 10.5q12 0 15 -19.5t6.5 -32.5t15.5 -33q17 -26 42 -37q16 -7 16 -12t-12 -13z" />
    <glyph glyph-name="Udieresis" unicode="&#xdc;" horiz-adv-x="519" 
d="M416 46q16 0 46 41.5t59.5 107t36 65.5t6.5 -8q0 -28 -29 -89q-79 -168 -132 -168q-46 0 -65 15q-8 8 -8 39t5 96q-38 -65 -80.5 -107.5t-84 -42.5t-67.5 44.5t-26 120t15 189t15 168.5q0 14 -7 14q-16 0 -36.5 -23.5t-27.5 -72.5q-1 -11 -8.5 -19.5t-15.5 -8.5
q-12 0 -12 20t20 56.5t52.5 66.5t63.5 30q36 0 35.5 -57.5t-12.5 -167.5t-12 -165q0 -140 52 -140q30 0 70 48t71 112q20 256 29 317q2 9 31 31t44.5 22t15.5 -58q0 -44 -7 -76t-17.5 -75l-15.5 -64q-10 -134 -10 -234q0 -27 6 -27zM175.5 632q-13.5 9 -13.5 29t18.5 32
t34.5 12t27 -9t11 -22q0 -51 -51 -51q-13 0 -26.5 9zM319.5 632q-13.5 9 -13.5 29t19 32t35 12t26.5 -9t10.5 -22q0 -51 -50 -51q-14 0 -27.5 9z" />
    <glyph glyph-name="Yacute" unicode="&#xdd;" horiz-adv-x="519" 
d="M113 517q0 14 -7 14q-16 0 -36.5 -23.5t-27.5 -72.5q-1 -11 -8.5 -19.5t-15.5 -8.5q-12 0 -12 20t20 56.5t52.5 66.5t63.5 30q36 0 35.5 -57.5t-12.5 -167.5t-12 -165q0 -140 52 -140q38 0 88.5 71t76.5 145q20 218 31 281q2 9 31 31t44.5 22t15.5 -47q0 -55 -10 -95
l-34 -131q-12 -80 -17 -227q44 23 76 23q12 0 12 -8.5t-12 -13.5q-41 -13 -78 -37q0 -223 -30.5 -303.5t-130.5 -80.5q-110 0 -110 93q0 69 53.5 141.5t143.5 136.5q3 63 8 135q-40 -79 -89.5 -135t-94 -56t-70.5 44.5t-26 120t15 189t15 168.5zM260.5 -91.5
q-34.5 -58.5 -34.5 -103t17 -67t39 -22.5q31 0 47.5 66.5t22.5 226.5q-57 -42 -91.5 -100.5zM312 719q0 8 -5 15.5t-5 12.5t17.5 14t28.5 9t21.5 -12t10.5 -34q0 -34 -43 -66q-20 -15 -46.5 -26t-39 -11t-12.5 9q0 5 14 13q58 28 59 76z" />
    <glyph glyph-name="Thorn" unicode="&#xde;" horiz-adv-x="537" 
d="M261 635q14 0 14 -35t-10 -127q9 1 38.5 1t67 -8t73 -25t56.5 -51t21 -80q0 -74 -70 -122.5t-164 -48.5h-30q-3 -166 -69 -166q-46 0 -46 39q0 12 9 28q22 39 26 109q-40 10 -40 29q0 10 6 17t16.5 7t20.5 -3l10 233q-53 -11 -88 -37t-35 -60q0 -20 -10.5 -31.5
t-26.5 -11.5q-30 0 -30 28q0 52 54.5 90t137.5 55q2 71 20 120.5t49 49.5zM446 287q0 76 -53.5 114t-130.5 39q-5 -58 -5 -266q7 -2 21 -2q84 0 126 33t42 82z" />
    <glyph glyph-name="germandbls" unicode="&#xdf;" horiz-adv-x="404" 
d="M129.5 565.5q44.5 34.5 97.5 34.5q106 0 106 -99q0 -34 -19 -77t-50 -75q95 -40 95 -160q0 -81 -52 -137.5t-139 -56.5q-23 0 -48 10.5t-25 25.5q0 24 19 24q10 0 31 -14.5t38 -14.5q43 0 69.5 49t26.5 106q0 99 -59 132q-32 -19 -66 -19t-34 28q0 18 15 30.5t40 12.5
t52 -5q21 24 31 58t10 67t-14.5 54t-39.5 21q-72 0 -107 -148.5t-37 -389.5q-3 -173 -66 -173q-46 0 -47 39q0 12 8 26.5t13.5 27t9 29l5.5 25.5t3.5 30.5t1.5 27.5q3 33 5 105.5t15.5 156t40 149.5t71 100.5z" />
    <glyph glyph-name="agrave" unicode="&#xe0;" horiz-adv-x="383" 
d="M281 -5q-39 0 -59 16q-7 7 -7 35.5t2 76.5q-26 -65 -51.5 -96.5t-65.5 -31.5t-70 37.5t-30 118t45.5 142.5t119.5 62q32 0 72 -42q8 11 28.5 26.5t35 15.5t14.5 -38q0 -10 -5.5 -39t-12.5 -42q-9 -23 -9 -163q0 -27 6 -27q17 1 47 42.5t59.5 106.5t36 65t6.5 -8
q0 -28 -29 -89q-79 -168 -133 -168zM159 315q-28 0 -59.5 -41.5t-31.5 -97.5t16.5 -92t43.5 -36q33 0 97 165q1 8 2.5 27.5t2.5 29.5q-9 16 -31.5 30.5t-39.5 14.5zM178.5 519q7.5 -18 11.5 -24t7.5 -10.5t6.5 -7.5t8 -6.5l8 -5.5t9.5 -5.5t9 -4.5t10.5 -5l10 -5
q13 -7 13 -17q0 -15 -17.5 -15t-45.5 9.5t-49 23.5q-50 34 -50 72q0 11 16 26.5t23.5 15.5t14.5 -11.5t14.5 -29.5z" />
    <glyph glyph-name="aacute" unicode="&#xe1;" horiz-adv-x="383" 
d="M281 -5q-39 0 -59 16q-7 7 -7 35.5t2 76.5q-26 -65 -51.5 -96.5t-65.5 -31.5t-70 37.5t-30 118t45.5 142.5t119.5 62q32 0 72 -42q8 11 28.5 26.5t35 15.5t14.5 -38q0 -10 -5.5 -39t-12.5 -42q-9 -23 -9 -163q0 -27 6 -27q17 1 47 42.5t59.5 106.5t36 65t6.5 -8
q0 -28 -29 -89q-79 -168 -133 -168zM159 315q-28 0 -59.5 -41.5t-31.5 -97.5t16.5 -92t43.5 -36q33 0 97 165q1 8 2.5 27.5t2.5 29.5q-9 16 -31.5 30.5t-39.5 14.5zM204 509q0 8 -5 15.5t-5 12.5t17.5 14t28.5 9t21.5 -12t10.5 -34q0 -34 -43 -66q-20 -15 -46.5 -26t-39 -11
t-12.5 9q0 5 14 13q58 28 59 76z" />
    <glyph glyph-name="acircumflex" unicode="&#xe2;" horiz-adv-x="383" 
d="M281 -5q-39 0 -59 16q-7 7 -7 35.5t2 76.5q-26 -65 -51.5 -96.5t-65.5 -31.5t-70 37.5t-30 118t45.5 142.5t119.5 62q32 0 72 -42q8 11 28.5 26.5t35 15.5t14.5 -38q0 -10 -5.5 -39t-12.5 -42q-9 -23 -9 -163q0 -27 6 -27q17 1 47 42.5t59.5 106.5t36 65t6.5 -8
q0 -28 -29 -89q-79 -168 -133 -168zM159 315q-28 0 -59.5 -41.5t-31.5 -97.5t16.5 -92t43.5 -36q33 0 97 165q1 8 2.5 27.5t2.5 29.5q-9 16 -31.5 30.5t-39.5 14.5zM287 420q-12 -8 -18 -8q-52 0 -87 71q-12 -26 -43 -43t-45.5 -17t-15.5 9q0 4 8.5 8t17 9.5t19.5 16l17 16
t10 16t5 12.5q5 13 5 28q1 8 18.5 18.5t25.5 10.5q12 0 15 -19.5t6.5 -32.5t16.5 -33q16 -26 41 -37q16 -7 16 -12t-12 -13z" />
    <glyph glyph-name="atilde" unicode="&#xe3;" horiz-adv-x="383" 
d="M281 -5q-39 0 -59 16q-7 7 -7 35.5t2 76.5q-26 -65 -51.5 -96.5t-65.5 -31.5t-70 37.5t-30 118t45.5 142.5t119.5 62q32 0 72 -42q8 11 28.5 26.5t35 15.5t14.5 -38q0 -10 -5.5 -39t-12.5 -42q-9 -23 -9 -163q0 -27 6 -27q17 1 47 42.5t59.5 106.5t36 65t6.5 -8
q0 -28 -29 -89q-79 -168 -133 -168zM159 315q-28 0 -59.5 -41.5t-31.5 -97.5t16.5 -92t43.5 -36q33 0 97 165q1 8 2.5 27.5t2.5 29.5q-9 16 -31.5 30.5t-39.5 14.5zM204.5 519.5q50.5 -20.5 61 -20.5t21.5 16.5t17 16.5q13 0 13 -21.5t-23 -45.5t-49 -24t-62 21.5t-55 21.5
q-7 0 -13.5 -14t-14.5 -14q-17 0 -17 20t14.5 42t35.5 22t71.5 -20.5z" />
    <glyph glyph-name="adieresis" unicode="&#xe4;" horiz-adv-x="383" 
d="M281 -5q-39 0 -59 16q-7 7 -7 35.5t2 76.5q-26 -65 -51.5 -96.5t-65.5 -31.5t-70 37.5t-30 118t45.5 142.5t119.5 62q32 0 72 -42q8 11 28.5 26.5t35 15.5t14.5 -38q0 -10 -5.5 -39t-12.5 -42q-9 -23 -9 -163q0 -27 6 -27q17 1 47 42.5t59.5 106.5t36 65t6.5 -8
q0 -28 -29 -89q-79 -168 -133 -168zM159 315q-28 0 -59.5 -41.5t-31.5 -97.5t16.5 -92t43.5 -36q33 0 97 165q1 8 2.5 27.5t2.5 29.5q-9 16 -31.5 30.5t-39.5 14.5zM97.5 457q-13.5 9 -13.5 29t18.5 32t34.5 12t27 -9t11 -22q0 -51 -51 -51q-13 0 -26.5 9zM241.5 457
q-13.5 9 -13.5 29t19 32t35 12t26.5 -9t10.5 -22q0 -51 -50 -51q-14 0 -27.5 9z" />
    <glyph glyph-name="aring" unicode="&#xe5;" horiz-adv-x="383" 
d="M281 -5q-39 0 -59 16q-7 7 -7 35.5t2 76.5q-26 -65 -51.5 -96.5t-65.5 -31.5t-70 37.5t-30 118t45.5 142.5t119.5 62q32 0 72 -42q8 11 28.5 26.5t35 15.5t14.5 -38q0 -10 -5.5 -39t-12.5 -42q-9 -23 -9 -163q0 -27 6 -27q17 1 47 42.5t59.5 106.5t36 65t6.5 -8
q0 -28 -29 -89q-79 -168 -133 -168zM159 315q-28 0 -59.5 -41.5t-31.5 -97.5t16.5 -92t43.5 -36q33 0 97 165q1 8 2.5 27.5t2.5 29.5q-9 16 -31.5 30.5t-39.5 14.5zM160 531q18 21 45 21t40.5 -15.5t13.5 -40t-18.5 -43t-45 -18.5t-40 15t-13.5 37.5t18 43.5zM224 514
q-6 8 -16.5 8t-19 -9t-8.5 -21q0 -28 21 -28q12 0 20.5 9.5t8.5 21t-6 19.5z" />
    <glyph glyph-name="ae" unicode="&#xe6;" horiz-adv-x="479" 
d="M350 47q53 0 95 54q42 55 73 125q7 18 11.5 26t10 8t5.5 -8q0 -50 -61 -150q-66 -107 -164 -107q-57 0 -88 48q-69 -48 -117.5 -48t-77.5 37t-29 118t45.5 143t119.5 62q19 0 42 -15t38 -35q41 50 110 50q25 0 40.5 -14t15.5 -50.5t-37 -96t-92 -105.5q20 -42 60 -42z
M208 134q0 89 27 142q-29 39 -68 39q-28 0 -59.5 -41.5t-31.5 -98.5t15 -92t50 -35t76 25q-9 29 -9 61zM342 204q23 46 23 82.5t-20 36.5q-29 0 -48.5 -53t-19.5 -114q0 -16 3 -33q39 35 62 81z" />
    <glyph glyph-name="ccedilla" unicode="&#xe7;" horiz-adv-x="286" 
d="M179 243l8 51q0 11 -7 20t-18 9q-37 0 -64 -55.5t-27 -106.5t21 -82.5t51.5 -31.5t54.5 14t44 40q42 55 72 125q8 18 12.5 26t10 8t5.5 -8q0 -33 -32 -97.5t-74.5 -109.5t-106.5 -49q-4 -3 -4 -8t12 -13q36 -24 36 -53t-22.5 -50.5t-44.5 -21.5t-40.5 7t-18.5 18
q0 18 16 18q3 0 10 -4.5t17.5 -4.5t19.5 10t9 29t-16 35t-16 22t7 17q-47 8 -70.5 45.5t-23.5 79.5q0 114 49.5 173.5t125.5 59.5q32 0 50.5 -16.5t18.5 -37.5q0 -39 -14 -58t-34 -19q-17 0 -17 19z" />
    <glyph glyph-name="egrave" unicode="&#xe8;" horiz-adv-x="293" 
d="M122 -5q-56 0 -89 42.5t-33 96.5q0 109 46 165t119 56q34 0 56 -18.5t22 -50.5q0 -60 -50.5 -100.5t-123.5 -42.5q4 -39 26.5 -67.5t52.5 -28.5t54 14t44 40q42 55 72 125q8 18 12.5 26t10 8t5.5 -8q0 -50 -61 -150q-66 -107 -163 -107zM69 167q59 10 86.5 38t27.5 73
t-29 45q-35 0 -59 -48.5t-26 -107.5zM161.5 519q7.5 -18 11.5 -24t7.5 -10.5t6.5 -7.5t8 -6.5l8 -5.5t9.5 -5.5t9 -4.5t10.5 -5l10 -5q13 -7 13 -17q0 -15 -17.5 -15t-45.5 9.5t-49 23.5q-50 34 -50 72q0 11 16 26.5t23.5 15.5t14.5 -11.5t14.5 -29.5z" />
    <glyph glyph-name="eacute" unicode="&#xe9;" horiz-adv-x="293" 
d="M122 -5q-56 0 -89 42.5t-33 96.5q0 109 46 165t119 56q34 0 56 -18.5t22 -50.5q0 -60 -50.5 -100.5t-123.5 -42.5q4 -39 26.5 -67.5t52.5 -28.5t54 14t44 40q42 55 72 125q8 18 12.5 26t10 8t5.5 -8q0 -50 -61 -150q-66 -107 -163 -107zM69 167q59 10 86.5 38t27.5 73
t-29 45q-35 0 -59 -48.5t-26 -107.5zM178 509q0 8 -5 15.5t-5 12.5t17.5 14t28.5 9t21.5 -12t10.5 -34q0 -34 -43 -66q-20 -15 -46.5 -26t-39 -11t-12.5 9q0 5 14 13q58 28 59 76z" />
    <glyph glyph-name="ecircumflex" unicode="&#xea;" horiz-adv-x="293" 
d="M122 -5q-56 0 -89 42.5t-33 96.5q0 109 46 165t119 56q34 0 56 -18.5t22 -50.5q0 -60 -50.5 -100.5t-123.5 -42.5q4 -39 26.5 -67.5t52.5 -28.5t54 14t44 40q42 55 72 125q8 18 12.5 26t10 8t5.5 -8q0 -50 -61 -150q-66 -107 -163 -107zM69 167q59 10 86.5 38t27.5 73
t-29 45q-35 0 -59 -48.5t-26 -107.5zM275 428q-12 -8 -18 -8q-52 0 -87 71q-12 -26 -43 -43t-45.5 -17t-15.5 9q0 4 8.5 8t17 9.5t19.5 16l17 16t10 16t5 12.5q5 13 5 28q1 8 18.5 18.5t25.5 10.5q12 0 15 -19.5t6.5 -32.5t16.5 -33q16 -26 41 -37q16 -7 16 -12t-12 -13z
" />
    <glyph glyph-name="edieresis" unicode="&#xeb;" horiz-adv-x="293" 
d="M122 -5q-56 0 -89 42.5t-33 96.5q0 109 46 165t119 56q34 0 56 -18.5t22 -50.5q0 -60 -50.5 -100.5t-123.5 -42.5q4 -39 26.5 -67.5t52.5 -28.5t54 14t44 40q42 55 72 125q8 18 12.5 26t10 8t5.5 -8q0 -50 -61 -150q-66 -107 -163 -107zM69 167q59 10 86.5 38t27.5 73
t-29 45q-35 0 -59 -48.5t-26 -107.5zM66.5 457q-13.5 9 -13.5 29t18.5 32t34.5 12t27 -9t11 -22q0 -51 -51 -51q-13 0 -26.5 9zM210.5 457q-13.5 9 -13.5 29t19 32t35 12t26.5 -9t10.5 -22q0 -51 -50 -51q-14 0 -27.5 9z" />
    <glyph glyph-name="igrave" unicode="&#xec;" horiz-adv-x="175" 
d="M66 -5q-39 0 -59 16q-7 7 -7 50t6.5 143.5t11.5 108.5t31 30t40.5 22t14.5 -38q0 -9 -5.5 -38t-12.5 -43q-13 -28 -13 -173q0 -27 6 -27q17 1 47 42.5t59.5 106.5t36 65t6.5 -8q0 -28 -29 -89q-79 -168 -133 -168zM75.5 522q7.5 -18 11.5 -24t7.5 -10.5t6.5 -7.5t8 -6.5
l8 -5.5t9.5 -5.5t9 -4.5t10.5 -5l10 -5q13 -6 13 -17q0 -15 -17.5 -15t-45.5 9.5t-49 23.5q-50 34 -50 72q0 11 16 26.5t23.5 15.5t14.5 -11.5t14.5 -29.5z" />
    <glyph glyph-name="iacute" unicode="&#xed;" horiz-adv-x="175" 
d="M66 -5q-39 0 -59 16q-7 7 -7 50t6.5 143.5t11.5 108.5t31 30t40.5 22t14.5 -38q0 -9 -5.5 -38t-12.5 -43q-13 -28 -13 -173q0 -27 6 -27q17 1 47 42.5t59.5 106.5t36 65t6.5 -8q0 -28 -29 -89q-79 -168 -133 -168zM90 509q0 8 -5 15.5t-5 12.5t17.5 14t28.5 9t21.5 -12
t10.5 -34q0 -34 -43 -66q-20 -15 -46.5 -26t-39 -11t-12.5 9q0 5 14 13q58 28 59 76z" />
    <glyph glyph-name="icircumflex" unicode="&#xee;" horiz-adv-x="175" 
d="M66 -5q-39 0 -59 16q-7 7 -7 50t6.5 143.5t11.5 108.5t31 30t40.5 22t14.5 -38q0 -9 -5.5 -38t-12.5 -43q-13 -28 -13 -173q0 -27 6 -27q17 1 47 42.5t59.5 106.5t36 65t6.5 -8q0 -28 -29 -89q-79 -168 -133 -168zM177 428q-12 -8 -18 -8q-52 0 -87 71q-12 -26 -43 -43
t-45.5 -17t-15.5 9q0 4 8.5 8t17 9.5t19.5 16l17 16t10 16t5 12.5q5 13 5 28q1 8 18.5 18.5t25.5 10.5q12 0 15 -19.5t6.5 -32.5t16.5 -33q16 -26 41 -37q16 -7 16 -12t-12 -13z" />
    <glyph glyph-name="idieresis" unicode="&#xef;" horiz-adv-x="175" 
d="M66 -5q-39 0 -59 16q-7 7 -7 50t6.5 143.5t11.5 108.5t31 30t40.5 22t14.5 -38q0 -9 -5.5 -38t-12.5 -43q-13 -28 -13 -173q0 -27 6 -27q17 1 47 42.5t59.5 106.5t36 65t6.5 -8q0 -28 -29 -89q-79 -168 -133 -168zM-18.5 457q-13.5 9 -13.5 29t18.5 32t34.5 12t27 -9
t11 -22q0 -51 -51 -51q-13 0 -26.5 9zM115.5 457q-13.5 9 -13.5 29t19 32t35 12t26.5 -9t10.5 -22q0 -51 -50 -51q-14 0 -27.5 9z" />
    <glyph glyph-name="eth" unicode="&#xf0;" horiz-adv-x="358" 
d="M276 501q26 17 33 26q12 15 27 15t30.5 -5.5t15.5 -17.5q0 -34 -85 -67q26 -75 26 -155q0 -221 -116 -283q-37 -19 -85 -19t-85 42t-37 120.5t46 138t108.5 59.5t95.5 -40q-2 63 -15 121q-23 -4 -50 -4q-68 0 -68 17q0 14 33.5 14t72.5 13q-27 80 -76 80q-7 0 -22.5 -9
t-29.5 -9t-24.5 7t-10.5 22t24 24t44 9q95 0 148 -99zM160 319q-36 0 -59 -42t-23 -108q0 -134 64 -134q27 0 47.5 20t32.5 53q20 56 27 139q-28 72 -89 72z" />
    <glyph glyph-name="ntilde" unicode="&#xf1;" horiz-adv-x="371" 
d="M78 54l1 -31q0 -28 -16 -28q-24 0 -46 6.5t-22 18t5.5 79t5.5 101.5v59q0 48 10 58t35.5 29t37 19t14.5 -4t3 -15q0 -53 -20 -100q-5 -57 -5 -79q4 6 42 68t64.5 91t47.5 29t37.5 -14t16.5 -35q0 -44 -9.5 -129.5t-9.5 -108t6 -22.5q17 1 47 42.5t59.5 106.5t36 65
t6.5 -8q0 -28 -29 -89q-79 -168 -133 -168q-39 0 -59 16q-7 7 -7 36.5t5.5 96t5.5 99.5t-11.5 33t-60.5 -68.5t-52 -87.5q-6 -35 -6 -66zM189.5 534.5q50.5 -20.5 61 -20.5t21.5 16.5t17 16.5q13 0 13 -21.5t-23 -45.5t-49 -24t-62 21.5t-55 21.5q-7 0 -13.5 -14t-14.5 -14
q-17 0 -17 20t14.5 42t35.5 22t71.5 -20.5z" />
    <glyph glyph-name="ograve" unicode="&#xf2;" horiz-adv-x="364" 
d="M313 217q40 13 55.5 22.5l23.5 14.5l12 7q5 3 8 3q8 0 8 -9t-31 -31.5t-77 -40.5q-7 -84 -53 -136t-131 -52q-62 0 -95 49.5t-33 116t39.5 125.5t101.5 59q28 20 66.5 20t71.5 -41t34 -107zM248 166l-36 -2q-46 0 -78 27.5t-32 60.5t11 57q-43 -34 -43 -134
q0 -48 20 -91.5t63 -43.5t67 36.5t28 89.5zM186 332q-16 0 -25 -14.5t-9 -31.5q0 -37 25.5 -60t59.5 -23h12q-2 49 -16.5 89t-46.5 40zM179.5 519q7.5 -18 11.5 -24t7.5 -10.5t6.5 -7.5t8 -6.5l8 -5.5t9.5 -5.5t9 -4.5t10.5 -5l10 -5q13 -7 13 -17q0 -15 -17.5 -15
t-45.5 9.5t-49 23.5q-50 34 -50 72q0 11 16 26.5t23.5 15.5t14.5 -11.5t14.5 -29.5z" />
    <glyph glyph-name="oacute" unicode="&#xf3;" horiz-adv-x="364" 
d="M313 217q40 13 55.5 22.5l23.5 14.5l12 7q5 3 8 3q8 0 8 -9t-31 -31.5t-77 -40.5q-7 -84 -53 -136t-131 -52q-62 0 -95 49.5t-33 116t39.5 125.5t101.5 59q28 20 66.5 20t71.5 -41t34 -107zM248 166l-36 -2q-46 0 -78 27.5t-32 60.5t11 57q-43 -34 -43 -134
q0 -48 20 -91.5t63 -43.5t67 36.5t28 89.5zM186 332q-16 0 -25 -14.5t-9 -31.5q0 -37 25.5 -60t59.5 -23h12q-2 49 -16.5 89t-46.5 40zM200 509q0 8 -5 15.5t-5 12.5t17.5 14t28.5 9t21.5 -12t10.5 -34q0 -34 -43 -66q-20 -15 -46.5 -26t-39 -11t-12.5 9q0 5 14 13
q58 28 59 76z" />
    <glyph glyph-name="ocircumflex" unicode="&#xf4;" horiz-adv-x="364" 
d="M313 217q40 13 55.5 22.5l23.5 14.5l12 7q5 3 8 3q8 0 8 -9t-31 -31.5t-77 -40.5q-7 -84 -53 -136t-131 -52q-62 0 -95 49.5t-33 116t39.5 125.5t101.5 59q28 20 66.5 20t71.5 -41t34 -107zM248 166l-36 -2q-46 0 -78 27.5t-32 60.5t11 57q-43 -34 -43 -134
q0 -48 20 -91.5t63 -43.5t67 36.5t28 89.5zM186 332q-16 0 -25 -14.5t-9 -31.5q0 -37 25.5 -60t59.5 -23h12q-2 49 -16.5 89t-46.5 40zM290 428q-12 -8 -18 -8q-52 0 -87 71q-12 -26 -43 -43t-45.5 -17t-15.5 9q0 4 8.5 8t17 9.5t19.5 16l17 16t10 16t5 12.5q5 13 5 28
q1 8 18.5 18.5t25.5 10.5q12 0 15 -19.5t6.5 -32.5t15.5 -33q17 -26 42 -37q16 -7 16 -12t-12 -13z" />
    <glyph glyph-name="otilde" unicode="&#xf5;" horiz-adv-x="364" 
d="M313 217q40 13 55.5 22.5l23.5 14.5l12 7q5 3 8 3q8 0 8 -9t-31 -31.5t-77 -40.5q-7 -84 -53 -136t-131 -52q-62 0 -95 49.5t-33 116t39.5 125.5t101.5 59q28 20 66.5 20t71.5 -41t34 -107zM248 166l-36 -2q-46 0 -78 27.5t-32 60.5t11 57q-43 -34 -43 -134
q0 -48 20 -91.5t63 -43.5t67 36.5t28 89.5zM186 332q-16 0 -25 -14.5t-9 -31.5q0 -37 25.5 -60t59.5 -23h12q-2 49 -16.5 89t-46.5 40zM185.5 529.5q50.5 -20.5 61 -20.5t21.5 16.5t17 16.5q13 0 13 -21.5t-23 -45.5t-49 -24t-62 21.5t-55 21.5q-7 0 -13.5 -14t-14.5 -14
q-17 0 -17 20t14.5 42t35.5 22t71.5 -20.5z" />
    <glyph glyph-name="odieresis" unicode="&#xf6;" horiz-adv-x="364" 
d="M313 217q40 13 55.5 22.5l23.5 14.5l12 7q5 3 8 3q8 0 8 -9t-31 -31.5t-77 -40.5q-7 -84 -53 -136t-131 -52q-62 0 -95 49.5t-33 116t39.5 125.5t101.5 59q28 20 66.5 20t71.5 -41t34 -107zM248 166l-36 -2q-46 0 -78 27.5t-32 60.5t11 57q-43 -34 -43 -134
q0 -48 20 -91.5t63 -43.5t67 36.5t28 89.5zM186 332q-16 0 -25 -14.5t-9 -31.5q0 -37 25.5 -60t59.5 -23h12q-2 49 -16.5 89t-46.5 40zM87.5 457q-13.5 9 -13.5 29t18.5 32t34.5 12t27 -9t11 -22q0 -51 -51 -51q-13 0 -26.5 9zM231.5 457q-13.5 9 -13.5 29t19 32t35 12
t26.5 -9t10.5 -22q0 -51 -50 -51q-14 0 -27.5 9z" />
    <glyph glyph-name="divide" unicode="&#xf7;" horiz-adv-x="384" 
d="M145 96.5q-14 9.5 -14 31.5t20 34.5t37 12.5t28.5 -9.5t11.5 -23.5q0 -55 -54 -55q-15 0 -29 9.5zM160 317.5q-14 9.5 -14 31.5t20 34.5t37 12.5t28.5 -9.5t11.5 -23.5q0 -55 -54 -55q-15 0 -29 9.5zM121.5 268q36.5 -3 103.5 -3t93 11t35 11t9 -14.5t-14 -37.5t-28 -23
q-60 0 -109 4.5t-81 4.5t-56 -3t-25 -3q-21 0 -21 20q0 13 10 27.5t20 14.5q1 0 14 -3t49.5 -6z" />
    <glyph glyph-name="oslash" unicode="&#xf8;" horiz-adv-x="364" 
d="M81 3q-38 17 -59.5 57.5t-21.5 83.5t10 78.5t30 68.5t55.5 53.5t81.5 20.5l13 -1q14 57 41 57q7 0 7 -9.5t-11 -51.5q38 -7 65 -45t27 -83q0 -93 -47 -160t-129 -75q-23 -59 -56 -59q-24 0 -24 23q0 15 18 42zM112 48q24 61 73 282q-6 2 -16 2q-44 0 -71 -54t-27 -100
t11 -82t30 -48zM224 92.5q27 54.5 27 100.5q0 109 -37 128q-43 -196 -65 -284q48 1 75 55.5z" />
    <glyph glyph-name="ugrave" unicode="&#xf9;" horiz-adv-x="365" 
d="M0 87l6 112q0 107 10 117t35.5 29.5t37 19.5t14.5 -4t3 -16q0 -43 -19 -87q-15 -92 -15 -151t19 -59q23 0 54 40t62 119q9 100 14.5 108t27.5 29t36.5 21t14.5 -38q0 -10 -5.5 -39t-12.5 -42q-11 -28 -11 -173q0 -27 6 -27q17 1 47 42.5t59.5 106.5t36 65t6.5 -8
q0 -28 -29 -89q-79 -168 -133 -168q-39 0 -59 16q-7 7 -7 43t3 80q-32 -68 -64 -103.5t-71.5 -35.5t-52.5 21t-13 71zM172.5 520q7.5 -18 11.5 -24t7.5 -10.5t6.5 -7.5t8 -6.5l8 -5.5t9.5 -5.5t9 -4.5t10.5 -5l10 -5q13 -6 13 -17q0 -15 -17.5 -15t-45.5 9.5t-49 23.5
q-50 34 -50 72q0 11 16 26.5t23.5 15.5t14.5 -11.5t14.5 -29.5z" />
    <glyph glyph-name="uacute" unicode="&#xfa;" horiz-adv-x="365" 
d="M0 87l6 112q0 107 10 117t35.5 29.5t37 19.5t14.5 -4t3 -16q0 -43 -19 -87q-15 -92 -15 -151t19 -59q23 0 54 40t62 119q9 100 14.5 108t27.5 29t36.5 21t14.5 -38q0 -10 -5.5 -39t-12.5 -42q-11 -28 -11 -173q0 -27 6 -27q17 1 47 42.5t59.5 106.5t36 65t6.5 -8
q0 -28 -29 -89q-79 -168 -133 -168q-39 0 -59 16q-7 7 -7 43t3 80q-32 -68 -64 -103.5t-71.5 -35.5t-52.5 21t-13 71zM190 509q0 8 -5 15.5t-5 12.5t17.5 14t28.5 9t21.5 -12t10.5 -34q0 -34 -43 -66q-20 -15 -46.5 -26t-39 -11t-12.5 9q0 5 14 13q58 28 59 76z" />
    <glyph glyph-name="ucircumflex" unicode="&#xfb;" horiz-adv-x="365" 
d="M0 87l6 112q0 107 10 117t35.5 29.5t37 19.5t14.5 -4t3 -16q0 -43 -19 -87q-15 -92 -15 -151t19 -59q23 0 54 40t62 119q9 100 14.5 108t27.5 29t36.5 21t14.5 -38q0 -10 -5.5 -39t-12.5 -42q-11 -28 -11 -173q0 -27 6 -27q17 1 47 42.5t59.5 106.5t36 65t6.5 -8
q0 -28 -29 -89q-79 -168 -133 -168q-39 0 -59 16q-7 7 -7 43t3 80q-32 -68 -64 -103.5t-71.5 -35.5t-52.5 21t-13 71zM286 428q-12 -8 -18 -8q-52 0 -87 71q-12 -26 -43 -43t-45.5 -17t-15.5 9q0 4 8.5 8t17 9.5t19.5 16l17 16t10 16t5 12.5q5 13 5 28q1 8 18.5 18.5
t25.5 10.5q12 0 15 -19.5t6.5 -32.5t15.5 -33q17 -26 42 -37q16 -7 16 -12t-12 -13z" />
    <glyph glyph-name="udieresis" unicode="&#xfc;" horiz-adv-x="365" 
d="M0 87l6 112q0 107 10 117t35.5 29.5t37 19.5t14.5 -4t3 -16q0 -43 -19 -87q-15 -92 -15 -151t19 -59q23 0 54 40t62 119q9 100 14.5 108t27.5 29t36.5 21t14.5 -38q0 -10 -5.5 -39t-12.5 -42q-11 -28 -11 -173q0 -27 6 -27q17 1 47 42.5t59.5 106.5t36 65t6.5 -8
q0 -28 -29 -89q-79 -168 -133 -168q-39 0 -59 16q-7 7 -7 43t3 80q-32 -68 -64 -103.5t-71.5 -35.5t-52.5 21t-13 71zM73.5 457q-13.5 9 -13.5 29t18.5 32t34.5 12t27 -9t11 -22q0 -51 -51 -51q-13 0 -26.5 9zM217.5 457q-13.5 9 -13.5 29t19 32t35 12t26.5 -9t10.5 -22
q0 -51 -50 -51q-14 0 -27.5 9z" />
    <glyph glyph-name="yacute" unicode="&#xfd;" horiz-adv-x="350" 
d="M0 87l6 112q0 107 10 117t35.5 29.5t37 19.5t14.5 -4t3 -16q0 -43 -19 -87q-15 -92 -15 -151t14 -59q24 0 55.5 42.5t64.5 125.5q1 22 2 46.5t2 36t1.5 16.5t27.5 27.5t41.5 22.5t14.5 -38q0 -10 -5.5 -39t-12.5 -42q-8 -71 -11 -124q98 124 104.5 131t11.5 7
q10 0 10 -10q0 -6 -4 -13q-32 -47 -126 -165q-6 -119 -8 -162q-5 -127 -35.5 -178.5t-108.5 -51.5q-34 0 -63.5 20.5t-29.5 71t38.5 103.5t140.5 163l6 109q-34 -75 -67 -113.5t-73 -38.5t-51 20t-11 72zM193 -9q-114 -123 -114 -197q0 -34 12 -56t33 -22q32 0 45 35t19 142
zM191 509q0 8 -5 15.5t-5 12.5t17.5 14t28.5 9t21.5 -12t10.5 -34q0 -34 -43 -66q-20 -15 -46.5 -26t-39 -11t-12.5 9q0 5 14 13q58 28 59 76z" />
    <glyph glyph-name="thorn" unicode="&#xfe;" horiz-adv-x="352" 
d="M31 266.5q6 197.5 10.5 236t25 68t36.5 29.5t27 -4.5t11 -12t-12 -23.5t-20.5 -47t-19.5 -328q31 85 60 127.5t71.5 42.5t73.5 -37.5t31 -118t-45.5 -142.5t-119.5 -62q-35 0 -75 27q-4 -209 -23 -288q-2 -9 -26 -31t-38 -22q-19 0 -19 70t42 243q4 75 10 272.5zM166 31
q29 0 60 40.5t31 100t-16.5 95t-44.5 35.5q-48 0 -110 -200v-44q28 -27 80 -27z" />
    <glyph glyph-name="ydieresis" unicode="&#xff;" horiz-adv-x="350" 
d="M0 87l6 112q0 107 10 117t35.5 29.5t37 19.5t14.5 -4t3 -16q0 -43 -19 -87q-15 -92 -15 -151t14 -59q24 0 55.5 42.5t64.5 125.5q1 22 2 46.5t2 36t1.5 16.5t27.5 27.5t41.5 22.5t14.5 -38q0 -10 -5.5 -39t-12.5 -42q-8 -71 -11 -124q98 124 104.5 131t11.5 7
q10 0 10 -10q0 -6 -4 -13q-32 -47 -126 -165q-6 -119 -8 -162q-5 -127 -35.5 -178.5t-108.5 -51.5q-34 0 -63.5 20.5t-29.5 71t38.5 103.5t140.5 163l6 109q-34 -75 -67 -113.5t-73 -38.5t-51 20t-11 72zM193 -9q-114 -123 -114 -197q0 -34 12 -56t33 -22q32 0 45 35t19 142
zM71.5 457q-13.5 9 -13.5 29t18.5 32t34.5 12t27 -9t11 -22q0 -51 -51 -51q-13 0 -26.5 9zM215.5 457q-13.5 9 -13.5 29t19 32t35 12t26.5 -9t10.5 -22q0 -51 -50 -51q-14 0 -27.5 9z" />
    <glyph glyph-name="Aogonek" unicode="&#x104;" 
d="M159 232q117 0 149 1q-1 16 -2 56t-2 69.5l-2 61.5q-4 69 -12 69q-11 0 -59 -93t-72 -164zM418 15q-48 -46 -48 -104q0 -17 8.5 -26.5t21 -9.5t26 13.5t15.5 13.5q7 0 7 -17t-24 -37.5t-48 -20.5t-41 15t-17 41q0 55 47 113q-37 5 -47 14.5t-10 190.5l-164 -12
q-19 -52 -34 -104t-20 -64q-11 -26 -53 -26q-28 0 -28 24t38 70q7 9 46 97q-14 -1 -27 -1q-35 0 -35 30q0 27 28 27q2 0 57 -5q45 107 114 225t98 118q20 0 30.5 -83t20.5 -260q16 0 16 -10t-15 -17q6 -164 17 -164q18 0 48 41.5t59.5 107t36 65.5t6.5 -8q0 -28 -29 -89
q-47 -101 -100 -148z" />
    <glyph glyph-name="aogonek" unicode="&#x105;" horiz-adv-x="383" 
d="M165.5 26.5q-25.5 -31.5 -65.5 -31.5t-70 37.5t-30 118t45.5 142.5t119.5 62q32 0 72 -42q8 11 28.5 26.5t35 15.5t14.5 -38q0 -10 -5.5 -39t-12.5 -42q-9 -23 -9 -163q0 -27 6 -27q17 1 47 42.5t59.5 106.5t36 65t6.5 -8q0 -28 -35 -102.5t-84 -133.5t-49 -105
q0 -17 8.5 -26.5t21 -9.5t26 13.5t15.5 13.5q7 0 7 -17t-24 -37.5t-48 -20.5t-41 15t-17 41q0 52 46 113q-35 3 -44.5 12.5t-9.5 58.5q0 8 2 56q-26 -65 -51.5 -96.5zM159 315q-28 0 -59.5 -41.5t-31.5 -97.5t16.5 -92t43.5 -36q33 0 97 165q1 8 2.5 27.5t2.5 29.5
q-9 16 -31.5 30.5t-39.5 14.5z" />
    <glyph glyph-name="Cacute" unicode="&#x106;" horiz-adv-x="412" 
d="M237 45q90 0 173 120q7 10 20 35q32 57 38.5 57t6.5 -8q0 -49 -51 -124q-92 -135 -245 -135q-43 0 -79 20t-57 51q-43 63 -43 132q0 174 90.5 280.5t214.5 106.5q47 0 77 -27.5t30 -69.5t-21 -78t-50.5 -36t-29.5 16q0 18 19.5 41t19.5 46q0 71 -75.5 71t-136.5 -101
t-61 -208q0 -74 42 -131.5t118 -57.5zM307 719q0 8 -5 15.5t-5 12.5t17.5 14t28.5 9t21.5 -12t10.5 -34q0 -34 -43 -66q-20 -15 -46.5 -26t-39 -11t-12.5 9q0 5 14 13q58 28 59 76z" />
    <glyph glyph-name="cacute" unicode="&#x107;" horiz-adv-x="286" 
d="M179 243l8 51q0 11 -7 20t-18 9q-37 0 -64 -55.5t-27 -106.5t21 -82.5t51.5 -31.5t54.5 14t44 40q42 55 72 125q8 18 12.5 26t10 8t5.5 -8q0 -33 -23 -79t-38.5 -70.5t-39.5 -51.5q-50 -56 -125 -56q-57 0 -86.5 40.5t-29.5 86.5q0 114 49.5 173.5t125.5 59.5
q32 0 50.5 -16.5t18.5 -37.5q0 -39 -14 -58t-34 -19q-17 0 -17 19zM196 509q0 8 -5 15.5t-5 12.5t17.5 14t28.5 9t21.5 -12t10.5 -34q0 -34 -43 -66q-20 -15 -46.5 -26t-39 -11t-12.5 9q0 5 14 13q58 28 59 76z" />
    <glyph glyph-name="Eogonek" unicode="&#x118;" horiz-adv-x="442" 
d="M271 335.5q-16 8.5 -37 8.5t-41 -10q34 -31 75 -31q9 0 14 4.5t5 7.5q0 12 -16 20.5zM334 482l2 27q0 22 -16.5 41.5t-44.5 19.5q-48 0 -87 -43t-39 -91.5t25 -81.5q43 19 80 19t59.5 -12.5t22.5 -38t-23.5 -39t-54.5 -13.5q-51 0 -103 35q-24 -25 -38.5 -59t-14.5 -63
q0 -59 38 -108t101 -49q132 0 215 174q28 57 35.5 57t7.5 -8q0 -40 -51 -124q-36 -58 -93 -97q-56 -53 -56 -117q0 -17 8.5 -26.5t21 -9.5t26 13.5t15.5 13.5q7 0 7 -17t-24 -37.5t-48 -20.5t-41 15t-17 41q0 54 48 115q-39 -13 -87 -13q-90 0 -138 49t-48 122
q0 48 28.5 92.5t73.5 76.5q-47 39 -47 94q0 76 59 128.5t143 52.5q55 0 92.5 -28.5t37.5 -67.5q0 -22 -13 -36t-33 -14q-29 0 -29 28z" />
    <glyph glyph-name="eogonek" unicode="&#x119;" horiz-adv-x="293" 
d="M346 252q0 -33 -36.5 -105.5t-93 -121.5t-56.5 -114q0 -15 9 -25.5t21 -10.5t25.5 13.5t15.5 13.5q7 0 7 -17t-24 -37.5t-48 -20.5t-41 15t-17 41q0 56 49 116q-15 -4 -35 -4q-56 0 -89 42.5t-33 96.5q0 109 46 165t119 56q34 0 56 -18.5t22 -50.5q0 -60 -50.5 -100.5
t-123.5 -42.5q4 -39 26.5 -67.5t52.5 -28.5t54 14t44 40q42 55 72 125q8 18 12.5 26t10 8t5.5 -8zM102 176q81 25 81 106q-4 41 -29 41q-35 0 -59 -48.5t-26 -107.5q4 0 33 9z" />
    <glyph glyph-name="hbar" unicode="&#x127;" horiz-adv-x="0" 
 />
    <glyph glyph-name="Itilde" unicode="&#x128;" horiz-adv-x="429" 
d="M371 502l4 -186q0 -336 -230 -336q-45 0 -81.5 21t-36.5 65q0 27 14 44.5t37.5 17.5t23.5 -11q0 -5 -6 -19.5t-6 -29t17 -31t51 -16.5t59 14t40 41.5t24.5 56.5t13.5 73q6 65 6 147.5t2 136.5q-128 -22 -128 -110q0 -25 -10.5 -39t-26.5 -14q-30 0 -30 34q0 61 53.5 102
t145.5 61q7 41 34 66.5t49 25.5t35.5 -12.5t13.5 -33.5q0 -49 -68 -68zM398 582q-22 0 -26 -45q36 11 36 29q0 16 -10 16zM303.5 724.5q50.5 -20.5 61 -20.5t21.5 16.5t17 16.5q13 0 13 -21.5t-23 -45.5t-49 -24t-62 21.5t-55 21.5q-7 0 -13.5 -14t-14.5 -14q-17 0 -17 20
t14.5 42t35.5 22t71.5 -20.5z" />
    <glyph glyph-name="itilde" unicode="&#x129;" horiz-adv-x="175" 
d="M66 -5q-39 0 -59 16q-7 7 -7 50t6.5 143.5t11.5 108.5t31 30t40.5 22t14.5 -38q0 -9 -5.5 -38t-12.5 -43q-13 -28 -13 -173q0 -27 6 -27q17 1 47 42.5t59.5 106.5t36 65t6.5 -8q0 -28 -29 -89q-79 -168 -133 -168zM91.5 534.5q50.5 -20.5 61 -20.5t21.5 16.5t17 16.5
q13 0 13 -21.5t-23 -45.5t-49 -24t-62 21.5t-55 21.5q-7 0 -13.5 -14t-14.5 -14q-17 0 -17 20t14.5 42t35.5 22t71.5 -20.5z" />
    <glyph glyph-name="dotlessi" unicode="&#x131;" horiz-adv-x="175" 
d="M66 -5q-39 0 -59 16q-7 7 -7 50t6.5 143.5t11.5 108.5t31 30t40.5 22t14.5 -38q0 -9 -5.5 -38t-12.5 -43q-13 -28 -13 -173q0 -27 6 -27q17 1 47 42.5t59.5 106.5t36 65t6.5 -8q0 -28 -29 -89q-79 -168 -133 -168z" />
    <glyph glyph-name="IJ" unicode="&#x132;" horiz-adv-x="609" 
d="M164 173q0 29 15 161t16 156q-128 -22 -128 -110q0 -25 -10.5 -39t-26.5 -14q-30 0 -30 34q0 61 53.5 102t145.5 61q7 41 34 66.5t49 25.5t35.5 -12.5t13.5 -33.5q0 -50 -73 -70q-25 -207 -25 -286t18 -121.5t44 -42.5q38 0 88.5 71t76.5 145q20 218 31 281q2 9 31 31
t44.5 22t15.5 -47q0 -55 -10 -95l-34 -131q-12 -80 -17 -227q44 23 76 23q12 0 12 -8.5t-12 -13.5q-41 -13 -78 -37q0 -223 -30.5 -303.5t-130.5 -80.5q-110 0 -110 93q0 69 53.5 141.5t143.5 136.5q3 63 8 135q-40 -79 -89.5 -135t-94.5 -56t-75 45.5t-30 132.5z
M350.5 -91.5q-34.5 -58.5 -34.5 -103t17 -67t39 -22.5q31 0 47.5 66.5t22.5 226.5q-57 -42 -91.5 -100.5zM290 582q-22 0 -26 -45q36 11 36 29q0 16 -10 16z" />
    <glyph glyph-name="ij" unicode="&#x133;" horiz-adv-x="331" 
d="M37 489q0 18 19 31t34 13q27 0 27 -31t-16 -53.5t-45 -22.5q-19 0 -19 63zM204 489q0 18 19 31t34 13q27 0 27 -31t-16 -53.5t-45 -22.5q-19 0 -19 63zM181 186q7 121 8 127.5t28 29t41.5 22.5t14.5 -43t-18 -76q-9 -76 -11 -124q98 124 104.5 131t11.5 7q10 0 10 -10
q0 -6 -4 -13q-32 -47 -126 -165q-6 -119 -8 -162q-5 -127 -35.5 -178.5t-108.5 -51.5q-34 0 -63.5 20.5t-29.5 64t20.5 83.5t43 66t62 67t53.5 57q1 14 2 41t2 40q-65 -124 -112 -124q-39 0 -59 16q-7 7 -7 50t6.5 143.5t11.5 108.5t31 30t40.5 22t14.5 -38q0 -10 -5.5 -39
t-12.5 -42q-13 -33 -13 -173q0 -27 6 -27q16 1 44 38.5t58 101.5zM170 -9q-114 -123 -114 -197q0 -34 12 -56t33 -22q32 0 45 35t19 142z" />
    <glyph glyph-name="Jcircumflex" unicode="&#x134;" horiz-adv-x="415" 
d="M78 361q0 61 53 102t144 61q6 42 34 67t50.5 25t36 -12.5t13.5 -33.5q0 -49 -69 -68q-15 -280 -15 -287q30 17 70.5 32.5t57.5 15.5t17 -7q0 -13 -12 -17q-65 -21 -134 -63q-8 -212 -10 -254q-7 -118 -52 -180t-125 -62q-63 0 -100 51.5t-37 113.5q0 88 62 166.5
t189 161.5l21 316q-127 -22 -127 -109q0 -25 -10.5 -39t-26.5 -14q-30 0 -30 34zM151 -284q68 0 80 151q6 76 10.5 151l6.5 107q-41 -29 -66 -49.5t-54 -51.5q-55 -62 -55 -150q0 -85 29 -130q19 -28 49 -28zM368 582q-22 0 -26 -45q36 11 36 29q0 16 -10 16zM421 608
q-12 -8 -18 -8q-52 0 -87 71q-12 -26 -43 -43t-45.5 -17t-15.5 9q0 4 8.5 8t17 9.5t19.5 16l17 16t10 16t5 12.5q5 13 5 28q1 8 18.5 18.5t25.5 10.5q12 0 15 -19.5t6.5 -32.5t16.5 -33q16 -26 41 -37q16 -7 16 -12t-12 -13z" />
    <glyph glyph-name="jcircumflex" unicode="&#x135;" horiz-adv-x="168" 
d="M16 38q13 262 14.5 272t28.5 32.5t41.5 22.5t14.5 -43t-18 -76q-9 -76 -11 -124q98 124 104.5 131t11.5 7q10 0 10 -10q0 -6 -4 -13q-32 -47 -126 -165q-6 -119 -8 -162q-5 -127 -35.5 -178.5t-108.5 -51.5q-34 0 -63.5 20.5t-29.5 64t20.5 83.5t43 66t62 67t53.5 57z
M13 -9q-114 -123 -114 -197q0 -34 12 -56t33 -22q32 0 45 35t19 142zM192 428q-12 -8 -18 -8q-52 0 -87 71q-12 -26 -43 -43t-45.5 -17t-15.5 9q0 4 8.5 8t17 9.5t19.5 16l17 16t10 16t5 12.5q5 13 5 28q1 8 18.5 18.5t25.5 10.5q12 0 15 -19.5t6.5 -32.5t15.5 -33
q17 -26 42 -37q16 -7 16 -12t-12 -13z" />
    <glyph glyph-name="kcommaaccent" unicode="&#x137;" horiz-adv-x="343" 
d="M322 -35l27 3q8 0 8 -8q0 -14 -19 -21t-43 -7q-45 0 -75.5 36t-84.5 133q-13 21 -13 32q0 15 42 35q68 35 68 88q0 15 -10.5 25.5t-27.5 10.5q-24 0 -57 -56.5t-44.5 -106t-11.5 -106.5q0 -28 -16 -28q-23 0 -44 6.5t-21 17t8 95t9 121.5q4 204 24 312q3 9 27.5 31
t39.5 22t14.5 -37.5t-16.5 -160.5t-20 -225q18 64 57.5 121t79.5 57q68 0 68 -66q0 -44 -26 -79.5t-70 -57.5q-9 -4 -9 -9t3 -10q63 -111 107 -156q12 -12 26 -12zM100 -91.5q19 17.5 34 17.5t27 -18.5t12 -43.5t-36.5 -76.5t-61.5 -51.5q-8 0 -8 11t20 37t20 40.5t-13 29.5
t-13 26t19 28.5z" />
    <glyph glyph-name="kgreenlandic" unicode="&#x138;" horiz-adv-x="343" 
d="M322 -35l27 3q8 0 8 -8q0 -14 -19 -21t-43 -7q-45 0 -75.5 36t-84.5 133q-13 21 -13 32q0 15 42 35q68 35 68 88q0 15 -10.5 25.5t-27.5 10.5q-24 0 -57 -56.5t-44.5 -106t-11.5 -106.5q0 -28 -16 -28q-24 0 -46 6.5t-22 18t5.5 79t5.5 101.5v59q0 48 10 58t35.5 29
t37 19t14.5 -4t3 -15q0 -53 -20 -100q-5 -57 -5 -79q18 65 59.5 126.5t80.5 61.5q68 0 68 -66q0 -44 -26 -79.5t-70 -57.5q-9 -4 -9 -9t3 -10q63 -111 107 -156q12 -12 26 -12z" />
    <glyph glyph-name="Ldotaccent" unicode="&#x13f;" horiz-adv-x="388" 
d="M266.5 521.5q51.5 58.5 135.5 58.5t84 -58q0 -39 -18.5 -71.5t-49.5 -54.5q-61 -41 -143 -59q-20 -172 -59 -246q58 -29 112 -67t84.5 -55.5t64 -17.5t61.5 20.5t33 20.5q15 0 15 -15q0 -46 -34.5 -77t-100.5 -31q-38 0 -75.5 20t-63.5 46q-81 79 -130 105
q-38 -40 -102 -40q-26 0 -46 19t-20 49q0 59 73 59q30 0 60 -11l11 -4q18 57 39 214q-11 -1 -29.5 -1t-18.5 6q0 19 52 24q14 108 65.5 166.5zM383.5 413.5q41.5 33.5 41.5 87.5t-37 54q-81 0 -110 -189q64 14 105.5 47.5zM134 61q-58 25 -71.5 25t-13.5 -14t12.5 -24
t32.5 -10t40 23zM381 202.5q-14 9.5 -14 31.5t20 34.5t37 12.5t28.5 -9.5t11.5 -23.5q0 -55 -54 -55q-15 0 -29 9.5z" />
    <glyph glyph-name="ldot" unicode="&#x140;" horiz-adv-x="263" 
d="M73 -5q-22 0 -40.5 5.5t-22.5 10.5q-10 12 -10 124.5t25 305.5q21 159 98 159q18 0 26 -19.5t8 -37.5q0 -130 -79 -291q-3 -83 -3 -144.5t11 -61.5q16 1 45.5 40.5t60.5 106.5h-8q-15 0 -29 9.5t-14 31.5t20 34.5t37 12.5t29 -10.5t12 -29.5t-15 -34q-7 -20 -18 -44
q-79 -168 -133 -168zM132 534q0 32 -8 32q-30 0 -44 -249q52 137 52 217z" />
    <glyph glyph-name="Lslash" unicode="&#x141;" horiz-adv-x="482" 
d="M167 209l-38 -7q-16 0 -16 15t17 25t34.5 10t21.5 -1l11 75q-11 -1 -29.5 -1t-18.5 6q0 19 52 24q14 108 65.5 166.5t139.5 58.5q42 0 61 -19.5t19 -46.5q0 -131 -211 -177q-7 -52 -15 -102q42 -10 63 -10t33.5 6.5t13.5 6.5q10 0 10 -16.5t-24 -31t-52 -14.5t-55 10
q-13 -58 -33 -95q92 -31 124 -39.5t67.5 -8.5t48.5 29t19 29q12 0 12 -15q0 -47 -35 -80t-76 -33q-42 0 -76 14t-43 18l-36.5 17l-38.5 18q-38 -40 -102 -40q-26 0 -46 19t-20 45q0 57 65 57q28 0 78 -13q12 43 22 100zM383.5 413.5q41.5 33.5 41.5 87.5t-37 54
q-81 0 -110 -189q64 14 105.5 47.5zM134 61q-58 25 -71.5 25t-13.5 -14t12.5 -24t32.5 -10t40 23z" />
    <glyph glyph-name="lslash" unicode="&#x142;" horiz-adv-x="195" 
d="M99 492q13 0 13 -42.5t-10.5 -165.5t-10.5 -198q0 -40 12 -40q18 1 48 42t59.5 106.5t36 65.5t6.5 -8q0 -28 -29 -89q-79 -168 -133.5 -168t-64 13t-9.5 94q0 148 32 337q3 19 19 36t31 17zM88 524.5q-48 12.5 -78 12.5t-55.5 -15.5t-25.5 -42t22 -26.5q32 0 32 -25
q0 -11 -8 -19t-28 -8t-36.5 20.5t-16.5 45.5q0 49 43.5 90.5t104.5 41.5q24 0 79.5 -8.5t82.5 -8.5t43 5.5t21 11.5l9.5 11.5t10.5 5.5q15 0 15 -23q0 -36 -40 -58.5t-83.5 -22.5t-91.5 12.5z" />
    <glyph glyph-name="Nacute" unicode="&#x143;" horiz-adv-x="497" 
d="M179.5 171q-28.5 -96 -62.5 -141t-82 -45q-35 0 -35 27q0 22 15 31t35.5 13.5t26.5 10.5q37 39 68.5 139.5t45.5 204.5q-43 45 -43 73t16 64.5t38 36.5q13 0 23 -32t10 -80q52 -66 81 -114q31 102 85 171.5t124 69.5q25 0 40 -18t15 -40t-8.5 -39.5t-22.5 -17.5t-14 14
t-8.5 21.5t-21.5 7.5q-41 0 -77 -43q-51 -61 -85 -174q66 -142 66 -230q0 -36 -16 -63.5t-47 -27.5q-66 0 -66 112q0 79 12 150q-30 64 -68 117q-16 -102 -44.5 -198zM316 186q-5 -36 -5 -74t5 -59t11 -21q12 0 12 41t-23 113zM341 699q0 8 -5 15.5t-5 12.5t17.5 14t28.5 9
t21.5 -12t10.5 -34q0 -34 -43 -66q-20 -15 -46.5 -26t-39 -11t-12.5 9q0 5 14 13q58 28 59 76z" />
    <glyph glyph-name="nacute" unicode="&#x144;" horiz-adv-x="371" 
d="M78 54l1 -31q0 -28 -16 -28q-24 0 -46 6.5t-22 18t5.5 79t5.5 101.5v59q0 48 10 58t35.5 29t37 19t14.5 -4t3 -15q0 -53 -20 -100q-5 -57 -5 -79q4 6 42 68t64.5 91t47.5 29t37.5 -14t16.5 -35q0 -44 -9.5 -129.5t-9.5 -108t6 -22.5q17 1 47 42.5t59.5 106.5t36 65
t6.5 -8q0 -28 -29 -89q-79 -168 -133 -168q-39 0 -59 16q-7 7 -7 36.5t5.5 96t5.5 99.5t-11.5 33t-60.5 -68.5t-52 -87.5q-6 -35 -6 -66zM201 513q0 8 -5 15.5t-5 12.5t17.5 14t28.5 9t21.5 -12t10.5 -34q0 -34 -43 -66q-20 -15 -46.5 -26t-39 -11t-12.5 9q0 5 14 13
q58 28 59 76z" />
    <glyph glyph-name="OE" unicode="&#x152;" horiz-adv-x="896" 
d="M688 26q133 0 216 174q28 57 35.5 57t7.5 -8q0 -40 -49.5 -121t-107 -112t-136 -31t-125 37.5t-57.5 96.5q-83 -129 -241 -129q-100 0 -155 64.5t-55 168.5q0 67 26 130t74 105q0 62 42.5 102t128 40t148 -47.5t84.5 -128.5q2 93 70.5 150t152.5 57q69 0 69 -62
q0 -49 -57.5 -99.5t-149.5 -81.5q4 -17 14 -33q44 18 79.5 18t58 -12.5t22.5 -37t-27 -38t-52 -13.5q-58 0 -104 32q-51 -58 -51 -119t38 -110t101 -49zM456 287q0 30 -2 47q-87 -23 -149 -23t-106.5 23.5t-64.5 68.5q-43 -57 -43 -144t50.5 -152.5t123.5 -65.5
q96 0 143.5 70t47.5 176zM246 386q45 -23 99.5 -23t104.5 10q-28 189 -171 189q-43 0 -73 -19.5t-31 -49.5q49 23 99.5 23t50.5 -15q0 -9 -7 -14t-14 -5q-67 0 -120 -34q17 -39 62 -62zM603 421q80 30 120 66t40 74t-30 38q-56 0 -93 -52t-37 -126zM718 335.5
q-16 8.5 -36 8.5t-42 -10q31 -31 75 -31q9 0 14 4.5t5 7.5q0 12 -16 20.5zM540 358l-6 -2q0 -38 -3 -65q17 18 39 34q-20 17 -30 33z" />
    <glyph glyph-name="oe" unicode="&#x153;" horiz-adv-x="515" 
d="M331.5 71q21.5 -24 50.5 -24t53 14t44 40q42 55 73 125q7 18 11.5 26t10 8t5.5 -8q0 -50 -61 -150q-66 -107 -164 -107q-74 0 -108 72q-52 -72 -143 -72q-60 0 -93 45t-33 114t40.5 130t104.5 61q26 20 59 20t58.5 -17.5t38.5 -48.5q44 56 119 56q34 0 56 -18.5t22 -50.5
q0 -53 -51.5 -97t-120.5 -59q7 -35 28.5 -59zM82 259q0 27 11 49q-24 -20 -34.5 -61t-10.5 -86.5t23 -83t55 -37.5q64 0 88 76q-60 0 -96 35.5t-36 107.5zM222 150q5 25 5 62t-16 78.5t-44 41.5q-16 0 -25.5 -14.5t-9.5 -31.5q0 -47 23 -87.5t67 -48.5zM301 159
q47 16 80.5 46t33.5 74t-29 44q-36 0 -60 -51.5t-25 -112.5z" />
    <glyph glyph-name="Racute" unicode="&#x154;" horiz-adv-x="584" 
d="M551 -43l33 8q16 0 16 -16q-1 -26 -26.5 -46.5t-57.5 -20.5t-51 31q-27 45 -51 161q-11 56 -26 92q-27 -9 -57 -9t-52.5 12.5t-22.5 30.5q2 46 74 46q35 0 75 -31q62 47 62 131q0 50 -19 88.5t-50 60.5q-61 43 -136 43q-2 -22 -7 -70q-10 -100 -12 -155l-3 -158
q0 -182 -72 -182q-46 0 -46 39q0 10 13.5 34t19.5 55.5t13 185t19 241.5q-53 -15 -86.5 -46t-33.5 -73q0 -24 -11 -38.5t-27 -14.5q-29 0 -29 31q0 70 56.5 115.5t139.5 65.5q20 67 56 67q14 0 14 -32q0 -7 -2 -25q11 2 42 2t70 -9t78.5 -30.5t63.5 -65t24 -101.5t-30 -108
t-78 -80q34 -42 53.5 -103t36.5 -93.5t27 -32.5zM311 198q14 -6 29.5 -6t28.5 5q-20 23 -46 23t-26 -8t14 -14zM380 719q0 8 -5 15.5t-5 12.5t17.5 14t28.5 9t21.5 -12t10.5 -34q0 -34 -43 -66q-20 -15 -46.5 -26t-39 -11t-12.5 9q0 5 14 13q58 28 59 76z" />
    <glyph glyph-name="racute" unicode="&#x155;" horiz-adv-x="255" 
d="M87 261l55 6q8 0 14 -9t6 -19t-6.5 -68t-6.5 -91.5t6 -33.5q17 1 47 42.5t59.5 106.5t36 65t6.5 -8q0 -28 -29 -89q-79 -168 -133 -168q-39 0 -59 16q-7 7 -7 87t17 137q-58 0 -81 37q-12 19 -12 43t10 42t28.5 18t34 -19.5t15.5 -43.5t-14 -48q4 -3 13 -3zM155 509
q0 8 -5 15.5t-5 12.5t17.5 14t28.5 9t21.5 -12t10.5 -34q0 -34 -43 -66q-20 -15 -46.5 -26t-39 -11t-12.5 9q0 5 14 13q58 28 59 76z" />
    <glyph glyph-name="Rcommaaccent" unicode="&#x156;" horiz-adv-x="584" 
d="M551 -43l33 8q16 0 16 -16q-1 -26 -26.5 -46.5t-57.5 -20.5t-51 31q-27 45 -51 161q-11 56 -26 92q-27 -9 -57 -9t-52.5 12.5t-22.5 30.5q2 46 74 46q35 0 75 -31q62 47 62 131q0 50 -19 88.5t-50 60.5q-61 43 -136 43q-2 -22 -7 -70q-10 -100 -12 -155l-3 -158
q0 -182 -72 -182q-46 0 -46 39q0 10 13.5 34t19.5 55.5t13 185t19 241.5q-53 -15 -86.5 -46t-33.5 -73q0 -24 -11 -38.5t-27 -14.5q-29 0 -29 31q0 70 56.5 115.5t139.5 65.5q20 67 56 67q14 0 14 -32q0 -7 -2 -25q11 2 42 2t70 -9t78.5 -30.5t63.5 -65t24 -101.5t-30 -108
t-78 -80q34 -42 53.5 -103t36.5 -93.5t27 -32.5zM311 198q14 -6 29.5 -6t28.5 5q-20 23 -46 23t-26 -8t14 -14zM266 -91.5q19 17.5 34 17.5t27 -18.5t12 -43.5t-36.5 -76.5t-61.5 -51.5q-8 0 -8 11t20 37t20 40.5t-13 29.5t-13 26t19 28.5z" />
    <glyph glyph-name="rcommaaccent" unicode="&#x157;" horiz-adv-x="255" 
d="M87 261l55 6q8 0 14 -9t6 -19t-6.5 -68t-6.5 -91.5t6 -33.5q17 1 47 42.5t59.5 106.5t36 65t6.5 -8q0 -28 -29 -89q-79 -168 -133 -168q-39 0 -59 16q-7 7 -7 87t17 137q-58 0 -81 37q-12 19 -12 43t10 42t28.5 18t34 -19.5t15.5 -43.5t-14 -48q4 -3 13 -3zM81 -91.5
q19 17.5 34 17.5t27 -18.5t12 -43.5t-36.5 -76.5t-61.5 -51.5q-8 0 -8 11t20 37t20 40.5t-13 29.5t-13 26t19 28.5z" />
    <glyph glyph-name="Rcaron" unicode="&#x158;" horiz-adv-x="584" 
d="M551 -43l33 8q16 0 16 -16q-1 -26 -26.5 -46.5t-57.5 -20.5t-51 31q-27 45 -51 161q-11 56 -26 92q-27 -9 -57 -9t-52.5 12.5t-22.5 30.5q2 46 74 46q35 0 75 -31q62 47 62 131q0 50 -19 88.5t-50 60.5q-61 43 -136 43q-2 -22 -7 -70q-10 -100 -12 -155l-3 -158
q0 -182 -72 -182q-46 0 -46 39q0 10 13.5 34t19.5 55.5t13 185t19 241.5q-53 -15 -86.5 -46t-33.5 -73q0 -24 -11 -38.5t-27 -14.5q-29 0 -29 31q0 70 56.5 115.5t139.5 65.5q20 67 56 67q14 0 14 -32q0 -7 -2 -25q11 2 42 2t70 -9t78.5 -30.5t63.5 -65t24 -101.5t-30 -108
t-78 -80q34 -42 53.5 -103t36.5 -93.5t27 -32.5zM311 198q14 -6 29.5 -6t28.5 5q-20 23 -46 23t-26 -8t14 -14zM241 753q0 6 8.5 11.5t14.5 5.5q19 0 47.5 -28t40.5 -63q7 31 41.5 58t49 27t14.5 -9q0 -3 -18 -16.5t-21 -16.5q-28 -28 -38 -73q-2 -8 -19 -18.5t-25 -10.5
q-12 0 -14 16q-6 32 -28 65t-53 52z" />
    <glyph glyph-name="rcaron" unicode="&#x159;" horiz-adv-x="255" 
d="M87 261l55 6q8 0 14 -9t6 -19t-6.5 -68t-6.5 -91.5t6 -33.5q17 1 47 42.5t59.5 106.5t36 65t6.5 -8q0 -28 -29 -89q-79 -168 -133 -168q-39 0 -59 16q-7 7 -7 87t17 137q-58 0 -81 37q-12 19 -12 43t10 42t28.5 18t34 -19.5t15.5 -43.5t-14 -48q4 -3 13 -3zM45 553
q0 6 8.5 11.5t14.5 5.5q19 0 47.5 -28t40.5 -63q7 31 41.5 58t49 27t14.5 -9q0 -3 -18 -16.5t-21 -16.5q-28 -28 -38 -73q-2 -8 -19 -18.5t-25 -10.5q-12 0 -14 16q-6 32 -28 65t-53 52z" />
    <glyph glyph-name="Sacute" unicode="&#x15a;" horiz-adv-x="479" 
d="M333 459l5 26q-4 54 -73 54q-40 0 -69.5 -28.5t-29.5 -60t26.5 -55t64 -42t75 -40t64 -55.5t26.5 -77q0 -89 -70 -140t-151 -51t-135 29.5t-54 89.5q0 32 22 58t63 26q16 0 29 -9t16 -24q0 -15 -18 -15q-34 0 -34 -29q1 -33 31.5 -60t86 -27t95 38t39.5 92q0 36 -27 65
t-65 49.5l-76.5 41.5t-65.5 51t-27 68q0 67 57.5 107t130.5 40q49 0 89 -20t41 -61q0 -24 -12 -40t-32.5 -16t-21.5 15zM287 719q0 8 -5 15.5t-5 12.5t17.5 14t28.5 9t21.5 -12t10.5 -34q0 -34 -43 -66q-20 -15 -46.5 -26t-39 -11t-12.5 9q0 5 14 13q58 28 59 76z" />
    <glyph glyph-name="sacute" unicode="&#x15b;" horiz-adv-x="210" 
d="M148 306l2 15q0 18 -20.5 18t-39.5 -26.5t-19 -43.5t2 -27t4.5 -16.5t8.5 -15.5t9 -13l11 -14q7 -10 10 -13q52 43 124 96q4 3 9 3q10 0 10 -11t-9 -17q-64 -41 -121 -89q22 -32 22 -70t-29 -65t-74 -27t-45 43q0 31 66 95q-5 6 -18 19.5t-19.5 21.5t-15.5 21
q-16 25 -16 54q0 59 38 95.5t81 36.5q27 0 42 -14.5t15 -29.5q0 -34 -16 -34q-12 0 -12 8zM84 109q-40 -40 -40 -64.5t25 -24.5q15 0 25 12q22 30 -10 77zM143 509q0 8 -5 15.5t-5 12.5t17.5 14t28.5 9t21.5 -12t10.5 -34q0 -34 -43 -66q-20 -15 -46.5 -26t-39 -11t-12.5 9
q0 5 14 13q58 28 59 76z" />
    <glyph glyph-name="Ydieresis" unicode="&#x178;" horiz-adv-x="519" 
d="M113 517q0 14 -7 14q-16 0 -36.5 -23.5t-27.5 -72.5q-1 -11 -8.5 -19.5t-15.5 -8.5q-12 0 -12 20t20 56.5t52.5 66.5t63.5 30q36 0 35.5 -57.5t-12.5 -167.5t-12 -165q0 -140 52 -140q38 0 88.5 71t76.5 145q20 218 31 281q2 9 31 31t44.5 22t15.5 -47q0 -55 -10 -95
l-34 -131q-12 -80 -17 -227q44 23 76 23q12 0 12 -8.5t-12 -13.5q-41 -13 -78 -37q0 -223 -30.5 -303.5t-130.5 -80.5q-110 0 -110 93q0 69 53.5 141.5t143.5 136.5q3 63 8 135q-40 -79 -89.5 -135t-94 -56t-70.5 44.5t-26 120t15 189t15 168.5zM260.5 -91.5
q-34.5 -58.5 -34.5 -103t17 -67t39 -22.5q31 0 47.5 66.5t22.5 226.5q-57 -42 -91.5 -100.5zM194.5 662q-13.5 9 -13.5 29t18.5 32t34.5 12t27 -9t11 -22q0 -51 -51 -51q-13 0 -26.5 9zM338.5 662q-13.5 9 -13.5 29t19 32t35 12t26.5 -9t10.5 -22q0 -51 -50 -51
q-14 0 -27.5 9z" />
    <glyph glyph-name="Zacute" unicode="&#x179;" 
d="M460 507q0 14 -16 14t-41 -23q17 -9 27 -9q30 0 30 18zM343 719q0 8 -5 15.5t-5 12.5t17.5 14t28.5 9t21.5 -12t10.5 -34q0 -34 -43 -66q-20 -15 -46.5 -26t-39 -11t-12.5 9q0 5 14 13q58 28 59 76zM350 -25q-16 0 -97.5 43t-122.5 43q-31 -61 -58 -61q-43 0 -43 38
q0 17 20.5 44.5t47.5 39.5q124 212 241 345q-128 73 -195 73q-25 0 -25 -43q0 -12 6 -34.5t6 -26.5q0 -12 -11.5 -12t-24 34.5t-12.5 71.5t15 63.5t39.5 26.5t50.5 -6t45 -13t44.5 -21.5l37.5 -21.5l66 -46q52 50 82 50q20 0 35.5 -13t15.5 -42.5t-23 -50.5t-54.5 -21
t-72.5 19q-108 -130 -208 -329q48 -7 138.5 -36t101.5 -29q57 0 123 143q26 57 38 57q6 0 6 -12.5t-34 -89t-56.5 -113.5t-47.5 -53.5t-74 -16.5z" />
    <glyph glyph-name="zacute" unicode="&#x17a;" horiz-adv-x="324" 
d="M169 224q-121 0 -153 38q-16 19 -16 43t14.5 36.5t31 12.5t27.5 -13.5t11 -25.5q0 -18 40 -25.5t78 -7.5q39 55 55 62q6 2 13 2q16 0 16 -32t-14 -49t-49 -32q-59 -54 -116 -125q26 -6 79 -23.5t61 -17.5q41 0 101 133q27 60 33.5 60t6.5 -15t-29 -82q-77 -173 -146 -173
q-7 0 -64 25t-86 25q-25 -37 -48 -37q-15 0 -15 27.5t22.5 55t48.5 27.5zM203 498q0 8 -5 15.5t-5 12.5t17.5 14t28.5 9t21.5 -11.5t10.5 -34.5q0 -34 -43 -66q-20 -15 -46.5 -26t-39 -11t-12.5 9q0 5 14 13q58 28 59 76z" />
    <glyph glyph-name="Zdotaccent" unicode="&#x17b;" 
d="M460 507q0 14 -16 14t-41 -23q17 -9 27 -9q30 0 30 18zM293.5 632q-13.5 9 -13.5 29t18.5 32t34.5 12t27 -9t11 -22q0 -51 -51 -51q-13 0 -26.5 9zM352 -25q-16 0 -98.5 43t-123.5 43q-31 -61 -58 -61q-43 0 -43 38q0 17 20.5 44.5t47.5 39.5q124 212 241 345
q-128 73 -195 73q-25 0 -25 -43q0 -12 6 -34.5t6 -26.5q0 -12 -11.5 -12t-24 34.5t-12.5 71.5t15 63.5t39.5 26.5t50.5 -6t45 -13t44.5 -21.5l37.5 -21.5l66 -46q52 50 82 50q20 0 35.5 -13t15.5 -42.5t-23 -50.5t-54.5 -21t-72.5 19q-108 -130 -208 -329q47 -7 138 -36
t104 -29q57 0 123 143q26 57 38 57q6 0 6 -12.5t-34 -89t-56.5 -113.5t-47.5 -53.5t-74 -16.5z" />
    <glyph glyph-name="zdotaccent" unicode="&#x17c;" horiz-adv-x="340" 
d="M169 224q-121 0 -153 38q-16 19 -16 43t14.5 36.5t31 12.5t27.5 -13.5t11 -25.5q0 -18 40 -25.5t78 -7.5q39 55 55 62q6 2 13 2q16 0 16 -32t-14 -49t-49 -32q-59 -54 -116 -125q26 -6 79 -23.5t61 -17.5q41 0 101 133q27 60 33.5 60t6.5 -15t-29 -82q-77 -173 -146 -173
q-7 0 -64 25t-86 25q-25 -37 -48 -37q-15 0 -15 27.5t22.5 55t48.5 27.5zM142.5 417q-13.5 9 -13.5 29t18.5 32t34.5 12t27 -9t11 -22q0 -51 -51 -51q-13 0 -26.5 9z" />
    <glyph glyph-name="circumflex" unicode="&#x2c6;" horiz-adv-x="342" 
d="M269 428q-12 -8 -18 -8q-52 0 -87 71q-12 -26 -43 -43t-45.5 -17t-15.5 9q0 4 8.5 8t17 9.5t19.5 16l17 16t10 16t5 12.5q5 13 5 28q1 8 18.5 18.5t25.5 10.5q12 0 15 -19.5t6.5 -32.5t16.5 -33q16 -26 41 -37q16 -7 16 -12t-12 -13z" />
    <glyph glyph-name="caron" unicode="&#x2c7;" horiz-adv-x="342" 
d="M60 553q0 6 8.5 11.5t14.5 5.5q19 0 47.5 -28t40.5 -63q7 31 41.5 58t49 27t14.5 -9q0 -3 -18 -16.5t-21 -16.5q-28 -28 -38 -73q-2 -8 -19 -18.5t-25 -10.5q-12 0 -14 16q-6 32 -28 65t-53 52z" />
    <glyph glyph-name="ring" unicode="&#x2da;" horiz-adv-x="409" 
d="M165 531q18 21 45 21t40.5 -15.5t13.5 -40t-20 -43t-47 -18.5t-38.5 14.5t-11.5 37.5t18 44zM229 514q-6 8 -16.5 8t-19 -9t-8.5 -21q0 -28 21 -28q12 0 20.5 9.5t8.5 21t-6 19.5z" />
    <glyph glyph-name="ogonek" unicode="&#x2db;" horiz-adv-x="439" 
d="M239 41l25 -14q-59 -61 -59 -116q0 -17 8.5 -26.5t21 -9.5t26 13.5t15.5 13.5q7 0 7 -17t-24 -37.5t-48 -20.5t-41 15t-17 43t16 60.5t29 48.5t41 47z" />
    <glyph glyph-name="tilde" unicode="&#x2dc;" horiz-adv-x="328" 
d="M163.5 539.5q50.5 -20.5 61 -20.5t21.5 16.5t17 16.5q13 0 13 -21.5t-23 -45.5t-49 -24t-62 21.5t-55 21.5q-7 0 -13.5 -14t-14.5 -14q-17 0 -17 20t14.5 42t35.5 22t71.5 -20.5z" />
    <glyph glyph-name="endash" unicode="&#x2013;" horiz-adv-x="372" 
d="M79 207l-73 -4q-21 1 -20.5 21.5t20.5 28.5q14 7 134.5 7t143 9t32.5 9t10 -11q-3 -69 -85 -69q-12 0 -71.5 4.5t-90.5 4.5z" />
    <glyph glyph-name="emdash" unicode="&#x2014;" horiz-adv-x="595" 
d="M105 210l-73 -4q-21 1 -20.5 21.5t20.5 28.5q14 7 221 7t229.5 9t32.5 9t10 -11q-3 -69 -85 -69z" />
    <glyph glyph-name="quoteleft" unicode="&#x2018;" horiz-adv-x="199" 
d="M119 407.5q-19 -17.5 -34 -17.5t-27 18.5t-12 43.5t36.5 76.5t61.5 51.5q8 0 8 -11t-20 -37t-20 -40.5t13 -29.5t13 -26t-19 -28.5z" />
    <glyph glyph-name="quoteright" unicode="&#x2019;" horiz-adv-x="140" 
d="M67 562.5q19 17.5 34 17.5t27 -18.5t12 -43.5t-36.5 -76.5t-61.5 -51.5q-8 0 -8 11t20 37t20 40.5t-13 29.5t-13 26t19 28.5z" />
    <glyph glyph-name="quotesinglbase" unicode="&#x201a;" horiz-adv-x="129" 
d="M32 58.5q19 17.5 34 17.5t27 -18.5t12 -43.5t-36.5 -76.5t-61.5 -51.5q-8 0 -8 11t20 37t20 40.5t-13 29.5t-13 26t19 28.5z" />
    <glyph glyph-name="quotedblleft" unicode="&#x201c;" horiz-adv-x="305" 
d="M119 407.5q-19 -17.5 -34 -17.5t-27 18.5t-12 43.5t36.5 76.5t61.5 51.5q8 0 8 -11t-20 -37t-20 -40.5t13 -29.5t13 -26t-19 -28.5zM229 407.5q-19 -17.5 -34 -17.5t-27 18.5t-12 43.5t36.5 76.5t61.5 51.5q8 0 8 -11t-20 -37t-20 -40.5t13 -29.5t13 -26t-19 -28.5z" />
    <glyph glyph-name="quotedblright" unicode="&#x201d;" horiz-adv-x="281" 
d="M178 562.5q19 17.5 34 17.5t27 -18.5t12 -43.5t-36.5 -76.5t-61.5 -51.5q-8 0 -8 11t20 37t20 40.5t-13 29.5t-13 26t19 28.5zM68 562.5q19 17.5 34 17.5t27 -18.5t12 -43.5t-36.5 -76.5t-61.5 -51.5q-8 0 -8 11t20 37t20 40.5t-13 29.5t-13 26t19 28.5z" />
    <glyph glyph-name="quotedblbase" unicode="&#x201e;" horiz-adv-x="255" 
d="M72 58.5q19 17.5 34 17.5t27 -18.5t12 -43.5t-36.5 -76.5t-61.5 -51.5q-8 0 -8 11t20 37t20 40.5t-13 29.5t-13 26t19 28.5zM182 58.5q19 17.5 34 17.5t27 -18.5t12 -43.5t-36.5 -76.5t-61.5 -51.5q-8 0 -8 11t20 37t20 40.5t-13 29.5t-13 26t19 28.5z" />
    <glyph glyph-name="dagger" unicode="&#x2020;" horiz-adv-x="367" 
d="M199 399q80 0 106 11t35 11t9 -14.5t-14 -37.5t-28 -23q-61 0 -109 4q-3 -72 -11 -212t-10 -183q-6 -122 -32 -122q-21 0 -21 91q0 22 27 430q-12 1 -39 1t-51 -3t-25 -3q-21 0 -21 20q0 13 10 27.5t16 14.5t15 -3q30 -7 98 -9l9 159q2 43 23 43q17 0 17 -31
q0 -55 -4 -171z" />
    <glyph glyph-name="bullet" unicode="&#x2022;" horiz-adv-x="215" 
d="M37.5 164.5q-21.5 14.5 -21.5 48.5t28 52t56.5 18t45.5 -14t17 -35q0 -41 -22 -62.5t-52 -21.5t-51.5 14.5z" />
    <glyph glyph-name="ellipsis" unicode="&#x2026;" horiz-adv-x="443" 
d="M31 -8.5q-14 9.5 -14 31.5t20 34.5t37 12.5t28.5 -9.5t11.5 -23.5q0 -55 -54 -55q-15 0 -29 9.5zM178 -8.5q-14 9.5 -14 31.5t20 34.5t37 12.5t28.5 -9.5t11.5 -23.5q0 -55 -54 -55q-15 0 -29 9.5zM325 -8.5q-14 9.5 -14 31.5t20 34.5t37 12.5t28.5 -9.5t11.5 -23.5
q0 -55 -54 -55q-15 0 -29 9.5z" />
    <glyph glyph-name="guilsinglleft" unicode="&#x2039;" horiz-adv-x="314" 
d="M225.5 336.5q4.5 5.5 9 5.5t9 -8t4.5 -18q0 -26 -29.5 -52t-110.5 -77q54 -29 88.5 -68t34.5 -55.5t-9.5 -32t-16 -15.5t-29 27.5l-52.5 62.5q-36 40 -59 48q-4 2 -5 3t-4.5 3t-4.5 3q-6 6 -6.5 8t-1.5 4.5t-1 9.5t6.5 14.5t14.5 7.5t53.5 31t65.5 50.5t29.5 31z" />
    <glyph glyph-name="guilsinglright" unicode="&#x203a;" horiz-adv-x="300" 
d="M82.5 15.5q-4.5 -5.5 -9 -5.5t-9 8t-4.5 18q0 26 29.5 52t110.5 77q-54 29 -88.5 68t-34.5 55.5t9.5 32t16 15.5t29 -27.5l52.5 -62.5q36 -40 59 -48q4 -2 5 -3t4.5 -3t4.5 -3q6 -6 6.5 -8t1.5 -4.5t1 -9.5t-6.5 -14.5t-14.5 -7.5t-53.5 -31t-65.5 -50.5t-29.5 -31z" />
    <glyph glyph-name="fraction" unicode="&#x2044;" horiz-adv-x="274" 
d="M-22 7q0 24 38 92.5t70 115.5q100 149 170 313q14 32 39 32q8 0 8 -10t-22 -63t-97 -198.5t-110.5 -225t-69.5 -79.5q-8 0 -17 6t-9 17z" />
    <glyph glyph-name="Euro" unicode="&#x20ac;" horiz-adv-x="457" 
d="M73 337l37 -6q24 83 79 136t142 53q37 0 78 -18.5t41 -45.5q0 -10 -6.5 -16.5t-19.5 -6.5t-27.5 14.5t-22.5 20.5q-20 16 -50 16q-54 0 -92.5 -45t-56.5 -112q13 -1 73 -1t86 8t31 8q11 0 11 -13t-10 -30t-25 -17q-61 0 -105.5 3.5t-68.5 3.5q-4 -24 -4 -48t1 -34
q75 -6 94.5 -6t52.5 3q7 2 19.5 6t17.5 4q9 0 9 -10q0 -52 -38.5 -52t-85.5 6.5t-63 7.5q14 -60 49.5 -94t79 -34t67.5 10q39 18 46 18t12 -5.5t5 -11.5q0 -26 -51 -43.5t-103 -17.5q-79 0 -124.5 48.5t-56.5 124.5q-50 0 -58 11q-3 5 -3 13q0 23 59 26q0 30 7 76
q-32 -4 -33 -4q-22 0 -22 18q0 11 9 23.5t20 12.5z" />
    <glyph glyph-name="trademark" unicode="&#x2122;" horiz-adv-x="460" 
d="M362 596q6 0 14 -8t8 -16q0 -27 -24 -52q-6 -36 -6 -101t8 -65t22.5 18.5t21 31t9.5 12.5q6 0 6 -9t-24 -41.5t-37 -32.5q-32 0 -37.5 5.5t-5.5 51t4 93.5q-19 -17 -39 -45q9 -32 9 -59q0 -46 -35 -46q-24 0 -24 28.5t20 62.5q-6 21 -20 45q-20 -87 -49 -122
q-14 -17 -34 -17t-20 12t15.5 15.5t17.5 5.5q16 16 31 55t21 79q-17 22 -17 33t8 19t22 8q9 0 11 -32q21 -27 37 -67q28 39 49 58q12 80 38 80zM76 558l26 8q10 0 10 -10q0 -15 -29 -15t-44 16.5t-15 38t10 36t24 14.5q34 0 89 -21q5 15 17 15q9 0 10 -24q31 -9 59 -9t34 4
t9.5 4t3.5 -7q0 -10 -19 -18t-43 -8t-45 3l-7 -86q-9 -108 -82 -108q-18 0 -32.5 8.5t-14.5 23t6 22.5t16.5 8t10.5 -6l-4 -18q0 -22 25 -22q46 0 50 147l1 36q-62 15 -78 15t-16 -12q0 -15 9.5 -25t18.5 -10zM258 402q-10 -17 -10 -34.5t5 -17.5q7 0 7 18t-2 34z" />
    <glyph glyph-name="minus" unicode="&#x2212;" horiz-adv-x="417" 
d="M124 207l-73 -4q-21 1 -20.5 21.5t20.5 28.5q14 7 134.5 7t143 9t32.5 9t10 -11q-3 -69 -85 -69z" />
    <glyph glyph-name="notequal" unicode="&#x2260;" horiz-adv-x="453" 
d="M336 138q-32 0 -125 14q-18 -40 -28.5 -60.5t-28 -37.5t-28.5 -17t-17 7.5t-6 15.5q0 24 52 96q-9 0 -25 -3.5t-37 -3.5q-38 0 -38 27q0 29 71 29q18 0 60 -5q20 33 41 90q-27 3 -59.5 3t-56.5 -3t-25 -3q-21 0 -21 20q0 13 9 26.5t19 13.5q1 0 13 -3q36 -9 136 -9
q22 69 34 90t21.5 21t9.5 -8.5t-30 -102.5q56 2 79 12t32 10t9 -14.5t-13 -36.5t-27 -22q-62 0 -95 3q-26 -74 -34 -94q22 -2 36 -2q57 0 92 21l10 6.5t8.5 2.5t4.5 -16t-12 -41.5t-31 -25.5z" />
    <glyph glyph-name="lessequal" unicode="&#x2264;" horiz-adv-x="457" 
d="M395 454q21 0 21 -17q0 -25 -49 -51q-21 -12 -98 -40.5t-129 -52.5q85 -24 170.5 -64.5t85.5 -58.5q0 -33 -19 -33q-15 0 -126 50t-159 63.5t-48 32.5q0 10 9 17t29 7t237 105q23 11 48.5 26.5t27.5 15.5zM154.5 170.5q32.5 -15.5 87 -39t83 -24t35 -2.5t6.5 -13
t-21.5 -27.5t-37.5 -16.5t-50.5 16.5t-76.5 39.5q-61 36 -104 48l-24 7q-13 6 -13 16q0 31 32 31q13 0 32 -10t51.5 -25.5z" />
    <glyph glyph-name="greaterequal" unicode="&#x2265;" horiz-adv-x="461" 
d="M64 124q-21 0 -21 17q0 25 49 51q21 12 98 40.5t129 52.5q-83 18 -169.5 61t-86.5 62q0 37 21 37q13 0 120.5 -55t147 -64t52.5 -14t13 -14t-10.5 -18t-31.5 -10t-235 -104q-23 -11 -48.5 -26.5t-27.5 -15.5zM211.5 135.5q25.5 10.5 44 19t44.5 24.5q63 38 76 38
t15.5 -3.5t2.5 -14t-5 -19.5t-11 -15.5t-21 -15t-25 -13.5l-59.5 -27.5t-69 -34.5l-40.5 -22q-30 -16 -42 -16q-20 0 -20 24t21 37q7 4 21.5 10l28.5 12z" />
    <glyph glyph-name="CR" horiz-adv-x="199" 
 />
    <glyph glyph-name="r.2" horiz-adv-x="236" 
d="M69 264l55 6q8 0 14 -9t6 -19t-9.5 -69.5t-9.5 -93t6 -33.5q17 0 47 41.5t59.5 107t36 65.5t6.5 -8q0 -28 -29 -89q-79 -168 -133 -168q-39 0 -59 16q-7 7 -7 57t26 170q-24 0 -30 3q-39 -103 -49.5 -103t-10.5 13q0 4 17 41.5t21 55.5q-19 8 -31.5 27t-12.5 41.5
t9.5 40.5t28 18t34.5 -21t16 -38t-12 -48q4 -4 11 -4z" />
    <glyph glyph-name="z.2" horiz-adv-x="337" 
d="M249.5 67q10.5 0 29 25.5t29.5 51.5q12 26 22 26q7 0 7 -10t-11.5 -41t-19 -48t-20.5 -39q-27 -42 -73 -42q-7 0 -64 25t-86 25q-25 -37 -48 -37q-15 0 -15 27.5t22.5 55t48.5 27.5l98 111q-121 0 -153 38q-16 19 -16 43t14.5 36.5t31 12.5t27.5 -13.5t11 -25.5
q0 -18 40 -25.5t78 -7.5q39 55 55 62q6 2 13 2q16 0 16 -32t-14 -49t-49 -32q-59 -54 -116 -125q26 -6 79 -23.5t63.5 -17.5z" />
    <glyph glyph-name="ampersand.2" horiz-adv-x="707" 
d="M323 341q10 0 17 4.5t7 10.5q0 11 -16.5 18t-38.5 7t-44 -11q34 -29 75 -29zM393 517l2 29q0 25 -16.5 46t-44.5 21q-53 0 -90 -46t-37 -109q0 -36 19 -65q42 17 82.5 17t63 -12.5t22.5 -38t-26.5 -44t-57.5 -18.5q-65 0 -108 31q-52 -57 -52 -131t43.5 -134t135.5 -60
t139 45t47 119q0 26 -13 46t-37 20q-71 0 -71 -66q0 -11 5 -20.5t5 -13.5q0 -17 -17 -17q-14 0 -26.5 19t-12.5 41q0 52 29.5 80.5t98.5 38t94.5 20t25.5 32t-17 26.5t-17 14q0 18 25 18q76 0 76 -70q0 -32 -26 -56.5t-80 -28.5q16 -19 16 -73q0 -97 -80 -158.5
t-193.5 -61.5t-176 55t-62.5 154q0 51 29 104t75 87q-30 38 -30 92q0 93 59.5 144.5t143.5 51.5q55 0 92.5 -31t37.5 -73q0 -24 -13 -39t-33 -15q-29 0 -29 30z" />
    <glyph glyph-name="_0000" horiz-adv-x="0" 
 />
  </font>
</defs>
</svg>
