<?xml version="1.0" standalone="no"?>
<!DOCTYPE svg PUBLIC "-//W3C//DTD SVG 1.1//EN" "http://www.w3.org/Graphics/SVG/1.1/DTD/svg11.dtd" >
<svg xmlns="http://www.w3.org/2000/svg">
<metadata></metadata>
<defs>
<font id="latin_modern_roman9_regular" horiz-adv-x="1052" >
<font-face units-per-em="2048" ascent="1651" descent="-397" />
<missing-glyph horiz-adv-x="702" />
<glyph unicode="&#xfb01;" horiz-adv-x="1169" d="M57 819v64h162v231q0 79 41.5 143.5t107.5 104t144.5 61t157.5 21.5q121 0 198.5 -60t77.5 -149q0 -42 -28 -69t-70 -27q-38 0 -67 26.5t-29 69.5q0 12 3.5 25t12 29t28.5 27.5t48 14.5q-65 62 -176 62q-48 0 -98.5 -15.5t-99.5 -46.5t-80.5 -89.5t-31.5 -133.5v-225h250 q33 0 37 2t37 4l266 18v-749q0 -68 25.5 -81.5t132.5 -13.5v-63q-150 6 -232 6q-85 0 -229 -6v63q107 0 132.5 13.5t25.5 81.5v551q0 66 -20 88t-89 22h-329v-661q0 -68 25.5 -81.5t131.5 -13.5v-63q-150 6 -231 6q-86 0 -230 -6v63q107 0 132.5 13.5t25.5 81.5v661h-162z " />
<glyph unicode="&#xfb02;" horiz-adv-x="1169" d="M57 819v64h162v231q0 100 65.5 176.5t168 115t221.5 38.5q106 0 174 -27q21 -8 24 -8l76 12v-1263q0 -68 25.5 -81.5t132.5 -13.5v-63q-150 6 -232 6q-85 0 -229 -6v63q107 0 132.5 13.5t25.5 81.5v661h-438v-661q0 -68 25.5 -81.5t131.5 -13.5v-63q-150 6 -231 6 q-86 0 -230 -6v63q107 0 132.5 13.5t25.5 81.5v661h-162zM358 883h445v334q-47 26 -47 79q0 25 13 47.5t34 32.5q-64 17 -131 17q-44 0 -87.5 -10t-84.5 -32.5t-72.5 -55t-50.5 -81t-19 -106.5v-225z" />
<glyph unicode="&#xfb04;" horiz-adv-x="1753" d="M57 819v64h162v231q0 77 40 141.5t105 104.5t144 62t160 22q185 0 252 -105q134 105 337 105q107 0 175 -27q21 -8 24 -8l76 12v-1263q0 -68 25.5 -81.5t132.5 -13.5v-63q-150 6 -232 6q-85 0 -229 -6v63q106 0 131.5 13.5t25.5 81.5v661h-438v-661q0 -68 25.5 -81.5 t132.5 -13.5v-63q-150 6 -232 6q-85 0 -229 -6v63q107 0 132.5 13.5t25.5 81.5v661h-438v-661q0 -68 25.5 -81.5t131.5 -13.5v-63q-150 6 -231 6q-86 0 -230 -6v63q107 0 132.5 13.5t25.5 81.5v661h-162zM358 883h445v231q0 45 8 72q-24 9 -37.5 29.5t-15.5 36.5l-2 16 q0 38 22.5 60.5t44.5 29.5q-65 35 -155 35q-40 0 -81 -9.5t-82.5 -31t-74 -53.5t-52.5 -81.5t-20 -109.5v-225zM942 883h444v334q-47 26 -47 79q0 25 13 47.5t34 32.5q-64 17 -131 17q-56 0 -109.5 -17t-100 -50t-75 -89.5t-28.5 -128.5v-225z" />
<glyph horiz-adv-x="0" />
<glyph horiz-adv-x="682" />
<glyph unicode=" "  horiz-adv-x="702" />
<glyph unicode="&#x09;" horiz-adv-x="702" />
<glyph unicode="&#xa0;" horiz-adv-x="702" />
<glyph unicode="!" horiz-adv-x="585" d="M180 111q0 46 32.5 78t78.5 32t78 -32t32 -78t-32 -78.5t-78 -32.5t-78.5 32.5t-32.5 78.5zM180 1360q0 50 34.5 78t76.5 28t76 -28t34 -78l-79 -930q-1 -17 -3 -24.5t-8.5 -13t-19.5 -5.5q-19 0 -24 9t-7 34z" />
<glyph unicode="&#x22;" horiz-adv-x="794" d="M217 1368q-3 32 20 54t56 22t56 -22t20 -54l-47 -502h-58zM426 1368q-3 32 20 54t56 22t56 -22t20 -54l-48 -502h-57z" />
<glyph unicode="#" horiz-adv-x="1753" d="M117 305q0 20 12.5 30t24 11.5t30.5 1.5h361l90 330h-451q-19 0 -30.5 1.5t-24 11.5t-12.5 30q0 21 14 31.5t27 12t35 1.5h466l170 606q4 15 7.5 24t13 17t24.5 8q20 0 33 -12.5t13 -32.5q0 -9 -9 -37l-159 -573h389l170 606q4 15 7.5 24t13 17t24.5 8q20 0 32.5 -12.5 t12.5 -32.5q0 -12 -8 -37l-160 -573h326q16 0 25.5 -1t23 -4.5t20 -13.5t6.5 -26q0 -20 -12 -30t-23.5 -11.5t-31.5 -1.5h-361l-90 -330h451q20 0 31.5 -1.5t23.5 -11.5t12 -30q0 -16 -6.5 -26t-20 -13.5t-23 -4.5t-25.5 -1h-467l-170 -608q-4 -15 -7.5 -24t-13 -17 t-24.5 -8q-20 0 -33 12.5t-13 32.5q0 9 9 37l159 575h-389l-170 -608q-4 -15 -7.5 -24t-13 -17t-24.5 -8q-20 0 -32.5 12.5t-12.5 32.5q0 12 8 37l160 575h-325q-22 0 -35 1.5t-27 12t-14 31.5zM635 348h391l90 330h-391z" />
<glyph unicode="$" d="M117 365q0 57 29.5 80.5t66.5 23.5q40 0 67 -26.5t27 -67.5q0 -45 -28.5 -70.5t-67.5 -25.5l-27 4q15 -64 48.5 -111.5t78 -73.5t89.5 -39.5t94 -15.5v608q-84 23 -114 33t-69 32t-75 58q-119 114 -119 277q0 94 44 179t132 144t201 68v94h63v-92q97 -6 171.5 -39 t118 -84t65.5 -111t22 -125q0 -56 -28.5 -80t-67.5 -24q-40 0 -67.5 26.5t-27.5 67.5q0 45 29.5 70.5t67.5 25.5q12 0 24 -4q-26 101 -111 153.5t-196 59.5v-555q67 -16 96 -24.5t79 -37.5t93 -75q109 -122 109 -289q0 -160 -105.5 -282t-271.5 -137v-95h-63v92 q-94 6 -168 40.5t-118.5 89t-67.5 120.5t-23 138zM223 1112q0 -18 2.5 -38t18 -58t41.5 -68.5t80.5 -61t128.5 -44.5v536q-124 -13 -197.5 -92t-73.5 -174zM557 43q118 12 194 98.5t76 196.5q0 16 -2.5 34t-10 50.5t-26 62t-46.5 60.5t-76 55t-109 37v-594z" />
<glyph unicode="%" horiz-adv-x="1753" d="M117 1124q0 176 93 294t216 118q79 0 145 -59q176 -166 402 -166q249 0 397 194q11 16 20 23.5t25 7.5q15 0 29 -12.5t14 -32.5q0 -15 -16 -37l-1059 -1536q-1 -1 -4.5 -6t-4.5 -6t-4.5 -5t-5 -5.5t-5 -4t-6.5 -3.5t-7 -2t-8 -1q-19 0 -32 12.5t-13 32.5q0 5 2.5 12 t5.5 12t6.5 10.5t3.5 6.5l934 1354l-2 2q-123 -67 -270 -67q-162 0 -314 86q41 -100 41 -224q0 -173 -80 -292t-194 -119q-121 0 -215 116.5t-94 296.5zM252 1122q0 -80 10 -142.5t27 -99.5t35.5 -62.5t40.5 -36.5t36.5 -15t28.5 -4q82 0 147.5 103t65.5 259 q0 153 -64.5 257t-148.5 104q-18 0 -35.5 -4.5t-45 -26.5t-47.5 -58t-35 -107t-15 -167zM1051 299q0 176 93 294t216 118q114 0 194 -118t80 -296q0 -173 -80 -292.5t-194 -119.5q-121 0 -215 117t-94 297zM1186 297q0 -80 10 -142.5t27 -99.5t35.5 -62.5t40.5 -36.5 t36.5 -15t28.5 -4q82 0 147.5 103t65.5 259q0 153 -64.5 256.5t-148.5 103.5q-18 0 -35.5 -4.5t-45 -26t-47.5 -57.5t-35 -107t-15 -167z" />
<glyph unicode="&#x26;" horiz-adv-x="1636" d="M88 264q0 40 7.5 71t29.5 64t39 52t59 63q67 70 101.5 103.5t99.5 101.5q-84 216 -84 411q0 79 26.5 145t69.5 106.5t93.5 62.5t101.5 22q53 0 91.5 -28.5t57.5 -72.5t27 -85.5t8 -79.5q0 -46 -15 -90t-55 -100.5t-75.5 -98.5t-110.5 -127q88 -222 342 -540 q91 93 184 248l109 178q2 4 6.5 11t6 9.5t4 7t3.5 6.5t2.5 6t1.5 6.5t0.5 6.5t0.5 8q0 37 -36.5 62.5t-105.5 25.5v64l248 -6q133 0 205 6v-64q-89 -2 -152 -33.5t-108 -101.5l-84 -139q-142 -231 -246 -346q46 -47 71.5 -70.5t64.5 -54t75.5 -43.5t75.5 -13q86 0 158 60.5 t75 169.5h58q-3 -129 -89.5 -211t-207.5 -82q-193 0 -371 154q-181 -154 -381 -154q-157 0 -269 88.5t-112 220.5zM264 324q0 -38 6.5 -77t22.5 -81t39.5 -74t62 -53t86.5 -21q94 0 179 39t147 93q-64 64 -96 101.5t-88 115.5q-123 167 -177 301q-45 -43 -66.5 -65.5 t-49 -57t-38.5 -63t-19.5 -69t-8.5 -89.5zM477 1188q0 -174 62 -348q24 24 48 51t69.5 83.5t73.5 116.5t28 109q0 9 -1 22.5t-4.5 41t-12 51.5t-21 48t-35 38t-51.5 14q-70 0 -113 -68t-43 -159z" />
<glyph unicode="'" horiz-adv-x="585" d="M217 1368q-3 32 20 54t56 22t56 -22t20 -54l-47 -502h-58z" />
<glyph unicode="(" horiz-adv-x="819" d="M207 514q0 356 147 651q31 63 73 123.5t80.5 104t74.5 77t60 50t32 16.5q24 0 24 -23q0 -12 -12 -24q-350 -332 -350 -977q0 -654 344 -969q18 -21 18 -30q0 -23 -24 -23q-8 0 -32.5 17t-62 52t-78 81t-85 113t-78.5 138q-131 281 -131 623z" />
<glyph unicode=")" horiz-adv-x="819" d="M119 -487q0 6 12 24q350 325 350 977q0 167 -25 315t-61 248.5t-86 186.5t-90 133.5t-82 85.5q-18 18 -18 30q0 7 5.5 15t18.5 8q8 0 32.5 -17t62 -52t78 -81t85 -113t78.5 -138q131 -281 131 -621q0 -358 -147 -653q-31 -63 -73 -123.5t-80.5 -104t-74.5 -77t-60 -50 t-32 -16.5q-13 0 -18.5 8t-5.5 15z" />
<glyph unicode="*" d="M137 905q0 17 8.5 29.5t15 17t21.5 11.5l289 133l-289 131q-31 16 -39 30q-6 12 -6 27q0 23 17 42.5t43 19.5q17 0 45 -21l256 -182l-29 311l-4 27q0 20 16 37.5t45 17.5q25 0 42.5 -17t17.5 -38l-4 -27l-29 -313l256 186q26 19 45 19q26 0 42.5 -19t16.5 -43 q0 -13 -3.5 -22.5t-12.5 -16.5t-12.5 -9.5t-16.5 -8.5l-288 -133l288 -131q15 -7 21.5 -11.5t15 -17t8.5 -29.5q0 -23 -16.5 -42t-42.5 -19q-18 0 -45 20l-256 183l29 -312l4 -26q0 -20 -16.5 -38t-45.5 -18q-25 0 -42 17.5t-17 38.5l4 26l29 314l-256 -187q-25 -18 -45 -18 q-26 0 -43 19t-17 42z" />
<glyph unicode="+" horiz-adv-x="1636" d="M117 514q0 15 6.5 24.5t19 13t21.5 4.5t24 1h586v586q0 15 1 24t4.5 21.5t13 19t24.5 6.5q13 0 22 -4.5t13.5 -10.5t6.5 -17t2.5 -18.5t0.5 -20.5v-586h584q23 0 35 -1.5t24.5 -12t12.5 -31.5q0 -15 -6.5 -24.5t-19.5 -13t-22 -4.5t-24 -1h-584v-586q0 -15 -1 -24 t-4.5 -21.5t-13 -19t-24.5 -6.5q-13 0 -22 4.5t-13.5 10.5t-6.5 17t-2.5 18.5t-0.5 20.5v586h-586q-13 0 -20.5 0.5t-18.5 2.5t-17 6.5t-10.5 13.5t-4.5 22z" />
<glyph unicode="," horiz-adv-x="585" d="M180 111q0 44 30 77t81 33q61 0 97 -56.5t36 -160.5q0 -68 -17.5 -133.5t-42.5 -112t-52 -82.5t-47.5 -53.5t-28.5 -17.5q-10 0 -18.5 8t-8.5 16q0 11 8 21q44 42 76 91t47 87t23 84.5t9 68t1 52.5q-31 -33 -82 -33t-81 33.5t-30 77.5z" />
<glyph unicode="-" horiz-adv-x="702" d="M23 379v127h561v-127h-561z" />
<glyph unicode="." horiz-adv-x="585" d="M180 111q0 45 33 77.5t78 32.5t77.5 -32.5t32.5 -77.5q0 -46 -32 -78.5t-78 -32.5t-78.5 32.5t-32.5 78.5z" />
<glyph unicode="/" d="M117 -467q0 5 10 35l715 1921q5 16 9 24t14 15.5t26 7.5t29.5 -12t13.5 -33q0 -5 -10 -35l-715 -1921q-5 -16 -9 -24t-14 -15.5t-26 -7.5t-29.5 12t-13.5 33z" />
<glyph unicode="0" d="M82 655q0 301 76 463q42 93 108.5 150.5t128.5 76.5t131 19q49 0 95.5 -11t97 -37t95.5 -75.5t77 -118.5q48 -103 63 -217.5t15 -249.5q0 -288 -74 -454q-31 -68 -75 -117.5t-93.5 -76.5t-99.5 -39.5t-103 -12.5q-32 0 -63.5 4.5t-72.5 18.5t-77 36t-72.5 60t-64.5 88 q-41 75 -62.5 174t-25.5 164t-4 155zM258 680q0 -287 21 -414q11 -66 35 -115.5t51 -76t59.5 -43t56 -21t45.5 -4.5q20 0 41.5 3.5t54.5 19t60 41t52.5 75t37.5 115.5q21 127 21 420q0 288 -23 401q-14 67 -43 115.5t-66 72.5t-70.5 34t-66.5 10q-30 0 -62 -9.5t-68.5 -31.5 t-66.5 -68t-44 -110q-25 -113 -25 -414z" />
<glyph unicode="1" d="M190 1169v64q252 0 379 131q38 0 46 -8.5t8 -46.5v-1145q0 -27 2.5 -40.5t12 -27.5t30.5 -20t57.5 -9.5t93.5 -3.5h66v-63q-74 6 -342 6q-266 0 -340 -6v63h65q57 0 93.5 3.5t58 9.5t31 20t12 27.5t2.5 40.5v1059q-113 -54 -275 -54z" />
<glyph unicode="2" d="M104 0q0 36 3 46.5t20 27.5l375 405q42 45 66 72.5t65 83t64.5 101t42 107.5t18.5 122q0 57 -15 112.5t-46.5 107t-88.5 83.5t-131 32q-91 0 -173.5 -54t-117.5 -156q8 2 25 2q47 0 76.5 -30.5t29.5 -76.5q0 -51 -33.5 -78.5t-72.5 -27.5q-8 0 -18.5 1.5t-27 8.5 t-29.5 18.5t-22.5 33t-9.5 50.5q0 70 29 137t80 119.5t126 84.5t161 32q191 0 318.5 -112t127.5 -287q0 -63 -19 -118.5t-43.5 -99.5t-94 -114t-124.5 -119.5t-180 -157.5l-202 -192h364q183 0 195 18q25 30 47 180h57l-57 -362h-785z" />
<glyph unicode="3" d="M88 279q0 59 34 87.5t79 28.5q46 0 78 -30.5t32 -79.5q0 -53 -38 -85.5t-93 -25.5q32 -53 83 -89t104 -50t85.5 -18.5t57.5 -4.5q43 0 83 16.5t77.5 52.5t60.5 105t23 162q0 154 -64 246t-192 92h-97q-30 0 -40.5 4t-10.5 23q0 11 6 16.5t11 7t18 2.5q21 0 72 4 q24 2 37.5 3.5t37.5 7.5t41 16t38.5 29t39.5 45q64 98 64 237q0 41 -8.5 77.5t-29 73.5t-63 59t-102.5 22q-82 0 -162 -33t-117 -94q55 0 87 -25.5t32 -77.5q0 -44 -29 -73t-73 -29q-46 0 -75.5 28t-29.5 78q0 117 107 197t266 80q161 0 274 -81.5t113 -199.5 q0 -112 -72 -211t-208 -151q148 -32 243 -136t95 -237q0 -160 -129 -276.5t-318 -116.5q-179 0 -303.5 94t-124.5 230z" />
<glyph unicode="4" d="M59 338v63l639 955q13 22 19.5 26t25.5 4t27.5 -6t10 -15.5t1.5 -33.5v-930h209v-63h-209v-176q0 -43 8 -61t42 -28t110 -10h45v-63q-129 6 -287 6q-157 0 -286 -6v63h45q58 0 90 4t47.5 18t18.5 29t3 48v176h-559zM125 401h506v758z" />
<glyph unicode="5" d="M104 330q0 56 31 81t70 25q43 0 71.5 -27t28.5 -73q0 -50 -31.5 -75t-68.5 -25l-29 4q35 -108 122.5 -168t184.5 -60q63 0 122.5 31.5t99.5 93.5q57 92 57 283q0 26 -0.5 45.5t-4.5 63t-12 76.5t-24 73.5t-38.5 67t-58.5 45t-81 18.5q-80 0 -151 -35.5t-116 -99.5 q-10 -16 -16.5 -21.5t-17.5 -5.5q-20 0 -24.5 13.5t-4.5 46.5v602q0 22 1 31t6.5 16.5t17.5 7.5q6 0 26 -10q135 -56 275 -56q138 0 276 56l27 10q8 0 15 -7t7 -20q0 -9 -16.5 -32t-52 -53.5t-81 -58t-112 -46.5t-137.5 -19q-91 0 -189 29v-403q103 106 271 106 q110 0 201.5 -60.5t144.5 -164t53 -225.5q0 -189 -136 -322t-323 -133q-109 0 -198.5 55t-137 140.5t-47.5 179.5z" />
<glyph unicode="6" d="M88 647q0 133 32 249.5t86.5 201t125.5 145.5t150 91t159 30q131 0 199.5 -64.5t68.5 -158.5q0 -45 -26.5 -72t-69.5 -27q-42 0 -68 27t-26 68q0 43 26.5 68.5t81.5 25.5q-52 82 -182 82q-54 0 -103.5 -19.5t-85.5 -51t-61.5 -64.5t-42.5 -68q-42 -81 -60 -179t-18 -253 q90 194 269 194q175 0 297.5 -131.5t122.5 -324.5q0 -131 -61 -238t-160 -165t-212 -58q-63 0 -120.5 18t-118 66.5t-104 123.5t-71.5 199.5t-28 284.5zM279 463q0 -201 40 -295q25 -59 78 -107.5t131 -48.5q138 0 209 131q18 35 27 86.5t10.5 87t1.5 101.5t-1.5 101.5 t-10.5 87t-27 87.5q-66 127 -198 127q-70 0 -123 -36t-81.5 -92.5t-42 -115t-13.5 -114.5z" />
<glyph unicode="7" d="M117 956l67 428h58q3 -18 9 -27t30.5 -19.5t80.5 -14.5t150 -4h510q0 -33 -2.5 -43t-15.5 -27l-287 -391q-154 -208 -154 -686v-100q0 -117 -96 -117q-94 0 -94 115q0 45 4.5 95t22 137t47 173t85.5 197t132 215l196 268h-430q-191 0 -205 -12q-6 -5 -11 -15t-9.5 -25 t-8 -28.5t-7.5 -33.5t-6 -31t-5 -30.5t-4 -23.5h-57z" />
<glyph unicode="8" d="M88 309q0 235 301 379q-91 58 -115.5 76t-50.5 47q-78 94 -78 211q0 142 111.5 242t271.5 100q94 0 179 -35t141.5 -106.5t56.5 -163.5q0 -59 -24 -112t-64.5 -92t-80 -66t-83.5 -48q55 -31 107 -67q203 -131 203 -330q0 -164 -129.5 -276.5t-309.5 -112.5 q-112 0 -210.5 42.5t-162 125t-63.5 186.5zM199 309q0 -126 96 -211.5t231 -85.5q129 0 227.5 72t98.5 188q0 36 -12 69t-26.5 54t-39.5 44t-37.5 31.5t-34.5 23.5l-258 159q-112 -58 -178.5 -147.5t-66.5 -196.5zM244 1100q0 -101 108 -170l250 -156q36 21 67.5 45.5t65 60 t53 82t19.5 97.5q0 107 -83 180.5t-202 73.5q-108 0 -193 -59t-85 -154z" />
<glyph unicode="9" d="M88 905q0 130 62 236.5t163 164.5t219 58q60 0 116 -18t115 -66t102 -122.5t70.5 -199t27.5 -284.5q0 -163 -45.5 -301t-120 -228t-169 -140t-194.5 -50q-137 0 -215 60.5t-78 162.5q0 45 27 71.5t70 26.5q42 0 68 -27t26 -67q0 -53 -37 -76t-59 -18h-9q59 -76 205 -76 q28 0 56 6t63 23.5t65.5 44.5t60.5 73t51.5 105.5t34.5 146t13 189.5v45q-15 -36 -37 -68t-54 -62.5t-77.5 -48t-99.5 -17.5q-175 0 -297.5 131.5t-122.5 324.5zM274 903q0 -66 1.5 -101.5t10.5 -87t27 -87.5q66 -127 199 -127q69 0 121.5 35t81.5 90.5t43 116t14 120.5 q0 192 -37 289q-5 13 -10.5 25t-24 39.5t-39.5 47t-55.5 35t-73.5 15.5q-138 0 -215 -131q-20 -36 -30 -88.5t-11.5 -88.5t-1.5 -102z" />
<glyph unicode=":" horiz-adv-x="585" d="M180 111q0 45 33 77.5t78 32.5t77.5 -32.5t32.5 -77.5q0 -46 -32 -78.5t-78 -32.5t-78.5 32.5t-32.5 78.5zM180 772q0 46 32.5 78.5t78.5 32.5t78 -32.5t32 -78.5q0 -45 -32.5 -77.5t-77.5 -32.5t-78 33t-33 77z" />
<glyph unicode=";" horiz-adv-x="585" d="M180 111q0 46 31 78t78 32q119 0 119 -213q0 -69 -16 -135.5t-39.5 -113t-48.5 -83t-43.5 -54t-24.5 -17.5q-10 0 -18.5 8t-8.5 16q0 11 16 29q131 149 131 360q-22 -18 -65 -18q-51 0 -81 33.5t-30 77.5zM180 772q0 46 32.5 78.5t78.5 32.5t78 -32.5t32 -78.5 q0 -45 -32.5 -77.5t-77.5 -32.5t-78 33t-33 77z" />
<glyph unicode="&#x3c;" horiz-adv-x="1636" d="M176 514q0 29 41 47l1159 557q11 5 20.5 8t13.5 4h3q21 0 33 -13.5t12 -31.5q0 -29 -41 -47l-1095 -524l1099 -530q20 -9 28.5 -17.5t8.5 -27.5q0 -14 -11.5 -28.5t-33.5 -14.5q-12 0 -41 14l-1155 555q-21 9 -31 19t-10 30z" />
<glyph unicode="=" horiz-adv-x="1636" d="M117 305q0 20 12.5 30t24 11.5t30.5 1.5h1266q15 0 23.5 -1t20.5 -4.5t18 -13t6 -24.5q0 -21 -14 -31.5t-27 -12t-35 -1.5h-1249q-22 0 -35 1.5t-27 12t-14 31.5zM117 721q0 21 14 31.5t27 12t35 1.5h1249q22 0 35 -1.5t27 -12t14 -31.5q0 -15 -6 -24.5t-18 -13 t-20.5 -4.5t-23.5 -1h-1266q-19 0 -30.5 1.5t-24 11.5t-12.5 30z" />
<glyph unicode="&#x3e;" horiz-adv-x="1636" d="M176 -61q0 18 9 28t32 21l1096 526l-1096 524q-23 11 -32 21t-9 28q0 16 12 29.5t31 13.5q14 0 43 -14l1155 -555q41 -18 41 -47q0 -20 -10 -30t-31 -19l-1159 -557q-11 -5 -20.5 -8t-13.5 -4h-3q-22 0 -33.5 14.5t-11.5 28.5z" />
<glyph unicode="?" horiz-adv-x="993" d="M117 1171q0 108 98 190.5t260 82.5q111 0 192.5 -25.5t124.5 -68t62.5 -88.5t19.5 -97q0 -129 -118 -213q-260 -179 -260 -452v-62q0 -22 -1 -30.5t-7.5 -14.5t-20.5 -6q-13 0 -20 6t-8 11.5t-1 15.5v57q0 314 189 508q23 23 35 40t24 56.5t12 94.5q0 24 -0.5 38.5t-5 40 t-13 42t-25 36.5t-40 32t-60 20t-83.5 8q-42 0 -83 -7t-98 -38.5t-89 -85.5q59 0 82.5 -31t23.5 -66q0 -41 -27 -67.5t-67 -26.5t-68 25t-28 75zM356 111q0 46 32.5 78t78.5 32t78.5 -32t32.5 -78t-32.5 -78.5t-78.5 -32.5t-78.5 32.5t-32.5 78.5z" />
<glyph unicode="@" horiz-adv-x="1636" d="M117 711q0 151 56 287t150 233.5t223.5 155t270.5 57.5q105 0 207 -32.5t191 -97.5t157 -154t107 -209.5t39 -256.5q0 -70 -4.5 -126.5t-18.5 -116.5t-37.5 -100t-64 -65.5t-95.5 -25.5q-26 0 -54 5.5t-61 19.5t-59.5 43.5t-36.5 70.5q-24 -31 -55 -58t-91 -54t-126 -27 q-110 0 -205.5 58.5t-154 163t-58.5 229.5t58.5 229t154 162.5t205.5 58.5q95 0 172 -49.5t123 -122.5h70q42 0 49.5 -7t7.5 -46v-490q0 -135 72 -135q45 0 76 28t46.5 82t22 117t6.5 148q0 136 -38 253t-102 199t-147.5 140.5t-174 86.5t-181.5 28q-129 0 -247.5 -53.5 t-205.5 -144t-138.5 -217.5t-51.5 -267q0 -134 48.5 -257.5t132.5 -217.5t207.5 -150.5t264.5 -56.5q279 0 557 123q21 10 30.5 12t33.5 2h18q20 0 28.5 -1t15 -6t6.5 -16q0 -15 -23 -26q-3 -1 -4 -2q-162 -69 -334 -103.5t-326 -34.5q-155 0 -290 61t-226.5 163t-143.5 235 t-52 275zM549 711q0 -166 79.5 -283t190.5 -117q60 0 124.5 34.5t113.5 103.5q21 30 24.5 43t3.5 43v352q0 31 -3 41.5t-21 38.5q-50 74 -115.5 108.5t-126.5 34.5q-111 0 -190.5 -116.5t-79.5 -282.5z" />
<glyph unicode="A" horiz-adv-x="1579" d="M70 0v63q57 1 98.5 13t66.5 34t39 43.5t25 51.5l440 1216q10 28 18 36.5t31 8.5t32 -9.5t18 -33.5l465 -1284q11 -31 25.5 -46t48 -22.5t96.5 -7.5h34v-63l-268 6q-201 0 -293 -6v63q168 0 168 62q0 12 -10 37l-111 309h-530l-96 -264q-9 -23 -9 -39q0 -37 36.5 -70.5 t115.5 -34.5v-63l-231 6q-131 0 -209 -6zM485 535h484l-242 669z" />
<glyph unicode="B" horiz-adv-x="1490" d="M84 0v63h47q48 0 77.5 3.5t47.5 9t25.5 19.5t9.5 27t2 40v1075q0 27 -2 40t-9.5 27t-25.5 19t-47.5 8.5t-77.5 3.5h-47v64h762q198 0 332.5 -103.5t134.5 -242.5q0 -113 -96.5 -202t-249.5 -120q172 -19 288.5 -120t116.5 -238q0 -95 -58.5 -180t-168 -139t-242.5 -54 h-819zM465 147q0 -55 15.5 -69.5t84.5 -14.5h271q151 0 242 94t91 220q0 40 -10 82t-33.5 86t-58.5 78.5t-91 56.5t-124 22h-387v-555zM465 754h321q142 0 236 89t94 210q0 48 -17 96t-49.5 90.5t-89.5 69t-129 26.5h-266q-69 0 -84.5 -14.5t-15.5 -69.5v-497z" />
<glyph unicode="C" horiz-adv-x="1519" d="M117 700q0 152 59 290.5t158 237.5t234 157.5t282 58.5q59 0 114.5 -13.5t91.5 -29.5t78 -46t58 -45t47 -44l104 153q17 25 33 25q17 0 21 -11t4 -42v-480q0 -25 -1.5 -34t-8 -14t-23.5 -5q-19 0 -24.5 7t-8.5 30q-18 120 -65 215t-111.5 152.5t-138.5 87.5t-152 30 q-40 0 -83.5 -7.5t-98 -28t-103.5 -52t-97 -85.5t-82.5 -122.5t-56 -167.5t-21.5 -217t21 -217.5t56 -168.5t82.5 -122.5t97 -85.5t104 -52.5t98.5 -28t85 -7.5q64 0 128.5 18t124.5 56t107 91.5t77.5 130.5t35.5 167q1 10 1.5 13t3.5 9.5t8.5 8.5t15.5 2q14 0 20.5 -6.5 t7.5 -13t1 -19.5q0 -91 -39 -182.5t-108 -167t-175 -123t-229 -47.5q-145 0 -280 57.5t-234.5 156t-159 237.5t-59.5 294z" />
<glyph unicode="D" horiz-adv-x="1607" d="M82 0v63h47q48 0 77.5 3.5t47.5 9t25.5 19.5t9.5 27t2 40v1075q0 27 -2 40t-9.5 27t-25.5 19t-47.5 8.5t-77.5 3.5h-47v64h762q177 0 325.5 -96t234 -259.5t85.5 -355.5q0 -189 -87 -347.5t-235 -249.5t-323 -91h-762zM469 147q0 -55 15.5 -69.5t84.5 -14.5h222 q243 0 383 183q112 142 112 442q0 158 -27.5 270t-93.5 199q-52 70 -147.5 124t-229.5 54h-219q-69 0 -84.5 -14.5t-15.5 -69.5v-1104z" />
<glyph unicode="E" horiz-adv-x="1431" d="M78 0v63h47q48 0 77.5 3.5t47.5 9t25.5 19.5t9.5 27t2 40v1069q0 27 -2 40t-9.5 27t-25.5 19t-47.5 8.5t-77.5 3.5h-47v64h1177l58 -461h-58q-9 77 -19.5 129.5t-30 100.5t-47.5 76.5t-71.5 50.5t-102 31t-138.5 9h-275q-69 0 -84.5 -14.5t-15.5 -69.5v-489h191 q76 0 120 11.5t67.5 43t30.5 72t7 112.5h57v-542h-57q0 48 -2.5 79t-11 60.5t-23.5 46.5t-40.5 30t-61 18t-86.5 5h-191v-545q0 -55 15.5 -69.5t84.5 -14.5h287q75 0 133 10t101.5 26.5t76 47.5t54.5 64t39 86.5t28 104t23 126.5h57l-88 -528h-1204z" />
<glyph unicode="F" horiz-adv-x="1374" d="M78 0v63h47q48 0 77.5 3.5t47.5 9t25.5 19.5t9.5 27t2 40v1069q0 27 -2 40t-9.5 27t-25.5 19t-47.5 8.5t-77.5 3.5h-47v64h1149l57 -461h-57q-9 77 -19.5 128.5t-29 100t-45.5 77t-69 51t-99.5 31.5t-135.5 9h-258q-69 0 -84.5 -14.5t-15.5 -69.5v-516h184q75 0 119 12 t67 44t29.5 72t6.5 112h57v-543h-57q0 72 -6.5 112t-29.5 72t-67 44t-119 12h-184v-502q0 -43 10 -61.5t51.5 -29t133.5 -10.5h65v-63q-72 6 -340 6q-221 0 -313 -6z" />
<glyph unicode="G" horiz-adv-x="1652" d="M117 700q0 152 59 290.5t158 237.5t234 157.5t282 58.5q59 0 114.5 -13.5t91.5 -29.5t78 -46t58 -45t47 -44l104 153q17 25 33 25q17 0 21 -11t4 -42v-480q0 -25 -1.5 -34t-8 -14t-23.5 -5q-19 0 -24.5 7t-8.5 30q-18 120 -65 215t-111.5 152.5t-138.5 87.5t-152 30 q-40 0 -83.5 -7.5t-98 -28t-103.5 -52t-97 -85.5t-82.5 -122.5t-56 -167.5t-21.5 -217q0 -120 22 -220.5t58 -169.5t85 -122.5t99.5 -84.5t106 -51t99 -27t83.5 -7q14 0 28 0.5t50 5.5t66.5 13.5t68 27.5t63.5 44t44 66.5t18 92.5v129q0 27 -2.5 40.5t-12 27.5t-31 20 t-58 9.5t-93.5 3.5h-66v63q72 -6 328 -6q131 0 264 6v-63q-55 0 -81 -2t-42 -13.5t-19 -27t-3 -49.5v-353q0 -20 -1 -28.5t-6 -15.5t-16 -7q-15 0 -59 43t-70 84q-44 -77 -150 -125.5t-247 -48.5q-148 0 -283.5 58t-234.5 157t-158 237.5t-59 292.5z" />
<glyph unicode="H" horiz-adv-x="1579" d="M78 0v63h47q48 0 77.5 3.5t47.5 9t25.5 19.5t9.5 27t2 40v1075q0 27 -2 40t-9.5 27t-25.5 19t-47.5 8.5t-77.5 3.5h-47v64q92 -6 301 -6t301 6v-64h-47q-48 0 -77.5 -3.5t-47.5 -8.5t-25.5 -19t-9.5 -27t-2 -40v-477h635v477q0 27 -2 40t-9.5 27t-25.5 19t-47.5 8.5 t-77.5 3.5h-47v64q92 -6 301 -6t301 6v-64h-47q-48 0 -77.5 -3.5t-47.5 -8.5t-25.5 -19t-9.5 -27t-2 -40v-1075q0 -27 2 -40t9.5 -27t25.5 -19.5t47.5 -9t77.5 -3.5h47v-63q-92 6 -301 6t-301 -6v63h47q48 0 77.5 3.5t47.5 9t25.5 19.5t9.5 27t2 40v534h-635v-534 q0 -27 2 -40t9.5 -27t25.5 -19.5t47.5 -9t77.5 -3.5h47v-63q-92 6 -301 6t-301 -6z" />
<glyph unicode="I" horiz-adv-x="759" d="M68 0v63h51q62 0 95.5 4t50 18.5t19.5 29t3 47.5v1075q0 33 -3 47.5t-19.5 28.5t-50 18t-95.5 4h-51v64q84 -6 311 -6t311 6v-64h-51q-62 0 -95.5 -4t-50 -18t-19.5 -28.5t-3 -47.5v-1075q0 -33 3 -47.5t19.5 -29t50 -18.5t95.5 -4h51v-63q-84 6 -311 6t-311 -6z" />
<glyph unicode="J" horiz-adv-x="1081" d="M98 229q0 53 32 84t81 31t80 -32t31 -79q0 -50 -34 -83q-30 -28 -76 -28q-8 0 -17 1q36 -56 101 -86.5t130 -30.5q85 0 149 81.5t64 215.5v932q0 33 -4 48.5t-23.5 29.5t-60 18t-113.5 4h-69v64q72 -6 333 -6q136 0 271 6v-64q-101 0 -128.5 -12t-27.5 -72v-833 q0 -144 -2 -160q-21 -141 -133.5 -222t-251.5 -81q-140 0 -236 80.5t-96 193.5z" />
<glyph unicode="K" horiz-adv-x="1636" d="M78 0v63h47q48 0 77.5 3.5t47.5 9t25.5 19.5t9.5 27t2 40v1075q0 27 -2 40t-9.5 27t-25.5 19t-47.5 8.5t-77.5 3.5h-47v64q92 -6 301 -6t301 6v-64h-47q-48 0 -77.5 -3.5t-47.5 -8.5t-25.5 -19t-9.5 -27t-2 -40v-647l682 631q16 22 16 47q0 30 -23 48t-65 19v64l254 -6 q124 0 183 6v-64q-168 -10 -291 -125l-383 -354l479 -680q35 -50 60 -72t61 -31.5t102 -9.5v-63q-104 6 -239 6q-195 0 -285 -6v63q117 0 117 60q0 26 -35 76l-383 544l-250 -231v-350q0 -27 2 -40t9.5 -27t25.5 -19.5t47.5 -9t77.5 -3.5h47v-63q-92 6 -301 6t-301 -6z" />
<glyph unicode="L" horiz-adv-x="1314" d="M78 0v63h47q48 0 77.5 3.5t47.5 9t25.5 19.5t9.5 27t2 40v1075q0 27 -2 40t-9.5 27t-25.5 19t-47.5 8.5t-77.5 3.5h-47v64q92 -6 313 -6q268 0 340 6v-64h-65q-70 0 -109 -4t-58.5 -18t-23.5 -29.5t-4 -48.5v-1088q0 -55 15.5 -69.5t84.5 -14.5h179q76 0 137 15t101.5 40 t71.5 62.5t48.5 75.5t29.5 87.5t17.5 90.5t11.5 91v3h58l-58 -528h-1089z" />
<glyph unicode="M" horiz-adv-x="1929" d="M88 0v63q60 0 102 11.5t62 26t31 39.5t12.5 39t1.5 38v1020q0 27 -2 40t-9.5 27t-25.5 19t-47.5 8.5t-77.5 3.5h-47v64h344q40 0 51 -7t23 -38l459 -1153l458 1161q10 26 23 31.5t49 5.5h344v-64h-47q-48 0 -77.5 -3.5t-47.5 -8.5t-25.5 -19t-9.5 -27t-2 -40v-1075 q0 -27 2 -40t9.5 -27t25.5 -19.5t47.5 -9t77.5 -3.5h47v-63q-129 6 -293 6q-168 0 -291 -6v63h48q48 0 77.5 3.5t47 9t25.5 19.5t9.5 27t1.5 40v1167l-2 2l-512 -1294q-16 -37 -41 -37q-12 0 -20.5 6.5t-12.5 14.5t-10 24l-504 1270l-2 -2v-1096q0 -24 1.5 -38t12.5 -39 t31 -39.5t62 -26t102 -11.5v-63q-167 6 -239 6q-73 0 -242 -6z" />
<glyph unicode="N" horiz-adv-x="1579" d="M78 0v63q60 0 102 11.5t62 26t31 39.5t12.5 39t1.5 38v1104q-54 14 -152 14h-57v64h344q31 0 40 -3.5t21 -21.5l744 -1067v875q0 20 -1 31t-6.5 32.5t-19 34.5t-35 27t-59.5 21t-88 7v64q172 -6 242 -6q72 0 239 6v-64q-50 0 -88 -7t-59.5 -21t-35 -27t-19 -34.5 t-6.5 -32.5t-1 -31v-1127q0 -23 -1.5 -32.5t-8.5 -16t-23 -6.5q-20 0 -36 25l-871 1249v-1057q0 -24 1.5 -38t12.5 -39t31 -39.5t62 -26t102 -11.5v-63q-167 6 -240 6q-71 0 -241 -6z" />
<glyph unicode="O" horiz-adv-x="1636" d="M117 694q0 153 56 292t150 239.5t223.5 159.5t270.5 59q189 0 350 -99.5t256 -272.5t95 -378q0 -153 -56.5 -290.5t-151 -235.5t-223.5 -155.5t-270 -57.5t-270 57.5t-223.5 155.5t-150.5 235.5t-56 290.5zM326 725q0 -152 31.5 -276t81.5 -202.5t116 -132t131.5 -76 t130.5 -22.5q46 0 92.5 11.5t95.5 37t92.5 64t82.5 96t67.5 128.5t45 166.5t16.5 205.5q0 121 -22.5 222.5t-61 171.5t-87.5 123.5t-105.5 84t-110 45t-105.5 14.5q-63 0 -127.5 -20t-131 -69.5t-117.5 -122.5t-83 -189t-32 -260z" />
<glyph unicode="P" horiz-adv-x="1431" d="M82 0v63h47q48 0 77.5 3.5t47.5 9t25.5 19.5t9.5 27t2 40v1075q0 27 -2 40t-9.5 27t-25.5 19t-47.5 8.5t-77.5 3.5h-47v64h735q210 0 353 -113t143 -268q0 -151 -142.5 -263t-353.5 -112h-342v-481q0 -27 2 -40t9.5 -27t25.5 -19.5t47.5 -9t77.5 -3.5h47v-63 q-92 6 -301 6t-301 -6zM469 700h295q70 0 125.5 13.5t90.5 32.5t60 50.5t37 57t18.5 62t7.5 55t1 47.5t-1 47.5t-7.5 55t-18 61.5t-36.5 56.5t-60 50.5t-90 32.5t-125 13.5h-197q-69 0 -84.5 -14.5t-15.5 -69.5v-551z" />
<glyph unicode="Q" horiz-adv-x="1636" d="M117 694q0 153 56 292t150 239.5t223.5 159.5t270.5 59q189 0 350 -99.5t256 -272.5t95 -378q0 -122 -36 -235t-96.5 -198.5t-136 -149t-159.5 -97.5q21 -52 36.5 -81.5t39 -61t54 -45.5t70.5 -14q15 0 31.5 2.5t44.5 13.5t49.5 30t40 56.5t23.5 87.5q5 23 24 23 q27 0 27 -43q0 -37 -6 -80t-23.5 -98t-44 -98t-74.5 -73t-108 -30q-55 0 -96 22.5t-65 49.5t-44.5 87.5t-28.5 98t-23 118.5q-1 4 -1 5q-101 -29 -199 -29q-141 0 -270 57.5t-223.5 155.5t-150.5 235.5t-56 290.5zM319 694q0 -263 96 -427.5t255 -225.5q-25 41 -25 90 q0 72 50 123t124 51q47 0 86.5 -18.5t68 -52.5t47 -68t36.5 -78q129 87 193.5 243t64.5 363q0 147 -31.5 267t-82 197.5t-117 130t-133.5 75t-134 22.5t-134 -22.5t-133.5 -75.5t-117 -130.5t-82 -197.5t-31.5 -266zM696 131q0 -15 5.5 -33t17.5 -38.5t37.5 -34t60.5 -13.5 q100 0 182 43q-23 96 -62.5 147.5t-115.5 51.5q-57 0 -91 -37t-34 -86z" />
<glyph unicode="R" horiz-adv-x="1548" d="M82 0v63h47q48 0 77.5 3.5t47.5 9t25.5 19.5t9.5 27t2 40v1075q0 27 -2 40t-9.5 27t-25.5 19t-47.5 8.5t-77.5 3.5h-47v64h653q148 0 274.5 -49.5t200.5 -134.5t74 -185q0 -115 -99.5 -203.5t-254.5 -132.5q47 -15 85 -35.5t63.5 -40t45 -47.5t30 -49.5t19 -55t12 -53 t7.5 -55.5q30 -228 49 -276q10 -22 19.5 -36t32 -27t53.5 -13q52 0 91 44t46 134q0 1 0.5 7t1 7t2 6t3 6.5t4.5 4t7 3.5t10 1q29 0 29 -37q0 -18 -4.5 -42.5t-18 -58t-34.5 -61t-59 -46.5t-87 -19q-145 0 -241 76q-29 23 -48 50t-29 50.5t-15 62t-6 64.5t-1 78q0 116 -9 157 t-52 95q-86 86 -221 86h-246v-512q0 -27 2 -40t9.5 -27t25.5 -19.5t47.5 -9t77.5 -3.5h47v-63q-98 6 -299 6t-297 -6zM469 725h238q368 0 368 305q0 63 -16 112.5t-38.5 81.5t-63 54t-72 33t-84.5 17t-81.5 6.5t-80.5 0.5q-109 0 -127 -4q-28 -6 -35.5 -22t-7.5 -58v-526z " />
<glyph unicode="S" horiz-adv-x="1169" d="M117 12v396q0 20 0.5 27t3 16t8 11.5t16.5 2.5q19 0 23 -8t6 -35q5 -97 39.5 -171.5t83 -117t112 -70t117 -36.5t107.5 -9q131 0 209 89.5t78 203.5q0 54 -18 103.5t-36 72.5l-18 23q-49 51 -86 67t-166 46q-190 44 -248 68t-125 89q-10 10 -22 25.5t-34 51t-36 86.5 t-14 106q0 161 117.5 278t293.5 117q68 0 127.5 -16t100.5 -41.5t64.5 -45.5t41.5 -41q22 35 36 57t17 28t7.5 12.5l13.5 19.5q10 18 15 22.5t16 4.5q9 0 14 -2.5t7 -12t2.5 -16t0.5 -27.5v-395q0 -26 -1 -35t-7 -15.5t-20 -6.5q-18 0 -23 9t-10 40q-9 65 -27 121.5 t-50.5 109.5t-76 90t-106.5 59.5t-140 22.5q-124 0 -203 -80t-79 -188q0 -36 11.5 -73.5t35 -75.5t68 -68t102.5 -45l180 -43q83 -19 124.5 -32t94 -46.5t94.5 -87.5q93 -116 93 -268q0 -110 -51 -206.5t-147.5 -157t-217.5 -60.5q-241 0 -389 143q-22 -35 -36 -57 t-17 -27.5t-7 -12t-14 -19.5q-10 -18 -15 -22.5t-16 -4.5q-9 0 -14 2.5t-7 11.5t-2.5 16t-0.5 27z" />
<glyph unicode="T" horiz-adv-x="1519" d="M76 926l41 460h1284l41 -460h-58q-8 92 -16.5 147.5t-26 104.5t-41 73.5t-65.5 43t-94 23.5t-133 5q-93 0 -113 -4q-29 -6 -36 -21.5t-7 -58.5v-1075q0 -22 1 -32t7 -24.5t19 -20.5t36.5 -13t60.5 -9t91 -2h80v-63q-74 6 -387 6t-387 -6v63h80q54 0 91 2t60.5 9t36.5 13 t19 20.5t7 24.5t1 32v1075q0 42 -6.5 58t-32.5 22q-20 4 -119 4q-81 0 -133 -5t-94.5 -23.5t-65.5 -43t-41 -73t-26.5 -105t-16.5 -147.5h-57z" />
<glyph unicode="U" horiz-adv-x="1579" d="M78 1335v64q92 -6 301 -6t301 6v-64h-47q-48 0 -77.5 -3.5t-47.5 -8.5t-25.5 -19t-9.5 -27t-2 -40v-778q0 -105 25.5 -187t63 -128.5t87.5 -76t91.5 -39.5t82.5 -10q77 0 150 32t130 89t91.5 144t34.5 188v711q0 20 -1 31t-6.5 32.5t-19 34.5t-35 27t-59.5 21t-88 7v64 q172 -6 242 -6q72 0 239 6v-64q-43 0 -77 -6t-56 -14t-37 -23t-22.5 -26.5t-11.5 -30.5t-4.5 -29t-0.5 -28v-738q0 -79 -32.5 -162.5t-90.5 -156.5t-150 -119.5t-200 -46.5q-105 0 -202 39t-169.5 106.5t-115.5 164.5t-43 206v766q0 27 -2 40t-9.5 27t-25.5 19t-47.5 8.5 t-77.5 3.5h-47z" />
<glyph unicode="V" horiz-adv-x="1579" d="M41 1335v64l262 -6q199 0 291 6v-64q-21 0 -33.5 -0.5t-35 -2t-36.5 -5.5t-29 -10t-22.5 -17t-7.5 -26q0 -14 10 -39l410 -1036l391 993q10 25 10 41q0 43 -37 72t-108 30v64l229 -6q129 0 201 6v-64q-80 0 -136.5 -30.5t-86.5 -106.5l-475 -1202q-8 -24 -17.5 -32.5 t-32.5 -8.5t-32 9.5t-19 35.5l-495 1255q-15 38 -33.5 53.5t-53 21t-114.5 5.5z" />
<glyph unicode="W" horiz-adv-x="2162" d="M39 1335v64q127 -6 254 -6q195 0 287 6v-64q-31 0 -51.5 -1t-53 -6.5t-50 -19.5t-17.5 -36q0 -10 10 -37l334 -999l288 868l9 26q-42 139 -60 166q-16 25 -49.5 32t-116.5 7v64q127 -6 254 -6q195 0 287 6v-64q-31 0 -51.5 -1t-53 -6.5t-50 -19.5t-17.5 -36 q0 -4 1.5 -9.5t3.5 -12t3 -9.5l336 -1005l319 956q9 31 9 33q0 41 -44 75t-132 35v64l241 -6q130 0 193 6v-64q-87 -1 -135 -37t-72 -108l-397 -1194q-8 -23 -17.5 -32t-27.5 -9q-20 0 -28 9.5t-18 39.5l-348 1036l-346 -1042q-13 -43 -45 -43q-18 0 -27.5 9t-17.5 32 l-420 1261q-7 20 -14 33t-20 22t-23.5 13.5t-34 6.5t-39.5 2.5t-53 0.5z" />
<glyph unicode="X" horiz-adv-x="1579" d="M53 0v63q205 0 301 136l348 495l-387 557q-19 28 -29 39t-31.5 24t-53.5 17t-84 4h-35v64l266 -6q213 0 297 6v-64q-43 -1 -74 -12.5t-43 -24.5t-12 -24q0 -14 16 -35l275 -395l244 344q22 32 22 55q0 34 -32 62.5t-91 29.5v64l258 -6q124 0 228 6v-64q-206 0 -299 -133 l-291 -414l450 -653q30 -45 71.5 -58.5t121.5 -13.5h35v-63l-267 6q-202 0 -294 -6v63q57 1 92 21t35 41q0 10 -17 31l-332 483l-305 -432q-20 -28 -20 -51q0 -31 30 -60.5t93 -32.5v-63l-256 6q-126 0 -230 -6z" />
<glyph unicode="Y" horiz-adv-x="1579" d="M27 1335v64l270 -6q213 0 297 6v-64q-30 0 -49.5 -1t-42.5 -5.5t-35 -16t-12 -28.5q0 -11 18 -41l385 -598l350 551q21 33 23 49v10q0 36 -29.5 58t-83.5 22v64l232 -6q128 0 200 6v-64q-76 -1 -132 -24t-82.5 -50t-51.5 -67l-405 -635v-399q0 -42 7.5 -59.5t42 -27.5 t111.5 -10h47v-63q-98 6 -299 6q-200 0 -296 -6v63h47q48 0 77.5 3.5t47 9t25.5 19.5t9.5 27t1.5 40v397l-450 703q-29 44 -64 58.5t-125 14.5h-34z" />
<glyph unicode="Z" horiz-adv-x="1286" d="M117 37q0 18 16 43l821 1255h-331q-117 0 -196.5 -24.5t-126.5 -77t-69.5 -123t-27.5 -172.5h-58l23 461h944q23 0 32.5 -1.5t16 -9t6.5 -24.5q0 -16 -16 -41l-819 -1253h350q81 0 144.5 12.5t108 32t77 54.5t52 70.5t32 90t17.5 101.5t9 116h58l-35 -547h-973 q-34 0 -44.5 5.5t-10.5 31.5z" />
<glyph unicode="[" horiz-adv-x="585" d="M246 -512v2048h291v-88h-203v-1872h203v-88h-291z" />
<glyph unicode="\" d="M117 1491q0 21 13.5 33t29.5 12t26 -7.5t14 -15.5t9 -24l715 -1921q10 -30 10 -35q0 -21 -13.5 -33t-29.5 -12t-26 7.5t-14 15.5t-9 24l-715 1921q-10 30 -10 35z" />
<glyph unicode="]" horiz-adv-x="585" d="M45 -424h203v1872h-203v88h291v-2048h-291v88z" />
<glyph unicode="^" horiz-adv-x="1138" d="M-10 1196l579 328l580 -328l-25 -45l-557 252l-555 -252z" />
<glyph unicode="_" horiz-adv-x="1579" d="M0 -227h1579v-58h-1579v58z" />
<glyph unicode="`" d="M266 1350q0 34 24.5 57t53.5 23q24 0 36 -8t28 -29l249 -310l-39 -43l-309 242q-43 32 -43 68z" />
<glyph unicode="a" d="M68 201q0 71 45 140.5t147 119.5q147 71 402 80v67q0 125 -67 191.5t-155 66.5q-53 0 -114.5 -17.5t-98.5 -53.5q4 0 10 -1.5t22 -8t28 -16.5t22 -29t10 -44q0 -40 -26.5 -67t-67.5 -27t-68.5 26t-27.5 72q0 96 91.5 157t223.5 61q166 0 277 -99q27 -25 45 -50.5 t27.5 -46t14 -53.5t5 -54t0.5 -66v-359q0 -131 74 -131t74 125v113h57v-115q0 -47 -14 -83t-34.5 -56.5t-46.5 -33.5t-46.5 -17t-38.5 -4q-64 0 -107 46t-51 113q-14 -27 -33 -51.5t-51.5 -54t-82.5 -47t-110 -17.5q-55 0 -110.5 12t-107.5 36.5t-84.5 70t-32.5 105.5z M231 201q0 -74 56 -123t131 -49q37 0 76.5 13.5t78.5 41.5t64 81.5t25 123.5v203q-113 -4 -199 -31t-135 -69t-73 -90t-24 -101z" />
<glyph unicode="b" horiz-adv-x="1169" d="M61 1335v64l304 22v-643q46 51 118 89t166 38q121 0 224.5 -62t164 -168.5t60.5 -232.5q0 -130 -66.5 -238t-173.5 -167.5t-229 -59.5q-82 0 -155.5 40t-121.5 108l-76 -125h-57v1221q0 75 -27 94.5t-131 19.5zM371 238q0 -31 3.5 -42t24.5 -42q38 -58 94.5 -91.5 t124.5 -33.5q76 0 138.5 37t99.5 92q66 102 66 286q0 179 -58 275q-40 64 -98.5 99.5t-124.5 35.5t-132.5 -30.5t-115.5 -96.5q-17 -24 -19.5 -33.5t-2.5 -40.5v-415z" />
<glyph unicode="c" horiz-adv-x="935" d="M70 442q0 127 59 236t165 174.5t234 65.5q139 0 231.5 -56t92.5 -149q0 -46 -27.5 -72.5t-68.5 -26.5q-40 0 -67 27.5t-27 67.5q0 41 23.5 65t59.5 31q-82 55 -213 55q-50 0 -97 -21t-91.5 -66.5t-71 -130t-26.5 -198.5q0 -108 28 -190.5t73 -128.5t95.5 -68t102.5 -22 q86 0 159.5 47.5t106.5 146.5q11 33 18 36q4 3 17 3q28 0 28 -24q0 -9 -8.5 -35t-33.5 -66.5t-61.5 -76.5t-101.5 -62.5t-145 -26.5q-184 0 -319 135t-135 330z" />
<glyph unicode="d" horiz-adv-x="1169" d="M70 440q0 129 65 236.5t173 168t233 60.5q55 0 105 -16t84 -41t48.5 -38.5t24.5 -25.5v437q0 75 -27 94.5t-131 19.5v64l303 22v-1243q0 -75 27 -95t131 -20v-63l-309 -23v132q-114 -132 -279 -132q-120 0 -223.5 62t-164 168.5t-60.5 232.5zM246 438q0 -179 57 -274 q40 -64 98.5 -99.5t124.5 -35.5t130.5 33t109.5 98q22 31 26.5 44t4.5 42v413q0 30 -3.5 40t-21.5 34q-41 58 -99.5 89.5t-123.5 31.5q-76 0 -138.5 -37t-99.5 -92q-65 -101 -65 -287z" />
<glyph unicode="e" horiz-adv-x="935" d="M59 451q0 192 128 329.5t311 137.5q95 0 169 -33.5t118 -91t66.5 -129t22.5 -152.5q0 -31 -9.5 -37t-45.5 -6h-583q0 -60 3 -99t19 -101.5t47 -108.5q37 -55 98 -90t132 -35q17 0 35 1.5t56.5 13.5t70.5 32.5t66 63.5t54 102q5 22 29 22q13 0 20.5 -7.5t7.5 -18.5 q0 -16 -12 -46t-40 -68.5t-66.5 -72t-99.5 -57t-132 -23.5q-124 0 -230.5 62t-170.5 171.5t-64 240.5zM238 518h497q-1 94 -21.5 164t-55.5 109t-75 57t-85 18q-22 0 -47.5 -5.5t-63 -27t-67 -56.5t-53.5 -102.5t-29 -156.5z" />
<glyph unicode="f" horiz-adv-x="643" d="M70 819v64h161v235q0 146 100 236t228 90q83 0 137 -43t54 -103q0 -40 -26 -66t-67 -26q-39 0 -64.5 25.5t-25.5 64.5q0 34 17 55t37 29q-32 13 -62 13q-73 0 -130.5 -74.5t-57.5 -204.5v-231h243v-64h-237v-657q0 -27 2 -40t9.5 -27t24.5 -19.5t45 -9t74 -3.5h41v-63 l-260 6q-75 0 -239 -6v63q106 0 131.5 13.5t25.5 81.5v661h-161z" />
<glyph unicode="g" d="M59 -160q0 69 52.5 124t134.5 81q-41 27 -64.5 77t-23.5 103q0 42 15.5 84.5t27.5 61t18 24.5q-35 33 -64.5 86.5t-29.5 122.5q0 123 99 212t243 89q131 0 221 -74q49 51 110 74t113 23q55 0 83 -33t28 -70q0 -30 -18.5 -46.5t-42.5 -16.5q-32 0 -47 19.5t-15 41.5 q0 38 27 54q-121 0 -203 -74q84 -90 84 -199q0 -123 -99 -212t-243 -89q-110 0 -209 64q-29 -43 -29 -91q0 -50 27.5 -87t71.5 -46q16 -4 123 -4q95 0 137 -1t103.5 -7.5t103.5 -21.5t84 -41q55 -35 84.5 -96.5t29.5 -127.5q0 -77 -64 -138.5t-170.5 -94.5t-232.5 -33 q-196 0 -330.5 76.5t-134.5 185.5zM174 -158q0 -86 101.5 -147.5t250.5 -61.5q145 0 248 61t103 148q0 39 -18 69.5t-50.5 48t-64.5 28.5t-74 15.5t-63.5 5.5t-47.5 1h-188q-50 0 -88 -14.5t-58 -34.5t-32 -45.5t-15.5 -43t-3.5 -30.5zM283 604q0 -16 0.5 -28.5t4 -39.5 t10 -48t20 -47t32 -42.5t48.5 -28.5t67 -12q38 0 68 11.5t49 28.5t32.5 42.5t20 46.5t10 48.5t4 39.5t0.5 29t-0.5 29t-4 39.5t-10 48.5t-20 46.5t-32.5 42.5t-49 28.5t-68 11.5q-42 0 -80.5 -20t-62.5 -52q-39 -55 -39 -174z" />
<glyph unicode="h" horiz-adv-x="1169" d="M72 0v63q106 0 131.5 13.5t25.5 81.5v1063q0 75 -26.5 94.5t-130.5 19.5v64l303 22v-702h2q102 186 301 186q158 0 227 -84q40 -51 49 -105.5t9 -195.5v-393q1 -19 8 -31t17 -18.5t33 -10t42 -3.5t57 -1v-63q-164 6 -233 6q-90 0 -234 -6v63q107 0 132.5 13.5t25.5 81.5 v473q0 50 -6 87.5t-21.5 69.5t-45.5 49t-74 17q-50 0 -99 -20.5t-90.5 -59.5t-67.5 -102.5t-26 -141.5v-372q0 -68 25.5 -81.5t132.5 -13.5v-63q-163 6 -234 6q-89 0 -233 -6z" />
<glyph unicode="i" horiz-adv-x="585" d="M74 0v63q106 0 131.5 13.5t25.5 81.5v549q0 75 -25 93.5t-124 18.5v64l295 22v-751q0 -44 8 -60.5t36 -23.5t97 -7v-63q-100 6 -219 6q-87 0 -225 -6zM182 1235q0 46 32.5 78.5t78.5 32.5t78 -32.5t32 -78.5t-32 -78.5t-78 -32.5t-78.5 32.5t-32.5 78.5z" />
<glyph unicode="j" horiz-adv-x="643" d="M-80 -256q0 42 26 69t70 27q41 0 68 -27t27 -67q0 -70 -66 -90q49 -25 109 -25q39 0 68.5 22.5t44 53t23 71.5t10 67t1.5 51v809q0 40 -4.5 60.5t-24.5 33.5t-51.5 16.5t-93.5 3.5v64l319 22v-1003q0 -140 -83.5 -231t-206.5 -91q-94 0 -165 44.5t-71 119.5zM225 1235 q0 46 32.5 78.5t78.5 32.5t78 -32.5t32 -78.5t-32 -78.5t-78 -32.5t-78.5 32.5t-32.5 78.5z" />
<glyph unicode="k" horiz-adv-x="1110" d="M61 0v63q107 0 132.5 13.5t25.5 81.5v1063q0 75 -27 94.5t-131 19.5v64l304 22v-977l288 244l5 5q6 5 7.5 6t6.5 6t7 7.5t6.5 8t6.5 9t5 8.5t4.5 10t2.5 10.5t1 11.5q0 45 -56 49v64l225 -6q80 0 152 6v-64q-96 -4 -178.5 -57t-255.5 -203l291 -395q50 -67 89.5 -84 t100.5 -17v-63q-59 6 -184 6l-221 -6v63q22 0 37 4t21.5 11.5t8.5 14.5t2 16q0 20 -10.5 40t-38.5 58l-199 268l-131 -110v-207q0 -68 25.5 -81.5t132.5 -13.5v-63l-227 6z" />
<glyph unicode="l" horiz-adv-x="585" d="M74 0v63q106 0 131.5 13.5t25.5 81.5v1063q0 75 -26.5 94.5t-130.5 19.5v64l303 22v-1263q0 -68 25.5 -81.5t132.5 -13.5v-63q-150 6 -232 6q-85 0 -229 -6z" />
<glyph unicode="m" horiz-adv-x="1753" d="M72 0v63q106 0 131.5 13.5t25.5 81.5v547q0 75 -26.5 94.5t-130.5 19.5v64l297 22v-200h2q38 82 116 141t191 59q238 0 278 -194q46 88 123.5 141t182.5 53q154 0 219 -74q47 -53 57 -107.5t10 -203.5v-393q0 -16 4.5 -27t15 -18t20.5 -11t31.5 -5.5t38 -1.5t48.5 -1v-63 q-164 6 -233 6q-90 0 -234 -6v63q107 0 132.5 13.5t25.5 81.5v473q0 112 -34 167.5t-116 55.5q-48 0 -96.5 -20t-90.5 -58.5t-68.5 -102.5t-26.5 -143v-372q0 -68 25.5 -81.5t131.5 -13.5v-63q-164 6 -233 6q-90 0 -234 -6v63q107 0 132.5 13.5t25.5 81.5v473 q0 113 -33.5 168t-115.5 55q-48 0 -96.5 -20t-91 -58.5t-69 -102.5t-26.5 -143v-372q0 -68 25.5 -81.5t132.5 -13.5v-63q-163 6 -234 6q-89 0 -233 -6z" />
<glyph unicode="n" horiz-adv-x="1169" d="M72 0v63q106 0 131.5 13.5t25.5 81.5v547q0 75 -26.5 94.5t-130.5 19.5v64l297 22v-198h2q11 22 24.5 43t41 51t59.5 51.5t80 37t102 15.5q158 0 227 -84q40 -51 49 -105.5t9 -195.5v-393q1 -19 8 -31t17 -18.5t33 -10t42 -3.5t57 -1v-63q-164 6 -233 6q-90 0 -234 -6v63 q107 0 132.5 13.5t25.5 81.5v473q0 50 -6 87.5t-21.5 69.5t-45.5 49t-74 17q-50 0 -99 -20.5t-90.5 -59.5t-67.5 -102.5t-26 -141.5v-372q0 -68 25.5 -81.5t132.5 -13.5v-63q-163 6 -234 6q-89 0 -233 -6z" />
<glyph unicode="o" d="M59 436q0 129 62 240t170 176.5t235 65.5q124 0 231 -64t170.5 -175.5t63.5 -242.5q0 -190 -136.5 -324.5t-330.5 -134.5q-124 0 -231 61t-170.5 167t-63.5 231zM236 455q0 -61 2 -100t15 -94t38 -95q36 -61 97.5 -96t137.5 -35q69 0 133 34t105 101q23 41 35.5 100 t14 94.5t1.5 90.5q0 56 -2 93t-13.5 90t-33.5 93q-34 58 -97 96.5t-145 38.5q-65 0 -130 -32t-107 -103q-23 -39 -35.5 -95.5t-14 -91t-1.5 -89.5z" />
<glyph unicode="p" horiz-adv-x="1169" d="M61 -334q107 0 132.5 13t25.5 81v959q0 36 -3.5 53t-21.5 29.5t-46.5 15t-86.5 2.5v64l304 22v-129q120 129 290 129q182 0 312.5 -135t130.5 -328q0 -130 -66.5 -238t-173.5 -167.5t-229 -59.5q-62 0 -116.5 21.5t-80 42.5t-61.5 57v-338q0 -68 25 -81t132 -13v-63 q-163 6 -233 6q-90 0 -234 -6v63zM371 238q0 -31 3.5 -43t22.5 -41q39 -57 96 -91t123 -34q126 0 216 120t90 293q0 167 -82 286.5t-201 119.5q-73 0 -146 -38.5t-122 -121.5v-450z" />
<glyph unicode="q" horiz-adv-x="1110" d="M70 440q0 130 66 238t172 167.5t227 59.5q177 0 284 -180l78 180h51v-1145q0 -68 25.5 -81t132.5 -13v-63q-163 6 -234 6q-89 0 -233 -6v63q107 0 132.5 13t25.5 81v361q-112 -144 -279 -144q-119 0 -222 61t-164.5 168t-61.5 234zM246 440q0 -172 82.5 -291.5 t197.5 -119.5q79 0 142.5 42t103.5 111q22 39 26.5 55t4.5 46v282q0 60 -29 123.5t-89.5 111.5t-135.5 48q-122 0 -212.5 -117t-90.5 -291z" />
<glyph unicode="r" horiz-adv-x="823" d="M61 0v63q107 0 132.5 13.5t25.5 81.5v547q0 75 -27 94.5t-131 19.5v64l291 22v-213h2q37 99 102 156t154 57q67 0 110.5 -38t43.5 -89q0 -43 -27.5 -67.5t-62.5 -24.5q-37 0 -63.5 25t-26.5 65q0 22 9 40.5t16.5 26t11.5 9.5v2q-48 0 -87.5 -17t-65.5 -44t-45.5 -64.5 t-30 -72.5t-17 -74t-8.5 -65t-2 -48v-307q0 -27 2 -40t9.5 -27t24.5 -19.5t45 -9t74 -3.5h41v-63l-260 6q-76 0 -240 -6z" />
<glyph unicode="s" horiz-adv-x="829" d="M70 31v262q0 23 1 31.5t7 15t20 6.5q12 0 18.5 -5t8.5 -9.5t6 -18.5q9 -41 19 -73t32.5 -74t51.5 -69.5t76.5 -47.5t107.5 -20q12 0 22.5 0.5t36 4t46.5 9.5t46.5 19.5t42.5 32t29 48t12 66.5q0 76 -71 133q-31 24 -63.5 34t-121.5 27q-94 16 -149 35t-103 62 q-75 72 -75 164q0 43 15.5 84t51 81t105.5 64.5t166 24.5q115 0 196 -58q12 10 35 33q27 25 41 25q17 0 21 -11.5t4 -42.5v-196q0 -23 -1 -32t-7.5 -15.5t-20.5 -6.5q-13 0 -19 5t-7.5 10.5t-2.5 21.5q-1 17 -2.5 29t-8 37t-15.5 43t-27.5 40.5t-42 37t-61 24.5t-82.5 10 q-126 0 -180 -45t-54 -106q0 -116 203 -154q95 -18 133.5 -27t83 -29.5t78.5 -53.5q40 -42 63 -87t23 -108q0 -54 -18.5 -102.5t-56.5 -90.5t-106 -67t-159 -25q-139 0 -232 91q-23 -23 -41 -50q-28 -30 -35 -35.5t-16 -5.5q-12 0 -17.5 7.5t-6 15.5t-0.5 31z" />
<glyph unicode="t" horiz-adv-x="819" d="M39 819v51q71 2 125.5 38.5t85 95t45.5 123t16 133.5h58v-377h297v-64h-297v-567q0 -21 1 -38t8 -53.5t20 -61t41 -44.5t67 -20q59 0 98 58t39 167v111h57v-117q0 -116 -55 -196.5t-153 -80.5q-36 0 -70.5 6.5t-73 25.5t-66.5 48.5t-46.5 80t-18.5 116.5v565h-178z" />
<glyph unicode="u" horiz-adv-x="1169" d="M72 819v64l309 22v-678q0 -39 2.5 -63.5t12 -53t28.5 -44.5t53 -26.5t84 -10.5q110 0 180 88t70 225v363q0 75 -27 94.5t-131 19.5v64l310 22v-727q0 -75 26.5 -95t130.5 -20v-63l-303 -23v170h-2q-82 -170 -266 -170q-144 0 -225 56q-64 49 -79.5 110t-15.5 181v307v61 t-2.5 44.5t-5 35t-12 21t-18 15.5t-28.5 6.5t-38.5 4.5h-52.5z" />
<glyph unicode="v" horiz-adv-x="1110" d="M41 819v64q74 -6 205 -6q93 0 225 6v-64q-22 0 -35.5 -1t-34.5 -5.5t-32 -16t-11 -30.5q0 -17 11 -39l233 -559l213 516q10 29 10 47q0 39 -24.5 62t-69.5 26v64q85 -6 178 -6q97 0 158 6v-64q-62 -2 -109 -30.5t-77 -100.5l-279 -672q-16 -39 -49 -39t-47 39l-299 727 q-22 53 -53 64.5t-113 11.5z" />
<glyph unicode="w" horiz-adv-x="1519" d="M41 819v64q70 -6 197 -6l223 6v-64q-119 0 -119 -55q0 -12 12 -43l195 -533l168 461l10 29q0 7 -16.5 51t-28.5 59q-16 20 -44 25.5t-85 5.5v64q66 -6 188 -6q117 0 211 6v-64q-33 0 -55 -2.5t-41.5 -16t-19.5 -38.5q0 -12 10 -39l207 -561l188 512q10 23 10 47 q0 37 -28 67t-88 31v64q82 -6 188 -6q72 0 154 6v-64q-22 -1 -39.5 -5t-44.5 -16t-49.5 -41t-38.5 -73l-244 -666q-12 -30 -24 -36q-8 -5 -21 -5q-14 0 -24.5 7.5t-13.5 14t-9 21.5l-211 574l-209 -574q-4 -11 -6.5 -15.5t-8 -12.5t-13.5 -11.5t-19 -3.5t-18.5 2.5t-13.5 12 t-7.5 13t-7.5 18.5l-265 722q-18 50 -44.5 62t-104.5 12z" />
<glyph unicode="x" horiz-adv-x="1110" d="M29 0v63q157 0 262 127l198 240l-210 264q-28 36 -40.5 52t-32 34t-29.5 22.5t-34 10t-43.5 6t-60.5 0.5v64q36 -3 86 -4.5t83 -1.5h32q106 0 223 6v-64q-33 -1 -51.5 -16t-18.5 -35q0 -13 19 -37l159 -203l131 162q29 35 29 68q0 54 -57 61v64q82 -6 196 -6q115 0 174 6 v-64q-87 -1 -146 -32t-112 -89l-176 -215q1 -4 15 -22l268 -340q21 -27 52.5 -40.5t58 -15.5t77.5 -2v-63q-36 3 -86 4.5t-82 1.5h-32q-95 0 -224 -6v63q34 1 52 17t18 35q0 10 -6 19.5t-33 41.5l-162 207q-120 -143 -153 -186q-31 -37 -31 -72q0 -55 57 -62v-63 q-99 6 -196 6q-115 0 -174 -6z" />
<glyph unicode="y" horiz-adv-x="1110" d="M41 -252q0 41 24.5 64.5t63.5 23.5q36 0 61 -23.5t25 -62.5q0 -24 -9 -42.5t-22.5 -27.5t-24 -13t-18.5 -5q47 -31 92 -31q38 0 71.5 16.5t56 38t45.5 60t35 64.5t30 69l51 121l-323 760q-18 39 -49 49t-107 10v64q80 -6 203 -6l227 6v-64q-23 0 -37 -1t-34.5 -5.5 t-31 -16t-10.5 -30.5q1 -14 13 -43l229 -537l207 488q16 32 16 59q0 6 -0.5 12t-5.5 20t-14 24.5t-28.5 19.5t-45.5 10v64q85 -6 178 -6q90 0 156 6v-64q-46 -1 -80.5 -14.5t-56.5 -39t-32 -42.5t-22 -45l-370 -866q-43 -99 -111.5 -165.5t-159.5 -66.5q-79 0 -135.5 49.5 t-56.5 118.5z" />
<glyph unicode="z" horiz-adv-x="935" d="M59 33q0 13 19 37l577 761h-229q-70 0 -117 -10t-78 -29t-48.5 -55.5t-25.5 -79t-12 -110.5h-57l23 336h673q22 0 31 -1t17 -8t8 -22q0 -11 -19 -35l-575 -760h239q55 0 96.5 7t72 18.5t52 34t35.5 46t23 62t14 74t10 90.5h58l-35 -389h-696q-23 0 -32 1t-16.5 8.5 t-7.5 23.5z" />
<glyph unicode="{" d="M150 512q0 14 8.5 20.5t17.5 6.5q131 7 205 71q51 47 61.5 92t10.5 177v401q1 109 118.5 182.5t286.5 73.5q16 0 23 -1t13.5 -7t6.5 -19q0 -20 -20 -24q-43 -3 -66.5 -6t-68.5 -21t-80 -49q-49 -42 -58.5 -88t-9.5 -205v-307q0 -27 -0.5 -42t-5 -44t-13 -47.5t-26 -44.5 t-42 -45t-63.5 -39t-88 -35q93 -28 157.5 -80.5t78.5 -132.5q2 -18 2 -178v-307q0 -78 6 -103q21 -75 91.5 -120.5t170.5 -51.5q11 0 17.5 -1t12 -6.5t5.5 -16.5q0 -13 -6.5 -19t-13.5 -7t-23 -1q-57 0 -136 15t-144 55q-36 22 -61 47.5t-37.5 46t-18.5 50.5t-7 47.5 t-1 49.5v406q0 80 -4 96q-21 81 -92 130.5t-181 53.5q-9 0 -17.5 6.5t-8.5 20.5z" />
<glyph unicode="|" horiz-adv-x="585" d="M248 -440v1904q0 23 1.5 35t12 24.5t31.5 12.5q15 0 24.5 -6.5t13 -19.5t4.5 -22t1 -24v-1904q0 -15 -1 -24t-4.5 -22t-13 -19.5t-24.5 -6.5q-21 0 -31.5 12.5t-12 24.5t-1.5 35z" />
<glyph unicode="}" d="M150 -485q0 20 20 24q43 3 66.5 6t68.5 21t80 49q49 42 58.5 88t9.5 205v307q0 24 0.5 36.5t3 38t9 41.5t17 39.5t28 40.5t42 36.5t59.5 35.5t78 29q-93 28 -157 80.5t-78 132.5q-2 18 -2 178v307q0 74 -7 103q-21 75 -91.5 120.5t-170.5 51.5q-2 0 -6 0.5t-5.5 0.5t-5 1 t-5 1.5t-4 1.5t-3.5 3t-2.5 4t-2 5t-0.5 7q0 13 7 19t14.5 7t23.5 1q29 0 66 -3.5t101 -20.5t111 -46q36 -22 61 -47.5t37.5 -46t18.5 -50.5t7 -47.5t1 -49.5v-406q0 -80 4 -96q21 -81 91.5 -130.5t180.5 -53.5q9 0 18 -7t9 -20t-9 -20t-18 -7q-130 -7 -204 -71 q-51 -47 -61.5 -92t-10.5 -177v-401q-1 -73 -57 -132t-147.5 -91.5t-198.5 -32.5q-16 0 -23.5 1t-14.5 7t-7 19z" />
<glyph unicode="~" horiz-adv-x="1138" d="M0 430l111 90q45 37 116 72q83 37 150 37q38 0 77.5 -11.5t65 -24t62.5 -34.5q49 -28 72 -39.5t63 -24t78 -12.5q139 0 313 146l29 -35l-111 -90q-44 -36 -117 -72q-83 -37 -149 -37q-38 0 -77.5 11.5t-65 24t-62.5 34.5q-49 28 -72 39.5t-63 24t-78 12.5 q-139 0 -313 -146z" />
<glyph unicode="&#xa0;" />
<glyph unicode="&#xa1;" horiz-adv-x="585" d="M180 -336l80 930q1 17 3 24.5t8.5 13t19.5 5.5q19 0 24 -9t7 -34l77 -907l2 -23q0 -50 -34 -78t-76 -28t-76.5 28t-34.5 78zM180 913q0 46 32.5 78.5t78.5 32.5t78 -32.5t32 -78.5t-32 -78t-78 -32t-78.5 32t-32.5 78z" />
<glyph unicode="&#xa2;" horiz-adv-x="935" d="M70 442q0 183 117.5 319.5t295.5 153.5v29q0 12 9.5 21.5t21.5 9.5q13 0 22 -9.5t9 -21.5v-26q132 -3 219.5 -59t87.5 -146q0 -46 -27.5 -72.5t-68.5 -26.5q-40 0 -67 27.5t-27 67.5q0 41 23.5 65t59.5 31q-74 49 -200 55v-825q86 0 159.5 47.5t106.5 146.5q11 33 18 36 q4 3 17 3q28 0 28 -24q0 -9 -8 -34t-31.5 -64.5t-57.5 -75t-95.5 -63t-136.5 -30.5v-38q0 -12 -9 -21.5t-22 -9.5q-12 0 -21.5 9.5t-9.5 21.5v41q-171 15 -292 146.5t-121 315.5zM246 444q0 -179 68.5 -277.5t168.5 -123.5v813q-46 -10 -85.5 -36.5t-75 -73.5t-56 -124.5 t-20.5 -177.5z" />
<glyph unicode="&#xa3;" horiz-adv-x="1579" d="M129 170q0 98 91 156.5t214 58.5q96 0 199 -59q-7 68 -32.5 196t-29.5 148h-321v61h311q-12 73 -12 152q0 134 46.5 250.5t138.5 191t210 74.5q142 0 245 -91.5t103 -224.5q0 -38 -28 -66t-66 -28q-39 0 -66.5 27.5t-27.5 66.5t27.5 67t66.5 28q12 0 16 -2 q-31 75 -105 120t-165 45q-69 0 -119 -39.5t-76 -108t-37.5 -144.5t-11.5 -166q0 -62 11 -152h327v-61h-319q6 -35 25.5 -139.5t29 -175.5t10.5 -140q57 -45 85.5 -65.5t79 -51.5t96.5 -44t96 -13q104 0 178 74t74 180h57q0 -96 -22 -177t-74 -136.5t-127 -55.5q-37 0 -72 6 t-72.5 23.5t-61.5 29t-65.5 42.5t-56.5 42.5t-62 51t-57 47.5q-10 -57 -51 -99.5t-103.5 -66.5t-133.5 -35.5t-150 -11.5q-89 0 -151 63t-62 152zM186 170q0 -65 46 -111.5t110 -46.5q119 0 207 63t88 163v32q-104 58 -203 58q-101 0 -174.5 -40.5t-73.5 -117.5z" />
<glyph unicode="&#xa4;" horiz-adv-x="1636" d="M309 40.5q-2 11.5 4.5 23.5t12 18.5t16.5 17.5l154 154q-90 111 -90 258q0 144 92 260l-156 156q-11 11 -16.5 17.5t-12 18.5t-4.5 23.5t13 22.5t22 13.5t22 -3.5t18.5 -12.5t18.5 -18.5l156 -155q116 92 260 92q140 0 258 -90l154 153q12 12 18.5 17.5t18.5 12.5t23 4 t22 -15q11 -11 13 -22.5t-5 -23.5t-12.5 -18.5t-16.5 -17.5l-153 -154q94 -112 94 -260q0 -145 -92 -258l153 -154q11 -11 16.5 -17.5t12.5 -18.5t5 -23.5t-13 -22.5q-12 -12 -23 -15t-23 4t-17.5 12t-18.5 18l-154 153q-116 -92 -260 -92q-146 0 -262 92l-154 -153 q-13 -13 -19 -18t-18 -12t-22.5 -4t-21.5 15q-11 11 -13 22.5zM492 512q0 -135 95.5 -231.5t231.5 -96.5q135 0 231.5 96.5t96.5 231.5t-96.5 231.5t-231.5 96.5q-136 0 -231.5 -96.5t-95.5 -231.5z" />
<glyph unicode="&#xa5;" horiz-adv-x="1579" d="M27 1335v64l270 -6q213 0 297 6v-64q-30 0 -49.5 -1t-42.5 -5.5t-35 -16t-12 -28.5q0 -11 18 -41l350 -545h70l315 498q21 33 23 49v10q0 36 -29.5 58t-83.5 22v64l232 -6q128 0 200 6v-64q-76 -1 -132 -24t-82.5 -50t-51.5 -67l-317 -496h297v-61h-336l-49 -78v-172h385 v-61h-385v-166q0 -42 7.5 -59.5t42 -27.5t111.5 -10h47v-63q-98 6 -299 6q-200 0 -296 -6v63h47q48 0 77.5 3.5t47 9t25.5 19.5t9.5 27t1.5 40v164h-385v61h385v172l-49 78h-336v61h295l-360 564q-29 44 -64 58.5t-125 14.5h-34z" />
<glyph unicode="&#xa6;" horiz-adv-x="585" d="M248 322q0 14 13 22t32 8q17 0 30 -8t13 -22v-762q0 -15 -1 -24t-4.5 -22t-13 -19.5t-24.5 -6.5q-21 0 -31.5 12.5t-12 24.5t-1.5 35v762zM248 702v762q0 23 1.5 35t12 24.5t31.5 12.5q15 0 24.5 -6.5t13 -19.5t4.5 -22t1 -24v-762q0 -14 -13 -22t-30 -8q-19 0 -32 8 t-13 22z" />
<glyph unicode="&#xa7;" horiz-adv-x="1021" d="M78 627q0 139 168 237q-84 108 -84 240q0 149 101.5 254.5t246.5 105.5q90 0 162.5 -54t111.5 -140.5t39 -186.5q0 -38 -28 -66t-66 -28t-66 28t-28 66t28 66.5t66 28.5q17 0 23 -2q-25 84 -90.5 137t-151.5 53q-96 0 -158.5 -78t-62.5 -184q0 -143 194 -246l189 -100 q119 -62 194.5 -155t75.5 -206q0 -142 -168 -237q84 -111 84 -240q0 -149 -101.5 -254.5t-246.5 -105.5q-90 0 -162.5 54t-111.5 140.5t-39 186.5q0 38 28 66t66 28t66 -28t28 -66t-28 -66.5t-66 -28.5q-17 0 -23 2q25 -84 90.5 -137t151.5 -53q96 0 158.5 78t62.5 184 q0 143 -194 246l-189 100q-119 62 -194.5 155t-75.5 206zM242 627q0 -71 49.5 -129t126.5 -97l188 -100q78 -45 127 -94q45 54 45 190q0 71 -49.5 129t-126.5 97l-188 100q-68 36 -127 92q-45 -54 -45 -188z" />
<glyph unicode="&#xa8;" d="M246 1237q0 41 29.5 69.5t70.5 28.5t69.5 -28.5t28.5 -69.5t-28.5 -70.5t-69.5 -29.5t-70.5 29.5t-29.5 70.5zM610 1237q0 41 29.5 69.5t71.5 28.5q41 0 69.5 -28.5t28.5 -69.5t-28.5 -70.5t-69.5 -29.5t-71 29.5t-30 70.5z" />
<glyph unicode="&#xa9;" horiz-adv-x="1398" d="M0 700q0 189 93.5 350t255 255t351.5 94q142 0 271.5 -55.5t223 -149t149 -223t55.5 -271.5q0 -190 -94 -351.5t-255 -255t-350 -93.5q-143 0 -272.5 55.5t-223 149t-149 223t-55.5 272.5zM86 700q0 -167 82 -308.5t223.5 -223.5t308.5 -82q125 0 238 48.5t195.5 130.5 t131 196t48.5 239q0 124 -48.5 238t-130.5 196t-196 130.5t-238 48.5q-125 0 -239 -48.5t-196 -131t-130.5 -195.5t-48.5 -238zM315 700q0 165 116.5 281.5t277.5 116.5q39 0 72 -8.5t61 -27.5t39.5 -28t33.5 -30l58 81q8 13 16 13q10 0 12.5 -6t2.5 -23v-256 q0 -18 -3 -23.5t-16 -5.5q-8 0 -11.5 3.5t-5.5 12.5q-1 3 -1 5q-18 126 -89.5 193t-160.5 67q-31 0 -65 -8t-76 -33t-74 -63.5t-54 -106t-22 -154.5t22 -155t54 -106t74 -62.5t76 -32.5t67 -8q59 0 113.5 26t95 84t45.5 138q0 16 14 16q17 0 17 -20q0 -104 -83.5 -191.5 t-211.5 -87.5q-160 0 -277 116t-117 283z" />
<glyph unicode="&#xaa;" horiz-adv-x="946" d="M74 942q0 49 38.5 98.5t123.5 83.5q119 49 337 58v47q0 87 -56 133.5t-130 46.5q-45 0 -96.5 -12.5t-81.5 -38.5q3 0 8 -1t18.5 -5.5t23.5 -11t18 -20t8 -30.5q0 -28 -22 -46.5t-56 -18.5q-36 0 -59 17.5t-23 49.5q0 67 77 109.5t189 42.5q141 0 232 -68q28 -21 44.5 -41 t23.5 -47t8 -44.5t1 -57.5v-250q0 -92 62 -92q61 0 61 88v78h49v-80q0 -40 -17 -69t-43 -42t-48.5 -18.5t-42.5 -5.5q-54 0 -90.5 32t-42.5 78q-11 -18 -27 -35.5t-43 -38t-69.5 -33t-92.5 -12.5q-47 0 -93.5 8.5t-90 25.5t-71 48.5t-27.5 73.5zM104 705q0 8 9.5 14t21.5 6 h676q12 0 21.5 -6t9.5 -14q0 -9 -9.5 -16t-21.5 -7h-676q-12 0 -21.5 7t-9.5 16zM211 942q0 -52 47 -85.5t111 -33.5q24 0 50.5 5.5t54 19t49.5 33.5t36 52t14 71v143q-184 -6 -273 -65t-89 -140z" />
<glyph unicode="&#xab;" horiz-adv-x="1169" d="M233 496q0 9 7 16q199 193 297 463q3 14 20 14h6q9 0 16 -6.5t7 -15.5v-4q-58 -246 -197 -467q139 -224 197 -467v-6q0 -9 -7 -16t-16 -7h-6q-17 0 -20 14q-95 266 -297 465q-7 7 -7 17zM584 496q0 10 6 16q199 193 297 463q3 14 20 14h6q9 0 16 -6.5t7 -15.5v-4 q-58 -246 -197 -467q139 -224 197 -467v-6q0 -9 -7 -16t-16 -7h-6q-17 0 -20 14q-95 266 -297 465q-6 6 -6 17z" />
<glyph unicode="&#xac;" horiz-adv-x="1636" d="M117 723q0 19 12 31t31 12h1315q19 0 31 -12t12 -31v-420q0 -19 -12 -31t-31 -12t-31 12t-12 31v377h-1272q-19 0 -31 12t-12 31z" />
<glyph unicode="&#xad;" horiz-adv-x="702" d="M23 379v127h561v-127h-561z" />
<glyph unicode="&#xae;" horiz-adv-x="1398" d="M0 700q0 189 93.5 350t255 255t351.5 94q142 0 271.5 -55.5t223 -149t149 -223t55.5 -271.5q0 -190 -94 -351.5t-255 -255t-350 -93.5q-143 0 -272.5 55.5t-223 149t-149 223t-55.5 272.5zM86 700q0 -167 82 -308.5t223.5 -223.5t308.5 -82q125 0 238 48.5t195.5 130.5 t131 196t48.5 239q0 124 -48.5 238t-130.5 196t-196 130.5t-238 48.5q-125 0 -239 -48.5t-196 -131t-130.5 -195.5t-48.5 -238zM340 338v33h25q61 0 74.5 10t13.5 43v575q0 34 -13.5 44t-74.5 10h-25v32h350q122 0 207.5 -57t85.5 -139q0 -61 -52.5 -108t-135.5 -72 q43 -14 71 -33.5t41.5 -47t18 -47t8.5 -53.5q22 -134 27 -147q18 -41 55 -41q29 0 50 23.5t24 72.5q4 15 9 18q3 1 7 1q14 0 14 -21q0 -13 -4.5 -30.5t-15 -39.5t-33.5 -36.5t-55 -14.5q-78 0 -129 41q-36 28 -45 62.5t-9 99.5t-4.5 86t-27.5 49q-4 6 -14.5 15t-39.5 20.5 t-65 11.5h-131v-274q0 -33 13.5 -43t74.5 -10h24v-33l-159 2zM547 725h127q198 0 198 164q0 34 -8.5 60.5t-20.5 43.5t-33.5 29t-38.5 18t-45.5 9t-43.5 3.5t-43 0.5q-60 0 -70 -2q-14 -3 -18 -11.5t-4 -31.5v-283z" />
<glyph unicode="&#xaf;" d="M145 1200v72h760v-72h-760z" />
<glyph unicode="&#xb0;" horiz-adv-x="788" d="M102 1108q0 120 86 205.5t207 85.5t206 -85.5t85 -205.5q0 -122 -85 -207.5t-206 -85.5t-207 85.5t-86 207.5zM188 1108q0 -86 60.5 -146.5t146.5 -60.5q85 0 145 60.5t60 146.5q0 85 -60 145t-145 60q-86 0 -146.5 -60t-60.5 -145z" />
<glyph unicode="&#xb1;" horiz-adv-x="1636" d="M117 45q0 15 6.5 24.5t19 13t21.5 4.5t24 1h586v569h-586q-13 0 -20.5 0.5t-18.5 2.5t-17 6.5t-10.5 13.5t-4.5 22q0 15 6.5 24.5t19 13t21.5 4.5t24 1h586v586q0 15 1 24t4.5 22t13 19.5t24.5 6.5q21 0 31.5 -12.5t12 -24.5t1.5 -35v-586h584q23 0 35 -1.5t24.5 -12 t12.5 -31.5q0 -15 -6.5 -24.5t-19.5 -13t-22 -4.5t-24 -1h-584v-569h584q23 0 35 -1.5t24.5 -12t12.5 -31.5q0 -15 -6.5 -24.5t-19.5 -13t-22 -4.5t-24 -1h-1258q-13 0 -20.5 0.5t-18.5 2.5t-17 6.5t-10.5 13.5t-4.5 22z" />
<glyph unicode="&#xb2;" horiz-adv-x="755" d="M76 627q0 22 2 28t14 15l268 243q36 32 60.5 56.5t57.5 64t50 83t17 87.5q0 35 -11 68.5t-33 65t-63 50.5t-94 19q-66 0 -125 -32.5t-84 -94.5q4 2 17 2q34 0 55.5 -18.5t21.5 -46.5q0 -30 -24.5 -47t-52.5 -17q-7 0 -17.5 2.5t-25 8.5t-24 21t-9.5 36q0 88 80.5 155.5 t203.5 67.5q137 0 229.5 -67.5t92.5 -172.5q0 -27 -7 -51.5t-15.5 -44t-33 -46t-43 -44.5t-63 -52.5t-74.5 -56.5t-96 -69l-147 -115h264q131 0 139 10q22 25 33 109h43l-43 -217h-563z" />
<glyph unicode="&#xb3;" horiz-adv-x="755" d="M63 793q0 36 24.5 53.5t57.5 17.5q32 0 55 -18.5t23 -48.5q0 -31 -27.5 -50.5t-66.5 -15.5q24 -32 61 -53.5t75 -30t61.5 -11.5t40.5 -3q69 0 122.5 48t53.5 155q0 92 -46 147t-139 55h-69q-21 0 -29 3t-8 14q0 14 24 14q17 0 54 4q28 1 45.5 4t45 17t48.5 39 q45 57 45 143q0 25 -6 46t-20 43t-44.5 35t-74.5 13q-58 0 -115.5 -20t-85.5 -56q86 0 86 -61q0 -26 -21 -44t-53 -18q-33 0 -54.5 17.5t-21.5 46.5q0 71 77 118.5t192 47.5q116 0 197 -49t81 -119q0 -67 -51 -126.5t-149 -90.5q106 -20 173.5 -82t67.5 -141 q0 -96 -92.5 -166t-228.5 -70q-128 0 -218 56t-90 137z" />
<glyph unicode="&#xb4;" d="M395 1083l250 310q11 14 17 20.5t18 11.5t29 5q29 0 53 -23t24 -57q0 -36 -43 -68l-309 -242z" />
<glyph unicode="&#xb5;" horiz-adv-x="1169" d="M72 -334h38t30.5 1t26 2t19.5 3.5t16 5.5t11 9t8.5 12.5t4 16.5t3 21.5t0.5 26.5v934q0 55 -10 77.5t-41.5 32t-105.5 9.5v64l309 22v-674q0 -40 2 -63.5t11.5 -53t28 -45.5t53 -27t85.5 -11q108 0 179 86.5t71 228.5v354q0 78 -26 98.5t-132 20.5v64l310 22v-721 q0 -55 10 -77.5t41.5 -32t105.5 -9.5v-63l-303 -23v170h-2q-83 -170 -266 -170q-97 0 -168 27v-240q0 -17 1.5 -29t2.5 -22.5t7 -17.5t9.5 -12.5t15.5 -8t19.5 -4.5t27.5 -3t33 -1h42v-63l-234 6q-98 0 -233 -6v63z" />
<glyph unicode="&#xb6;" horiz-adv-x="1286" d="M117 944q0 133 73.5 244t193.5 172t257 61h512q23 0 35 -1.5t24.5 -12t12.5 -31.5q0 -15 -6.5 -24.5t-19.5 -13t-22 -4.5t-24 -1h-104v-1659q0 -15 -1 -24t-4.5 -21.5t-13 -19t-24.5 -6.5q-13 0 -22 4.5t-13.5 10.5t-6.5 17t-2.5 18.5t-0.5 20.5v1659h-148v-1659 q0 -15 -1 -24t-4.5 -21.5t-13 -19t-24.5 -6.5q-13 0 -22 4.5t-13.5 10.5t-6.5 17t-2.5 18.5t-0.5 20.5v793q-84 3 -167 22.5t-163.5 58.5t-141.5 93t-98.5 132.5t-37.5 170.5z" />
<glyph unicode="&#xb7;" horiz-adv-x="1636" d="M709 700q0 45 32.5 78t77.5 33t78 -33t33 -78q0 -46 -32.5 -78t-78.5 -32t-78 32t-32 78z" />
<glyph unicode="&#xb8;" horiz-adv-x="935" d="M186 -352h29q53 0 82 0.5t78.5 2.5t77.5 7t59 13.5t45 23t14 33.5q0 79 -161 79v203h114v-145q92 0 158 -35t66 -102q0 -20 -7.5 -37t-24 -30t-34.5 -23.5t-47.5 -17.5t-53.5 -12.5t-62.5 -8.5t-65.5 -5t-70.5 -3t-69 -1h-69.5h-58v58z" />
<glyph unicode="&#xb9;" horiz-adv-x="774" d="M137 1327v39q183 0 273 78q28 0 33.5 -5t5.5 -28v-686q0 -26 6.5 -36.5t37 -17.5t97.5 -7h47v-37q-53 4 -246 4t-246 -4v37h48q67 0 97.5 7t37 17.5t6.5 36.5v635q-78 -33 -197 -33z" />
<glyph unicode="&#xba;" horiz-adv-x="882" d="M49 1108q0 137 115 236.5t278 99.5q160 0 276 -98t116 -238q0 -133 -115 -227.5t-279 -94.5q-160 0 -275.5 94t-115.5 228zM80 705q0 8 9.5 14t21.5 6h661q12 0 21.5 -6t9.5 -14q0 -9 -9.5 -16t-21.5 -7h-661q-12 0 -21.5 7t-9.5 16zM199 1120q0 -45 1.5 -70.5t12 -64.5 t31.5 -67q31 -42 83 -66.5t115 -24.5q58 0 111.5 24t87.5 71q43 63 43 198q0 131 -41 195q-30 40 -82.5 67t-120.5 27q-54 0 -108.5 -22.5t-89.5 -71.5q-43 -59 -43 -195z" />
<glyph unicode="&#xbb;" horiz-adv-x="1169" d="M233 23v6q58 243 197 467q-139 221 -197 467v4q0 9 7 15.5t16 6.5h6q18 0 21 -14q98 -270 297 -463q6 -6 6 -16q0 -11 -6 -17q-202 -199 -297 -465q-3 -14 -21 -14h-6q-9 0 -16 7t-7 16zM584 23v6q58 245 196 467q-138 219 -196 467v4q0 9 6.5 15.5t15.5 6.5h6 q18 0 21 -14q98 -270 297 -463q6 -6 6 -16q0 -11 -6 -17q-202 -199 -297 -465q-3 -14 -21 -14h-6q-9 0 -15.5 7t-6.5 16z" />
<glyph unicode="&#xbc;" horiz-adv-x="1736" d="M137 1327v39q183 0 273 78q28 0 33.5 -5t5.5 -28v-686q0 -26 6.5 -36.5t37 -17.5t97.5 -7h47v-37q-53 4 -246 4t-246 -4v37h48q67 0 97.5 7t37 17.5t6.5 36.5v635q-78 -33 -197 -33zM492 41q0 13 6 22l841 1319q15 19 37 19q18 0 30.5 -12.5t12.5 -30.5q0 -14 -6 -23 l-844 -1317q-10 -20 -34 -20q-19 0 -31 12t-12 31zM928 203v39l461 571q9 13 13.5 15.5t18.5 2.5q19 0 23 -5.5t4 -26.5v-557h151v-39h-151v-107q0 -25 6 -35.5t30.5 -16t80.5 -5.5h30v-39l-204 4l-207 -4v39h33q55 0 79 5.5t29.5 15.5t5.5 36v107h-403zM975 242h364v454z " />
<glyph unicode="&#xbd;" horiz-adv-x="1736" d="M137 1327v39q183 0 273 78q28 0 33.5 -5t5.5 -28v-686q0 -26 6.5 -36.5t37 -17.5t97.5 -7h47v-37q-53 4 -246 4t-246 -4v37h48q67 0 97.5 7t37 17.5t6.5 36.5v635q-78 -33 -197 -33zM403 41q0 9 9 22l841 1319q11 19 35 19q19 0 31 -12t12 -31q0 -14 -6 -23l-842 -1317 q-13 -20 -37 -20q-18 0 -30.5 12.5t-12.5 30.5zM993 0q0 22 2.5 28t14.5 17l270 242q86 81 118 123q66 87 66 170q0 34 -11 67t-33.5 64t-63.5 50t-94 19q-66 0 -125 -32.5t-84 -94.5q6 2 16 2q35 0 56.5 -17.5t21.5 -45.5q0 -31 -24.5 -48.5t-53.5 -17.5q-7 0 -17.5 2.5 t-25 8.5t-24 21t-9.5 36q0 89 81 157t204 68q137 0 229 -67t92 -172q0 -21 -4 -40.5t-9 -36t-20 -36.5t-24.5 -33.5t-36.5 -37.5t-42.5 -37.5t-55.5 -43.5t-63 -46.5t-76 -55.5l-146 -115h262q131 0 140 11q6 7 12.5 24t10 31t8 33t4.5 20h40l-40 -217h-566z" />
<glyph unicode="&#xbe;" horiz-adv-x="1736" d="M127 793q0 36 24.5 53.5t57.5 17.5q32 0 55 -18.5t23 -48.5q0 -31 -27.5 -50.5t-66.5 -15.5q24 -32 60.5 -53.5t75 -30t61.5 -11.5t40 -3q69 0 122.5 48t53.5 155q0 92 -45.5 147t-138.5 55h-70q-21 0 -29 3t-8 14q0 14 25 14q16 0 53 4q28 1 45.5 4t45 17t48.5 39 q46 58 46 143q0 55 -32 96t-114 41q-58 0 -115.5 -20t-85.5 -56q86 0 86 -61q0 -27 -20.5 -44.5t-52.5 -17.5q-33 0 -54.5 17.5t-21.5 46.5q0 71 76.5 118.5t191.5 47.5q116 0 197.5 -49t81.5 -119q0 -67 -51.5 -126.5t-149.5 -90.5q107 -20 174.5 -82t67.5 -141 q0 -95 -93 -165.5t-229 -70.5q-128 0 -217.5 56t-89.5 137zM492 41q0 13 6 22l841 1319q15 19 37 19q18 0 30.5 -12.5t12.5 -30.5q0 -14 -6 -23l-844 -1317q-10 -20 -34 -20q-19 0 -31 12t-12 31zM928 203v39l461 571q9 13 13.5 15.5t18.5 2.5q19 0 23 -5.5t4 -26.5v-557 h151v-39h-151v-107q0 -25 6 -35.5t30.5 -16t80.5 -5.5h30v-39l-204 4l-207 -4v39h33q55 0 79 5.5t29.5 15.5t5.5 36v107h-403zM975 242h364v454z" />
<glyph unicode="&#xbf;" horiz-adv-x="993" d="M117 -141q0 129 102 211q219 182 219 452v64q0 22 1 30.5t7.5 14.5t20.5 6q13 0 20 -6t8 -11.5t1 -15.5v-61q0 -181 -39.5 -294t-120.5 -224q-43 -61 -43 -181q0 -27 0.5 -43t4 -41.5t10 -41t19.5 -34t31.5 -29t47 -17.5t65.5 -7q94 0 184.5 32.5t132.5 96.5 q-39 0 -71.5 24t-32.5 75q0 41 27 67.5t67 26.5t68 -25t28 -75q0 -119 -115.5 -196t-291.5 -77q-97 0 -168 24.5t-109 66.5t-55.5 88.5t-17.5 99.5zM356 913q0 46 32.5 78.5t78.5 32.5t78.5 -32.5t32.5 -78.5t-32.5 -78t-78.5 -32t-78.5 32t-32.5 78z" />
<glyph unicode="&#xc0;" horiz-adv-x="1579" d="M70 0v63q57 1 98.5 13t66.5 34t39 43.5t25 51.5l440 1216q10 28 18 36.5t31 8.5t32 -9.5t18 -33.5l465 -1284q11 -31 25.5 -46t48 -22.5t96.5 -7.5h34v-63l-268 6q-201 0 -293 -6v63q168 0 168 62q0 12 -10 37l-111 309h-530l-96 -264q-9 -23 -9 -39q0 -37 36.5 -70.5 t115.5 -34.5v-63l-231 6q-131 0 -209 -6zM485 535h484l-242 669zM502 1772q-7 36 17 65t61 29q7 0 12.5 -1t11.5 -4.5t8.5 -5.5t10.5 -8.5t10 -7.5l299 -262l-31 -49l-346 184q-26 14 -38 26.5t-15 33.5z" />
<glyph unicode="&#xc1;" horiz-adv-x="1579" d="M70 0v63q57 1 98.5 13t66.5 34t39 43.5t25 51.5l440 1216q10 28 18 36.5t31 8.5t32 -9.5t18 -33.5l465 -1284q11 -31 25.5 -46t48 -22.5t96.5 -7.5h34v-63l-268 6q-201 0 -293 -6v63q168 0 168 62q0 12 -10 37l-111 309h-530l-96 -264q-9 -23 -9 -39q0 -37 36.5 -70.5 t115.5 -34.5v-63l-231 6q-131 0 -209 -6zM485 535h484l-242 669zM645 1577l299 262q3 2 8.5 6.5t8 6.5t8 5.5t9 5t8.5 2.5t11 1q37 0 60.5 -28.5t17.5 -65.5q-3 -21 -15 -33.5t-38 -26.5l-346 -184z" />
<glyph unicode="&#xc2;" horiz-adv-x="1579" d="M70 0v63q57 1 98.5 13t66.5 34t39 43.5t25 51.5l440 1216q10 28 18 36.5t31 8.5t32 -9.5t18 -33.5l465 -1284q11 -31 25.5 -46t48 -22.5t96.5 -7.5h34v-63l-268 6q-201 0 -293 -6v63q168 0 168 62q0 12 -10 37l-111 309h-530l-96 -264q-9 -23 -9 -39q0 -37 36.5 -70.5 t115.5 -34.5v-63l-231 6q-131 0 -209 -6zM479 1540l309 240l310 -240l-25 -33l-287 135l-286 -135zM485 535h484l-242 669z" />
<glyph unicode="&#xc3;" horiz-adv-x="1579" d="M70 0v63q57 1 98.5 13t66.5 34t39 43.5t25 51.5l440 1216q10 28 18 36.5t31 8.5t32 -9.5t18 -33.5l465 -1284q11 -31 25.5 -46t48 -22.5t96.5 -7.5h34v-63l-268 6q-201 0 -293 -6v63q168 0 168 62q0 12 -10 37l-111 309h-530l-96 -264q-9 -23 -9 -39q0 -37 36.5 -70.5 t115.5 -34.5v-63l-231 6q-131 0 -209 -6zM438 1542q92 100 132.5 131t93.5 31q43 0 122 -41q95 -53 148 -53q44 0 81.5 23.5t84.5 70.5l37 -35q-92 -100 -132.5 -131t-93.5 -31q-44 0 -123 41q-53 29 -84.5 41.5t-62.5 12.5q-43 0 -80.5 -23.5t-85.5 -71.5zM485 535h484 l-242 669z" />
<glyph unicode="&#xc4;" horiz-adv-x="1579" d="M70 0v63q57 1 98.5 13t66.5 34t39 43.5t25 51.5l440 1216q10 28 18 36.5t31 8.5t32 -9.5t18 -33.5l465 -1284q11 -31 25.5 -46t48 -22.5t96.5 -7.5h34v-63l-268 6q-201 0 -293 -6v63q168 0 168 62q0 12 -10 37l-111 309h-530l-96 -264q-9 -23 -9 -39q0 -37 36.5 -70.5 t115.5 -34.5v-63l-231 6q-131 0 -209 -6zM475 1608q0 41 29.5 69.5t70.5 28.5t70 -28.5t29 -69.5t-29 -71t-70 -30t-70.5 30t-29.5 71zM485 535h484l-242 669zM905 1608q0 41 29.5 69.5t71.5 28.5q41 0 69.5 -28.5t28.5 -69.5q0 -42 -28.5 -71.5t-69.5 -29.5t-71 30t-30 71z " />
<glyph unicode="&#xc5;" horiz-adv-x="1579" d="M70 0v63q57 1 98.5 13t66.5 34t39 43.5t25 51.5l440 1216q10 28 18 36.5t31 8.5t32 -9.5t18 -33.5l465 -1284q11 -31 25.5 -46t48 -22.5t96.5 -7.5h34v-63l-268 6q-201 0 -293 -6v63q168 0 168 62q0 12 -10 37l-111 309h-530l-96 -264q-9 -23 -9 -39q0 -37 36.5 -70.5 t115.5 -34.5v-63l-231 6q-131 0 -209 -6zM485 535h484l-242 669zM584 1649q0 72 58.5 125t145.5 53q85 0 145 -53t60 -129q0 -72 -59 -125.5t-146 -53.5q-85 0 -144.5 53.5t-59.5 129.5zM655 1647q0 -115 133 -115q134 0 134 115q0 114 -134 114q-133 0 -133 -114z" />
<glyph unicode="&#xc6;" horiz-adv-x="1900" d="M70 0v63q57 0 99.5 12t68 34.5t39.5 44.5t26 53l424 1126q-13 0 -43 1t-41 1h-92v64h1173l58 -461h-58q-8 65 -15.5 108.5t-20 89.5t-30 74t-43.5 54.5t-62 40.5t-84 22t-111 8h-209q-69 0 -84.5 -14.5t-15.5 -69.5v-546h180q59 0 97.5 9t62.5 25t36 47.5t15.5 66 t3.5 91.5h57v-543h-57q0 72 -6 112t-28 72t-65 44t-116 12h-180v-494q0 -55 15.5 -69.5t84.5 -14.5h205q50 0 91.5 4t76 14t62.5 22t50.5 32.5t39.5 40.5t31.5 51.5t24.5 60t20 71t16.5 79t15.5 90.5h57l-88 -528h-1030v63q105 0 130.5 13.5t25.5 81.5v483h-342l-162 -430 q-11 -28 -11 -43q0 -48 41.5 -75.5t106.5 -29.5v-63l-231 6q-121 0 -209 -6zM559 705h318v528q0 16 -0.5 25t-5 23.5t-12.5 22.5t-25 15t-41 8z" />
<glyph unicode="&#xc7;" horiz-adv-x="1519" d="M117 700q0 152 59 290.5t158 237.5t234 157.5t282 58.5q59 0 114.5 -13.5t91.5 -29.5t78 -46t58 -45t47 -44l104 153q17 25 33 25q17 0 21 -11t4 -42v-480q0 -25 -1.5 -34t-8 -14t-23.5 -5q-19 0 -24.5 7t-8.5 30q-18 120 -65 215t-111.5 152.5t-138.5 87.5t-152 30 q-40 0 -83.5 -7.5t-98 -28t-103.5 -52t-97 -85.5t-82.5 -122.5t-56 -167.5t-21.5 -217t21 -217.5t56 -168.5t82.5 -122.5t97 -85.5t104 -52.5t98.5 -28t85 -7.5q64 0 128.5 18t124.5 56t107 91.5t77.5 130.5t35.5 167q1 10 1.5 13t3.5 9.5t8.5 8.5t15.5 2q14 0 20.5 -6.5 t7.5 -13t1 -19.5q0 -87 -36 -174.5t-99.5 -161.5t-161 -124t-211.5 -58v-92q92 0 157.5 -35t65.5 -102q0 -20 -7.5 -37t-24 -30t-34.5 -23.5t-47.5 -17.5t-53.5 -12.5t-62.5 -8.5t-65.5 -5t-70.5 -3t-69 -1h-69.5h-57v58h29q53 0 82 0.5t78.5 2.5t77.5 7t59 13.5t45 23 t14 33.5q0 79 -162 79v152q-134 13 -255.5 75.5t-211 159.5t-142 229t-52.5 277z" />
<glyph unicode="&#xc8;" horiz-adv-x="1431" d="M78 0v63h47q48 0 77.5 3.5t47.5 9t25.5 19.5t9.5 27t2 40v1069q0 27 -2 40t-9.5 27t-25.5 19t-47.5 8.5t-77.5 3.5h-47v64h1177l58 -461h-58q-9 77 -19.5 129.5t-30 100.5t-47.5 76.5t-71.5 50.5t-102 31t-138.5 9h-275q-69 0 -84.5 -14.5t-15.5 -69.5v-489h191 q76 0 120 11.5t67.5 43t30.5 72t7 112.5h57v-542h-57q0 48 -2.5 79t-11 60.5t-23.5 46.5t-40.5 30t-61 18t-86.5 5h-191v-545q0 -55 15.5 -69.5t84.5 -14.5h287q75 0 133 10t101.5 26.5t76 47.5t54.5 64t39 86.5t28 104t23 126.5h57l-88 -528h-1204zM430 1772q-7 36 17 65 t61 29q7 0 12.5 -1t11.5 -4.5t8.5 -5.5t10.5 -8.5t10 -7.5l299 -262l-31 -49l-346 184q-26 14 -38 26.5t-15 33.5z" />
<glyph unicode="&#xc9;" horiz-adv-x="1431" d="M78 0v63h47q48 0 77.5 3.5t47.5 9t25.5 19.5t9.5 27t2 40v1069q0 27 -2 40t-9.5 27t-25.5 19t-47.5 8.5t-77.5 3.5h-47v64h1177l58 -461h-58q-9 77 -19.5 129.5t-30 100.5t-47.5 76.5t-71.5 50.5t-102 31t-138.5 9h-275q-69 0 -84.5 -14.5t-15.5 -69.5v-489h191 q76 0 120 11.5t67.5 43t30.5 72t7 112.5h57v-542h-57q0 48 -2.5 79t-11 60.5t-23.5 46.5t-40.5 30t-61 18t-86.5 5h-191v-545q0 -55 15.5 -69.5t84.5 -14.5h287q75 0 133 10t101.5 26.5t76 47.5t54.5 64t39 86.5t28 104t23 126.5h57l-88 -528h-1204zM573 1577l299 262 q2 2 7 6t7.5 5.5t7 5t7.5 4.5t7.5 3t8.5 2.5t9 0.5q37 0 60.5 -28.5t17.5 -65.5q-3 -21 -15.5 -33.5t-38.5 -26.5l-346 -184z" />
<glyph unicode="&#xca;" horiz-adv-x="1431" d="M78 0v63h47q48 0 77.5 3.5t47.5 9t25.5 19.5t9.5 27t2 40v1069q0 27 -2 40t-9.5 27t-25.5 19t-47.5 8.5t-77.5 3.5h-47v64h1177l58 -461h-58q-9 77 -19.5 129.5t-30 100.5t-47.5 76.5t-71.5 50.5t-102 31t-138.5 9h-275q-69 0 -84.5 -14.5t-15.5 -69.5v-489h191 q76 0 120 11.5t67.5 43t30.5 72t7 112.5h57v-542h-57q0 48 -2.5 79t-11 60.5t-23.5 46.5t-40.5 30t-61 18t-86.5 5h-191v-545q0 -55 15.5 -69.5t84.5 -14.5h287q75 0 133 10t101.5 26.5t76 47.5t54.5 64t39 86.5t28 104t23 126.5h57l-88 -528h-1204zM408 1540l309 240 l309 -240l-25 -33l-286 135l-287 -135z" />
<glyph unicode="&#xcb;" horiz-adv-x="1431" d="M78 0v63h47q48 0 77.5 3.5t47.5 9t25.5 19.5t9.5 27t2 40v1069q0 27 -2 40t-9.5 27t-25.5 19t-47.5 8.5t-77.5 3.5h-47v64h1177l58 -461h-58q-9 77 -19.5 129.5t-30 100.5t-47.5 76.5t-71.5 50.5t-102 31t-138.5 9h-275q-69 0 -84.5 -14.5t-15.5 -69.5v-489h191 q76 0 120 11.5t67.5 43t30.5 72t7 112.5h57v-542h-57q0 48 -2.5 79t-11 60.5t-23.5 46.5t-40.5 30t-61 18t-86.5 5h-191v-545q0 -55 15.5 -69.5t84.5 -14.5h287q75 0 133 10t101.5 26.5t76 47.5t54.5 64t39 86.5t28 104t23 126.5h57l-88 -528h-1204zM403 1608 q0 41 29.5 69.5t71.5 28.5q41 0 69.5 -28.5t28.5 -69.5q0 -42 -28.5 -71.5t-69.5 -29.5t-71 30t-30 71zM834 1608q0 41 29.5 69.5t70.5 28.5t69.5 -28.5t28.5 -69.5q0 -42 -28.5 -71.5t-69.5 -29.5t-70.5 30t-29.5 71z" />
<glyph unicode="&#xcc;" horiz-adv-x="759" d="M68 0v63h51q62 0 95.5 4t50 18.5t19.5 29t3 47.5v1075q0 33 -3 47.5t-19.5 28.5t-50 18t-95.5 4h-51v64q84 -6 311 -6t311 6v-64h-51q-62 0 -95.5 -4t-50 -18t-19.5 -28.5t-3 -47.5v-1075q0 -33 3 -47.5t19.5 -29t50 -18.5t95.5 -4h51v-63q-84 6 -311 6t-311 -6zM94 1772 q-7 36 17 65t61 29q7 0 12.5 -1t11.5 -4.5t8.5 -5.5t10.5 -8.5t10 -7.5l299 -262l-30 -49l-347 184q-26 14 -38 26.5t-15 33.5z" />
<glyph unicode="&#xcd;" horiz-adv-x="759" d="M68 0v63h51q62 0 95.5 4t50 18.5t19.5 29t3 47.5v1075q0 33 -3 47.5t-19.5 28.5t-50 18t-95.5 4h-51v64q84 -6 311 -6t311 6v-64h-51q-62 0 -95.5 -4t-50 -18t-19.5 -28.5t-3 -47.5v-1075q0 -33 3 -47.5t19.5 -29t50 -18.5t95.5 -4h51v-63q-84 6 -311 6t-311 -6z M238 1577l299 262q3 2 8.5 6.5t8 6.5t8 5.5t9 5t8.5 2.5t11 1q37 0 60.5 -28.5t17.5 -65.5q-3 -21 -15.5 -33.5t-38.5 -26.5l-346 -184z" />
<glyph unicode="&#xce;" horiz-adv-x="759" d="M68 0v63h51q62 0 95.5 4t50 18.5t19.5 29t3 47.5v1075q0 33 -3 47.5t-19.5 28.5t-50 18t-95.5 4h-51v64q84 -6 311 -6t311 6v-64h-51q-62 0 -95.5 -4t-50 -18t-19.5 -28.5t-3 -47.5v-1075q0 -33 3 -47.5t19.5 -29t50 -18.5t95.5 -4h51v-63q-84 6 -311 6t-311 -6zM72 1540 l309 240l309 -240l-24 -33l-287 135l-287 -135z" />
<glyph unicode="&#xcf;" horiz-adv-x="759" d="M68 0v63h51q62 0 95.5 4t50 18.5t19.5 29t3 47.5v1075q0 33 -3 47.5t-19.5 28.5t-50 18t-95.5 4h-51v64q84 -6 311 -6t311 6v-64h-51q-62 0 -95.5 -4t-50 -18t-19.5 -28.5t-3 -47.5v-1075q0 -33 3 -47.5t19.5 -29t50 -18.5t95.5 -4h51v-63q-84 6 -311 6t-311 -6zM68 1608 q0 41 29.5 69.5t70.5 28.5t69.5 -28.5t28.5 -69.5q0 -42 -28.5 -71.5t-69.5 -29.5t-70.5 30t-29.5 71zM498 1608q0 41 29.5 69.5t70.5 28.5t69.5 -28.5t28.5 -69.5q0 -42 -28.5 -71.5t-69.5 -29.5t-70.5 30t-29.5 71z" />
<glyph unicode="&#xd0;" horiz-adv-x="1607" d="M82 0v63h47q48 0 77.5 3.5t47.5 9t25.5 19.5t9.5 27t2 40v508h-209v61h209v506q0 27 -2 40t-9.5 27t-25.5 19t-47.5 8.5t-77.5 3.5h-47v64h762q177 0 325.5 -96t234 -259.5t85.5 -355.5q0 -189 -87 -347.5t-235 -249.5t-323 -91h-762zM469 147q0 -55 15.5 -69.5 t84.5 -14.5h222q243 0 383 183q112 142 112 442q0 158 -27.5 270t-93.5 199q-52 70 -147.5 124t-229.5 54h-219q-69 0 -84.5 -14.5t-15.5 -69.5v-520h336v-61h-336v-523z" />
<glyph unicode="&#xd1;" horiz-adv-x="1579" d="M78 0v63q60 0 102 11.5t62 26t31 39.5t12.5 39t1.5 38v1104q-54 14 -152 14h-57v64h344q31 0 40 -3.5t21 -21.5l744 -1067v875q0 20 -1 31t-6.5 32.5t-19 34.5t-35 27t-59.5 21t-88 7v64q172 -6 242 -6q72 0 239 6v-64q-50 0 -88 -7t-59.5 -21t-35 -27t-19 -34.5 t-6.5 -32.5t-1 -31v-1127q0 -23 -1.5 -32.5t-8.5 -16t-23 -6.5q-20 0 -36 25l-871 1249v-1057q0 -24 1.5 -38t12.5 -39t31 -39.5t62 -26t102 -11.5v-63q-167 6 -240 6q-71 0 -241 -6zM438 1542q92 100 132.5 131t93.5 31q43 0 122 -41q95 -53 148 -53q44 0 81.5 23.5 t84.5 70.5l37 -35q-92 -100 -132.5 -131t-93.5 -31q-44 0 -123 41q-53 29 -84.5 41.5t-62.5 12.5q-43 0 -80.5 -23.5t-85.5 -71.5z" />
<glyph unicode="&#xd2;" horiz-adv-x="1636" d="M117 694q0 153 56 292t150 239.5t223.5 159.5t270.5 59q189 0 350 -99.5t256 -272.5t95 -378q0 -153 -56.5 -290.5t-151 -235.5t-223.5 -155.5t-270 -57.5t-270 57.5t-223.5 155.5t-150.5 235.5t-56 290.5zM326 725q0 -152 31.5 -276t81.5 -202.5t116 -132t131.5 -76 t130.5 -22.5q46 0 92.5 11.5t95.5 37t92.5 64t82.5 96t67.5 128.5t45 166.5t16.5 205.5q0 121 -22.5 222.5t-61 171.5t-87.5 123.5t-105.5 84t-110 45t-105.5 14.5q-63 0 -127.5 -20t-131 -69.5t-117.5 -122.5t-83 -189t-32 -260zM532 1772q-7 36 17 65t61 29q6 0 11 -1.5 t8.5 -2.5t9.5 -4.5t8 -5t9 -7t8 -6.5l299 -262l-31 -49l-346 184q-26 14 -38.5 26.5t-15.5 33.5z" />
<glyph unicode="&#xd3;" horiz-adv-x="1636" d="M117 694q0 153 56 292t150 239.5t223.5 159.5t270.5 59q189 0 350 -99.5t256 -272.5t95 -378q0 -153 -56.5 -290.5t-151 -235.5t-223.5 -155.5t-270 -57.5t-270 57.5t-223.5 155.5t-150.5 235.5t-56 290.5zM326 725q0 -152 31.5 -276t81.5 -202.5t116 -132t131.5 -76 t130.5 -22.5q46 0 92.5 11.5t95.5 37t92.5 64t82.5 96t67.5 128.5t45 166.5t16.5 205.5q0 121 -22.5 222.5t-61 171.5t-87.5 123.5t-105.5 84t-110 45t-105.5 14.5q-63 0 -127.5 -20t-131 -69.5t-117.5 -122.5t-83 -189t-32 -260zM676 1577l299 262q3 2 8.5 6.5t8 6.5t8 5.5 t9 5t8.5 2.5t11 1q37 0 60.5 -28.5t17.5 -65.5q-3 -21 -15 -33.5t-38 -26.5l-346 -184z" />
<glyph unicode="&#xd4;" horiz-adv-x="1636" d="M117 694q0 153 56 292t150 239.5t223.5 159.5t270.5 59q189 0 350 -99.5t256 -272.5t95 -378q0 -153 -56.5 -290.5t-151 -235.5t-223.5 -155.5t-270 -57.5t-270 57.5t-223.5 155.5t-150.5 235.5t-56 290.5zM326 725q0 -152 31.5 -276t81.5 -202.5t116 -132t131.5 -76 t130.5 -22.5q46 0 92.5 11.5t95.5 37t92.5 64t82.5 96t67.5 128.5t45 166.5t16.5 205.5q0 121 -22.5 222.5t-61 171.5t-87.5 123.5t-105.5 84t-110 45t-105.5 14.5q-63 0 -127.5 -20t-131 -69.5t-117.5 -122.5t-83 -189t-32 -260zM510 1540l309 240l309 -240l-24 -33 l-287 135l-287 -135z" />
<glyph unicode="&#xd5;" horiz-adv-x="1636" d="M117 694q0 153 56 292t150 239.5t223.5 159.5t270.5 59q189 0 350 -99.5t256 -272.5t95 -378q0 -153 -56.5 -290.5t-151 -235.5t-223.5 -155.5t-270 -57.5t-270 57.5t-223.5 155.5t-150.5 235.5t-56 290.5zM326 725q0 -152 31.5 -276t81.5 -202.5t116 -132t131.5 -76 t130.5 -22.5q46 0 92.5 11.5t95.5 37t92.5 64t82.5 96t67.5 128.5t45 166.5t16.5 205.5q0 121 -22.5 222.5t-61 171.5t-87.5 123.5t-105.5 84t-110 45t-105.5 14.5q-63 0 -127.5 -20t-131 -69.5t-117.5 -122.5t-83 -189t-32 -260zM469 1542q92 101 132 131.5t93 30.5 q44 0 123 -41q95 -53 148 -53q43 0 80 23t85 71l37 -35q-92 -101 -132 -131.5t-93 -30.5q-44 0 -123 41q-53 29 -84.5 41.5t-62.5 12.5q-43 0 -80.5 -23.5t-85.5 -71.5z" />
<glyph unicode="&#xd6;" horiz-adv-x="1636" d="M117 694q0 153 56 292t150 239.5t223.5 159.5t270.5 59q189 0 350 -99.5t256 -272.5t95 -378q0 -153 -56.5 -290.5t-151 -235.5t-223.5 -155.5t-270 -57.5t-270 57.5t-223.5 155.5t-150.5 235.5t-56 290.5zM326 725q0 -152 31.5 -276t81.5 -202.5t116 -132t131.5 -76 t130.5 -22.5q46 0 92.5 11.5t95.5 37t92.5 64t82.5 96t67.5 128.5t45 166.5t16.5 205.5q0 121 -22.5 222.5t-61 171.5t-87.5 123.5t-105.5 84t-110 45t-105.5 14.5q-63 0 -127.5 -20t-131 -69.5t-117.5 -122.5t-83 -189t-32 -260zM506 1608q0 41 29.5 69.5t70.5 28.5 t70 -28.5t29 -69.5t-29 -71t-70 -30t-70.5 30t-29.5 71zM936 1608q0 41 29.5 69.5t70.5 28.5t70 -28.5t29 -69.5t-29 -71t-70 -30t-70.5 30t-29.5 71z" />
<glyph unicode="&#xd7;" horiz-adv-x="1636" d="M309 40.5q-2 11.5 4.5 23.5t12 18.5t16.5 17.5l414 414l-414 414q-11 11 -16.5 17.5t-12 18.5t-4.5 23.5t13 22.5t22 13.5t22 -3.5t18.5 -12.5t18.5 -18.5l414 -414l414 414q12 12 18.5 17.5t18.5 12.5t23 4t22 -15q11 -11 13 -22.5t-5 -23.5t-12.5 -18.5t-16.5 -17.5 l-411 -412l413 -414q11 -11 16.5 -17.5t12.5 -18.5t5 -23.5t-13 -22.5q-12 -12 -23 -15t-23 4t-17.5 12t-18.5 18l-416 414l-414 -414q-13 -13 -19 -18t-18 -12t-22.5 -4t-21.5 15q-11 11 -13 22.5z" />
<glyph unicode="&#xd8;" horiz-adv-x="1636" d="M117 694q0 153 56 292t150 239.5t223.5 159.5t270.5 59q198 0 395 -129l140 201l45 -33l-142 -205q123 -104 193 -258t70 -326q0 -153 -56.5 -290.5t-151 -235.5t-223.5 -155.5t-270 -57.5q-214 0 -395 129l-139 -201l-45 33l139 203q-116 99 -188 248t-72 327zM301 694 q0 -170 32.5 -288t98.5 -207l729 1046q-58 59 -145.5 103.5t-198.5 44.5q-26 0 -55 -3t-82.5 -18.5t-100.5 -41.5t-100 -79t-90.5 -124t-62.5 -183t-25 -250zM473 154q50 -57 141.5 -102.5t202.5 -45.5q109 0 213.5 51t179.5 152q123 170 123 485q0 324 -133 504z" />
<glyph unicode="&#xd9;" horiz-adv-x="1579" d="M78 1335v64q92 -6 301 -6t301 6v-64h-47q-48 0 -77.5 -3.5t-47.5 -8.5t-25.5 -19t-9.5 -27t-2 -40v-778q0 -105 25.5 -187t63 -128.5t87.5 -76t91.5 -39.5t82.5 -10q77 0 150 32t130 89t91.5 144t34.5 188v711q0 20 -1 31t-6.5 32.5t-19 34.5t-35 27t-59.5 21t-88 7v64 q172 -6 242 -6q72 0 239 6v-64q-43 0 -77 -6t-56 -14t-37 -23t-22.5 -26.5t-11.5 -30.5t-4.5 -29t-0.5 -28v-738q0 -79 -32.5 -162.5t-90.5 -156.5t-150 -119.5t-200 -46.5q-105 0 -202 39t-169.5 106.5t-115.5 164.5t-43 206v766q0 27 -2 40t-9.5 27t-25.5 19t-47.5 8.5 t-77.5 3.5h-47zM549 1772q-7 36 17 65t61 29q7 0 12.5 -1t11.5 -4.5t8.5 -5.5t10.5 -8.5t10 -7.5l299 -262l-31 -49l-346 184q-26 14 -38 26.5t-15 33.5z" />
<glyph unicode="&#xda;" horiz-adv-x="1579" d="M78 1335v64q92 -6 301 -6t301 6v-64h-47q-48 0 -77.5 -3.5t-47.5 -8.5t-25.5 -19t-9.5 -27t-2 -40v-778q0 -105 25.5 -187t63 -128.5t87.5 -76t91.5 -39.5t82.5 -10q77 0 150 32t130 89t91.5 144t34.5 188v711q0 20 -1 31t-6.5 32.5t-19 34.5t-35 27t-59.5 21t-88 7v64 q172 -6 242 -6q72 0 239 6v-64q-43 0 -77 -6t-56 -14t-37 -23t-22.5 -26.5t-11.5 -30.5t-4.5 -29t-0.5 -28v-738q0 -79 -32.5 -162.5t-90.5 -156.5t-150 -119.5t-200 -46.5q-105 0 -202 39t-169.5 106.5t-115.5 164.5t-43 206v766q0 27 -2 40t-9.5 27t-25.5 19t-47.5 8.5 t-77.5 3.5h-47zM692 1577l299 262q3 2 8.5 6.5t8 6.5t8 5.5t9 5t8.5 2.5t11 1q37 0 60.5 -28.5t17.5 -65.5q-3 -21 -15 -33.5t-38 -26.5l-346 -184z" />
<glyph unicode="&#xdb;" horiz-adv-x="1579" d="M78 1335v64q92 -6 301 -6t301 6v-64h-47q-48 0 -77.5 -3.5t-47.5 -8.5t-25.5 -19t-9.5 -27t-2 -40v-778q0 -105 25.5 -187t63 -128.5t87.5 -76t91.5 -39.5t82.5 -10q77 0 150 32t130 89t91.5 144t34.5 188v711q0 20 -1 31t-6.5 32.5t-19 34.5t-35 27t-59.5 21t-88 7v64 q172 -6 242 -6q72 0 239 6v-64q-43 0 -77 -6t-56 -14t-37 -23t-22.5 -26.5t-11.5 -30.5t-4.5 -29t-0.5 -28v-738q0 -79 -32.5 -162.5t-90.5 -156.5t-150 -119.5t-200 -46.5q-105 0 -202 39t-169.5 106.5t-115.5 164.5t-43 206v766q0 27 -2 40t-9.5 27t-25.5 19t-47.5 8.5 t-77.5 3.5h-47zM526 1540l310 240l309 -240l-25 -33l-286 135l-287 -135z" />
<glyph unicode="&#xdc;" horiz-adv-x="1579" d="M78 1335v64q92 -6 301 -6t301 6v-64h-47q-48 0 -77.5 -3.5t-47.5 -8.5t-25.5 -19t-9.5 -27t-2 -40v-778q0 -105 25.5 -187t63 -128.5t87.5 -76t91.5 -39.5t82.5 -10q77 0 150 32t130 89t91.5 144t34.5 188v711q0 20 -1 31t-6.5 32.5t-19 34.5t-35 27t-59.5 21t-88 7v64 q172 -6 242 -6q72 0 239 6v-64q-43 0 -77 -6t-56 -14t-37 -23t-22.5 -26.5t-11.5 -30.5t-4.5 -29t-0.5 -28v-738q0 -79 -32.5 -162.5t-90.5 -156.5t-150 -119.5t-200 -46.5q-105 0 -202 39t-169.5 106.5t-115.5 164.5t-43 206v766q0 27 -2 40t-9.5 27t-25.5 19t-47.5 8.5 t-77.5 3.5h-47zM522 1608q0 41 29.5 69.5t71.5 28.5q41 0 69.5 -28.5t28.5 -69.5q0 -42 -28.5 -71.5t-69.5 -29.5t-71 30t-30 71zM952 1608q0 41 29.5 69.5t71.5 28.5q41 0 69.5 -28.5t28.5 -69.5q0 -42 -28.5 -71.5t-69.5 -29.5t-71 30t-30 71z" />
<glyph unicode="&#xdd;" horiz-adv-x="1579" d="M27 1335v64l270 -6q213 0 297 6v-64q-30 0 -49.5 -1t-42.5 -5.5t-35 -16t-12 -28.5q0 -11 18 -41l385 -598l350 551q21 33 23 49v10q0 36 -29.5 58t-83.5 22v64l232 -6q128 0 200 6v-64q-76 -1 -132 -24t-82.5 -50t-51.5 -67l-405 -635v-399q0 -42 7.5 -59.5t42 -27.5 t111.5 -10h47v-63q-98 6 -299 6q-200 0 -296 -6v63h47q48 0 77.5 3.5t47 9t25.5 19.5t9.5 27t1.5 40v397l-450 703q-29 44 -64 58.5t-125 14.5h-34zM645 1577l299 262q3 2 8.5 6.5t8 6.5t8 5.5t9 5t8.5 2.5t11 1q37 0 60.5 -28.5t17.5 -65.5q-3 -21 -15 -33.5t-38 -26.5 l-346 -184z" />
<glyph unicode="&#xde;" horiz-adv-x="1314" d="M82 0v63q102 0 145 7q41 7 52.5 25.5t11.5 70.5v1067q0 47 -10 67t-48 27q-39 8 -151 8v64l295 -6l295 6v-64q-109 0 -146 -6q-41 -7 -52 -25.5t-11 -70.5v-105h291q191 0 315.5 -114.5t124.5 -268.5t-125 -267t-309 -113h-297v-199q0 -25 1 -37.5t6.5 -26t17.5 -20 t32 -10.5q44 -9 152 -9v-63l-295 6zM463 428h225q140 0 221.5 97t81.5 223q0 51 -15.5 103.5t-46.5 102t-87.5 80.5t-130.5 31h-248v-637z" />
<glyph unicode="&#xdf;" d="M61 0v63q107 0 132.5 13.5t25.5 81.5v661h-158v64h158v256q0 94 53 165.5t132 105.5t169 34q152 0 256.5 -87.5t104.5 -205.5q0 -103 -77 -183t-191 -114q148 -60 236.5 -196.5t88.5 -301.5q0 -108 -52.5 -196t-136.5 -135.5t-179 -47.5q-87 0 -142 47t-55 109 q0 42 25 61t51 19q31 0 53.5 -22t22.5 -54q0 -21 -5.5 -35.5t-17.5 -23t-17.5 -11t-17.5 -6.5q43 -32 98 -32q23 0 48 7.5t55 29.5t53.5 56.5t39 95t15.5 138.5q0 211 -89.5 336.5t-215.5 138.5q-19 1 -26 2t-12 6.5t-5 16.5q0 12 5.5 18t11.5 7t22 2q119 10 185.5 83 t66.5 187q0 119 -61 179.5t-140 60.5q-9 0 -19.5 -1t-32 -6.5t-40.5 -15t-40.5 -28.5t-37 -45t-26 -67t-10.5 -91v-1139q-31 6 -109 6z" />
<glyph unicode="&#xe0;" d="M68 201q0 71 45 140.5t147 119.5q147 71 402 80v67q0 125 -67 191.5t-155 66.5q-53 0 -114.5 -17.5t-98.5 -53.5q4 0 10 -1.5t22 -8t28 -16.5t22 -29t10 -44q0 -40 -26.5 -67t-67.5 -27t-68.5 26t-27.5 72q0 96 91.5 157t223.5 61q166 0 277 -99q27 -25 45 -50.5 t27.5 -46t14 -53.5t5 -54t0.5 -66v-359q0 -131 74 -131t74 125v113h57v-115q0 -47 -14 -83t-34.5 -56.5t-46.5 -33.5t-46.5 -17t-38.5 -4q-64 0 -107 46t-51 113q-14 -27 -33 -51.5t-51.5 -54t-82.5 -47t-110 -17.5q-55 0 -110.5 12t-107.5 36.5t-84.5 70t-32.5 105.5z M231 201q0 -74 56 -123t131 -49q37 0 76.5 13.5t78.5 41.5t64 81.5t25 123.5v203q-113 -4 -199 -31t-135 -69t-73 -90t-24 -101zM266 1350q0 34 24.5 57t53.5 23q24 0 36 -8t28 -29l249 -310l-39 -43l-309 242q-43 32 -43 68z" />
<glyph unicode="&#xe1;" d="M68 201q0 71 45 140.5t147 119.5q147 71 402 80v67q0 125 -67 191.5t-155 66.5q-53 0 -114.5 -17.5t-98.5 -53.5q4 0 10 -1.5t22 -8t28 -16.5t22 -29t10 -44q0 -40 -26.5 -67t-67.5 -27t-68.5 26t-27.5 72q0 96 91.5 157t223.5 61q166 0 277 -99q27 -25 45 -50.5 t27.5 -46t14 -53.5t5 -54t0.5 -66v-359q0 -131 74 -131t74 125v113h57v-115q0 -47 -14 -83t-34.5 -56.5t-46.5 -33.5t-46.5 -17t-38.5 -4q-64 0 -107 46t-51 113q-14 -27 -33 -51.5t-51.5 -54t-82.5 -47t-110 -17.5q-55 0 -110.5 12t-107.5 36.5t-84.5 70t-32.5 105.5z M231 201q0 -74 56 -123t131 -49q37 0 76.5 13.5t78.5 41.5t64 81.5t25 123.5v203q-113 -4 -199 -31t-135 -69t-73 -90t-24 -101zM395 1083l250 310q11 14 17 20.5t18 11.5t29 5q29 0 53 -23t24 -57q0 -36 -43 -68l-309 -242z" />
<glyph unicode="&#xe2;" d="M68 201q0 71 45 140.5t147 119.5q147 71 402 80v67q0 125 -67 191.5t-155 66.5q-53 0 -114.5 -17.5t-98.5 -53.5q4 0 10 -1.5t22 -8t28 -16.5t22 -29t10 -44q0 -40 -26.5 -67t-67.5 -27t-68.5 26t-27.5 72q0 96 91.5 157t223.5 61q166 0 277 -99q27 -25 45 -50.5 t27.5 -46t14 -53.5t5 -54t0.5 -66v-359q0 -131 74 -131t74 125v113h57v-115q0 -47 -14 -83t-34.5 -56.5t-46.5 -33.5t-46.5 -17t-38.5 -4q-64 0 -107 46t-51 113q-14 -27 -33 -51.5t-51.5 -54t-82.5 -47t-110 -17.5q-55 0 -110.5 12t-107.5 36.5t-84.5 70t-32.5 105.5z M215 1083l311 332l312 -332l-27 -28l-285 221l-284 -221zM231 201q0 -74 56 -123t131 -49q37 0 76.5 13.5t78.5 41.5t64 81.5t25 123.5v203q-113 -4 -199 -31t-135 -69t-73 -90t-24 -101z" />
<glyph unicode="&#xe3;" d="M68 201q0 71 45 140.5t147 119.5q147 71 402 80v67q0 125 -67 191.5t-155 66.5q-53 0 -114.5 -17.5t-98.5 -53.5q4 0 10 -1.5t22 -8t28 -16.5t22 -29t10 -44q0 -40 -26.5 -67t-67.5 -27t-68.5 26t-27.5 72q0 96 91.5 157t223.5 61q166 0 277 -99q27 -25 45 -50.5 t27.5 -46t14 -53.5t5 -54t0.5 -66v-359q0 -131 74 -131t74 125v113h57v-115q0 -47 -14 -83t-34.5 -56.5t-46.5 -33.5t-46.5 -17t-38.5 -4q-64 0 -107 46t-51 113q-14 -27 -33 -51.5t-51.5 -54t-82.5 -47t-110 -17.5q-55 0 -110.5 12t-107.5 36.5t-84.5 70t-32.5 105.5z M176 1171q92 101 132 131.5t93 30.5q44 0 123 -41q95 -53 148 -53q44 0 81.5 23.5t84.5 70.5l36 -35q-92 -100 -132 -130.5t-93 -30.5q-44 0 -123 41q-95 53 -147 53q-44 0 -81.5 -23.5t-84.5 -70.5zM231 201q0 -74 56 -123t131 -49q37 0 76.5 13.5t78.5 41.5t64 81.5 t25 123.5v203q-113 -4 -199 -31t-135 -69t-73 -90t-24 -101z" />
<glyph unicode="&#xe4;" d="M68 201q0 71 45 140.5t147 119.5q147 71 402 80v67q0 125 -67 191.5t-155 66.5q-53 0 -114.5 -17.5t-98.5 -53.5q4 0 10 -1.5t22 -8t28 -16.5t22 -29t10 -44q0 -40 -26.5 -67t-67.5 -27t-68.5 26t-27.5 72q0 96 91.5 157t223.5 61q166 0 277 -99q27 -25 45 -50.5 t27.5 -46t14 -53.5t5 -54t0.5 -66v-359q0 -131 74 -131t74 125v113h57v-115q0 -47 -14 -83t-34.5 -56.5t-46.5 -33.5t-46.5 -17t-38.5 -4q-64 0 -107 46t-51 113q-14 -27 -33 -51.5t-51.5 -54t-82.5 -47t-110 -17.5q-55 0 -110.5 12t-107.5 36.5t-84.5 70t-32.5 105.5z M231 201q0 -74 56 -123t131 -49q37 0 76.5 13.5t78.5 41.5t64 81.5t25 123.5v203q-113 -4 -199 -31t-135 -69t-73 -90t-24 -101zM246 1237q0 41 29.5 69.5t70.5 28.5t69.5 -28.5t28.5 -69.5t-28.5 -70.5t-69.5 -29.5t-70.5 29.5t-29.5 70.5zM610 1237q0 41 29.5 69.5 t71.5 28.5q41 0 69.5 -28.5t28.5 -69.5t-28.5 -70.5t-69.5 -29.5t-71 29.5t-30 70.5z" />
<glyph unicode="&#xe5;" d="M68 201q0 71 45 140.5t147 119.5q147 71 402 80v67q0 125 -67 191.5t-155 66.5q-53 0 -114.5 -17.5t-98.5 -53.5q4 0 10 -1.5t22 -8t28 -16.5t22 -29t10 -44q0 -40 -26.5 -67t-67.5 -27t-68.5 26t-27.5 72q0 96 91.5 157t223.5 61q166 0 277 -99q27 -25 45 -50.5 t27.5 -46t14 -53.5t5 -54t0.5 -66v-359q0 -131 74 -131t74 125v113h57v-115q0 -47 -14 -83t-34.5 -56.5t-46.5 -33.5t-46.5 -17t-38.5 -4q-64 0 -107 46t-51 113q-14 -27 -33 -51.5t-51.5 -54t-82.5 -47t-110 -17.5q-55 0 -110.5 12t-107.5 36.5t-84.5 70t-32.5 105.5z M231 201q0 -74 56 -123t131 -49q37 0 76.5 13.5t78.5 41.5t64 81.5t25 123.5v203q-113 -4 -199 -31t-135 -69t-73 -90t-24 -101zM322 1266q0 72 58.5 125t145.5 53q85 0 145 -53t60 -129q0 -72 -59 -125.5t-146 -53.5q-85 0 -144.5 53.5t-59.5 129.5zM393 1264 q0 -115 133 -115t133 115q0 114 -133 114t-133 -114z" />
<glyph unicode="&#xe6;" horiz-adv-x="1519" d="M94 193q0 98 78.5 171.5t211.5 111.5t300 38v94q0 125 -66.5 191.5t-154.5 66.5q-133 0 -215 -71q4 0 10 -1.5t22 -8t28 -16.5t22 -29t10 -44q0 -40 -26.5 -67t-67.5 -27t-68.5 26t-27.5 72q0 95 91.5 156.5t225.5 61.5q117 0 200 -46.5t128 -107.5q20 22 31 33.5t44 38 t63 41.5t77.5 28t97.5 13q166 0 258 -115t92 -289q0 -32 -9 -38.5t-46 -6.5h-567q0 -88 16 -159.5t40 -115.5t57.5 -76.5t61.5 -48t60.5 -24t46 -9.5t25.5 -1q13 0 26.5 1.5t40 7.5t51 20.5t51 36t50 60t39.5 87.5q5 22 29 22q13 0 20.5 -7.5t7.5 -18.5q0 -15 -10.5 -44 t-36.5 -68t-61.5 -73t-92.5 -58t-124 -24q-97 0 -191 46t-158 131q-8 -14 -17.5 -27t-40.5 -43t-67 -51t-98 -38.5t-133 -17.5q-59 0 -115 11.5t-106.5 36t-81.5 68t-31 100.5zM258 193q0 -68 52.5 -116t131.5 -48q102 0 184.5 68.5t82.5 172.5q0 22 -7 41q-18 76 -18 154 q-96 -3 -172 -22t-122.5 -46.5t-77 -63.5t-42.5 -70t-12 -70zM838 518h483l-3 43.5t-6.5 57t-13.5 69t-24.5 64t-37.5 59.5t-55 38.5t-75 16.5q-30 0 -62 -10t-67.5 -35.5t-63.5 -63t-49 -100t-26 -139.5z" />
<glyph unicode="&#xe7;" horiz-adv-x="935" d="M70 442q0 127 59 236t165 174.5t234 65.5q139 0 231.5 -56t92.5 -149q0 -46 -27.5 -72.5t-68.5 -26.5q-40 0 -67 27.5t-27 67.5q0 41 23.5 65t59.5 31q-82 55 -213 55q-50 0 -97 -21t-91.5 -66.5t-71 -130t-26.5 -198.5q0 -108 28 -190.5t73 -128.5t95.5 -68t102.5 -22 q86 0 159.5 47.5t106.5 146.5q11 33 18 36q4 3 17 3q28 0 28 -24q0 -8 -7.5 -31t-29 -61t-53 -72.5t-88 -63t-125.5 -36.5v-115q92 0 158 -35t66 -102q0 -20 -7.5 -37t-24 -30t-34.5 -23.5t-47.5 -17.5t-53.5 -12.5t-62.5 -8.5t-65.5 -5t-70.5 -3t-69 -1h-69.5h-58v58h29 q53 0 82 0.5t78.5 2.5t77.5 7t59 13.5t45 23t14 33.5q0 79 -161 79v177q-163 25 -275 153.5t-112 304.5z" />
<glyph unicode="&#xe8;" horiz-adv-x="935" d="M59 451q0 192 128 329.5t311 137.5q95 0 169 -33.5t118 -91t66.5 -129t22.5 -152.5q0 -31 -9.5 -37t-45.5 -6h-583q0 -60 2.5 -99t19 -101.5t47.5 -108.5q37 -55 98 -90t132 -35q17 0 35 1.5t56.5 13.5t70.5 32.5t66 63.5t54 102q5 22 29 22q13 0 20.5 -7.5t7.5 -18.5 q0 -16 -12 -46t-40 -68.5t-66.5 -72t-99.5 -57t-132 -23.5q-124 0 -230.5 62t-170.5 171.5t-64 240.5zM209 1350q0 34 24.5 57t53.5 23q17 0 28.5 -5.5t17 -11t17.5 -20.5l250 -310l-39 -43l-309 242q-43 32 -43 68zM238 518h497q-1 94 -21.5 164t-55.5 109t-75 57t-85 18 q-22 0 -47.5 -5.5t-63 -27t-67 -56.5t-53.5 -102.5t-29 -156.5z" />
<glyph unicode="&#xe9;" horiz-adv-x="935" d="M59 451q0 192 128 329.5t311 137.5q95 0 169 -33.5t118 -91t66.5 -129t22.5 -152.5q0 -31 -9.5 -37t-45.5 -6h-583q0 -60 2.5 -99t19 -101.5t47.5 -108.5q37 -55 98 -90t132 -35q17 0 35 1.5t56.5 13.5t70.5 32.5t66 63.5t54 102q5 22 29 22q13 0 20.5 -7.5t7.5 -18.5 q0 -16 -12 -46t-40 -68.5t-66.5 -72t-99.5 -57t-132 -23.5q-124 0 -230.5 62t-170.5 171.5t-64 240.5zM238 518h497q-1 94 -21.5 164t-55.5 109t-75 57t-85 18q-22 0 -47.5 -5.5t-63 -27t-67 -56.5t-53.5 -102.5t-29 -156.5zM338 1083l250 310q12 15 17.5 20.5t17 11 t28.5 5.5q29 0 53.5 -23t24.5 -57q0 -36 -43 -68l-309 -242z" />
<glyph unicode="&#xea;" horiz-adv-x="935" d="M59 451q0 192 128 329.5t311 137.5q95 0 169 -33.5t118 -91t66.5 -129t22.5 -152.5q0 -31 -9.5 -37t-45.5 -6h-583q0 -60 2.5 -99t19 -101.5t47.5 -108.5q37 -55 98 -90t132 -35q17 0 35 1.5t56.5 13.5t70.5 32.5t66 63.5t54 102q5 22 29 22q13 0 20.5 -7.5t7.5 -18.5 q0 -16 -12 -46t-40 -68.5t-66.5 -72t-99.5 -57t-132 -23.5q-124 0 -230.5 62t-170.5 171.5t-64 240.5zM158 1083l311 332l311 -332l-26 -28l-285 221l-285 -221zM238 518h497q-1 94 -21.5 164t-55.5 109t-75 57t-85 18q-22 0 -47.5 -5.5t-63 -27t-67 -56.5t-53.5 -102.5 t-29 -156.5z" />
<glyph unicode="&#xeb;" horiz-adv-x="935" d="M59 451q0 192 128 329.5t311 137.5q95 0 169 -33.5t118 -91t66.5 -129t22.5 -152.5q0 -31 -9.5 -37t-45.5 -6h-583q0 -60 2.5 -99t19 -101.5t47.5 -108.5q37 -55 98 -90t132 -35q17 0 35 1.5t56.5 13.5t70.5 32.5t66 63.5t54 102q5 22 29 22q13 0 20.5 -7.5t7.5 -18.5 q0 -16 -12 -46t-40 -68.5t-66.5 -72t-99.5 -57t-132 -23.5q-124 0 -230.5 62t-170.5 171.5t-64 240.5zM188 1237q0 41 29.5 69.5t71.5 28.5q41 0 69.5 -28.5t28.5 -69.5t-28.5 -70.5t-69.5 -29.5t-71 29.5t-30 70.5zM238 518h497q-1 94 -21.5 164t-55.5 109t-75 57t-85 18 q-22 0 -47.5 -5.5t-63 -27t-67 -56.5t-53.5 -102.5t-29 -156.5zM553 1237q0 41 29.5 69.5t70.5 28.5t70 -28.5t29 -69.5t-29 -70.5t-70 -29.5t-70.5 29.5t-29.5 70.5z" />
<glyph unicode="&#xec;" horiz-adv-x="585" d="M33 1350q0 34 24.5 57t53.5 23q17 0 28.5 -5.5t17 -11t17.5 -20.5l250 -310l-39 -43l-309 242q-43 32 -43 68zM74 0v63q106 0 131.5 13.5t25.5 81.5v549q0 75 -25 93.5t-124 18.5v64l295 22v-751q0 -44 8 -60.5t36 -23.5t97 -7v-63q-100 6 -219 6q-87 0 -225 -6z" />
<glyph unicode="&#xed;" horiz-adv-x="585" d="M74 0v63q106 0 131.5 13.5t25.5 81.5v549q0 75 -25 93.5t-124 18.5v64l295 22v-751q0 -44 8 -60.5t36 -23.5t97 -7v-63q-100 6 -219 6q-87 0 -225 -6zM162 1083l250 310q12 15 17.5 20.5t17 11t28.5 5.5q29 0 53.5 -23t24.5 -57q0 -36 -43 -68l-309 -242z" />
<glyph unicode="&#xee;" horiz-adv-x="585" d="M-18 1083l311 332l311 -332l-26 -28l-285 221l-285 -221zM74 0v63q106 0 131.5 13.5t25.5 81.5v549q0 75 -25 93.5t-124 18.5v64l295 22v-751q0 -44 8 -60.5t36 -23.5t97 -7v-63q-100 6 -219 6q-87 0 -225 -6z" />
<glyph unicode="&#xef;" horiz-adv-x="585" d="M12 1237q0 41 29.5 69.5t71.5 28.5q41 0 69.5 -28.5t28.5 -69.5t-28.5 -70.5t-69.5 -29.5t-71 29.5t-30 70.5zM74 0v63q106 0 131.5 13.5t25.5 81.5v549q0 75 -25 93.5t-124 18.5v64l295 22v-751q0 -44 8 -60.5t36 -23.5t97 -7v-63q-100 6 -219 6q-87 0 -225 -6z M377 1237q0 41 29.5 69.5t70.5 28.5t69.5 -28.5t28.5 -69.5t-28.5 -70.5t-69.5 -29.5t-70.5 29.5t-29.5 70.5z" />
<glyph unicode="&#xf0;" d="M59 436q0 99 38 188.5t101.5 152.5t147.5 100.5t174 37.5q151 0 258 -151q-89 289 -317 461l-172 -101l-31 56l145 84q-133 83 -274 108l8 49q189 -12 365 -102l196 115l31 -56l-166 -96q197 -124 312.5 -333.5t115.5 -452.5q0 -60 -2.5 -93.5t-14 -86.5t-40 -102 t-76.5 -99l-18.5 -18.5t-43 -33t-69.5 -41.5t-89.5 -30.5t-113.5 -14.5q-123 0 -229.5 59.5t-171 165.5t-64.5 234zM238 457q0 -179 55 -281q32 -56 92 -98.5t141 -42.5q24 0 51.5 5t72.5 29.5t78.5 64t59 119t25.5 185.5q0 181 -84.5 303.5t-204.5 122.5q-68 0 -126 -34.5 t-93 -86.5q-67 -100 -67 -286z" />
<glyph unicode="&#xf1;" horiz-adv-x="1169" d="M72 0v63q106 0 131.5 13.5t25.5 81.5v547q0 75 -26.5 94.5t-130.5 19.5v64l297 22v-198h2q11 22 24.5 43t41 51t59.5 51.5t80 37t102 15.5q158 0 227 -84q40 -51 49 -105.5t9 -195.5v-393q1 -19 8 -31t17 -18.5t33 -10t42 -4t57 -0.5v-63q-164 6 -233 6q-90 0 -234 -6v63 q107 0 132.5 13.5t25.5 81.5v473q0 50 -6 87.5t-21.5 69.5t-45.5 49t-74 17q-50 0 -99 -20.5t-90.5 -59.5t-67.5 -102.5t-26 -141.5v-372q0 -68 25.5 -81.5t132.5 -13.5v-63q-163 6 -234 6q-89 0 -233 -6zM236 1171q92 101 132 131.5t93 30.5q44 0 123 -41q95 -53 147 -53 q44 0 81.5 23.5t84.5 70.5l37 -35q-92 -100 -132 -130.5t-93 -30.5q-44 0 -123 41q-95 53 -148 53q-44 0 -81.5 -23.5t-84.5 -70.5z" />
<glyph unicode="&#xf2;" d="M59 436q0 129 62 240t170 176.5t235 65.5q124 0 231 -64t170.5 -175.5t63.5 -242.5q0 -190 -136.5 -324.5t-330.5 -134.5q-124 0 -231 61t-170.5 167t-63.5 231zM236 455q0 -61 2 -100t15 -94t38 -95q36 -61 97.5 -96t137.5 -35q69 0 133 34t105 101q23 41 35.5 100 t14 94.5t1.5 90.5q0 56 -2 93t-13.5 90t-33.5 93q-34 58 -97 96.5t-145 38.5q-65 0 -130 -32t-107 -103q-23 -39 -35.5 -95.5t-14 -91t-1.5 -89.5zM266 1350q0 34 24.5 57t53.5 23q24 0 36 -8t28 -29l249 -310l-39 -43l-309 242q-43 32 -43 68z" />
<glyph unicode="&#xf3;" d="M59 436q0 129 62 240t170 176.5t235 65.5q124 0 231 -64t170.5 -175.5t63.5 -242.5q0 -190 -136.5 -324.5t-330.5 -134.5q-124 0 -231 61t-170.5 167t-63.5 231zM236 455q0 -61 2 -100t15 -94t38 -95q36 -61 97.5 -96t137.5 -35q69 0 133 34t105 101q23 41 35.5 100 t14 94.5t1.5 90.5q0 56 -2 93t-13.5 90t-33.5 93q-34 58 -97 96.5t-145 38.5q-65 0 -130 -32t-107 -103q-23 -39 -35.5 -95.5t-14 -91t-1.5 -89.5zM395 1083l250 310q11 14 17 20.5t18 11.5t29 5q29 0 53 -23t24 -57q0 -36 -43 -68l-309 -242z" />
<glyph unicode="&#xf4;" d="M59 436q0 129 62 240t170 176.5t235 65.5q124 0 231 -64t170.5 -175.5t63.5 -242.5q0 -190 -136.5 -324.5t-330.5 -134.5q-124 0 -231 61t-170.5 167t-63.5 231zM215 1083l311 332l312 -332l-27 -28l-285 221l-284 -221zM236 455q0 -61 2 -100t15 -94t38 -95 q36 -61 97.5 -96t137.5 -35q69 0 133 34t105 101q23 41 35.5 100t14 94.5t1.5 90.5q0 56 -2 93t-13.5 90t-33.5 93q-34 58 -97 96.5t-145 38.5q-65 0 -130 -32t-107 -103q-23 -39 -35.5 -95.5t-14 -91t-1.5 -89.5z" />
<glyph unicode="&#xf5;" d="M59 436q0 129 62 240t170 176.5t235 65.5q124 0 231 -64t170.5 -175.5t63.5 -242.5q0 -190 -136.5 -324.5t-330.5 -134.5q-124 0 -231 61t-170.5 167t-63.5 231zM176 1171q92 101 132 131.5t93 30.5q44 0 123 -41q95 -53 148 -53q44 0 81.5 23.5t84.5 70.5l36 -35 q-92 -100 -132 -130.5t-93 -30.5q-44 0 -123 41q-95 53 -147 53q-44 0 -81.5 -23.5t-84.5 -70.5zM236 455q0 -61 2 -100t15 -94t38 -95q36 -61 97.5 -96t137.5 -35q69 0 133 34t105 101q23 41 35.5 100t14 94.5t1.5 90.5q0 56 -2 93t-13.5 90t-33.5 93q-34 58 -97 96.5 t-145 38.5q-65 0 -130 -32t-107 -103q-23 -39 -35.5 -95.5t-14 -91t-1.5 -89.5z" />
<glyph unicode="&#xf6;" d="M59 436q0 129 62 240t170 176.5t235 65.5q124 0 231 -64t170.5 -175.5t63.5 -242.5q0 -190 -136.5 -324.5t-330.5 -134.5q-124 0 -231 61t-170.5 167t-63.5 231zM236 455q0 -61 2 -100t15 -94t38 -95q36 -61 97.5 -96t137.5 -35q69 0 133 34t105 101q23 41 35.5 100 t14 94.5t1.5 90.5q0 56 -2 93t-13.5 90t-33.5 93q-34 58 -97 96.5t-145 38.5q-65 0 -130 -32t-107 -103q-23 -39 -35.5 -95.5t-14 -91t-1.5 -89.5zM246 1237q0 41 29.5 69.5t70.5 28.5t69.5 -28.5t28.5 -69.5t-28.5 -70.5t-69.5 -29.5t-70.5 29.5t-29.5 70.5zM610 1237 q0 41 29.5 69.5t71.5 28.5q41 0 69.5 -28.5t28.5 -69.5t-28.5 -70.5t-69.5 -29.5t-71 29.5t-30 70.5z" />
<glyph unicode="&#xf7;" horiz-adv-x="1636" d="M117 512q0 21 14 31.5t27 12t35 1.5h1249q22 0 35 -1.5t27 -12t14 -31.5q0 -15 -6 -24.5t-18 -13t-20.5 -4.5t-23.5 -1h-1266q-19 0 -30.5 1.5t-24 11.5t-12.5 30zM707 184q0 45 32.5 78t77.5 33t78 -33t33 -78q0 -46 -32.5 -78t-78.5 -32t-78 32t-32 78zM707 844 q0 45 32.5 77.5t77.5 32.5t78 -33t33 -77q0 -46 -32.5 -78.5t-78.5 -32.5t-78 32.5t-32 78.5z" />
<glyph unicode="&#xf8;" d="M70 436q0 129 60 240t165.5 176.5t230.5 65.5q113 0 217 -60l140 236l45 -25l-142 -240q75 -50 135 -154t60 -239q0 -191 -133.5 -325t-323.5 -134q-103 0 -213 54l-145 -242l-43 27l143 241q-59 44 -100 96.5t-60.5 104.5t-27.5 94.5t-8 83.5zM221 438q0 -105 17 -180.5 t69 -132.5l402 676q-80 65 -185 65q-63 0 -129.5 -30.5t-113.5 -106.5q-60 -99 -60 -291zM346 86q82 -57 178 -57q78 0 138.5 32t97.5 82q31 42 47 100.5t19 98.5t3 96q0 110 -17.5 187t-66.5 137z" />
<glyph unicode="&#xf9;" horiz-adv-x="1169" d="M72 819v64l309 22v-678q0 -39 2.5 -63.5t12 -53t28.5 -44.5t53 -26.5t84 -10.5q110 0 180 88t70 225v363q0 75 -27 94.5t-131 19.5v64l310 22v-727q0 -75 26.5 -95t130.5 -20v-63l-303 -23v170h-2q-82 -170 -266 -170q-144 0 -225 56q-64 49 -79.5 110t-15.5 181v307v61 t-2.5 44.5t-5 35t-12 21t-18 15.5t-28.5 6.5t-38.5 4.5h-52.5zM326 1350q0 34 24 57t53 23q24 0 36 -8t28 -29l250 -310l-39 -43l-309 242q-43 32 -43 68z" />
<glyph unicode="&#xfa;" horiz-adv-x="1169" d="M72 819v64l309 22v-678q0 -39 2.5 -63.5t12 -53t28.5 -44.5t53 -26.5t84 -10.5q110 0 180 88t70 225v363q0 75 -27 94.5t-131 19.5v64l310 22v-727q0 -75 26.5 -95t130.5 -20v-63l-303 -23v170h-2q-82 -170 -266 -170q-144 0 -225 56q-64 49 -79.5 110t-15.5 181v307v61 t-2.5 44.5t-5 35t-12 21t-18 15.5t-28.5 6.5t-38.5 4.5h-52.5zM455 1083l250 310q12 15 17.5 20.5t17 11t28.5 5.5q29 0 53.5 -23t24.5 -57q0 -36 -43 -68l-309 -242z" />
<glyph unicode="&#xfb;" horiz-adv-x="1169" d="M72 819v64l309 22v-678q0 -39 2.5 -63.5t12 -53t28.5 -44.5t53 -26.5t84 -10.5q110 0 180 88t70 225v363q0 75 -27 94.5t-131 19.5v64l310 22v-727q0 -75 26.5 -95t130.5 -20v-63l-303 -23v170h-2q-82 -170 -266 -170q-144 0 -225 56q-64 49 -79.5 110t-15.5 181v307v61 t-2.5 44.5t-5 35t-12 21t-18 15.5t-28.5 6.5t-38.5 4.5h-52.5zM274 1083l312 332l311 -332l-27 -28l-284 221l-285 -221z" />
<glyph unicode="&#xfc;" horiz-adv-x="1169" d="M72 819v64l309 22v-678q0 -39 2.5 -63.5t12 -53t28.5 -44.5t53 -26.5t84 -10.5q110 0 180 88t70 225v363q0 75 -27 94.5t-131 19.5v64l310 22v-727q0 -75 26.5 -95t130.5 -20v-63l-303 -23v170h-2q-82 -170 -266 -170q-144 0 -225 56q-64 49 -79.5 110t-15.5 181v307v61 t-2.5 44.5t-5 35t-12 21t-18 15.5t-28.5 6.5t-38.5 4.5h-52.5zM305 1237q0 41 29.5 69.5t71.5 28.5q41 0 69.5 -28.5t28.5 -69.5t-28.5 -70.5t-69.5 -29.5t-71 29.5t-30 70.5zM670 1237q0 41 29.5 69.5t70.5 28.5t69.5 -28.5t28.5 -69.5t-28.5 -70.5t-69.5 -29.5t-70.5 29.5 t-29.5 70.5z" />
<glyph unicode="&#xfd;" horiz-adv-x="1110" d="M41 -252q0 41 24.5 64.5t63.5 23.5q36 0 61 -23.5t25 -62.5q0 -24 -9 -42.5t-22.5 -27.5t-24 -13t-18.5 -5q47 -31 92 -31q38 0 71.5 16.5t56 38t45.5 60t35 64.5t30 69l51 121l-323 760q-18 39 -49 49t-107 10v64q80 -6 203 -6l227 6v-64q-23 0 -37 -1t-34.5 -5.5 t-31 -16t-10.5 -30.5q1 -14 13 -43l229 -537l207 488q16 32 16 59q0 6 -0.5 12t-5.5 20t-14 24.5t-28.5 19.5t-45.5 10v64q85 -6 178 -6q90 0 156 6v-64q-46 -1 -80.5 -14.5t-56.5 -39t-32 -42.5t-22 -45l-370 -866q-43 -99 -111.5 -165.5t-159.5 -66.5q-79 0 -135.5 49.5 t-56.5 118.5zM424 1083l250 310q12 15 17.5 20.5t17 11t28.5 5.5q29 0 53.5 -23t24.5 -57q0 -36 -43 -68l-309 -242z" />
<glyph unicode="&#xfe;" horiz-adv-x="1169" d="M61 -334q107 0 132.5 13t25.5 81v1461q0 75 -27 94.5t-131 19.5v64l304 22v-645q120 129 290 129q182 0 312.5 -135t130.5 -328q0 -130 -66.5 -238t-173.5 -167.5t-229 -59.5q-62 0 -116.5 21.5t-80 42.5t-61.5 57v-338q0 -68 25 -81t132 -13v-63q-163 6 -233 6 q-90 0 -234 -6v63zM371 238q0 -31 3.5 -43t22.5 -41q39 -57 96 -91t123 -34q126 0 216 120t90 293q0 167 -82 286.5t-201 119.5q-73 0 -146 -38.5t-122 -121.5v-450z" />
<glyph unicode="&#xff;" horiz-adv-x="1110" d="M41 -252q0 41 24.5 64.5t63.5 23.5q36 0 61 -23.5t25 -62.5q0 -24 -9 -42.5t-22.5 -27.5t-24 -13t-18.5 -5q47 -31 92 -31q38 0 71.5 16.5t56 38t45.5 60t35 64.5t30 69l51 121l-323 760q-18 39 -49 49t-107 10v64q80 -6 203 -6l227 6v-64q-23 0 -37 -1t-34.5 -5.5 t-31 -16t-10.5 -30.5q1 -14 13 -43l229 -537l207 488q16 32 16 59q0 6 -0.5 12t-5.5 20t-14 24.5t-28.5 19.5t-45.5 10v64q85 -6 178 -6q90 0 156 6v-64q-46 -1 -80.5 -14.5t-56.5 -39t-32 -42.5t-22 -45l-370 -866q-43 -99 -111.5 -165.5t-159.5 -66.5q-79 0 -135.5 49.5 t-56.5 118.5zM274 1237q0 41 29.5 69.5t71.5 28.5q41 0 69.5 -28.5t28.5 -69.5t-28.5 -70.5t-69.5 -29.5t-71 29.5t-30 70.5zM639 1237q0 41 29.5 69.5t70.5 28.5t70 -28.5t29 -69.5t-29 -70.5t-70 -29.5t-70.5 29.5t-29.5 70.5z" />
<glyph unicode="&#x152;" horiz-adv-x="2134" d="M145 694q0 156 57.5 296.5t152.5 239t222.5 156.5t264.5 58q51 0 139 -19q122 -26 188 -26h789l57 -461h-57q-9 77 -19 127.5t-27.5 99.5t-43 77.5t-65.5 51.5t-94.5 32t-129.5 9h-238q-69 0 -84.5 -14.5t-15.5 -69.5v-493h227q63 0 105 8.5t69 24.5t40.5 46.5t18.5 66.5 t5 93h57v-542h-57q0 72 -8 113.5t-33.5 72t-72 42t-124.5 11.5h-227v-547q0 -55 15.5 -69.5t84.5 -14.5h236q64 0 115 6.5t91 22t69.5 34t52.5 51t39 63.5t29.5 81.5t22 94.5t19.5 112h58l-88 -528h-816q-64 0 -188 -27q-83 -18 -139 -18q-136 0 -263 56t-222.5 153 t-153.5 235.5t-58 294.5zM348 725q0 -196 67.5 -361.5t183 -261.5t251.5 -96q41 0 73 7t54 16.5t38.5 28.5t25.5 35t16 45t9.5 48t6.5 54q8 74 8 460q0 390 -10 478q-6 54 -15.5 87.5t-32 65.5t-65.5 47t-108 15q-100 0 -192 -51t-160.5 -138.5t-109 -212.5t-40.5 -266z" />
<glyph unicode="&#x153;" horiz-adv-x="1636" d="M59 449q0 98 36.5 185.5t97 149.5t143 98t172.5 36q127 0 222 -63t144 -140q21 35 51.5 67t74 64.5t102 52t123.5 19.5q166 0 258 -115t92 -289q0 -32 -9 -38.5t-46 -6.5h-568q0 -88 16 -159.5t40 -115.5t58 -76.5t62 -48t60.5 -24t46 -9.5t25.5 -1q13 0 26.5 1.5t40 7.5 t51 20.5t51 36t50 60t39.5 87.5q6 22 28 22q13 0 21 -7.5t8 -18.5q0 -15 -10.5 -44t-36.5 -68t-62 -73t-93 -58t-124 -24q-123 0 -221.5 63t-150.5 146q-61 -99 -159.5 -154t-209.5 -55q-120 0 -223.5 63t-164.5 172t-61 237zM223 457q0 -81 13 -147.5t33 -110t47.5 -76.5 t54 -50t55.5 -28t48 -13.5t36 -2.5q16 0 35 3t48.5 14t56 28.5t55 50.5t49.5 76t34 109.5t13 146.5q0 107 -25.5 187.5t-60 121t-79.5 65t-73.5 30t-52.5 5.5q-16 0 -32.5 -2t-46.5 -11t-56 -24.5t-55 -46.5t-49.5 -72.5t-34 -107t-13.5 -145.5zM954 518h484l-3 43.5 t-6.5 57t-13.5 69t-24.5 64t-37.5 59.5t-55 38.5t-75 16.5q-39 0 -80 -17.5t-82.5 -54.5t-71 -108.5t-35.5 -167.5z" />
<glyph unicode="&#x178;" horiz-adv-x="1579" d="M27 1335v64l270 -6q213 0 297 6v-64q-30 0 -49.5 -1t-42.5 -5.5t-35 -16t-12 -28.5q0 -11 18 -41l385 -598l350 551q21 33 23 49v10q0 36 -29.5 58t-83.5 22v64l232 -6q128 0 200 6v-64q-76 -1 -132 -24t-82.5 -50t-51.5 -67l-405 -635v-399q0 -42 7.5 -59.5t42 -27.5 t111.5 -10h47v-63q-98 6 -299 6q-200 0 -296 -6v63h47q48 0 77.5 3.5t47 9t25.5 19.5t9.5 27t1.5 40v397l-450 703q-29 44 -64 58.5t-125 14.5h-34zM475 1608q0 41 29.5 69.5t70.5 28.5t70 -28.5t29 -69.5t-29 -71t-70 -30t-70.5 30t-29.5 71zM905 1608q0 41 29.5 69.5 t71.5 28.5q41 0 69.5 -28.5t28.5 -69.5q0 -42 -28.5 -71.5t-69.5 -29.5t-71 30t-30 71z" />
<glyph unicode="&#x2c6;" d="M215 1083l311 332l312 -332l-27 -28l-285 221l-284 -221z" />
<glyph unicode="&#x2dc;" d="M176 1171q92 101 132 131.5t93 30.5q44 0 123 -41q95 -53 148 -53q44 0 81.5 23.5t84.5 70.5l36 -35q-92 -100 -132 -130.5t-93 -30.5q-44 0 -123 41q-95 53 -147 53q-44 0 -81.5 -23.5t-84.5 -70.5z" />
<glyph unicode="&#x2000;" horiz-adv-x="933" />
<glyph unicode="&#x2001;" horiz-adv-x="1866" />
<glyph unicode="&#x2002;" horiz-adv-x="933" />
<glyph unicode="&#x2003;" horiz-adv-x="1866" />
<glyph unicode="&#x2004;" horiz-adv-x="622" />
<glyph unicode="&#x2005;" horiz-adv-x="466" />
<glyph unicode="&#x2006;" horiz-adv-x="311" />
<glyph unicode="&#x2007;" horiz-adv-x="311" />
<glyph unicode="&#x2008;" horiz-adv-x="233" />
<glyph unicode="&#x2009;" horiz-adv-x="373" />
<glyph unicode="&#x200a;" horiz-adv-x="103" />
<glyph unicode="&#x2010;" horiz-adv-x="702" d="M23 379v127h561v-127h-561z" />
<glyph unicode="&#x2011;" horiz-adv-x="702" d="M23 379v127h561v-127h-561z" />
<glyph unicode="&#x2012;" horiz-adv-x="702" d="M23 379v127h561v-127h-561z" />
<glyph unicode="&#x2013;" d="M0 520v51h1051v-51h-1051z" />
<glyph unicode="&#x2014;" horiz-adv-x="2105" d="M0 520v51h2103v-51h-2103z" />
<glyph unicode="&#x2018;" horiz-adv-x="585" d="M152 1020q0 69 18 135t44.5 112t54.5 81.5t49 53t28 17.5q10 0 18.5 -8t8.5 -16q0 -10 -11 -21q-75 -70 -117 -161.5t-42 -190.5l4 -31q4 2 8 6q35 27 76 27q51 0 80.5 -33t29.5 -78q0 -44 -29.5 -77t-80.5 -33q-64 0 -101.5 59t-37.5 158z" />
<glyph unicode="&#x2019;" horiz-adv-x="585" d="M180 1311q0 44 30 77t81 33q64 0 101.5 -59t37.5 -158q0 -69 -18 -135t-44.5 -112t-54.5 -81.5t-49 -53t-28 -17.5q-10 0 -18.5 8t-8.5 16q0 11 10 21q75 71 117.5 162t42.5 190l-4 31q-4 -2 -8 -6q-34 -27 -76 -27q-51 0 -81 33.5t-30 77.5z" />
<glyph unicode="&#x201a;" horiz-adv-x="585" d="M168 102q0 44 30 77.5t81 33.5q64 0 101.5 -59t37.5 -158q0 -69 -18.5 -135t-44.5 -112t-54.5 -81.5t-49.5 -53t-28 -17.5q-10 0 -18 8t-8 16q0 11 10 21q75 71 117.5 162t42.5 190l-5 31q-4 -3 -8 -7q-33 -26 -75 -26q-51 0 -81 33t-30 77z" />
<glyph unicode="&#x201c;" horiz-adv-x="995" d="M152 1020q0 69 18 135t44.5 112t54.5 81.5t49 53t28 17.5q10 0 18.5 -8t8.5 -16q0 -10 -11 -21q-75 -70 -117 -161.5t-42 -190.5l4 -31q4 2 8 6q35 27 76 27q51 0 80.5 -33t29.5 -78q0 -44 -29.5 -77t-80.5 -33q-64 0 -101.5 59t-37.5 158zM561 1020q0 69 18.5 135 t44.5 112t54.5 81.5t49.5 53t28 17.5q10 0 18 -8t8 -16q0 -11 -10 -21q-75 -71 -117.5 -162t-42.5 -190l4 -31q5 2 9 6q35 27 75 27q51 0 81 -33.5t30 -77.5t-30 -77t-81 -33q-64 0 -101.5 59t-37.5 158z" />
<glyph unicode="&#x201d;" horiz-adv-x="995" d="M184 1311q0 44 30 77t81 33q64 0 101.5 -59t37.5 -158q0 -69 -18 -135t-44.5 -112t-54.5 -81.5t-49 -53t-28 -17.5q-10 0 -18.5 8t-8.5 16q0 11 10 21q75 71 117.5 162t42.5 190l-4 31q-4 -2 -8 -6q-35 -27 -76 -27q-51 0 -81 33.5t-30 77.5zM594 1311q0 44 30 77t81 33 q64 0 101.5 -59t37.5 -158q0 -69 -18.5 -135t-44.5 -112t-54.5 -81.5t-49.5 -53t-28 -17.5q-10 0 -18 8t-8 16q0 11 10 21q75 71 117.5 162t42.5 190l-5 31q-4 -2 -8 -6q-34 -27 -75 -27q-51 0 -81 33.5t-30 77.5z" />
<glyph unicode="&#x201e;" horiz-adv-x="995" d="M184 102q0 44 30 77.5t81 33.5q64 0 101.5 -59t37.5 -158q0 -69 -18 -135t-44.5 -112t-54.5 -81.5t-49 -53t-28 -17.5q-10 0 -18.5 8t-8.5 16q0 11 10 21q75 71 117.5 162t42.5 190l-4 31q-4 -3 -8 -7q-33 -26 -76 -26q-51 0 -81 33t-30 77zM594 102q0 44 30 77.5 t81 33.5q64 0 101.5 -59t37.5 -158q0 -69 -18.5 -135t-44.5 -112t-54.5 -81.5t-49.5 -53t-28 -17.5q-10 0 -18 8t-8 16q0 11 10 21q75 71 117.5 162t42.5 190l-5 31q-4 -3 -8 -7q-33 -26 -75 -26q-51 0 -81 33t-30 77z" />
<glyph unicode="&#x2022;" horiz-adv-x="1636" d="M520 465q0 121 88 210t211 89t211 -89t88 -210q0 -125 -87 -212t-212 -87t-212 87t-87 212z" />
<glyph unicode="&#x2026;" horiz-adv-x="1404" d="M182 111q0 45 33 77.5t78 32.5t77.5 -32.5t32.5 -77.5q0 -46 -32 -78.5t-78 -32.5t-78.5 32.5t-32.5 78.5zM592 111q0 45 32.5 77.5t77.5 32.5q46 0 78.5 -32.5t32.5 -77.5q0 -46 -32.5 -78.5t-78.5 -32.5t-78 32.5t-32 78.5zM1001 111q0 45 32.5 77.5t78.5 32.5 t78.5 -32.5t32.5 -77.5q0 -46 -32.5 -78.5t-78.5 -32.5t-78.5 32.5t-32.5 78.5z" />
<glyph unicode="&#x202f;" horiz-adv-x="373" />
<glyph unicode="&#x2039;" horiz-adv-x="819" d="M233 496q0 9 7 16q199 193 297 463q3 14 20 14h6q9 0 16 -6.5t7 -15.5v-4q-58 -246 -197 -467q139 -224 197 -467v-6q0 -9 -7 -16t-16 -7h-6q-17 0 -20 14q-95 266 -297 465q-7 7 -7 17z" />
<glyph unicode="&#x203a;" horiz-adv-x="819" d="M233 23v6q58 243 197 467q-139 221 -197 467v4q0 9 7 15.5t16 6.5h6q18 0 21 -14q98 -270 297 -463q6 -6 6 -16q0 -11 -6 -17q-202 -199 -297 -465q-3 -14 -21 -14h-6q-9 0 -16 7t-7 16z" />
<glyph unicode="&#x205f;" horiz-adv-x="466" />
<glyph unicode="&#x20ac;" horiz-adv-x="1316" d="M115 584l6 16q4 16 20 16h97q-5 68 -5 84q0 12 5 84h-101q-12 0 -18.5 9t-3.5 20l6 16q4 17 20 17h105q31 211 164 379q82 101 194 160t236 59q135 0 237 -92l80 86q6 6 17 6h4q9 0 15.5 -7t6.5 -16v-313q0 -9 -6.5 -16t-15.5 -7h-17q-19 0 -22 21q-12 116 -92 196 t-191 80q-94 0 -175 -52.5t-134 -139.5q-84 -139 -101 -344h617q10 0 17 -7t5 -16l-6 -22q-3 -17 -20 -17h-615l-2 -84l2 -84h551q11 0 17.5 -6.5t5.5 -15.5l-6 -23q-3 -16 -21 -16h-545q17 -208 101 -344q54 -87 135 -141t174 -54q111 0 191 81t92 198q4 18 22 18h17 q9 0 15.5 -6.5t6.5 -15.5v-314q0 -9 -6.5 -15.5t-15.5 -6.5h-4q-12 0 -17 8l-80 84q-102 -92 -237 -92q-124 0 -236 59t-194 160q-133 168 -164 381h-109q-12 0 -18.5 9t-3.5 20z" />
<glyph unicode="&#x2122;" horiz-adv-x="2070" d="M45 1122l25 277h770l24 -277h-33q-7 82 -16.5 124t-35 71t-64.5 37t-111 8q-55 0 -67 -2q-18 -4 -21.5 -13t-3.5 -36v-645q0 -25 5 -35t33.5 -17.5t90.5 -7.5h47v-39q-45 4 -231 4q-189 0 -234 -4v39h49q62 0 90.5 7.5t33.5 17.5t5 35v645q0 26 -4 35.5t-20 13.5 q-12 2 -72 2q-48 0 -79.5 -3.5t-57 -14t-39.5 -25.5t-24.5 -44.5t-15.5 -63.5t-9 -89h-35zM918 567v39q36 0 61 7t37 15.5t18.5 23.5t7 23t0.5 23v613q0 26 -4.5 36t-24.5 15.5t-67 5.5h-28v39h206q24 0 30.5 -4t14.5 -23l275 -692l274 696q7 16 14.5 19.5t28.5 3.5h207v-39 h-29q-47 0 -67 -5.5t-24.5 -15.5t-4.5 -36v-645q0 -38 14.5 -49t81.5 -11h29v-39q-78 4 -176 4q-100 0 -174 -4v39h29q67 0 81.5 11t14.5 49v700l-307 -776q-14 -23 -25 -23q-15 0 -27 27l-301 762h-2v-658q0 -18 2.5 -29t12.5 -28t38 -26t72 -9v-39q-132 4 -143 4 q-9 0 -145 -4z" />
<glyph unicode="&#x25fc;" horiz-adv-x="880" d="M0 0v881h881v-881h-881z" />
<glyph unicode="&#xfb03;" horiz-adv-x="1753" d="M57 819v64h162v231q0 78 40.5 142.5t106 104.5t143.5 61.5t157 21.5q86 0 148 -31t95 -80q146 111 344 111q121 0 199 -60t78 -149q0 -42 -28 -69t-70 -27q-38 0 -67.5 26.5t-29.5 69.5q0 12 3.5 25t12 29t28.5 27.5t48 14.5q-65 62 -176 62q-37 0 -77 -9t-82 -30.5 t-75 -53t-54 -81.5t-21 -111v-225h250q33 0 37 2t37 4l266 18v-749q0 -68 25.5 -81.5t132.5 -13.5v-63q-150 6 -232 6q-85 0 -229 -6v63q106 0 131.5 13.5t25.5 81.5v551q0 66 -19.5 88t-88.5 22h-330v-661q0 -68 25.5 -81.5t132.5 -13.5v-63q-150 6 -232 6q-85 0 -229 -6 v63q107 0 132.5 13.5t25.5 81.5v661h-438v-661q0 -68 25.5 -81.5t131.5 -13.5v-63q-150 6 -231 6q-86 0 -230 -6v63q107 0 132.5 13.5t25.5 81.5v661h-162zM358 883h445v264q-28 11 -43 36t-15 52q0 8 2 18t9.5 28.5t28.5 32.5t53 17q-66 62 -174 62q-36 0 -75 -8.5 t-81 -29.5t-75 -52.5t-54 -82t-21 -112.5v-225z" />
</font>
</defs>
</svg>
