<?xml version="1.0" standalone="no"?>
<!DOCTYPE svg PUBLIC "-//W3C//DTD SVG 1.1//EN" "http://www.w3.org/Graphics/SVG/1.1/DTD/svg11.dtd" >
<svg>
<metadata>
Created by FontForge 20090914 at Wed Mar 19 14:35:17 2014
 By www-data
Copyright 2000, 2002, 2004 , 2005Adobe Systems Incorporated. All Rights Reserved. U.S. Patent D371,799.Minion is either a registered trademark or a trademark of Adobe Systems Incorporated in the United States and/or other countries.
</metadata>
<defs>
<font id="MinionPro-Regular" horiz-adv-x="400" >
  <font-face 
    font-family="Minion Pro"
    font-weight="400"
    font-stretch="normal"
    units-per-em="1000"
    panose-1="2 4 5 3 5 2 1 2 2 3"
    ascent="727"
    descent="-273"
    x-height="437"
    cap-height="650"
    bbox="-290 -360 1684 989"
    underline-thickness="50"
    underline-position="-50"
    stemh="32"
    stemv="79"
    unicode-range="U+0020-U+FB06"
  />
<missing-glyph horiz-adv-x="500" 
d="M0 0v700h500v-700h-500zM250 395l170 255h-340zM280 350l170 -255v510zM80 50h340l-170 255zM50 605v-510l170 255z" />
    <glyph glyph-name="T_h" unicode="Th" horiz-adv-x="1071" 
d="M1052 0h-212v26c59 6 66 13 66 79v164c0 82 -31 124 -99 123c-37 0 -77 -19 -103 -52v-235c0 -65 5 -73 65 -79v-26h-214v26c63 6 70 13 70 79v503c-55 5 -107 6 -196 6h-70v-488c0 -85 8 -93 99 -99v-27h-281v27c88 6 97 14 97 99v488h-63c-89 0 -107 -9 -122 -32
c-12 -19 -21 -42 -32 -87h-29c4 58 10 125 12 180h19c14 -22 26 -25 54 -25h416c83 0 96 6 96 26v15c19 3 51 13 79 23v-337c36 38 88 71 139 72c85 2 142 -51 142 -170v-174c0 -68 7 -73 67 -79v-26z" />
    <glyph glyph-name="Tcaron_h" unicode="&#x164;h" horiz-adv-x="1071" 
d="M1052 0h-212v26c59 6 66 13 66 79v164c0 82 -31 124 -99 123c-37 0 -77 -19 -103 -52v-235c0 -65 5 -73 65 -79v-26h-214v26c63 6 70 13 70 79v503c-55 5 -107 6 -196 6h-70v-488c0 -85 8 -93 99 -99v-27h-281v27c88 6 97 14 97 99v488h-63c-89 0 -107 -9 -122 -32
c-12 -19 -21 -42 -32 -87h-29c4 58 10 125 12 180h19c14 -22 26 -25 54 -25h416c83 0 96 6 96 26v15c19 3 51 13 79 23v-337c36 38 88 71 139 72c85 2 142 -51 142 -170v-174c0 -68 7 -73 67 -79v-26zM442 821l15 -26c-43 -32 -86 -66 -125 -107h-22c-40 41 -83 74 -126 107
l15 26c41 -18 82 -38 122 -62c39 23 81 44 121 62z" />
    <glyph glyph-name="Tcommaaccent_h" unicode="&#x162;h" horiz-adv-x="1071" 
d="M1052 0h-212v26c59 6 66 13 66 79v164c0 82 -31 124 -99 123c-37 0 -77 -19 -103 -52v-235c0 -65 5 -73 65 -79v-26h-214v26c63 6 70 13 70 79v503c-55 5 -107 6 -196 6h-70v-488c0 -85 8 -93 99 -99v-27h-281v27c88 6 97 14 97 99v488h-63c-89 0 -107 -9 -122 -32
c-12 -19 -21 -42 -32 -87h-29c4 58 10 125 12 180h19c14 -22 26 -25 54 -25h416c83 0 96 6 96 26v15c19 3 51 13 79 23v-337c36 38 88 71 139 72c85 2 142 -51 142 -170v-174c0 -68 7 -73 67 -79v-26zM311 -28h1c37 0 73 -31 73 -78c0 -60 -49 -92 -106 -106l-10 27
c38 16 61 32 61 56c0 22 -21 35 -45 41c-8 2 -15 9 -15 24c0 24 21 36 41 36z" />
    <glyph glyph-name="f_b" unicode="fb" horiz-adv-x="803" 
d="M447 405l82 34c16 7 30 10 42 10c106 0 197 -91 197 -209c0 -147 -118 -252 -252 -252c-41 0 -93 10 -147 36v599c-21 22 -56 42 -94 42c-34 0 -54 -17 -68 -36c-14 -21 -28 -68 -27 -151v-41h117c6 -10 2 -33 -11 -40h-106v-283c0 -72 8 -80 87 -88v-26h-234v26
c59 6 68 15 68 79v292h-70l-5 12l28 28h47v22c0 31 4 61 11 82c7 25 24 73 77 118c38 31 74 48 117 53c28 -1 56 -10 74 -22c19 5 44 14 62 22l5 -6v-301zM447 376v-260c0 -15 2 -25 6 -35c7 -20 36 -56 88 -56c85 -1 138 76 138 189s-68 181 -153 181c-29 0 -60 -8 -79 -19
z" />
    <glyph glyph-name="f_f_b" unicode="ffb" horiz-adv-x="1071" 
d="M715 707v-302l81 34c16 7 31 10 42 10c106 0 197 -91 197 -209c0 -147 -119 -252 -253 -252c-42 0 -92 10 -146 36v598c-20 25 -54 47 -91 47c-34 0 -55 -18 -68 -36c-16 -22 -29 -69 -30 -157v-39h117c6 -9 1 -33 -10 -40h-107v-293c0 -66 9 -72 79 -79v-25h-220v25
c54 7 62 13 62 80v292h-188v-293c0 -66 8 -71 68 -79v-25h-215v26c60 6 68 13 68 78v293h-70l-4 11l27 29h47v10c0 23 5 49 12 73c9 28 29 71 83 114c38 30 78 48 126 53c60 -2 95 -27 113 -48c43 45 88 68 139 73c27 -1 57 -9 75 -23c20 5 45 15 61 23zM368 437v17
c0 47 9 90 31 133c-18 26 -57 58 -108 58c-42 0 -66 -23 -80 -46c-17 -25 -31 -70 -31 -140v-22h188zM715 376v-259c0 -15 2 -25 6 -35c7 -20 36 -56 89 -56c79 -1 137 70 137 188c0 114 -69 180 -153 180c-28 0 -61 -8 -79 -18z" />
    <glyph glyph-name="f_f_h" unicode="ffh" horiz-adv-x="1081" 
d="M1063 0h-212v26c58 6 66 13 66 78v165c0 82 -32 125 -100 124c-37 0 -76 -18 -103 -52v-237c0 -64 9 -72 66 -78v-26h-208v26c54 6 64 13 64 78v518c-22 24 -54 46 -92 46c-34 0 -56 -18 -69 -37c-16 -22 -28 -67 -28 -155v-39h117c6 -10 3 -33 -10 -40h-107v-293
c0 -64 9 -71 71 -78v-26h-212v26c54 7 62 14 62 79v292h-188v-292c0 -65 8 -72 67 -79v-26h-212v26c58 7 66 16 66 79v292h-70l-3 11l27 29h46v10c0 24 6 50 13 73c8 26 30 73 82 114c38 30 78 49 128 53c58 -2 93 -27 112 -48c43 45 87 67 135 73c29 0 58 -10 75 -23
c21 5 46 14 64 23l4 -5v-329c37 38 89 70 141 71c84 3 141 -51 141 -170v-176c0 -65 8 -71 67 -77v-26zM368 437v17c0 47 9 91 31 133c-18 27 -55 58 -107 58c-43 0 -67 -23 -81 -47c-17 -26 -31 -69 -31 -139v-22h188z" />
    <glyph glyph-name="f_f_j" unicode="ffj" horiz-adv-x="787" 
d="M447 437h80c80 0 134 3 187 13l1 -339c0 -65 -4 -108 -23 -161c-34 -100 -95 -176 -117 -196c-9 -8 -18 -11 -26 -11c-13 0 -36 18 -36 42c0 13 7 19 21 24c34 11 56 21 68 37c12 15 19 35 25 72c6 46 9 105 9 193l-1 234c0 45 -2 53 -50 53h-138v-298
c0 -62 5 -68 71 -74v-26h-215v26c60 6 65 12 65 74v298h-188v-294c0 -67 6 -72 67 -79v-25h-212v26c58 6 67 12 67 78v294h-71l-3 10l26 29h48v20c0 22 4 46 10 70c10 29 31 74 84 114c38 29 77 47 126 51c62 -2 99 -28 116 -53c47 46 104 71 147 73c63 -1 96 -32 108 -47
c9 -13 11 -25 6 -36c-5 -8 -14 -19 -23 -25c-11 -8 -22 -9 -32 2c-21 23 -51 59 -102 59c-29 0 -49 -15 -64 -36c-21 -27 -31 -81 -31 -152v-40zM368 437v27c0 25 3 52 10 72c4 14 9 31 20 49c-19 31 -59 64 -111 64c-40 0 -63 -19 -77 -42c-15 -25 -30 -72 -30 -142v-28
h188z" />
    <glyph glyph-name="f_f_k" unicode="ffk" horiz-adv-x="1045" 
d="M1061 0l-132 -2c-52 54 -112 132 -167 198c-13 17 -21 22 -30 22c-6 0 -12 -1 -18 -3v-110c0 -67 9 -73 73 -79v-26h-219v26c59 6 68 12 68 79v517c-22 24 -55 46 -92 46c-32 0 -55 -16 -68 -36c-16 -21 -29 -68 -29 -156v-39h117c6 -9 2 -34 -10 -40h-107v-294
c0 -64 9 -70 72 -77v-26h-213v26c54 7 62 13 62 77v294h-188v-293c0 -65 8 -70 68 -78v-26h-215v27c59 6 68 12 68 77v293h-70l-4 9l27 31h47v10c0 23 5 49 13 74c9 26 28 71 81 113c39 30 80 49 130 53c58 -2 93 -27 111 -48c42 45 87 67 136 73c27 -1 56 -9 74 -22
c19 3 44 13 64 22l4 -5v-466c31 7 49 20 64 35c20 20 53 61 70 87c20 31 16 40 -29 44v27l205 9v-26c-66 -10 -90 -24 -127 -58c-25 -25 -42 -45 -86 -97c23 -35 121 -148 156 -182s56 -51 94 -54v-26zM368 437v17c0 47 9 91 31 133c-18 27 -56 58 -109 58
c-39 0 -64 -22 -80 -47c-17 -24 -30 -68 -30 -139v-22h188z" />
    <glyph glyph-name="f_f_t" unicode="fft" horiz-adv-x="852" 
d="M844 34l-70 -35c-18 -8 -31 -11 -40 -11c-63 0 -98 40 -98 119v291h-189v-295c0 -66 9 -71 77 -78v-25h-218v25c54 7 62 13 62 78v295h-188v-295c0 -65 8 -70 68 -78v-25h-215v26c60 6 68 13 68 77v295h-70l-4 10l27 29h47v11c0 22 5 49 12 70c9 28 29 73 82 116
c39 30 80 49 129 53c57 -2 93 -26 112 -48c43 45 87 67 132 73c36 -1 61 -15 75 -30c10 -12 12 -23 7 -35c-5 -9 -14 -21 -25 -27c-8 -5 -13 -4 -22 4c-21 20 -48 36 -78 36c-23 0 -40 -11 -54 -32s-24 -62 -24 -159v-32h189v67l65 68l13 -2v-133h114c9 -10 6 -31 -7 -39
h-107v-257c0 -79 33 -96 59 -96s48 9 62 16zM368 437v19c0 46 8 88 30 130c-18 26 -56 58 -107 58c-42 0 -65 -22 -81 -44c-17 -24 -30 -70 -30 -141v-22h188z" />
    <glyph glyph-name="f_h" unicode="fh" horiz-adv-x="814" 
d="M796 0h-212v26c58 6 66 14 66 79v164c0 82 -31 123 -99 123c-37 -1 -77 -19 -104 -52v-235c0 -65 9 -73 66 -79v-26h-209v26c55 6 64 14 64 79v517c-20 24 -55 45 -93 45c-32 0 -55 -18 -68 -37c-15 -20 -27 -71 -27 -154v-39h116c6 -10 1 -33 -10 -40h-106v-284
c0 -74 8 -79 66 -87v-26h-212v26c59 8 67 14 67 78v293h-70l-3 9l27 31h46v18c0 31 4 63 11 86c7 24 24 71 77 116c37 32 74 50 115 55c33 -1 60 -10 75 -23c21 5 45 14 63 23l5 -4v-330c37 37 89 70 140 71c85 3 142 -51 142 -171v-174c0 -65 8 -72 67 -78v-26z" />
    <glyph glyph-name="f_j" unicode="fj" horiz-adv-x="520" 
d="M181 437h79c80 0 135 3 187 13v-339c0 -65 -4 -109 -22 -162c-35 -100 -90 -166 -117 -193c-9 -9 -19 -13 -27 -13c-14 0 -37 17 -37 41c0 13 8 18 21 23c34 11 58 22 69 37c12 15 21 37 27 75c6 46 8 109 8 196v230c0 45 -3 53 -52 53h-136v-298c0 -63 6 -68 70 -74v-26
h-220v26c64 7 71 12 71 74v298h-71l-5 11l28 28h48v24c0 31 5 56 11 77c8 25 28 76 82 120c41 32 86 50 123 54c61 -2 96 -32 108 -48c8 -13 10 -26 5 -36c-5 -9 -14 -19 -23 -24c-11 -7 -20 -9 -29 1c-22 26 -57 58 -104 58c-28 0 -48 -13 -63 -35
c-19 -28 -31 -76 -31 -157v-34z" />
    <glyph glyph-name="f_k" unicode="fk" horiz-adv-x="778" 
d="M794 0l-132 -2c-52 55 -112 132 -167 198c-13 17 -21 22 -30 22c-6 0 -12 -1 -18 -3v-110c0 -66 9 -73 73 -78v-27h-221v27c61 5 70 11 70 78v519c-23 24 -56 42 -93 42c-34 0 -56 -18 -68 -37c-15 -22 -30 -70 -28 -153v-39h116c6 -9 2 -33 -9 -40h-107v-283
c0 -75 8 -80 67 -87v-27h-214v27c59 7 68 14 68 78v292h-71l-2 10l26 30h47v18c0 31 4 62 11 86c8 26 27 73 77 116c39 32 75 50 114 55c33 -1 60 -9 75 -22c19 3 45 13 64 22l5 -5v-466c31 7 49 20 64 35c21 20 53 62 71 88c21 31 20 40 -28 44v26l203 9v-25
c-67 -11 -88 -23 -126 -58c-26 -24 -43 -46 -88 -97c24 -35 122 -149 157 -183c35 -35 56 -51 94 -54v-26z" />
    <glyph glyph-name="f_t" unicode="ft" horiz-adv-x="582" 
d="M577 34l-69 -34c-17 -9 -32 -12 -41 -12c-63 0 -98 40 -98 119v290h-189v-292c0 -65 7 -73 74 -79v-26h-223v26c63 7 70 15 70 78v293h-70l-5 11l26 29h49v25c0 31 4 56 10 77c7 23 24 75 80 120c38 31 73 48 110 53c36 -1 61 -15 75 -30c10 -11 12 -24 7 -36
c-5 -9 -13 -19 -24 -26c-8 -5 -15 -5 -24 4c-18 18 -50 35 -77 35c-23 0 -41 -10 -54 -30c-14 -21 -25 -66 -24 -166v-26h189v68l64 67l14 -2v-133h114c8 -9 6 -32 -7 -40h-107v-256c0 -81 33 -97 59 -97s48 10 62 17z" />
    <glyph glyph-name="longs_b" unicode="&#x17f;b" horiz-adv-x="804" 
d="M447 404l79 35c16 7 32 10 43 10c107 0 199 -90 199 -209c0 -147 -121 -252 -253 -252c-41 0 -93 10 -147 36v601c-23 25 -55 44 -91 44s-56 -20 -70 -41c-15 -23 -27 -76 -27 -175v-340c0 -76 6 -80 73 -87v-26h-218v26c60 6 66 11 66 78v294h-70l-4 10l27 29h47v21
c0 32 4 60 10 82c8 25 25 74 77 118c37 32 76 49 117 54c31 -1 58 -11 75 -24c19 5 43 15 61 24l6 -5v-303zM447 376v-260c0 -15 1 -25 5 -35c7 -20 38 -55 91 -56c81 0 136 70 136 189c0 112 -71 180 -155 180c-27 0 -61 -9 -77 -18z" />
    <glyph glyph-name="longs_h" unicode="&#x17f;h" horiz-adv-x="814" 
d="M793 0h-208v26c57 6 64 11 64 78v165c0 83 -32 124 -100 123c-37 0 -76 -17 -102 -51v-238c0 -65 6 -71 64 -77v-26h-208v26c58 6 65 11 65 77v521c-24 27 -56 46 -93 46c-34 0 -55 -21 -68 -41c-15 -23 -27 -76 -27 -190v-328c0 -74 7 -78 67 -85v-26h-212v26
c59 7 66 14 66 77v295h-70l-4 10l27 29h47v22c0 31 4 60 11 81c7 25 24 73 76 118c37 31 75 49 115 54c33 -1 61 -11 76 -24c19 5 44 15 63 24l5 -5v-331c36 38 88 72 139 73c85 3 142 -50 142 -171v-175c0 -67 7 -71 65 -77v-26z" />
    <glyph glyph-name="longs_i" unicode="&#x17f;i" horiz-adv-x="533" 
d="M54 437h47v23c0 28 5 55 12 75c7 26 29 79 83 123c39 31 83 50 124 54c60 -2 94 -33 107 -50c9 -13 9 -25 5 -33c-4 -9 -14 -19 -22 -25c-11 -8 -22 -10 -30 0c-21 26 -54 60 -104 60c-29 0 -48 -15 -64 -38c-19 -28 -32 -85 -32 -188v-328c0 -72 7 -77 67 -84v-26h-211
v26c58 6 65 13 65 77v295h-71l-2 10zM514 0h-213v26c60 6 67 11 67 81v201c0 69 -5 71 -63 82v22c49 8 98 21 142 39v-344c0 -70 6 -75 67 -81v-26z" />
    <glyph glyph-name="longs_k" unicode="&#x17f;k" horiz-adv-x="777" 
d="M792 0l-131 -2c-48 49 -112 132 -167 198c-13 17 -21 21 -30 21c-6 0 -11 -1 -18 -3v-110c0 -66 7 -72 72 -78v-26h-217v26c61 6 67 12 67 77v521c-25 27 -55 46 -93 46c-35 0 -56 -21 -68 -41c-15 -24 -27 -76 -27 -186v-335c0 -70 7 -75 66 -82v-26h-212v26
c59 7 67 14 67 74v298h-71l-3 10l27 29h47v22c0 31 4 60 11 81c7 25 25 75 76 117c38 33 75 50 115 55c33 -1 63 -11 76 -24c19 5 45 15 62 24l5 -5v-465c32 7 49 18 63 33c23 22 55 62 76 94c16 24 14 35 -33 39v26l203 9v-25c-65 -11 -91 -24 -128 -59
c-25 -25 -43 -45 -86 -95c23 -34 118 -145 156 -184c35 -35 57 -51 95 -54v-26z" />
    <glyph glyph-name="longs_l" unicode="&#x17f;l" horiz-adv-x="533" 
d="M517 -1h-216v26c61 6 67 11 67 79v521c-22 24 -53 44 -92 44c-34 0 -54 -19 -66 -37c-19 -25 -30 -81 -30 -199v-320c0 -75 6 -80 64 -87v-26h-209v26c59 7 66 12 66 78v294h-70l-3 10l26 29h47v22c0 31 4 59 11 82c7 24 25 73 75 116c38 33 77 50 116 55
c34 -1 62 -11 77 -23c16 4 43 14 61 23l6 -6v-602c0 -69 7 -73 70 -79v-26z" />
    <glyph glyph-name="longs_longs" unicode="&#x17f;&#x17f;" horiz-adv-x="533" 
d="M101 437v10c0 26 5 51 12 71c9 25 29 72 78 114c40 33 82 51 126 55c49 -1 89 -19 115 -51c35 39 83 69 132 76c38 -1 69 -17 83 -34c10 -12 13 -23 8 -33c-4 -8 -14 -18 -22 -25c-8 -6 -15 -6 -23 2c-21 22 -49 42 -83 42c-28 0 -47 -17 -58 -38
c-14 -26 -22 -77 -22 -196v-321c0 -71 7 -76 69 -83v-26h-214v26c58 6 66 12 66 78v293h-72l-3 11l27 29h48v18c0 49 8 89 30 130c-28 34 -61 62 -114 62c-38 0 -63 -26 -78 -52c-16 -27 -26 -83 -26 -183v-305c0 -71 5 -74 64 -81v-26h-211v26c60 6 68 12 68 73v298h-70
l-3 11l26 29h47z" />
    <glyph glyph-name="longs_longs_i" unicode="&#x17f;&#x17f;i" horiz-adv-x="800" 
d="M101 437v10c0 21 3 49 11 72c10 24 27 71 79 115c38 31 79 49 125 53c51 -1 93 -20 121 -53c35 40 93 73 147 78c62 -2 97 -33 110 -51c9 -12 9 -24 5 -33c-4 -8 -13 -18 -23 -24c-10 -7 -20 -8 -28 1c-21 26 -57 59 -103 59c-30 0 -51 -14 -66 -38
c-19 -28 -32 -80 -32 -181v-336c0 -70 8 -76 69 -83v-26h-214v26c58 6 66 13 66 78v293h-71l-4 10l27 30h48v21c0 46 10 87 32 125c-26 34 -66 61 -118 61c-38 0 -60 -23 -75 -46c-16 -26 -27 -85 -27 -189v-301c0 -69 8 -75 64 -82v-26h-211v26c60 7 68 13 68 77v294h-72
l-3 10l27 30h48zM785 0h-218v26c60 7 68 14 68 80v202c0 69 -5 71 -63 81v23c49 8 98 21 142 39v-344c0 -67 8 -74 71 -81v-26z" />
    <glyph glyph-name="longs_longs_l" unicode="&#x17f;&#x17f;l" horiz-adv-x="800" 
d="M787 -1h-218v27c57 6 67 12 67 79v521c-24 27 -56 41 -89 41c-34 0 -58 -19 -71 -39c-15 -23 -28 -67 -28 -193v-323c0 -73 8 -79 67 -86v-26h-213v26c58 6 67 14 67 79v292h-71l-4 10l27 30h47v18c0 47 8 89 31 131c-24 35 -62 59 -113 59c-35 0 -58 -20 -74 -43
c-20 -28 -31 -91 -31 -186v-304c0 -73 8 -79 64 -86v-26h-211v26c59 6 67 14 67 78v293h-71l-3 10l27 30h47v10c0 20 4 50 11 71c10 27 28 73 80 116c39 32 81 50 125 54c47 0 88 -18 117 -52c36 37 88 70 137 76c33 0 60 -10 77 -24c16 4 44 15 62 24l5 -5v-602
c0 -67 9 -73 72 -79v-27z" />
    <glyph glyph-name="f_f" unicode="ff" horiz-adv-x="561" 
d="M99 437v13c0 27 5 55 12 76c9 25 27 70 79 110c40 32 79 50 127 54c57 -2 95 -26 116 -48c44 44 88 64 131 70c34 -1 64 -15 81 -35c9 -11 10 -23 5 -33c-3 -8 -12 -18 -21 -24c-9 -8 -20 -9 -29 0c-19 19 -49 41 -82 41c-26 0 -41 -14 -52 -32c-12 -20 -23 -66 -22 -158
l1 -34h119c5 -9 2 -32 -9 -39h-111v-294c0 -67 7 -72 82 -79v-25h-223v25c55 7 63 13 63 79v294h-188v-294c0 -66 7 -72 68 -79v-25h-215v26c60 6 68 12 68 78v294h-71l-3 11l26 28h48zM366 437v19c0 33 3 60 8 77c4 17 11 33 20 52c-20 30 -58 63 -111 63
c-38 0 -60 -21 -74 -43c-17 -25 -31 -68 -31 -144v-24h188z" />
    <glyph glyph-name="f_i" unicode="fi" horiz-adv-x="535" 
d="M517 0h-212v26c56 5 63 11 63 74v245c0 45 -3 53 -51 53h-137v-298c0 -62 7 -68 70 -74v-26h-219v26c62 7 71 12 71 74v298h-72l-5 11l28 28h49v24c0 31 4 56 11 77c7 25 28 76 82 119c41 33 87 51 124 55c61 -2 95 -32 106 -48c9 -13 9 -26 5 -36c-5 -9 -13 -19 -22 -25
c-12 -7 -21 -7 -29 2c-22 26 -56 58 -104 58c-29 0 -49 -16 -62 -35c-19 -26 -33 -77 -33 -157v-34h79c80 0 136 3 188 13v-350c0 -63 6 -68 70 -74v-26z" />
    <glyph glyph-name="f_l" unicode="fl" horiz-adv-x="533" 
d="M519 0h-216v26c58 5 65 12 65 74v522c-17 26 -53 45 -89 45c-31 0 -53 -15 -68 -36c-17 -22 -31 -66 -31 -141v-53h117c5 -9 1 -33 -10 -39h-107v-298c0 -62 6 -68 67 -74v-26h-216v26c64 7 70 12 70 74v298h-70l-4 11l27 28h47v18c0 40 5 67 13 89c8 26 26 71 81 116
c38 31 76 47 117 52c30 0 62 -10 82 -23c16 4 30 13 45 21l8 -5v-605c0 -62 8 -68 72 -74v-26z" />
    <glyph glyph-name="f_f_i" unicode="ffi" horiz-adv-x="798" 
d="M781 0h-211v26c55 6 63 11 63 74v245c0 45 -2 53 -51 53h-137v-298c0 -62 6 -68 66 -74v-26h-209v26c58 6 64 11 64 74v298h-188v-294c0 -66 6 -72 67 -79v-25h-212v26c59 6 66 10 66 78v294h-70l-4 10l27 29h47v20c0 22 4 48 11 72c9 28 31 72 84 113
c37 28 76 46 125 51c62 -2 100 -28 117 -52c47 45 104 69 147 72c63 -2 96 -33 108 -48c10 -13 11 -25 6 -36c-5 -8 -14 -19 -23 -25c-11 -7 -22 -9 -32 3c-21 23 -49 59 -99 59c-31 0 -51 -13 -67 -37c-20 -27 -31 -80 -31 -152v-40h80c79 0 134 3 187 13v-350
c0 -62 5 -68 69 -74v-26zM366 437v27c0 25 4 51 9 71c4 13 10 33 20 51c-19 31 -57 64 -110 64c-41 0 -63 -20 -77 -43c-16 -25 -30 -72 -30 -142v-28h188z" />
    <glyph glyph-name="f_f_l" unicode="ffl" horiz-adv-x="801" 
d="M785 0h-213v26c57 5 64 11 64 73v523c-16 26 -50 46 -88 46c-31 0 -55 -15 -70 -34c-16 -20 -31 -70 -31 -151v-46h118c5 -8 1 -33 -10 -39h-107l-1 -298c0 -63 7 -68 67 -74v-26h-211v26c59 6 66 12 66 74v298h-189v-294c0 -66 8 -71 67 -78v-26h-212v26
c58 6 67 11 67 78v294h-71l-3 11l27 28h47v18c0 24 4 50 11 71c9 25 28 69 81 111c38 30 79 49 129 54c62 -2 98 -29 116 -49c40 39 90 66 137 70c36 0 65 -9 88 -25c13 6 27 15 41 23l9 -6v-605c0 -62 7 -67 71 -73v-26zM369 437v20c0 37 4 65 10 84c4 13 10 28 20 48
c-19 30 -58 58 -110 58c-39 0 -65 -20 -80 -44c-15 -23 -29 -66 -29 -141v-25h189z" />
    <glyph glyph-name="longs_t" unicode="&#x17f;t" horiz-adv-x="578" 
d="M54 437h47v22c0 30 4 56 11 78c6 25 24 76 82 123c36 30 73 47 108 52c37 -1 61 -15 76 -30c10 -12 12 -25 7 -36c-5 -9 -15 -19 -25 -26c-8 -5 -13 -5 -21 3c-23 23 -50 40 -80 40c-21 0 -39 -13 -53 -34c-16 -26 -26 -78 -26 -191v-326c0 -71 8 -80 73 -86v-26h-219v26
c61 7 67 16 67 77v295h-70l-5 10zM572 33l-69 -34c-18 -8 -31 -11 -41 -11c-62 0 -98 39 -98 119v291h-68l-5 10l28 29h45v68l65 67l14 -2v-133h113c8 -10 5 -31 -7 -39h-106v-257c0 -81 30 -98 58 -98c24 0 47 9 61 16z" />
    <glyph glyph-name=".notdef" horiz-adv-x="500" 
d="M0 0v700h500v-700h-500zM250 395l170 255h-340zM280 350l170 -255v510zM80 50h340l-170 255zM50 605v-510l170 255z" />
    <glyph glyph-name="space" unicode=" " horiz-adv-x="227" 
 />
    <glyph glyph-name="exclam" unicode="!" horiz-adv-x="276" 
d="M136 665h1c36 0 53 -9 53 -30c0 -16 -2 -39 -7 -80c-13 -114 -20 -230 -29 -358c-5 -7 -30 -7 -35 0c-9 128 -15 244 -29 358c-4 41 -7 64 -7 80c0 21 17 30 53 30zM137 -12h-1c-31 0 -55 23 -55 59c0 33 24 58 56 58c33 0 57 -25 57 -58c0 -36 -24 -59 -57 -59z" />
    <glyph glyph-name="quotedbl" unicode="&#x22;" horiz-adv-x="318" 
d="M119 710l6 -5c-2 -23 -18 -158 -26 -219l-28 -12c-10 93 -25 195 -29 209zM268 710l6 -5c-2 -24 -17 -159 -26 -219l-28 -12c-11 93 -24 195 -28 209z" />
    <glyph glyph-name="numbersign" unicode="#" horiz-adv-x="480" 
d="M448 454l-9 -58h-91l-30 -137h86l-10 -58h-89l-38 -174h-38l37 174h-108l-38 -174h-39l39 174h-96l10 58h100l29 137h-93l8 58h98l33 154h39l-34 -154h108l33 154h38l-32 -154h87zM309 396h-108l-28 -137h107z" />
    <glyph glyph-name="dollar" unicode="$" horiz-adv-x="480" 
d="M264 363l29 -11c74 -27 141 -77 141 -167c0 -95 -64 -161 -170 -174v-87h-35v85c-59 0 -115 15 -156 41c-6 21 -19 80 -28 131l30 9c18 -59 58 -137 154 -148v242l-36 16c-70 29 -126 76 -126 153c0 79 56 149 162 161v79h35v-76c32 0 65 -6 89 -13c14 -4 23 -6 34 -8
l21 -125l-28 -7c-17 58 -37 108 -116 120v-221zM229 376v208c-64 -6 -93 -54 -93 -100c0 -53 36 -86 93 -108zM264 272v-229c61 8 95 53 95 107c0 46 -14 86 -83 117z" />
    <glyph glyph-name="percent" unicode="%" horiz-adv-x="756" 
d="M594 629l-404 -661l-30 23l401 661zM194 635h1c100 0 143 -101 143 -181s-42 -182 -144 -182s-145 102 -145 181c0 81 43 182 145 182zM195 605h-1c-61 0 -72 -100 -72 -151s11 -152 73 -152s71 103 71 151c0 51 -9 152 -71 152zM566 352h1c100 0 143 -102 143 -182
s-43 -182 -144 -182c-102 0 -145 102 -145 181c0 81 43 183 145 183zM566 322h-1c-60 0 -71 -99 -71 -152c0 -50 11 -152 73 -152c61 0 70 103 70 152c0 51 -9 152 -71 152z" />
    <glyph glyph-name="ampersand" unicode="&#x26;" horiz-adv-x="711" 
d="M717 427v-28c-70 -8 -83 -26 -116 -74c-28 -39 -52 -80 -87 -133c42 -42 133 -143 163 -201l-7 -10c-55 5 -110 28 -122 41c-12 15 -54 62 -87 97c-72 -97 -138 -133 -209 -133c-127 0 -198 95 -198 182c0 92 66 132 150 193c-45 43 -72 85 -72 139c0 89 76 158 164 158
c81 0 148 -58 148 -138c0 -41 -21 -70 -42 -88c-18 -15 -42 -34 -81 -60c33 -28 104 -90 168 -155c24 37 41 70 60 115c19 46 10 58 -61 67v28h229zM286 624h-1c-46 0 -81 -40 -81 -100c0 -52 31 -87 91 -133c48 35 74 74 74 128c0 57 -34 105 -83 105zM277 55h1
c67 0 127 45 160 91c-53 58 -117 119 -208 193c-66 -46 -91 -94 -91 -143c0 -95 73 -141 138 -141z" />
    <glyph glyph-name="quotesingle" unicode="'" horiz-adv-x="169" 
d="M119 710l6 -5c-2 -23 -18 -157 -26 -219l-28 -12c-10 94 -25 195 -29 209z" />
    <glyph glyph-name="parenleft" unicode="(" horiz-adv-x="346" 
d="M300 -147l-18 -22c-146 98 -212 259 -212 439v1c0 179 66 339 212 438l18 -23c-100 -83 -157 -244 -157 -416s58 -333 157 -417z" />
    <glyph glyph-name="parenright" unicode=")" horiz-adv-x="346" 
d="M275 270v-1c0 -179 -62 -337 -211 -438l-19 22c102 85 158 245 158 417s-58 334 -158 416l19 23c149 -100 211 -259 211 -439z" />
    <glyph glyph-name="asterisk" unicode="*" horiz-adv-x="404" 
d="M364 492l-132 -24l39 -137l-23 -10l-70 130l-122 -76l-15 22l103 93l-104 102l15 21l120 -80l58 132l25 -6l-28 -139l134 -2v-26z" />
    <glyph glyph-name="plus" unicode="+" horiz-adv-x="580" 
d="M529 230h-209v-230h-58v230h-210v49h210v208h58v-208h209v-49z" />
    <glyph glyph-name="comma" unicode="," horiz-adv-x="228" 
d="M94 129h1c35 0 91 -38 91 -108c0 -77 -70 -120 -131 -138l-11 29c48 20 77 46 77 84c0 36 -28 59 -63 67c-5 1 -12 8 -12 25c0 25 24 41 48 41z" />
    <glyph glyph-name="hyphen" unicode="-" horiz-adv-x="356" 
d="M300 253l-15 -55h-228l14 55h229z" />
    <glyph glyph-name="period" unicode="." horiz-adv-x="228" 
d="M114 -12h-1c-31 0 -55 23 -55 58c0 32 24 57 56 57s56 -25 56 -57c0 -35 -24 -58 -56 -58z" />
    <glyph glyph-name="slash" unicode="/" horiz-adv-x="331" 
d="M298 665l-217 -709h-56l217 709h56z" />
    <glyph glyph-name="zero" unicode="0" horiz-adv-x="480" 
d="M240 635h1c149 0 202 -169 202 -323c0 -146 -53 -324 -203 -324c-151 0 -205 165 -205 323c0 146 55 324 205 324zM239 602h-1c-90 0 -114 -150 -114 -289c0 -140 29 -291 116 -291c90 0 114 150 114 290c0 142 -25 290 -115 290z" />
    <glyph glyph-name="one" unicode="1" horiz-adv-x="480" 
d="M384 0h-275v27c91 7 96 15 96 87v385c0 52 -4 57 -48 59l-48 2v23c64 11 123 30 178 52v-521c0 -72 6 -80 97 -87v-27z" />
    <glyph glyph-name="two" unicode="2" horiz-adv-x="480" 
d="M412 140l28 -9c-13 -42 -23 -86 -35 -131h-374v23c56 55 112 112 162 170c62 74 125 156 125 242c0 84 -44 133 -118 133c-68 0 -110 -54 -136 -93l-22 20l57 81c30 33 77 59 135 59c88 0 168 -64 168 -169c0 -87 -40 -146 -132 -244l-142 -149h187c54 0 67 4 97 67z" />
    <glyph glyph-name="three" unicode="3" horiz-adv-x="480" 
d="M285 378v-2c88 -17 139 -79 139 -152c0 -162 -190 -236 -262 -236c-46 0 -87 22 -100 34c-14 13 -18 24 -16 36c1 13 14 26 23 33c8 6 16 7 24 0c26 -23 67 -51 124 -51c71 0 121 53 121 152c0 92 -70 129 -127 129c-24 0 -48 -6 -64 -11l-7 29c92 29 160 68 160 142
c0 62 -42 94 -95 94c-55 0 -95 -42 -120 -79l-21 20l44 63c28 31 74 56 126 56h1c90 0 149 -56 149 -132c0 -29 -12 -52 -31 -71c-15 -16 -39 -34 -68 -54z" />
    <glyph glyph-name="four" unicode="4" horiz-adv-x="480" 
d="M456 178h-96v-72c0 -67 4 -72 85 -79v-27h-256v27c87 7 91 13 91 79v72h-260v28c95 142 197 290 300 426h40v-407h96v-47zM280 225v296h-2c-64 -90 -129 -185 -195 -296h197z" />
    <glyph glyph-name="five" unicode="5" horiz-adv-x="480" 
d="M152 550l-26 -185c38 14 85 30 112 30c128 0 193 -87 193 -169c0 -60 -28 -117 -89 -167c-54 -44 -121 -70 -174 -71c-46 0 -88 21 -103 35c-13 14 -18 22 -16 34c1 10 10 23 21 33c9 7 17 8 27 0c21 -19 62 -51 123 -51c85 0 127 73 127 148c0 88 -54 151 -163 151
c-42 0 -80 -11 -103 -20l39 305h285l6 -8l-26 -65h-233z" />
    <glyph glyph-name="six" unicode="6" horiz-adv-x="480" 
d="M137 343l67 33c22 10 43 17 63 17c107 0 180 -82 180 -185c0 -119 -85 -220 -205 -220c-117 0 -205 96 -205 250c0 219 152 332 258 371c40 14 88 25 128 32l7 -32c-33 -6 -72 -18 -109 -35c-61 -29 -154 -92 -184 -231zM228 337h-1c-37 0 -71 -15 -95 -28
c-5 -19 -6 -43 -6 -69c0 -120 51 -218 133 -218c78 0 102 84 102 150c0 83 -42 165 -133 165z" />
    <glyph glyph-name="seven" unicode="7" horiz-adv-x="480" 
d="M447 623l8 -12l-283 -613l-74 -10l-7 11c105 171 218 377 297 551h-216c-66 0 -72 -9 -96 -75h-29c9 55 14 105 18 148h382z" />
    <glyph glyph-name="eight" unicode="8" horiz-adv-x="480" 
d="M248 635h1c94 0 162 -67 162 -148c0 -29 -10 -58 -29 -80c-7 -9 -34 -33 -79 -64c69 -39 132 -87 132 -174c0 -117 -113 -181 -198 -181c-107 0 -192 62 -192 169c0 46 23 74 45 95c16 15 54 42 88 64c-65 37 -108 85 -108 155c0 84 71 164 178 164zM238 603h-1
c-58 0 -92 -52 -92 -103c0 -74 59 -107 130 -142c34 27 61 64 61 124c0 84 -52 121 -98 121zM247 20h1c60 0 107 46 107 123c0 75 -71 118 -148 157c-48 -32 -82 -82 -82 -137c0 -92 59 -143 122 -143z" />
    <glyph glyph-name="nine" unicode="9" horiz-adv-x="480" 
d="M242 635h1c124 0 197 -114 197 -250c0 -184 -101 -314 -236 -368c-54 -22 -115 -32 -140 -32l-5 30c143 24 252 124 285 276l-67 -36c-22 -12 -41 -16 -60 -16c-106 0 -179 78 -179 183c0 96 75 213 204 213zM229 602h-1c-76 0 -104 -86 -104 -145
c0 -88 50 -161 134 -161c35 0 69 12 90 28c3 22 4 46 4 66c0 88 -26 212 -123 212z" />
    <glyph glyph-name="colon" unicode=":" horiz-adv-x="228" 
d="M114 411h1c31 0 55 -23 55 -56c0 -34 -24 -58 -56 -58s-55 24 -55 58c0 33 23 56 55 56zM115 -12h-1c-31 0 -55 23 -55 58c0 32 24 57 56 57s56 -25 56 -57c0 -35 -24 -58 -56 -58z" />
    <glyph glyph-name="semicolon" unicode=";" horiz-adv-x="228" 
d="M114 411h1c31 0 54 -23 54 -57c0 -33 -23 -57 -55 -57s-56 24 -56 57c0 34 24 57 56 57zM94 130h1c36 0 91 -39 91 -108c0 -78 -69 -121 -130 -140l-11 30c48 20 76 46 76 84c0 37 -28 59 -62 67c-5 1 -13 8 -13 25c0 25 24 42 48 42z" />
    <glyph glyph-name="less" unicode="&#x3c;" horiz-adv-x="552" 
d="M493 0l-433 230v47l433 230v-56l-374 -197v-2l374 -196v-56z" />
    <glyph glyph-name="equal" unicode="=" horiz-adv-x="580" 
d="M529 321h-477v50h477v-50zM529 138h-477v50h477v-50z" />
    <glyph glyph-name="greater" unicode="&#x3e;" horiz-adv-x="552" 
d="M492 230l-432 -230v56l374 196v2l-374 197v56l432 -230v-47z" />
    <glyph glyph-name="question" unicode="?" horiz-adv-x="379" 
d="M219 216l-18 -23c-38 14 -111 69 -111 130c0 34 21 64 84 112c37 27 99 68 99 111c0 35 -23 55 -60 55c-63 0 -102 -54 -114 -54c-13 0 -41 20 -41 44c0 13 6 23 21 36c31 27 75 38 92 38h1c83 0 160 -78 160 -160c0 -35 -14 -60 -48 -88c-32 -27 -111 -72 -111 -120
c0 -34 17 -55 46 -81zM184 -12h-1c-30 0 -54 23 -54 58c0 32 24 57 55 57c32 0 56 -25 56 -57c0 -35 -24 -58 -56 -58z" />
    <glyph glyph-name="at" unicode="@" horiz-adv-x="753" 
d="M545 -14l11 -28c-70 -41 -135 -54 -203 -54c-158 0 -302 101 -302 304c1 234 190 371 382 371c179 0 280 -119 280 -257c0 -136 -102 -248 -236 -248c-53 0 -53 30 -45 71l11 57l-2 1c-33 -49 -124 -129 -170 -129c-24 0 -48 26 -48 84c0 55 22 132 81 188
c44 42 98 73 160 74c14 1 37 -5 50 -7c14 -3 23 -5 34 -5c-16 -65 -33 -145 -49 -227c-9 -53 -5 -66 20 -65c67 2 146 71 146 206c0 138 -100 218 -237 218c-187 0 -312 -135 -312 -322c0 -132 70 -270 269 -270c59 0 133 23 160 38zM423 380h-1c-26 0 -48 -12 -65 -30
c-28 -32 -57 -103 -58 -168c0 -36 9 -44 21 -44c18 0 72 37 131 120c11 33 20 81 26 111c-13 6 -35 11 -54 11z" />
    <glyph glyph-name="A" unicode="A" horiz-adv-x="691" 
d="M673 0h-245v28c63 8 72 16 59 55s-33 93 -55 154h-213c-16 -45 -31 -87 -44 -129c-22 -63 -13 -73 62 -80v-28h-217v28c63 9 77 15 112 103l207 525l31 9l193 -536c32 -86 45 -95 110 -101v-28zM418 280l-88 255h-2l-94 -255h184z" />
    <glyph glyph-name="B" unicode="B" horiz-adv-x="588" 
d="M372 353v-3c99 -15 177 -59 177 -159c0 -67 -37 -118 -96 -151c-51 -28 -117 -40 -196 -40h-221v28c86 6 92 12 92 96v403c0 83 -4 89 -84 95v28h257c75 0 119 -12 150 -34c36 -24 56 -68 56 -114c0 -95 -79 -134 -135 -149zM212 362h47c110 0 156 44 156 128
c0 68 -38 128 -133 128c-25 0 -47 -4 -57 -10c-9 -6 -13 -17 -13 -50v-196zM212 329v-204c0 -72 19 -91 83 -91c82 1 155 43 155 147c0 103 -70 148 -192 148h-46z" />
    <glyph glyph-name="C" unicode="C" horiz-adv-x="665" 
d="M614 176l29 -11c-14 -46 -39 -120 -57 -153c-28 -7 -112 -27 -184 -27c-249 0 -358 172 -358 331c0 210 162 349 385 349c81 0 149 -22 177 -27c8 -57 14 -97 20 -151l-30 -7c-26 106 -86 149 -194 149c-167 0 -256 -141 -256 -293c0 -187 110 -315 262 -315
c102 0 156 55 206 155z" />
    <glyph glyph-name="D" unicode="D" horiz-adv-x="735" 
d="M42 650h281c127 0 221 -26 283 -85c49 -48 84 -121 84 -215c0 -120 -46 -209 -123 -267c-75 -58 -174 -83 -297 -83h-237v27c86 6 94 12 94 97v401c0 86 -8 90 -85 96v29zM213 547v-416c0 -76 33 -95 106 -95c187 0 273 140 273 300c0 103 -38 192 -118 239
c-45 29 -103 41 -170 41c-42 0 -68 -5 -78 -12s-13 -18 -13 -57z" />
    <glyph glyph-name="E" unicode="E" horiz-adv-x="568" 
d="M516 162l30 -4c-6 -33 -26 -127 -35 -158h-482v28c91 7 99 15 99 96v398c0 90 -8 93 -86 100v28h446c0 -25 5 -93 8 -144l-29 -5c-9 42 -19 64 -32 86c-14 21 -41 28 -113 28h-76c-31 0 -33 -2 -33 -32v-227h94c90 0 95 8 108 75h29v-192h-29c-13 72 -20 78 -107 78h-95
v-189c0 -47 6 -68 24 -81c19 -12 54 -13 104 -13c76 0 104 8 126 34c17 20 36 54 49 94z" />
    <glyph glyph-name="F" unicode="F" horiz-adv-x="529" 
d="M493 503l-30 -4c-8 40 -14 59 -28 80c-16 28 -38 36 -114 36h-76c-29 0 -32 -2 -32 -31v-238h103c91 0 95 9 108 73h28v-192h-28c-13 68 -17 80 -108 80h-103v-181c0 -86 8 -92 99 -98v-28h-272v28c80 6 88 12 88 98v398c0 87 -8 92 -85 98v28h440c0 -36 5 -100 10 -147z
" />
    <glyph glyph-name="G" unicode="G" horiz-adv-x="715" 
d="M692 301v-27c-60 -9 -64 -14 -64 -73v-85c0 -35 1 -67 7 -94c-62 -15 -144 -37 -224 -37c-220 0 -367 137 -367 335c0 232 186 345 382 345c83 0 160 -22 192 -29c3 -35 8 -90 16 -156l-28 -6c-24 122 -100 155 -195 155c-153 0 -265 -112 -265 -297
c0 -144 85 -312 278 -312c34 0 65 7 87 18c20 11 32 23 32 65v85c0 72 -7 78 -105 86v27h254z" />
    <glyph glyph-name="H" unicode="H" horiz-adv-x="766" 
d="M729 650v-28c-82 -7 -90 -12 -90 -95v-404c0 -84 8 -89 89 -95v-28h-268v28c85 6 94 11 94 95v200h-341v-200c0 -83 8 -89 90 -95v-28h-263v28c80 6 88 11 88 95v404c0 84 -8 88 -90 95v28h259v-28c-76 -7 -84 -12 -84 -95v-162h341v162c0 83 -8 88 -86 95v28h261z" />
    <glyph glyph-name="I" unicode="I" horiz-adv-x="341" 
d="M303 0h-265v28c82 6 90 12 90 97v400c0 85 -8 91 -90 97v28h265v-28c-82 -6 -90 -12 -90 -97v-400c0 -86 8 -91 90 -97v-28z" />
    <glyph glyph-name="J" unicode="J" horiz-adv-x="329" 
d="M303 650v-28c-77 -6 -85 -13 -85 -97v-374c0 -128 -20 -197 -86 -258c-34 -31 -68 -50 -93 -58l-13 28c56 28 86 74 96 131c9 48 11 106 11 190v341c0 84 -8 91 -89 97v28h259z" />
    <glyph glyph-name="K" unicode="K" horiz-adv-x="673" 
d="M667 0h-154l-248 291c-23 27 -37 31 -54 28v-190c0 -88 10 -95 92 -101v-28h-260v28c76 6 85 13 85 101v391c0 91 -9 96 -88 102v28h258v-28c-77 -6 -87 -13 -87 -102v-175c22 6 42 20 70 46c55 53 123 122 168 177c29 36 29 46 -17 51l-22 3v28h240v-28
c-76 -7 -99 -17 -163 -75c-38 -35 -109 -106 -177 -175c76 -94 185 -218 235 -272c53 -57 73 -66 122 -72v-28z" />
    <glyph glyph-name="L" unicode="L" horiz-adv-x="538" 
d="M495 163l30 -6c-6 -31 -27 -126 -36 -157h-453v28c84 6 92 13 92 98v400c0 85 -7 90 -88 96v28h261v-28c-79 -6 -88 -11 -88 -96v-395c0 -54 5 -74 23 -84c20 -11 54 -13 96 -13c55 0 89 5 112 31c17 20 36 52 51 98z" />
    <glyph glyph-name="M" unicode="M" horiz-adv-x="891" 
d="M861 0h-263v28c81 8 85 13 84 119l-3 408h-4l-244 -548h-20l-224 534h-2l-15 -285c-4 -82 -4 -126 -3 -166c2 -48 26 -55 92 -62v-28h-233v28c58 7 78 18 85 60c5 35 11 79 19 183l14 208c9 130 4 134 -87 143v28h164l228 -500l231 500h170v-28c-88 -8 -95 -10 -92 -113
l10 -362c3 -106 6 -111 93 -119v-28z" />
    <glyph glyph-name="N" unicode="N" horiz-adv-x="743" 
d="M719 650v-28c-56 -3 -80 -16 -84 -60c-4 -30 -6 -75 -6 -168v-403h-31l-426 524h-2v-251c0 -92 3 -140 6 -169c5 -51 28 -63 96 -67v-28h-237v28c58 3 83 16 88 65c3 31 6 79 6 171v220c0 73 -2 77 -20 101c-20 25 -42 33 -89 37v28h148l417 -502h3v246
c0 92 -4 138 -7 166c-5 45 -29 58 -98 62v28h236z" />
    <glyph glyph-name="O" unicode="O" horiz-adv-x="747" 
d="M380 665h1c169 0 322 -132 322 -332c0 -216 -151 -348 -334 -348c-181 0 -325 141 -325 333c0 180 126 347 336 347zM360 629h-1c-111 0 -213 -96 -213 -283c0 -188 103 -325 244 -325c111 0 211 93 211 285c0 211 -110 323 -241 323z" />
    <glyph glyph-name="P" unicode="P" horiz-adv-x="563" 
d="M46 650h247c71 0 128 -12 168 -42c39 -29 65 -75 65 -141c0 -129 -98 -192 -195 -205c-15 -1 -34 -1 -45 0l-74 19v-157c0 -85 9 -90 99 -96v-28h-271v28c80 6 88 14 88 97v400c0 88 -8 92 -82 97v28zM212 559v-245c13 -5 40 -12 73 -12c65 0 145 35 145 162
c0 108 -69 154 -151 154c-28 0 -49 -5 -56 -12c-8 -7 -11 -19 -11 -47z" />
    <glyph glyph-name="Q" unicode="Q" horiz-adv-x="745" 
d="M720 -138l-8 -21c-48 -1 -98 7 -128 15c-31 8 -108 45 -230 130c-56 3 -143 25 -206 86c-61 57 -104 143 -104 242c0 185 126 351 340 351c168 0 319 -133 319 -335c0 -177 -109 -291 -227 -328c62 -43 151 -98 244 -140zM348 25l68 22c9 -6 18 -13 27 -19
c80 23 158 114 158 274c0 208 -104 326 -241 326c-111 0 -214 -96 -214 -287c0 -169 85 -292 202 -316z" />
    <glyph glyph-name="R" unicode="R" horiz-adv-x="621" 
d="M631 18l-4 -26c-12 0 -23 0 -35 1c-75 4 -117 26 -162 91c-35 49 -71 111 -101 160c-17 28 -34 40 -86 40h-32v-159c0 -85 9 -91 89 -97v-28h-263v28c82 6 91 12 91 97v402c0 85 -8 88 -86 95v28h248c73 0 122 -9 160 -34c40 -26 66 -71 66 -131
c0 -86 -53 -139 -127 -171c17 -33 59 -100 89 -145c36 -52 56 -78 81 -104c27 -30 50 -41 72 -47zM211 317h48c51 0 84 8 109 28c39 30 55 70 55 124c0 108 -71 148 -147 148c-29 0 -46 -4 -54 -10c-7 -5 -11 -17 -11 -44v-246z" />
    <glyph glyph-name="S" unicode="S" horiz-adv-x="474" 
d="M409 504l-29 -6c-18 64 -44 133 -131 133c-77 0 -111 -56 -111 -110c0 -73 48 -107 127 -148c78 -40 173 -87 173 -199c0 -105 -89 -189 -222 -189c-41 0 -73 8 -98 15c-25 9 -40 16 -49 21c-8 21 -21 107 -27 155l29 7c16 -61 61 -162 164 -162c75 0 120 47 120 120
c0 74 -55 109 -130 149c-64 34 -165 84 -165 197c0 96 77 178 206 178c46 0 88 -11 126 -23c4 -36 9 -75 17 -138z" />
    <glyph glyph-name="T" unicode="T" horiz-adv-x="617" 
d="M592 498l-29 -3c-11 48 -20 73 -32 89c-16 24 -33 31 -108 31h-71v-492c0 -79 8 -89 103 -95v-28h-287v28c91 6 99 16 99 95v492h-62c-83 0 -103 -8 -116 -31c-12 -17 -20 -45 -32 -89h-29c5 60 10 125 12 180h20c14 -23 27 -25 55 -25h395c27 0 35 6 51 25h21
c0 -46 5 -119 10 -177z" />
    <glyph glyph-name="U" unicode="U" horiz-adv-x="736" 
d="M716 650v-28c-60 -4 -83 -18 -88 -59c-3 -27 -5 -70 -5 -162v-82c0 -118 -18 -203 -76 -264c-46 -48 -113 -69 -179 -69c-58 0 -116 14 -160 48c-60 46 -88 121 -88 238v249c0 90 -8 94 -87 101v28h259v-28c-79 -5 -87 -11 -87 -101v-227c0 -161 64 -253 188 -253
c144 0 189 120 189 285v75c0 92 -3 134 -7 165c-6 39 -27 51 -97 56v28h238z" />
    <glyph glyph-name="V" unicode="V" horiz-adv-x="703" 
d="M687 650v-28c-68 -8 -81 -17 -119 -107c-27 -65 -133 -319 -208 -526h-31l-207 544c-29 75 -45 83 -104 88v29h245v-28c-71 -8 -75 -15 -59 -59l166 -436h2c50 125 126 320 158 419c19 58 13 66 -68 76v28h225z" />
    <glyph glyph-name="W" unicode="W" horiz-adv-x="971" 
d="M956 650v-28c-69 -9 -78 -17 -108 -100c-23 -64 -83 -253 -165 -533h-31l-175 499h-2l-163 -499h-31l-164 535c-25 82 -40 90 -101 98v28h243v-28c-73 -9 -75 -17 -60 -68l122 -412h2l162 498h29l175 -499h2c42 134 97 330 113 401c14 60 10 71 -69 80v28h221z" />
    <glyph glyph-name="X" unicode="X" horiz-adv-x="654" 
d="M655 0h-263v28c62 7 69 16 50 49l-133 214c-48 -74 -89 -143 -121 -202c-24 -43 -19 -53 48 -61v-28h-229v28c57 6 88 19 117 57c24 31 76 103 163 239l-134 214c-42 65 -56 76 -127 84v28h245v-28c-60 -7 -62 -16 -47 -42c33 -57 71 -115 115 -182c42 64 72 113 98 162
c25 44 20 54 -47 62v28h229v-28c-74 -8 -93 -18 -138 -77c-21 -29 -54 -76 -122 -179l158 -246c46 -70 69 -85 138 -92v-28z" />
    <glyph glyph-name="Y" unicode="Y" horiz-adv-x="634" 
d="M620 650v-28c-69 -8 -80 -18 -119 -79c-45 -73 -79 -131 -127 -219c-13 -26 -16 -37 -16 -63v-136c0 -84 8 -91 100 -97v-28h-283v28c89 6 98 12 98 97v133c0 20 -4 29 -21 59l-126 220c-40 68 -51 79 -111 85v28h239v-28c-71 -9 -69 -21 -50 -54
c42 -80 91 -162 134 -237c37 66 91 164 119 225c23 50 20 58 -58 66v28h221z" />
    <glyph glyph-name="Z" unicode="Z" horiz-adv-x="603" 
d="M561 176l30 -6c-8 -36 -26 -129 -37 -170h-517l-8 15l421 599h-174c-108 0 -124 -9 -141 -36c-12 -18 -23 -43 -34 -87h-30c5 64 11 139 12 184h24c12 -23 23 -25 53 -25h399l7 -14l-413 -594c33 -4 94 -6 163 -6c125 0 163 7 191 37c20 22 36 54 54 103z" />
    <glyph glyph-name="bracketleft" unicode="[" horiz-adv-x="345" 
d="M290 -163h-170v866h170v-28c-106 -8 -109 -13 -109 -91v-628c0 -78 2 -82 109 -91v-28z" />
    <glyph glyph-name="backslash" unicode="\" horiz-adv-x="333" 
d="M299 -44h-57l-206 709h56z" />
    <glyph glyph-name="bracketright" unicode="]" horiz-adv-x="345" 
d="M226 -163h-171v28c107 9 110 14 110 93v626c0 78 -3 83 -110 92v27h171v-866z" />
    <glyph glyph-name="asciicircum" unicode="^" horiz-adv-x="566" 
d="M496 211h-59l-155 346l-157 -346h-55l192 412h43z" />
    <glyph glyph-name="underscore" unicode="_" horiz-adv-x="500" 
d="M500 -125h-500v50h500v-50z" />
    <glyph glyph-name="grave" unicode="`" 
d="M247 504l-27 -13l-117 160l3 8c9 5 63 15 78 13c18 -45 43 -117 63 -168z" />
    <glyph glyph-name="a" unicode="a" horiz-adv-x="439" 
d="M433 39l-85 -51c-15 0 -36 9 -47 19c-13 14 -19 28 -24 45c-40 -27 -88 -64 -118 -64c-71 0 -120 59 -120 122c0 49 26 80 81 99c60 20 133 47 155 65v18c0 72 -34 113 -84 113c-20 0 -35 -8 -45 -20c-13 -13 -22 -35 -30 -65c-4 -17 -15 -24 -29 -24
c-18 0 -44 20 -44 43c0 15 13 26 32 40c28 20 93 59 150 70c30 0 60 -9 82 -27c35 -29 45 -70 45 -122v-186c0 -45 18 -60 35 -60c12 0 26 5 36 11zM275 84v156c-21 -11 -69 -32 -90 -42c-39 -18 -61 -37 -61 -73c0 -52 40 -77 71 -77c26 1 61 18 80 36z" />
    <glyph glyph-name="b" unicode="b" horiz-adv-x="508" 
d="M152 404l81 35c16 7 30 10 41 10c107 0 197 -92 197 -210c0 -147 -117 -251 -251 -251c-41 0 -92 10 -147 36v556c0 62 -2 68 -66 74v23c47 6 108 21 145 35v-308zM152 374v-258c0 -15 2 -25 6 -34c6 -20 36 -55 89 -56c83 0 136 71 136 187c0 114 -70 180 -153 180
c-28 0 -60 -8 -78 -19z" />
    <glyph glyph-name="c" unicode="c" horiz-adv-x="423" 
d="M391 111l17 -21c-44 -58 -111 -102 -170 -102c-126 0 -200 102 -200 209c0 77 33 144 100 196c52 40 112 56 150 56h1c40 0 73 -13 89 -26c13 -11 16 -20 16 -31c0 -21 -22 -43 -33 -43c-5 0 -10 3 -19 11c-30 28 -65 41 -100 41c-66 0 -124 -55 -124 -160
c0 -139 95 -185 151 -185c43 0 76 12 122 55z" />
    <glyph glyph-name="d" unicode="d" horiz-adv-x="528" 
d="M517 51v-25c-22 -4 -97 -17 -155 -38v65l-61 -36c-39 -23 -66 -29 -78 -29c-80 0 -185 73 -185 213c0 139 122 248 258 248c14 0 43 -3 66 -11v141c0 66 -5 69 -77 74v24c52 7 119 22 156 35v-597c0 -52 7 -57 44 -61zM362 85v276c-24 35 -65 51 -103 51
c-46 0 -130 -39 -130 -184c0 -119 73 -177 137 -177c36 0 72 16 96 34z" />
    <glyph glyph-name="e" unicode="e" horiz-adv-x="425" 
d="M379 106l16 -21c-63 -79 -132 -97 -163 -97c-123 0 -195 100 -195 213c0 69 25 130 66 175c41 46 95 73 146 73h1c83 0 150 -74 150 -152c0 -20 -5 -28 -23 -32c-17 -3 -142 -13 -261 -17c1 -136 79 -192 149 -192c40 0 78 16 114 50zM226 412h-1
c-45 0 -89 -42 -104 -123c56 0 111 1 169 3c18 0 24 6 24 20c1 52 -33 100 -88 100z" />
    <glyph glyph-name="f" unicode="f" horiz-adv-x="296" 
d="M54 437h47v22c0 31 4 60 11 82s23 71 77 117c35 31 71 49 110 54c34 -1 63 -15 79 -34c9 -11 10 -24 5 -35c-3 -8 -9 -16 -19 -24c-9 -7 -18 -7 -27 3c-20 18 -48 37 -81 37c-26 0 -42 -12 -53 -30c-13 -19 -24 -67 -23 -152v-40h118c6 -9 1 -33 -10 -39h-108v-288
c0 -74 7 -77 86 -85v-25h-236v26c64 6 71 11 71 77v295h-70l-4 10z" />
    <glyph glyph-name="g" unicode="g" horiz-adv-x="468" 
d="M462 438l6 -8c-9 -16 -29 -43 -45 -51l-57 3c19 -22 30 -53 30 -89c0 -108 -90 -160 -175 -160c-17 0 -35 3 -51 5c-14 -9 -30 -27 -30 -41c0 -20 18 -39 63 -39c36 0 72 1 105 1c62 0 144 -20 144 -118c0 -101 -117 -198 -250 -198c-111 0 -172 65 -173 122
c0 22 9 41 24 56c20 20 59 52 83 70c-36 11 -61 34 -74 55c-9 15 -12 32 -11 42c40 15 72 41 88 61c-45 19 -88 66 -88 134c0 114 102 166 178 166h1c34 0 67 -9 96 -25c49 2 100 8 136 14zM220 419h-1c-43 0 -82 -42 -82 -120s38 -134 94 -134c44 1 83 40 83 119
s-37 135 -94 135zM242 -11h-1c-47 0 -69 -6 -87 -22c-26 -21 -46 -49 -46 -78c0 -54 58 -95 132 -95c95 0 144 49 144 111c0 34 -17 59 -46 71c-25 10 -54 13 -96 13z" />
    <glyph glyph-name="h" unicode="h" horiz-adv-x="534" 
d="M513 0h-211v26c58 6 66 12 66 77v166c0 82 -31 123 -98 123c-38 0 -76 -19 -104 -51v-238c0 -64 5 -71 64 -77v-26h-212l1 26c60 5 68 11 68 77v477c0 63 -2 68 -68 74v23c48 7 108 23 147 35v-336c35 36 89 73 143 73c81 1 138 -51 138 -171v-175c0 -66 7 -72 66 -77
v-26z" />
    <glyph glyph-name="i" unicode="i" horiz-adv-x="268" 
d="M135 536c-26 0 -50 24 -50 51c0 30 24 52 51 52c28 0 50 -22 50 -52c0 -27 -22 -51 -51 -51zM252 0h-220v26c63 6 70 12 70 80v207c0 61 -3 66 -63 75v24c51 8 98 21 142 39v-345c0 -68 7 -74 71 -80v-26z" />
    <glyph glyph-name="j" unicode="j" horiz-adv-x="256" 
d="M135 536c-27 0 -50 24 -50 51c0 30 23 52 51 52c27 0 49 -22 49 -52c0 -27 -22 -51 -50 -51zM34 389v23c53 8 103 21 146 39v-339c0 -66 -4 -109 -23 -162c-34 -100 -98 -176 -121 -196c-9 -8 -18 -11 -25 -11c-14 0 -36 20 -36 44c0 12 6 20 21 23c32 8 59 20 72 38
c12 15 20 37 25 72c6 43 9 102 9 193v196c0 67 -6 71 -68 80z" />
    <glyph glyph-name="k" unicode="k" horiz-adv-x="496" 
d="M513 0l-137 -2c-46 51 -109 131 -164 198c-13 16 -22 22 -31 22c-5 0 -9 -1 -16 -3v-111c0 -66 9 -72 73 -78v-26h-224v26c67 6 73 14 73 78v473c0 66 -5 71 -66 76v24c48 5 105 22 144 35v-471c30 6 48 19 63 35c22 22 52 61 71 88c20 31 17 39 -30 44v26l204 9v-25
c-69 -12 -90 -22 -129 -59c-25 -25 -43 -45 -86 -95c20 -30 121 -148 155 -183c36 -38 62 -53 100 -55v-26z" />
    <glyph glyph-name="l" unicode="l" horiz-adv-x="253" 
d="M238 0h-223v26c63 6 72 12 72 78v473c0 68 -6 71 -69 76v24c52 6 114 23 148 35v-608c0 -66 8 -72 72 -78v-26z" />
    <glyph glyph-name="m" unicode="m" horiz-adv-x="819" 
d="M796 0h-213v26c59 6 70 10 70 81v167c0 71 -25 116 -88 116c-36 0 -74 -20 -112 -52c2 -12 3 -23 3 -42v-195c0 -63 9 -69 64 -75v-26h-214v26c62 6 71 11 71 77v172c0 74 -26 115 -87 115c-40 0 -79 -27 -109 -52v-235c0 -65 8 -71 57 -77v-26h-211v26c66 6 75 12 75 77
v207c0 64 -3 69 -61 78v23c44 8 95 21 139 41v-81c21 14 43 32 73 51c26 16 50 27 82 27c48 0 91 -30 111 -82c29 22 58 41 83 56c21 14 47 26 75 26c78 0 127 -55 127 -153v-193c0 -67 8 -71 65 -77v-26z" />
    <glyph glyph-name="n" unicode="n" horiz-adv-x="547" 
d="M523 0h-208v26c59 6 66 14 66 83v167c0 69 -24 114 -91 114c-40 0 -79 -25 -109 -51v-235c0 -68 6 -72 65 -78v-26h-217v26c68 7 73 12 73 78v207c0 64 -6 67 -60 77v23c48 9 95 21 139 41v-80c20 15 42 30 67 47c28 18 54 30 83 30c79 0 129 -55 129 -152v-193
c0 -68 5 -72 63 -78v-26z" />
    <glyph glyph-name="o" unicode="o" horiz-adv-x="510" 
d="M256 449h1c123 0 216 -99 216 -223c0 -161 -118 -238 -217 -238c-137 0 -219 110 -219 221c0 165 128 240 219 240zM246 416h-1c-61 0 -115 -62 -115 -175c0 -126 55 -220 137 -220c62 0 113 46 113 183c0 117 -47 212 -134 212z" />
    <glyph glyph-name="p" unicode="p" horiz-adv-x="524" 
d="M169 380l92 54c18 10 37 15 49 15c111 0 177 -90 177 -189c0 -151 -119 -248 -249 -272c-29 1 -56 11 -69 18v-131c0 -76 7 -81 85 -88v-27h-237v27c64 6 73 12 73 78v452c0 65 -4 67 -66 75v24c42 7 98 24 145 43v-79zM169 347v-271c22 -23 60 -39 94 -39
c84 0 140 72 140 185c0 107 -61 167 -134 167c-32 0 -73 -22 -100 -42z" />
    <glyph glyph-name="q" unicode="q" horiz-adv-x="511" 
d="M515 -240h-240v27c78 6 85 12 85 83v160l-106 -42c-146 0 -215 113 -215 210c0 143 130 252 267 251c36 -3 58 -8 70 -13c13 -4 18 -5 27 -5c6 0 19 4 34 11l4 -3c-1 -21 -3 -40 -3 -107v-464c0 -70 7 -74 77 -81v-27zM360 60v307c-23 26 -66 42 -98 42
c-68 0 -134 -60 -134 -178c0 -121 84 -187 158 -187c31 0 54 7 74 16z" />
    <glyph glyph-name="r" unicode="r" horiz-adv-x="371" 
d="M181 343h2c30 50 73 106 121 106c34 0 58 -26 58 -50c0 -20 -13 -40 -32 -49c-12 -5 -21 -4 -27 2c-14 15 -26 21 -42 21c-26 0 -58 -30 -80 -86v-183c0 -66 5 -72 82 -78v-26h-230v26c62 6 69 12 69 78v207c0 66 -5 70 -62 78v22c49 8 93 20 141 41v-109z" />
    <glyph glyph-name="s" unicode="s" horiz-adv-x="367" 
d="M320 325l-26 -6c-19 59 -54 99 -103 99c-38 0 -65 -30 -65 -69c0 -44 40 -68 85 -87c75 -31 126 -67 126 -136c0 -91 -85 -138 -165 -138c-51 0 -97 19 -115 34c-7 14 -16 82 -16 118l26 5c18 -66 63 -124 123 -124c37 0 71 28 71 70c0 44 -29 68 -79 91
c-60 28 -125 61 -125 138c0 70 60 129 152 129c41 1 68 -9 89 -17c8 -23 19 -82 22 -107z" />
    <glyph glyph-name="t" unicode="t" horiz-adv-x="305" 
d="M298 36l-68 -35c-17 -9 -33 -13 -42 -13c-63 0 -98 40 -98 119v291h-69l-4 10l27 29h46v73l65 66l14 -2v-137h113c9 -10 6 -32 -6 -39h-107v-257c0 -81 33 -96 58 -96s48 10 62 17z" />
    <glyph glyph-name="u" unicode="u" horiz-adv-x="531" 
d="M518 49v-25c-22 -3 -50 -9 -77 -16c-26 -7 -51 -15 -70 -20l-6 6v71c-23 -17 -46 -35 -74 -52c-29 -17 -50 -25 -77 -25c-67 0 -124 41 -124 149v196c0 53 -8 58 -33 64l-28 6v23c21 1 45 4 72 7c27 4 54 8 71 11c-3 -31 -3 -78 -3 -146v-135c0 -88 43 -112 88 -112
c36 0 74 15 108 48v233c0 54 -9 60 -42 65l-36 6v23c27 1 61 4 90 8c28 3 52 7 67 10v-334c0 -50 8 -57 46 -59z" />
    <glyph glyph-name="v" unicode="v" horiz-adv-x="463" 
d="M477 437v-25c-52 -7 -61 -16 -88 -76c-33 -75 -86 -198 -141 -347h-27c-45 120 -91 234 -138 350c-23 58 -31 65 -85 73v25h205v-25c-54 -7 -56 -15 -40 -58l95 -247c35 83 67 174 89 239c15 48 9 59 -48 66v25h178z" />
    <glyph glyph-name="w" unicode="w" horiz-adv-x="685" 
d="M696 437v-25c-50 -8 -59 -20 -80 -75c-30 -79 -74 -212 -120 -348h-28c-40 108 -81 206 -122 311c-38 -100 -79 -200 -118 -311h-29c-36 119 -74 237 -115 357c-18 52 -27 59 -75 66v25h207v-25c-60 -10 -65 -16 -50 -61l73 -233h2l116 314h26c37 -104 78 -210 120 -317
h2c22 69 50 156 68 230c13 52 7 58 -58 67v25h181z" />
    <glyph glyph-name="x" unicode="x" horiz-adv-x="472" 
d="M475 0h-215v26c43 5 51 13 34 40l-74 117c-22 -33 -45 -70 -64 -106c-19 -34 -17 -43 35 -51v-26h-187v26c62 8 73 16 113 66c28 35 55 75 84 120l-87 136c-30 49 -43 57 -98 64v25h200v-25c-43 -6 -46 -15 -28 -43l59 -92c20 29 40 60 58 93c18 32 11 37 -32 42v25h182
v-25c-61 -7 -74 -12 -110 -54c-20 -25 -45 -61 -78 -110l98 -148c37 -57 49 -66 110 -74v-26z" />
    <glyph glyph-name="y" unicode="y" horiz-adv-x="459" 
d="M478 437v-25c-53 -8 -62 -16 -89 -73c-25 -53 -56 -136 -125 -301c-67 -160 -89 -217 -103 -271c-6 -19 -18 -24 -32 -24c-28 0 -57 24 -57 48c0 16 9 25 26 36c31 20 51 44 74 89c19 35 27 56 31 69c5 15 5 28 -1 45c-40 114 -85 235 -115 306c-21 55 -31 68 -86 76v25
h203v-25c-46 -8 -51 -18 -38 -55l91 -251c28 68 71 186 92 249c12 38 5 49 -52 57v25h181z" />
    <glyph glyph-name="z" unicode="z" horiz-adv-x="420" 
d="M387 138l26 -12c-15 -39 -31 -86 -46 -126h-330l-6 15c86 127 167 255 249 389h-89c-72 0 -85 -16 -113 -72l-14 -27l-25 9c11 38 26 102 34 145h21c6 -16 18 -22 55 -22h230l6 -14l-244 -390h99c76 0 96 21 134 81z" />
    <glyph glyph-name="braceleft" unicode="{" horiz-adv-x="347" 
d="M293 -141v-28c-60 0 -145 13 -145 129c0 71 7 145 7 208c0 36 -3 81 -90 87v30c87 6 90 51 90 87c0 66 -7 141 -7 205c0 118 85 132 145 132v-28c-75 -10 -84 -49 -84 -94c0 -64 13 -133 13 -199c0 -55 -23 -102 -83 -116v-4c59 -13 83 -61 83 -116
c0 -68 -13 -133 -13 -196c0 -46 9 -86 84 -97z" />
    <glyph glyph-name="bar" unicode="|" horiz-adv-x="263" 
d="M163 -250h-64v1000h64v-1000z" />
    <glyph glyph-name="braceright" unicode="}" horiz-adv-x="347" 
d="M283 284v-29c-88 -6 -91 -53 -91 -90c0 -61 8 -133 8 -206c0 -111 -86 -128 -146 -128v28c72 11 85 49 85 94c0 63 -14 134 -14 198c0 55 23 102 84 117v4c-60 14 -84 62 -84 116c0 65 14 136 14 200c0 46 -13 83 -85 93v28c62 0 146 -13 146 -129c0 -72 -8 -144 -8 -204
c0 -38 3 -86 91 -92z" />
    <glyph glyph-name="asciitilde" unicode="~" horiz-adv-x="580" 
d="M489 308l36 -21c-21 -70 -64 -110 -127 -110c-47 0 -90 23 -127 45c-34 21 -59 33 -90 33c-42 0 -69 -27 -91 -86l-35 26c37 95 93 110 130 110c40 0 70 -13 117 -39c39 -23 70 -39 102 -39c41 0 65 26 85 81z" />
    <glyph glyph-name="uni00A0" unicode="&#xa0;" horiz-adv-x="227" 
 />
    <glyph glyph-name="exclamdown" unicode="&#xa1;" horiz-adv-x="276" 
d="M137 448h1c32 0 56 -24 56 -59c0 -33 -24 -58 -57 -58s-57 25 -57 58c0 35 24 59 57 59zM138 -228h-1c-36 0 -53 8 -53 30c0 16 3 39 7 79c13 115 21 231 30 358c5 8 31 8 35 0c10 -127 15 -243 28 -358c5 -40 8 -63 8 -79c0 -22 -18 -30 -54 -30z" />
    <glyph glyph-name="cent" unicode="&#xa2;" horiz-adv-x="480" 
d="M417 219l17 -23c-41 -54 -101 -90 -149 -98v-98h-35v96c-119 3 -199 99 -199 202c0 77 39 142 93 184c37 27 77 42 106 49v84h35v-80c7 1 11 1 17 1c43 0 80 -11 102 -26c10 -7 14 -17 14 -25c0 -20 -20 -43 -36 -43c-5 0 -10 4 -15 9c-24 24 -49 38 -82 42v-333
c53 -1 91 19 132 59zM250 164v330c-52 -1 -121 -45 -121 -155c0 -116 69 -164 121 -175z" />
    <glyph glyph-name="sterling" unicode="&#xa3;" horiz-adv-x="480" 
d="M375 295h-170c1 -9 0 -15 0 -23c0 -69 -33 -123 -86 -173c36 0 67 -11 104 -27c41 -19 84 -38 120 -38c37 0 58 18 58 46c0 12 -4 24 -7 32c-4 7 -3 14 2 22c10 15 24 26 36 26c14 0 24 -22 24 -41c0 -45 -40 -91 -78 -115c-26 -18 -55 -31 -90 -31c-40 0 -89 27 -134 53
c-30 17 -46 24 -59 24c-11 0 -27 -8 -41 -43c-3 -8 -6 -12 -12 -12c-13 0 -30 19 -12 48c9 16 30 38 47 58c34 37 42 94 42 135c0 26 -2 44 -3 59h-88v38h83c-2 25 -5 53 -5 82c0 65 21 125 83 175c30 25 76 45 104 45c45 0 86 -26 97 -41c7 -11 8 -20 3 -31
c-3 -7 -11 -17 -19 -23s-18 -6 -27 2c-25 21 -52 42 -94 42c-48 0 -71 -32 -71 -96c0 -45 10 -101 19 -155h174v-38z" />
    <glyph glyph-name="currency" unicode="&#xa4;" horiz-adv-x="480" 
d="M448 135l-41 -40l-64 75c-31 -26 -72 -39 -105 -39c-34 0 -76 12 -107 38l-63 -74l-40 40l69 66c-29 35 -43 79 -43 124s15 89 44 122l-70 68l40 39l64 -75c32 27 72 39 106 39h1c32 0 73 -12 105 -38l63 74l41 -39l-69 -68c27 -31 43 -77 43 -122s-16 -90 -44 -123z
M239 469h-1c-70 0 -123 -58 -123 -144c0 -87 54 -145 124 -145s123 58 123 145c0 86 -54 144 -123 144z" />
    <glyph glyph-name="yen" unicode="&#xa5;" horiz-adv-x="480" 
d="M466 623v-26c-53 -7 -62 -18 -92 -71c-23 -40 -54 -101 -99 -195h129v-36h-136v-31v-36h136v-37h-136v-84c0 -67 6 -75 90 -80v-27h-257v27c84 5 89 13 89 80v84h-132v37h132v31c0 13 0 24 -1 36h-131v36h121c-25 61 -49 115 -87 196c-28 58 -38 64 -85 70v26h205v-26
l-26 -5c-28 -5 -33 -11 -25 -32c20 -50 60 -144 88 -208c26 53 73 155 88 195c11 28 10 38 -22 45l-28 5v26h179z" />
    <glyph glyph-name="brokenbar" unicode="&#xa6;" horiz-adv-x="263" 
d="M163 325h-64v350h64v-350zM163 -175h-64v350h64v-350z" />
    <glyph glyph-name="section" unicode="&#xa7;" horiz-adv-x="477" 
d="M426 202c-1 -86 -53 -164 -98 -214c-46 -48 -86 -76 -139 -92c-15 0 -49 7 -69 22c-13 11 -19 20 -19 30c0 12 12 26 20 32c8 5 15 6 22 4c8 -6 40 -29 78 -29c33 0 69 19 70 61c1 28 -16 56 -67 104l-98 98c-41 39 -72 91 -72 152c1 65 35 124 79 172
c50 54 88 84 151 99c25 0 53 -11 66 -23c9 -8 12 -14 12 -23c0 -15 -11 -28 -18 -33c-4 -3 -12 -7 -20 -1c-10 9 -39 27 -75 27c-45 0 -64 -31 -64 -53c0 -20 8 -43 37 -68l110 -96c50 -42 94 -96 94 -169zM104 413v-2c0 -53 25 -100 89 -160c78 -71 110 -107 122 -127
c11 -18 21 -52 19 -78l2 -1c23 34 38 72 38 114c0 43 -18 93 -80 148c-33 30 -92 83 -111 102c-24 24 -43 61 -39 99h-4c-22 -29 -35 -60 -36 -95z" />
    <glyph glyph-name="dieresis" unicode="&#xa8;" 
d="M116 538c-26 0 -48 23 -48 48c0 28 22 50 49 50c26 0 46 -22 46 -50c0 -25 -20 -48 -47 -48zM284 538c-26 0 -47 23 -47 48c0 28 21 50 48 50c26 0 47 -22 47 -50c0 -25 -21 -48 -48 -48z" />
    <glyph glyph-name="copyright" unicode="&#xa9;" horiz-adv-x="702" 
d="M351 626h1c170 0 298 -135 298 -304c0 -168 -127 -303 -299 -303s-300 135 -300 303c0 169 128 304 300 304zM351 591h-1c-145 0 -252 -115 -252 -268s107 -269 253 -269c147 0 253 117 253 269c0 153 -106 268 -253 268zM481 263l22 -5c-7 -28 -18 -72 -26 -90
c-20 -7 -61 -19 -104 -19c-129 0 -190 87 -190 170c0 112 91 177 194 177c50 0 86 -10 104 -17c4 -27 7 -49 11 -91l-22 -4c-16 56 -48 84 -100 84c-72 0 -114 -60 -114 -142c0 -88 51 -148 117 -148c55 0 86 32 108 85z" />
    <glyph glyph-name="ordfeminine" unicode="&#xaa;" horiz-adv-x="305" 
d="M295 302l-63 -33c-25 2 -39 20 -45 39c-26 -17 -58 -39 -77 -39c-45 0 -77 39 -77 76c0 28 16 49 48 61s83 28 105 44v10c0 32 -19 55 -50 55c-23 0 -38 -22 -47 -53c-4 -11 -11 -15 -21 -15c-14 0 -32 13 -32 28c0 11 8 20 21 28c16 12 59 36 97 42c57 0 89 -30 89 -88
v-108c0 -27 11 -34 21 -34c7 0 15 2 24 6zM186 332v91c-13 -7 -45 -20 -62 -27c-20 -11 -29 -20 -29 -40c0 -28 22 -44 44 -44c19 0 37 11 47 20z" />
    <glyph glyph-name="guillemotleft" unicode="&#xab;" horiz-adv-x="444" 
d="M230 54l-22 -16c-63 80 -125 152 -159 183c34 34 96 104 159 184l22 -15l-93 -169zM396 54l-23 -16c-63 80 -125 152 -158 183c33 34 95 104 158 184l23 -15l-93 -169z" />
    <glyph glyph-name="logicalnot" unicode="&#xac;" horiz-adv-x="580" 
d="M529 97h-58v222h-419v49h477v-271z" />
    <glyph glyph-name="uni00AD" unicode="&#xad;" horiz-adv-x="356" 
d="M300 253l-15 -55h-228l14 55h229z" />
    <glyph glyph-name="registered" unicode="&#xae;" horiz-adv-x="321" 
d="M161 659h1c73 0 129 -59 129 -129c0 -68 -56 -129 -130 -129s-129 56 -129 129c0 70 56 129 129 129zM161 636h-1c-58 0 -99 -47 -99 -106c0 -60 43 -105 100 -105c58 0 101 45 101 105c0 59 -43 106 -101 106zM235 473l-4 -12c-22 0 -36 5 -48 21c-9 12 -14 25 -18 32
c-4 6 -9 7 -14 7h-4v-24c0 -18 2 -18 19 -19v-16h-67v16c17 1 19 1 19 19v68c0 18 -2 18 -18 19v15h68c22 0 48 -6 48 -35c0 -17 -11 -28 -27 -34c10 -19 18 -30 33 -47c5 -5 9 -8 13 -10zM147 536h9c5 0 13 1 17 4c8 4 11 11 11 21c0 19 -16 23 -24 23c-9 0 -13 -2 -13 -12
v-36z" />
    <glyph glyph-name="macron" unicode="&#xaf;" 
d="M310 548h-219v55h219v-55z" />
    <glyph glyph-name="degree" unicode="&#xb0;" horiz-adv-x="343" 
d="M172 664h1c72 0 139 -55 139 -138c0 -86 -67 -137 -140 -137c-74 0 -140 51 -140 137c0 83 66 138 140 138zM172 620h-1c-46 0 -79 -37 -79 -93s33 -94 80 -94c48 0 80 38 80 93c0 56 -32 94 -80 94z" />
    <glyph glyph-name="plusminus" unicode="&#xb1;" horiz-adv-x="580" 
d="M529 311h-209v-204h-58v204h-210v49h210v191h58v-191h209v-49zM529 0h-477v50h477v-50z" />
    <glyph glyph-name="two.superior" unicode="&#xb2;" horiz-adv-x="341" 
d="M284 498l22 -8c-10 -32 -17 -61 -23 -88h-243v22c56 45 171 132 171 213c0 50 -30 73 -67 73s-65 -28 -85 -55l-17 18l32 43c23 29 59 45 97 45c56 0 110 -38 110 -107c0 -48 -31 -86 -106 -152l-52 -46v-2h91c39 0 50 4 70 44z" />
    <glyph glyph-name="three.superior" unicode="&#xb3;" horiz-adv-x="341" 
d="M206 614v-2c53 -9 87 -40 87 -83c0 -92 -126 -135 -168 -135c-30 0 -56 12 -68 21c-11 9 -14 19 -11 29c3 9 10 17 18 23c6 5 13 5 20 -1c18 -13 46 -33 76 -33c36 0 65 22 65 75c0 47 -39 67 -77 67c-16 0 -29 -3 -41 -7l-7 25c60 19 100 41 100 78c0 25 -19 46 -53 46
c-31 0 -60 -28 -75 -50l-16 16l29 41c17 18 52 36 86 36h1c58 0 95 -34 95 -76c0 -17 -7 -32 -19 -41c-10 -9 -24 -19 -42 -29z" />
    <glyph glyph-name="acute" unicode="&#xb4;" 
d="M193 493l-26 13c19 42 60 142 67 159c10 4 69 12 81 9l3 -9z" />
    <glyph glyph-name="mu" unicode="&#xb5;" horiz-adv-x="512" 
d="M498 54l10 -26c-16 -20 -51 -40 -85 -40c-42 0 -72 32 -78 78h-2c-38 -44 -82 -78 -133 -78c-36 0 -66 19 -82 42h-4v-16c-1 -79 22 -219 37 -259l-13 -12c-22 2 -60 23 -75 39c-5 16 -2 154 -2 259v294c0 36 -1 73 -3 96l81 19c2 -24 2 -69 2 -106v-171
c0 -96 51 -123 92 -123c42 0 81 30 99 53v329l80 18v-336c0 -55 20 -70 41 -70c12 0 26 5 35 10z" />
    <glyph glyph-name="paragraph" unicode="&#xb6;" horiz-adv-x="497" 
d="M466 533l-30 -27l-88 -10v-474c0 -82 -20 -136 -67 -185c-30 -31 -77 -50 -87 -50c-29 0 -54 11 -66 23c-11 10 -14 20 -10 30c3 10 13 21 20 27c6 5 12 5 19 0c21 -14 41 -22 63 -22c38 0 77 26 77 157v150l-67 -29c-4 -2 -9 -3 -17 -3c-56 0 -163 76 -163 202
c0 66 28 124 66 160c42 39 102 63 148 63h198z" />
    <glyph glyph-name="periodcentered" unicode="&#xb7;" horiz-adv-x="226" 
d="M113 174h-1c-31 0 -55 23 -55 59c0 32 24 57 56 57c33 0 57 -25 57 -57c0 -36 -24 -59 -57 -59z" />
    <glyph glyph-name="cedilla" unicode="&#xb8;" 
d="M246 0l-22 -27c-13 -17 -11 -25 5 -41c28 -28 39 -47 39 -69c0 -42 -44 -80 -114 -101l-12 26c42 18 60 39 60 60c0 16 -12 28 -23 39c-25 23 -30 37 -11 62l38 51h40z" />
    <glyph glyph-name="one.superior" unicode="&#xb9;" horiz-adv-x="341" 
d="M273 402h-196v23c54 4 66 10 66 59v178c0 37 -3 42 -38 44l-29 2v23c44 5 86 15 132 29v-276c0 -49 11 -53 65 -59v-23z" />
    <glyph glyph-name="ordmasculine" unicode="&#xba;" horiz-adv-x="334" 
d="M167 545h1c80 0 138 -61 138 -134c-1 -92 -74 -142 -138 -142c-90 0 -142 68 -141 134c0 97 82 142 140 142zM160 518h-1c-30 0 -62 -33 -63 -99c0 -73 34 -122 76 -122c36 0 64 28 65 99c0 70 -29 122 -77 122z" />
    <glyph glyph-name="guillemotright" unicode="&#xbb;" horiz-adv-x="445" 
d="M49 390l23 15c63 -79 126 -150 158 -183c-32 -33 -95 -103 -158 -183l-23 14l94 169zM215 390l22 15c63 -79 125 -150 158 -183c-33 -33 -95 -103 -158 -183l-22 14l93 169z" />
    <glyph glyph-name="onequarter" unicode="&#xbc;" horiz-adv-x="762" 
d="M276 277h-196v23c54 4 66 10 66 59v178c0 37 -3 42 -38 44l-29 2v23c44 5 86 15 132 29v-276c0 -49 11 -53 65 -59v-23zM602 632l-405 -659l-31 24l404 658zM687 98h-59v-28c0 -40 11 -44 55 -47v-23h-180v23c54 4 64 7 64 47v28h-162v24c59 79 123 162 185 237h38v-223
h59v-38zM567 136v148h-2c-38 -47 -70 -91 -109 -148h111z" />
    <glyph glyph-name="onehalf" unicode="&#xbd;" horiz-adv-x="762" 
d="M269 277h-196v23c54 4 66 10 66 59v178c0 37 -3 42 -38 44l-29 2v23c44 5 86 15 132 29v-276c0 -49 11 -53 65 -59v-23zM588 632l-405 -659l-31 24l404 658zM682 96l22 -8c-10 -32 -17 -61 -23 -88h-243v22c56 45 171 132 171 213c0 50 -30 73 -67 73s-65 -28 -85 -55
l-17 18l32 43c23 29 59 45 97 45c56 0 110 -38 110 -107c0 -48 -31 -86 -106 -152l-52 -46v-2h91c39 0 50 4 70 44z" />
    <glyph glyph-name="threequarters" unicode="&#xbe;" horiz-adv-x="762" 
d="M606 632l-405 -659l-31 24l404 658zM681 98h-59v-28c0 -40 11 -44 55 -47v-23h-180v23c54 4 64 7 64 47v28h-162v24c59 79 123 162 185 237h38v-223h59v-38zM561 136v148h-2c-38 -47 -70 -91 -109 -148h111zM233 489v-2c53 -9 87 -40 87 -83c0 -92 -126 -135 -168 -135
c-30 0 -56 12 -68 21c-11 9 -14 19 -11 29c3 9 10 17 18 23c6 5 13 5 20 -1c18 -13 46 -33 76 -33c36 0 65 22 65 75c0 47 -39 67 -77 67c-16 0 -29 -3 -41 -7l-7 25c60 19 100 41 100 78c0 25 -19 46 -53 46c-31 0 -60 -28 -75 -50l-16 16l29 41c17 18 52 36 86 36h1
c58 0 95 -34 95 -76c0 -17 -7 -32 -19 -41c-10 -9 -24 -19 -42 -29z" />
    <glyph glyph-name="questiondown" unicode="&#xbf;" horiz-adv-x="379" 
d="M191 448h1c29 0 53 -23 53 -57c0 -32 -24 -57 -54 -57c-32 0 -55 25 -55 57c0 34 23 57 55 57zM159 221l18 23c38 -14 111 -69 111 -130c0 -34 -21 -65 -84 -112c-37 -28 -98 -69 -98 -112c0 -35 22 -53 59 -53c63 0 102 53 114 53c14 0 41 -20 41 -44
c0 -13 -7 -23 -21 -36c-31 -27 -75 -38 -92 -38h-1c-83 0 -160 77 -160 159c0 35 14 61 48 89c32 26 112 74 112 122c0 33 -17 53 -47 79z" />
    <glyph glyph-name="Agrave" unicode="&#xc0;" horiz-adv-x="691" 
d="M673 0h-245v28c63 8 72 16 59 55s-33 93 -55 154h-213c-16 -45 -31 -87 -44 -129c-22 -63 -13 -73 62 -80v-28h-217v28c63 9 77 15 112 103l207 525l31 9l193 -536c32 -86 45 -95 110 -101v-28zM418 280l-88 255h-2l-94 -255h184zM407 709l-13 -25l-187 64l-1 7
c3 14 31 53 43 57z" />
    <glyph glyph-name="Aacute" unicode="&#xc1;" horiz-adv-x="691" 
d="M673 0h-245v28c63 8 72 16 59 55s-33 93 -55 154h-213c-16 -45 -31 -87 -44 -129c-22 -63 -13 -73 62 -80v-28h-217v28c63 9 77 15 112 103l207 525l31 9l193 -536c32 -86 45 -95 110 -101v-28zM418 280l-88 255h-2l-94 -255h184zM504 756l-2 -8l-186 -64l-12 25l157 102
c12 -2 40 -41 43 -55z" />
    <glyph glyph-name="Acircumflex" unicode="&#xc2;" horiz-adv-x="691" 
d="M673 0h-245v28c63 8 72 16 59 55s-33 93 -55 154h-213c-16 -45 -31 -87 -44 -129c-22 -63 -13 -73 62 -80v-28h-217v28c63 9 77 15 112 103l207 525l31 9l193 -536c32 -86 45 -95 110 -101v-28zM418 280l-88 255h-2l-94 -255h184zM493 709l-16 -25c-39 17 -81 39 -121 62
c-39 -22 -80 -45 -119 -62l-17 25c43 33 88 67 126 107h22c39 -41 82 -74 125 -107z" />
    <glyph glyph-name="Atilde" unicode="&#xc3;" horiz-adv-x="691" 
d="M673 0h-245v28c63 8 72 16 59 55s-33 93 -55 154h-213c-16 -45 -31 -87 -44 -129c-22 -63 -13 -73 62 -80v-28h-217v28c63 9 77 15 112 103l207 525l31 9l193 -536c32 -86 45 -95 110 -101v-28zM418 280l-88 255h-2l-94 -255h184zM304 788h1c17 0 31 -5 60 -19
c22 -10 38 -16 55 -16c19 0 33 15 46 43l25 -14c-22 -67 -55 -85 -82 -85c-22 0 -43 9 -70 22c-16 8 -27 14 -44 14c-19 0 -33 -16 -48 -44l-24 17c25 63 56 82 81 82z" />
    <glyph glyph-name="Adieresis" unicode="&#xc4;" horiz-adv-x="691" 
d="M673 0h-245v28c63 8 72 16 59 55s-33 93 -55 154h-213c-16 -45 -31 -87 -44 -129c-22 -63 -13 -73 62 -80v-28h-217v28c63 9 77 15 112 103l207 525l31 9l193 -536c32 -86 45 -95 110 -101v-28zM418 280l-88 255h-2l-94 -255h184zM448 793h1c26 0 47 -21 47 -49
c0 -26 -21 -48 -48 -48c-25 0 -47 22 -47 48c0 28 22 49 47 49zM258 793h1c26 0 46 -21 46 -50c0 -25 -20 -48 -47 -48c-26 0 -48 23 -48 48c0 29 22 50 48 50z" />
    <glyph glyph-name="Aring" unicode="&#xc5;" horiz-adv-x="691" 
d="M673 0h-245v28c63 8 72 16 59 55s-33 93 -55 154h-213c-16 -45 -31 -87 -44 -129c-22 -63 -13 -73 62 -80v-28h-217v28c63 9 77 15 112 103l207 525l31 9l193 -536c32 -86 45 -95 110 -101v-28zM418 280l-88 255h-2l-94 -255h184zM354 855h1c43 0 87 -32 87 -84
s-44 -85 -88 -85s-88 33 -88 85s44 84 88 84zM354 823h-1c-25 0 -43 -22 -43 -52c0 -31 18 -54 44 -54c27 0 44 23 44 54c0 30 -17 52 -44 52z" />
    <glyph glyph-name="AE" unicode="&#xc6;" horiz-adv-x="869" 
d="M819 165l28 -7c-6 -31 -26 -127 -35 -158h-473v28c86 6 94 17 94 106v163h-177c-43 -84 -69 -136 -95 -195c-23 -52 -20 -65 57 -75v-27h-229v27c64 9 80 17 119 85c83 147 171 318 239 449c22 42 20 50 -31 57l-41 5v27h513c0 -25 5 -93 10 -142l-30 -4
c-10 40 -18 64 -32 82c-17 21 -36 29 -105 29h-83c-30 0 -32 -3 -32 -32v-248h90c90 0 96 9 109 77h30v-195h-30c-14 72 -20 79 -109 79l-90 1v-166c0 -52 6 -72 24 -84c20 -11 55 -12 102 -12c71 0 105 7 128 34c16 19 32 49 49 96zM433 336v274c-6 0 -14 -2 -28 -20
l-131 -254h159z" />
    <glyph glyph-name="Ccedilla" unicode="&#xc7;" horiz-adv-x="661" 
d="M613 178l29 -11c-14 -50 -38 -122 -54 -156c-27 -5 -102 -23 -166 -24l-11 -14c-13 -17 -10 -25 6 -42c26 -27 38 -45 38 -68c0 -40 -45 -80 -114 -102l-13 28c41 18 60 39 61 60c0 16 -12 27 -23 38c-24 24 -29 38 -11 62l27 37c-235 7 -336 176 -336 328
c0 208 158 351 379 351c85 0 150 -20 178 -26c8 -57 14 -99 20 -155l-30 -5c-31 108 -84 149 -196 149c-152 0 -248 -127 -248 -292c0 -180 99 -313 256 -313c105 0 156 53 208 155z" />
    <glyph glyph-name="Egrave" unicode="&#xc8;" horiz-adv-x="568" 
d="M516 162l30 -4c-6 -33 -26 -127 -35 -158h-482v28c91 7 99 15 99 96v398c0 90 -8 93 -86 100v28h446c0 -25 5 -93 8 -144l-29 -5c-9 42 -19 64 -32 86c-14 21 -41 28 -113 28h-76c-31 0 -33 -2 -33 -32v-227h94c90 0 95 8 108 75h29v-192h-29c-13 72 -20 78 -107 78h-95
v-189c0 -47 6 -68 24 -81c19 -12 54 -13 104 -13c76 0 104 8 126 34c17 20 36 54 49 94zM349 709l-13 -25l-187 64l-1 7c3 14 31 53 43 57z" />
    <glyph glyph-name="Eacute" unicode="&#xc9;" horiz-adv-x="568" 
d="M516 162l30 -4c-6 -33 -26 -127 -35 -158h-482v28c91 7 99 15 99 96v398c0 90 -8 93 -86 100v28h446c0 -25 5 -93 8 -144l-29 -5c-9 42 -19 64 -32 86c-14 21 -41 28 -113 28h-76c-31 0 -33 -2 -33 -32v-227h94c90 0 95 8 108 75h29v-192h-29c-13 72 -20 78 -107 78h-95
v-189c0 -47 6 -68 24 -81c19 -12 54 -13 104 -13c76 0 104 8 126 34c17 20 36 54 49 94zM431 756l-2 -8l-186 -64l-12 25l157 102c12 -2 40 -41 43 -55z" />
    <glyph glyph-name="Ecircumflex" unicode="&#xca;" horiz-adv-x="568" 
d="M516 162l30 -4c-6 -33 -26 -127 -35 -158h-482v28c91 7 99 15 99 96v398c0 90 -8 93 -86 100v28h446c0 -25 5 -93 8 -144l-29 -5c-9 42 -19 64 -32 86c-14 21 -41 28 -113 28h-76c-31 0 -33 -2 -33 -32v-227h94c90 0 95 8 108 75h29v-192h-29c-13 72 -20 78 -107 78h-95
v-189c0 -47 6 -68 24 -81c19 -12 54 -13 104 -13c76 0 104 8 126 34c17 20 36 54 49 94zM424 709l-16 -25c-39 17 -81 39 -121 62c-39 -22 -80 -45 -119 -62l-17 25c43 33 88 67 126 107h22c39 -41 82 -74 125 -107z" />
    <glyph glyph-name="Edieresis" unicode="&#xcb;" horiz-adv-x="568" 
d="M516 162l30 -4c-6 -33 -26 -127 -35 -158h-482v28c91 7 99 15 99 96v398c0 90 -8 93 -86 100v28h446c0 -25 5 -93 8 -144l-29 -5c-9 42 -19 64 -32 86c-14 21 -41 28 -113 28h-76c-31 0 -33 -2 -33 -32v-227h94c90 0 95 8 108 75h29v-192h-29c-13 72 -20 78 -107 78h-95
v-189c0 -47 6 -68 24 -81c19 -12 54 -13 104 -13c76 0 104 8 126 34c17 20 36 54 49 94zM385 797h1c26 0 47 -21 47 -49c0 -26 -21 -48 -48 -48c-25 0 -47 22 -47 48c0 28 22 49 47 49zM195 797h1c26 0 46 -21 46 -50c0 -25 -20 -48 -47 -48c-26 0 -48 23 -48 48
c0 29 22 50 48 50z" />
    <glyph glyph-name="Igrave" unicode="&#xcc;" horiz-adv-x="341" 
d="M303 0h-265v28c82 6 90 12 90 97v400c0 85 -8 91 -90 97v28h265v-28c-82 -6 -90 -12 -90 -97v-400c0 -86 8 -91 90 -97v-28zM236 709l-13 -25l-187 64l-1 7c3 14 31 53 43 57z" />
    <glyph glyph-name="Iacute" unicode="&#xcd;" horiz-adv-x="341" 
d="M303 0h-265v28c82 6 90 12 90 97v400c0 85 -8 91 -90 97v28h265v-28c-82 -6 -90 -12 -90 -97v-400c0 -86 8 -91 90 -97v-28zM313 756l-2 -8l-186 -64l-12 25l157 102c12 -2 40 -41 43 -55z" />
    <glyph glyph-name="Icircumflex" unicode="&#xce;" horiz-adv-x="341" 
d="M303 0h-265v28c82 6 90 12 90 97v400c0 85 -8 91 -90 97v28h265v-28c-82 -6 -90 -12 -90 -97v-400c0 -86 8 -91 90 -97v-28zM307 709l-16 -25c-39 17 -81 39 -121 62c-39 -22 -80 -45 -119 -62l-17 25c43 33 88 67 126 107h22c39 -41 82 -74 125 -107z" />
    <glyph glyph-name="Idieresis" unicode="&#xcf;" horiz-adv-x="341" 
d="M303 0h-265v28c82 6 90 12 90 97v400c0 85 -8 91 -90 97v28h265v-28c-82 -6 -90 -12 -90 -97v-400c0 -86 8 -91 90 -97v-28zM266 794h1c26 0 47 -21 47 -49c0 -26 -21 -48 -48 -48c-25 0 -47 22 -47 48c0 28 22 49 47 49zM76 794h1c26 0 46 -21 46 -50
c0 -25 -20 -48 -47 -48c-26 0 -48 23 -48 48c0 29 22 50 48 50z" />
    <glyph glyph-name="Eth" unicode="&#xd0;" horiz-adv-x="737" 
d="M54 650h275c118 0 212 -23 277 -86c50 -47 86 -121 86 -214c0 -120 -47 -209 -125 -267c-77 -58 -173 -83 -292 -83h-230v28c86 6 94 14 94 109v183h-102v41h102v152c0 96 -8 103 -85 109v28zM224 320v-188c0 -67 14 -95 97 -95c187 0 271 138 271 298
c0 108 -38 194 -115 242c-40 26 -96 40 -162 40c-44 0 -69 -5 -78 -10s-13 -15 -13 -43v-203h158v-41h-158z" />
    <glyph glyph-name="Ntilde" unicode="&#xd1;" horiz-adv-x="743" 
d="M719 650v-28c-56 -3 -80 -16 -84 -60c-4 -30 -6 -75 -6 -168v-403h-31l-426 524h-2v-251c0 -92 3 -140 6 -169c5 -51 28 -63 96 -67v-28h-237v28c58 3 83 16 88 65c3 31 6 79 6 171v220c0 73 -2 77 -20 101c-20 25 -42 33 -89 37v28h148l417 -502h3v246
c0 92 -4 138 -7 166c-5 45 -29 58 -98 62v28h236zM324 788h1c17 0 31 -5 60 -19c22 -10 38 -16 55 -16c19 0 33 15 46 43l25 -14c-22 -67 -55 -85 -82 -85c-22 0 -43 9 -70 22c-16 8 -27 14 -44 14c-19 0 -33 -16 -48 -44l-24 17c25 63 56 82 81 82z" />
    <glyph glyph-name="Ograve" unicode="&#xd2;" horiz-adv-x="747" 
d="M380 665h1c169 0 322 -132 322 -332c0 -216 -151 -348 -334 -348c-181 0 -325 141 -325 333c0 180 126 347 336 347zM360 629h-1c-111 0 -213 -96 -213 -283c0 -188 103 -325 244 -325c111 0 211 93 211 285c0 211 -110 323 -241 323zM445 718l-13 -25l-187 64l-1 7
c3 14 31 53 43 57z" />
    <glyph glyph-name="Oacute" unicode="&#xd3;" horiz-adv-x="747" 
d="M380 665h1c169 0 322 -132 322 -332c0 -216 -151 -348 -334 -348c-181 0 -325 141 -325 333c0 180 126 347 336 347zM360 629h-1c-111 0 -213 -96 -213 -283c0 -188 103 -325 244 -325c111 0 211 93 211 285c0 211 -110 323 -241 323zM503 763l-2 -8l-186 -64l-12 25
l157 102c12 -2 40 -41 43 -55z" />
    <glyph glyph-name="Ocircumflex" unicode="&#xd4;" horiz-adv-x="747" 
d="M380 665h1c169 0 322 -132 322 -332c0 -216 -151 -348 -334 -348c-181 0 -325 141 -325 333c0 180 126 347 336 347zM360 629h-1c-111 0 -213 -96 -213 -283c0 -188 103 -325 244 -325c111 0 211 93 211 285c0 211 -110 323 -241 323zM509 716l-16 -25
c-39 17 -81 39 -121 62c-39 -22 -80 -45 -119 -62l-17 25c43 33 88 67 126 107h22c39 -41 82 -74 125 -107z" />
    <glyph glyph-name="Otilde" unicode="&#xd5;" horiz-adv-x="747" 
d="M380 665h1c169 0 322 -132 322 -332c0 -216 -151 -348 -334 -348c-181 0 -325 141 -325 333c0 180 126 347 336 347zM360 629h-1c-111 0 -213 -96 -213 -283c0 -188 103 -325 244 -325c111 0 211 93 211 285c0 211 -110 323 -241 323zM322 797h1c17 0 31 -5 60 -19
c22 -10 38 -16 55 -16c19 0 33 15 46 43l25 -14c-22 -67 -55 -85 -82 -85c-22 0 -43 9 -70 22c-16 8 -27 14 -44 14c-19 0 -33 -16 -48 -44l-24 17c25 63 56 82 81 82z" />
    <glyph glyph-name="Odieresis" unicode="&#xd6;" horiz-adv-x="747" 
d="M380 665h1c169 0 322 -132 322 -332c0 -216 -151 -348 -334 -348c-181 0 -325 141 -325 333c0 180 126 347 336 347zM360 629h-1c-111 0 -213 -96 -213 -283c0 -188 103 -325 244 -325c111 0 211 93 211 285c0 211 -110 323 -241 323zM468 798h1c26 0 47 -21 47 -49
c0 -26 -21 -48 -48 -48c-25 0 -47 22 -47 48c0 28 22 49 47 49zM278 798h1c26 0 46 -21 46 -50c0 -25 -20 -48 -47 -48c-26 0 -48 23 -48 48c0 29 22 50 48 50z" />
    <glyph glyph-name="multiply" unicode="&#xd7;" horiz-adv-x="580" 
d="M522 47l-37 -38l-195 200l-195 -200l-35 38l193 200l-193 198l35 38l195 -199l195 200l37 -37l-195 -200z" />
    <glyph glyph-name="Oslash" unicode="&#xd8;" horiz-adv-x="749" 
d="M633 674l-50 -75c73 -59 127 -152 127 -264c0 -214 -150 -350 -337 -350c-62 0 -123 18 -172 50l-57 -80l-26 24l53 77c-72 60 -121 152 -121 263c0 179 131 346 340 346c59 0 116 -16 162 -46l51 75zM216 123l301 443c-40 43 -92 63 -150 63c-114 0 -217 -96 -217 -285
c0 -88 26 -168 66 -221zM540 536l-300 -444c37 -47 92 -71 150 -71c151 0 220 129 220 284c0 101 -30 176 -70 231z" />
    <glyph glyph-name="Ugrave" unicode="&#xd9;" horiz-adv-x="736" 
d="M716 650v-28c-60 -4 -83 -18 -88 -59c-3 -27 -5 -70 -5 -162v-82c0 -118 -18 -203 -76 -264c-46 -48 -113 -69 -179 -69c-58 0 -116 14 -160 48c-60 46 -88 121 -88 238v249c0 90 -8 94 -87 101v28h259v-28c-79 -5 -87 -11 -87 -101v-227c0 -161 64 -253 188 -253
c144 0 189 120 189 285v75c0 92 -3 134 -7 165c-6 39 -27 51 -97 56v28h238zM439 709l-13 -25l-187 64l-1 7c3 14 31 53 43 57z" />
    <glyph glyph-name="Uacute" unicode="&#xda;" horiz-adv-x="736" 
d="M716 650v-28c-60 -4 -83 -18 -88 -59c-3 -27 -5 -70 -5 -162v-82c0 -118 -18 -203 -76 -264c-46 -48 -113 -69 -179 -69c-58 0 -116 14 -160 48c-60 46 -88 121 -88 238v249c0 90 -8 94 -87 101v28h259v-28c-79 -5 -87 -11 -87 -101v-227c0 -161 64 -253 188 -253
c144 0 189 120 189 285v75c0 92 -3 134 -7 165c-6 39 -27 51 -97 56v28h238zM519 756l-2 -8l-186 -64l-12 25l157 102c12 -2 40 -41 43 -55z" />
    <glyph glyph-name="Ucircumflex" unicode="&#xdb;" horiz-adv-x="736" 
d="M716 650v-28c-60 -4 -83 -18 -88 -59c-3 -27 -5 -70 -5 -162v-82c0 -118 -18 -203 -76 -264c-46 -48 -113 -69 -179 -69c-58 0 -116 14 -160 48c-60 46 -88 121 -88 238v249c0 90 -8 94 -87 101v28h259v-28c-79 -5 -87 -11 -87 -101v-227c0 -161 64 -253 188 -253
c144 0 189 120 189 285v75c0 92 -3 134 -7 165c-6 39 -27 51 -97 56v28h238zM517 709l-16 -25c-39 17 -81 39 -121 62c-39 -22 -80 -45 -119 -62l-17 25c43 33 88 67 126 107h22c39 -41 82 -74 125 -107z" />
    <glyph glyph-name="Udieresis" unicode="&#xdc;" horiz-adv-x="736" 
d="M716 650v-28c-60 -4 -83 -18 -88 -59c-3 -27 -5 -70 -5 -162v-82c0 -118 -18 -203 -76 -264c-46 -48 -113 -69 -179 -69c-58 0 -116 14 -160 48c-60 46 -88 121 -88 238v249c0 90 -8 94 -87 101v28h259v-28c-79 -5 -87 -11 -87 -101v-227c0 -161 64 -253 188 -253
c144 0 189 120 189 285v75c0 92 -3 134 -7 165c-6 39 -27 51 -97 56v28h238zM472 794h1c26 0 47 -21 47 -49c0 -26 -21 -48 -48 -48c-25 0 -47 22 -47 48c0 28 22 49 47 49zM282 794h1c26 0 46 -21 46 -50c0 -25 -20 -48 -47 -48c-26 0 -48 23 -48 48c0 29 22 50 48 50z" />
    <glyph glyph-name="Yacute" unicode="&#xdd;" horiz-adv-x="634" 
d="M620 650v-28c-69 -8 -80 -18 -119 -79c-45 -73 -79 -131 -127 -219c-13 -26 -16 -37 -16 -63v-136c0 -84 8 -91 100 -97v-28h-283v28c89 6 98 12 98 97v133c0 20 -4 29 -21 59l-126 220c-40 68 -51 79 -111 85v28h239v-28c-71 -9 -69 -21 -50 -54
c42 -80 91 -162 134 -237c37 66 91 164 119 225c23 50 20 58 -58 66v28h221zM471 756l-2 -8l-186 -64l-12 25l157 102c12 -2 40 -41 43 -55z" />
    <glyph glyph-name="Thorn" unicode="&#xde;" horiz-adv-x="549" 
d="M288 650v-28c-73 -6 -80 -10 -80 -116c30 1 59 2 88 2c131 0 214 -51 214 -171c0 -124 -111 -185 -231 -185l-71 17v-42c0 -86 9 -93 94 -99v-28h-265v28c79 6 87 13 87 104v386c0 92 -6 98 -82 104v28h246zM208 433v-229c12 -5 34 -12 68 -12c77 0 139 48 139 142
s-54 140 -142 140c-27 0 -46 -4 -54 -9c-7 -4 -11 -9 -11 -32z" />
    <glyph glyph-name="germandbls" unicode="&#xdf;" horiz-adv-x="545" 
d="M103 437v12c0 35 5 63 11 86c8 27 25 74 83 123c37 31 78 50 128 54c90 -2 155 -55 157 -150c0 -17 -3 -29 -11 -42c-71 -54 -103 -101 -103 -136c0 -38 34 -65 69 -96c36 -32 81 -74 81 -132c0 -99 -114 -169 -184 -169c-20 0 -39 3 -55 13c-17 10 -23 21 -20 33
c2 8 11 21 18 27c7 5 14 6 21 1c24 -19 51 -29 74 -29c29 0 71 21 71 82c0 44 -27 75 -68 110c-55 47 -82 84 -82 123c0 37 24 68 70 117c25 24 37 36 43 45c5 8 7 21 7 33c0 65 -49 128 -119 128c-100 0 -112 -128 -112 -270v-296c0 -62 5 -72 53 -77v-27h-204v27
c65 5 72 15 72 75v292h-71l-4 10l28 33h47z" />
    <glyph glyph-name="agrave" unicode="&#xe0;" horiz-adv-x="439" 
d="M433 39l-85 -51c-15 0 -36 9 -47 19c-13 14 -19 28 -24 45c-40 -27 -88 -64 -118 -64c-71 0 -120 59 -120 122c0 49 26 80 81 99c60 20 133 47 155 65v18c0 72 -34 113 -84 113c-20 0 -35 -8 -45 -20c-13 -13 -22 -35 -30 -65c-4 -17 -15 -24 -29 -24
c-18 0 -44 20 -44 43c0 15 13 26 32 40c28 20 93 59 150 70c30 0 60 -9 82 -27c35 -29 45 -70 45 -122v-186c0 -45 18 -60 35 -60c12 0 26 5 36 11zM275 84v156c-21 -11 -69 -32 -90 -42c-39 -18 -61 -37 -61 -73c0 -52 40 -77 71 -77c26 1 61 18 80 36zM251 504l-27 -13
l-117 160l3 8c9 5 63 15 78 13c18 -45 43 -117 63 -168z" />
    <glyph glyph-name="aacute" unicode="&#xe1;" horiz-adv-x="439" 
d="M433 39l-85 -51c-15 0 -36 9 -47 19c-13 14 -19 28 -24 45c-40 -27 -88 -64 -118 -64c-71 0 -120 59 -120 122c0 49 26 80 81 99c60 20 133 47 155 65v18c0 72 -34 113 -84 113c-20 0 -35 -8 -45 -20c-13 -13 -22 -35 -30 -65c-4 -17 -15 -24 -29 -24
c-18 0 -44 20 -44 43c0 15 13 26 32 40c28 20 93 59 150 70c30 0 60 -9 82 -27c35 -29 45 -70 45 -122v-186c0 -45 18 -60 35 -60c12 0 26 5 36 11zM275 84v156c-21 -11 -69 -32 -90 -42c-39 -18 -61 -37 -61 -73c0 -52 40 -77 71 -77c26 1 61 18 80 36zM203 493l-26 13
c19 42 60 142 67 159c10 4 69 12 81 9l3 -9z" />
    <glyph glyph-name="acircumflex" unicode="&#xe2;" horiz-adv-x="439" 
d="M433 39l-85 -51c-15 0 -36 9 -47 19c-13 14 -19 28 -24 45c-40 -27 -88 -64 -118 -64c-71 0 -120 59 -120 122c0 49 26 80 81 99c60 20 133 47 155 65v18c0 72 -34 113 -84 113c-20 0 -35 -8 -45 -20c-13 -13 -22 -35 -30 -65c-4 -17 -15 -24 -29 -24
c-18 0 -44 20 -44 43c0 15 13 26 32 40c28 20 93 59 150 70c30 0 60 -9 82 -27c35 -29 45 -70 45 -122v-186c0 -45 18 -60 35 -60c12 0 26 5 36 11zM275 84v156c-21 -11 -69 -32 -90 -42c-39 -18 -61 -37 -61 -73c0 -52 40 -77 71 -77c26 1 61 18 80 36zM320 508l-24 -17
c-32 30 -62 64 -88 97c-26 -33 -55 -66 -88 -97l-24 17c38 54 71 108 100 163h25c29 -55 61 -109 99 -163z" />
    <glyph glyph-name="atilde" unicode="&#xe3;" horiz-adv-x="439" 
d="M433 39l-85 -51c-15 0 -36 9 -47 19c-13 14 -19 28 -24 45c-40 -27 -88 -64 -118 -64c-71 0 -120 59 -120 122c0 49 26 80 81 99c60 20 133 47 155 65v18c0 72 -34 113 -84 113c-20 0 -35 -8 -45 -20c-13 -13 -22 -35 -30 -65c-4 -17 -15 -24 -29 -24
c-18 0 -44 20 -44 43c0 15 13 26 32 40c28 20 93 59 150 70c30 0 60 -9 82 -27c35 -29 45 -70 45 -122v-186c0 -45 18 -60 35 -60c12 0 26 5 36 11zM275 84v156c-21 -11 -69 -32 -90 -42c-39 -18 -61 -37 -61 -73c0 -52 40 -77 71 -77c26 1 61 18 80 36zM108 521l-26 16
c22 68 54 90 80 90c16 0 29 -4 58 -19c22 -11 37 -19 53 -19c18 0 31 16 44 45l25 -14c-22 -73 -54 -90 -79 -90c-21 0 -41 10 -66 24c-18 10 -30 15 -46 15s-30 -16 -43 -48z" />
    <glyph glyph-name="adieresis" unicode="&#xe4;" horiz-adv-x="439" 
d="M433 39l-85 -51c-15 0 -36 9 -47 19c-13 14 -19 28 -24 45c-40 -27 -88 -64 -118 -64c-71 0 -120 59 -120 122c0 49 26 80 81 99c60 20 133 47 155 65v18c0 72 -34 113 -84 113c-20 0 -35 -8 -45 -20c-13 -13 -22 -35 -30 -65c-4 -17 -15 -24 -29 -24
c-18 0 -44 20 -44 43c0 15 13 26 32 40c28 20 93 59 150 70c30 0 60 -9 82 -27c35 -29 45 -70 45 -122v-186c0 -45 18 -60 35 -60c12 0 26 5 36 11zM275 84v156c-21 -11 -69 -32 -90 -42c-39 -18 -61 -37 -61 -73c0 -52 40 -77 71 -77c26 1 61 18 80 36zM125 538
c-26 0 -48 23 -48 48c0 28 22 50 49 50c26 0 46 -22 46 -50c0 -25 -20 -48 -47 -48zM293 538c-26 0 -47 23 -47 48c0 28 21 50 48 50c26 0 47 -22 47 -50c0 -25 -21 -48 -48 -48z" />
    <glyph glyph-name="aring" unicode="&#xe5;" horiz-adv-x="439" 
d="M433 39l-85 -51c-15 0 -36 9 -47 19c-13 14 -19 28 -24 45c-40 -27 -88 -64 -118 -64c-71 0 -120 59 -120 122c0 49 26 80 81 99c60 20 133 47 155 65v18c0 72 -34 113 -84 113c-20 0 -35 -8 -45 -20c-13 -13 -22 -35 -30 -65c-4 -17 -15 -24 -29 -24
c-18 0 -44 20 -44 43c0 15 13 26 32 40c28 20 93 59 150 70c30 0 60 -9 82 -27c35 -29 45 -70 45 -122v-186c0 -45 18 -60 35 -60c12 0 26 5 36 11zM275 84v156c-21 -11 -69 -32 -90 -42c-39 -18 -61 -37 -61 -73c0 -52 40 -77 71 -77c26 1 61 18 80 36zM210 499
c-44 0 -89 33 -89 86c0 52 45 83 90 83c43 0 88 -31 88 -83c0 -53 -45 -86 -89 -86zM211 530c27 0 44 24 44 55c0 30 -17 52 -45 52c-25 0 -44 -22 -44 -52c0 -31 19 -55 45 -55z" />
    <glyph glyph-name="ae" unicode="&#xe6;" horiz-adv-x="671" 
d="M284 275v23c0 64 -40 107 -88 107c-22 0 -37 -9 -47 -23c-12 -13 -19 -34 -28 -64c-4 -15 -12 -24 -27 -24c-16 0 -46 21 -46 42c0 16 10 29 31 43c29 21 95 57 151 70c30 0 56 -8 74 -21s32 -31 41 -54c39 45 95 75 147 76c86 0 153 -75 154 -152c0 -23 -5 -31 -23 -35
c-15 -3 -141 -12 -265 -16c-2 -134 77 -192 155 -192c38 0 73 14 111 50l17 -20c-59 -79 -133 -97 -163 -97c-73 0 -129 35 -161 89l-35 -27c-39 -30 -92 -62 -121 -62c-73 0 -121 62 -121 120c0 51 25 81 79 100c55 19 134 45 165 67zM469 412h-1c-45 0 -95 -42 -105 -125
c58 0 117 1 175 2c15 0 21 5 21 23c1 52 -32 100 -90 100zM198 51h1c30 0 71 13 104 56c-15 32 -20 84 -20 133c-21 -10 -64 -28 -98 -42c-42 -17 -60 -35 -60 -71c0 -50 37 -76 73 -76z" />
    <glyph glyph-name="ccedilla" unicode="&#xe7;" horiz-adv-x="421" 
d="M391 112l18 -22c-41 -50 -88 -86 -137 -98l-14 -18c-12 -17 -9 -24 7 -41c27 -26 37 -45 37 -67c0 -40 -44 -78 -112 -101l-11 26c40 18 59 41 59 61c0 16 -12 27 -22 38c-24 23 -30 36 -12 60l30 38c-116 4 -197 93 -197 207c0 78 37 148 101 197c59 45 116 57 153 57
c28 0 70 -10 89 -27c12 -10 16 -19 15 -30c0 -19 -22 -43 -36 -43c-5 0 -10 3 -18 11c-32 29 -64 41 -102 41c-54 0 -120 -45 -120 -159c-1 -145 96 -186 150 -186c44 0 76 11 122 56z" />
    <glyph glyph-name="egrave" unicode="&#xe8;" horiz-adv-x="425" 
d="M379 106l16 -21c-63 -79 -132 -97 -163 -97c-123 0 -195 100 -195 213c0 69 25 130 66 175c41 46 95 73 146 73h1c83 0 150 -74 150 -152c0 -20 -5 -28 -23 -32c-17 -3 -142 -13 -261 -17c1 -136 79 -192 149 -192c40 0 78 16 114 50zM226 412h-1
c-45 0 -89 -42 -104 -123c56 0 111 1 169 3c18 0 24 6 24 20c1 52 -33 100 -88 100zM265 504l-27 -13l-117 160l3 8c9 5 63 15 78 13c18 -45 43 -117 63 -168z" />
    <glyph glyph-name="eacute" unicode="&#xe9;" horiz-adv-x="425" 
d="M379 106l16 -21c-63 -79 -132 -97 -163 -97c-123 0 -195 100 -195 213c0 69 25 130 66 175c41 46 95 73 146 73h1c83 0 150 -74 150 -152c0 -20 -5 -28 -23 -32c-17 -3 -142 -13 -261 -17c1 -136 79 -192 149 -192c40 0 78 16 114 50zM226 412h-1
c-45 0 -89 -42 -104 -123c56 0 111 1 169 3c18 0 24 6 24 20c1 52 -33 100 -88 100zM218 493l-26 13c19 42 60 142 67 159c10 4 69 12 81 9l3 -9z" />
    <glyph glyph-name="ecircumflex" unicode="&#xea;" horiz-adv-x="425" 
d="M379 106l16 -21c-63 -79 -132 -97 -163 -97c-123 0 -195 100 -195 213c0 69 25 130 66 175c41 46 95 73 146 73h1c83 0 150 -74 150 -152c0 -20 -5 -28 -23 -32c-17 -3 -142 -13 -261 -17c1 -136 79 -192 149 -192c40 0 78 16 114 50zM226 412h-1
c-45 0 -89 -42 -104 -123c56 0 111 1 169 3c18 0 24 6 24 20c1 52 -33 100 -88 100zM340 508l-24 -17c-32 30 -62 64 -88 97c-26 -33 -55 -66 -88 -97l-24 17c38 54 71 108 100 163h25c29 -55 61 -109 99 -163z" />
    <glyph glyph-name="edieresis" unicode="&#xeb;" horiz-adv-x="425" 
d="M379 106l16 -21c-63 -79 -132 -97 -163 -97c-123 0 -195 100 -195 213c0 69 25 130 66 175c41 46 95 73 146 73h1c83 0 150 -74 150 -152c0 -20 -5 -28 -23 -32c-17 -3 -142 -13 -261 -17c1 -136 79 -192 149 -192c40 0 78 16 114 50zM226 412h-1
c-45 0 -89 -42 -104 -123c56 0 111 1 169 3c18 0 24 6 24 20c1 52 -33 100 -88 100zM140 538c-26 0 -48 23 -48 48c0 28 22 50 49 50c26 0 46 -22 46 -50c0 -25 -20 -48 -47 -48zM308 538c-26 0 -47 23 -47 48c0 28 21 50 48 50c26 0 47 -22 47 -50c0 -25 -21 -48 -48 -48z
" />
    <glyph glyph-name="igrave" unicode="&#xec;" horiz-adv-x="268" 
d="M252 0h-219v26c63 6 70 13 70 82v200c0 67 -5 71 -63 80v24c50 8 98 21 142 39v-343c0 -69 6 -76 70 -82v-26zM169 504l-27 -13l-117 160l3 8c9 5 63 15 78 13c18 -45 43 -117 63 -168z" />
    <glyph glyph-name="iacute" unicode="&#xed;" horiz-adv-x="268" 
d="M252 0h-219v26c63 6 70 13 70 82v200c0 67 -5 71 -63 80v24c50 8 98 21 142 39v-343c0 -69 6 -76 70 -82v-26zM124 493l-26 13c19 42 60 142 67 159c10 4 69 12 81 9l3 -9z" />
    <glyph glyph-name="icircumflex" unicode="&#xee;" horiz-adv-x="268" 
d="M252 0h-219v26c63 6 70 13 70 82v200c0 67 -5 71 -63 80v24c50 8 98 21 142 39v-343c0 -69 6 -76 70 -82v-26zM244 508l-24 -17c-32 30 -62 64 -88 97c-26 -33 -55 -66 -88 -97l-24 17c38 54 71 108 100 163h25c29 -55 61 -109 99 -163z" />
    <glyph glyph-name="idieresis" unicode="&#xef;" horiz-adv-x="268" 
d="M252 0h-219v26c63 6 70 13 70 82v200c0 67 -5 71 -63 80v24c50 8 98 21 142 39v-343c0 -69 6 -76 70 -82v-26zM48 538c-26 0 -48 23 -48 48c0 28 22 50 49 50c26 0 46 -22 46 -50c0 -25 -20 -48 -47 -48zM216 538c-26 0 -47 23 -47 48c0 28 21 50 48 50
c26 0 47 -22 47 -50c0 -25 -21 -48 -48 -48z" />
    <glyph glyph-name="eth" unicode="&#xf0;" horiz-adv-x="505" 
d="M450 661l-114 -60c88 -93 131 -199 131 -334c0 -193 -108 -279 -220 -279c-129 0 -209 115 -209 221c0 162 127 240 220 240h1c35 0 65 -7 96 -24c-12 56 -40 108 -72 145l-145 -78l-16 31l135 73c-56 51 -119 78 -173 86c-6 8 -2 25 6 30c68 -4 152 -33 218 -87l126 67z
M254 416h-1c-72 0 -122 -71 -122 -179c0 -126 52 -215 134 -215c57 0 112 47 114 213c1 92 -9 120 -30 142c-25 24 -56 39 -95 39z" />
    <glyph glyph-name="ntilde" unicode="&#xf1;" horiz-adv-x="547" 
d="M523 0h-208v26c59 6 66 14 66 83v167c0 69 -24 114 -91 114c-40 0 -79 -25 -109 -51v-235c0 -68 6 -72 65 -78v-26h-217v26c68 7 73 12 73 78v207c0 64 -6 67 -60 77v23c48 9 95 21 139 41v-80c20 15 42 30 67 47c28 18 54 30 83 30c79 0 129 -55 129 -152v-193
c0 -68 5 -72 63 -78v-26zM167 521l-26 16c22 68 54 90 80 90c16 0 29 -4 58 -19c22 -11 37 -19 53 -19c18 0 31 16 44 45l25 -14c-22 -73 -54 -90 -79 -90c-21 0 -41 10 -66 24c-18 10 -30 15 -46 15s-30 -16 -43 -48z" />
    <glyph glyph-name="ograve" unicode="&#xf2;" horiz-adv-x="510" 
d="M256 449h1c123 0 216 -99 216 -223c0 -161 -118 -238 -217 -238c-137 0 -219 110 -219 221c0 165 128 240 219 240zM246 416h-1c-61 0 -115 -62 -115 -175c0 -126 55 -220 137 -220c62 0 113 46 113 183c0 117 -47 212 -134 212zM294 504l-27 -13l-117 160l3 8
c9 5 63 15 78 13c18 -45 43 -117 63 -168z" />
    <glyph glyph-name="oacute" unicode="&#xf3;" horiz-adv-x="510" 
d="M256 449h1c123 0 216 -99 216 -223c0 -161 -118 -238 -217 -238c-137 0 -219 110 -219 221c0 165 128 240 219 240zM246 416h-1c-61 0 -115 -62 -115 -175c0 -126 55 -220 137 -220c62 0 113 46 113 183c0 117 -47 212 -134 212zM245 493l-26 13c19 42 60 142 67 159
c10 4 69 12 81 9l3 -9z" />
    <glyph glyph-name="ocircumflex" unicode="&#xf4;" horiz-adv-x="510" 
d="M256 449h1c123 0 216 -99 216 -223c0 -161 -118 -238 -217 -238c-137 0 -219 110 -219 221c0 165 128 240 219 240zM246 416h-1c-61 0 -115 -62 -115 -175c0 -126 55 -220 137 -220c62 0 113 46 113 183c0 117 -47 212 -134 212zM367 508l-24 -17c-32 30 -62 64 -88 97
c-26 -33 -55 -66 -88 -97l-24 17c38 54 71 108 100 163h25c29 -55 61 -109 99 -163z" />
    <glyph glyph-name="otilde" unicode="&#xf5;" horiz-adv-x="510" 
d="M256 449h1c123 0 216 -99 216 -223c0 -161 -118 -238 -217 -238c-137 0 -219 110 -219 221c0 165 128 240 219 240zM246 416h-1c-61 0 -115 -62 -115 -175c0 -126 55 -220 137 -220c62 0 113 46 113 183c0 117 -47 212 -134 212zM151 521l-26 16c22 68 54 90 80 90
c16 0 29 -4 58 -19c22 -11 37 -19 53 -19c18 0 31 16 44 45l25 -14c-22 -73 -54 -90 -79 -90c-21 0 -41 10 -66 24c-18 10 -30 15 -46 15s-30 -16 -43 -48z" />
    <glyph glyph-name="odieresis" unicode="&#xf6;" horiz-adv-x="510" 
d="M256 449h1c123 0 216 -99 216 -223c0 -161 -118 -238 -217 -238c-137 0 -219 110 -219 221c0 165 128 240 219 240zM246 416h-1c-61 0 -115 -62 -115 -175c0 -126 55 -220 137 -220c62 0 113 46 113 183c0 117 -47 212 -134 212zM171 538c-26 0 -48 23 -48 48
c0 28 22 50 49 50c26 0 46 -22 46 -50c0 -25 -20 -48 -47 -48zM339 538c-26 0 -47 23 -47 48c0 28 21 50 48 50c26 0 47 -22 47 -50c0 -25 -21 -48 -48 -48z" />
    <glyph glyph-name="divide" unicode="&#xf7;" horiz-adv-x="580" 
d="M292 354h-1c-24 0 -48 22 -48 50c0 26 24 49 49 49c27 0 50 -23 50 -49c0 -28 -23 -50 -50 -50zM529 230h-477v49h477v-49zM291 154h1c23 0 48 -21 48 -49c0 -26 -25 -49 -49 -49c-28 0 -50 23 -50 49c0 28 22 49 50 49z" />
    <glyph glyph-name="oslash" unicode="&#xf8;" horiz-adv-x="513" 
d="M432 454l-36 -53c50 -41 80 -104 80 -174c0 -158 -116 -239 -217 -239c-44 0 -82 11 -115 31l-40 -55l-25 22l38 52c-51 43 -80 108 -80 172c0 164 130 239 223 239c42 0 76 -10 109 -29l36 52zM157 100l180 272c-19 26 -52 44 -88 44c-66 0 -123 -64 -123 -183
c0 -53 11 -99 31 -133zM357 341l-179 -271c18 -28 49 -49 90 -49c62 0 119 54 119 193c0 47 -10 91 -30 127z" />
    <glyph glyph-name="ugrave" unicode="&#xf9;" horiz-adv-x="531" 
d="M518 49v-25c-22 -3 -50 -9 -77 -16c-26 -7 -51 -15 -70 -20l-6 6v71c-23 -17 -46 -35 -74 -52c-29 -17 -50 -25 -77 -25c-67 0 -124 41 -124 149v196c0 53 -8 58 -33 64l-28 6v23c21 1 45 4 72 7c27 4 54 8 71 11c-3 -31 -3 -78 -3 -146v-135c0 -88 43 -112 88 -112
c36 0 74 15 108 48v233c0 54 -9 60 -42 65l-36 6v23c27 1 61 4 90 8c28 3 52 7 67 10v-334c0 -50 8 -57 46 -59zM292 504l-27 -13l-117 160l3 8c9 5 63 15 78 13c18 -45 43 -117 63 -168z" />
    <glyph glyph-name="uacute" unicode="&#xfa;" horiz-adv-x="531" 
d="M518 49v-25c-22 -3 -50 -9 -77 -16c-26 -7 -51 -15 -70 -20l-6 6v71c-23 -17 -46 -35 -74 -52c-29 -17 -50 -25 -77 -25c-67 0 -124 41 -124 149v196c0 53 -8 58 -33 64l-28 6v23c21 1 45 4 72 7c27 4 54 8 71 11c-3 -31 -3 -78 -3 -146v-135c0 -88 43 -112 88 -112
c36 0 74 15 108 48v233c0 54 -9 60 -42 65l-36 6v23c27 1 61 4 90 8c28 3 52 7 67 10v-334c0 -50 8 -57 46 -59zM252 493l-26 13c19 42 60 142 67 159c10 4 69 12 81 9l3 -9z" />
    <glyph glyph-name="ucircumflex" unicode="&#xfb;" horiz-adv-x="531" 
d="M518 49v-25c-22 -3 -50 -9 -77 -16c-26 -7 -51 -15 -70 -20l-6 6v71c-23 -17 -46 -35 -74 -52c-29 -17 -50 -25 -77 -25c-67 0 -124 41 -124 149v196c0 53 -8 58 -33 64l-28 6v23c21 1 45 4 72 7c27 4 54 8 71 11c-3 -31 -3 -78 -3 -146v-135c0 -88 43 -112 88 -112
c36 0 74 15 108 48v233c0 54 -9 60 -42 65l-36 6v23c27 1 61 4 90 8c28 3 52 7 67 10v-334c0 -50 8 -57 46 -59zM373 508l-24 -17c-32 30 -62 64 -88 97c-26 -33 -55 -66 -88 -97l-24 17c38 54 71 108 100 163h25c29 -55 61 -109 99 -163z" />
    <glyph glyph-name="udieresis" unicode="&#xfc;" horiz-adv-x="531" 
d="M518 49v-25c-22 -3 -50 -9 -77 -16c-26 -7 -51 -15 -70 -20l-6 6v71c-23 -17 -46 -35 -74 -52c-29 -17 -50 -25 -77 -25c-67 0 -124 41 -124 149v196c0 53 -8 58 -33 64l-28 6v23c21 1 45 4 72 7c27 4 54 8 71 11c-3 -31 -3 -78 -3 -146v-135c0 -88 43 -112 88 -112
c36 0 74 15 108 48v233c0 54 -9 60 -42 65l-36 6v23c27 1 61 4 90 8c28 3 52 7 67 10v-334c0 -50 8 -57 46 -59zM174 538c-26 0 -48 23 -48 48c0 28 22 50 49 50c26 0 46 -22 46 -50c0 -25 -20 -48 -47 -48zM342 538c-26 0 -47 23 -47 48c0 28 21 50 48 50
c26 0 47 -22 47 -50c0 -25 -21 -48 -48 -48z" />
    <glyph glyph-name="yacute" unicode="&#xfd;" horiz-adv-x="459" 
d="M478 437v-25c-53 -8 -62 -16 -89 -73c-25 -53 -56 -136 -125 -301c-67 -160 -89 -217 -103 -271c-6 -19 -18 -24 -32 -24c-28 0 -57 24 -57 48c0 16 9 25 26 36c31 20 51 44 74 89c19 35 27 56 31 69c5 15 5 28 -1 45c-40 114 -85 235 -115 306c-21 55 -31 68 -86 76v25
h203v-25c-46 -8 -51 -18 -38 -55l91 -251c28 68 71 186 92 249c12 38 5 49 -52 57v25h181zM245 493l-26 13c19 42 60 142 67 159c10 4 69 12 81 9l3 -9z" />
    <glyph glyph-name="thorn" unicode="&#xfe;" horiz-adv-x="514" 
d="M156 712v-328c38 21 74 40 110 57c11 5 23 8 36 8c111 0 174 -98 174 -189c1 -150 -115 -248 -250 -272c-32 2 -57 12 -70 20v-139c0 -70 9 -77 89 -83v-26h-240v26c62 6 72 12 72 81v711c0 68 -3 71 -70 77v24c51 5 108 19 149 33zM156 351v-271c20 -22 61 -41 98 -41
c68 0 139 51 139 179c0 116 -62 172 -138 172c-33 0 -69 -18 -99 -39z" />
    <glyph glyph-name="ydieresis" unicode="&#xff;" horiz-adv-x="459" 
d="M478 437v-25c-53 -8 -62 -16 -89 -73c-25 -53 -56 -136 -125 -301c-67 -160 -89 -217 -103 -271c-6 -19 -18 -24 -32 -24c-28 0 -57 24 -57 48c0 16 9 25 26 36c31 20 51 44 74 89c19 35 27 56 31 69c5 15 5 28 -1 45c-40 114 -85 235 -115 306c-21 55 -31 68 -86 76v25
h203v-25c-46 -8 -51 -18 -38 -55l91 -251c28 68 71 186 92 249c12 38 5 49 -52 57v25h181zM157 538c-26 0 -48 23 -48 48c0 28 22 50 49 50c26 0 46 -22 46 -50c0 -25 -20 -48 -47 -48zM325 538c-26 0 -47 23 -47 48c0 28 21 50 48 50c26 0 47 -22 47 -50
c0 -25 -21 -48 -48 -48z" />
    <glyph glyph-name="Amacron" unicode="&#x100;" horiz-adv-x="691" 
d="M673 0h-245v28c63 8 72 16 59 55s-33 93 -55 154h-213c-16 -45 -31 -87 -44 -129c-22 -63 -13 -73 62 -80v-28h-217v28c63 9 77 15 112 103l207 525l31 9l193 -536c32 -86 45 -95 110 -101v-28zM418 280l-88 255h-2l-94 -255h184zM468 716h-224v52h224v-52z" />
    <glyph glyph-name="amacron" unicode="&#x101;" horiz-adv-x="439" 
d="M433 39l-85 -51c-15 0 -36 9 -47 19c-13 14 -19 28 -24 45c-40 -27 -88 -64 -118 -64c-71 0 -120 59 -120 122c0 49 26 80 81 99c60 20 133 47 155 65v18c0 72 -34 113 -84 113c-20 0 -35 -8 -45 -20c-13 -13 -22 -35 -30 -65c-4 -17 -15 -24 -29 -24
c-18 0 -44 20 -44 43c0 15 13 26 32 40c28 20 93 59 150 70c30 0 60 -9 82 -27c35 -29 45 -70 45 -122v-186c0 -45 18 -60 35 -60c12 0 26 5 36 11zM275 84v156c-21 -11 -69 -32 -90 -42c-39 -18 -61 -37 -61 -73c0 -52 40 -77 71 -77c26 1 61 18 80 36zM315 548h-219v55
h219v-55z" />
    <glyph glyph-name="Abreve" unicode="&#x102;" horiz-adv-x="691" 
d="M673 0h-245v28c63 8 72 16 59 55s-33 93 -55 154h-213c-16 -45 -31 -87 -44 -129c-22 -63 -13 -73 62 -80v-28h-217v28c63 9 77 15 112 103l207 525l31 9l193 -536c32 -86 45 -95 110 -101v-28zM418 280l-88 255h-2l-94 -255h184zM442 813h30c-2 -79 -49 -118 -117 -118
c-69 0 -116 39 -117 118h30c9 -35 34 -61 87 -61s78 26 87 61z" />
    <glyph glyph-name="abreve" unicode="&#x103;" horiz-adv-x="439" 
d="M433 39l-85 -51c-15 0 -36 9 -47 19c-13 14 -19 28 -24 45c-40 -27 -88 -64 -118 -64c-71 0 -120 59 -120 122c0 49 26 80 81 99c60 20 133 47 155 65v18c0 72 -34 113 -84 113c-20 0 -35 -8 -45 -20c-13 -13 -22 -35 -30 -65c-4 -17 -15 -24 -29 -24
c-18 0 -44 20 -44 43c0 15 13 26 32 40c28 20 93 59 150 70c30 0 60 -9 82 -27c35 -29 45 -70 45 -122v-186c0 -45 18 -60 35 -60c12 0 26 5 36 11zM275 84v156c-21 -11 -69 -32 -90 -42c-39 -18 -61 -37 -61 -73c0 -52 40 -77 71 -77c26 1 61 18 80 36zM287 648h30
c0 -104 -52 -137 -112 -137c-58 0 -110 33 -110 137h30c7 -52 37 -79 81 -79s74 27 81 79z" />
    <glyph glyph-name="Aogonek" unicode="&#x104;" horiz-adv-x="691" 
d="M673 0h-169c-28 -24 -63 -86 -63 -124c0 -36 25 -55 58 -55c14 0 33 6 46 11l8 -25l-57 -34c-10 -6 -25 -10 -34 -10c-66 0 -89 43 -89 84c0 67 67 137 113 183c10 10 12 18 6 36c-10 33 -45 125 -61 171h-211c-17 -45 -32 -88 -45 -129c-22 -64 -13 -73 63 -81v-27h-218
v27c62 9 77 16 112 105l207 524l31 9l193 -536c32 -85 46 -96 110 -103v-26zM418 280l-87 253h-2l-95 -253h184z" />
    <glyph glyph-name="aogonek" unicode="&#x105;" horiz-adv-x="439" 
d="M424 65l10 -25c-11 -6 -39 -24 -50 -31c-46 -29 -102 -90 -102 -140c0 -32 21 -46 53 -46c13 0 28 4 42 10l8 -26l-51 -30c-12 -7 -27 -12 -36 -12c-55 0 -84 30 -84 78c0 50 44 103 107 154c-15 7 -37 27 -44 55c-40 -27 -88 -64 -118 -64c-71 0 -120 59 -120 122
c0 49 26 80 81 99c60 20 133 47 156 65v19c0 72 -33 113 -83 113c-19 0 -35 -9 -46 -21c-12 -13 -20 -35 -29 -65c-5 -17 -16 -24 -30 -24c-18 0 -43 20 -43 43c0 15 12 27 31 41c28 20 95 57 151 69c29 0 59 -9 81 -27c35 -29 44 -69 44 -121v-187c0 -45 18 -60 36 -60
c12 0 26 5 36 11zM276 85v156c-22 -11 -69 -32 -90 -42c-39 -18 -61 -38 -61 -74c0 -52 40 -77 71 -77c26 1 61 18 80 37z" />
    <glyph glyph-name="Cacute" unicode="&#x106;" horiz-adv-x="665" 
d="M614 176l29 -11c-14 -46 -39 -120 -57 -153c-28 -7 -112 -27 -184 -27c-249 0 -358 172 -358 331c0 210 162 349 385 349c81 0 149 -22 177 -27c8 -57 14 -97 20 -151l-30 -7c-26 106 -86 149 -194 149c-167 0 -256 -141 -256 -293c0 -187 110 -315 262 -315
c102 0 156 55 206 155zM515 771l-2 -8l-186 -64l-12 25l157 102c12 -2 40 -41 43 -55z" />
    <glyph glyph-name="cacute" unicode="&#x107;" horiz-adv-x="423" 
d="M391 111l17 -21c-44 -58 -111 -102 -170 -102c-126 0 -200 102 -200 209c0 77 33 144 100 196c52 40 112 56 150 56h1c40 0 73 -13 89 -26c13 -11 16 -20 16 -31c0 -21 -22 -43 -33 -43c-5 0 -10 3 -19 11c-30 28 -65 41 -100 41c-66 0 -124 -55 -124 -160
c0 -139 95 -185 151 -185c43 0 76 12 122 55zM228 493l-26 13c19 42 60 142 67 159c10 4 69 12 81 9l3 -9z" />
    <glyph glyph-name="Ccircumflex" unicode="&#x108;" horiz-adv-x="665" 
d="M614 176l29 -11c-14 -46 -39 -120 -57 -153c-28 -7 -112 -27 -184 -27c-249 0 -358 172 -358 331c0 210 162 349 385 349c81 0 149 -22 177 -27c8 -57 14 -97 20 -151l-30 -7c-26 106 -86 149 -194 149c-167 0 -256 -141 -256 -293c0 -187 110 -315 262 -315
c102 0 156 55 206 155zM533 723l-16 -25c-39 17 -81 39 -121 62c-39 -22 -80 -45 -119 -62l-17 25c43 33 88 67 126 107h22c39 -41 82 -74 125 -107z" />
    <glyph glyph-name="ccircumflex" unicode="&#x109;" horiz-adv-x="423" 
d="M391 111l17 -21c-44 -58 -111 -102 -170 -102c-126 0 -200 102 -200 209c0 77 33 144 100 196c52 40 112 56 150 56h1c40 0 73 -13 89 -26c13 -11 16 -20 16 -31c0 -21 -22 -43 -33 -43c-5 0 -10 3 -19 11c-30 28 -65 41 -100 41c-66 0 -124 -55 -124 -160
c0 -139 95 -185 151 -185c43 0 76 12 122 55zM356 508l-24 -17c-32 30 -62 64 -88 97c-26 -33 -55 -66 -88 -97l-24 17c38 54 71 108 100 163h25c29 -55 61 -109 99 -163z" />
    <glyph glyph-name="Cdotaccent" unicode="&#x10a;" horiz-adv-x="665" 
d="M614 176l29 -11c-14 -46 -39 -120 -57 -153c-28 -7 -112 -27 -184 -27c-249 0 -358 172 -358 331c0 210 162 349 385 349c81 0 149 -22 177 -27c8 -57 14 -97 20 -151l-30 -7c-26 106 -86 149 -194 149c-167 0 -256 -141 -256 -293c0 -187 110 -315 262 -315
c102 0 156 55 206 155zM399 811h1c28 0 50 -23 50 -53c0 -29 -22 -51 -51 -51s-51 22 -51 51c0 30 22 53 51 53z" />
    <glyph glyph-name="cdotaccent" unicode="&#x10b;" horiz-adv-x="423" 
d="M391 111l17 -21c-44 -58 -111 -102 -170 -102c-126 0 -200 102 -200 209c0 77 33 144 100 196c52 40 112 56 150 56h1c40 0 73 -13 89 -26c13 -11 16 -20 16 -31c0 -21 -22 -43 -33 -43c-5 0 -10 3 -19 11c-30 28 -65 41 -100 41c-66 0 -124 -55 -124 -160
c0 -139 95 -185 151 -185c43 0 76 12 122 55zM242 538c-27 0 -50 23 -50 50c0 30 23 53 51 53s49 -23 49 -53c0 -27 -21 -50 -50 -50z" />
    <glyph glyph-name="Ccaron" unicode="&#x10c;" horiz-adv-x="665" 
d="M614 176l29 -11c-14 -46 -39 -120 -57 -153c-28 -7 -112 -27 -184 -27c-249 0 -358 172 -358 331c0 210 162 349 385 349c81 0 149 -22 177 -27c8 -57 14 -97 20 -151l-30 -7c-26 106 -86 149 -194 149c-167 0 -256 -141 -256 -293c0 -187 110 -315 262 -315
c102 0 156 55 206 155zM518 836l15 -26c-43 -32 -86 -66 -125 -107h-22c-40 41 -83 74 -126 107l15 26c41 -18 82 -38 122 -62c39 23 81 44 121 62z" />
    <glyph glyph-name="ccaron" unicode="&#x10d;" horiz-adv-x="423" 
d="M391 111l17 -21c-44 -58 -111 -102 -170 -102c-126 0 -200 102 -200 209c0 77 33 144 100 196c52 40 112 56 150 56h1c40 0 73 -13 89 -26c13 -11 16 -20 16 -31c0 -21 -22 -43 -33 -43c-5 0 -10 3 -19 11c-30 28 -65 41 -100 41c-66 0 -124 -55 -124 -160
c0 -139 95 -185 151 -185c43 0 76 12 122 55zM336 675l24 -17c-39 -54 -71 -108 -100 -163h-25c-30 56 -62 109 -100 163l25 17c33 -32 62 -64 87 -97c27 32 55 65 89 97z" />
    <glyph glyph-name="Dcaron" unicode="&#x10e;" horiz-adv-x="735" 
d="M42 650h281c127 0 221 -26 283 -85c49 -48 84 -121 84 -215c0 -120 -46 -209 -123 -267c-75 -58 -174 -83 -297 -83h-237v27c86 6 94 12 94 97v401c0 86 -8 90 -85 96v29zM213 547v-416c0 -76 33 -95 106 -95c187 0 273 140 273 300c0 103 -38 192 -118 239
c-45 29 -103 41 -170 41c-42 0 -68 -5 -78 -12s-13 -18 -13 -57zM464 821l15 -26c-43 -32 -86 -66 -125 -107h-22c-40 41 -83 74 -126 107l15 26c41 -18 82 -38 122 -62c39 23 81 44 121 62z" />
    <glyph glyph-name="dcaron" unicode="&#x10f;" horiz-adv-x="528" 
d="M517 51v-25c-22 -4 -97 -17 -155 -38v65l-61 -36c-39 -23 -66 -29 -78 -29c-80 0 -185 73 -185 213c0 139 122 248 258 248c14 0 43 -3 66 -11v141c0 66 -5 69 -77 74v24c52 7 119 22 156 35v-597c0 -52 7 -57 44 -61zM362 85v276c-24 35 -65 51 -103 51
c-46 0 -130 -39 -130 -184c0 -119 73 -177 137 -177c36 0 72 16 96 34zM529 711h1c32 0 60 -32 60 -79c0 -59 -40 -91 -87 -105l-10 27c31 16 46 33 46 57c0 22 -13 32 -32 39c-6 2 -14 10 -14 25c0 24 18 36 36 36z" />
    <glyph glyph-name="Dcroat" unicode="&#x110;" horiz-adv-x="737" 
d="M54 650h275c118 0 212 -23 277 -86c50 -47 86 -121 86 -214c0 -120 -47 -209 -125 -267c-77 -58 -173 -83 -292 -83h-230v28c86 6 94 14 94 109v183h-102v41h102v152c0 96 -8 103 -85 109v28zM224 320v-188c0 -67 14 -95 97 -95c187 0 271 138 271 298
c0 108 -38 194 -115 242c-40 26 -96 40 -162 40c-44 0 -69 -5 -78 -10s-13 -15 -13 -43v-203h158v-41h-158z" />
    <glyph glyph-name="dcroat" unicode="&#x111;" horiz-adv-x="526" 
d="M517 51v-25c-22 -4 -98 -17 -155 -38v66l-63 -37c-39 -23 -64 -29 -76 -29c-80 0 -185 74 -186 214c0 135 120 247 257 247c14 0 44 -3 68 -12v96h-133v37h132v21c-1 55 -6 58 -73 64v23c52 7 115 23 152 35v-143h76v-37h-76v-417c0 -53 7 -59 45 -62zM362 85v276
c-25 35 -68 52 -102 52c-41 0 -132 -36 -132 -185c0 -121 74 -178 138 -178c36 0 71 18 96 35z" />
    <glyph glyph-name="Emacron" unicode="&#x112;" horiz-adv-x="568" 
d="M516 162l30 -4c-6 -33 -26 -127 -35 -158h-482v28c91 7 99 15 99 96v398c0 90 -8 93 -86 100v28h446c0 -25 5 -93 8 -144l-29 -5c-9 42 -19 64 -32 86c-14 21 -41 28 -113 28h-76c-31 0 -33 -2 -33 -32v-227h94c90 0 95 8 108 75h29v-192h-29c-13 72 -20 78 -107 78h-95
v-189c0 -47 6 -68 24 -81c19 -12 54 -13 104 -13c76 0 104 8 126 34c17 20 36 54 49 94zM412 716h-224v52h224v-52z" />
    <glyph glyph-name="emacron" unicode="&#x113;" horiz-adv-x="425" 
d="M379 106l16 -21c-63 -79 -132 -97 -163 -97c-123 0 -195 100 -195 213c0 69 25 130 66 175c41 46 95 73 146 73h1c83 0 150 -74 150 -152c0 -20 -5 -28 -23 -32c-17 -3 -142 -13 -261 -17c1 -136 79 -192 149 -192c40 0 78 16 114 50zM226 412h-1
c-45 0 -89 -42 -104 -123c56 0 111 1 169 3c18 0 24 6 24 20c1 52 -33 100 -88 100zM339 548h-219v55h219v-55z" />
    <glyph glyph-name="Ebreve" unicode="&#x114;" horiz-adv-x="568" 
d="M516 162l30 -4c-6 -33 -26 -127 -35 -158h-482v28c91 7 99 15 99 96v398c0 90 -8 93 -86 100v28h446c0 -25 5 -93 8 -144l-29 -5c-9 42 -19 64 -32 86c-14 21 -41 28 -113 28h-76c-31 0 -33 -2 -33 -32v-227h94c90 0 95 8 108 75h29v-192h-29c-13 72 -20 78 -107 78h-95
v-189c0 -47 6 -68 24 -81c19 -12 54 -13 104 -13c76 0 104 8 126 34c17 20 36 54 49 94zM386 813h30c-2 -79 -49 -118 -117 -118c-69 0 -116 39 -117 118h30c9 -35 34 -61 87 -61s78 26 87 61z" />
    <glyph glyph-name="ebreve" unicode="&#x115;" horiz-adv-x="425" 
d="M379 106l16 -21c-63 -79 -132 -97 -163 -97c-123 0 -195 100 -195 213c0 69 25 130 66 175c41 46 95 73 146 73h1c83 0 150 -74 150 -152c0 -20 -5 -28 -23 -32c-17 -3 -142 -13 -261 -17c1 -136 79 -192 149 -192c40 0 78 16 114 50zM226 412h-1
c-45 0 -89 -42 -104 -123c56 0 111 1 169 3c18 0 24 6 24 20c1 52 -33 100 -88 100zM313 648h30c0 -104 -52 -137 -112 -137c-58 0 -110 33 -110 137h30c7 -52 37 -79 81 -79s74 27 81 79z" />
    <glyph glyph-name="Edotaccent" unicode="&#x116;" horiz-adv-x="568" 
d="M516 162l30 -4c-6 -33 -26 -127 -35 -158h-482v28c91 7 99 15 99 96v398c0 90 -8 93 -86 100v28h446c0 -25 5 -93 8 -144l-29 -5c-9 42 -19 64 -32 86c-14 21 -41 28 -113 28h-76c-31 0 -33 -2 -33 -32v-227h94c90 0 95 8 108 75h29v-192h-29c-13 72 -20 78 -107 78h-95
v-189c0 -47 6 -68 24 -81c19 -12 54 -13 104 -13c76 0 104 8 126 34c17 20 36 54 49 94zM298 807h1c28 0 50 -23 50 -53c0 -29 -22 -51 -51 -51s-51 22 -51 51c0 30 22 53 51 53z" />
    <glyph glyph-name="edotaccent" unicode="&#x117;" horiz-adv-x="425" 
d="M379 106l16 -21c-63 -79 -132 -97 -163 -97c-123 0 -195 100 -195 213c0 69 25 130 66 175c41 46 95 73 146 73h1c83 0 150 -74 150 -152c0 -20 -5 -28 -23 -32c-17 -3 -142 -13 -261 -17c1 -136 79 -192 149 -192c40 0 78 16 114 50zM226 412h-1
c-45 0 -89 -42 -104 -123c56 0 111 1 169 3c18 0 24 6 24 20c1 52 -33 100 -88 100zM228 538c-27 0 -50 23 -50 50c0 30 23 53 51 53s49 -23 49 -53c0 -27 -21 -50 -50 -50z" />
    <glyph glyph-name="Eogonek" unicode="&#x118;" horiz-adv-x="568" 
d="M517 163l29 -5c-6 -33 -26 -127 -35 -158h-37c-49 -41 -81 -97 -81 -134c0 -33 23 -45 50 -45c13 0 30 3 47 11l8 -26l-53 -32c-9 -6 -28 -11 -37 -11c-60 0 -84 33 -84 74c0 52 51 116 110 163h-405v28c91 7 99 14 99 100v391c0 90 -8 96 -86 103v28h444
c1 -25 6 -92 10 -144l-29 -4c-10 43 -19 67 -36 87c-18 20 -42 26 -113 26h-72c-31 0 -33 -3 -33 -32v-224h97c91 0 92 5 105 71h29v-186h-29c-13 70 -17 74 -104 74h-98v-187c0 -47 6 -71 24 -84c19 -12 54 -13 104 -13c74 0 105 10 127 35c17 21 34 58 49 94z" />
    <glyph glyph-name="eogonek" unicode="&#x119;" horiz-adv-x="424" 
d="M265 -7l-1 3c-9 -3 -23 -8 -33 -8c-123 0 -195 100 -195 213c0 68 23 128 65 173c44 49 98 75 147 75h1c83 0 151 -74 151 -152c0 -20 -4 -29 -23 -33c-16 -3 -142 -12 -262 -16c2 -137 79 -193 149 -193c41 0 77 15 115 51l16 -21c-20 -24 -38 -41 -53 -53
c-50 -41 -110 -114 -110 -165c0 -29 20 -44 47 -44c13 0 34 5 51 13l8 -24l-55 -35c-9 -6 -29 -11 -37 -11c-58 0 -83 37 -83 72c0 54 46 109 102 155zM225 413h-1c-45 0 -92 -44 -104 -124c56 0 113 2 171 3c17 0 23 4 23 18c1 52 -34 103 -89 103z" />
    <glyph glyph-name="Ecaron" unicode="&#x11a;" horiz-adv-x="568" 
d="M516 162l30 -4c-6 -33 -26 -127 -35 -158h-482v28c91 7 99 15 99 96v398c0 90 -8 93 -86 100v28h446c0 -25 5 -93 8 -144l-29 -5c-9 42 -19 64 -32 86c-14 21 -41 28 -113 28h-76c-31 0 -33 -2 -33 -32v-227h94c90 0 95 8 108 75h29v-192h-29c-13 72 -20 78 -107 78h-95
v-189c0 -47 6 -68 24 -81c19 -12 54 -13 104 -13c76 0 104 8 126 34c17 20 36 54 49 94zM416 822l15 -26c-43 -32 -86 -66 -125 -107h-22c-40 41 -83 74 -126 107l15 26c41 -18 82 -38 122 -62c39 23 81 44 121 62z" />
    <glyph glyph-name="ecaron" unicode="&#x11b;" horiz-adv-x="425" 
d="M379 106l16 -21c-63 -79 -132 -97 -163 -97c-123 0 -195 100 -195 213c0 69 25 130 66 175c41 46 95 73 146 73h1c83 0 150 -74 150 -152c0 -20 -5 -28 -23 -32c-17 -3 -142 -13 -261 -17c1 -136 79 -192 149 -192c40 0 78 16 114 50zM226 412h-1
c-45 0 -89 -42 -104 -123c56 0 111 1 169 3c18 0 24 6 24 20c1 52 -33 100 -88 100zM318 675l24 -17c-39 -54 -71 -108 -100 -163h-25c-30 56 -62 109 -100 163l25 17c33 -32 62 -64 87 -97c27 32 55 65 89 97z" />
    <glyph glyph-name="Gcircumflex" unicode="&#x11c;" horiz-adv-x="715" 
d="M692 301v-27c-60 -9 -64 -14 -64 -73v-85c0 -35 1 -67 7 -94c-62 -15 -144 -37 -224 -37c-220 0 -367 137 -367 335c0 232 186 345 382 345c83 0 160 -22 192 -29c3 -35 8 -90 16 -156l-28 -6c-24 122 -100 155 -195 155c-153 0 -265 -112 -265 -297
c0 -144 85 -312 278 -312c34 0 65 7 87 18c20 11 32 23 32 65v85c0 72 -7 78 -105 86v27h254zM537 716l-16 -25c-39 17 -81 39 -121 62c-39 -22 -80 -45 -119 -62l-17 25c43 33 88 67 126 107h22c39 -41 82 -74 125 -107z" />
    <glyph glyph-name="gcircumflex" unicode="&#x11d;" horiz-adv-x="468" 
d="M462 438l6 -8c-9 -16 -29 -43 -45 -51l-57 3c19 -22 30 -53 30 -89c0 -108 -90 -160 -175 -160c-17 0 -35 3 -51 5c-14 -9 -30 -27 -30 -41c0 -20 18 -39 63 -39c36 0 72 1 105 1c62 0 144 -20 144 -118c0 -101 -117 -198 -250 -198c-111 0 -172 65 -173 122
c0 22 9 41 24 56c20 20 59 52 83 70c-36 11 -61 34 -74 55c-9 15 -12 32 -11 42c40 15 72 41 88 61c-45 19 -88 66 -88 134c0 114 102 166 178 166h1c34 0 67 -9 96 -25c49 2 100 8 136 14zM220 419h-1c-43 0 -82 -42 -82 -120s38 -134 94 -134c44 1 83 40 83 119
s-37 135 -94 135zM242 -11h-1c-47 0 -69 -6 -87 -22c-26 -21 -46 -49 -46 -78c0 -54 58 -95 132 -95c95 0 144 49 144 111c0 34 -17 59 -46 71c-25 10 -54 13 -96 13zM336 508l-24 -17c-32 30 -62 64 -88 97c-26 -33 -55 -66 -88 -97l-24 17c38 54 71 108 100 163h25
c29 -55 61 -109 99 -163z" />
    <glyph glyph-name="Gbreve" unicode="&#x11e;" horiz-adv-x="715" 
d="M692 301v-27c-60 -9 -64 -14 -64 -73v-85c0 -35 1 -67 7 -94c-62 -15 -144 -37 -224 -37c-220 0 -367 137 -367 335c0 232 186 345 382 345c83 0 160 -22 192 -29c3 -35 8 -90 16 -156l-28 -6c-24 122 -100 155 -195 155c-153 0 -265 -112 -265 -297
c0 -144 85 -312 278 -312c34 0 65 7 87 18c20 11 32 23 32 65v85c0 72 -7 78 -105 86v27h254zM479 821h30c-2 -79 -49 -118 -117 -118c-69 0 -116 39 -117 118h30c9 -35 34 -61 87 -61s78 26 87 61z" />
    <glyph glyph-name="gbreve" unicode="&#x11f;" horiz-adv-x="468" 
d="M462 438l6 -8c-9 -16 -29 -43 -45 -51l-57 3c19 -22 30 -53 30 -89c0 -108 -90 -160 -175 -160c-17 0 -35 3 -51 5c-14 -9 -30 -27 -30 -41c0 -20 18 -39 63 -39c36 0 72 1 105 1c62 0 144 -20 144 -118c0 -101 -117 -198 -250 -198c-111 0 -172 65 -173 122
c0 22 9 41 24 56c20 20 59 52 83 70c-36 11 -61 34 -74 55c-9 15 -12 32 -11 42c40 15 72 41 88 61c-45 19 -88 66 -88 134c0 114 102 166 178 166h1c34 0 67 -9 96 -25c49 2 100 8 136 14zM220 419h-1c-43 0 -82 -42 -82 -120s38 -134 94 -134c44 1 83 40 83 119
s-37 135 -94 135zM242 -11h-1c-47 0 -69 -6 -87 -22c-26 -21 -46 -49 -46 -78c0 -54 58 -95 132 -95c95 0 144 49 144 111c0 34 -17 59 -46 71c-25 10 -54 13 -96 13zM305 648h30c0 -104 -52 -137 -112 -137c-58 0 -110 33 -110 137h30c7 -52 37 -79 81 -79s74 27 81 79z
" />
    <glyph glyph-name="Gdotaccent" unicode="&#x120;" horiz-adv-x="715" 
d="M692 301v-27c-60 -9 -64 -14 -64 -73v-85c0 -35 1 -67 7 -94c-62 -15 -144 -37 -224 -37c-220 0 -367 137 -367 335c0 232 186 345 382 345c83 0 160 -22 192 -29c3 -35 8 -90 16 -156l-28 -6c-24 122 -100 155 -195 155c-153 0 -265 -112 -265 -297
c0 -144 85 -312 278 -312c34 0 65 7 87 18c20 11 32 23 32 65v85c0 72 -7 78 -105 86v27h254zM399 809h1c28 0 50 -23 50 -53c0 -29 -22 -51 -51 -51s-51 22 -51 51c0 30 22 53 51 53z" />
    <glyph glyph-name="gdotaccent" unicode="&#x121;" horiz-adv-x="468" 
d="M462 438l6 -8c-9 -16 -29 -43 -45 -51l-57 3c19 -22 30 -53 30 -89c0 -108 -90 -160 -175 -160c-17 0 -35 3 -51 5c-14 -9 -30 -27 -30 -41c0 -20 18 -39 63 -39c36 0 72 1 105 1c62 0 144 -20 144 -118c0 -101 -117 -198 -250 -198c-111 0 -172 65 -173 122
c0 22 9 41 24 56c20 20 59 52 83 70c-36 11 -61 34 -74 55c-9 15 -12 32 -11 42c40 15 72 41 88 61c-45 19 -88 66 -88 134c0 114 102 166 178 166h1c34 0 67 -9 96 -25c49 2 100 8 136 14zM220 419h-1c-43 0 -82 -42 -82 -120s38 -134 94 -134c44 1 83 40 83 119
s-37 135 -94 135zM242 -11h-1c-47 0 -69 -6 -87 -22c-26 -21 -46 -49 -46 -78c0 -54 58 -95 132 -95c95 0 144 49 144 111c0 34 -17 59 -46 71c-25 10 -54 13 -96 13zM224 538c-27 0 -50 23 -50 50c0 30 23 53 51 53s49 -23 49 -53c0 -27 -21 -50 -50 -50z" />
    <glyph glyph-name="Gcommaaccent" unicode="&#x122;" horiz-adv-x="715" 
d="M692 301v-27c-60 -9 -64 -14 -64 -73v-85c0 -35 1 -67 7 -94c-62 -15 -144 -37 -224 -37c-220 0 -367 137 -367 335c0 232 186 345 382 345c83 0 160 -22 192 -29c3 -35 8 -90 16 -156l-28 -6c-24 122 -100 155 -195 155c-153 0 -265 -112 -265 -297
c0 -144 85 -312 278 -312c34 0 65 7 87 18c20 11 32 23 32 65v85c0 72 -7 78 -105 86v27h254zM394 -47h1c37 0 73 -31 73 -78c0 -60 -49 -92 -106 -106l-10 27c38 16 61 32 61 56c0 22 -21 35 -45 41c-8 2 -15 9 -15 24c0 24 21 36 41 36z" />
    <glyph glyph-name="gcommaaccent" unicode="&#x123;" horiz-adv-x="468" 
d="M462 438l6 -8c-9 -16 -29 -43 -45 -51l-57 3c19 -22 30 -53 30 -89c0 -108 -90 -160 -175 -160c-17 0 -35 3 -51 5c-14 -9 -30 -27 -30 -41c0 -20 18 -39 63 -39c36 0 72 1 105 1c62 0 144 -20 144 -118c0 -101 -117 -198 -250 -198c-111 0 -172 65 -173 122
c0 22 9 41 24 56c20 20 59 52 83 70c-36 11 -61 34 -74 55c-9 15 -12 32 -11 42c40 15 72 41 88 61c-45 19 -88 66 -88 134c0 114 102 166 178 166h1c34 0 67 -9 96 -25c49 2 100 8 136 14zM220 419h-1c-43 0 -82 -42 -82 -120s38 -134 94 -134c44 1 83 40 83 119
s-37 135 -94 135zM242 -11h-1c-47 0 -69 -6 -87 -22c-26 -21 -46 -49 -46 -78c0 -54 58 -95 132 -95c95 0 144 49 144 111c0 34 -17 59 -46 71c-25 10 -54 13 -96 13zM237 518h-1c-38 0 -74 32 -74 80c0 59 50 91 108 106l8 -28c-38 -16 -60 -33 -60 -57
c0 -21 20 -34 46 -40c7 -2 14 -9 14 -24c0 -24 -21 -37 -41 -37z" />
    <glyph glyph-name="Hcircumflex" unicode="&#x124;" horiz-adv-x="766" 
d="M729 650v-28c-82 -7 -90 -12 -90 -95v-404c0 -84 8 -89 89 -95v-28h-268v28c85 6 94 11 94 95v200h-341v-200c0 -83 8 -89 90 -95v-28h-263v28c80 6 88 11 88 95v404c0 84 -8 88 -90 95v28h259v-28c-76 -7 -84 -12 -84 -95v-162h341v162c0 83 -8 88 -86 95v28h261z
M519 709l-16 -25c-39 17 -81 39 -121 62c-39 -22 -80 -45 -119 -62l-17 25c43 33 88 67 126 107h22c39 -41 82 -74 125 -107z" />
    <glyph glyph-name="hcircumflex" unicode="&#x125;" horiz-adv-x="534" 
d="M513 0h-211v26c58 6 66 12 66 77v166c0 82 -31 123 -98 123c-38 0 -76 -19 -104 -51v-238c0 -64 5 -71 64 -77v-26h-212l1 26c60 5 68 11 68 77v477c0 63 -2 68 -68 74v23c48 7 108 23 147 35v-336c35 36 89 73 143 73c81 1 138 -51 138 -171v-175c0 -66 7 -72 66 -77
v-26zM253 747l-16 -25c-39 17 -81 39 -121 62c-39 -22 -80 -45 -119 -62l-17 25c43 33 88 67 126 107h22c39 -41 82 -74 125 -107z" />
    <glyph glyph-name="Hbar" unicode="&#x126;" horiz-adv-x="766" 
d="M727 472h-88v-343c0 -87 8 -95 89 -101v-28h-268v28c85 6 94 14 94 101v181h-341v-181c0 -87 8 -95 90 -101v-28h-263v28c80 6 88 13 88 101v343h-88v36h88v18c0 85 -8 90 -90 96v28h259v-28c-76 -6 -84 -11 -84 -96v-18h341v18c0 85 -8 89 -86 96v28h261v-28
c-82 -7 -90 -12 -90 -96v-18h88v-36zM554 352v120h-341v-120h341z" />
    <glyph glyph-name="hbar" unicode="&#x127;" horiz-adv-x="533" 
d="M513 0h-210v26c58 5 65 13 65 78v166c0 81 -30 122 -97 122c-39 0 -78 -18 -105 -52v-235c0 -66 7 -74 64 -79v-26h-210v26c58 5 67 13 67 80v430h-69v36h69v52c0 32 -5 36 -45 41v24c40 5 87 17 124 28v-145h155v-36h-155v-160c36 39 89 72 144 73
c82 3 137 -52 137 -165v-180c0 -66 8 -73 66 -78v-26z" />
    <glyph glyph-name="Itilde" unicode="&#x128;" horiz-adv-x="341" 
d="M303 0h-265v28c82 6 90 12 90 97v400c0 85 -8 91 -90 97v28h265v-28c-82 -6 -90 -12 -90 -97v-400c0 -86 8 -91 90 -97v-28zM119 788h1c17 0 31 -5 60 -19c22 -10 38 -16 55 -16c19 0 33 15 46 43l25 -14c-22 -67 -55 -85 -82 -85c-22 0 -43 9 -70 22
c-16 8 -27 14 -44 14c-19 0 -33 -16 -48 -44l-24 17c25 63 56 82 81 82z" />
    <glyph glyph-name="itilde" unicode="&#x129;" horiz-adv-x="268" 
d="M252 0h-219v26c63 6 70 13 70 82v200c0 67 -5 71 -63 80v24c50 8 98 21 142 39v-343c0 -69 6 -76 70 -82v-26zM31 521l-26 16c22 68 54 90 80 90c16 0 29 -4 58 -19c22 -11 37 -19 53 -19c18 0 31 16 44 45l25 -14c-22 -73 -54 -90 -79 -90c-21 0 -41 10 -66 24
c-18 10 -30 15 -46 15s-30 -16 -43 -48z" />
    <glyph glyph-name="Imacron" unicode="&#x12a;" horiz-adv-x="341" 
d="M303 0h-265v28c82 6 90 12 90 97v400c0 85 -8 91 -90 97v28h265v-28c-82 -6 -90 -12 -90 -97v-400c0 -86 8 -91 90 -97v-28zM283 716h-224v52h224v-52z" />
    <glyph glyph-name="imacron" unicode="&#x12b;" horiz-adv-x="268" 
d="M252 0h-219v26c63 6 70 13 70 82v200c0 67 -5 71 -63 80v24c50 8 98 21 142 39v-343c0 -69 6 -76 70 -82v-26zM240 548h-219v55h219v-55z" />
    <glyph glyph-name="Ibreve" unicode="&#x12c;" horiz-adv-x="341" 
d="M303 0h-265v28c82 6 90 12 90 97v400c0 85 -8 91 -90 97v28h265v-28c-82 -6 -90 -12 -90 -97v-400c0 -86 8 -91 90 -97v-28zM258 813h30c-2 -79 -49 -118 -117 -118c-69 0 -116 39 -117 118h30c9 -35 34 -61 87 -61s78 26 87 61z" />
    <glyph glyph-name="ibreve" unicode="&#x12d;" horiz-adv-x="268" 
d="M252 0h-219v26c63 6 70 13 70 82v200c0 67 -5 71 -63 80v24c50 8 98 21 142 39v-343c0 -69 6 -76 70 -82v-26zM211 648h30c0 -104 -52 -137 -112 -137c-58 0 -110 33 -110 137h30c7 -52 37 -79 81 -79s74 27 81 79z" />
    <glyph glyph-name="Iogonek" unicode="&#x12e;" horiz-adv-x="341" 
d="M303 0h-114c-20 -42 -35 -89 -35 -124c0 -36 25 -56 59 -56c13 0 34 6 49 13l8 -25l-56 -34c-10 -6 -30 -11 -39 -11c-63 0 -88 40 -88 81c0 53 38 108 68 156h-117v27c82 6 90 13 90 100v395c0 87 -8 95 -90 101v27h265v-27c-82 -6 -90 -14 -90 -101v-395
c0 -86 8 -94 90 -100v-27z" />
    <glyph glyph-name="iogonek" unicode="&#x12f;" horiz-adv-x="268" 
d="M252 0h-93c-21 -42 -35 -82 -35 -119c0 -40 24 -57 56 -57c14 0 31 5 45 10l8 -25l-51 -30c-9 -6 -28 -12 -36 -12c-57 0 -86 31 -86 81c0 49 37 109 66 152h-94v26c63 6 70 12 70 81v201c0 67 -5 71 -63 80v24c50 8 98 21 142 39v-344c0 -69 7 -75 71 -81v-26zM136 538
c-27 0 -50 23 -50 50c0 30 23 53 51 53s49 -23 49 -53c0 -27 -21 -50 -50 -50z" />
    <glyph glyph-name="Idotaccent" unicode="&#x130;" horiz-adv-x="341" 
d="M303 0h-265v28c82 6 90 12 90 97v400c0 85 -8 91 -90 97v28h265v-28c-82 -6 -90 -12 -90 -97v-400c0 -86 8 -91 90 -97v-28zM171 807h1c28 0 50 -23 50 -53c0 -29 -22 -51 -51 -51s-51 22 -51 51c0 30 22 53 51 53z" />
    <glyph glyph-name="dotlessi" unicode="&#x131;" horiz-adv-x="268" 
d="M252 0h-219v26c63 6 70 13 70 82v200c0 67 -5 71 -63 80v24c50 8 98 21 142 39v-343c0 -69 6 -76 70 -82v-26z" />
    <glyph glyph-name="IJ" unicode="&#x132;" horiz-adv-x="669" 
d="M303 0h-265v28c82 6 90 12 90 97v400c0 85 -8 91 -90 97v28h265v-28c-82 -6 -90 -12 -90 -97v-400c0 -86 8 -91 90 -97v-28zM644 650v-28c-77 -6 -85 -13 -85 -97v-374c0 -128 -20 -197 -86 -258c-34 -31 -68 -50 -93 -58l-13 28c56 28 86 74 96 131c9 48 11 106 11 190
v341c0 84 -8 91 -89 97v28h259z" />
    <glyph glyph-name="ij" unicode="&#x133;" horiz-adv-x="522" 
d="M135 536c-26 0 -50 24 -50 51c0 30 24 52 51 52c28 0 50 -22 50 -52c0 -27 -22 -51 -51 -51zM252 0h-220v26c63 6 70 12 70 80v207c0 61 -3 66 -63 75v24c51 8 98 21 142 39v-345c0 -68 7 -74 71 -80v-26zM391 536c-27 0 -50 24 -50 51c0 30 23 52 51 52
c27 0 49 -22 49 -52c0 -27 -22 -51 -50 -51zM290 389v23c53 8 103 21 146 39v-339c0 -66 -4 -109 -23 -162c-34 -100 -98 -176 -121 -196c-9 -8 -18 -11 -25 -11c-14 0 -36 20 -36 44c0 12 6 20 21 23c32 8 59 20 72 38c12 15 20 37 25 72c6 43 9 102 9 193v196
c0 67 -6 71 -68 80z" />
    <glyph glyph-name="Jcircumflex" unicode="&#x134;" horiz-adv-x="329" 
d="M303 650v-28c-77 -6 -85 -13 -85 -97v-374c0 -128 -20 -197 -86 -258c-34 -31 -68 -50 -93 -58l-13 28c56 28 86 74 96 131c9 48 11 106 11 190v341c0 84 -8 91 -89 97v28h259zM309 709l-16 -25c-39 17 -81 39 -121 62c-39 -22 -80 -45 -119 -62l-17 25
c43 33 88 67 126 107h22c39 -41 82 -74 125 -107z" />
    <glyph glyph-name="jcircumflex" unicode="&#x135;" horiz-adv-x="258" 
d="M33 392v20c53 8 106 21 149 39v-340c0 -66 -4 -108 -23 -162c-35 -100 -98 -176 -121 -196c-10 -7 -18 -11 -26 -11c-14 0 -34 18 -34 42c0 13 6 20 20 23c33 8 58 20 72 39c12 15 19 38 24 73c6 42 9 103 9 194v196c0 70 -6 74 -70 83zM240 508l-24 -17
c-32 30 -62 64 -88 97c-26 -33 -55 -66 -88 -97l-24 17c38 54 71 108 100 163h25c29 -55 61 -109 99 -163z" />
    <glyph glyph-name="Kcommaaccent" unicode="&#x136;" horiz-adv-x="673" 
d="M667 0h-154l-248 291c-23 27 -37 31 -54 28v-190c0 -88 10 -95 92 -101v-28h-260v28c76 6 85 13 85 101v391c0 91 -9 96 -88 102v28h258v-28c-77 -6 -87 -13 -87 -102v-175c22 6 42 20 70 46c55 53 123 122 168 177c29 36 29 46 -17 51l-22 3v28h240v-28
c-76 -7 -99 -17 -163 -75c-38 -35 -109 -106 -177 -175c76 -94 185 -218 235 -272c53 -57 73 -66 122 -72v-28zM362 -23h1c37 0 73 -31 73 -78c0 -60 -49 -92 -106 -106l-10 27c38 16 61 32 61 56c0 22 -21 35 -45 41c-8 2 -15 9 -15 24c0 24 21 36 41 36z" />
    <glyph glyph-name="kcommaaccent" unicode="&#x137;" horiz-adv-x="496" 
d="M513 0l-137 -2c-46 51 -109 131 -164 198c-13 16 -22 22 -31 22c-5 0 -9 -1 -16 -3v-111c0 -66 9 -72 73 -78v-26h-224v26c67 6 73 14 73 78v473c0 66 -5 71 -66 76v24c48 5 105 22 144 35v-471c30 6 48 19 63 35c22 22 52 61 71 88c20 31 17 39 -30 44v26l204 9v-25
c-69 -12 -90 -22 -129 -59c-25 -25 -43 -45 -86 -95c20 -30 121 -148 155 -183c36 -38 62 -53 100 -55v-26zM263 -33h1c37 0 73 -31 73 -78c0 -60 -49 -92 -106 -106l-10 27c38 16 61 32 61 56c0 22 -21 35 -45 41c-8 2 -15 9 -15 24c0 24 21 36 41 36z" />
    <glyph glyph-name="kgreenlandic" unicode="&#x138;" horiz-adv-x="525" 
d="M520 0h-136c-19 21 -111 134 -154 190c-18 23 -29 22 -45 15v-98c0 -69 7 -76 70 -81v-26h-218v26c62 5 70 11 70 81v215c0 66 -7 74 -68 80v25c55 4 100 13 146 25v-218c16 3 34 11 50 25c46 41 84 82 103 107c17 22 16 38 -12 42l-17 3v26h197v-26
c-48 -5 -73 -12 -116 -49c-27 -22 -64 -57 -113 -106c55 -75 117 -145 151 -179c37 -37 52 -46 92 -51v-26z" />
    <glyph glyph-name="Lacute" unicode="&#x139;" horiz-adv-x="538" 
d="M495 163l30 -6c-6 -31 -27 -126 -36 -157h-453v28c84 6 92 13 92 98v400c0 85 -7 90 -88 96v28h261v-28c-79 -6 -88 -11 -88 -96v-395c0 -54 5 -74 23 -84c20 -11 54 -13 96 -13c55 0 89 5 112 31c17 20 36 52 51 98zM319 756l-2 -8l-186 -64l-12 25l157 102
c12 -2 40 -41 43 -55z" />
    <glyph glyph-name="lacute" unicode="&#x13a;" horiz-adv-x="253" 
d="M238 0h-223v26c63 6 72 12 72 78v473c0 68 -6 71 -69 76v24c52 6 114 23 148 35v-608c0 -66 8 -72 72 -78v-26zM251 802l-2 -8l-186 -64l-12 25l157 102c12 -2 40 -41 43 -55z" />
    <glyph glyph-name="Lcommaaccent" unicode="&#x13b;" horiz-adv-x="538" 
d="M495 163l30 -6c-6 -31 -27 -126 -36 -157h-453v28c84 6 92 13 92 98v400c0 85 -7 90 -88 96v28h261v-28c-79 -6 -88 -11 -88 -96v-395c0 -54 5 -74 23 -84c20 -11 54 -13 96 -13c55 0 89 5 112 31c17 20 36 52 51 98zM292 -35h1c37 0 73 -31 73 -78
c0 -60 -49 -92 -106 -106l-10 27c38 16 61 32 61 56c0 22 -21 35 -45 41c-8 2 -15 9 -15 24c0 24 21 36 41 36z" />
    <glyph glyph-name="lcommaaccent" unicode="&#x13c;" horiz-adv-x="253" 
d="M238 0h-223v26c63 6 72 12 72 78v473c0 68 -6 71 -69 76v24c52 6 114 23 148 35v-608c0 -66 8 -72 72 -78v-26zM115 -35h1c37 0 73 -31 73 -78c0 -60 -49 -92 -106 -106l-10 27c38 16 61 32 61 56c0 22 -21 35 -45 41c-8 2 -15 9 -15 24c0 24 21 36 41 36z" />
    <glyph glyph-name="Lcaron" unicode="&#x13d;" horiz-adv-x="538" 
d="M495 163l30 -6c-6 -31 -27 -126 -36 -157h-453v28c84 6 92 13 92 98v400c0 85 -7 90 -88 96v28h261v-28c-79 -6 -88 -11 -88 -96v-395c0 -54 5 -74 23 -84c20 -11 54 -13 96 -13c55 0 89 5 112 31c17 20 36 52 51 98zM384 655h1c32 0 60 -32 60 -79
c0 -59 -40 -91 -87 -105l-10 27c31 16 46 33 46 57c0 22 -13 32 -32 39c-6 2 -14 10 -14 25c0 24 18 36 36 36z" />
    <glyph glyph-name="lcaron" unicode="&#x13e;" horiz-adv-x="253" 
d="M238 0h-223v26c63 6 72 12 72 78v473c0 68 -6 71 -69 76v24c52 6 114 23 148 35v-608c0 -66 8 -72 72 -78v-26zM247 711h1c32 0 60 -32 60 -79c0 -59 -40 -91 -87 -105l-10 27c31 16 46 33 46 57c0 22 -13 32 -32 39c-6 2 -14 10 -14 25c0 24 18 36 36 36z" />
    <glyph glyph-name="Ldot" unicode="&#x13f;" horiz-adv-x="538" 
d="M495 163l30 -6c-6 -31 -27 -126 -36 -157h-453v28c84 6 92 13 92 98v400c0 85 -7 90 -88 96v28h261v-28c-79 -6 -88 -11 -88 -96v-395c0 -54 5 -74 23 -84c20 -11 54 -13 96 -13c55 0 89 5 112 31c17 20 36 52 51 98zM361 406h1c28 0 50 -23 50 -53
c0 -29 -22 -51 -51 -51s-51 22 -51 51c0 30 22 53 51 53z" />
    <glyph glyph-name="ldot" unicode="&#x140;" horiz-adv-x="271" 
d="M262 407h1c27 0 48 -22 48 -51c0 -27 -21 -50 -49 -50c-26 0 -49 22 -49 50c0 29 23 51 49 51zM238 0h-223v26c63 6 72 12 72 78v473c0 68 -6 71 -69 76v24c52 6 114 23 148 35v-608c0 -66 8 -72 72 -78v-26z" />
    <glyph glyph-name="Lslash" unicode="&#x141;" horiz-adv-x="550" 
d="M506 165l31 -4c-6 -29 -27 -129 -36 -161h-455v28c86 6 94 14 94 103v146l-98 -73v45l98 74v198c0 86 -8 95 -88 101v28h261v-28c-80 -6 -88 -15 -88 -101v-138l126 95v-47l-126 -95v-195c0 -58 4 -83 23 -94s54 -13 95 -13c58 0 90 5 112 31c18 20 35 54 51 100z" />
    <glyph glyph-name="lslash" unicode="&#x142;" horiz-adv-x="273" 
d="M270 462l-90 -77v-277c0 -70 9 -76 74 -82v-26h-227v26c65 6 74 12 74 82v214l-74 -61v46l74 60v216c0 62 -6 66 -70 73v24c50 6 116 22 149 35v-285l90 78v-46z" />
    <glyph glyph-name="Nacute" unicode="&#x143;" horiz-adv-x="743" 
d="M719 650v-28c-56 -3 -80 -16 -84 -60c-4 -30 -6 -75 -6 -168v-403h-31l-426 524h-2v-251c0 -92 3 -140 6 -169c5 -51 28 -63 96 -67v-28h-237v28c58 3 83 16 88 65c3 31 6 79 6 171v220c0 73 -2 77 -20 101c-20 25 -42 33 -89 37v28h148l417 -502h3v246
c0 92 -4 138 -7 166c-5 45 -29 58 -98 62v28h236zM509 756l-2 -8l-186 -64l-12 25l157 102c12 -2 40 -41 43 -55z" />
    <glyph glyph-name="nacute" unicode="&#x144;" horiz-adv-x="547" 
d="M523 0h-208v26c59 6 66 14 66 83v167c0 69 -24 114 -91 114c-40 0 -79 -25 -109 -51v-235c0 -68 6 -72 65 -78v-26h-217v26c68 7 73 12 73 78v207c0 64 -6 67 -60 77v23c48 9 95 21 139 41v-80c20 15 42 30 67 47c28 18 54 30 83 30c79 0 129 -55 129 -152v-193
c0 -68 5 -72 63 -78v-26zM266 493l-26 13c19 42 60 142 67 159c10 4 69 12 81 9l3 -9z" />
    <glyph glyph-name="Ncommaaccent" unicode="&#x145;" horiz-adv-x="743" 
d="M719 650v-28c-56 -3 -80 -16 -84 -60c-4 -30 -6 -75 -6 -168v-403h-31l-426 524h-2v-251c0 -92 3 -140 6 -169c5 -51 28 -63 96 -67v-28h-237v28c58 3 83 16 88 65c3 31 6 79 6 171v220c0 73 -2 77 -20 101c-20 25 -42 33 -89 37v28h148l417 -502h3v246
c0 92 -4 138 -7 166c-5 45 -29 58 -98 62v28h236zM384 -14h1c37 0 73 -31 73 -78c0 -60 -49 -92 -106 -106l-10 27c38 16 61 32 61 56c0 22 -21 35 -45 41c-8 2 -15 9 -15 24c0 24 21 36 41 36z" />
    <glyph glyph-name="ncommaaccent" unicode="&#x146;" horiz-adv-x="547" 
d="M523 0h-208v26c59 6 66 14 66 83v167c0 69 -24 114 -91 114c-40 0 -79 -25 -109 -51v-235c0 -68 6 -72 65 -78v-26h-217v26c68 7 73 12 73 78v207c0 64 -6 67 -60 77v23c48 9 95 21 139 41v-80c20 15 42 30 67 47c28 18 54 30 83 30c79 0 129 -55 129 -152v-193
c0 -68 5 -72 63 -78v-26zM282 -44h1c37 0 73 -31 73 -78c0 -60 -49 -92 -106 -106l-10 27c38 16 61 32 61 56c0 22 -21 35 -45 41c-8 2 -15 9 -15 24c0 24 21 36 41 36z" />
    <glyph glyph-name="Ncaron" unicode="&#x147;" horiz-adv-x="743" 
d="M719 650v-28c-56 -3 -80 -16 -84 -60c-4 -30 -6 -75 -6 -168v-403h-31l-426 524h-2v-251c0 -92 3 -140 6 -169c5 -51 28 -63 96 -67v-28h-237v28c58 3 83 16 88 65c3 31 6 79 6 171v220c0 73 -2 77 -20 101c-20 25 -42 33 -89 37v28h148l417 -502h3v246
c0 92 -4 138 -7 166c-5 45 -29 58 -98 62v28h236zM495 806l15 -26c-43 -32 -86 -66 -125 -107h-22c-40 41 -83 74 -126 107l15 26c41 -18 82 -38 122 -62c39 23 81 44 121 62z" />
    <glyph glyph-name="ncaron" unicode="&#x148;" horiz-adv-x="547" 
d="M523 0h-208v26c59 6 66 14 66 83v167c0 69 -24 114 -91 114c-40 0 -79 -25 -109 -51v-235c0 -68 6 -72 65 -78v-26h-217v26c68 7 73 12 73 78v207c0 64 -6 67 -60 77v23c48 9 95 21 139 41v-80c20 15 42 30 67 47c28 18 54 30 83 30c79 0 129 -55 129 -152v-193
c0 -68 5 -72 63 -78v-26zM361 675l24 -17c-39 -54 -71 -108 -100 -163h-25c-30 56 -62 109 -100 163l25 17c33 -32 62 -64 87 -97c27 32 55 65 89 97z" />
    <glyph glyph-name="napostrophe" unicode="&#x149;" horiz-adv-x="547" 
d="M54 712h1c40 0 88 -34 88 -94c0 -65 -65 -102 -122 -116l-8 23c42 17 69 38 69 76c0 32 -29 51 -57 56c-6 1 -12 7 -12 18c0 25 25 37 41 37zM523 0h-208v26c59 6 66 14 66 83v167c0 69 -24 114 -91 114c-40 0 -79 -25 -109 -51v-235c0 -68 6 -72 65 -78v-26h-217v26
c68 7 73 12 73 78v207c0 64 -6 67 -60 77v23c48 9 95 21 139 41v-80c20 15 42 30 67 47c28 18 54 30 83 30c79 0 129 -55 129 -152v-193c0 -68 5 -72 63 -78v-26z" />
    <glyph glyph-name="Eng" unicode="&#x14a;" horiz-adv-x="736" 
d="M712 650v-28c-56 -3 -79 -16 -84 -59c-3 -31 -6 -81 -6 -174l1 -287c0 -116 -6 -195 -37 -249c-24 -44 -56 -65 -92 -65c-23 0 -45 25 -45 52c0 10 2 20 14 20c9 0 19 -5 39 -5c34 0 75 30 77 154l-406 503h-2v-244c0 -91 3 -144 6 -173c6 -51 28 -63 96 -67v-28h-238v28
c58 3 82 16 87 65c4 31 7 84 7 175v211c0 73 -2 82 -20 106c-20 25 -42 33 -89 37v28h148l410 -499h3v238c0 93 -4 143 -7 171c-6 46 -29 58 -99 62v28h237z" />
    <glyph glyph-name="eng" unicode="&#x14b;" horiz-adv-x="541" 
d="M180 452v-80c20 15 43 31 68 47c28 19 53 30 82 30c79 0 129 -55 129 -151v-178c0 -52 -4 -101 -16 -145c-12 -41 -29 -74 -54 -105c-31 -41 -65 -61 -90 -61c-19 0 -40 25 -40 48c0 10 3 20 13 20c12 0 31 -10 50 -10c15 0 28 4 38 19c14 24 20 59 20 146v242
c0 68 -24 115 -90 115c-40 0 -80 -25 -110 -52v-232c0 -66 5 -73 68 -79v-26h-220v26c67 6 73 12 73 79v204c0 65 -3 69 -61 80v22c48 9 97 22 140 41z" />
    <glyph glyph-name="Omacron" unicode="&#x14c;" horiz-adv-x="747" 
d="M380 665h1c169 0 322 -132 322 -332c0 -216 -151 -348 -334 -348c-181 0 -325 141 -325 333c0 180 126 347 336 347zM360 629h-1c-111 0 -213 -96 -213 -283c0 -188 103 -325 244 -325c111 0 211 93 211 285c0 211 -110 323 -241 323zM487 717h-224v52h224v-52z" />
    <glyph glyph-name="omacron" unicode="&#x14d;" horiz-adv-x="510" 
d="M256 449h1c123 0 216 -99 216 -223c0 -161 -118 -238 -217 -238c-137 0 -219 110 -219 221c0 165 128 240 219 240zM246 416h-1c-61 0 -115 -62 -115 -175c0 -126 55 -220 137 -220c62 0 113 46 113 183c0 117 -47 212 -134 212zM365 548h-219v55h219v-55z" />
    <glyph glyph-name="Obreve" unicode="&#x14e;" horiz-adv-x="747" 
d="M380 665h1c169 0 322 -132 322 -332c0 -216 -151 -348 -334 -348c-181 0 -325 141 -325 333c0 180 126 347 336 347zM360 629h-1c-111 0 -213 -96 -213 -283c0 -188 103 -325 244 -325c111 0 211 93 211 285c0 211 -110 323 -241 323zM454 819h30
c-2 -79 -49 -118 -117 -118c-69 0 -116 39 -117 118h30c9 -35 34 -61 87 -61s78 26 87 61z" />
    <glyph glyph-name="obreve" unicode="&#x14f;" horiz-adv-x="510" 
d="M256 449h1c123 0 216 -99 216 -223c0 -161 -118 -238 -217 -238c-137 0 -219 110 -219 221c0 165 128 240 219 240zM246 416h-1c-61 0 -115 -62 -115 -175c0 -126 55 -220 137 -220c62 0 113 46 113 183c0 117 -47 212 -134 212zM330 648h30c0 -104 -52 -137 -112 -137
c-58 0 -110 33 -110 137h30c7 -52 37 -79 81 -79s74 27 81 79z" />
    <glyph glyph-name="Ohungarumlaut" unicode="&#x150;" horiz-adv-x="747" 
d="M380 665h1c169 0 322 -132 322 -332c0 -216 -151 -348 -334 -348c-181 0 -325 141 -325 333c0 180 126 347 336 347zM360 629h-1c-111 0 -213 -96 -213 -283c0 -188 103 -325 244 -325c111 0 211 93 211 285c0 211 -110 323 -241 323zM549 797l-98 -112l-25 14l50 123
c20 2 59 -7 72 -13zM407 797l-98 -112l-25 14c18 43 36 89 51 123c19 2 59 -7 71 -14z" />
    <glyph glyph-name="ohungarumlaut" unicode="&#x151;" horiz-adv-x="510" 
d="M256 449h1c123 0 216 -99 216 -223c0 -161 -118 -238 -217 -238c-137 0 -219 110 -219 221c0 165 128 240 219 240zM246 416h-1c-61 0 -115 -62 -115 -175c0 -126 55 -220 137 -220c62 0 113 46 113 183c0 117 -47 212 -134 212zM184 494l-28 9c14 49 42 146 45 161
c9 4 64 14 77 12l3 -10zM322 494l-28 9c14 50 42 146 45 161c9 4 64 14 77 12l3 -10z" />
    <glyph glyph-name="OE" unicode="&#x152;" horiz-adv-x="973" 
d="M921 161l30 -4c-6 -32 -26 -124 -36 -157h-306c-39 0 -68 -1 -102 -4c-43 -4 -70 -7 -101 -7c-245 0 -361 158 -361 328c0 209 168 343 382 344c36 0 62 -4 96 -6c34 -3 62 -5 93 -5h275c1 -25 5 -93 10 -142l-30 -3c-10 43 -18 64 -31 83c-14 20 -40 27 -112 27h-78
c-29 0 -32 -2 -32 -31v-227h99c86 0 90 10 101 73h30v-190h-30c-13 68 -16 77 -101 77h-99v-184c0 -52 6 -73 24 -85c20 -13 56 -13 104 -13c76 0 103 7 126 32c19 21 34 54 49 94zM534 110v436c0 36 -4 51 -18 59c-20 12 -54 21 -100 21c-169 0 -268 -116 -269 -296
c0 -156 74 -306 270 -306c32 0 62 5 82 14c25 13 35 28 35 72z" />
    <glyph glyph-name="oe" unicode="&#x153;" horiz-adv-x="770" 
d="M252 449h1c74 0 135 -39 168 -100c37 57 105 100 170 100c85 0 153 -73 153 -151c0 -25 -5 -30 -22 -34c-14 -3 -145 -13 -269 -17c-2 -139 79 -192 156 -192c40 0 74 17 113 51l15 -22c-57 -78 -129 -96 -161 -96c-71 0 -130 34 -162 87c-42 -58 -105 -87 -163 -87
c-134 0 -214 113 -214 220c0 166 131 241 215 241zM566 412h-1c-46 0 -96 -43 -106 -126c58 1 117 1 179 3c14 0 20 7 20 24c1 56 -37 99 -92 99zM244 416h-1c-60 0 -112 -64 -112 -175c0 -129 52 -219 135 -219c57 0 110 50 110 185c0 118 -46 209 -132 209z" />
    <glyph glyph-name="Racute" unicode="&#x154;" horiz-adv-x="621" 
d="M631 18l-4 -26c-12 0 -23 0 -35 1c-75 4 -117 26 -162 91c-35 49 -71 111 -101 160c-17 28 -34 40 -86 40h-32v-159c0 -85 9 -91 89 -97v-28h-263v28c82 6 91 12 91 97v402c0 85 -8 88 -86 95v28h248c73 0 122 -9 160 -34c40 -26 66 -71 66 -131
c0 -86 -53 -139 -127 -171c17 -33 59 -100 89 -145c36 -52 56 -78 81 -104c27 -30 50 -41 72 -47zM211 317h48c51 0 84 8 109 28c39 30 55 70 55 124c0 108 -71 148 -147 148c-29 0 -46 -4 -54 -10c-7 -5 -11 -17 -11 -44v-246zM433 756l-2 -8l-186 -64l-12 25l157 102
c12 -2 40 -41 43 -55z" />
    <glyph glyph-name="racute" unicode="&#x155;" horiz-adv-x="371" 
d="M181 343h2c30 50 73 106 121 106c34 0 58 -26 58 -50c0 -20 -13 -40 -32 -49c-12 -5 -21 -4 -27 2c-14 15 -26 21 -42 21c-26 0 -58 -30 -80 -86v-183c0 -66 5 -72 82 -78v-26h-230v26c62 6 69 12 69 78v207c0 66 -5 70 -62 78v22c49 8 93 20 141 41v-109zM201 493
l-26 13c19 42 60 142 67 159c10 4 69 12 81 9l3 -9z" />
    <glyph glyph-name="Rcommaaccent" unicode="&#x156;" horiz-adv-x="621" 
d="M631 18l-4 -26c-12 0 -23 0 -35 1c-75 4 -117 26 -162 91c-35 49 -71 111 -101 160c-17 28 -34 40 -86 40h-32v-159c0 -85 9 -91 89 -97v-28h-263v28c82 6 91 12 91 97v402c0 85 -8 88 -86 95v28h248c73 0 122 -9 160 -34c40 -26 66 -71 66 -131
c0 -86 -53 -139 -127 -171c17 -33 59 -100 89 -145c36 -52 56 -78 81 -104c27 -30 50 -41 72 -47zM211 317h48c51 0 84 8 109 28c39 30 55 70 55 124c0 108 -71 148 -147 148c-29 0 -46 -4 -54 -10c-7 -5 -11 -17 -11 -44v-246zM341 -22h1c37 0 73 -31 73 -78
c0 -60 -49 -92 -106 -106l-10 27c38 16 61 32 61 56c0 22 -21 35 -45 41c-8 2 -15 9 -15 24c0 24 21 36 41 36z" />
    <glyph glyph-name="rcommaaccent" unicode="&#x157;" horiz-adv-x="371" 
d="M181 343h2c30 50 73 106 121 106c34 0 58 -26 58 -50c0 -20 -13 -40 -32 -49c-12 -5 -21 -4 -27 2c-14 15 -26 21 -42 21c-26 0 -58 -30 -80 -86v-183c0 -66 5 -72 82 -78v-26h-230v26c62 6 69 12 69 78v207c0 66 -5 70 -62 78v22c49 8 93 20 141 41v-109zM139 -38h1
c37 0 73 -31 73 -78c0 -60 -49 -92 -106 -106l-10 27c38 16 61 32 61 56c0 22 -21 35 -45 41c-8 2 -15 9 -15 24c0 24 21 36 41 36z" />
    <glyph glyph-name="Rcaron" unicode="&#x158;" horiz-adv-x="621" 
d="M631 18l-4 -26c-12 0 -23 0 -35 1c-75 4 -117 26 -162 91c-35 49 -71 111 -101 160c-17 28 -34 40 -86 40h-32v-159c0 -85 9 -91 89 -97v-28h-263v28c82 6 91 12 91 97v402c0 85 -8 88 -86 95v28h248c73 0 122 -9 160 -34c40 -26 66 -71 66 -131
c0 -86 -53 -139 -127 -171c17 -33 59 -100 89 -145c36 -52 56 -78 81 -104c27 -30 50 -41 72 -47zM211 317h48c51 0 84 8 109 28c39 30 55 70 55 124c0 108 -71 148 -147 148c-29 0 -46 -4 -54 -10c-7 -5 -11 -17 -11 -44v-246zM405 821l15 -26c-43 -32 -86 -66 -125 -107
h-22c-40 41 -83 74 -126 107l15 26c41 -18 82 -38 122 -62c39 23 81 44 121 62z" />
    <glyph glyph-name="rcaron" unicode="&#x159;" horiz-adv-x="371" 
d="M181 343h2c30 50 73 106 121 106c34 0 58 -26 58 -50c0 -20 -13 -40 -32 -49c-12 -5 -21 -4 -27 2c-14 15 -26 21 -42 21c-26 0 -58 -30 -80 -86v-183c0 -66 5 -72 82 -78v-26h-230v26c62 6 69 12 69 78v207c0 66 -5 70 -62 78v22c49 8 93 20 141 41v-109zM296 675
l24 -17c-39 -54 -71 -108 -100 -163h-25c-30 56 -62 109 -100 163l25 17c33 -32 62 -64 87 -97c27 32 55 65 89 97z" />
    <glyph glyph-name="Sacute" unicode="&#x15a;" horiz-adv-x="474" 
d="M409 504l-29 -6c-18 64 -44 133 -131 133c-77 0 -111 -56 -111 -110c0 -73 48 -107 127 -148c78 -40 173 -87 173 -199c0 -105 -89 -189 -222 -189c-41 0 -73 8 -98 15c-25 9 -40 16 -49 21c-8 21 -21 107 -27 155l29 7c16 -61 61 -162 164 -162c75 0 120 47 120 120
c0 74 -55 109 -130 149c-64 34 -165 84 -165 197c0 96 77 178 206 178c46 0 88 -11 126 -23c4 -36 9 -75 17 -138zM382 764l-2 -8l-186 -64l-12 25l157 102c12 -2 40 -41 43 -55z" />
    <glyph glyph-name="sacute" unicode="&#x15b;" horiz-adv-x="367" 
d="M320 325l-26 -6c-19 59 -54 99 -103 99c-38 0 -65 -30 -65 -69c0 -44 40 -68 85 -87c75 -31 126 -67 126 -136c0 -91 -85 -138 -165 -138c-51 0 -97 19 -115 34c-7 14 -16 82 -16 118l26 5c18 -66 63 -124 123 -124c37 0 71 28 71 70c0 44 -29 68 -79 91
c-60 28 -125 61 -125 138c0 70 60 129 152 129c41 1 68 -9 89 -17c8 -23 19 -82 22 -107zM179 493l-26 13c19 42 60 142 67 159c10 4 69 12 81 9l3 -9z" />
    <glyph glyph-name="Scircumflex" unicode="&#x15c;" horiz-adv-x="474" 
d="M409 504l-29 -6c-18 64 -44 133 -131 133c-77 0 -111 -56 -111 -110c0 -73 48 -107 127 -148c78 -40 173 -87 173 -199c0 -105 -89 -189 -222 -189c-41 0 -73 8 -98 15c-25 9 -40 16 -49 21c-8 21 -21 107 -27 155l29 7c16 -61 61 -162 164 -162c75 0 120 47 120 120
c0 74 -55 109 -130 149c-64 34 -165 84 -165 197c0 96 77 178 206 178c46 0 88 -11 126 -23c4 -36 9 -75 17 -138zM386 715l-16 -25c-39 17 -81 39 -121 62c-39 -22 -80 -45 -119 -62l-17 25c43 33 88 67 126 107h22c39 -41 82 -74 125 -107z" />
    <glyph glyph-name="scircumflex" unicode="&#x15d;" horiz-adv-x="367" 
d="M320 325l-26 -6c-19 59 -54 99 -103 99c-38 0 -65 -30 -65 -69c0 -44 40 -68 85 -87c75 -31 126 -67 126 -136c0 -91 -85 -138 -165 -138c-51 0 -97 19 -115 34c-7 14 -16 82 -16 118l26 5c18 -66 63 -124 123 -124c37 0 71 28 71 70c0 44 -29 68 -79 91
c-60 28 -125 61 -125 138c0 70 60 129 152 129c41 1 68 -9 89 -17c8 -23 19 -82 22 -107zM300 508l-24 -17c-32 30 -62 64 -88 97c-26 -33 -55 -66 -88 -97l-24 17c38 54 71 108 100 163h25c29 -55 61 -109 99 -163z" />
    <glyph glyph-name="Scedilla" unicode="&#x15e;" horiz-adv-x="477" 
d="M411 502l-29 -4c-17 63 -44 133 -131 133c-73 0 -110 -52 -110 -107c0 -74 47 -109 127 -149c77 -37 170 -85 170 -199c0 -91 -62 -162 -159 -182l-14 -22c-11 -17 -9 -25 6 -41c28 -27 39 -46 39 -68c0 -41 -45 -79 -113 -100l-12 26c41 18 60 39 61 59
c0 16 -13 28 -24 38c-24 24 -31 38 -12 64l28 37c-6 -2 -12 -2 -18 -2c-39 1 -76 8 -101 15c-27 9 -42 17 -52 22c-7 20 -21 105 -27 155l28 6c17 -61 62 -162 171 -162c72 0 117 46 117 120c0 79 -59 114 -128 151c-62 32 -166 83 -166 196c0 95 78 177 207 177
c45 0 86 -11 124 -23c4 -36 10 -77 18 -140z" />
    <glyph glyph-name="scedilla" unicode="&#x15f;" horiz-adv-x="366" 
d="M320 326l-26 -8c-19 60 -55 100 -103 100c-39 0 -65 -28 -65 -67c0 -43 40 -68 85 -87c75 -32 126 -69 126 -138c0 -72 -50 -115 -111 -130l-17 -24c-13 -18 -10 -25 6 -41c28 -26 36 -44 36 -66c0 -41 -43 -78 -109 -99l-10 27c39 18 57 38 58 57c0 16 -12 27 -23 38
c-25 23 -31 38 -12 61l31 40c-5 -1 -11 -1 -16 -1c-49 0 -98 20 -116 36c-6 17 -15 82 -15 119l27 5c18 -67 64 -127 125 -127c35 0 70 24 70 69c0 44 -28 70 -80 94c-59 26 -125 62 -125 136c0 69 60 129 153 129c41 1 68 -9 89 -17c8 -23 20 -82 22 -106z" />
    <glyph glyph-name="Scaron" unicode="&#x160;" horiz-adv-x="474" 
d="M409 504l-29 -6c-18 64 -44 133 -131 133c-77 0 -111 -56 -111 -110c0 -73 48 -107 127 -148c78 -40 173 -87 173 -199c0 -105 -89 -189 -222 -189c-41 0 -73 8 -98 15c-25 9 -40 16 -49 21c-8 21 -21 107 -27 155l29 7c16 -61 61 -162 164 -162c75 0 120 47 120 120
c0 74 -55 109 -130 149c-64 34 -165 84 -165 197c0 96 77 178 206 178c46 0 88 -11 126 -23c4 -36 9 -75 17 -138zM370 830l15 -26c-43 -32 -86 -66 -125 -107h-22c-40 41 -83 74 -126 107l15 26c41 -18 82 -38 122 -62c39 23 81 44 121 62z" />
    <glyph glyph-name="scaron" unicode="&#x161;" horiz-adv-x="367" 
d="M320 325l-26 -6c-19 59 -54 99 -103 99c-38 0 -65 -30 -65 -69c0 -44 40 -68 85 -87c75 -31 126 -67 126 -136c0 -91 -85 -138 -165 -138c-51 0 -97 19 -115 34c-7 14 -16 82 -16 118l26 5c18 -66 63 -124 123 -124c37 0 71 28 71 70c0 44 -29 68 -79 91
c-60 28 -125 61 -125 138c0 70 60 129 152 129c41 1 68 -9 89 -17c8 -23 19 -82 22 -107zM279 675l24 -17c-39 -54 -71 -108 -100 -163h-25c-30 56 -62 109 -100 163l25 17c33 -32 62 -64 87 -97c27 32 55 65 89 97z" />
    <glyph glyph-name="Tcommaaccent" unicode="&#x162;" horiz-adv-x="617" 
d="M592 498l-29 -3c-11 48 -20 73 -32 89c-16 24 -33 31 -108 31h-71v-492c0 -79 8 -89 103 -95v-28h-287v28c91 6 99 16 99 95v492h-62c-83 0 -103 -8 -116 -31c-12 -17 -20 -45 -32 -89h-29c5 60 10 125 12 180h20c14 -23 27 -25 55 -25h395c27 0 35 6 51 25h21
c0 -46 5 -119 10 -177zM301 -37h1c37 0 73 -31 73 -78c0 -60 -49 -92 -106 -106l-10 27c38 16 61 32 61 56c0 22 -21 35 -45 41c-8 2 -15 9 -15 24c0 24 21 36 41 36z" />
    <glyph glyph-name="tcommaaccent" unicode="&#x163;" horiz-adv-x="305" 
d="M298 36l-68 -35c-17 -9 -33 -13 -42 -13c-63 0 -98 40 -98 119v291h-69l-4 10l27 29h46v73l65 66l14 -2v-137h113c9 -10 6 -32 -6 -39h-107v-257c0 -81 33 -96 58 -96s48 10 62 17zM167 -47h1c37 0 73 -31 73 -78c0 -60 -49 -92 -106 -106l-10 27c38 16 61 32 61 56
c0 22 -21 35 -45 41c-8 2 -15 9 -15 24c0 24 21 36 41 36z" />
    <glyph glyph-name="Tcaron" unicode="&#x164;" horiz-adv-x="617" 
d="M592 498l-29 -3c-11 48 -20 73 -32 89c-16 24 -33 31 -108 31h-71v-492c0 -79 8 -89 103 -95v-28h-287v28c91 6 99 16 99 95v492h-62c-83 0 -103 -8 -116 -31c-12 -17 -20 -45 -32 -89h-29c5 60 10 125 12 180h20c14 -23 27 -25 55 -25h395c27 0 35 6 51 25h21
c0 -46 5 -119 10 -177zM430 821l15 -26c-43 -32 -86 -66 -125 -107h-22c-40 41 -83 74 -126 107l15 26c41 -18 82 -38 122 -62c39 23 81 44 121 62z" />
    <glyph glyph-name="tcaron" unicode="&#x165;" horiz-adv-x="305" 
d="M298 36l-68 -35c-17 -9 -33 -13 -42 -13c-63 0 -98 40 -98 119v291h-69l-4 10l27 29h46v73l65 66l14 -2v-137h113c9 -10 6 -32 -6 -39h-107v-257c0 -81 33 -96 58 -96s48 10 62 17zM271 694h1c32 0 60 -32 60 -79c0 -59 -40 -91 -87 -105l-10 27c31 16 46 33 46 57
c0 22 -13 32 -32 39c-6 2 -14 10 -14 25c0 24 18 36 36 36z" />
    <glyph glyph-name="Tbar" unicode="&#x166;" horiz-adv-x="613" 
d="M588 499l-30 -3c-10 47 -18 71 -29 88c-17 24 -39 31 -115 31h-64v-265h149v-39h-149v-185c0 -82 8 -93 102 -99v-27h-286v27c91 6 99 17 99 99v185h-147v39h147v265h-50c-95 0 -114 -9 -127 -31c-11 -18 -19 -45 -30 -88h-30c5 60 10 124 12 179h20
c15 -23 24 -25 52 -25h397c27 0 32 6 47 25h22c0 -46 4 -119 10 -176z" />
    <glyph glyph-name="tbar" unicode="&#x167;" horiz-adv-x="303" 
d="M299 37l-71 -37c-17 -9 -30 -12 -40 -12c-63 0 -98 40 -98 119v118h-67v36h67v136h-69l-4 11l28 29h45v73l65 66l14 -2v-137h113c10 -10 7 -32 -6 -40h-107v-136h101v-36h-101v-84c0 -80 33 -96 59 -96c25 0 48 10 61 17z" />
    <glyph glyph-name="Utilde" unicode="&#x168;" horiz-adv-x="736" 
d="M716 650v-28c-60 -4 -83 -18 -88 -59c-3 -27 -5 -70 -5 -162v-82c0 -118 -18 -203 -76 -264c-46 -48 -113 -69 -179 -69c-58 0 -116 14 -160 48c-60 46 -88 121 -88 238v249c0 90 -8 94 -87 101v28h259v-28c-79 -5 -87 -11 -87 -101v-227c0 -161 64 -253 188 -253
c144 0 189 120 189 285v75c0 92 -3 134 -7 165c-6 39 -27 51 -97 56v28h238zM339 788h1c17 0 31 -5 60 -19c22 -10 38 -16 55 -16c19 0 33 15 46 43l25 -14c-22 -67 -55 -85 -82 -85c-22 0 -43 9 -70 22c-16 8 -27 14 -44 14c-19 0 -33 -16 -48 -44l-24 17
c25 63 56 82 81 82z" />
    <glyph glyph-name="utilde" unicode="&#x169;" horiz-adv-x="531" 
d="M518 49v-25c-22 -3 -50 -9 -77 -16c-26 -7 -51 -15 -70 -20l-6 6v71c-23 -17 -46 -35 -74 -52c-29 -17 -50 -25 -77 -25c-67 0 -124 41 -124 149v196c0 53 -8 58 -33 64l-28 6v23c21 1 45 4 72 7c27 4 54 8 71 11c-3 -31 -3 -78 -3 -146v-135c0 -88 43 -112 88 -112
c36 0 74 15 108 48v233c0 54 -9 60 -42 65l-36 6v23c27 1 61 4 90 8c28 3 52 7 67 10v-334c0 -50 8 -57 46 -59zM161 521l-26 16c22 68 54 90 80 90c16 0 29 -4 58 -19c22 -11 37 -19 53 -19c18 0 31 16 44 45l25 -14c-22 -73 -54 -90 -79 -90c-21 0 -41 10 -66 24
c-18 10 -30 15 -46 15s-30 -16 -43 -48z" />
    <glyph glyph-name="Umacron" unicode="&#x16a;" horiz-adv-x="736" 
d="M716 650v-28c-60 -4 -83 -18 -88 -59c-3 -27 -5 -70 -5 -162v-82c0 -118 -18 -203 -76 -264c-46 -48 -113 -69 -179 -69c-58 0 -116 14 -160 48c-60 46 -88 121 -88 238v249c0 90 -8 94 -87 101v28h259v-28c-79 -5 -87 -11 -87 -101v-227c0 -161 64 -253 188 -253
c144 0 189 120 189 285v75c0 92 -3 134 -7 165c-6 39 -27 51 -97 56v28h238zM495 717h-224v52h224v-52z" />
    <glyph glyph-name="umacron" unicode="&#x16b;" horiz-adv-x="531" 
d="M518 49v-25c-22 -3 -50 -9 -77 -16c-26 -7 -51 -15 -70 -20l-6 6v71c-23 -17 -46 -35 -74 -52c-29 -17 -50 -25 -77 -25c-67 0 -124 41 -124 149v196c0 53 -8 58 -33 64l-28 6v23c21 1 45 4 72 7c27 4 54 8 71 11c-3 -31 -3 -78 -3 -146v-135c0 -88 43 -112 88 -112
c36 0 74 15 108 48v233c0 54 -9 60 -42 65l-36 6v23c27 1 61 4 90 8c28 3 52 7 67 10v-334c0 -50 8 -57 46 -59zM375 548h-219v55h219v-55z" />
    <glyph glyph-name="Ubreve" unicode="&#x16c;" horiz-adv-x="736" 
d="M716 650v-28c-60 -4 -83 -18 -88 -59c-3 -27 -5 -70 -5 -162v-82c0 -118 -18 -203 -76 -264c-46 -48 -113 -69 -179 -69c-58 0 -116 14 -160 48c-60 46 -88 121 -88 238v249c0 90 -8 94 -87 101v28h259v-28c-79 -5 -87 -11 -87 -101v-227c0 -161 64 -253 188 -253
c144 0 189 120 189 285v75c0 92 -3 134 -7 165c-6 39 -27 51 -97 56v28h238zM473 804h30c-2 -79 -49 -118 -117 -118c-69 0 -116 39 -117 118h30c9 -35 34 -61 87 -61s78 26 87 61z" />
    <glyph glyph-name="ubreve" unicode="&#x16d;" horiz-adv-x="531" 
d="M518 49v-25c-22 -3 -50 -9 -77 -16c-26 -7 -51 -15 -70 -20l-6 6v71c-23 -17 -46 -35 -74 -52c-29 -17 -50 -25 -77 -25c-67 0 -124 41 -124 149v196c0 53 -8 58 -33 64l-28 6v23c21 1 45 4 72 7c27 4 54 8 71 11c-3 -31 -3 -78 -3 -146v-135c0 -88 43 -112 88 -112
c36 0 74 15 108 48v233c0 54 -9 60 -42 65l-36 6v23c27 1 61 4 90 8c28 3 52 7 67 10v-334c0 -50 8 -57 46 -59zM341 648h30c0 -104 -52 -137 -112 -137c-58 0 -110 33 -110 137h30c7 -52 37 -79 81 -79s74 27 81 79z" />
    <glyph glyph-name="Uring" unicode="&#x16e;" horiz-adv-x="736" 
d="M716 650v-28c-60 -4 -83 -18 -88 -59c-3 -27 -5 -70 -5 -162v-82c0 -118 -18 -203 -76 -264c-46 -48 -113 -69 -179 -69c-58 0 -116 14 -160 48c-60 46 -88 121 -88 238v249c0 90 -8 94 -87 101v28h259v-28c-79 -5 -87 -11 -87 -101v-227c0 -161 64 -253 188 -253
c144 0 189 120 189 285v75c0 92 -3 134 -7 165c-6 39 -27 51 -97 56v28h238zM387 843h1c43 0 87 -32 87 -84s-44 -85 -88 -85s-88 33 -88 85s44 84 88 84zM387 811h-1c-25 0 -43 -22 -43 -52c0 -31 18 -54 44 -54c27 0 44 23 44 54c0 30 -17 52 -44 52z" />
    <glyph glyph-name="uring" unicode="&#x16f;" horiz-adv-x="531" 
d="M518 49v-25c-22 -3 -50 -9 -77 -16c-26 -7 -51 -15 -70 -20l-6 6v71c-23 -17 -46 -35 -74 -52c-29 -17 -50 -25 -77 -25c-67 0 -124 41 -124 149v196c0 53 -8 58 -33 64l-28 6v23c21 1 45 4 72 7c27 4 54 8 71 11c-3 -31 -3 -78 -3 -146v-135c0 -88 43 -112 88 -112
c36 0 74 15 108 48v233c0 54 -9 60 -42 65l-36 6v23c27 1 61 4 90 8c28 3 52 7 67 10v-334c0 -50 8 -57 46 -59zM265 499c-44 0 -89 33 -89 86c0 52 45 83 90 83c43 0 88 -31 88 -83c0 -53 -45 -86 -89 -86zM266 530c27 0 44 24 44 55c0 30 -17 52 -45 52
c-25 0 -44 -22 -44 -52c0 -31 19 -55 45 -55z" />
    <glyph glyph-name="Uhungarumlaut" unicode="&#x170;" horiz-adv-x="736" 
d="M716 650v-28c-60 -4 -83 -18 -88 -59c-3 -27 -5 -70 -5 -162v-82c0 -118 -18 -203 -76 -264c-46 -48 -113 -69 -179 -69c-58 0 -116 14 -160 48c-60 46 -88 121 -88 238v249c0 90 -8 94 -87 101v28h259v-28c-79 -5 -87 -11 -87 -101v-227c0 -161 64 -253 188 -253
c144 0 189 120 189 285v75c0 92 -3 134 -7 165c-6 39 -27 51 -97 56v28h238zM549 796l-98 -112l-25 14l50 123c20 2 59 -7 72 -13zM407 796l-98 -112l-25 14c18 43 36 89 51 123c19 2 59 -7 71 -14z" />
    <glyph glyph-name="uhungarumlaut" unicode="&#x171;" horiz-adv-x="531" 
d="M518 49v-25c-22 -3 -50 -9 -77 -16c-26 -7 -51 -15 -70 -20l-6 6v71c-23 -17 -46 -35 -74 -52c-29 -17 -50 -25 -77 -25c-67 0 -124 41 -124 149v196c0 53 -8 58 -33 64l-28 6v23c21 1 45 4 72 7c27 4 54 8 71 11c-3 -31 -3 -78 -3 -146v-135c0 -88 43 -112 88 -112
c36 0 74 15 108 48v233c0 54 -9 60 -42 65l-36 6v23c27 1 61 4 90 8c28 3 52 7 67 10v-334c0 -50 8 -57 46 -59zM194 494l-28 9c14 49 42 146 45 161c9 4 64 14 77 12l3 -10zM332 494l-28 9c14 50 42 146 45 161c9 4 64 14 77 12l3 -10z" />
    <glyph glyph-name="Uogonek" unicode="&#x172;" horiz-adv-x="733" 
d="M713 650v-27c-59 -5 -82 -18 -86 -60c-4 -28 -7 -72 -7 -164v-80c0 -118 -18 -203 -75 -264c-38 -40 -82 -53 -109 -59c-37 -37 -61 -91 -61 -125c0 -38 26 -52 53 -52c14 0 34 7 48 12l7 -25l-57 -34c-10 -6 -27 -10 -36 -10c-59 0 -83 39 -83 76c0 59 51 116 88 151
c-90 -7 -145 13 -187 45c-60 46 -88 121 -88 238v246c0 93 -8 97 -87 105v27h259v-27c-79 -5 -87 -13 -87 -105v-223c0 -162 61 -254 186 -254c141 0 187 115 187 286v72c0 92 -3 136 -7 167c-6 39 -27 52 -96 57v27h238z" />
    <glyph glyph-name="uogonek" unicode="&#x173;" horiz-adv-x="531" 
d="M519 49v-25c-20 -4 -27 -6 -41 -8c-50 -36 -101 -98 -101 -149c0 -29 22 -45 50 -45c16 0 32 4 47 11l8 -25l-57 -33c-9 -6 -27 -11 -35 -11c-54 0 -81 34 -81 76c0 60 65 122 111 163c-16 -4 -38 -11 -49 -15c-1 3 -4 6 -5 8v69c-24 -17 -45 -35 -74 -52
s-51 -25 -78 -25c-67 0 -124 41 -124 149v194c0 54 -9 60 -34 65l-28 6v24c21 1 46 4 73 7c27 4 54 8 71 11c-3 -31 -3 -77 -3 -145v-136c0 -88 43 -112 88 -112c36 0 74 15 109 48v232c0 54 -10 60 -43 65l-34 6v24c27 1 60 4 88 8c29 3 52 7 67 10v-334
c0 -50 9 -57 47 -59z" />
    <glyph glyph-name="Wcircumflex" unicode="&#x174;" horiz-adv-x="971" 
d="M956 650v-28c-69 -9 -78 -17 -108 -100c-23 -64 -83 -253 -165 -533h-31l-175 499h-2l-163 -499h-31l-164 535c-25 82 -40 90 -101 98v28h243v-28c-73 -9 -75 -17 -60 -68l122 -412h2l162 498h29l175 -499h2c42 134 97 330 113 401c14 60 10 71 -69 80v28h221zM635 704
l-16 -25c-39 17 -81 39 -121 62c-39 -22 -80 -45 -119 -62l-17 25c43 33 88 67 126 107h22c39 -41 82 -74 125 -107z" />
    <glyph glyph-name="wcircumflex" unicode="&#x175;" horiz-adv-x="685" 
d="M696 437v-25c-50 -8 -59 -20 -80 -75c-30 -79 -74 -212 -120 -348h-28c-40 108 -81 206 -122 311c-38 -100 -79 -200 -118 -311h-29c-36 119 -74 237 -115 357c-18 52 -27 59 -75 66v25h207v-25c-60 -10 -65 -16 -50 -61l73 -233h2l116 314h26c37 -104 78 -210 120 -317
h2c22 69 50 156 68 230c13 52 7 58 -58 67v25h181zM475 508l-24 -17c-32 30 -62 64 -88 97c-26 -33 -55 -66 -88 -97l-24 17c38 54 71 108 100 163h25c29 -55 61 -109 99 -163z" />
    <glyph glyph-name="Ycircumflex" unicode="&#x176;" horiz-adv-x="634" 
d="M620 650v-28c-69 -8 -80 -18 -119 -79c-45 -73 -79 -131 -127 -219c-13 -26 -16 -37 -16 -63v-136c0 -84 8 -91 100 -97v-28h-283v28c89 6 98 12 98 97v133c0 20 -4 29 -21 59l-126 220c-40 68 -51 79 -111 85v28h239v-28c-71 -9 -69 -21 -50 -54
c42 -80 91 -162 134 -237c37 66 91 164 119 225c23 50 20 58 -58 66v28h221zM460 709l-16 -25c-39 17 -81 39 -121 62c-39 -22 -80 -45 -119 -62l-17 25c43 33 88 67 126 107h22c39 -41 82 -74 125 -107z" />
    <glyph glyph-name="ycircumflex" unicode="&#x177;" horiz-adv-x="459" 
d="M478 437v-25c-53 -8 -62 -16 -89 -73c-25 -53 -56 -136 -125 -301c-67 -160 -89 -217 -103 -271c-6 -19 -18 -24 -32 -24c-28 0 -57 24 -57 48c0 16 9 25 26 36c31 20 51 44 74 89c19 35 27 56 31 69c5 15 5 28 -1 45c-40 114 -85 235 -115 306c-21 55 -31 68 -86 76v25
h203v-25c-46 -8 -51 -18 -38 -55l91 -251c28 68 71 186 92 249c12 38 5 49 -52 57v25h181zM356 508l-24 -17c-32 30 -62 64 -88 97c-26 -33 -55 -66 -88 -97l-24 17c38 54 71 108 100 163h25c29 -55 61 -109 99 -163z" />
    <glyph glyph-name="Ydieresis" unicode="&#x178;" horiz-adv-x="634" 
d="M620 650v-28c-69 -8 -80 -18 -119 -79c-45 -73 -79 -131 -127 -219c-13 -26 -16 -37 -16 -63v-136c0 -84 8 -91 100 -97v-28h-283v28c89 6 98 12 98 97v133c0 20 -4 29 -21 59l-126 220c-40 68 -51 79 -111 85v28h239v-28c-71 -9 -69 -21 -50 -54
c42 -80 91 -162 134 -237c37 66 91 164 119 225c23 50 20 58 -58 66v28h221zM421 794h1c26 0 47 -21 47 -49c0 -26 -21 -48 -48 -48c-25 0 -47 22 -47 48c0 28 22 49 47 49zM231 794h1c26 0 46 -21 46 -50c0 -25 -20 -48 -47 -48c-26 0 -48 23 -48 48c0 29 22 50 48 50z" />
    <glyph glyph-name="Zacute" unicode="&#x179;" horiz-adv-x="603" 
d="M561 176l30 -6c-8 -36 -26 -129 -37 -170h-517l-8 15l421 599h-174c-108 0 -124 -9 -141 -36c-12 -18 -23 -43 -34 -87h-30c5 64 11 139 12 184h24c12 -23 23 -25 53 -25h399l7 -14l-413 -594c33 -4 94 -6 163 -6c125 0 163 7 191 37c20 22 36 54 54 103zM473 756l-2 -8
l-186 -64l-12 25l157 102c12 -2 40 -41 43 -55z" />
    <glyph glyph-name="zacute" unicode="&#x17a;" horiz-adv-x="420" 
d="M387 138l26 -12c-15 -39 -31 -86 -46 -126h-330l-6 15c86 127 167 255 249 389h-89c-72 0 -85 -16 -113 -72l-14 -27l-25 9c11 38 26 102 34 145h21c6 -16 18 -22 55 -22h230l6 -14l-244 -390h99c76 0 96 21 134 81zM213 493l-26 13c19 42 60 142 67 159c10 4 69 12 81 9
l3 -9z" />
    <glyph glyph-name="Zdotaccent" unicode="&#x17b;" horiz-adv-x="603" 
d="M561 176l30 -6c-8 -36 -26 -129 -37 -170h-517l-8 15l421 599h-174c-108 0 -124 -9 -141 -36c-12 -18 -23 -43 -34 -87h-30c5 64 11 139 12 184h24c12 -23 23 -25 53 -25h399l7 -14l-413 -594c33 -4 94 -6 163 -6c125 0 163 7 191 37c20 22 36 54 54 103zM318 807h1
c28 0 50 -23 50 -53c0 -29 -22 -51 -51 -51s-51 22 -51 51c0 30 22 53 51 53z" />
    <glyph glyph-name="zdotaccent" unicode="&#x17c;" horiz-adv-x="420" 
d="M387 138l26 -12c-15 -39 -31 -86 -46 -126h-330l-6 15c86 127 167 255 249 389h-89c-72 0 -85 -16 -113 -72l-14 -27l-25 9c11 38 26 102 34 145h21c6 -16 18 -22 55 -22h230l6 -14l-244 -390h99c76 0 96 21 134 81zM221 538c-27 0 -50 23 -50 50c0 30 23 53 51 53
s49 -23 49 -53c0 -27 -21 -50 -50 -50z" />
    <glyph glyph-name="Zcaron" unicode="&#x17d;" horiz-adv-x="603" 
d="M561 176l30 -6c-8 -36 -26 -129 -37 -170h-517l-8 15l421 599h-174c-108 0 -124 -9 -141 -36c-12 -18 -23 -43 -34 -87h-30c5 64 11 139 12 184h24c12 -23 23 -25 53 -25h399l7 -14l-413 -594c33 -4 94 -6 163 -6c125 0 163 7 191 37c20 22 36 54 54 103zM439 821l15 -26
c-43 -32 -86 -66 -125 -107h-22c-40 41 -83 74 -126 107l15 26c41 -18 82 -38 122 -62c39 23 81 44 121 62z" />
    <glyph glyph-name="zcaron" unicode="&#x17e;" horiz-adv-x="420" 
d="M387 138l26 -12c-15 -39 -31 -86 -46 -126h-330l-6 15c86 127 167 255 249 389h-89c-72 0 -85 -16 -113 -72l-14 -27l-25 9c11 38 26 102 34 145h21c6 -16 18 -22 55 -22h230l6 -14l-244 -390h99c76 0 96 21 134 81zM304 675l24 -17c-39 -54 -71 -108 -100 -163h-25
c-30 56 -62 109 -100 163l25 17c33 -32 62 -64 87 -97c27 32 55 65 89 97z" />
    <glyph glyph-name="longs" unicode="&#x17f;" horiz-adv-x="267" 
d="M55 437h47v22c0 33 4 60 10 81c7 25 24 73 77 118c36 32 72 49 111 54c35 -1 64 -16 79 -33c10 -12 11 -23 7 -34c-3 -9 -13 -19 -23 -27c-10 -6 -17 -4 -26 4c-21 21 -46 40 -81 40c-25 0 -42 -15 -54 -36c-13 -23 -22 -77 -22 -197v-317c0 -75 6 -79 70 -86v-26h-214
v26c58 6 66 12 66 78v294h-71l-3 10z" />
    <glyph glyph-name="florin" unicode="&#x192;" horiz-adv-x="480" 
d="M188 370l8 45c15 84 45 138 95 182c53 47 90 55 113 55c24 0 58 -21 58 -44c0 -16 -22 -49 -38 -41c-17 11 -44 33 -72 33c-17 0 -30 -11 -40 -30c-10 -22 -22 -56 -39 -200h112v-37h-118l-31 -205c-20 -134 -65 -190 -116 -228c-37 -28 -65 -38 -87 -38
c-27 0 -55 21 -55 37c0 17 24 49 35 49c10 0 39 -31 69 -31c22 0 34 10 42 34s18 75 32 190l26 192h-89l1 37h94z" />
    <glyph glyph-name="Ohorn" unicode="&#x1a0;" horiz-adv-x="747" 
d="M359 629c-111 0 -213 -96 -213 -283c0 -188 103 -325 244 -325c111 0 211 93 211 285c0 211 -110 323 -242 323zM381 665c74 0 138 -23 197 -65c12 -7 31 -10 44 -10c45 0 58 25 58 40c0 17 -5 24 -41 28c-8 2 -23 12 -23 30c0 24 19 43 44 43c37 0 66 -24 66 -80
c0 -53 -43 -88 -102 -96c48 -55 79 -131 79 -222c0 -216 -151 -348 -334 -348c-181 0 -325 141 -325 333c0 180 126 347 337 347z" />
    <glyph glyph-name="ohorn" unicode="&#x1a1;" horiz-adv-x="525" 
d="M245 416c-61 0 -115 -62 -115 -175c0 -126 55 -220 137 -220c62 0 113 46 113 183c0 117 -47 212 -135 212zM257 449c47 0 84 -13 121 -36c11 -5 25 -9 39 -9c37 0 52 16 52 29c0 15 -7 21 -34 26c-7 1 -22 9 -22 28c0 22 19 39 44 39c28 0 55 -19 55 -70
c0 -48 -37 -77 -90 -84c32 -38 51 -89 51 -146c0 -161 -118 -238 -217 -238c-137 0 -219 110 -219 221c0 165 128 240 220 240z" />
    <glyph glyph-name="Uhorn" unicode="&#x1af;" horiz-adv-x="736" 
d="M478 622v28h182c36 0 59 12 59 33c0 16 -14 24 -39 28c-8 2 -24 10 -24 30c0 23 19 41 43 41c38 0 64 -24 64 -75s-35 -75 -68 -86c-42 -11 -63 -19 -67 -59c-3 -28 -5 -69 -5 -161v-82c0 -118 -18 -203 -76 -264c-46 -48 -113 -69 -179 -69c-58 0 -116 14 -160 48
c-60 46 -88 121 -88 238v249c0 90 -8 94 -87 101v28h259v-28c-79 -5 -87 -11 -87 -101v-227c0 -161 64 -253 188 -253c144 0 189 120 189 285v75c0 92 -3 134 -7 165c-6 39 -27 51 -97 56z" />
    <glyph glyph-name="uhorn" unicode="&#x1b0;" horiz-adv-x="547" 
d="M518 49v-25c-22 -3 -50 -9 -77 -16c-26 -7 -51 -15 -70 -20l-6 6v71c-23 -17 -46 -35 -74 -52c-29 -17 -50 -25 -77 -25c-67 0 -124 41 -124 149v196c0 53 -8 58 -33 64l-28 6v23c21 1 45 4 72 7c27 4 54 8 71 11c-3 -31 -3 -78 -3 -146v-135c0 -88 43 -112 88 -112
c36 0 74 15 108 48v233c0 54 -9 60 -42 65l-36 6v23c31 1 87 4 118 9c37 4 73 12 73 36c0 15 -8 23 -36 27c-7 1 -22 9 -22 28c0 22 17 40 42 40c31 0 58 -19 58 -71c0 -49 -39 -76 -76 -85v-300c0 -50 8 -57 46 -59z" />
    <glyph glyph-name="uni01FA" unicode="&#x1fa;" horiz-adv-x="691" 
d="M673 0h-245v28c63 8 72 16 59 55s-33 93 -55 154h-213c-16 -45 -31 -87 -44 -129c-22 -63 -13 -73 62 -80v-28h-217v28c63 9 77 15 112 103l207 525l31 9l193 -536c32 -86 45 -95 110 -101v-28zM418 280l-88 255h-2l-94 -255h184zM345 852h1c43 0 87 -32 87 -84
s-44 -85 -88 -85s-88 33 -88 85s44 84 88 84zM345 820h-1c-25 0 -43 -22 -43 -52c0 -31 18 -54 44 -54c27 0 44 23 44 54c0 30 -17 52 -44 52zM478 934l-2 -8l-186 -64l-12 25l157 102c12 -2 40 -41 43 -55z" />
    <glyph glyph-name="uni01FB" unicode="&#x1fb;" horiz-adv-x="439" 
d="M433 39l-85 -51c-15 0 -36 9 -47 19c-13 14 -19 28 -24 45c-40 -27 -88 -64 -118 -64c-71 0 -120 59 -120 122c0 49 26 80 81 99c60 20 133 47 155 65v18c0 72 -34 113 -84 113c-20 0 -35 -8 -45 -20c-13 -13 -22 -35 -30 -65c-4 -17 -15 -24 -29 -24
c-18 0 -44 20 -44 43c0 15 13 26 32 40c28 20 93 59 150 70c30 0 60 -9 82 -27c35 -29 45 -70 45 -122v-186c0 -45 18 -60 35 -60c12 0 26 5 36 11zM275 84v156c-21 -11 -69 -32 -90 -42c-39 -18 -61 -37 -61 -73c0 -52 40 -77 71 -77c26 1 61 18 80 36zM220 499
c-44 0 -89 33 -89 86c0 52 45 83 90 83c43 0 88 -31 88 -83c0 -53 -45 -86 -89 -86zM221 530c27 0 44 24 44 55c0 30 -17 52 -45 52c-25 0 -44 -22 -44 -52c0 -31 19 -55 45 -55zM213 690l-26 13c19 42 60 142 67 159c10 4 69 12 81 9l3 -9z" />
    <glyph glyph-name="AEacute" unicode="&#x1fc;" horiz-adv-x="869" 
d="M819 165l28 -7c-6 -31 -26 -127 -35 -158h-473v28c86 6 94 17 94 106v163h-177c-43 -84 -69 -136 -95 -195c-23 -52 -20 -65 57 -75v-27h-229v27c64 9 80 17 119 85c83 147 171 318 239 449c22 42 20 50 -31 57l-41 5v27h513c0 -25 5 -93 10 -142l-30 -4
c-10 40 -18 64 -32 82c-17 21 -36 29 -105 29h-83c-30 0 -32 -3 -32 -32v-248h90c90 0 96 9 109 77h30v-195h-30c-14 72 -20 79 -109 79l-90 1v-166c0 -52 6 -72 24 -84c20 -11 55 -12 102 -12c71 0 105 7 128 34c16 19 32 49 49 96zM433 336v274c-6 0 -14 -2 -28 -20
l-131 -254h159zM676 756l-2 -8l-186 -64l-12 25l157 102c12 -2 40 -41 43 -55z" />
    <glyph glyph-name="aeacute" unicode="&#x1fd;" horiz-adv-x="671" 
d="M284 275v23c0 64 -40 107 -88 107c-22 0 -37 -9 -47 -23c-12 -13 -19 -34 -28 -64c-4 -15 -12 -24 -27 -24c-16 0 -46 21 -46 42c0 16 10 29 31 43c29 21 95 57 151 70c30 0 56 -8 74 -21s32 -31 41 -54c39 45 95 75 147 76c86 0 153 -75 154 -152c0 -23 -5 -31 -23 -35
c-15 -3 -141 -12 -265 -16c-2 -134 77 -192 155 -192c38 0 73 14 111 50l17 -20c-59 -79 -133 -97 -163 -97c-73 0 -129 35 -161 89l-35 -27c-39 -30 -92 -62 -121 -62c-73 0 -121 62 -121 120c0 51 25 81 79 100c55 19 134 45 165 67zM469 412h-1c-45 0 -95 -42 -105 -125
c58 0 117 1 175 2c15 0 21 5 21 23c1 52 -32 100 -90 100zM198 51h1c30 0 71 13 104 56c-15 32 -20 84 -20 133c-21 -10 -64 -28 -98 -42c-42 -17 -60 -35 -60 -71c0 -50 37 -76 73 -76zM335 493l-26 13c19 42 60 142 67 159c10 4 69 12 81 9l3 -9z" />
    <glyph glyph-name="Oslashacute" unicode="&#x1fe;" horiz-adv-x="749" 
d="M633 674l-50 -75c73 -59 127 -152 127 -264c0 -214 -150 -350 -337 -350c-62 0 -123 18 -172 50l-57 -80l-26 24l53 77c-72 60 -121 152 -121 263c0 179 131 346 340 346c59 0 116 -16 162 -46l51 75zM216 123l301 443c-40 43 -92 63 -150 63c-114 0 -217 -96 -217 -285
c0 -88 26 -168 66 -221zM540 536l-300 -444c37 -47 92 -71 150 -71c151 0 220 129 220 284c0 101 -30 176 -70 231zM504 761l-2 -8l-186 -64l-12 25l157 102c12 -2 40 -41 43 -55z" />
    <glyph glyph-name="oslashacute" unicode="&#x1ff;" horiz-adv-x="513" 
d="M432 454l-36 -53c50 -41 80 -104 80 -174c0 -158 -116 -239 -217 -239c-44 0 -82 11 -115 31l-40 -55l-25 22l38 52c-51 43 -80 108 -80 172c0 164 130 239 223 239c42 0 76 -10 109 -29l36 52zM157 100l180 272c-19 26 -52 44 -88 44c-66 0 -123 -64 -123 -183
c0 -53 11 -99 31 -133zM357 341l-179 -271c18 -28 49 -49 90 -49c62 0 119 54 119 193c0 47 -10 91 -30 127zM245 493l-26 13c19 42 60 142 67 159c10 4 69 12 81 9l3 -9z" />
    <glyph glyph-name="Scommaaccent" unicode="&#x218;" horiz-adv-x="474" 
d="M409 504l-29 -6c-18 64 -44 133 -131 133c-77 0 -111 -56 -111 -110c0 -73 48 -107 127 -148c78 -40 173 -87 173 -199c0 -105 -89 -189 -222 -189c-41 0 -73 8 -98 15c-25 9 -40 16 -49 21c-8 21 -21 107 -27 155l29 7c16 -61 61 -162 164 -162c75 0 120 47 120 120
c0 74 -55 109 -130 149c-64 34 -165 84 -165 197c0 96 77 178 206 178c46 0 88 -11 126 -23c4 -36 9 -75 17 -138zM234 -53h1c37 0 73 -31 73 -78c0 -60 -49 -92 -106 -106l-10 27c38 16 61 32 61 56c0 22 -21 35 -45 41c-8 2 -15 9 -15 24c0 24 21 36 41 36z" />
    <glyph glyph-name="scommaaccent" unicode="&#x219;" horiz-adv-x="367" 
d="M320 325l-26 -6c-19 59 -54 99 -103 99c-38 0 -65 -30 -65 -69c0 -44 40 -68 85 -87c75 -31 126 -67 126 -136c0 -91 -85 -138 -165 -138c-51 0 -97 19 -115 34c-7 14 -16 82 -16 118l26 5c18 -66 63 -124 123 -124c37 0 71 28 71 70c0 44 -29 68 -79 91
c-60 28 -125 61 -125 138c0 70 60 129 152 129c41 1 68 -9 89 -17c8 -23 19 -82 22 -107zM183 -44h1c37 0 73 -31 73 -78c0 -60 -49 -92 -106 -106l-10 27c38 16 61 32 61 56c0 22 -21 35 -45 41c-8 2 -15 9 -15 24c0 24 21 36 41 36z" />
    <glyph glyph-name="uni021A" unicode="&#x21a;" horiz-adv-x="617" 
d="M592 498l-29 -3c-11 48 -20 73 -32 89c-16 24 -33 31 -108 31h-71v-492c0 -79 8 -89 103 -95v-28h-287v28c91 6 99 16 99 95v492h-62c-83 0 -103 -8 -116 -31c-12 -17 -20 -45 -32 -89h-29c5 60 10 125 12 180h20c14 -23 27 -25 55 -25h395c27 0 35 6 51 25h21
c0 -46 5 -119 10 -177zM301 -37h1c37 0 73 -31 73 -78c0 -60 -49 -92 -106 -106l-10 27c38 16 61 32 61 56c0 22 -21 35 -45 41c-8 2 -15 9 -15 24c0 24 21 36 41 36z" />
    <glyph glyph-name="uni021B" unicode="&#x21b;" horiz-adv-x="305" 
d="M298 36l-68 -35c-17 -9 -33 -13 -42 -13c-63 0 -98 40 -98 119v291h-69l-4 10l27 29h46v73l65 66l14 -2v-137h113c9 -10 6 -32 -6 -39h-107v-257c0 -81 33 -96 58 -96s48 10 62 17zM167 -47h1c37 0 73 -31 73 -78c0 -60 -49 -92 -106 -106l-10 27c38 16 61 32 61 56
c0 22 -21 35 -45 41c-8 2 -15 9 -15 24c0 24 21 36 41 36z" />
    <glyph glyph-name="uni021C" unicode="&#x21c;" horiz-adv-x="518" 
d="M139 269l-9 31c131 51 204 100 204 205c0 78 -52 124 -114 124c-80 0 -118 -55 -145 -146l-30 7c10 54 18 97 23 139c62 14 101 36 175 36c113 0 185 -59 185 -145c0 -69 -55 -116 -114 -156v-3c96 -18 166 -82 166 -179c0 -162 -177 -277 -375 -305l-62 43l6 21
c22 -4 52 -9 83 -9c146 0 251 89 251 219c0 104 -72 146 -132 146c-29 0 -68 -12 -112 -28z" />
    <glyph glyph-name="uni021D" unicode="&#x21d;" horiz-adv-x="385" 
d="M81 108l-11 29c108 48 156 90 156 163c0 57 -35 90 -82 90c-40 0 -75 -23 -114 -61l-19 22c53 63 101 98 164 98c78 0 136 -48 136 -124c0 -39 -18 -70 -44 -95c-12 -12 -29 -25 -43 -35v-2c77 -17 131 -77 131 -160c0 -143 -147 -241 -301 -268l-51 37l5 20
c19 -3 38 -6 59 -6c117 0 200 76 200 190c0 83 -55 125 -103 125c-24 0 -44 -6 -83 -23z" />
    <glyph glyph-name="uni0232" unicode="&#x232;" horiz-adv-x="634" 
d="M620 650v-28c-69 -8 -80 -18 -119 -79c-45 -73 -79 -131 -127 -219c-13 -26 -16 -37 -16 -63v-136c0 -84 8 -91 100 -97v-28h-283v28c89 6 98 12 98 97v133c0 20 -4 29 -21 59l-126 220c-40 68 -51 79 -111 85v28h239v-28c-71 -9 -69 -21 -50 -54
c42 -80 91 -162 134 -237c37 66 91 164 119 225c23 50 20 58 -58 66v28h221zM444 717h-224v52h224v-52z" />
    <glyph glyph-name="uni0233" unicode="&#x233;" horiz-adv-x="459" 
d="M478 437v-25c-53 -8 -62 -16 -89 -73c-25 -53 -56 -136 -125 -301c-67 -160 -89 -217 -103 -271c-6 -19 -18 -24 -32 -24c-28 0 -57 24 -57 48c0 16 9 25 26 36c31 20 51 44 74 89c19 35 27 56 31 69c5 15 5 28 -1 45c-40 114 -85 235 -115 306c-21 55 -31 68 -86 76v25
h203v-25c-46 -8 -51 -18 -38 -55l91 -251c28 68 71 186 92 249c12 38 5 49 -52 57v25h181zM359 548h-219v55h219v-55z" />
    <glyph glyph-name="circumflex" unicode="&#x2c6;" 
d="M312 508l-24 -17c-32 30 -62 64 -88 97c-26 -33 -55 -66 -88 -97l-24 17c38 54 71 108 100 163h25c29 -55 61 -109 99 -163z" />
    <glyph glyph-name="caron" unicode="&#x2c7;" 
d="M288 675l24 -17c-39 -54 -71 -108 -100 -163h-25c-30 56 -62 109 -100 163l25 17c33 -32 62 -64 87 -97c27 32 55 65 89 97z" />
    <glyph glyph-name="uni02C9" unicode="&#x2c9;" 
d="M310 548h-219v55h219v-55z" />
    <glyph glyph-name="breve" unicode="&#x2d8;" 
d="M281 648h30c0 -104 -52 -137 -112 -137c-58 0 -110 33 -110 137h30c7 -52 37 -79 81 -79s74 27 81 79z" />
    <glyph glyph-name="dotaccent" unicode="&#x2d9;" 
d="M200 538c-27 0 -50 23 -50 50c0 30 23 53 51 53s49 -23 49 -53c0 -27 -21 -50 -50 -50z" />
    <glyph glyph-name="ring" unicode="&#x2da;" 
d="M200 499c-44 0 -89 33 -89 86c0 52 45 83 90 83c43 0 88 -31 88 -83c0 -53 -45 -86 -89 -86zM201 530c27 0 44 24 44 55c0 30 -17 52 -45 52c-25 0 -44 -22 -44 -52c0 -31 19 -55 45 -55z" />
    <glyph glyph-name="ogonek" unicode="&#x2db;" 
d="M296 -176l-51 -29c-10 -5 -23 -8 -32 -8c-57 0 -82 40 -82 74c0 48 31 96 57 141h37c-18 -40 -30 -79 -30 -110c0 -35 22 -52 51 -52c14 0 28 3 42 8z" />
    <glyph glyph-name="tilde" unicode="&#x2dc;" 
d="M96 521l-26 16c22 68 54 90 80 90c16 0 29 -4 58 -19c22 -11 37 -19 53 -19c18 0 31 16 44 45l25 -14c-22 -73 -54 -90 -79 -90c-21 0 -41 10 -66 24c-18 10 -30 15 -46 15s-30 -16 -43 -48z" />
    <glyph glyph-name="hungarumlaut" unicode="&#x2dd;" 
d="M135 494l-28 9c14 49 42 146 45 161c9 4 64 14 77 12l3 -10zM273 494l-28 9c14 50 42 146 45 161c9 4 64 14 77 12l3 -10z" />
    <glyph glyph-name="uni0374" unicode="&#x374;" horiz-adv-x="230" 
d="M202 644l2 -14l-119 -225l-26 5c18 66 43 193 52 240c13 10 78 2 91 -6z" />
    <glyph glyph-name="uni0375" unicode="&#x375;" horiz-adv-x="230" 
d="M167 120l2 -14c-39 -75 -77 -149 -120 -225l-26 5c17 66 44 193 53 240c12 10 77 2 91 -6z" />
    <glyph glyph-name="uni037E" unicode="&#x37e;" horiz-adv-x="230" 
d="M118 265h-1c-35 0 -62 27 -62 68c0 37 27 66 63 66c37 0 64 -29 64 -66c0 -41 -27 -68 -64 -68zM41 -121l-27 7c18 66 45 197 53 240c14 10 79 2 92 -6l2 -14c-39 -75 -77 -152 -120 -227z" />
    <glyph glyph-name="tonos" unicode="&#x384;" horiz-adv-x="353" 
d="M260 666l-67 -169l-28 1c4 47 15 132 15 163c9 9 64 17 76 14z" />
    <glyph glyph-name="dieresistonos" unicode="&#x385;" 
d="M309 528h-1c-27 0 -45 18 -45 45c0 26 18 47 46 47c25 0 43 -21 43 -47c0 -27 -18 -45 -43 -45zM252 676l-48 -173l-26 -2c-2 53 -3 127 -3 172c12 5 65 13 74 12zM93 528h-1c-25 0 -44 18 -44 45c0 26 19 47 45 47c25 0 44 -21 44 -47c0 -27 -19 -45 -44 -45z" />
    <glyph glyph-name="Alphatonos" unicode="&#x386;" horiz-adv-x="691" 
d="M673 0h-245v28c63 8 72 16 59 55s-33 93 -55 154h-213c-16 -45 -31 -87 -44 -129c-22 -63 -13 -73 62 -80v-28h-217v28c63 9 77 15 112 103l207 525l31 9l193 -536c32 -86 45 -95 110 -101v-28zM418 280l-88 255h-2l-94 -255h184zM208 696l-67 -169l-28 1
c4 47 15 132 15 163c9 9 64 17 76 14z" />
    <glyph glyph-name="anoteleia" unicode="&#x387;" horiz-adv-x="230" 
d="M115 198h-1c-36 0 -64 27 -64 68c0 37 28 66 65 66s65 -29 65 -66c0 -41 -28 -68 -65 -68z" />
    <glyph glyph-name="Epsilontonos" unicode="&#x388;" horiz-adv-x="568" 
d="M516 162l30 -4c-6 -33 -26 -127 -35 -158h-482v28c91 7 99 15 99 96v398c0 90 -8 93 -86 100v28h446c0 -25 5 -93 8 -144l-29 -5c-9 42 -19 64 -32 86c-14 21 -41 28 -113 28h-76c-31 0 -33 -2 -33 -32v-227h94c90 0 95 8 108 75h29v-192h-29c-13 72 -20 78 -107 78h-95
v-189c0 -47 6 -68 24 -81c19 -12 54 -13 104 -13c76 0 104 8 126 34c17 20 36 54 49 94zM4 696l-67 -169l-28 1c4 47 15 132 15 163c9 9 64 17 76 14z" />
    <glyph glyph-name="Etatonos" unicode="&#x389;" horiz-adv-x="766" 
d="M729 650v-28c-82 -7 -90 -12 -90 -95v-404c0 -84 8 -89 89 -95v-28h-268v28c85 6 94 11 94 95v200h-341v-200c0 -83 8 -89 90 -95v-28h-263v28c80 6 88 11 88 95v404c0 84 -8 88 -90 95v28h259v-28c-76 -7 -84 -12 -84 -95v-162h341v162c0 83 -8 88 -86 95v28h261z
M-3 696l-67 -169l-28 1c4 47 15 132 15 163c9 9 64 17 76 14z" />
    <glyph glyph-name="Iotatonos" unicode="&#x38a;" horiz-adv-x="341" 
d="M303 0h-265v28c82 6 90 12 90 97v400c0 85 -8 91 -90 97v28h265v-28c-82 -6 -90 -12 -90 -97v-400c0 -86 8 -91 90 -97v-28zM-3 696l-67 -169l-28 1c4 47 15 132 15 163c9 9 64 17 76 14z" />
    <glyph glyph-name="Omicrontonos" unicode="&#x38c;" horiz-adv-x="747" 
d="M380 665h1c169 0 322 -132 322 -332c0 -216 -151 -348 -334 -348c-181 0 -325 141 -325 333c0 180 126 347 336 347zM360 629h-1c-111 0 -213 -96 -213 -283c0 -188 103 -325 244 -325c111 0 211 93 211 285c0 211 -110 323 -241 323zM70 686l-67 -169l-28 1
c4 47 15 132 15 163c9 9 64 17 76 14z" />
    <glyph glyph-name="Upsilontonos" unicode="&#x38e;" horiz-adv-x="655" 
d="M648 625l-5 -14c-7 0 -9 1 -14 1c-52 0 -117 -39 -168 -120c-59 -91 -93 -199 -93 -298v-72c0 -80 9 -89 100 -95v-27h-284v27c91 6 99 15 99 95v78c0 108 -13 190 -53 273c-44 94 -106 136 -186 136c-12 0 -25 -1 -38 -3l-5 26c32 17 82 33 122 33
c91 0 140 -66 173 -149c29 -68 39 -149 44 -207h5c14 71 32 127 59 180c42 96 114 176 194 176c22 0 40 -21 50 -40zM-34 696l-67 -169l-28 1c4 47 15 132 15 163c9 9 64 17 76 14z" />
    <glyph glyph-name="Omegatonos" unicode="&#x38f;" horiz-adv-x="757" 
d="M719 146l-18 -146h-244l-4 18c31 49 134 179 134 345c0 160 -78 268 -205 268c-126 0 -204 -102 -204 -271c0 -157 105 -289 136 -342l-7 -18h-244l-17 146l27 1c24 -67 37 -75 77 -75h89c-51 52 -162 149 -162 289c0 180 135 304 306 304c174 0 305 -119 305 -301
c0 -140 -116 -239 -161 -292h84c46 0 55 5 80 75zM80 686l-67 -169l-28 1c4 47 15 132 15 163c9 9 64 17 76 14z" />
    <glyph glyph-name="iotadieresistonos" unicode="&#x390;" horiz-adv-x="245" 
d="M230 57l8 -26c-25 -18 -60 -43 -97 -43c-28 0 -70 20 -70 97v347l80 18v-333c0 -56 18 -68 39 -68c14 0 28 3 40 8zM224 532h-1c-27 0 -45 18 -45 44s18 47 46 47c25 0 43 -21 43 -46c0 -27 -18 -45 -43 -45zM189 678l-94 -173l-28 6c16 57 31 114 43 164
c12 5 67 13 76 11zM8 532h-1c-25 0 -44 18 -44 44s19 47 45 47c25 0 44 -21 44 -47s-19 -44 -44 -44z" />
    <glyph glyph-name="Alpha" unicode="&#x391;" horiz-adv-x="691" 
d="M673 0h-245v28c63 8 72 16 59 55s-33 93 -55 154h-213c-16 -45 -31 -87 -44 -129c-22 -63 -13 -73 62 -80v-28h-217v28c63 9 77 15 112 103l207 525l31 9l193 -536c32 -86 45 -95 110 -101v-28zM418 280l-88 255h-2l-94 -255h184z" />
    <glyph glyph-name="Beta" unicode="&#x392;" horiz-adv-x="588" 
d="M372 353v-3c99 -15 177 -59 177 -159c0 -67 -37 -118 -96 -151c-51 -28 -117 -40 -196 -40h-221v28c86 6 92 12 92 96v403c0 83 -4 89 -84 95v28h257c75 0 119 -12 150 -34c36 -24 56 -68 56 -114c0 -95 -79 -134 -135 -149zM212 362h47c110 0 156 44 156 128
c0 68 -38 128 -133 128c-25 0 -47 -4 -57 -10c-9 -6 -13 -17 -13 -50v-196zM212 329v-204c0 -72 19 -91 83 -91c82 1 155 43 155 147c0 103 -70 148 -192 148h-46z" />
    <glyph glyph-name="Gamma" unicode="&#x393;" horiz-adv-x="507" 
d="M485 501l-30 -4c-11 44 -20 71 -35 90c-16 21 -38 28 -103 28h-73c-28 0 -32 -3 -32 -31v-458c0 -83 8 -92 99 -98v-28h-271v28c78 6 86 16 86 98v398c0 82 -7 92 -85 98v28h434c0 -36 5 -100 10 -149z" />
    <glyph glyph-name="uni0394" unicode="&#x394;" horiz-adv-x="641" 
d="M600 0h-556v24l268 633l27 8l261 -641v-24zM498 50l-195 489l-196 -489h391z" />
    <glyph glyph-name="Epsilon" unicode="&#x395;" horiz-adv-x="568" 
d="M516 162l30 -4c-6 -33 -26 -127 -35 -158h-482v28c91 7 99 15 99 96v398c0 90 -8 93 -86 100v28h446c0 -25 5 -93 8 -144l-29 -5c-9 42 -19 64 -32 86c-14 21 -41 28 -113 28h-76c-31 0 -33 -2 -33 -32v-227h94c90 0 95 8 108 75h29v-192h-29c-13 72 -20 78 -107 78h-95
v-189c0 -47 6 -68 24 -81c19 -12 54 -13 104 -13c76 0 104 8 126 34c17 20 36 54 49 94z" />
    <glyph glyph-name="Zeta" unicode="&#x396;" horiz-adv-x="603" 
d="M561 176l30 -6c-8 -36 -26 -129 -37 -170h-517l-8 15l421 599h-174c-108 0 -124 -9 -141 -36c-12 -18 -23 -43 -34 -87h-30c5 64 11 139 12 184h24c12 -23 23 -25 53 -25h399l7 -14l-413 -594c33 -4 94 -6 163 -6c125 0 163 7 191 37c20 22 36 54 54 103z" />
    <glyph glyph-name="Eta" unicode="&#x397;" horiz-adv-x="766" 
d="M729 650v-28c-82 -7 -90 -12 -90 -95v-404c0 -84 8 -89 89 -95v-28h-268v28c85 6 94 11 94 95v200h-341v-200c0 -83 8 -89 90 -95v-28h-263v28c80 6 88 11 88 95v404c0 84 -8 88 -90 95v28h259v-28c-76 -7 -84 -12 -84 -95v-162h341v162c0 83 -8 88 -86 95v28h261z" />
    <glyph glyph-name="Theta" unicode="&#x398;" horiz-adv-x="739" 
d="M376 665h1c169 0 318 -132 318 -331c0 -216 -148 -349 -331 -349c-181 0 -320 142 -320 332c0 177 122 348 332 348zM356 629h-1c-110 0 -209 -96 -209 -284c0 -187 100 -323 239 -323c111 0 208 91 208 283c0 210 -102 324 -237 324zM502 225h-31c-7 68 -12 75 -60 75
h-85c-48 0 -53 -7 -60 -75h-31v218h31c7 -69 12 -74 60 -74h85c48 0 53 5 60 74h31v-218z" />
    <glyph glyph-name="Iota" unicode="&#x399;" horiz-adv-x="341" 
d="M303 0h-265v28c82 6 90 12 90 97v400c0 85 -8 91 -90 97v28h265v-28c-82 -6 -90 -12 -90 -97v-400c0 -86 8 -91 90 -97v-28z" />
    <glyph glyph-name="Kappa" unicode="&#x39a;" horiz-adv-x="673" 
d="M667 0h-154l-248 291c-23 27 -37 31 -54 28v-190c0 -88 10 -95 92 -101v-28h-260v28c76 6 85 13 85 101v391c0 91 -9 96 -88 102v28h258v-28c-77 -6 -87 -13 -87 -102v-175c22 6 42 20 70 46c55 53 123 122 168 177c29 36 29 46 -17 51l-22 3v28h240v-28
c-76 -7 -99 -17 -163 -75c-38 -35 -109 -106 -177 -175c76 -94 185 -218 235 -272c53 -57 73 -66 122 -72v-28z" />
    <glyph glyph-name="Lambda" unicode="&#x39b;" horiz-adv-x="686" 
d="M671 0h-247v28c65 9 75 19 60 64l-155 438h-2c-51 -148 -110 -294 -149 -415c-22 -68 -11 -77 63 -87v-28h-221v28c64 11 78 19 114 111l202 516l32 10l194 -535c31 -83 46 -94 109 -102v-28z" />
    <glyph glyph-name="Mu" unicode="&#x39c;" horiz-adv-x="891" 
d="M861 0h-263v28c81 8 85 13 84 119l-3 408h-4l-244 -548h-20l-224 534h-2l-15 -285c-4 -82 -4 -126 -3 -166c2 -48 26 -55 92 -62v-28h-233v28c58 7 78 18 85 60c5 35 11 79 19 183l14 208c9 130 4 134 -87 143v28h164l228 -500l231 500h170v-28c-88 -8 -95 -10 -92 -113
l10 -362c3 -106 6 -111 93 -119v-28z" />
    <glyph glyph-name="Nu" unicode="&#x39d;" horiz-adv-x="743" 
d="M719 650v-28c-56 -3 -80 -16 -84 -60c-4 -30 -6 -75 -6 -168v-403h-31l-426 524h-2v-251c0 -92 3 -140 6 -169c5 -51 28 -63 96 -67v-28h-237v28c58 3 83 16 88 65c3 31 6 79 6 171v220c0 73 -2 77 -20 101c-20 25 -42 33 -89 37v28h148l417 -502h3v246
c0 92 -4 138 -7 166c-5 45 -29 58 -98 62v28h236z" />
    <glyph glyph-name="Xi" unicode="&#x39e;" horiz-adv-x="607" 
d="M534 494h-29c-17 73 -20 88 -83 88h-234c-61 0 -65 -18 -82 -88h-29l8 156h441zM472 234h-29c-10 63 -17 71 -70 71h-136c-53 0 -59 -8 -69 -71h-29v210h30c10 -62 15 -70 62 -70h142c53 0 60 8 69 70h30v-210zM560 171l-10 -171h-488l-11 171h28c27 -78 34 -99 116 -99
h221c82 0 90 19 116 99h28z" />
    <glyph glyph-name="Omicron" unicode="&#x39f;" horiz-adv-x="747" 
d="M380 665h1c169 0 322 -132 322 -332c0 -216 -151 -348 -334 -348c-181 0 -325 141 -325 333c0 180 126 347 336 347zM360 629h-1c-111 0 -213 -96 -213 -283c0 -188 103 -325 244 -325c111 0 211 93 211 285c0 211 -110 323 -241 323z" />
    <glyph glyph-name="Pi" unicode="&#x3a0;" horiz-adv-x="738" 
d="M703 650v-28c-83 -7 -91 -17 -91 -96v-402c0 -80 8 -90 88 -96v-28h-266v28c85 6 93 17 93 96v459c0 27 -6 30 -33 30h-249c-30 0 -34 -4 -34 -32v-457c0 -80 9 -90 87 -96v-28h-258v28c77 6 86 17 86 96v402c0 81 -8 89 -90 96v28h667z" />
    <glyph glyph-name="Rho" unicode="&#x3a1;" horiz-adv-x="563" 
d="M46 650h247c71 0 128 -12 168 -42c39 -29 65 -75 65 -141c0 -129 -98 -192 -195 -205c-15 -1 -34 -1 -45 0l-74 19v-157c0 -85 9 -90 99 -96v-28h-271v28c80 6 88 14 88 97v400c0 88 -8 92 -82 97v28zM212 559v-245c13 -5 40 -12 73 -12c65 0 145 35 145 162
c0 108 -69 154 -151 154c-28 0 -49 -5 -56 -12c-8 -7 -11 -19 -11 -47z" />
    <glyph glyph-name="Sigma" unicode="&#x3a3;" horiz-adv-x="598" 
d="M570 168l-39 -168h-498v22l262 302l-249 304v22h472c1 -17 6 -91 11 -146l-29 -4c-12 46 -22 71 -37 88c-16 20 -41 26 -115 26h-181l211 -256l-243 -287h280c66 0 95 18 126 104z" />
    <glyph glyph-name="Tau" unicode="&#x3a4;" horiz-adv-x="617" 
d="M592 498l-29 -3c-11 48 -20 73 -32 89c-16 24 -33 31 -108 31h-71v-492c0 -79 8 -89 103 -95v-28h-287v28c91 6 99 16 99 95v492h-62c-83 0 -103 -8 -116 -31c-12 -17 -20 -45 -32 -89h-29c5 60 10 125 12 180h20c14 -23 27 -25 55 -25h395c27 0 35 6 51 25h21
c0 -46 5 -119 10 -177z" />
    <glyph glyph-name="Upsilon" unicode="&#x3a5;" horiz-adv-x="655" 
d="M648 625l-5 -14c-7 0 -9 1 -14 1c-52 0 -117 -39 -168 -120c-59 -91 -93 -199 -93 -298v-72c0 -80 9 -89 100 -95v-27h-284v27c91 6 99 15 99 95v78c0 108 -13 190 -53 273c-44 94 -106 136 -186 136c-12 0 -25 -1 -38 -3l-5 26c32 17 82 33 122 33
c91 0 140 -66 173 -149c29 -68 39 -149 44 -207h5c14 71 32 127 59 180c42 96 114 176 194 176c22 0 40 -21 50 -40z" />
    <glyph glyph-name="Phi" unicode="&#x3a6;" horiz-adv-x="754" 
d="M489 658v-28c-64 -5 -71 -11 -71 -51c120 -4 292 -62 292 -242c0 -184 -176 -249 -292 -252c0 -47 8 -53 71 -57v-28h-223v28c62 4 70 10 70 57c-114 3 -292 62 -292 244c0 180 173 246 292 250c0 40 -8 46 -65 51v28h218zM336 118v429c-85 -5 -200 -57 -200 -210
c0 -157 113 -213 200 -219zM418 547v-429c85 6 201 56 201 215c0 158 -116 210 -201 214z" />
    <glyph glyph-name="Chi" unicode="&#x3a7;" horiz-adv-x="654" 
d="M655 0h-263v28c62 7 69 16 50 49l-133 214c-48 -74 -89 -143 -121 -202c-24 -43 -19 -53 48 -61v-28h-229v28c57 6 88 19 117 57c24 31 76 103 163 239l-134 214c-42 65 -56 76 -127 84v28h245v-28c-60 -7 -62 -16 -47 -42c33 -57 71 -115 115 -182c42 64 72 113 98 162
c25 44 20 54 -47 62v28h229v-28c-74 -8 -93 -18 -138 -77c-21 -29 -54 -76 -122 -179l158 -246c46 -70 69 -85 138 -92v-28z" />
    <glyph glyph-name="Psi" unicode="&#x3a8;" horiz-adv-x="725" 
d="M700 659l10 -27c-45 -23 -51 -52 -63 -113l-14 -69c-14 -72 -33 -104 -74 -135c-41 -32 -88 -46 -155 -48v-145c0 -76 8 -89 85 -94v-28h-256v28c77 5 85 18 85 94v145c-62 2 -119 15 -162 49c-40 31 -59 67 -70 136l-13 72c-9 59 -11 87 -58 108l10 27
c34 -5 78 -16 106 -50c14 -18 22 -36 30 -79l11 -59c22 -124 60 -163 146 -169v226c0 76 -8 88 -80 94v28h246v-28c-72 -6 -80 -18 -80 -94v-226c100 5 127 40 149 170l10 58c7 42 16 61 33 79c26 31 70 45 104 50z" />
    <glyph glyph-name="uni03A9" unicode="&#x3a9;" horiz-adv-x="757" 
d="M719 146l-18 -146h-244l-4 18c31 49 134 179 134 345c0 160 -78 268 -205 268c-126 0 -204 -102 -204 -271c0 -157 105 -289 136 -342l-7 -18h-244l-17 146l27 1c24 -67 37 -75 77 -75h89c-51 52 -162 149 -162 289c0 180 135 304 306 304c174 0 305 -119 305 -301
c0 -140 -116 -239 -161 -292h84c46 0 55 5 80 75z" />
    <glyph glyph-name="Iotadieresis" unicode="&#x3aa;" horiz-adv-x="341" 
d="M303 0h-265v28c82 6 90 12 90 97v400c0 85 -8 91 -90 97v28h265v-28c-82 -6 -90 -12 -90 -97v-400c0 -86 8 -91 90 -97v-28zM266 794h1c26 0 47 -21 47 -49c0 -26 -21 -48 -48 -48c-25 0 -47 22 -47 48c0 28 22 49 47 49zM76 794h1c26 0 46 -21 46 -50
c0 -25 -20 -48 -47 -48c-26 0 -48 23 -48 48c0 29 22 50 48 50z" />
    <glyph glyph-name="Upsilondieresis" unicode="&#x3ab;" horiz-adv-x="655" 
d="M648 625l-5 -14c-7 0 -9 1 -14 1c-52 0 -117 -39 -168 -120c-59 -91 -93 -199 -93 -298v-72c0 -80 9 -89 100 -95v-27h-284v27c91 6 99 15 99 95v78c0 108 -13 190 -53 273c-44 94 -106 136 -186 136c-12 0 -25 -1 -38 -3l-5 26c32 17 82 33 122 33
c91 0 140 -66 173 -149c29 -68 39 -149 44 -207h5c14 71 32 127 59 180c42 96 114 176 194 176c22 0 40 -21 50 -40zM438 794h1c26 0 47 -21 47 -49c0 -26 -21 -48 -48 -48c-25 0 -47 22 -47 48c0 28 22 49 47 49zM248 794h1c26 0 46 -21 46 -50c0 -25 -20 -48 -47 -48
c-26 0 -48 23 -48 48c0 29 22 50 48 50z" />
    <glyph glyph-name="alphatonos" unicode="&#x3ac;" horiz-adv-x="523" 
d="M506 73l11 -23c-24 -45 -57 -62 -88 -62c-35 0 -71 27 -81 122h-2c-39 -80 -103 -122 -149 -122c-82 0 -161 89 -161 205c0 89 48 164 106 209c39 32 80 50 107 50c38 0 82 -34 106 -104h3c3 22 7 41 12 59c16 15 43 32 63 43l14 -9c-9 -26 -30 -136 -31 -239
c0 -105 26 -144 51 -144c12 0 27 6 39 15zM219 398h-1c-60 0 -99 -81 -99 -171c1 -104 58 -173 106 -173c61 0 116 81 116 160v27c0 80 -53 157 -122 157zM326 666l-67 -169l-28 1c4 47 15 132 15 163c9 9 64 17 76 14z" />
    <glyph glyph-name="epsilontonos" unicode="&#x3ad;" horiz-adv-x="403" 
d="M371 117l20 -21c-38 -66 -99 -108 -183 -108c-93 0 -169 49 -169 135c0 68 62 92 110 110v2c-56 11 -92 43 -92 95c0 70 74 119 172 119c95 0 134 -41 134 -76c0 -20 -17 -39 -41 -39c-11 0 -19 4 -22 15c-13 45 -37 68 -79 68c-47 0 -80 -34 -80 -80
c0 -39 32 -72 89 -72c23 0 47 2 64 3l4 -8l-26 -49c-12 2 -28 3 -49 3c-67 0 -96 -29 -96 -69c0 -59 50 -95 111 -95c55 0 96 24 133 67zM282 666l-67 -169l-28 1c4 47 15 132 15 163c9 9 64 17 76 14z" />
    <glyph glyph-name="etatonos" unicode="&#x3ae;" horiz-adv-x="509" 
d="M441 -250l-7 -8c-24 2 -64 20 -80 33c2 165 5 329 6 494c0 69 -24 119 -87 119c-43 0 -88 -35 -106 -52v-336c-28 -3 -56 -7 -84 -11c3 46 4 97 4 149v178c0 61 -5 63 -60 74v23c12 7 87 32 122 36c11 -12 18 -47 18 -77c18 14 39 29 64 47c27 18 54 30 80 30
c79 0 124 -54 125 -161v-130c0 -191 3 -355 5 -408zM325 666l-67 -169l-28 1c4 47 15 132 15 163c9 9 64 17 76 14z" />
    <glyph glyph-name="iotatonos" unicode="&#x3af;" horiz-adv-x="245" 
d="M230 57l8 -26c-25 -18 -60 -43 -97 -43c-28 0 -70 20 -70 97v347l80 18v-333c0 -56 18 -68 39 -68c14 0 28 3 40 8zM184 666l-67 -169l-28 1c4 47 15 132 15 163c9 9 64 17 76 14z" />
    <glyph glyph-name="upsilondieresistonos" unicode="&#x3b0;" horiz-adv-x="481" 
d="M293 424v9c5 5 34 16 52 16c31 0 96 -57 96 -176c0 -159 -106 -285 -213 -285c-75 0 -137 46 -137 149c0 54 1 122 1 180c0 53 -14 70 -38 70c-14 0 -27 -3 -39 -7l-8 26c25 16 71 43 105 43c36 0 59 -33 59 -104v-192c0 -69 42 -105 89 -105c68 0 112 47 112 194
c0 102 -42 160 -79 182zM341 532h-1c-27 0 -45 18 -45 44s18 47 46 47c25 0 43 -21 43 -46c0 -27 -18 -45 -43 -45zM306 678l-94 -173l-28 6c16 57 31 114 43 164c12 5 67 13 76 11zM125 532h-1c-25 0 -44 18 -44 44s19 47 45 47c25 0 44 -21 44 -47s-19 -44 -44 -44z" />
    <glyph glyph-name="alpha" unicode="&#x3b1;" horiz-adv-x="523" 
d="M506 73l11 -23c-24 -45 -57 -62 -88 -62c-35 0 -71 27 -81 122h-2c-39 -80 -103 -122 -149 -122c-82 0 -161 89 -161 205c0 89 48 164 106 209c39 32 80 50 107 50c38 0 82 -34 106 -104h3c3 22 7 41 12 59c16 15 43 32 63 43l14 -9c-9 -26 -30 -136 -31 -239
c0 -105 26 -144 51 -144c12 0 27 6 39 15zM219 398h-1c-60 0 -99 -81 -99 -171c1 -104 58 -173 106 -173c61 0 116 81 116 160v27c0 80 -53 157 -122 157z" />
    <glyph glyph-name="beta" unicode="&#x3b2;" horiz-adv-x="510" 
d="M71 -219v588c0 140 20 216 68 272c41 49 90 71 137 71c88 0 145 -64 145 -154c0 -82 -60 -125 -104 -157c40 -8 76 -25 101 -46c39 -33 55 -78 55 -132c0 -150 -166 -238 -239 -238c-30 0 -57 18 -85 46c1 -99 9 -237 10 -282l-8 -8c-26 0 -68 21 -80 40zM212 352l17 51
c28 2 50 6 65 17c26 21 51 55 51 113c0 78 -44 133 -105 133c-96 0 -94 -136 -94 -272c0 -93 0 -218 3 -316c42 -28 79 -36 110 -36c87 0 132 41 132 149c0 101 -70 163 -155 163c-7 0 -16 0 -24 -2z" />
    <glyph glyph-name="gamma" unicode="&#x3b3;" horiz-adv-x="495" 
d="M288 57h3c38 74 101 216 101 297c0 21 -6 43 -13 57c-1 4 0 9 5 14c12 14 35 27 50 27c20 0 30 -28 30 -60c0 -68 -38 -148 -117 -294c-21 -40 -45 -94 -51 -111c2 -53 11 -157 11 -203c-16 -17 -61 -39 -88 -42l-15 12c2 45 27 181 33 230c-3 75 -38 244 -106 349
c-29 47 -47 59 -108 46l-6 26c28 18 86 44 117 44c28 0 61 -35 91 -116c39 -100 53 -196 63 -276z" />
    <glyph glyph-name="delta" unicode="&#x3b4;" horiz-adv-x="497" 
d="M448 586l-11 -21c-71 64 -141 93 -199 93c-39 0 -51 -12 -51 -27c0 -17 40 -69 114 -138c108 -97 159 -164 159 -275c0 -147 -110 -230 -214 -230c-134 0 -209 113 -209 223c0 119 75 194 195 233c-68 71 -98 111 -98 149c0 59 68 118 139 119c100 1 160 -76 175 -126z
M375 198v1c0 107 -72 180 -119 223c-85 -26 -125 -97 -125 -200c0 -113 58 -200 128 -200c61 0 116 51 116 176z" />
    <glyph glyph-name="epsilon" unicode="&#x3b5;" horiz-adv-x="403" 
d="M371 117l20 -21c-38 -66 -99 -108 -183 -108c-93 0 -169 49 -169 135c0 68 62 92 110 110v2c-56 11 -92 43 -92 95c0 70 74 119 172 119c95 0 134 -41 134 -76c0 -20 -17 -39 -41 -39c-11 0 -19 4 -22 15c-13 45 -37 68 -79 68c-47 0 -80 -34 -80 -80
c0 -39 32 -72 89 -72c23 0 47 2 64 3l4 -8l-26 -49c-12 2 -28 3 -49 3c-67 0 -96 -29 -96 -69c0 -59 50 -95 111 -95c55 0 96 24 133 67z" />
    <glyph glyph-name="zeta" unicode="&#x3b6;" horiz-adv-x="381" 
d="M131 736l15 -4c0 -57 45 -99 92 -101c38 34 87 66 117 66c14 0 18 -4 18 -13c0 -30 -17 -55 -41 -68s-51 -20 -79 -22c-69 -74 -133 -194 -133 -342c0 -95 28 -148 93 -167c17 -4 35 -10 50 -14c52 -13 97 -37 97 -100c0 -71 -59 -130 -70 -142l-25 17c11 23 25 55 25 84
c0 35 -17 57 -68 69c-19 5 -37 10 -57 16c-80 22 -127 83 -127 207c0 145 76 281 171 374c-65 5 -121 38 -122 76c0 19 16 45 44 64z" />
    <glyph glyph-name="eta" unicode="&#x3b7;" horiz-adv-x="509" 
d="M441 -250l-7 -8c-24 2 -64 20 -80 33c2 165 5 329 6 494c0 69 -24 119 -87 119c-43 0 -88 -35 -106 -52v-336c-28 -3 -56 -7 -84 -11c3 46 4 97 4 149v178c0 61 -5 63 -60 74v23c12 7 87 32 122 36c11 -12 18 -47 18 -77c18 14 39 29 64 47c27 18 54 30 80 30
c79 0 124 -54 125 -161v-130c0 -191 3 -355 5 -408z" />
    <glyph glyph-name="theta" unicode="&#x3b8;" horiz-adv-x="490" 
d="M452 359v-1c0 -203 -65 -370 -212 -370c-136 0 -203 167 -203 362s78 362 211 362c140 0 204 -167 204 -353zM124 391h240c-3 143 -40 287 -119 287c-72 0 -119 -139 -121 -287zM365 341h-242c2 -178 52 -319 126 -319c79 0 115 140 116 319z" />
    <glyph glyph-name="iota" unicode="&#x3b9;" horiz-adv-x="245" 
d="M230 57l8 -26c-25 -18 -60 -43 -97 -43c-28 0 -70 20 -70 97v347l80 18v-333c0 -56 18 -68 39 -68c14 0 28 3 40 8z" />
    <glyph glyph-name="kappa" unicode="&#x3ba;" horiz-adv-x="493" 
d="M481 58l4 -28c-26 -32 -60 -42 -87 -42c-26 0 -54 12 -94 68c-29 41 -61 92 -100 157c-8 -9 -21 -22 -39 -48v-165c-27 -3 -54 -7 -82 -11c2 42 4 95 4 152v191c0 46 -4 49 -60 58v23c11 7 91 33 125 36c9 -9 13 -41 13 -91v-148c20 29 103 131 140 170
c53 54 80 70 106 70c28 0 44 -22 44 -42c0 -17 -9 -34 -18 -41c-5 -5 -9 -5 -15 -1c-8 5 -21 10 -35 10c-38 0 -91 -55 -128 -100c15 -31 66 -113 110 -171c34 -46 56 -57 74 -57c15 0 26 4 38 10z" />
    <glyph glyph-name="lambda" unicode="&#x3bb;" horiz-adv-x="493" 
d="M474 53l9 -24c-22 -23 -59 -41 -93 -41c-42 0 -66 33 -96 128l-75 246c-36 -120 -98 -291 -127 -353l-70 -21l-7 12c59 109 134 271 185 428c-11 40 -21 76 -32 106c-31 95 -57 123 -96 123c-12 0 -28 -5 -40 -9l-7 23c29 25 66 42 96 42c47 0 92 -39 144 -227
c28 -100 69 -239 114 -364c22 -64 42 -76 61 -76c10 0 22 2 34 7z" />
    <glyph glyph-name="uni03BC" unicode="&#x3bc;" horiz-adv-x="512" 
d="M498 54l10 -26c-16 -20 -51 -40 -85 -40c-42 0 -72 32 -78 78h-2c-38 -44 -82 -78 -133 -78c-36 0 -66 19 -82 42h-4v-16c-1 -79 22 -219 37 -259l-13 -12c-22 2 -60 23 -75 39c-5 16 -2 154 -2 259v294c0 36 -1 73 -3 96l81 19c2 -24 2 -69 2 -106v-171
c0 -96 51 -123 92 -123c42 0 81 30 99 53v329l80 18v-336c0 -55 20 -70 41 -70c12 0 26 5 35 10z" />
    <glyph glyph-name="nu" unicode="&#x3bd;" horiz-adv-x="476" 
d="M25 379l-7 26c33 21 81 44 108 44c24 0 44 -19 72 -94c26 -74 61 -185 85 -259c35 63 94 170 94 244c0 27 -7 47 -18 62c-4 6 -4 12 1 21c8 14 27 27 42 27c26 0 44 -35 44 -68c0 -69 -60 -167 -125 -285l-59 -109h-25c-38 126 -83 253 -108 318c-24 62 -42 78 -65 78
c-15 0 -25 -1 -39 -5z" />
    <glyph glyph-name="xi" unicode="&#x3be;" horiz-adv-x="404" 
d="M349 396l-36 -54c-15 2 -33 3 -57 3c-77 0 -138 -48 -138 -138c0 -63 30 -106 115 -127c12 -3 30 -7 51 -12c42 -10 101 -31 101 -102c0 -68 -59 -127 -69 -136l-25 14c12 23 25 54 25 85c0 32 -19 54 -65 66c-21 6 -40 10 -62 15c-103 23 -151 73 -151 164
c0 59 32 128 129 183c-51 14 -87 58 -87 112c0 51 27 102 91 144c-53 6 -101 37 -102 66c0 21 17 46 35 59l16 -3c1 -46 41 -85 88 -89c42 25 97 47 138 47c15 0 19 -6 18 -16c-7 -33 -26 -50 -43 -58c-23 -7 -66 -13 -106 -10c-35 -22 -62 -60 -62 -109
c0 -42 29 -97 116 -97c23 0 55 2 74 4z" />
    <glyph glyph-name="omicron" unicode="&#x3bf;" horiz-adv-x="510" 
d="M256 449h1c123 0 216 -99 216 -223c0 -161 -118 -238 -217 -238c-137 0 -219 110 -219 221c0 165 128 240 219 240zM246 416h-1c-61 0 -115 -62 -115 -175c0 -126 55 -220 137 -220c62 0 113 46 113 183c0 117 -47 212 -134 212z" />
    <glyph glyph-name="pi" unicode="&#x3c0;" horiz-adv-x="531" 
d="M486 466l27 -6c-5 -38 -15 -68 -24 -84c-14 -4 -56 -4 -76 -4c-4 -72 -4 -152 -4 -225c1 -69 18 -93 41 -93c13 0 28 4 42 10l11 -20c-21 -32 -57 -56 -91 -56c-39 0 -74 27 -74 126c0 93 4 175 9 260c-56 1 -99 1 -140 1v-20c0 -242 -43 -336 -52 -349
c-28 -12 -48 -17 -65 -18l-8 18c60 89 79 265 79 370c-60 0 -97 -11 -128 -36l-16 24c24 29 69 78 175 77c69 -1 165 -3 243 -3c28 0 38 4 51 28z" />
    <glyph glyph-name="rho" unicode="&#x3c1;" horiz-adv-x="501" 
d="M75 -257l-7 10c6 24 6 75 6 140c-1 104 -3 222 -3 295c0 81 15 155 93 214c42 33 89 47 120 47c117 0 180 -98 180 -201c0 -159 -147 -258 -234 -260c-27 0 -58 15 -79 37c1 -56 6 -200 4 -240c-8 -20 -55 -40 -80 -42zM382 214v1c0 97 -53 184 -139 184
c-77 0 -94 -73 -94 -177c0 -46 0 -100 2 -139c24 -24 66 -43 101 -43c68 0 130 41 130 174z" />
    <glyph glyph-name="uni03C2" unicode="&#x3c2;" horiz-adv-x="403" 
d="M301 -158l-25 18c22 29 30 58 30 79c0 34 -23 52 -86 65c-16 4 -32 7 -46 11c-100 28 -137 93 -137 186c0 85 42 147 98 191c43 34 95 57 147 57c38 0 63 -9 81 -20c13 -10 18 -20 18 -33c-1 -22 -25 -46 -38 -46c-6 0 -11 3 -21 11c-29 23 -60 34 -92 34
c-75 0 -118 -61 -118 -154c0 -92 41 -138 111 -155c14 -4 29 -7 49 -12c57 -14 104 -36 104 -101c0 -59 -47 -109 -75 -131z" />
    <glyph glyph-name="sigma" unicode="&#x3c3;" horiz-adv-x="515" 
d="M280 448h1c61 0 114 -4 155 -4c19 0 38 2 56 24l25 -13c-8 -30 -22 -67 -37 -77c-39 1 -84 6 -122 10l-2 -2c67 -39 94 -104 94 -166c0 -151 -103 -232 -203 -232c-136 0 -210 105 -210 224c0 144 103 237 243 236zM258 396h-1c-70 0 -130 -59 -130 -180
c0 -107 52 -194 127 -194c63 0 114 50 114 189c0 56 -12 104 -35 140c-21 33 -50 45 -75 45z" />
    <glyph glyph-name="tau" unicode="&#x3c4;" horiz-adv-x="446" 
d="M401 465l29 -4c-7 -41 -16 -72 -23 -85c-14 -4 -49 -4 -75 -4c-23 1 -48 2 -70 2c-4 -76 -4 -154 -3 -225c0 -74 23 -94 48 -94c15 0 32 4 46 10l11 -24c-21 -28 -61 -53 -98 -53c-46 0 -79 26 -79 122c0 95 4 180 9 267c-73 1 -120 -4 -166 -37l-15 24
c23 30 71 76 165 76c55 0 105 -2 167 -3c28 0 42 3 54 28z" />
    <glyph glyph-name="upsilon" unicode="&#x3c5;" horiz-adv-x="481" 
d="M293 424v9c5 5 34 16 52 16c31 0 96 -57 96 -176c0 -159 -106 -285 -213 -285c-75 0 -137 46 -137 149c0 54 1 122 1 180c0 53 -14 70 -38 70c-14 0 -27 -3 -39 -7l-8 26c25 16 71 43 105 43c36 0 59 -33 59 -104v-192c0 -69 42 -105 89 -105c68 0 112 47 112 194
c0 102 -42 160 -79 182z" />
    <glyph glyph-name="phi" unicode="&#x3c6;" horiz-adv-x="587" 
d="M232 460l14 -28c-56 -32 -122 -79 -122 -194c0 -118 69 -183 135 -198c-2 88 -2 164 -2 228c2 131 73 181 135 181c75 0 158 -75 158 -204c0 -144 -101 -232 -217 -250c0 -49 3 -102 3 -209c-9 -21 -48 -42 -75 -43l-6 5c3 42 3 116 3 242c-134 7 -222 99 -222 228
c0 135 101 203 196 242zM372 407h-1c-29 0 -40 -20 -40 -104c1 -74 -1 -168 2 -267c70 4 142 65 142 192c0 119 -60 179 -103 179z" />
    <glyph glyph-name="chi" unicode="&#x3c7;" horiz-adv-x="467" 
d="M487 -195l7 -29c-28 -23 -59 -34 -85 -34c-35 0 -64 20 -97 98c-25 58 -47 122 -81 219l-145 -329l-11 -2c-18 7 -37 27 -40 50l177 335c-23 67 -53 146 -76 200c-24 57 -41 73 -65 73c-15 0 -29 -4 -46 -11l-8 26c32 27 72 48 101 48c35 0 60 -33 81 -83
c20 -44 45 -118 65 -169c47 97 91 196 108 230l71 22l7 -10c-30 -45 -95 -158 -167 -295c35 -98 78 -212 101 -264c29 -67 54 -89 103 -75z" />
    <glyph glyph-name="psi" unicode="&#x3c8;" horiz-adv-x="605" 
d="M581 449l11 -27c-32 -26 -42 -51 -52 -99c-9 -39 -20 -99 -36 -166c-19 -79 -52 -113 -88 -137c-21 -14 -49 -24 -69 -26l-4 -246l-9 -5c-21 3 -41 14 -43 114l-1 132c-96 2 -164 45 -184 171c-9 59 -13 99 -20 149c-10 61 -25 74 -43 74c-10 0 -19 -2 -28 -4l-8 27
c25 23 62 43 92 43c42 0 62 -44 69 -110c3 -38 7 -74 12 -131c12 -122 55 -165 112 -173l-7 456l58 32l10 -5l-5 -485c66 9 88 58 98 118c8 45 14 111 19 157c5 42 8 67 21 82c19 21 49 46 95 59z" />
    <glyph glyph-name="omega" unicode="&#x3c9;" horiz-adv-x="645" 
d="M448 420v13c5 5 30 16 49 16c36 0 109 -66 109 -185c0 -174 -126 -276 -198 -276c-60 0 -89 40 -105 76c-26 -37 -72 -76 -112 -76c-80 0 -152 86 -152 214c0 113 51 192 148 254l18 -24c-55 -53 -81 -119 -81 -198c0 -110 53 -182 103 -182c52 0 72 55 71 105
c-1 61 -8 137 -12 180l83 19l8 -6c-3 -55 -13 -132 -14 -193c-1 -53 24 -107 79 -107c45 0 94 28 94 176c0 112 -49 173 -88 194z" />
    <glyph glyph-name="iotadieresis" unicode="&#x3ca;" horiz-adv-x="245" 
d="M230 57l8 -26c-25 -18 -60 -43 -97 -43c-28 0 -70 20 -70 97v347l80 18v-333c0 -56 18 -68 39 -68c14 0 28 3 40 8zM33 538c-26 0 -48 23 -48 48c0 28 22 50 49 50c26 0 46 -22 46 -50c0 -25 -20 -48 -47 -48zM201 538c-26 0 -47 23 -47 48c0 28 21 50 48 50
c26 0 47 -22 47 -50c0 -25 -21 -48 -48 -48z" />
    <glyph glyph-name="upsilondieresis" unicode="&#x3cb;" horiz-adv-x="481" 
d="M293 424v9c5 5 34 16 52 16c31 0 96 -57 96 -176c0 -159 -106 -285 -213 -285c-75 0 -137 46 -137 149c0 54 1 122 1 180c0 53 -14 70 -38 70c-14 0 -27 -3 -39 -7l-8 26c25 16 71 43 105 43c36 0 59 -33 59 -104v-192c0 -69 42 -105 89 -105c68 0 112 47 112 194
c0 102 -42 160 -79 182zM154 538c-26 0 -48 23 -48 48c0 28 22 50 49 50c26 0 46 -22 46 -50c0 -25 -20 -48 -47 -48zM322 538c-26 0 -47 23 -47 48c0 28 21 50 48 50c26 0 47 -22 47 -50c0 -25 -21 -48 -48 -48z" />
    <glyph glyph-name="omicrontonos" unicode="&#x3cc;" horiz-adv-x="510" 
d="M256 449h1c123 0 216 -99 216 -223c0 -161 -118 -238 -217 -238c-137 0 -219 110 -219 221c0 165 128 240 219 240zM246 416h-1c-61 0 -115 -62 -115 -175c0 -126 55 -220 137 -220c62 0 113 46 113 183c0 117 -47 212 -134 212zM326 666l-67 -169l-28 1
c4 47 15 132 15 163c9 9 64 17 76 14z" />
    <glyph glyph-name="upsilontonos" unicode="&#x3cd;" horiz-adv-x="481" 
d="M293 424v9c5 5 34 16 52 16c31 0 96 -57 96 -176c0 -159 -106 -285 -213 -285c-75 0 -137 46 -137 149c0 54 1 122 1 180c0 53 -14 70 -38 70c-14 0 -27 -3 -39 -7l-8 26c25 16 71 43 105 43c36 0 59 -33 59 -104v-192c0 -69 42 -105 89 -105c68 0 112 47 112 194
c0 102 -42 160 -79 182zM303 666l-67 -169l-28 1c4 47 15 132 15 163c9 9 64 17 76 14z" />
    <glyph glyph-name="omegatonos" unicode="&#x3ce;" horiz-adv-x="645" 
d="M448 420v13c5 5 30 16 49 16c36 0 109 -66 109 -185c0 -174 -126 -276 -198 -276c-60 0 -89 40 -105 76c-26 -37 -72 -76 -112 -76c-80 0 -152 86 -152 214c0 113 51 192 148 254l18 -24c-55 -53 -81 -119 -81 -198c0 -110 53 -182 103 -182c52 0 72 55 71 105
c-1 61 -8 137 -12 180l83 19l8 -6c-3 -55 -13 -132 -14 -193c-1 -53 24 -107 79 -107c45 0 94 28 94 176c0 112 -49 173 -88 194zM408 665l-67 -169l-28 1c4 47 15 132 15 163c9 9 64 17 76 14z" />
    <glyph glyph-name="uni03D0" unicode="&#x3d0;" horiz-adv-x="497" 
d="M461 220v-1c0 -152 -116 -231 -206 -231c-169 0 -216 162 -216 310c0 173 60 283 115 341c42 45 93 73 145 73c69 0 126 -42 125 -126c-1 -81 -63 -121 -138 -161c126 -16 175 -97 175 -205zM348 571c0 53 -29 98 -78 98c-116 0 -141 -206 -144 -292l111 56
c54 29 110 73 111 138zM371 200v1c0 118 -59 183 -133 183c-38 0 -79 -22 -113 -46c-1 -168 46 -314 137 -314c68 0 109 65 109 176z" />
    <glyph glyph-name="uni03D1" unicode="&#x3d1;" horiz-adv-x="496" 
d="M22 232l-6 23c13 13 54 39 91 39c47 0 60 -47 67 -99c2 -16 5 -34 8 -51c9 -61 38 -100 83 -101c72 0 119 78 120 263c1 23 0 57 -2 78c-43 -31 -94 -56 -137 -56c-121 0 -184 87 -184 180c0 126 100 205 194 205c99 0 203 -89 205 -337c1 -116 -24 -261 -119 -343
c-30 -27 -68 -45 -105 -45c-75 0 -117 42 -134 127c-4 18 -7 37 -10 56c-6 62 -24 68 -71 61zM223 671h-1c-54 0 -89 -46 -89 -125c0 -87 57 -162 142 -162c35 0 68 8 106 33c-14 144 -70 254 -158 254z" />
    <glyph glyph-name="uni03D5" unicode="&#x3d5;" horiz-adv-x="582" 
d="M336 651l-4 -201c117 -14 213 -91 213 -227c0 -141 -114 -212 -219 -229l-4 -249l-5 -3c-23 3 -46 14 -47 123l-2 125c-140 6 -231 94 -231 219c0 73 29 130 78 171c28 24 64 44 99 56l12 -29c-33 -16 -101 -57 -101 -176s70 -183 142 -195l1 413l-1 168l58 37zM330 407
l-2 -371c69 6 142 41 142 183c0 102 -66 169 -140 188z" />
    <glyph glyph-name="uni03D6" unicode="&#x3d6;" horiz-adv-x="665" 
d="M144 489l-9 28c45 27 116 58 205 58c178 0 288 -113 288 -301c0 -184 -129 -286 -203 -286c-60 0 -98 43 -114 78c-26 -36 -82 -78 -119 -78c-80 0 -154 86 -154 214c0 117 51 193 147 252l18 -24c-55 -50 -80 -114 -80 -194c0 -112 53 -181 103 -181c51 0 83 52 82 101
c0 57 -8 136 -12 180l83 20l8 -6c-3 -57 -13 -137 -14 -192c0 -53 32 -105 89 -105c49 0 99 47 99 180c0 202 -128 289 -267 289c-52 0 -106 -12 -150 -33z" />
    <glyph glyph-name="uni03DA" unicode="&#x3da;" horiz-adv-x="404" 
d="M367 466l26 -10c-10 -68 -36 -88 -55 -88c-14 0 -29 4 -47 9c-21 6 -45 13 -71 13c-61 0 -109 -52 -109 -157c0 -86 38 -130 108 -147c18 -5 33 -8 53 -13c66 -15 103 -40 103 -102c0 -75 -77 -135 -127 -135c-20 0 -36 15 -36 34c0 12 6 24 18 35c4 4 8 6 14 3
c10 -5 26 -9 41 -9c21 0 39 13 39 39c0 34 -33 52 -100 65c-22 5 -44 10 -63 15c-87 24 -124 88 -124 179c0 87 46 157 97 197c45 35 90 55 130 55c24 0 44 -2 62 -6c17 -4 31 2 41 23z" />
    <glyph glyph-name="uni03DD" unicode="&#x3dd;" horiz-adv-x="453" 
d="M426 451l-33 -67c-28 5 -124 12 -190 12h-37v-263c91 2 156 4 213 10l5 -12l-33 -48c-25 5 -91 8 -186 10v-111c0 -153 -30 -208 -102 -244l-8 8c27 44 33 121 33 249v442h176c72 0 124 4 151 24z" />
    <glyph glyph-name="uni03DE" unicode="&#x3de;" horiz-adv-x="508" 
d="M256 449h1c123 0 215 -100 215 -223c0 -139 -88 -215 -175 -233v-87c0 -24 0 -46 -7 -63c-8 -20 -31 -46 -65 -61l-10 6c2 37 2 98 2 136v68c-114 18 -181 116 -181 217c0 165 128 240 220 240zM245 415h-1c-64 0 -115 -61 -115 -174c0 -126 54 -217 137 -217
c61 0 113 42 113 180c0 116 -47 211 -134 211z" />
    <glyph glyph-name="uni03E0" unicode="&#x3e0;" horiz-adv-x="669" 
d="M76 619l-6 24l43 14c21 7 48 10 67 10c310 0 446 -229 446 -451c1 -166 -66 -299 -134 -382l-24 17c35 63 86 180 86 346c0 29 -3 53 -6 72c-52 -28 -151 -80 -245 -180c-39 -41 -45 -69 -42 -90l-1 -9c-6 -3 -12 -4 -18 -4c-35 0 -77 61 9 143c85 81 196 140 289 189
c-22 88 -61 144 -76 160c-109 -75 -291 -164 -336 -177c-40 -12 -75 8 -85 24l2 9c95 28 252 83 392 176c-69 70 -176 115 -296 115c-22 0 -48 -3 -65 -6z" />
    <glyph glyph-name="uni03F0" unicode="&#x3f0;" horiz-adv-x="544" 
d="M518 85l15 -23c-27 -40 -64 -74 -110 -74c-52 0 -85 46 -85 118c0 62 18 126 32 166l-4 3c-99 -100 -179 -199 -273 -287h-14c-32 12 -50 49 -45 67c27 12 51 33 73 52c20 31 36 89 36 150c0 76 -24 125 -68 125c-17 0 -34 -8 -50 -21l-11 24c33 39 73 65 112 65
c51 0 78 -48 78 -114c0 -53 -17 -122 -42 -184l5 -2c75 77 155 166 210 228c23 30 47 64 67 71c14 1 35 -6 50 -31c4 -9 5 -18 3 -26c-26 -25 -66 -58 -82 -74c-7 -17 -21 -67 -21 -133c0 -72 26 -123 70 -123c17 0 39 9 54 23z" />
    <glyph glyph-name="afii10023" unicode="&#x401;" horiz-adv-x="568" 
d="M516 162l30 -4c-6 -33 -26 -127 -35 -158h-482v28c91 7 99 15 99 96v398c0 90 -8 93 -86 100v28h446c0 -25 5 -93 8 -144l-29 -5c-9 42 -19 64 -32 86c-14 21 -41 28 -113 28h-76c-31 0 -33 -2 -33 -32v-227h94c90 0 95 8 108 75h29v-192h-29c-13 72 -20 78 -107 78h-95
v-189c0 -47 6 -68 24 -81c19 -12 54 -13 104 -13c76 0 104 8 126 34c17 20 36 54 49 94zM386 794h1c26 0 47 -21 47 -49c0 -26 -21 -48 -48 -48c-25 0 -47 22 -47 48c0 28 22 49 47 49zM196 794h1c26 0 46 -21 46 -50c0 -25 -20 -48 -47 -48c-26 0 -48 23 -48 48
c0 29 22 50 48 50z" />
    <glyph glyph-name="afii10051" unicode="&#x402;" horiz-adv-x="722" 
d="M348 615v-252c49 17 93 29 124 29c132 0 207 -109 207 -235c0 -178 -130 -283 -240 -325l-13 29c64 39 157 113 157 288c0 123 -61 197 -149 197c-31 0 -61 -5 -86 -14v-207c0 -83 8 -92 102 -97v-28h-287v28c91 5 100 12 100 97v490h-58c-80 0 -98 -9 -114 -32
c-14 -20 -22 -47 -34 -92l-30 2c5 60 10 131 12 182h22c13 -23 28 -25 56 -25h400c32 0 42 6 56 25h24c0 -42 4 -113 10 -182l-30 -3c-11 50 -19 73 -35 94c-16 24 -39 31 -113 31h-81z" />
    <glyph glyph-name="afii10052" unicode="&#x403;" horiz-adv-x="512" 
d="M487 508l-30 -4c-11 44 -19 65 -33 86c-14 20 -46 26 -108 26h-64c-38 0 -41 -2 -41 -37v-454c0 -86 8 -92 97 -98v-27h-266v27c76 6 84 12 84 98v400c0 87 -8 91 -80 97v28h430c1 -18 6 -98 11 -142zM408 756l-2 -8l-186 -64l-12 25l157 102c12 -2 40 -41 43 -55z" />
    <glyph glyph-name="afii10053" unicode="&#x404;" horiz-adv-x="643" 
d="M521 310l-377 8c6 -186 108 -295 242 -295c92 0 129 44 160 93c17 28 30 43 46 43c15 0 24 -13 24 -30c0 -24 -22 -57 -57 -85c-41 -33 -112 -59 -185 -59c-226 0 -331 165 -331 331c0 207 145 349 363 349c79 0 150 -24 172 -32c10 -55 14 -103 21 -143l-29 -6
c-30 112 -89 146 -183 146c-152 0 -236 -111 -243 -271l377 9v-58z" />
    <glyph glyph-name="afii10054" unicode="&#x405;" horiz-adv-x="474" 
d="M409 504l-29 -6c-18 64 -44 133 -131 133c-77 0 -111 -56 -111 -110c0 -73 48 -107 127 -148c78 -40 173 -87 173 -199c0 -105 -89 -189 -222 -189c-41 0 -73 8 -98 15c-25 9 -40 16 -49 21c-8 21 -21 107 -27 155l29 7c16 -61 61 -162 164 -162c75 0 120 47 120 120
c0 74 -55 109 -130 149c-64 34 -165 84 -165 197c0 96 77 178 206 178c46 0 88 -11 126 -23c4 -36 9 -75 17 -138z" />
    <glyph glyph-name="afii10055" unicode="&#x406;" horiz-adv-x="341" 
d="M303 0h-265v28c82 6 90 12 90 97v400c0 85 -8 91 -90 97v28h265v-28c-82 -6 -90 -12 -90 -97v-400c0 -86 8 -91 90 -97v-28z" />
    <glyph glyph-name="afii10056" unicode="&#x407;" horiz-adv-x="341" 
d="M303 0h-265v28c82 6 90 12 90 97v400c0 85 -8 91 -90 97v28h265v-28c-82 -6 -90 -12 -90 -97v-400c0 -86 8 -91 90 -97v-28zM266 794h1c26 0 47 -21 47 -49c0 -26 -21 -48 -48 -48c-25 0 -47 22 -47 48c0 28 22 49 47 49zM76 794h1c26 0 46 -21 46 -50
c0 -25 -20 -48 -47 -48c-26 0 -48 23 -48 48c0 29 22 50 48 50z" />
    <glyph glyph-name="afii10057" unicode="&#x408;" horiz-adv-x="329" 
d="M303 650v-28c-77 -6 -85 -13 -85 -97v-374c0 -128 -20 -197 -86 -258c-34 -31 -68 -50 -93 -58l-13 28c56 28 86 74 96 131c9 48 11 106 11 190v341c0 84 -8 91 -89 97v28h259z" />
    <glyph glyph-name="afii10058" unicode="&#x409;" horiz-adv-x="889" 
d="M509 533v-153c29 3 62 6 95 6c165 0 244 -72 244 -183c0 -83 -36 -132 -91 -164c-47 -27 -115 -39 -197 -39h-224v28c81 6 90 10 90 99v435c0 50 -1 53 -39 53h-101c-37 0 -40 -4 -40 -30c0 -269 -42 -457 -112 -551c-28 -36 -54 -50 -75 -50c-18 0 -39 6 -49 11v19
c45 27 75 62 103 109c43 73 84 225 84 429c0 56 -13 66 -94 71v27h498v-27c-85 -5 -92 -18 -92 -90zM509 347v-208c0 -84 14 -105 87 -105c86 1 154 45 154 162c0 112 -71 156 -171 156c-34 0 -54 -3 -70 -5z" />
    <glyph glyph-name="afii10059" unicode="&#x40a;" horiz-adv-x="959" 
d="M579 374h93c163 0 249 -63 249 -176c0 -76 -35 -126 -91 -159c-49 -28 -121 -39 -197 -39h-221v28c76 6 83 10 83 97v210h-284v-211c0 -85 8 -91 85 -96v-28h-254v28c75 5 85 11 85 96v406c0 80 -8 87 -86 92v28h255v-28c-76 -5 -85 -12 -85 -92v-156h284v149
c0 87 -7 93 -81 99v28h252v-28c-79 -6 -87 -12 -87 -99v-149zM579 335v-214c0 -73 13 -86 85 -86c80 1 160 37 160 153c0 105 -63 147 -178 147h-67z" />
    <glyph glyph-name="afii10060" unicode="&#x40b;" horiz-adv-x="776" 
d="M751 0h-241v27c66 6 74 12 74 92v106c0 55 -21 120 -122 120c-51 0 -88 -13 -113 -23v-198c0 -83 8 -92 92 -97v-27h-272v27c87 5 95 15 95 97v491h-63c-82 0 -101 -10 -115 -36c-12 -21 -21 -48 -30 -82h-30c5 61 10 127 12 178h21c14 -23 29 -25 53 -25h415
c26 0 37 6 51 25h24c-1 -42 3 -113 10 -175l-30 -3c-10 34 -16 61 -30 84c-15 28 -42 34 -120 34h-83v-261c65 25 111 40 153 40c66 0 108 -21 132 -47c26 -28 35 -63 35 -120v-107c0 -82 7 -87 82 -93v-27z" />
    <glyph glyph-name="afii10061" unicode="&#x40c;" horiz-adv-x="650" 
d="M635 0h-84c-63 0 -91 32 -120 92l-72 143c-41 84 -80 93 -148 92v-202c0 -85 9 -91 85 -97v-28h-254v28c76 6 84 12 84 97v407c0 78 -8 84 -84 90v28h254v-28c-76 -6 -85 -11 -85 -90v-172c69 1 96 10 128 41c32 29 51 74 88 158c35 78 74 105 118 106
c34 0 54 -19 54 -40c0 -18 -20 -29 -41 -30h-22c-44 0 -65 -37 -113 -135c-38 -77 -80 -100 -96 -110v-3c47 -14 84 -37 117 -93c19 -32 46 -85 79 -145c35 -64 63 -76 112 -81v-28zM471 756l-2 -8l-186 -64l-12 25l157 102c12 -2 40 -41 43 -55z" />
    <glyph glyph-name="afii10062" unicode="&#x40e;" horiz-adv-x="653" 
d="M639 650v-29c-67 -8 -74 -19 -114 -105c-37 -81 -137 -316 -178 -404c-58 -120 -113 -141 -161 -141c-32 0 -60 15 -69 35c-9 17 -6 34 9 48c13 12 28 15 41 4c18 -16 40 -21 59 -21c51 0 86 87 86 106c0 15 -4 28 -17 55c-21 46 -149 304 -175 356
c-24 50 -38 58 -102 67v29h236v-29l-30 -5c-29 -5 -31 -17 -12 -56l154 -315c46 106 84 190 120 294c18 58 9 72 -29 77l-35 5v29h217zM337 698h-1c-76 0 -123 32 -123 80c0 20 15 41 37 41c25 0 35 -24 34 -42c-1 -27 20 -41 53 -41c37 0 52 17 52 41c-2 21 11 42 35 42
c23 0 37 -19 37 -40c0 -49 -51 -81 -124 -81z" />
    <glyph glyph-name="afii10145" unicode="&#x40f;" horiz-adv-x="741" 
d="M704 0h-229c-52 0 -63 -16 -70 -53c-6 -34 -14 -93 -19 -141h-32c-5 50 -10 106 -17 141c-9 36 -21 53 -78 53h-223v29c81 5 91 12 91 100v393c0 87 -7 95 -89 100v28h260v-28c-79 -5 -86 -12 -86 -100v-413c0 -64 12 -74 74 -74h158c74 0 86 4 86 74v413
c0 87 -6 95 -89 100v28h263v-28c-83 -5 -89 -14 -89 -100v-393c0 -84 5 -95 89 -100v-29z" />
    <glyph glyph-name="afii10017" unicode="&#x410;" horiz-adv-x="691" 
d="M673 0h-245v28c63 8 72 16 59 55s-33 93 -55 154h-213c-16 -45 -31 -87 -44 -129c-22 -63 -13 -73 62 -80v-28h-217v28c63 9 77 15 112 103l207 525l31 9l193 -536c32 -86 45 -95 110 -101v-28zM418 280l-88 255h-2l-94 -255h184z" />
    <glyph glyph-name="afii10018" unicode="&#x411;" horiz-adv-x="580" 
d="M210 580l1 -203c32 1 63 3 96 3c161 0 234 -71 234 -177c0 -80 -35 -129 -91 -162c-50 -29 -121 -41 -199 -41h-211v27c78 6 86 11 86 98v408c0 79 -8 84 -80 90v27h424c1 -19 6 -94 11 -141l-30 -6c-10 44 -19 70 -33 87c-17 20 -45 25 -99 25h-73c-32 0 -36 -1 -36 -35
zM293 36h1c75 0 150 39 150 156c0 108 -65 151 -173 151c-22 0 -42 0 -61 -1v-207c0 -82 13 -99 83 -99z" />
    <glyph glyph-name="afii10019" unicode="&#x412;" horiz-adv-x="588" 
d="M372 353v-3c99 -15 177 -59 177 -159c0 -67 -37 -118 -96 -151c-51 -28 -117 -40 -196 -40h-221v28c86 6 92 12 92 96v403c0 83 -4 89 -84 95v28h257c75 0 119 -12 150 -34c36 -24 56 -68 56 -114c0 -95 -79 -134 -135 -149zM212 362h47c110 0 156 44 156 128
c0 68 -38 128 -133 128c-25 0 -47 -4 -57 -10c-9 -6 -13 -17 -13 -50v-196zM212 329v-204c0 -72 19 -91 83 -91c82 1 155 43 155 147c0 103 -70 148 -192 148h-46z" />
    <glyph glyph-name="afii10020" unicode="&#x413;" horiz-adv-x="512" 
d="M487 508l-30 -4c-11 44 -19 65 -33 86c-14 20 -46 26 -108 26h-64c-38 0 -41 -2 -41 -37v-454c0 -86 8 -92 97 -98v-27h-266v27c76 6 84 12 84 98v400c0 87 -8 91 -80 97v28h430c1 -18 6 -98 11 -142z" />
    <glyph glyph-name="afii10021" unicode="&#x414;" horiz-adv-x="649" 
d="M613 36l-23 -204h-30l-12 89c-8 67 -23 79 -72 79h-315c-57 0 -68 -17 -85 -83l-23 -85h-30l5 204h42c16 0 24 3 32 20c62 116 89 319 89 501c0 47 -14 52 -57 59l-40 6v28h511v-28c-77 -6 -85 -12 -85 -103v-431c0 -47 5 -52 35 -52h58zM435 110v436c0 65 -1 69 -39 69
h-116c-39 0 -42 -3 -42 -32c0 -169 -18 -369 -72 -517c-7 -20 -6 -30 19 -30h188c51 0 62 10 62 74z" />
    <glyph glyph-name="afii10022" unicode="&#x415;" horiz-adv-x="568" 
d="M516 162l30 -4c-6 -33 -26 -127 -35 -158h-482v28c91 7 99 15 99 96v398c0 90 -8 93 -86 100v28h446c0 -25 5 -93 8 -144l-29 -5c-9 42 -19 64 -32 86c-14 21 -41 28 -113 28h-76c-31 0 -33 -2 -33 -32v-227h94c90 0 95 8 108 75h29v-192h-29c-13 72 -20 78 -107 78h-95
v-189c0 -47 6 -68 24 -81c19 -12 54 -13 104 -13c76 0 104 8 126 34c17 20 36 54 49 94z" />
    <glyph glyph-name="afii10024" unicode="&#x416;" horiz-adv-x="954" 
d="M937 0h-84c-63 0 -91 35 -120 92l-71 143c-41 85 -80 95 -143 94v-203c0 -84 9 -92 85 -98v-28h-254v28c77 6 85 13 85 98v203c-64 1 -106 -10 -148 -93l-68 -144c-28 -57 -57 -92 -119 -92h-83v28c48 5 77 17 112 82c33 60 60 113 79 144c34 57 68 79 113 94v3
c-19 11 -58 32 -103 125c-43 90 -61 119 -106 119h-20c-20 0 -38 12 -38 30c0 22 18 41 52 40c44 -1 84 -28 118 -105c38 -85 59 -130 90 -159c31 -31 57 -39 121 -40v171c0 79 -8 84 -85 90v28h254v-28c-76 -6 -85 -11 -85 -90v-171c64 1 91 9 123 40c32 29 50 74 87 158
c35 78 75 105 120 106c34 0 51 -20 51 -40c0 -17 -18 -29 -40 -30h-21c-45 0 -64 -36 -103 -117c-45 -95 -86 -116 -102 -127v-3c49 -15 79 -37 113 -94c18 -31 45 -84 78 -144c36 -65 64 -77 112 -82v-28z" />
    <glyph glyph-name="afii10025" unicode="&#x417;" horiz-adv-x="518" 
d="M311 359v-3c90 -14 169 -62 169 -172c0 -137 -132 -199 -247 -199c-58 0 -117 14 -158 46c-30 22 -49 52 -49 77c0 27 18 40 35 40c14 0 28 -13 38 -36c30 -71 80 -92 138 -93s142 35 142 160c0 94 -64 154 -122 154c-25 0 -48 -10 -80 -10c-23 0 -42 12 -42 32
c0 17 19 31 43 31c30 0 54 -10 79 -10c45 1 100 42 100 122c0 90 -53 133 -120 133c-90 0 -126 -77 -148 -144l-30 3c8 40 15 108 18 136c23 7 48 16 74 23c20 6 65 16 103 16c119 0 194 -65 194 -155c0 -51 -25 -87 -53 -108c-26 -19 -57 -34 -84 -43z" />
    <glyph glyph-name="afii10026" unicode="&#x418;" horiz-adv-x="752" 
d="M711 0h-254v28c77 6 86 11 86 97v261c0 33 0 90 5 186h-4l-317 -523c-8 -12 -9 -25 -9 -38v-11h-176v28c76 6 84 13 84 104v399c0 79 -8 85 -84 91v28h252v-28c-75 -6 -85 -12 -85 -90v-244c0 -46 0 -98 -4 -197h2l314 516c9 14 11 24 11 33v10h179v-28
c-76 -6 -85 -14 -85 -103v-394c0 -86 9 -91 85 -97v-28z" />
    <glyph glyph-name="afii10027" unicode="&#x419;" horiz-adv-x="752" 
d="M711 0h-254v28c77 6 86 11 86 97v261c0 33 0 90 5 186h-4l-317 -523c-8 -12 -9 -25 -9 -38v-11h-176v28c76 6 84 13 84 104v399c0 79 -8 85 -84 91v28h252v-28c-75 -6 -85 -12 -85 -90v-244c0 -46 0 -98 -4 -197h2l314 516c9 14 11 24 11 33v10h179v-28
c-76 -6 -85 -14 -85 -103v-394c0 -86 9 -91 85 -97v-28zM385 699h-1c-76 0 -123 32 -123 80c0 20 15 41 37 41c25 0 35 -24 34 -42c-1 -27 20 -41 53 -41c37 0 52 17 52 41c-2 21 11 42 35 42c23 0 37 -19 37 -40c0 -49 -51 -81 -124 -81z" />
    <glyph glyph-name="afii10028" unicode="&#x41a;" horiz-adv-x="650" 
d="M635 0h-84c-63 0 -91 32 -120 92l-72 143c-41 84 -80 93 -148 92v-202c0 -85 9 -91 85 -97v-28h-254v28c76 6 84 12 84 97v407c0 78 -8 84 -84 90v28h254v-28c-76 -6 -85 -11 -85 -90v-172c69 1 96 10 128 41c32 29 51 74 88 158c35 78 74 105 118 106
c34 0 54 -19 54 -40c0 -18 -20 -29 -41 -30h-22c-44 0 -65 -37 -113 -135c-38 -77 -80 -100 -96 -110v-3c47 -14 84 -37 117 -93c19 -32 46 -85 79 -145c35 -64 63 -76 112 -81v-28z" />
    </font>
</defs>
</svg>
