<?xml version="1.0" standalone="no"?>
<!DOCTYPE svg PUBLIC "-//W3C//DTD SVG 1.1//EN" "http://www.w3.org/Graphics/SVG/1.1/DTD/svg11.dtd" >
<svg>
<metadata>
Created by FontForge 20090914 at Wed Mar 19 02:54:34 2014
 By www-data
Copyright (c) 2012 by Oleg Pospelov and jovanny Lemonad. All rights reserved.
</metadata>
<defs>
<font id="Oranienbaum" horiz-adv-x="505" >
  <font-face 
    font-family="Oranienbaum"
    font-weight="400"
    font-stretch="normal"
    units-per-em="1000"
    panose-1="2 0 5 6 8 0 0 2 0 3"
    ascent="800"
    descent="-200"
    x-height="460"
    cap-height="700"
    bbox="-70.001 -260 1295 895"
    underline-thickness="50"
    underline-position="-50"
    unicode-range="U+0020-U+2122"
  />
<missing-glyph horiz-adv-x="240" 
 />
    <glyph glyph-name=".notdef" horiz-adv-x="240" 
 />
    <glyph glyph-name="space" unicode=" " horiz-adv-x="240" 
 />
    <glyph glyph-name="exclam" unicode="!" horiz-adv-x="240" 
d="M120 715c17.333 0 31.668 -6 43.001 -18s17 -29.333 17 -52l-45 -485h-30l-45 485c0 22.667 5.66699 40 17 52s25.666 18 42.999 18zM65.002 45c0 15.333 5.33301 28.333 16 39s23.667 16 39 16s28.333 -5.33301 39 -16s16 -23.667 16 -39s-5.33301 -28.333 -16 -39
s-23.667 -16 -39 -16s-28.333 5.33301 -39 16s-16 23.667 -16 39z" />
    <glyph glyph-name="quotedbl" unicode="&#x22;" horiz-adv-x="300" 
d="M260 700l-30 -200h-30l-30 200h90zM130 700l-30 -200h-30l-30 200h90z" />
    <glyph glyph-name="numbersign" unicode="#" horiz-adv-x="570" 
d="M199 500l51 200h50l-52 -200h151l51 200h50l-52 -200h122l-15 -50h-120l-51 -200h121l-15 -50h-119l-51 -200h-50l51 200h-150l-51 -200h-50l51 200h-121l15 50h119l52 200h-121l15 50h119zM184 250h150l52 200h-151z" />
    <glyph glyph-name="dollar" unicode="$" horiz-adv-x="470" 
d="M195 -10c-16.667 3.33301 -30.832 7.3291 -42.499 11.9961s-21.5 9.66699 -29.5 15c-9.33301 6 -17 12 -23 18c-5.33301 -10 -12.5 -19.333 -21.5 -28s-18.5 -14.334 -28.5 -17.001h-15c0.666992 9.33301 1.33398 19.333 2.00098 30
c0.666992 8.66699 1.33398 18.334 2.00098 29.001s1 21 1 31c0 11.333 -0.333008 22.5 -1 33.5s-1.33398 21.167 -2.00098 30.5l-2 31h15c12.667 -48 30.5 -86 53.5 -114s53.5 -45.667 91.5 -53v323c-19.333 12 -38 25 -56 39s-34 29.667 -48 47s-25.167 36.833 -33.5 58.5
s-12.5 46.5 -12.5 74.5c0 20.667 3.83301 40.334 11.5 59.001s18.167 35.334 31.5 50.001s29.166 26.834 47.499 36.501s38.166 15.834 59.499 18.501v56h20v-55c13.333 0 26.666 -1.66699 39.999 -5v60h20v-65c10.667 -4 20 -8.33301 28 -13s14.667 -9 20 -13
c6.66699 -4.66699 12.334 -9.33398 17.001 -14.001c5.33301 10 12.5 19.333 21.5 28s18.5 14.334 28.5 17.001h15c-1.33301 -10 -2.33301 -20 -3 -30c-0.666992 -9.33301 -1.16699 -19.166 -1.5 -29.499s-0.5 -20.5 -0.5 -30.5c0 -11.333 0.166992 -22.5 0.5 -33.5
s0.833008 -21.167 1.5 -30.5c0.666992 -10.667 1.66699 -21 3 -31h-15c-24.667 86.667 -63 140.334 -115 161.001v-291c20 -12.667 39.5 -26 58.5 -40s36 -29.833 51 -47.5s27.167 -37.834 36.5 -60.501s14 -48.334 14 -77.001c0 -24 -4 -46.333 -12 -67s-19 -39 -33 -55
s-30.833 -29.333 -50.5 -40s-41.167 -17.667 -64.5 -21v-57h-20v55h-10c-5.33301 0 -10.5 0.166992 -15.5 0.5s-9.83301 0.833008 -14.5 1.5v-57h-20v60zM370.002 149.996c0 29.333 -9.16699 54.335 -27.5 75.002s-40.833 39.667 -67.5 57v-272
c29.333 7.33301 52.5 23.166 69.5 47.499s25.5 55.166 25.5 92.499zM110.002 569.998c0 -28 8 -51.668 24 -71.001s36.333 -37.666 61 -54.999v247c-25.333 -6.66699 -45.833 -20.5 -61.5 -41.5s-23.5 -47.5 -23.5 -79.5zM215.002 318.997l0.00195312 -313
c3.33301 -0.666992 6.66602 -1 9.99902 -1h10h10c3.33301 0 6.66602 0.333008 9.99902 1v289zM225.004 694.997c-4.66699 0 -8 -0.333008 -10 -1v-263l40 -24v285c-10 2 -20 3 -30 3z" />
    <glyph glyph-name="percent" unicode="%" horiz-adv-x="620" 
d="M515 700h45l-455 -700h-45zM160 695c-8.66699 0 -17 -2.16699 -25 -6.5s-15 -12 -21 -23s-10.667 -25.833 -14 -44.5s-5 -42.334 -5 -71.001s1.66699 -52.334 5 -71.001s8 -33.5 14 -44.5s13 -18.667 21 -23s16.333 -6.5 25 -6.5s17 2.16699 25 6.5s15 12 21 23
s10.667 25.833 14 44.5s5 42.334 5 71.001s-1.66699 52.334 -5 71.001s-8 33.5 -14 44.5s-13 18.667 -21 23s-16.333 6.5 -25 6.5zM160 710c18.667 0 36.5 -3.83301 53.5 -11.5s31.833 -18.5 44.5 -32.5s22.834 -30.833 30.501 -50.5s11.5 -41.5 11.5 -65.5
s-3.83301 -45.833 -11.5 -65.5s-17.834 -36.5 -30.501 -50.5s-27.5 -24.833 -44.5 -32.5s-34.833 -11.5 -53.5 -11.5s-36.5 3.83301 -53.5 11.5s-31.833 18.5 -44.5 32.5s-22.834 30.833 -30.501 50.5s-11.5 41.5 -11.5 65.5s3.83301 45.833 11.5 65.5
s17.834 36.5 30.501 50.5s27.5 24.833 44.5 32.5s34.833 11.5 53.5 11.5zM460 295c-8.66699 0 -17 -2.16699 -25 -6.5s-15 -12 -21 -23s-10.667 -25.833 -14 -44.5s-5 -42.334 -5 -71.001s1.66699 -52.334 5 -71.001s8 -33.5 14 -44.5s13 -18.667 21 -23
s16.333 -6.5 25 -6.5s17 2.16699 25 6.5s15 12 21 23s10.667 25.833 14 44.5s5 42.334 5 71.001s-1.66699 52.334 -5 71.001s-8 33.5 -14 44.5s-13 18.667 -21 23s-16.333 6.5 -25 6.5zM460 310c18.667 0 36.5 -3.83301 53.5 -11.5s31.833 -18.5 44.5 -32.5
s22.834 -30.833 30.501 -50.5s11.5 -41.5 11.5 -65.5s-3.83301 -45.833 -11.5 -65.5s-17.834 -36.5 -30.501 -50.5s-27.5 -24.833 -44.5 -32.5s-34.833 -11.5 -53.5 -11.5s-36.5 3.83301 -53.5 11.5s-31.833 18.5 -44.5 32.5s-22.834 30.833 -30.501 50.5
s-11.5 41.5 -11.5 65.5s3.83301 45.833 11.5 65.5s17.834 36.5 30.501 50.5s27.5 24.833 44.5 32.5s34.833 11.5 53.5 11.5z" />
    <glyph glyph-name="ampersand" unicode="&#x26;" horiz-adv-x="530" 
d="M275 5c40 0 72.5088 12.499 97.5088 37.499s37.5 57.5 37.5 97.5c0 38 -9.66699 67.5 -29 88.5s-43 31.5 -71 31.5c-16.667 0 -30.334 -2 -41.001 -6s-19.334 -8.66699 -26.001 -14c-7.33301 -6 -13.333 -12.667 -18 -20l-10 5
c3.33301 18.667 8.66602 35.334 15.999 50.001c6.66699 12.667 16.167 24.167 28.5 34.5s29.166 15.5 50.499 15.5c14 0 27 -1.5 39 -4.5s24.167 -6.5 36.5 -10.5s24.833 -7.5 37.5 -10.5s26.667 -4.5 42 -4.5c10 0 18.667 2 26 6s13.666 8.66699 18.999 14
c6 6 11 12.667 15 20h10c-2.66699 -22.667 -9.33398 -40.167 -20.001 -52.5s-22 -21.166 -34 -26.499c-14 -6.66699 -29.333 -10.334 -46 -11.001c5.33301 -5.33301 10.333 -12 15 -20c3.33301 -7.33301 6.66602 -16.166 9.99902 -26.499s5 -23.166 5 -38.499
c0 -22.667 -5 -44.5 -15 -65.5s-24 -39.667 -42 -56s-39.167 -29.333 -63.5 -39s-50.833 -14.5 -79.5 -14.5c-35.333 0 -67.166 5.33301 -95.499 16s-52.5 25.167 -72.5 43.5s-35.333 40 -46 65s-16 51.833 -16 80.5c0 22.667 2.66699 43 8 61s12.333 33.833 21 47.5
s18.5 25.5 29.5 35.5s22.167 18.333 33.5 25c26.667 16 57.667 26.333 93 31c-30 4.66699 -56.667 13.334 -80 26.001c-10 5.33301 -19.833 12 -29.5 20s-18.167 17.333 -25.5 28s-13.333 23.167 -18 37.5s-7 30.5 -7 48.5c0 24 4.33301 46 13 66s21 37.333 37 52
s35.833 26.167 59.5 34.5s50.5 12.5 80.5 12.5c28.667 0 54.167 -3.83301 76.5 -11.5s41.166 -17.834 56.499 -30.501s27 -27.5 35 -44.5s12 -34.833 12 -53.5c0 -7.33301 -0.5 -14 -1.5 -20s-2.16699 -10.667 -3.5 -14c-2 -4.66699 -3.66699 -8.33398 -5 -11.001l-85 20
l5 15c1.33301 4.66699 2.5 9.5 3.5 14.5s1.5 10.167 1.5 15.5c0 35.333 -8.33301 61.666 -25 78.999s-40 26 -70 26c-14 0 -27.333 -3.16699 -40 -9.5s-23.834 -15.666 -33.501 -27.999s-17.334 -28 -23.001 -47s-8.5 -40.833 -8.5 -65.5
c0 -52.667 10.833 -90.834 32.5 -114.501s52.5 -35.5 92.5 -35.5h20v-20h-20c-42.667 0 -76.667 -14.833 -102 -44.5s-38 -78.167 -38 -145.5c0 -65.333 12.833 -112.5 38.5 -141.5s61.167 -43.5 106.5 -43.5z" />
    <glyph glyph-name="quotesingle" unicode="'" horiz-adv-x="170" 
d="M130 700l-30 -200h-30l-30 200h90z" />
    <glyph glyph-name="parenleft" unicode="(" horiz-adv-x="275" 
d="M60 290c0 42.667 2.83301 82.667 8.5 120s13 72.166 22 104.499s19.333 62 31 89s23.5 51.5 35.5 73.5c28.667 51.333 61.334 95.666 98.001 132.999l10 -10c-21.333 -33.333 -40.666 -74.666 -57.999 -123.999c-14.667 -42 -27.834 -94.833 -39.501 -158.5
s-17.5 -139.5 -17.5 -227.5s5.83301 -163.833 17.5 -227.5s24.834 -116.5 39.501 -158.5c17.333 -49.333 36.666 -90.666 57.999 -123.999l-10 -10c-36.667 36.667 -69.334 80.667 -98.001 132c-12 22 -23.833 46.5 -35.5 73.5s-22 56.833 -31 89.5s-16.333 67.667 -22 105
s-8.5 77.333 -8.5 120z" />
    <glyph glyph-name="parenright" unicode=")" horiz-adv-x="275" 
d="M215 290c0 -42.667 -2.83301 -82.667 -8.5 -120s-13 -72.333 -22 -105s-19.5 -62.5 -31.5 -89.5s-24 -51.5 -36 -73.5c-28.667 -51.333 -61 -95.333 -97 -132l-10 10c20.667 33.333 39.667 74.666 57 123.999c14.667 42 28 94.833 40 158.5s18 139.5 18 227.5
s-6 163.833 -18 227.5s-25.333 116.5 -40 158.5c-17.333 49.333 -36.333 90.666 -57 123.999l10 10c36 -37.333 68.333 -81.666 97 -132.999c12 -22 24 -46.5 36 -73.5s22.5 -56.667 31.5 -89s16.333 -67.166 22 -104.499s8.5 -77.333 8.5 -120z" />
    <glyph glyph-name="asterisk" unicode="*" horiz-adv-x="370" 
d="M185 710c6 0 11.499 -0.5 16.499 -1.5s9.16699 -2.16699 12.5 -3.5c4 -2 7.66699 -3.66699 11 -5l-30 -120l5 -5l90 85c12.667 -5.33301 22.5 -14.5 29.5 -27.5s10.5 -27.167 10.5 -42.5l-120 -30v-10l120 -30c0 -15.333 -3.5 -29.5 -10.5 -42.5
s-16.833 -22.167 -29.5 -27.5l-90 85l-5 -5l30 -120c-3.33301 -2 -7 -3.66699 -11 -5c-8 -3.33301 -17.667 -5 -29 -5s-21 1.66699 -29 5c-4 1.33301 -7.66699 3 -11 5l30 120l-5 5l-90 -85c-12.667 5.33301 -22.5 14.5 -29.5 27.5s-10.5 27.167 -10.5 42.5l120 30v10
l-120 30c0 15.333 3.5 29.5 10.5 42.5s16.833 22.167 29.5 27.5l90 -85l5 5l-30 120c3.33301 1.33301 7 3 11 5c3.33301 1.33301 7.33301 2.5 12 3.5s10.334 1.5 17.001 1.5z" />
    <glyph glyph-name="plus" unicode="+" horiz-adv-x="440" 
d="M200 320v175h40v-175h170v-40h-170v-175h-40v175h-170v40h170z" />
    <glyph glyph-name="comma" unicode="," horiz-adv-x="190" 
d="M95 100c15.333 0 28.335 -5.83301 39.002 -17.5s16 -27.5 16 -47.5c0 -29.333 -4.5 -53 -13.5 -71s-18.833 -32.333 -29.5 -43c-12 -12 -26 -21 -42 -27l-10 16c11.333 5.33301 21.333 11.666 30 18.999c7.33301 6 14.166 13.667 20.499 23s9.5 20.333 9.5 33
c0 2.66699 -0.333008 4.83398 -1 6.50098s-1.33398 3.16699 -2.00098 4.5l-2 4c-1.33301 -1.33301 -3.33301 -2.33301 -6 -3c-5.33301 -1.33301 -10 -2 -14 -2c-15.333 0 -27.5 4.5 -36.5 13.5s-13.5 21.167 -13.5 36.5s5.33301 28.333 16 39s23.667 16 39 16z" />
    <glyph glyph-name="hyphen" unicode="-" horiz-adv-x="380" 
d="M350 310v-40h-320v40h320z" />
    <glyph glyph-name="period" unicode="." horiz-adv-x="190" 
d="M40 45c0 15.333 5.33301 28.333 16 39s23.667 16 39 16s28.333 -5.33301 39 -16s16 -23.667 16 -39s-5.33301 -28.333 -16 -39s-23.667 -16 -39 -16s-28.333 5.33301 -39 16s-16 23.667 -16 39z" />
    <glyph glyph-name="slash" unicode="/" horiz-adv-x="430" 
d="M385 700h45l-385 -700h-45z" />
    <glyph glyph-name="zero" unicode="0" horiz-adv-x="520" 
d="M385 350c0 70 -4 127.667 -12 173s-18 81 -30 107s-25.333 44.167 -40 54.5s-29 15.5 -43 15.5s-28.333 -5.16699 -43 -15.5s-28 -28.5 -40 -54.5s-22 -61.667 -30 -107s-12 -103 -12 -173s4 -127.667 12 -173s18 -81 30 -107s25.333 -44.167 40 -54.5s29 -15.5 43 -15.5
s28.333 5.16699 43 15.5s28 28.5 40 54.5s22 61.667 30 107s12 103 12 173zM480 350c0 -64 -6.33301 -119 -19 -165s-29.334 -83.833 -50.001 -113.5s-44.167 -51.5 -70.5 -65.5s-53.166 -21 -80.499 -21s-54.166 7 -80.499 21s-49.833 35.833 -70.5 65.5
s-37.334 67.5 -50.001 113.5s-19 101 -19 165s6.33301 119 19 165s29.334 83.833 50.001 113.5s44.167 51.5 70.5 65.5s53.166 21 80.499 21s54.166 -7 80.499 -21s49.833 -35.833 70.5 -65.5s37.334 -67.5 50.001 -113.5s19 -101 19 -165z" />
    <glyph glyph-name="one" unicode="1" horiz-adv-x="290" 
d="M195 25l60 -15v-10h-205v10l60 15v635h-100v15l185 40v-690z" />
    <glyph glyph-name="two" unicode="2" horiz-adv-x="475" 
d="M200 700c-18.667 0 -36.667 -4 -54 -12s-32.833 -18.833 -46.5 -32.5s-24.5 -29.167 -32.5 -46.5s-12 -35.333 -12 -54c0 -17.333 6.83301 -31.666 20.5 -42.999s36.834 -17 69.501 -17l20 -80c-2.66699 -1.33301 -5.66699 -2.33301 -9 -3s-6.83301 -1.16699 -10.5 -1.5
s-7.16699 -0.5 -10.5 -0.5c-28 0 -51.667 11.167 -71 33.5s-29 56.166 -29 101.499c0 24 4.66699 46.5 14 67.5s22 39.5 38 55.5s34.5 28.667 55.5 38s43.5 14 67.5 14c31.333 0 60.166 -5.33301 86.499 -16s49 -25.167 68 -43.5s33.833 -40 44.5 -65s16 -51.833 16 -80.5
c0 -27.333 -5.66699 -55.5 -17 -84.5s-26.5 -57.833 -45.5 -86.5s-40.5 -56.667 -64.5 -84s-48.667 -53 -74 -77s-50 -46.167 -74 -66.5s-45.667 -37.5 -65 -51.5h315l20 95h15v-160h-440l130 140c40.667 43.333 76.167 85.5 106.5 126.5s54.333 81.667 72 122
s26.5 82.5 26.5 126.5c0 32.667 -3.33301 60.667 -10 84s-15.667 42.5 -27 57.5s-25 26 -41 33s-33.333 10.5 -52 10.5z" />
    <glyph glyph-name="three" unicode="3" horiz-adv-x="480" 
d="M220 700c-30 0 -53.3291 -8.66797 -69.9961 -26.001s-25 -43.666 -25 -78.999c0 -10 1.66699 -20 5 -30c1.33301 -5.33301 3 -10.333 5 -15l-85 -20c-2 2.66699 -3.66699 6.33398 -5 11.001c-3.33301 8 -5 19.333 -5 34c0 18.667 4 36.5 12 53.5s19.667 31.833 35 44.5
s34.166 22.834 56.499 30.501s47.833 11.5 76.5 11.5c30 0 56.833 -4.16699 80.5 -12.5s43.5 -19.833 59.5 -34.5s28.333 -32 37 -52s13 -42 13 -66c0 -36.667 -7.83301 -65.334 -23.5 -86.001s-32.834 -36.667 -51.501 -48c-22 -12.667 -47 -21.334 -75 -26.001
c34.667 -4.66699 65.334 -15 92.001 -31c11.333 -6.66699 22.666 -15 33.999 -25s21.333 -21.833 30 -35.5s15.667 -29.5 21 -47.5s8 -38.333 8 -61c0 -28.667 -5.5 -55.5 -16.5 -80.5s-26.5 -46.667 -46.5 -65s-44.167 -32.833 -72.5 -43.5s-59.833 -16 -94.5 -16
c-28.667 0 -55 4.66699 -79 14s-44.5 22 -61.5 38s-30.333 34.5 -40 55.5s-14.5 43.5 -14.5 67.5c0 52.667 9.83301 90.834 29.5 114.501s43.167 35.5 70.5 35.5c3.33301 0 6.83301 -0.333008 10.5 -1l10.5 -2c3.33301 -0.666992 6.33301 -1.33398 9 -2.00098l-20 -80
c-60 0 -90 -28.333 -90 -85c0 -16 4.16699 -32.167 12.5 -48.5s19.833 -30.833 34.5 -43.5s32 -23 52 -31s42 -12 66 -12c45.333 0 80.833 14.5 106.5 43.5s38.5 76.167 38.5 141.5c0 67.333 -12.667 115.833 -38 145.5s-59.333 44.5 -102 44.5h-40v20h40
c35.333 0 63.333 11.833 84 35.5s31 61.834 31 114.501c0 24.667 -2.83301 46.5 -8.5 65.5s-13.334 34.667 -23.001 47s-20.834 21.666 -33.501 27.999s-26 9.5 -40 9.5z" />
    <glyph glyph-name="four" unicode="4" horiz-adv-x="525" 
d="M390 225c17.333 0 34.166 1.16895 50.499 3.50195s30.833 5.16602 43.5 8.49902c14.667 3.33301 28.334 7.66602 41.001 12.999v-10c-10 -9.33301 -21.333 -18 -34 -26c-11.333 -7.33301 -25.333 -14.166 -42 -20.499s-36.334 -10.833 -59.001 -13.5v-155l60 -15v-10
h-205v10l60 15v155h-315c70.667 70.667 131.334 149.167 182.001 235.5s95 181.166 133 284.499h85v-475zM305 635.002c-14 -35.333 -30.332 -72 -48.999 -110s-38.834 -75.333 -60.501 -112s-44 -71.167 -67 -103.5s-45.833 -60.5 -68.5 -84.5h245v410z" />
    <glyph glyph-name="five" unicode="5" horiz-adv-x="470" 
d="M190 5c20 0 39.3369 4.66504 58.0039 13.998s35.167 23.333 49.5 42s25.833 42.167 34.5 70.5s13 61.166 13 98.499c0 34 -4.83301 64.167 -14.5 90.5s-23 48.833 -40 67.5s-37.5 32.834 -61.5 42.501s-50.333 14.5 -79 14.5c-11.333 0 -22 -1 -32 -3
s-19 -4.33301 -27 -7c-9.33301 -2.66699 -18 -6 -26 -10l55 276l10 -2c6.66699 -1.33301 15.5 -2.66602 26.5 -3.99902s23.333 -2.5 37 -3.5s27.5 -1.5 41.5 -1.5c21.333 0 41.833 1 61.5 3s37.167 4.33301 52.5 7c18 2.66699 35 6 51 10l-1 -10
c-25.333 -28 -60.333 -49.167 -105 -63.5s-101 -21.5 -169 -21.5l-30 -150c6.66699 1.33301 14 3 22 5c7.33301 1.33301 16.166 2.5 26.499 3.5s22.5 1.5 36.5 1.5c40 0 76 -6 108 -18s59.333 -28.667 82 -50s40 -47.166 52 -77.499s18 -63.5 18 -99.5s-6 -69.167 -18 -99.5
s-28.5 -56.166 -49.5 -77.499s-46.333 -38 -76 -50s-61.834 -18 -96.501 -18c-26 0 -50 4.33301 -72 13s-41 20.667 -57 36s-28.5 33.333 -37.5 54s-13.5 43 -13.5 67c0 47.333 9.83301 82.5 29.5 105.5s43.167 34.5 70.5 34.5c3.33301 0 6.83301 -0.333008 10.5 -1l10.5 -2
c3.33301 -0.666992 6.33301 -1.33398 9 -2.00098l-20 -80c-30 0 -52.5 -6.83301 -67.5 -20.5s-22.5 -31.834 -22.5 -54.501c0 -16 3.83301 -31.833 11.5 -47.5s18.167 -29.667 31.5 -42s29.166 -22.166 47.499 -29.499s38.166 -11 59.499 -11z" />
    <glyph glyph-name="six" unicode="6" horiz-adv-x="495" 
d="M370 220c0 34.667 -3.49902 64.667 -10.499 90s-16 46.166 -27 62.499s-23.833 28.333 -38.5 36s-29.334 11.5 -44.001 11.5c-14 0 -27.833 -3.83301 -41.5 -11.5s-26 -19.167 -37 -34.5s-19.833 -35 -26.5 -59s-10 -52 -10 -84c0 -42.667 3.5 -78.667 10.5 -108
s16.167 -53.166 27.5 -71.499s24.666 -31.5 39.999 -39.5s31 -12 47 -12c12.667 0 25.5 4 38.5 12s24.833 20.667 35.5 38s19.334 40 26.001 68s10 62 10 102zM40.001 350c0 64 6.33203 119.004 18.999 165.004s29.5 83.833 50.5 113.5s45 51.5 72 65.5s54.833 21 83.5 21
c27.333 0 51.833 -3.83301 73.5 -11.5s40 -17.834 55 -30.501s26.5 -27.5 34.5 -44.5s12 -34.833 12 -53.5c0 -7.33301 -0.5 -14 -1.5 -20s-2.16699 -10.667 -3.5 -14c-2 -4.66699 -3.66699 -8.33398 -5 -11.001l-85 20l5 15c1.33301 4.66699 2.5 9.5 3.5 14.5
s1.5 10.167 1.5 15.5c0 35.333 -8 61.666 -24 78.999s-38 26 -66 26c-15.333 0 -30.833 -5.16699 -46.5 -15.5s-30.167 -27.5 -43.5 -51.5s-24.166 -55.833 -32.499 -95.5s-12.5 -88.834 -12.5 -147.501v-50l6.5 15.5c4.33301 10.333 11.833 21.833 22.5 34.5
s24.167 24.167 40.5 34.5s36.5 15.5 60.5 15.5c28.667 0 55.5 -5.33301 80.5 -16s46.667 -25.667 65 -45s32.833 -42.5 43.5 -69.5s16 -56.833 16 -89.5c0 -36 -5.33301 -68.5 -16 -97.5s-25.167 -53.667 -43.5 -74s-40 -36 -65 -47s-51.833 -16.5 -80.5 -16.5
c-32.667 0 -62.5 6 -89.5 18s-50.167 31.667 -69.5 59s-34.333 62.833 -45 106.5s-16 97.5 -16 161.5v20z" />
    <glyph glyph-name="seven" unicode="7" horiz-adv-x="443" 
d="M423 649c-28 -34.667 -52.832 -71.6689 -74.499 -111.002s-39.834 -84.166 -54.501 -134.499s-25.667 -108.333 -33 -174s-11 -142.167 -11 -229.5h-100c0 80 7.33301 152.167 22 216.5s33.167 122 55.5 173s47 95.833 74 134.5s53.167 72.334 78.5 101.001h-325l-20 -85
h-15v160h403v-51z" />
    <glyph glyph-name="eight" unicode="8" horiz-adv-x="510" 
d="M185 375c-22.667 12.667 -42.666 27.6709 -59.999 45.0039c-15.333 15.333 -29.166 34.166 -41.499 56.499s-18.5 48.5 -18.5 78.5c0 22.667 4.16699 43.667 12.5 63s20.5 36.166 36.5 50.499s35.5 25.666 58.5 33.999s48.833 12.5 77.5 12.5c30 0 56.833 -4 80.5 -12
s43.5 -19 59.5 -33s28.333 -30 37 -48s13 -37 13 -57c0 -28 -6.83301 -51.833 -20.5 -71.5s-28.5 -36.167 -44.5 -49.5c-19.333 -15.333 -41 -28.333 -65 -39c30.667 -15.333 58 -34 82 -56c10 -9.33301 20 -20 30 -32s19 -25 27 -39s14.333 -29.167 19 -45.5
s7 -33.833 7 -52.5c0 -26 -5.33301 -50.833 -16 -74.5s-25.834 -44.5 -45.501 -62.5s-43.334 -32.167 -71.001 -42.5s-58.5 -15.5 -92.5 -15.5c-35.333 0 -66.5 4.66699 -93.5 14s-50 22.333 -69 39s-33.333 36.334 -43 59.001s-14.5 47 -14.5 73
c0 35.333 8 65.666 24 90.999s33.667 46.666 53 63.999c22.667 20 48.667 36.667 78 50zM400.001 160.004c0 14 -2.66504 27.3301 -7.99805 39.9971s-12.333 25 -21 37s-18.667 23.167 -30 33.5s-22.666 19.833 -33.999 28.5c-26.667 20.667 -57.334 39.334 -92.001 56.001
c-24.667 -9.33301 -46.334 -22.666 -65.001 -39.999c-16.667 -14.667 -31.667 -33.667 -45 -57s-20 -52.666 -20 -87.999c0 -25.333 4.16699 -48.333 12.5 -69s19.833 -38.5 34.5 -53.5s32 -26.667 52 -35s42 -12.5 66 -12.5c45.333 0 81.666 14.167 108.999 42.5
s41 67.5 41 117.5zM250.003 700.001c-15.333 0 -29.667 -3.00098 -43 -9.00098s-25 -14.5 -35 -25.5s-17.833 -24 -23.5 -39s-8.5 -31.833 -8.5 -50.5c0 -23.333 7.33301 -44.166 22 -62.499s30.667 -34.166 48 -47.499c20.667 -15.333 44 -29 70 -41
c19.333 8 36.666 18.667 51.999 32c13.333 11.333 25.5 25.833 36.5 43.5s16.5 39.167 16.5 64.5c0 18.667 -3.5 36.167 -10.5 52.5s-16.667 30.666 -29 42.999s-26.666 22 -42.999 29s-33.833 10.5 -52.5 10.5z" />
    <glyph glyph-name="nine" unicode="9" horiz-adv-x="495" 
d="M125 480c0 -35.333 3.50098 -65.499 10.501 -90.499s16 -45.667 27 -62s23.667 -28.333 38 -36s29.166 -11.5 44.499 -11.5c14 0 27.833 3.83301 41.5 11.5s26 19.167 37 34.5s19.833 35 26.5 59s10 52 10 84c0 42.667 -3.5 78.667 -10.5 108
s-16.167 53.166 -27.5 71.499s-24.666 31.5 -39.999 39.5s-31 12 -47 12c-12.667 0 -25.5 -4 -38.5 -12s-24.833 -20.667 -35.5 -38s-19.334 -40 -26.001 -68s-10 -62 -10 -102zM455.001 350.001c0 -64 -6.33203 -119.003 -18.999 -165.003s-29.5 -83.833 -50.5 -113.5
s-45 -51.5 -72 -65.5s-54.833 -21 -83.5 -21c-27.333 0 -51.833 3.83301 -73.5 11.5s-40 17.834 -55 30.501s-26.5 27.5 -34.5 44.5s-12 34.833 -12 53.5c0 14 1.66699 25.333 5 34c1.33301 4 3 7.66699 5 11l85 -20c-2 -4.66699 -3.66699 -9.66699 -5 -15
c-3.33301 -10 -5 -20 -5 -30c0 -35.333 8 -61.666 24 -78.999s38 -26 66 -26c14.667 0 30 5.16699 46 15.5s30.667 27.5 44 51.5s24.166 55.833 32.499 95.5s12.5 88.834 12.5 147.501v50l-6.5 -15.5c-4.33301 -10.333 -11.833 -21.833 -22.5 -34.5
s-24.167 -24.167 -40.5 -34.5s-36.5 -15.5 -60.5 -15.5c-28.667 0 -55.5 5.33301 -80.5 16s-46.667 25.667 -65 45s-32.833 42.5 -43.5 69.5s-16 56.833 -16 89.5c0 36 5.33301 68.5 16 97.5s25.167 53.667 43.5 74s40 36 65 47s51.833 16.5 80.5 16.5
c32.667 0 62.5 -6 89.5 -18s50.167 -31.667 69.5 -59s34.333 -62.833 45 -106.5s16 -97.5 16 -161.5v-20z" />
    <glyph glyph-name="colon" unicode=":" horiz-adv-x="190" 
d="M40 45c0 15.333 5.33301 28.333 16 39s23.667 16 39 16s28.333 -5.33301 39 -16s16 -23.667 16 -39s-5.33301 -28.333 -16 -39s-23.667 -16 -39 -16s-28.333 5.33301 -39 16s-16 23.667 -16 39zM40 415c0 15.333 5.33301 28.333 16 39s23.667 16 39 16
s28.333 -5.33301 39 -16s16 -23.667 16 -39s-5.33301 -28.333 -16 -39s-23.667 -16 -39 -16s-28.333 5.33301 -39 16s-16 23.667 -16 39z" />
    <glyph glyph-name="semicolon" unicode=";" horiz-adv-x="190" 
d="M40 415c0 15.333 5.33301 28.333 16 39s23.667 16 39 16s28.333 -5.33301 39 -16s16 -23.667 16 -39s-5.33301 -28.333 -16 -39s-23.667 -16 -39 -16s-28.333 5.33301 -39 16s-16 23.667 -16 39zM95 100c15.333 0 28.335 -5.83301 39.002 -17.5s16 -27.5 16 -47.5
c0 -29.333 -4.5 -53 -13.5 -71s-18.833 -32.333 -29.5 -43c-12 -12 -26 -21 -42 -27l-10 16c11.333 5.33301 21.333 11.666 30 18.999c7.33301 6 14.166 13.667 20.499 23s9.5 20.333 9.5 33c0 2.66699 -0.333008 4.83398 -1 6.50098s-1.33398 3.16699 -2.00098 4.5l-2 4
c-1.33301 -1.33301 -3.33301 -2.33301 -6 -3c-5.33301 -1.33301 -10 -2 -14 -2c-15.333 0 -27.5 4.5 -36.5 13.5s-13.5 21.167 -13.5 36.5s5.33301 28.333 16 39s23.667 16 39 16z" />
    <glyph glyph-name="less" unicode="&#x3c;" horiz-adv-x="360" 
d="M85 230l245 -185v-50l-310 235l310 235v-50z" />
    <glyph glyph-name="equal" unicode="=" horiz-adv-x="410" 
d="M380 250v-40h-350v40h350zM380 390v-40h-350v40h350z" />
    <glyph glyph-name="greater" unicode="&#x3e;" horiz-adv-x="360" 
d="M30 415v50l310 -235l-310 -235v50l245 185z" />
    <glyph glyph-name="question" unicode="?" horiz-adv-x="460" 
d="M160 45c0 15.333 5.33301 28.333 16 39s23.667 16 39 16s28.333 -5.33301 39 -16s16 -23.667 16 -39s-5.33301 -28.333 -16 -39s-23.667 -16 -39 -16s-28.333 5.33301 -39 16s-16 23.667 -16 39zM430 500c0 -28.667 -4.83691 -55.333 -14.5039 -80
s-22.667 -46.5 -39 -65.5s-35 -35 -56 -48s-42.833 -21.833 -65.5 -26.5l-25 -125h-30c-1.33301 17.333 -3.33301 34.666 -6 51.999c-2 14.667 -5 30.334 -9 47.001s-9 32 -15 46c55.333 0 96.666 15.167 123.999 45.5s41 81.833 41 154.5c0 36 -3.33301 66.667 -10 92
s-16 46 -28 62s-26.667 27.667 -44 35s-36.666 11 -57.999 11s-41.333 -4 -60 -12s-35 -18.833 -49 -32.5s-25.167 -29.167 -33.5 -46.5s-12.5 -35.333 -12.5 -54c0 -17.333 6.83301 -31.666 20.5 -42.999s36.834 -17 69.501 -17l20 -80
c-2.66699 -1.33301 -5.66699 -2.33301 -9 -3s-6.83301 -1.16699 -10.5 -1.5s-7.16699 -0.5 -10.5 -0.5c-28 0 -51.667 11.167 -71 33.5s-29 56.166 -29 101.499c0 24 4.66699 46.5 14 67.5s22.333 39.5 39 55.5s36.334 28.667 59.001 38s47 14 73 14
c34 0 64.833 -5.33301 92.5 -16s51.334 -25.667 71.001 -45s34.834 -42.5 45.501 -69.5s16 -56.833 16 -89.5z" />
    <glyph glyph-name="at" unicode="@" horiz-adv-x="830" 
d="M475 310c-40 0 -70.834 -10.5 -92.501 -31.5s-32.5 -50.5 -32.5 -88.5c0 -25.333 4.33301 -43.333 13 -54s19.334 -16 32.001 -16c11.333 0 21.833 4.16699 31.5 12.5s18.167 17.5 25.5 27.5c8 12 15.667 25.333 23 40v110zM434.999 -55
c31.333 0 60.3369 4.16211 87.0039 12.4951s49.667 17.5 69 27.5c22.667 12 43.667 25.333 63 40l11 -15c-19.333 -17.333 -41.333 -32.333 -66 -45c-21.333 -11.333 -46.666 -21.666 -75.999 -30.999s-62 -14 -98 -14c-58.667 0 -112.334 9.5 -161.001 28.5
s-90.334 45.5 -125.001 79.5s-61.5 74.667 -80.5 122s-28.5 99 -28.5 155s9.5 107.667 28.5 155s45.5 88 79.5 122s74.667 60.5 122 79.5s99 28.5 155 28.5s107.667 -9.33301 155 -28s88 -44.167 122 -76.5s60.5 -70 79.5 -113s28.5 -88.833 28.5 -137.5
c0 -36 -5.16699 -68.5 -15.5 -97.5s-24.333 -53.667 -42 -74s-38 -36 -61 -47s-46.833 -16.5 -71.5 -16.5c-28 0 -50.667 3.33301 -68 10s-31 14 -41 22c-12 9.33301 -20.667 20.333 -26 33c-7.33301 -12.667 -15.666 -23.667 -24.999 -33c-8 -8 -17.833 -15.333 -29.5 -22
s-25.167 -10 -40.5 -10c-38 0 -67.5 9.66699 -88.5 29s-31.5 43 -31.5 71c0 16 4.16699 31.833 12.5 47.5s21.166 29.667 38.499 42s39.666 22.166 66.999 29.499s59.666 11 96.999 11v45c0 40 -6.16699 68.333 -18.5 85s-26.166 25 -41.499 25
c-12.667 0 -24.167 -6 -34.5 -18s-15.5 -29.333 -15.5 -52c0 -8 1 -14 3 -18c0.666992 -2.66699 1.66699 -5 3 -7l-81 -20c-1.33301 2 -2.33301 4.33301 -3 7c-1.33301 5.33301 -2 11.333 -2 18c0 30 11 55 33 75s54.333 30 97 30c21.333 0 40.666 -3.16699 57.999 -9.5
s32 -15.166 44 -26.499s21.333 -24.666 28 -39.999s10 -31.666 10 -48.999v-175c0 -30 5.33301 -51.667 16 -65s23.667 -20 39 -20c14 0 27.5 3.66699 40.5 11s24.667 19.666 35 36.999s18.666 40 24.999 68s9.5 62.667 9.5 104c0 48.667 -8.16699 93.5 -24.5 134.5
s-38.333 76.333 -66 106s-60 52.834 -97 69.501s-76.167 25 -117.5 25s-80.5 -8.5 -117.5 -25.5s-69.333 -41.167 -97 -72.5s-49.667 -69.666 -66 -114.999s-24.5 -96 -24.5 -152c0 -55.333 8.33301 -105.166 25 -149.499s39.5 -82 68.5 -113s63.333 -55 103 -72
s82.5 -25.5 128.5 -25.5z" />
    <glyph glyph-name="A" unicode="A" horiz-adv-x="520" 
d="M335 205h-205l-50 -170l65 -25v-10h-150v10l65 25l195 680h15l210 -690l60 -15v-10h-210v10l60 15zM135 224h194l-100 331z" />
    <glyph glyph-name="B" unicode="B" 
d="M45 0v9.99414l60 15v650l-60 15v10h180c31.333 0 58.5 -3.5 81.5 -10.5s42.167 -16.667 57.5 -29s26.833 -26.666 34.5 -42.999s11.5 -33.833 11.5 -52.5c0 -14.667 -2.16699 -27.667 -6.5 -39s-10 -21.166 -17 -29.499s-15 -15.666 -24 -21.999
s-18.167 -11.5 -27.5 -15.5c-22 -10 -47 -16.333 -75 -19c41.333 -4 78 -14.333 110 -31c14 -7.33301 27.5 -16.166 40.5 -26.499s24.667 -23 35 -38s18.666 -32.333 24.999 -52s9.5 -42.167 9.5 -67.5c0 -31.333 -6 -60.666 -18 -87.999s-29.167 -51.166 -51.5 -71.499
s-49.166 -36.333 -80.499 -48s-66.333 -17.5 -105 -17.5h-180zM190 429.994v-409.998h35c22.667 0 43.667 4.33301 63 13s36.166 21.667 50.499 39s25.666 38.666 33.999 63.999s12.5 55 12.5 89s-4.16699 63.667 -12.5 89s-19.666 46.666 -33.999 63.999
s-31.166 30.333 -50.499 39s-40.333 13 -63 13h-35zM190 449.996h35c30 0.666992 54.167 10.5 72.5 29.5s27.5 47.5 27.5 85.5s-9.16699 66.667 -27.5 86s-42.5 29 -72.5 29h-35v-230z" />
    <glyph glyph-name="C" unicode="C" horiz-adv-x="490" 
d="M285 695c-18.667 0 -37.001 -5.33984 -55.001 -16.0068s-34 -29.167 -48 -55.5s-25.333 -61.666 -34 -105.999s-13 -100.166 -13 -167.499s4.33301 -123.166 13 -167.499s20.334 -79.666 35.001 -105.999s31.667 -44.833 51 -55.5s39.666 -16 60.999 -16
c17.333 0 35 4.66699 53 14s34.5 22.333 49.5 39s27.667 36.334 38 59.001s16.833 47 19.5 73h15c-2.66699 -30 -9.33398 -57.5 -20.001 -82.5s-24.167 -46.667 -40.5 -65s-35.166 -32.5 -56.499 -42.5s-44 -15 -68 -15c-31.333 0 -61.666 7.5 -90.999 22.5
s-55.5 37.667 -78.5 68s-41.333 68.333 -55 114s-20.5 99.167 -20.5 160.5s6.83301 114.833 20.5 160.5s31.667 83.667 54 114s47.5 53 75.5 68s56.333 22.5 85 22.5c16 0 30.5 -2.66699 43.5 -8s24.167 -11.333 33.5 -18c10.667 -7.33301 20 -15.666 28 -24.999
c5.33301 10 12.5 19.5 21.5 28.5s18.5 14.833 28.5 17.5h15c-1.33301 -10 -2.33301 -20 -3 -30c-0.666992 -9.33301 -1.16699 -19.166 -1.5 -29.499s-0.5 -20.5 -0.5 -30.5c0 -11.333 0.166992 -22.5 0.5 -33.5s0.833008 -21.167 1.5 -30.5
c0.666992 -10.667 1.66699 -21 3 -31h-15c-15.333 55.333 -35.833 97.5 -61.5 126.5s-53.5 43.5 -83.5 43.5z" />
    <glyph glyph-name="D" unicode="D" horiz-adv-x="560" 
d="M220 700c44 0 84.5 -8.00098 121.5 -24.001s69.167 -39 96.5 -69s48.666 -66.667 63.999 -110s23 -92.333 23 -147c0 -55.333 -7.66699 -104.666 -23 -147.999s-36.666 -80 -63.999 -110s-59.5 -52.833 -96.5 -68.5s-77.5 -23.5 -121.5 -23.5h-175v10l60 15v650l-60 15
v10h175zM190 679.999v-660.004h30c28.667 0 55.834 6.16699 81.501 18.5s48 31.833 67 58.5s34 60.834 45 102.501s16.5 91.834 16.5 150.501s-5.5 108.834 -16.5 150.501s-26 75.834 -45 102.501s-41.333 46.167 -67 58.5s-52.834 18.5 -81.501 18.5h-30z" />
    <glyph glyph-name="E" unicode="E" 
d="M390 20c0 28 5.66699 54.002 17 78.002s25.666 44.667 42.999 62h10c-1.33301 -8.66699 -2.33301 -17.667 -3 -27c-0.666992 -8 -1.16699 -16.667 -1.5 -26s-0.5 -18.333 -0.5 -27c0 -12.667 0.166992 -23.834 0.5 -33.501s0.833008 -18.167 1.5 -25.5
c0.666992 -8 1.66699 -15 3 -21h-415v10l60 15v650l-60 15v10h405c-1.33301 -6 -2.33301 -13 -3 -21c-0.666992 -7.33301 -1.16699 -15.833 -1.5 -25.5s-0.5 -20.834 -0.5 -33.501c0 -9.33301 0.166992 -18.5 0.5 -27.5s0.833008 -17.5 1.5 -25.5
c0.666992 -9.33301 1.66699 -18.333 3 -27h-10c-17.333 17.333 -31.666 38 -42.999 62s-17 50 -17 78h-190v-300h95l45 90h10v-200h-10l-45 90h-95v-340h200z" />
    <glyph glyph-name="F" unicode="F" horiz-adv-x="480" 
d="M190 360l-0.000976562 -334.999l60 -15v-10h-205v10l60 15v650l-60 15v10h405c-1.33301 -6 -2.33301 -13 -3 -21c-0.666992 -7.33301 -1.16699 -15.833 -1.5 -25.5s-0.5 -20.834 -0.5 -33.501c0 -9.33301 0.166992 -18.5 0.5 -27.5s0.833008 -17.5 1.5 -25.5
c0.666992 -9.33301 1.66699 -18.333 3 -27h-10c-17.333 17.333 -31.666 38 -42.999 62s-17 50 -17 78h-190v-300h95l45 90h10v-200h-10l-45 90h-95z" />
    <glyph glyph-name="G" unicode="G" horiz-adv-x="525" 
d="M395 320l-100.001 -0.00195312v20h185v-75c0 -45.333 -5.83301 -85.333 -17.5 -120s-27 -63.834 -46 -87.501s-40.833 -41.667 -65.5 -54s-50 -18.5 -76 -18.5c-27.333 0 -54.666 7.5 -81.999 22.5s-52 37.667 -74 68s-39.833 68.333 -53.5 114s-20.5 99.167 -20.5 160.5
s6.83301 114.833 20.5 160.5s31.667 83.667 54 114s47.5 53 75.5 68s56.333 22.5 85 22.5c16 0 30.5 -2.66699 43.5 -8s24.167 -11 33.5 -17c10.667 -7.33301 20 -15.666 28 -24.999c5.33301 10 12.5 19.333 21.5 28s18.5 14.334 28.5 17.001h15
c-1.33301 -10 -2.33301 -20 -3 -30c-0.666992 -9.33301 -1.16699 -19.166 -1.5 -29.499s-0.5 -20.5 -0.5 -30.5c0 -11.333 0.166992 -22.5 0.5 -33.5s0.833008 -21.167 1.5 -30.5c0.666992 -10.667 1.66699 -21 3 -31h-15c-15.333 55.333 -35.833 97.5 -61.5 126.5
s-53.5 43.5 -83.5 43.5c-18.667 0 -37 -5.33301 -55 -16s-34 -29.167 -48 -55.5s-25.333 -61.666 -34 -105.999s-13 -100.166 -13 -167.499c0 -68.667 4.16699 -125.5 12.5 -170.5s19.166 -80.833 32.499 -107.5s27.833 -45.334 43.5 -56.001s31.167 -16 46.5 -16
c14.667 0 29.334 4.16699 44.001 12.5s27.5 22.666 38.5 42.999s20 47.5 27 81.5s10.5 76.667 10.5 128v55z" />
    <glyph glyph-name="H" unicode="H" horiz-adv-x="585" 
d="M190 360v-335l60 -15v-10h-205v10l60 15v650l-60 15v10h205v-10l-60 -15v-295h205v295l-60 15v10h205v-10l-60 -15v-650l60 -15v-10h-205v10l60 15v335h-205z" />
    <glyph glyph-name="I" unicode="I" horiz-adv-x="295" 
d="M190 25l60 -15v-10h-205v10l60 15v650l-60 15v10h205v-10l-60 -15v-650z" />
    <glyph glyph-name="J" unicode="J" horiz-adv-x="490" 
d="M400 190c0 -31.333 -4.83398 -59.666 -14.501 -84.999s-23.334 -46.833 -41.001 -64.5s-39.167 -31.334 -64.5 -41.001s-53.666 -14.5 -84.999 -14.5c-25.333 0 -48.833 4.66699 -70.5 14s-40.667 21.666 -57 36.999s-29.166 32.833 -38.499 52.5s-14 40.167 -14 61.5
c0 38 7.83301 66.333 23.5 85s34.5 30.334 56.5 35.001l70 -60c-66.667 -10 -100 -45 -100 -105c0 -12.667 3 -25 9 -37s14.667 -22.667 26 -32s25 -16.833 41 -22.5s34 -8.5 54 -8.5c16 0 31.333 3.5 46 10.5s27.5 18 38.5 33s19.667 34.167 26 57.5s9.5 51.333 9.5 84v485
l-60 15v10h205v-10l-60 -15v-485z" />
    <glyph glyph-name="K" unicode="K" horiz-adv-x="540" 
d="M190 260v-235l60 -15v-10h-205v10l60 15v650l-60 15v10h205v-10l-60 -15v-380l215 370l-65 25v10h150v-10l-65 -25l-126 -217l201 -423l60 -15v-10h-215v10l60 15l-158 333z" />
    <glyph glyph-name="L" unicode="L" horiz-adv-x="470" 
d="M190 20l180.001 0.000976562c0 28 5.66699 54 17 78s25.666 44.667 42.999 62h10c-1.33301 -8.66699 -2.33301 -17.667 -3 -27c-0.666992 -8 -1.16699 -16.667 -1.5 -26s-0.5 -18.333 -0.5 -27c0 -12.667 0.166992 -23.834 0.5 -33.501s0.833008 -18.167 1.5 -25.5
c0.666992 -8 1.66699 -15 3 -21h-395v10l60 15v650l-60 15v10h205v-10l-60 -15v-655z" />
    <glyph glyph-name="M" unicode="M" horiz-adv-x="785" 
d="M600 700h140v-10l-60 -15v-650l60 -15v-10h-205v10l60 15v590l-215 -630h-15l-240 630v-580l65 -25v-10h-150v10l65 25v635l-65 20v10h145l219 -575z" />
    <glyph glyph-name="N" unicode="N" horiz-adv-x="585" 
d="M460 665l-65 25v10h150v-10l-65 -25v-675h-15l-340 625v-580l65 -25v-10h-150v10l65 25v635l-65 20v10h135l285 -525v490z" />
    <glyph glyph-name="O" unicode="O" horiz-adv-x="550" 
d="M510 350c0 -61.333 -6.83301 -114.833 -20.5 -160.5s-31.667 -83.667 -54 -114s-47.5 -53 -75.5 -68s-56.333 -22.5 -85 -22.5s-57 7.5 -85 22.5s-53.167 37.667 -75.5 68s-40.333 68.333 -54 114s-20.5 99.167 -20.5 160.5s6.83301 114.833 20.5 160.5
s31.667 83.667 54 114s47.5 53 75.5 68s56.333 22.5 85 22.5s57 -7.5 85 -22.5s53.167 -37.667 75.5 -68s40.333 -68.333 54 -114s20.5 -99.167 20.5 -160.5zM415 350c0 68.667 -4.16699 125.5 -12.5 170.5s-19.333 80.833 -33 107.5s-28.834 45.334 -45.501 56.001
s-33 16 -49 16s-32.333 -5.33301 -49 -16s-31.834 -29.334 -45.501 -56.001s-24.667 -62.5 -33 -107.5s-12.5 -101.833 -12.5 -170.5s4.16699 -125.5 12.5 -170.5s19.333 -80.833 33 -107.5s28.834 -45.334 45.501 -56.001s33 -16 49 -16s32.333 5.33301 49 16
s31.834 29.334 45.501 56.001s24.667 62.5 33 107.5s12.5 101.833 12.5 170.5z" />
    <glyph glyph-name="P" unicode="P" 
d="M190 250v-225l60 -15v-10h-205v10l60 15v650l-60 15v10h180c41.333 0 78.166 -5.66699 110.499 -17s59.5 -27 81.5 -47s38.833 -43.667 50.5 -71s17.5 -57.333 17.5 -90s-5.83301 -62.667 -17.5 -90s-28.5 -51 -50.5 -71s-49.167 -35.667 -81.5 -47
s-69.166 -17 -110.499 -17h-35zM190 270h35c52.667 0 93.334 16 122.001 48s43 84.333 43 157s-14.333 125 -43 157s-69.334 48 -122.001 48h-35v-410z" />
    <glyph glyph-name="Q" unicode="Q" horiz-adv-x="550" 
d="M510 350c0 -56 -6 -105.831 -18 -149.498s-27.833 -80.834 -47.5 -111.501s-42.167 -54.667 -67.5 -72s-51 -28 -77 -32c12.667 -7.33301 24 -17.5 34 -30.5s19.167 -25.833 27.5 -38.5s16 -23.5 23 -32.5s13.833 -13.5 20.5 -13.5c7.33301 0 13.333 3.16699 18 9.5
s7 18.166 7 35.499c0 14 -2 25.833 -6 35.5s-8.66699 17.667 -14 24s-10.5 11.166 -15.5 14.499s-8.16699 5.33301 -9.5 6l85 5c4.66699 -4.66699 8.66699 -10.334 12 -17.001c3.33301 -5.33301 6.33301 -11.666 9 -18.999s4 -15.333 4 -24c0 -10 -2.66699 -20 -8 -30
s-12.5 -19.167 -21.5 -27.5s-19.5 -15 -31.5 -20s-25 -7.5 -39 -7.5c-28.667 0 -51.667 5.16699 -69 15.5s-32 21.833 -44 34.5l-34 34.5c-10.667 10.333 -23.334 15.5 -38.001 15.5c-6.66699 0 -12.667 -1 -18 -3s-10 -4.33301 -14 -7c-4.66699 -2.66699 -9 -6 -13 -10
l-10 10c10 12.667 22.667 23.334 38 32.001s29.333 13 42 13c-25.333 6 -49.666 18.167 -72.999 36.5s-44 42.5 -62 72.5s-32.5 65.833 -43.5 107.5s-16.5 89.5 -16.5 143.5c0 61.333 6.83301 114.833 20.5 160.5s31.667 83.667 54 114s47.5 53 75.5 68s56.333 22.5 85 22.5
s57 -7.5 85 -22.5s53.167 -37.667 75.5 -68s40.333 -68.333 54 -114s20.5 -99.167 20.5 -160.5zM415 350.002c0 68.667 -4.16699 125.5 -12.5 170.5s-19.333 80.833 -33 107.5s-28.834 45.334 -45.501 56.001s-33 16 -49 16s-32.333 -5.33301 -49 -16
s-31.834 -29.334 -45.501 -56.001s-24.667 -62.5 -33 -107.5s-12.5 -101.833 -12.5 -170.5s4.16699 -125.5 12.5 -170.5s19.333 -80.833 33 -107.5s28.834 -45.334 45.501 -56.001s33 -16 49 -16s32.333 5.33301 49 16s31.834 29.334 45.501 56.001s24.667 62.5 33 107.5
s12.5 101.833 12.5 170.5z" />
    <glyph glyph-name="R" unicode="R" horiz-adv-x="550" 
d="M230 700c42.667 0 79.667 -4.66504 111 -13.998s57.333 -22 78 -38s36 -34.5 46 -55.5s15 -43.5 15 -67.5c0 -19.333 -2.83301 -36.5 -8.5 -51.5s-13 -28.333 -22 -40s-19.5 -21.5 -31.5 -29.5s-24 -14.667 -36 -20c-28.667 -12.667 -61 -20.667 -97 -24
c29.333 -3.33301 56 -10.333 80 -21c20.667 -9.33301 40 -23 58 -41s28.667 -42.333 32 -73l20 -175c1.33301 -12.667 4.33301 -21.667 9 -27s10 -8 16 -8c3.33301 0 6.83301 1.16699 10.5 3.5s7.16699 5.16602 10.5 8.49902s6.33301 7.66602 9 12.999l10 -10
c-4 -8.66699 -9.66699 -16.334 -17 -23.001c-6 -5.33301 -13.833 -10.333 -23.5 -15s-21.167 -7 -34.5 -7c-22.667 0 -41.167 6.5 -55.5 19.5s-22.5 28.167 -24.5 45.5l-20 175c-2.66699 22.667 -7 41.834 -13 57.501s-14.167 28.5 -24.5 38.5s-23.5 17.333 -39.5 22
s-35.333 7 -58 7h-40v-325l60 -15v-10h-205v10l60 15v650l-60 15v10h185zM385 525.002c0 50 -13.333 88.333 -40 115s-65 40 -115 40h-40v-310h40c50 0 88.333 13.333 115 40s40 65 40 115z" />
    <glyph glyph-name="S" unicode="S" horiz-adv-x="465" 
d="M110 570c0 -27.333 7.99707 -50.834 23.9971 -70.501s36 -37.834 60 -54.501s50.167 -33 78.5 -49s54.5 -34.167 78.5 -54.5s44 -44.166 60 -71.499s24 -60.666 24 -99.999c0 -26 -4.66699 -50.333 -14 -73s-22.5 -42.334 -39.5 -59.001s-37.167 -29.667 -60.5 -39
s-48.666 -14 -75.999 -14c-25.333 0 -47 2.5 -65 7.5s-33 10.833 -45 17.5c-14 7.33301 -25.667 15.666 -35 24.999c-5.33301 -10 -12.5 -19.333 -21.5 -28s-18.5 -14.334 -28.5 -17.001h-15c0.666992 9.33301 1.33398 19.333 2.00098 30
c0.666992 8.66699 1.33398 18.334 2.00098 29.001s1 21 1 31c0 11.333 -0.333008 22.5 -1 33.5s-1.33398 21.167 -2.00098 30.5l-2 31h15c15.333 -55.333 37.5 -97.5 66.5 -126.5s68.5 -43.5 118.5 -43.5c40 0 72.5 12.833 97.5 38.5s37.5 61.167 37.5 106.5
c0 27.333 -8 50.833 -24 70.5s-36 37.834 -60 54.501s-50.167 33 -78.5 49s-54.5 34.167 -78.5 54.5s-44 44.166 -60 71.499s-24 60.666 -24 99.999c0 22.667 4.33301 44 13 64s20.667 37.5 36 52.5s33.333 26.833 54 35.5s43 13 67 13c20 0 37.667 -2.66699 53 -8
s28.333 -11 39 -17c12 -7.33301 23 -15.666 33 -24.999c5.33301 10 12.5 19.333 21.5 28s18.5 14.334 28.5 17.001h15c-1.33301 -10 -2.33301 -20 -3 -30c-0.666992 -9.33301 -1.16699 -19.166 -1.5 -29.499s-0.5 -20.5 -0.5 -30.5c0 -11.333 0.166992 -22.5 0.5 -33.5
s0.833008 -21.167 1.5 -30.5c0.666992 -10.667 1.66699 -21 3 -31h-15c-15.333 55.333 -36.666 97.5 -63.999 126.5s-61 43.5 -101 43.5c-32.667 0 -60 -11.333 -82 -34s-33 -53 -33 -91z" />
    <glyph glyph-name="T" unicode="T" horiz-adv-x="495" 
d="M290 25l59.999 -15v-10h-205v10l60 15v655h-105c0 -28 -5.66699 -54 -17 -78s-25.666 -44.667 -42.999 -62h-10l2 27c0.666992 8 1.33398 16.5 2.00098 25.5s1 18.167 1 27.5c0 12.667 -0.333008 23.834 -1 33.501s-1.33398 18.167 -2.00098 25.5
c-0.666992 8 -1.33398 15 -2.00098 21h435c-1.33301 -6 -2.33301 -13 -3 -21c-0.666992 -7.33301 -1.16699 -15.833 -1.5 -25.5s-0.5 -20.834 -0.5 -33.501c0 -9.33301 0.166992 -18.5 0.5 -27.5s0.833008 -17.5 1.5 -25.5c0.666992 -9.33301 1.66699 -18.333 3 -27h-10
c-17.333 17.333 -31.666 38 -42.999 62s-17 50 -17 78h-105v-655z" />
    <glyph glyph-name="U" unicode="U" horiz-adv-x="570" 
d="M485 200c0 -75.333 -15.5 -130.001 -46.5 -164.001s-75.5 -51 -133.5 -51c-68 0 -120.833 18.833 -158.5 56.5s-56.5 90.5 -56.5 158.5v475l-60 15v10h205v-10l-60 -15v-475c0 -67.333 13.333 -116.666 40 -147.999s60 -47 100 -47c22.667 0 43.167 3.83301 61.5 11.5
s34 19.5 47 35.5s23.167 36.167 30.5 60.5s11 53.5 11 87.5v465l-65 25v10h150v-10l-65 -25v-465z" />
    <glyph glyph-name="V" unicode="V" 
d="M-10 690v10h210v-10l-60 -15l160 -525l140 515l-65 25v10h150v-10l-65 -25l-185 -680h-15l-210 690z" />
    <glyph glyph-name="W" unicode="W" horiz-adv-x="805" 
d="M-10 690v10h210v-10l-60 -15l145 -515l145 555h15l164 -555l131 505l-65 25v10h150v-10l-65 -25l-175 -680h-15l-165 560l-145 -560h-15l-195 690z" />
    <glyph glyph-name="X" unicode="X" horiz-adv-x="495" 
d="M211 326l-161 349l-60 15v10h215v-10l-60 -15l115 -250l120 240l-65 25v10h150v-10l-65 -25l-130 -261l175 -379l60 -15v-10h-215v10l60 15l-130 281l-135 -271l65 -25v-10h-150v10l65 25z" />
    <glyph glyph-name="Y" unicode="Y" horiz-adv-x="490" 
d="M295 280v-255l60 -15v-10h-205v10l60 15v250l-155 400l-60 15v10h210v-10l-60 -15l142 -365l138 355l-65 25v10h150v-10l-65 -25z" />
    <glyph glyph-name="Z" unicode="Z" horiz-adv-x="460" 
d="M115 20h250.001c0 28 5.66699 54 17 78s25.666 44.667 42.999 62h10c-1.33301 -8.66699 -2.33301 -17.667 -3 -27c-0.666992 -8 -1.16699 -16.667 -1.5 -26s-0.5 -18.333 -0.5 -27c0 -12.667 0.166992 -23.834 0.5 -33.501s0.833008 -18.167 1.5 -25.5
c0.666992 -8 1.66699 -15 3 -21h-420l320 680h-220c0 -28 -5.66699 -54 -17 -78s-25.666 -44.667 -42.999 -62h-10l2 27c0.666992 8 1.33398 16.5 2.00098 25.5s1 18.167 1 27.5c0 12.667 -0.333008 23.834 -1 33.501s-1.33398 18.167 -2.00098 25.5
c-0.666992 8 -1.33398 15 -2.00098 21h390z" />
    <glyph glyph-name="bracketleft" unicode="[" horiz-adv-x="260" 
d="M75 -200v980h185v-20h-100v-940h100v-20h-185z" />
    <glyph glyph-name="backslash" unicode="\" horiz-adv-x="430" 
d="M430 0h-45l-385 700h45z" />
    <glyph glyph-name="bracketright" unicode="]" horiz-adv-x="260" 
d="M0 -200v20h100v940h-100v20h185v-980h-185z" />
    <glyph glyph-name="asciicircum" unicode="^" horiz-adv-x="410" 
d="M400 450h-55l-140 195l-140 -195h-55l195 270z" />
    <glyph glyph-name="underscore" unicode="_" horiz-adv-x="380" 
d="M350 -50v-40h-320v40h320z" />
    <glyph glyph-name="grave" unicode="`" horiz-adv-x="150" 
d="M140 580h-30l-100 120h90z" />
    <glyph glyph-name="a" unicode="a" horiz-adv-x="465" 
d="M300 245c-58 0 -100.833 -12.832 -128.5 -38.499s-41.5 -61.167 -41.5 -106.5c0 -30 7.33301 -53.333 22 -70s30.667 -25 48 -25c16 0 30.167 4.66699 42.5 14s22.833 19.666 31.5 30.999c10 12.667 18.667 27.667 26 45v150zM225 460.001
c-20 0 -36.6689 -6.83496 -50.002 -20.502s-20 -31.834 -20 -54.501c0 -5.33301 0.166992 -10 0.5 -14s0.833008 -7.66699 1.5 -11s1.66699 -6.66602 3 -9.99902l-80 -20c-1.33301 2 -2.33301 4.66699 -3 8s-1.16699 7 -1.5 11s-0.5 9.33301 -0.5 16
c0 14 3.33301 27.5 10 40.5s16.5 24.667 29.5 35s28.667 18.666 47 24.999s39.5 9.5 63.5 9.5c48 0 85.833 -13.667 113.5 -41s41.5 -63.666 41.5 -108.999v-300l60 -15v-10h-140v60c-7.33301 -14 -16.666 -26.667 -27.999 -38
c-9.33301 -9.33301 -21.166 -17.833 -35.499 -25.5s-31.5 -11.5 -51.5 -11.5c-48 0 -84.167 11.333 -108.5 34s-36.5 53 -36.5 91c0 18.667 5.16699 37.334 15.5 56.001s26 35.334 47 50.001s47.833 26.5 80.5 35.5s71.667 13.5 117 13.5v60c0 50 -7.5 85 -22.5 105
s-32.5 30 -52.5 30z" />
    <glyph glyph-name="b" unicode="b" 
d="M260 455c-15.333 0 -28.6699 -3.17188 -40.0029 -9.50488s-20.666 -13.166 -27.999 -20.499c-8.66699 -8.66699 -16 -18.667 -22 -30v-300c7.33301 -17.333 16 -32.333 26 -45c8.66699 -11.333 19 -21.666 31 -30.999s26.333 -14 43 -14c11.333 0 22.833 3.66699 34.5 11
s22.334 19.833 32.001 37.5s17.667 40.834 24 69.501s9.5 64.334 9.5 107.001s-3.16699 78.334 -9.5 107.001s-14.666 51.667 -24.999 69s-22 29.833 -35 37.5s-26.5 11.5 -40.5 11.5zM274.996 474.995c24 0 47 -5.49902 69 -16.499s41.667 -27 59 -48
s31.166 -46.667 41.499 -77s15.5 -64.833 15.5 -103.5s-5.16699 -73.167 -15.5 -103.5s-23.666 -56 -39.999 -77s-35 -37 -56 -48s-42.167 -16.5 -63.5 -16.5c-20 0 -37.333 3.83301 -52 11.5s-26.667 16.167 -36 25.5c-11.333 11.333 -20.333 24 -27 38v-60h-140v10l60 15
v650l-60 15v10h140v-275c6 9.33301 14 17.666 24 24.999c8.66699 6 19.5 11.667 32.5 17s29.167 8 48.5 8z" />
    <glyph glyph-name="c" unicode="c" horiz-adv-x="430" 
d="M240 455c-12.667 0 -25.168 -3.83398 -37.501 -11.501s-23.5 -20.167 -33.5 -37.5s-18.167 -40.333 -24.5 -69s-9.5 -64.334 -9.5 -107.001s3.16699 -78.334 9.5 -107.001s14.833 -51.834 25.5 -69.501s22.834 -30.167 36.501 -37.5s28.167 -11 43.5 -11
c17.333 0 33.666 3.33301 48.999 10s29 15.667 41 27s21.833 25 29.5 41s12.834 33.333 15.501 52h15c-2.66699 -21.333 -8.5 -41.166 -17.5 -59.499s-20.5 -34.166 -34.5 -47.499s-30.167 -23.833 -48.5 -31.5s-38.166 -11.5 -59.499 -11.5c-26 0 -50.833 5.5 -74.5 16.5
s-44.5 27 -62.5 48s-32.167 46.667 -42.5 77s-15.5 64.833 -15.5 103.5s5.16699 73.167 15.5 103.5s24.166 56 41.499 77s37 37 59 48s45 16.5 69 16.5c16 0 30.167 -2.66699 42.5 -8s22.833 -11 31.5 -17c10 -7.33301 18.667 -15.666 26 -24.999
c2.66699 10 8.16699 19.333 16.5 28s16.166 14.334 23.499 17.001h15c-1.33301 -8.66699 -2.33301 -17.667 -3 -27c-0.666992 -8 -1.16699 -16.667 -1.5 -26s-0.5 -18.333 -0.5 -27c0 -10 0.166992 -20.167 0.5 -30.5s0.833008 -19.5 1.5 -27.5
c0.666992 -9.33301 1.66699 -18.333 3 -27h-15c-12.667 48 -31.167 85 -55.5 111s-49.166 39 -74.499 39z" />
    <glyph glyph-name="d" unicode="d" horiz-adv-x="500" 
d="M240 455c-14 0 -27.501 -3.82812 -40.501 -11.4951s-24.667 -20.167 -35 -37.5s-18.666 -40.333 -24.999 -69s-9.5 -64.334 -9.5 -107.001s3.16699 -78.334 9.5 -107.001s14.333 -51.834 24 -69.501s20.334 -30.167 32.001 -37.5s23.167 -11 34.5 -11
c16 0 30.167 4.66699 42.5 14s22.833 19.666 31.5 30.999c10 12.667 18.667 27.667 26 45v300c-6.66699 11.333 -14.334 21.333 -23.001 30c-7.33301 7.33301 -16.5 14.166 -27.5 20.499s-24.167 9.5 -39.5 9.5zM409.999 25.0049l59.998 -15.001v-10h-140v60
c-7.33301 -14 -16.666 -26.667 -27.999 -38c-9.33301 -9.33301 -21.166 -17.833 -35.499 -25.5s-31.5 -11.5 -51.5 -11.5c-21.333 0 -42.5 5.5 -63.5 16.5s-39.667 27 -56 48s-29.666 46.667 -39.999 77s-15.5 64.833 -15.5 103.5s5.16699 73.167 15.5 103.5
s24.166 56 41.499 77s37 37 59 48s45 16.5 69 16.5c18.667 0 34.667 -2.66699 48 -8s24.333 -11 33 -17c10 -7.33301 18 -15.666 24 -24.999v250l-60 15v10h140v-675z" />
    <glyph glyph-name="e" unicode="e" horiz-adv-x="445" 
d="M135 230c0 -42.667 3.16797 -78.334 9.50098 -107.001s14.666 -51.834 24.999 -69.501s22 -30.167 35 -37.5s26.5 -11 40.5 -11c17.333 0 33.666 3.33301 48.999 10s29 15.667 41 27s21.833 25 29.5 41s12.834 33.333 15.501 52h15
c-2.66699 -21.333 -8.5 -41.166 -17.5 -59.499s-20.5 -34.166 -34.5 -47.499s-30.167 -23.833 -48.5 -31.5s-38.166 -11.5 -59.499 -11.5c-25.333 0 -49.333 5.5 -72 16.5s-42.834 27 -60.501 48s-31.667 46.667 -42 77s-15.5 64.833 -15.5 103.5c0 40 5 75.333 15 106
s23.167 56.167 39.5 76.5s35.333 35.833 57 46.5s44.5 16 68.5 16s46.833 -5.33301 68.5 -16s40.667 -26.167 57 -46.5s29.5 -45.833 39.5 -76.5s15 -66 15 -106h-270zM225.001 460c-10 0 -19.998 -3.16699 -29.998 -9.5s-19.333 -17.5 -28 -33.5
s-15.834 -37.5 -21.501 -64.5s-9.16699 -61.167 -10.5 -102.5h180c-1.33301 41.333 -4.83301 75.5 -10.5 102.5s-12.834 48.5 -21.501 64.5s-18 27.167 -28 33.5s-20 9.5 -30 9.5z" />
    <glyph glyph-name="f" unicode="f" horiz-adv-x="330" 
d="M360 615c0 -11.333 -1.83301 -21.5 -5.5 -30.5s-7.83398 -16.833 -12.501 -23.5c-5.33301 -7.33301 -11 -14.333 -17 -21l-75 30c6 6.66699 11.667 13.667 17 21c4.66699 6.66699 8.83398 14.5 12.501 23.5s5.5 19.167 5.5 30.5c0 17.333 -4.5 30.833 -13.5 40.5
s-21.167 14.5 -36.5 14.5c-7.33301 0 -14.333 -1.83301 -21 -5.5s-12.5 -10 -17.5 -19s-9 -21.167 -12 -36.5s-4.5 -35 -4.5 -59v-120h140v-20h-140v-415l60 -15v-10h-200v10l60 15v415h-60v20h60v120c0 40 12.5 72.5 37.5 97.5s57.5 37.5 97.5 37.5
c18.667 0 35.667 -2.83301 51 -8.5s28.5 -13.167 39.5 -22.5s19.5 -20 25.5 -32s9 -24.333 9 -37z" />
    <glyph glyph-name="g" unicode="g" horiz-adv-x="485" 
d="M220 150c11.333 0 22.333 2.83301 33 8.5s20.334 14.834 29.001 27.501s15.5 28.834 20.5 48.501s7.5 43.167 7.5 70.5s-2.5 50.833 -7.5 70.5s-11.833 35.667 -20.5 48s-18.334 21.5 -29.001 27.5s-21.667 9 -33 9s-22.333 -3 -33 -9s-20.334 -15.167 -29.001 -27.5
s-15.5 -28.333 -20.5 -48s-7.5 -43.167 -7.5 -70.5s2.5 -50.833 7.5 -70.5s11.833 -35.834 20.5 -48.501s18.334 -21.834 29.001 -27.501s21.667 -8.5 33 -8.5zM240 -236c24.667 0 47 3.50098 67 10.501s36.833 16.5 50.5 28.5s24.167 26 31.5 42s11 32.667 11 50
c0 63.333 -31.667 95 -95 95h-160c-38 0 -65.833 7.66699 -83.5 23s-26.5 34.333 -26.5 57c0 15.333 3.83301 28.833 11.5 40.5s16.167 22.167 25.5 31.5c11.333 10 24 19.333 38 28c-13.333 8.66699 -25 19.334 -35 32.001c-9.33301 11.333 -17.5 25.333 -24.5 42
s-10.5 37 -10.5 61s4.5 46.333 13.5 67s21.5 38.667 37.5 54s35 27.333 57 36s46 13 72 13c11.333 0 22.333 -1 33 -3s20.334 -4.33301 29.001 -7c10 -2.66699 19.333 -6 28 -10c5.33301 7.33301 11.666 14 18.999 20c6.66699 5.33301 15 10 25 14s22 6 36 6
c22.667 0 40.5 -4.16699 53.5 -12.5s23.167 -17.5 30.5 -27.5c8 -12 13.333 -25.333 16 -40l-75 -15c-2 13.333 -5 25.666 -9 36.999c-3.33301 9.33301 -8 18 -14 26s-13.333 12 -22 12c-7.33301 0 -14 -1.66699 -20 -5s-10.667 -6.66602 -14 -9.99902
c-4.66699 -4.66699 -8.33398 -9.66699 -11.001 -15c25.333 -15.333 44.166 -35 56.499 -59s18.5 -51 18.5 -81c0 -24 -4.5 -46.333 -13.5 -67s-21.5 -38.667 -37.5 -54s-35 -27.333 -57 -36s-46 -13 -72 -13c-14 0 -26.667 1.16699 -38 3.5s-21.333 5.16602 -30 8.49902
c-10 3.33301 -19 7.66602 -27 12.999c-9.33301 -6 -17.666 -12.333 -24.999 -19c-6.66699 -5.33301 -12.5 -11.666 -17.5 -18.999s-7.5 -14.666 -7.5 -21.999c0 -10 4.66699 -18.167 14 -24.5s28 -9.5 56 -9.5h160c40 0 72.5 -12.833 97.5 -38.5s37.5 -59.834 37.5 -102.501
c0 -25.333 -4.83301 -48.833 -14.5 -70.5s-23.167 -40.667 -40.5 -57s-38.333 -29.166 -63 -38.499s-52 -14 -82 -14c-37.333 0 -69.833 4.16699 -97.5 12.5s-50.5 19.666 -68.5 33.999s-31.5 31.166 -40.5 50.499s-13.5 40.333 -13.5 63c0 8.66699 1 16.5 3 23.5
s4.33301 12.833 7 17.5c2.66699 5.33301 6 10 10 14l75 -30c-2 -4.66699 -3.66699 -9.66699 -5 -15c-3.33301 -10 -5 -20 -5 -30c0 -35.333 11.833 -64.333 35.5 -87s56.834 -34 99.501 -34z" />
    <glyph glyph-name="h" unicode="h" horiz-adv-x="510" 
d="M90 25v650l-60 15v10h140v-300c6.66699 13.333 15.667 25.666 27 36.999c9.33301 9.33301 21.333 18 36 26s32 12 52 12s38.5 -3.66699 55.5 -11s31.833 -17.5 44.5 -30.5s22.5 -28.667 29.5 -47s10.5 -38.833 10.5 -61.5v-300l60 -15v-10h-195v10l55 15v300
c0 47.333 -7.5 80.833 -22.5 100.5s-32.5 29.5 -52.5 29.5c-16.667 0 -31 -4.66699 -43 -14s-22.333 -19.666 -31 -30.999c-10 -13.333 -18.667 -28.333 -26 -45v-340l55 -15v-10h-195v10z" />
    <glyph glyph-name="i" unicode="i" horiz-adv-x="260" 
d="M95 25v410l-60 15v10h140v-435l60 -15v-10h-200v10zM180 575c0 -12.667 -5.16699 -24.167 -15.5 -34.5s-21.833 -15.5 -34.5 -15.5s-24.167 5.16699 -34.5 15.5s-15.5 21.833 -15.5 34.5s5.16699 24.167 15.5 34.5s21.833 15.5 34.5 15.5s24.167 -5.16699 34.5 -15.5
s15.5 -21.833 15.5 -34.5z" />
    <glyph glyph-name="j" unicode="j" horiz-adv-x="260" 
d="M-60 -150c0 11.333 1.66699 21.502 5 30.502s7.33301 16.833 12 23.5c5.33301 7.33301 11.333 14.333 18 21l75 -30c-6.66699 -6.66699 -12.667 -13.667 -18 -21c-4.66699 -6.66699 -8.66699 -14.5 -12 -23.5s-5 -19.167 -5 -30.5c0 -17.333 4.33301 -30.833 13 -40.5
s19.334 -14.5 32.001 -14.5c6 0 12 1.83301 18 5.5s11.333 10 16 19s8.5 21.167 11.5 36.5s4.5 35 4.5 59v550l-60 15v10h140v-575c0 -20 -3.33301 -38.333 -10 -55s-15.667 -30.834 -27 -42.501s-25 -20.834 -41 -27.501s-33.333 -10 -52 -10
c-17.333 0 -33.333 2.83301 -48 8.5s-27.334 13.167 -38.001 22.5s-19 20 -25 32s-9 24.333 -9 37zM195 575.002c0 -12.667 -5.16699 -24.167 -15.5 -34.5s-21.833 -15.5 -34.5 -15.5s-24.167 5.16699 -34.5 15.5s-15.5 21.833 -15.5 34.5s5.16699 24.167 15.5 34.5
s21.833 15.5 34.5 15.5s24.167 -5.16699 34.5 -15.5s15.5 -21.833 15.5 -34.5z" />
    <glyph glyph-name="k" unicode="k" horiz-adv-x="460" 
d="M170 163v-138l55 -15v-10h-195v10l60 15v650l-60 15v10h140v-510l165 235l-65 25v10h150v-10l-65 -25l-97 -138l157 -262l60 -15v-10h-205v10l55 15l-116 193z" />
    <glyph glyph-name="l" unicode="l" horiz-adv-x="255" 
d="M90 25v650l-60 15v10h140v-675l60 -15v-10h-200v10z" />
    <glyph glyph-name="m" unicode="m" horiz-adv-x="770" 
d="M95 25l0.00195312 409.999l-60 15v10h140v-60c6.66699 13.333 15.667 25.666 27 36.999c9.33301 9.33301 21.333 18 36 26s32 12 52 12c25.333 0 46.166 -4.66699 62.499 -14s29.5 -19.666 39.5 -30.999c12 -13.333 21.333 -28.333 28 -45
c8.66699 16.667 19 31.667 31 45c10.667 11.333 23.667 21.666 39 30.999s33.666 14 54.999 14c20 0 38.5 -3.66699 55.5 -11s31.833 -17.5 44.5 -30.5s22.5 -28.667 29.5 -47s10.5 -38.833 10.5 -61.5v-300l60 -15v-10h-195v10l55 15v300c0 47.333 -7.5 80.833 -22.5 100.5
s-32.5 29.5 -52.5 29.5c-16.667 0 -31 -4.66699 -43 -14s-22.333 -19.666 -31 -30.999c-10 -13.333 -18.667 -28.333 -26 -45v-340l55 -15v-10h-190v10l55 15v300c0 47.333 -7.5 80.833 -22.5 100.5s-32.5 29.5 -52.5 29.5c-16.667 0 -31 -4.66699 -43 -14
s-22.333 -19.666 -31 -30.999c-10 -13.333 -18.667 -28.333 -26 -45v-340l55 -15v-10h-195v10z" />
    <glyph glyph-name="n" unicode="n" horiz-adv-x="515" 
d="M95 25v410l-60 15v10h140v-60c6.66699 13.333 15.667 25.666 27 36.999c9.33301 9.33301 21.333 18 36 26s32 12 52 12s38.5 -3.66699 55.5 -11s31.833 -17.5 44.5 -30.5s22.5 -28.667 29.5 -47s10.5 -38.833 10.5 -61.5v-300l60 -15v-10h-195v10l55 15v300
c0 47.333 -7.5 80.833 -22.5 100.5s-32.5 29.5 -52.5 29.5c-16.667 0 -31 -4.66699 -43 -14s-22.333 -19.666 -31 -30.999c-10 -13.333 -18.667 -28.333 -26 -45v-340l55 -15v-10h-195v10z" />
    <glyph glyph-name="o" unicode="o" horiz-adv-x="470" 
d="M235 460c-11.333 0 -22.833 -3.83301 -34.5 -11.5s-22.334 -20.334 -32.001 -38.001s-17.667 -41.167 -24 -70.5s-9.5 -66 -9.5 -110s3.16699 -80.667 9.5 -110s14.333 -52.833 24 -70.5s20.334 -30.334 32.001 -38.001s23.167 -11.5 34.5 -11.5
s22.833 3.83301 34.5 11.5s22.334 20.334 32.001 38.001s17.667 41.167 24 70.5s9.5 66 9.5 110s-3.16699 80.667 -9.5 110s-14.333 52.833 -24 70.5s-20.334 30.334 -32.001 38.001s-23.167 11.5 -34.5 11.5zM235 475c24.667 0 48.5 -5.5 71.5 -16.5s43.333 -27 61 -48
s31.667 -46.667 42 -77s15.5 -64.833 15.5 -103.5s-5.16699 -73.167 -15.5 -103.5s-24.333 -56 -42 -77s-38 -37 -61 -48s-46.833 -16.5 -71.5 -16.5c-25.333 0 -49.333 5.5 -72 16.5s-42.834 27 -60.501 48s-31.667 46.667 -42 77s-15.5 64.833 -15.5 103.5
s5.16699 73.167 15.5 103.5s24.333 56 42 77s37.834 37 60.501 48s46.667 16.5 72 16.5z" />
    <glyph glyph-name="p" unicode="p" horiz-adv-x="500" 
d="M85 435l-60 15.002v10h140v-60c6.66699 13.333 15.667 25.666 27 36.999c9.33301 9.33301 21.333 18 36 26s32 12 52 12c21.333 0 42.5 -5.5 63.5 -16.5s39.667 -27 56 -48s29.666 -46.667 39.999 -77s15.5 -64.833 15.5 -103.5s-5.16699 -73.167 -15.5 -103.5
s-24.166 -56 -41.499 -77s-37 -37 -59 -48s-45 -16.5 -69 -16.5c-19.333 0 -35.5 2.5 -48.5 7.5s-23.833 10.833 -32.5 17.5c-10 7.33301 -18 15.666 -24 24.999v-250l60 -15v-10h-200v10l60 15v650zM255 5.00195c14 0 27.5039 3.66211 40.5039 10.9951
s24.667 19.833 35 37.5s18.666 40.834 24.999 69.501s9.5 64.334 9.5 107.001s-3.16699 78.334 -9.5 107.001s-14.333 51.667 -24 69s-20.334 29.833 -32.001 37.5s-23.167 11.5 -34.5 11.5c-16.667 0 -31 -4.66699 -43 -14s-22.333 -19.666 -31 -30.999
c-10 -13.333 -18.667 -28.333 -26 -45v-300c6 -11.333 13.333 -21.333 22 -30c7.33301 -7.33301 16.666 -14.166 27.999 -20.499s24.666 -9.5 39.999 -9.5z" />
    <glyph glyph-name="q" unicode="q" horiz-adv-x="500" 
d="M245 5c15.333 0 28.501 3.17188 39.501 9.50488s20.167 13.166 27.5 20.499c8.66699 8.66699 16.334 18.667 23.001 30v300c-7.33301 16.667 -16 31.667 -26 45c-8.66699 11.333 -19.167 21.666 -31.5 30.999s-26.5 14 -42.5 14c-11.333 0 -22.833 -3.83301 -34.5 -11.5
s-22.334 -20.167 -32.001 -37.5s-17.667 -40.333 -24 -69s-9.5 -64.334 -9.5 -107.001s3.16699 -78.334 9.5 -107.001s14.666 -51.834 24.999 -69.501s22 -30.167 35 -37.5s26.5 -11 40.5 -11zM415.001 -214.995l60.002 -15.002v-10h-200v10l60 15v250
c-6 -9.33301 -14 -17.666 -24 -24.999c-8.66699 -6.66699 -19.667 -12.5 -33 -17.5s-29.333 -7.5 -48 -7.5c-24 0 -47 5.5 -69 16.5s-41.667 27 -59 48s-31.166 46.667 -41.499 77s-15.5 64.833 -15.5 103.5s5.16699 73.167 15.5 103.5s23.666 56 39.999 77s35 37 56 48
s42.167 16.5 63.5 16.5c20 0 37.167 -4 51.5 -12s26.166 -16.667 35.499 -26c11.333 -11.333 20.666 -23.666 27.999 -36.999v60h140v-10l-60 -15v-650z" />
    <glyph glyph-name="r" unicode="r" horiz-adv-x="360" 
d="M175 25l60.001 -15.001v-10h-200v10l60 15v410l-60 15v10h140v-120c8.66699 24.667 19 47 31 67c10.667 17.333 23.667 33 39 47s33.666 21 54.999 21c7.33301 0 14.333 -0.5 21 -1.5s12.667 -2.16699 18 -3.5c6 -2 11.333 -3.66699 16 -5l-30 -75
c-4 2 -8.33301 4.33301 -13 7c-4 2 -8.83301 3.83301 -14.5 5.5s-11.5 2.5 -17.5 2.5c-17.333 0 -32.666 -4.66699 -45.999 -14s-24.333 -19.666 -33 -30.999c-10.667 -13.333 -19.334 -28.333 -26.001 -45v-290z" />
    <glyph glyph-name="s" unicode="s" horiz-adv-x="405" 
d="M215 -15c-21.333 0 -39.6709 2.49902 -55.0039 7.49902s-27.666 10.833 -36.999 17.5c-11.333 7.33301 -20.666 15.666 -27.999 24.999c-2.66699 -10 -8.16699 -19.333 -16.5 -28s-16.166 -14.334 -23.499 -17.001h-15l2 27c0.666992 8 1.33398 16.5 2.00098 25.5
s1 18.167 1 27.5c0 10 -0.333008 20 -1 30s-1.33398 19 -2.00098 27l-2 28h15c12.667 -48 32 -85 58 -111s56.667 -39 92 -39c28 0 50.833 8.66699 68.5 26s26.5 38.666 26.5 63.999c0 18 -6.16699 33.667 -18.5 47s-27.833 25.5 -46.5 36.5s-38.667 21.833 -60 32.5
s-41.333 22.667 -60 36s-34.167 29 -46.5 47s-18.5 40 -18.5 66c0 14.667 3.33301 29 10 43s15.834 26.333 27.501 37s25.834 19.167 42.501 25.5s35 9.5 55 9.5c17.333 0 32.5 -2.66699 45.5 -8s24.167 -11 33.5 -17c10 -7.33301 18.667 -15.666 26 -24.999
c2.66699 10 8.16699 19.333 16.5 28s16.166 14.334 23.499 17.001h15c-1.33301 -8.66699 -2.33301 -17.667 -3 -27c-0.666992 -8 -1.16699 -16.667 -1.5 -26s-0.5 -18.333 -0.5 -27c0 -10 0.166992 -20.167 0.5 -30.5s0.833008 -19.5 1.5 -27.5
c0.666992 -9.33301 1.66699 -18.333 3 -27h-15c-12.667 48 -31.334 85 -56.001 111s-51 39 -79 39c-22.667 0 -41.667 -7.5 -57 -22.5s-23 -32.5 -23 -52.5c0 -16.667 6.33301 -31 19 -43s28.334 -23.167 47.001 -33.5s39.167 -20.833 61.5 -31.5s42.833 -23 61.5 -37
s34.334 -30.667 47.001 -50s19 -42.666 19 -69.999c0 -16 -3.83301 -31.833 -11.5 -47.5s-18.334 -29.667 -32.001 -42s-30 -22.166 -49 -29.499s-39.833 -11 -62.5 -11z" />
    <glyph glyph-name="t" unicode="t" horiz-adv-x="355" 
d="M290 460l-0.00195312 -20h-115v-319c0 -40.667 7.33301 -70.167 22 -88.5s30.667 -27.5 48 -27.5c22.667 0 41.834 8.5 57.501 25.5s24.834 41.833 27.501 74.5h15c-2.66699 -38 -14.167 -67.5 -34.5 -88.5s-45.5 -31.5 -75.5 -31.5c-42.667 0 -76.667 12.5 -102 37.5
s-38 57.5 -38 97.5v320h-85v20h85v115l80 55v-170h115z" />
    <glyph glyph-name="u" unicode="u" 
d="M410 435l-0.00195312 -409.999l60 -15v-10h-140v60c-7.33301 -14 -16.666 -26.667 -27.999 -38c-9.33301 -9.33301 -21.166 -17.833 -35.499 -25.5s-31.5 -11.5 -51.5 -11.5s-38.5 3.66699 -55.5 11s-31.833 17.5 -44.5 30.5s-22.5 28.667 -29.5 47
s-10.5 38.833 -10.5 61.5v300l-60 15v10h195v-10l-55 -15v-300c0 -47.333 7.5 -80.833 22.5 -100.5s32.5 -29.5 52.5 -29.5c16 0 30.167 4.66699 42.5 14s22.833 19.666 31.5 30.999c10 12.667 18.667 27.667 26 45v340l-55 15v10h195v-10z" />
    <glyph glyph-name="v" unicode="v" horiz-adv-x="435" 
d="M50 435l-60 15v10h200v-10l-55 -15l126 -325l104 315l-65 25v10h150v-10l-65 -25l-145 -440h-15z" />
    <glyph glyph-name="w" unicode="w" horiz-adv-x="655" 
d="M215 -15h-15l-150 450l-60 15v10h200v-10l-55 -15l104 -313l111 353h15l128 -353l92 303l-65 25v10h150v-10l-65 -25l-135 -440h-15l-129 354z" />
    <glyph glyph-name="x" unicode="x" horiz-adv-x="425" 
d="M190 191l-100 -156l65 -25v-10h-150v10l65 25l110 172l-130 228l-60 15v10h205v-10l-55 -15l88 -154l92 144l-65 25v10h150v-10l-65 -25l-103 -160l138 -240l60 -15v-10h-205v10l55 15z" />
    <glyph glyph-name="y" unicode="y" horiz-adv-x="435" 
d="M215 -85c-10.667 -31.333 -21 -57.5 -31 -78.5s-20.5 -38 -31.5 -51s-22.333 -22.167 -34 -27.5s-24.5 -8 -38.5 -8c-4 0 -7.66699 0.166992 -11 0.5s-6.66602 0.833008 -9.99902 1.5s-6.33301 1.66699 -9 3l-15 75c2.66699 -1.33301 5.66699 -2.33301 9 -3
s6.66602 -1.16699 9.99902 -1.5s7 -0.5 11 -0.5c40 0 69.167 7.5 87.5 22.5s32.5 37.5 42.5 67.5l28 85l-173 435l-60 15v10h200v-10l-55 -15l127 -319l103 309l-65 25v10h150v-10l-65 -25z" />
    <glyph glyph-name="z" unicode="z" horiz-adv-x="430" 
d="M320 20c0 28 5.66699 52.834 17 74.501s25.666 40.167 42.999 55.5h10c-1.33301 -8.66699 -2.33301 -17.334 -3 -26.001c-0.666992 -7.33301 -1.16699 -15.5 -1.5 -24.5s-0.5 -17.167 -0.5 -24.5c0 -11.333 0.166992 -21.5 0.5 -30.5s0.833008 -16.833 1.5 -23.5
c0.666992 -7.33301 1.66699 -14.333 3 -21h-355l250 440h-160c0 -28 -5.66699 -52.833 -17 -74.5s-25.666 -40.167 -42.999 -55.5h-10l2 26c0.666992 7.33301 1.33398 15.5 2.00098 24.5s1 17.167 1 24.5c0 11.333 -0.333008 21.5 -1 30.5s-1.33398 16.833 -2.00098 23.5
l-2 21h335l-250 -440h180z" />
    <glyph glyph-name="braceleft" unicode="{" horiz-adv-x="285" 
d="M20 300c14 1.33301 26.5 4.83203 37.5 10.499s20.333 14.667 28 27s13.667 28.833 18 49.5s6.5 46.667 6.5 78v145c0 60.667 13.833 105.834 41.5 135.501s65.5 44.5 113.5 44.5v-20c-10 0 -19 -2 -27 -6s-14.833 -11.833 -20.5 -23.5s-10 -27.834 -13 -48.501
s-4.5 -48 -4.5 -82v-145c0 -41.333 -6.83301 -73.666 -20.5 -96.999s-28.5 -40.666 -44.5 -51.999c-19.333 -13.333 -41 -22 -65 -26c24 -4 45.667 -12.667 65 -26c16 -11.333 30.833 -28.833 44.5 -52.5s20.5 -55.834 20.5 -96.501v-145c0 -34 1.5 -61.333 4.5 -82
s7.33301 -36.834 13 -48.501s12.5 -19.5 20.5 -23.5s17 -6 27 -6v-20c-48 0 -85.833 14.833 -113.5 44.5s-41.5 74.834 -41.5 135.501v145c0 31.333 -2.16699 57.333 -6.5 78s-10.333 37.167 -18 49.5s-17 21.333 -28 27s-23.5 9.16699 -37.5 10.5v20z" />
    <glyph glyph-name="bar" unicode="|" horiz-adv-x="205" 
d="M75 700h55v-940h-55v940z" />
    <glyph glyph-name="braceright" unicode="}" horiz-adv-x="285" 
d="M265 280c-14 -1.33301 -26.5 -4.83203 -37.5 -10.499s-20.333 -14.667 -28 -27s-13.667 -28.833 -18 -49.5s-6.5 -46.667 -6.5 -78v-145c0 -60.667 -13.833 -105.834 -41.5 -135.501s-65.5 -44.5 -113.5 -44.5v20c10 0 19 2 27 6s14.833 11.833 20.5 23.5
s10 27.834 13 48.501s4.5 48 4.5 82v145c0 40.667 6.66699 72.834 20 96.501s28.333 41.167 45 52.5c18.667 13.333 40.334 22 65.001 26c-24.667 4 -46.334 12.667 -65.001 26c-16.667 11.333 -31.667 28.666 -45 51.999s-20 55.666 -20 96.999v145
c0 34 -1.5 61.333 -4.5 82s-7.33301 36.834 -13 48.501s-12.5 19.5 -20.5 23.5s-17 6 -27 6v20c48 0 85.833 -14.833 113.5 -44.5s41.5 -74.834 41.5 -135.501v-145c0 -31.333 2.16699 -57.333 6.5 -78s10.333 -37.167 18 -49.5s17 -21.333 28 -27s23.5 -9.16699 37.5 -10.5
v-20v0z" />
    <glyph glyph-name="asciitilde" unicode="~" horiz-adv-x="375" 
d="M290 350c29.333 0 49.333 18.333 60 55h15c-5.33301 -42.667 -16.833 -73.334 -34.5 -92.001s-37.834 -28 -60.501 -28c-16 0 -32.333 2.83301 -49 8.5s-33 12 -49 19s-31.333 13.333 -46 19s-28.334 8.5 -41.001 8.5c-29.333 0 -49.333 -18.333 -60 -55h-15
c5.33301 42.667 16.833 73.334 34.5 92.001s37.834 28 60.501 28c16 0 32.333 -2.83301 49 -8.5s33 -12 49 -19s31.333 -13.333 46 -19s28.334 -8.5 41.001 -8.5z" />
    <glyph glyph-name="nonbreakingspace" unicode="&#xa0;" horiz-adv-x="240" 
 />
    <glyph glyph-name="exclamdown" unicode="&#xa1;" horiz-adv-x="240" 
d="M120 -254.956c17.333 0 31.668 6 43.001 17.999s17 29.3311 17 51.9961l-45 484.971h-30l-45 -484.971c0 -22.665 5.66699 -39.9971 17 -51.9961s25.666 -17.999 42.999 -17.999zM65.002 415.003c0 -15.333 5.33301 -28.332 16 -38.998s23.667 -15.999 39 -15.999
s28.333 5.33301 39 15.999s16 23.665 16 38.998c0 15.332 -5.33301 28.3311 -16 38.9971s-23.667 15.999 -39 15.999s-28.333 -5.33301 -39 -15.999s-16 -23.665 -16 -38.9971z" />
    <glyph glyph-name="cent" unicode="&#xa2;" horiz-adv-x="430" 
d="M230 -15c-25.333 1.33301 -49.1641 7.83105 -71.4971 19.498s-42 28 -59 49s-30.333 46.333 -40 76s-14.5 63.167 -14.5 100.5c0 38.667 5.16699 73.167 15.5 103.5s24.166 56 41.499 77s37 37 59 48s45 16.5 69 16.5v55h20v-57c13.333 -2 24.666 -5.66699 33.999 -11
s17.666 -10.666 24.999 -15.999c7.33301 -6.66699 14.333 -13.667 21 -21c2.66699 10 8.16699 19.333 16.5 28s16.166 14.334 23.499 17.001h15c-1.33301 -8.66699 -2.33301 -17.667 -3 -27c-0.666992 -8 -1.16699 -16.667 -1.5 -26s-0.5 -18.333 -0.5 -27
c0 -10 0.166992 -20.167 0.5 -30.5s0.833008 -19.5 1.5 -27.5c0.666992 -9.33301 1.66699 -18.333 3 -27h-15c-12 44.667 -29.167 79.834 -51.5 105.501s-45.166 40.167 -68.499 43.5v-449c17.333 0 33.666 3.33301 48.999 10s29 15.667 41 27s21.833 25 29.5 41
s12.834 33.333 15.501 52h15c-2.66699 -20.667 -8.16699 -39.834 -16.5 -57.501s-19 -33 -32 -46s-28.167 -23.5 -45.5 -31.5s-36 -12.667 -56 -14v-56h-20v55zM135.002 229.998c0 -38 2.50098 -70.333 7.50098 -97s11.833 -49 20.5 -67s18.667 -31.667 30 -41
s23.666 -15.333 36.999 -18v447c-12 -2 -23.667 -7.33301 -35 -16s-21.5 -21.667 -30.5 -39s-16.167 -39.833 -21.5 -67.5s-8 -61.5 -8 -101.5z" />
    <glyph glyph-name="sterling" unicode="&#xa3;" horiz-adv-x="510" 
d="M195 240c0 -35.333 -4.99902 -64.1641 -14.999 -86.4971s-21 -40.166 -33 -53.499c-14 -15.333 -29.667 -27 -47 -35h335l20 95h15v-160h-430v45c12.667 13.333 24.334 29.666 35.001 48.999c8.66699 16 16.667 36.167 24 60.5s11 52.833 11 85.5v130h-60v20h60v130
c0 62.667 16 110.834 48 144.501s74.333 50.5 127 50.5c26 0 49.333 -3.83301 70 -11.5s38 -17.834 52 -30.501s24.667 -27.5 32 -44.5s11 -34.833 11 -53.5c0 -7.33301 -0.5 -14 -1.5 -20s-2.16699 -10.667 -3.5 -14c-2 -4.66699 -3.66699 -8.33398 -5 -11.001l-85 20l5 15
c1.33301 4.66699 2.5 9.5 3.5 14.5s1.5 10.167 1.5 15.5c0 35.333 -7.66699 61.666 -23 78.999s-34.333 26 -57 26c-10 0 -20.333 -3.33301 -31 -10s-20.334 -17.167 -29.001 -31.5s-15.834 -32.833 -21.501 -55.5s-8.5 -50.334 -8.5 -83.001v-130h170v-20h-170v-130z" />
    <glyph glyph-name="currency" unicode="&#xa4;" 
d="M50 220h55v50h-55v20h55v385l-60 15v10h180c41.333 0 78.166 -5.5 110.499 -16.5s59.5 -26.333 81.5 -46s38.833 -42.5 50.5 -68.5s17.5 -54 17.5 -84s-5.83301 -58 -17.5 -84s-28.5 -48.833 -50.5 -68.5s-49.167 -35 -81.5 -46s-69.166 -16.5 -110.499 -16.5h-35v-50
h220v-20h-220v-175l60 -15v-10h-205v10l60 15v175h-55v20zM190 290h35c52.667 0 93.334 15.5 122.001 46.5s43 80.5 43 148.5s-14.333 117.5 -43 148.5s-69.334 46.5 -122.001 46.5h-35v-390z" />
    <glyph glyph-name="yen" unicode="&#xa5;" horiz-adv-x="490" 
d="M90 295h112l-147 380l-60 15v10h210v-10l-60 -15l142 -365l138 355l-65 25v10h150v-10l-65 -25l-144 -370h114v-20h-120v-45h120v-20h-120v-185l60 -15v-10h-205v10l60 15v185h-120v20h120v45h-120v20z" />
    <glyph glyph-name="brokenbar" unicode="&#xa6;" horiz-adv-x="205" 
d="M75 160h55v-400h-55v400zM130 300h-55v400h55v-400z" />
    <glyph glyph-name="section" unicode="&#xa7;" horiz-adv-x="445" 
d="M35 260c0 16 2.83496 31.6709 8.50195 47.0039s13.5 29.666 23.5 42.999s21.667 25.166 35 35.499s27.666 18.5 42.999 24.5c-22.667 20 -41.667 42.667 -57 68s-23 54.333 -23 87c0 21.333 3.83301 41.166 11.5 59.499s18.167 34.166 31.5 47.499
s29.166 23.833 47.499 31.5s38.166 11.5 59.499 11.5c24.667 0 47 -3.5 67 -10.5s36.833 -16 50.5 -27s24.167 -23.833 31.5 -38.5s11 -29.334 11 -44.001c0 -6.66699 -0.333008 -12 -1 -16s-1.33398 -7.66699 -2.00098 -11s-1.33398 -6 -2.00098 -8l-85 20l2 10
c0.666992 3.33301 1.33398 7 2.00098 11s1 8.66699 1 14c0 22.667 -7.5 41.667 -22.5 57s-32.5 23 -52.5 23c-22.667 0 -42.5 -9.5 -59.5 -28.5s-25.5 -46.167 -25.5 -81.5c0 -22.667 6.83301 -43 20.5 -61s31 -35.167 52 -51.5l67.5 -50s46.5 -35.333 67.5 -55
s38.333 -41.834 52 -66.501s20.5 -53.334 20.5 -86.001s-8.66699 -61.167 -26 -85.5s-38.666 -44.166 -63.999 -59.499c25.333 -20 45.833 -43.667 61.5 -71s23.5 -58.666 23.5 -93.999c0 -21.333 -4.33301 -41.666 -13 -60.999s-20.667 -36.333 -36 -51
s-33.333 -26.334 -54 -35.001s-43 -13 -67 -13c-30 0 -56.833 4 -80.5 12s-43.5 19 -59.5 33s-28.333 30 -37 48s-13 37 -13 57c0 6 0.166992 11.167 0.5 15.5s0.833008 8.16602 1.5 11.499s1.66699 6 3 8l85 -20c-1.33301 -3.33301 -2.33301 -6.66602 -3 -9.99902
s-1.16699 -7 -1.5 -11s-0.5 -8.66699 -0.5 -14c0 -35.333 9.33301 -62.5 28 -81.5s44.334 -28.5 77.001 -28.5c12.667 0 25 3 37 9s22.667 14.333 32 25s16.833 23.334 22.5 38.001s8.5 30.667 8.5 48c0 29.333 -7.33301 54.333 -22 75s-33.167 39.334 -55.5 56.001
s-46.5 32.5 -72.5 47.5s-50.167 31.5 -72.5 49.5s-40.833 38.667 -55.5 62s-22 51.666 -22 84.999zM340.002 195.004c0 21.333 -5.66992 40.999 -17.0029 58.999s-25.666 35 -42.999 51s-36.666 31.833 -57.999 47.5l-62 47.5c-17.333 -10 -31.666 -26.167 -42.999 -48.5
s-17 -46.166 -17 -71.499c0 -22.667 6.5 -42.667 19.5 -60s29.5 -33.666 49.5 -48.999s42 -30.333 66 -45s47.333 -30 70 -46c10 12.667 18.333 28.667 25 48s10 41.666 10 66.999z" />
    <glyph glyph-name="dieresis" unicode="&#xa8;" horiz-adv-x="285" 
d="M110 650c0 -12.667 -5.16699 -24.167 -15.5 -34.5s-21.833 -15.5 -34.5 -15.5s-24.167 5.16699 -34.5 15.5s-15.5 21.833 -15.5 34.5s5.16699 24.167 15.5 34.5s21.833 15.5 34.5 15.5s24.167 -5.16699 34.5 -15.5s15.5 -21.833 15.5 -34.5zM275 650
c0 -12.667 -5.16699 -24.167 -15.5 -34.5s-21.833 -15.5 -34.5 -15.5s-24.167 5.16699 -34.5 15.5s-15.5 21.833 -15.5 34.5s5.16699 24.167 15.5 34.5s21.833 15.5 34.5 15.5s24.167 -5.16699 34.5 -15.5s15.5 -21.833 15.5 -34.5z" />
    <glyph glyph-name="copyright" unicode="&#xa9;" horiz-adv-x="790" 
d="M770 350c0 -52.667 -10 -102 -30 -148s-47 -86.167 -81 -120.5s-73.667 -61.5 -119 -81.5s-93.666 -30 -144.999 -30s-99.666 10 -144.999 30s-85 47.167 -119 81.5s-61 74.5 -81 120.5s-30 95.333 -30 148s10 102 30 148s47 86.167 81 120.5s73.667 61.5 119 81.5
s93.666 30 144.999 30s99.666 -10 144.999 -30s85 -47.167 119 -81.5s61 -74.5 81 -120.5s30 -95.333 30 -148zM735 350c0 48.667 -9 94.334 -27 137.001s-42.5 79.667 -73.5 111s-67.167 56.166 -108.5 74.499s-85 27.5 -131 27.5s-89.667 -9.16699 -131 -27.5
s-77.5 -43.166 -108.5 -74.499s-55.5 -68.333 -73.5 -111s-27 -88.334 -27 -137.001s9 -94.334 27 -137.001s42.5 -79.667 73.5 -111s67.167 -56.166 108.5 -74.499s85 -27.5 131 -27.5s89.667 9.16699 131 27.5s77.5 43.166 108.5 74.499s55.5 68.333 73.5 111
s27 88.334 27 137.001zM405 560c-11.333 0 -22.832 -3.66113 -34.499 -10.9941s-22.334 -19.333 -32.001 -36s-17.667 -38.334 -24 -65.001s-9.5 -59.334 -9.5 -98.001s3.16699 -71.334 9.5 -98.001s14.666 -48.334 24.999 -65.001s22 -28.667 35 -36s26.5 -11 40.5 -11
c16 0 31.333 3.16699 46 9.5s27.834 15.166 39.501 26.499s21.334 24.666 29.001 39.999s12.834 31.666 15.501 48.999h15c-2.66699 -20 -8.5 -38.833 -17.5 -56.5s-20.333 -33 -34 -46s-29.334 -23.333 -47.001 -31s-36.5 -11.5 -56.5 -11.5
c-25.333 0 -49.333 5.33301 -72 16s-42.834 26 -60.501 46s-31.667 44.167 -42 72.5s-15.5 60.166 -15.5 95.499c0 34.667 5.16699 66.167 15.5 94.5s24 52.5 41 72.5s36.167 35.5 57.5 46.5s43.333 16.5 66 16.5c16 0 30.167 -2.66699 42.5 -8s22.833 -11 31.5 -17
c10 -7.33301 18.667 -15.666 26 -24.999c2.66699 10 8.16699 19.333 16.5 28s16.166 14.334 23.499 17.001h15c-1.33301 -8.66699 -2.33301 -17.667 -3 -27c-0.666992 -8 -1.16699 -16.667 -1.5 -26s-0.5 -18.333 -0.5 -27c0 -9.33301 0.166992 -18.5 0.5 -27.5
s0.833008 -17.5 1.5 -25.5c0.666992 -9.33301 1.66699 -18.333 3 -27h-15c-12.667 45.333 -31.167 80.833 -55.5 106.5s-49.166 38.5 -74.499 38.5z" />
    <glyph glyph-name="ordfeminine" unicode="&#xaa;" horiz-adv-x="326" 
d="M201 610c0 30 -5.16699 51.6689 -15.5 65.002s-21.833 20 -34.5 20s-23.334 -4.33301 -32.001 -13s-13 -19.334 -13 -32.001c0 -2.66699 0.166992 -5.66699 0.5 -9s0.833008 -6.66602 1.5 -9.99902s1.66699 -7 3 -11l-65 -10c-1.33301 4 -2.33301 7.66699 -3 11
s-1.16699 6.16602 -1.5 8.49902s-0.5 4.16602 -0.5 5.49902c0 20 9.16699 37.5 27.5 52.5s47.5 22.5 87.5 22.5c35.333 0 63.333 -9.66699 84 -29s31 -43 31 -71v-188l40 -12v-10h-110v35c-7.33301 -8.66699 -15.333 -16.334 -24 -23.001
c-7.33301 -5.33301 -16.166 -10.333 -26.499 -15s-21.833 -7 -34.5 -7c-30 0 -53.5 7.66699 -70.5 23s-25.5 34.333 -25.5 57c0 11.333 3.5 22.833 10.5 34.5s18 22.334 33 32.001s33.833 17.667 56.5 24s49.667 9.5 81 9.5v40zM201 555.002
c-35.333 0 -61.832 -7.83203 -79.499 -23.499s-26.5 -36.167 -26.5 -61.5c0 -20 4.33301 -35 13 -45s18 -15 28 -15c8.66699 0 17 2.5 25 7.5s15 10.833 21 17.5c7.33301 7.33301 13.666 15.666 18.999 24.999v95z" />
    <glyph glyph-name="guillemotleft" unicode="&#xab;" horiz-adv-x="340" 
d="M320 90h-20l-140 140l140 140h20l-75 -140zM195 400h20l-115 -170l115 -170h-20l-185 170z" />
    <glyph glyph-name="logicalnot" unicode="&#xac;" horiz-adv-x="440" 
d="M410 340v-135h-40v95h-340v40h380z" />
    <glyph glyph-name="uni00AD" unicode="&#xad;" horiz-adv-x="410" 
d="M380 310v-40h-350v40h350z" />
    <glyph glyph-name="registered" unicode="&#xae;" horiz-adv-x="790" 
d="M770 350c0 -52.667 -10 -102 -30 -148s-47 -86.167 -81 -120.5s-73.667 -61.5 -119 -81.5s-93.666 -30 -144.999 -30s-99.666 10 -144.999 30s-85 47.167 -119 81.5s-61 74.5 -81 120.5s-30 95.333 -30 148s10 102 30 148s47 86.167 81 120.5s73.667 61.5 119 81.5
s93.666 30 144.999 30s99.666 -10 144.999 -30s85 -47.167 119 -81.5s61 -74.5 81 -120.5s30 -95.333 30 -148zM735 350c0 48.667 -9 94.334 -27 137.001s-42.5 79.667 -73.5 111s-67.167 56.166 -108.5 74.499s-85 27.5 -131 27.5s-89.667 -9.16699 -131 -27.5
s-77.5 -43.166 -108.5 -74.499s-55.5 -68.333 -73.5 -111s-27 -88.334 -27 -137.001s9 -94.334 27 -137.001s42.5 -79.667 73.5 -111s67.167 -56.166 108.5 -74.499s85 -27.5 131 -27.5s89.667 9.16699 131 27.5s77.5 43.166 108.5 74.499s55.5 68.333 73.5 111
s27 88.334 27 137.001zM340 330l0.00292969 -174.997l55 -15v-10h-190v10l55 15v390l-55 15v10h165c34.667 0 64.667 -3.5 90 -10.5s46.166 -16 62.499 -27s28.333 -23.833 36 -38.5s11.5 -29.334 11.5 -44.001c0 -25.333 -7.66699 -45.333 -23 -60s-32 -25.667 -50 -33
c-21.333 -8.66699 -45.333 -14.334 -72 -17.001c20 -2.66699 38.333 -7.66699 55 -15c14 -6.66699 27.5 -15.834 40.5 -27.501s21.167 -27.5 24.5 -47.5l11 -65c2 -12.667 5.16699 -21.667 9.5 -27s9.16602 -8 14.499 -8c3.33301 0 6.66602 1 9.99902 3s6 4.33301 8 7
c2.66699 2.66699 5 6 7 10l10 -10c-4 -7.33301 -9.33301 -14 -16 -20c-5.33301 -5.33301 -12.5 -10 -21.5 -14s-19.833 -6 -32.5 -6c-22.667 0 -40 5.83301 -52 17.5s-19.667 27.5 -23 47.5l-11 65c-4 25.333 -12.833 45 -26.5 59s-34.5 21 -62.5 21h-30zM370.003 350.003
c35.333 0 62.5 9.16699 81.5 27.5s28.5 42.5 28.5 72.5s-9.5 54.167 -28.5 72.5s-46.167 27.5 -81.5 27.5h-30v-200h30z" />
    <glyph glyph-name="macron" unicode="&#xaf;" horiz-adv-x="230" 
d="M230 710v-40h-230v40h230z" />
    <glyph glyph-name="degree" unicode="&#xb0;" horiz-adv-x="340" 
d="M105 575c0 -22.667 1.66699 -41.667 5 -57s8 -27.666 14 -36.999s13 -16 21 -20s16.333 -6 25 -6s17 2 25 6s15 10.667 21 20s10.667 21.666 14 36.999s5 34.333 5 57s-1.66699 41.667 -5 57s-8 27.666 -14 36.999s-13 16 -21 20s-16.333 6 -25 6s-17 -2 -25 -6
s-15 -10.667 -21 -20s-10.667 -21.666 -14 -36.999s-5 -34.333 -5 -57zM300 575c0 -18.667 -3.5 -36.167 -10.5 -52.5s-16.5 -30.666 -28.5 -42.999s-25.833 -22 -41.5 -29s-32.167 -10.5 -49.5 -10.5s-33.833 3.5 -49.5 10.5s-29.5 16.667 -41.5 29
s-21.5 26.666 -28.5 42.999s-10.5 33.833 -10.5 52.5s3.5 36.167 10.5 52.5s16.5 30.666 28.5 42.999s25.833 22 41.5 29s32.167 10.5 49.5 10.5s33.833 -3.5 49.5 -10.5s29.5 -16.667 41.5 -29s21.5 -26.666 28.5 -42.999s10.5 -33.833 10.5 -52.5z" />
    <glyph glyph-name="plusminus" unicode="&#xb1;" horiz-adv-x="440" 
d="M200 160v150h-170v40h170v175h40v-175h170v-40h-170v-150h166v-40h-370v40h164z" />
    <glyph glyph-name="twosuperior" unicode="&#xb2;" horiz-adv-x="286" 
d="M120 700c-8.66699 0 -16.999 -1.66699 -24.999 -5s-15 -7.83301 -21 -13.5s-10.833 -12.167 -14.5 -19.5s-5.5 -14.666 -5.5 -21.999s3.5 -14.166 10.5 -20.499s16.833 -9.5 29.5 -9.5l10 -40c-1.33301 -1.33301 -3.33301 -2.33301 -6 -3
c-5.33301 -1.33301 -10 -2 -14 -2c-12.667 0 -24.167 5.66699 -34.5 17s-15.5 25.666 -15.5 42.999c0 25.333 9.16699 46.666 27.5 63.999s41.5 26 69.5 26c40 0 69.833 -8.83301 89.5 -26.5s29.5 -39.167 29.5 -64.5c0 -23.333 -8.33301 -46 -25 -68s-35 -41.667 -55 -59
c-23.333 -20 -50 -39 -80 -57h141l10 50h10v-90h-231c28.667 25.333 54.334 51.333 77.001 78c10 11.333 19.667 23.5 29 36.5s17.666 26.167 24.999 39.5s13.166 26.833 17.499 40.5s6.5 27.167 6.5 40.5c0 20 -5.33301 35.833 -16 47.5s-23.667 17.5 -39 17.5z" />
    <glyph glyph-name="threesuperior" unicode="&#xb3;" horiz-adv-x="285" 
d="M165 630c0 22.667 -4.33105 39.1689 -12.998 49.502s-19.334 15.5 -32.001 15.5c-26.667 0 -40 -13.333 -40 -40c0 -6.66699 0.666992 -12.667 2 -18c0.666992 -2.66699 1.66699 -5 3 -7l-45 -10c-1.33301 3.33301 -2.33301 6.33301 -3 9c-1.33301 6.66699 -2 12 -2 16
c0 17.333 7.66699 32.5 23 45.5s39.333 19.5 72 19.5c35.333 0 61.666 -7.66699 78.999 -23s26 -34.333 26 -57c0 -15.333 -4.5 -27.5 -13.5 -36.5s-18.833 -16.167 -29.5 -21.5c-12 -6 -26 -10 -42 -12c18.667 -2 35.334 -6.66699 50.001 -14
c12.667 -6 24.167 -14.667 34.5 -26s15.5 -26.333 15.5 -45c0 -22.667 -10.167 -42.5 -30.5 -59.5s-51.833 -25.5 -94.5 -25.5c-35.333 0 -61.666 7.66699 -78.999 23s-26 34.333 -26 57c0 17.333 4.33301 30.833 13 40.5s19.334 14.5 32.001 14.5
c2.66699 0 5.16699 -0.333008 7.5 -1s4.5 -1.33398 6.5 -2.00098c2.66699 -0.666992 4.66699 -1.33398 6 -2.00098l-11 -40c-12.667 0 -21.334 -2.33301 -26.001 -7s-7 -10.667 -7 -18c0 -12.667 6 -24.167 18 -34.5s30.667 -15.5 56 -15.5c17.333 0 31.666 6 42.999 18
s17 29.333 17 52c0 28 -4.33301 47.5 -13 58.5s-19.334 16.5 -32.001 16.5h-25v15h25c7.33301 0 15 5.16699 23 15.5s12 26.833 12 49.5z" />
    <glyph glyph-name="acute" unicode="&#xb4;" horiz-adv-x="150" 
d="M50 700h90l-100 -120h-30z" />
    <glyph glyph-name="mu" unicode="&#xb5;" horiz-adv-x="520" 
d="M30 450l0.000976562 10.001h195v-10l-55 -15v-300c0 -47.333 7.5 -80.833 22.5 -100.5s32.5 -29.5 52.5 -29.5c16 0 30.167 4.66699 42.5 14s22.833 19.666 31.5 30.999c10 12.667 18.667 27.667 26 45v340l-55 15v10h195v-10l-60 -15v-410l60 -15v-10h-140v60
c-5.33301 -14 -12.666 -26.667 -21.999 -38c-8 -9.33301 -18.333 -17.833 -31 -25.5s-28.334 -11.5 -47.001 -11.5c-11.333 0 -21.5 1.66699 -30.5 5s-16.833 7.33301 -23.5 12c-7.33301 5.33301 -14.333 11.333 -21 18v-110c0 -45.333 -11.833 -80.333 -35.5 -105
s-56.5 -39.667 -98.5 -45v15c7.33301 2.66699 14.166 6.5 20.499 11.5s12 12.5 17 22.5s9 23 12 39s4.5 36.667 4.5 62v525z" />
    <glyph glyph-name="paragraph" unicode="&#xb6;" horiz-adv-x="471" 
d="M30 475c0 31.333 5.83301 60.6699 17.5 88.0029s27.5 51.166 47.5 71.499s43.333 36.333 70 48s55 17.5 85 17.5h201v-20h-71v-920h-35v920h-60v-920h-35v490c-30 0 -58.333 5.83301 -85 17.5s-50 27.667 -70 48s-35.833 44.166 -47.5 71.499s-17.5 56.666 -17.5 87.999z
" />
    <glyph glyph-name="periodcentered" unicode="&#xb7;" horiz-adv-x="240" 
d="M65 350c0 15.333 5.33301 28.333 16 39s23.667 16 39 16s28.333 -5.33301 39 -16s16 -23.667 16 -39s-5.33301 -28.333 -16 -39s-23.667 -16 -39 -16s-28.333 5.33301 -39 16s-16 23.667 -16 39z" />
    <glyph glyph-name="cedilla" unicode="&#xb8;" horiz-adv-x="150" 
d="M40 0l25.0029 -0.00292969v-35c25.333 0 44.166 -5.66699 56.499 -17s18.5 -25.666 18.5 -42.999s-6.83301 -31.666 -20.5 -42.999s-36.834 -17 -69.501 -17c-6.66699 0 -12.334 0.166992 -17.001 0.5s-8.66699 0.833008 -12 1.5c-4 0.666992 -7.66699 1.66699 -11 3v21
c2.66699 -1.33301 5.66699 -2.33301 9 -3c6 -2 13 -3 21 -3c15.333 0 26.666 4.16699 33.999 12.5s11 17.5 11 27.5c0 12.667 -3.66699 23.334 -11 32.001s-18.666 13 -33.999 13v50z" />
    <glyph glyph-name="onesuperior" unicode="&#xb9;" horiz-adv-x="215" 
d="M30 675v12l115 23v-290l40 -10v-10h-150v10l40 11v254h-45z" />
    <glyph glyph-name="ordmasculine" unicode="&#xba;" horiz-adv-x="320" 
d="M160 695c-8.66699 0 -17 -2.16699 -25 -6.5s-15 -12 -21 -23s-10.667 -25.833 -14 -44.5s-5 -42.334 -5 -71.001s1.66699 -52.334 5 -71.001s8 -33.5 14 -44.5s13 -18.667 21 -23s16.333 -6.5 25 -6.5s17 2.16699 25 6.5s15 12 21 23s10.667 25.833 14 44.5
s5 42.334 5 71.001s-1.66699 52.334 -5 71.001s-8 33.5 -14 44.5s-13 18.667 -21 23s-16.333 6.5 -25 6.5zM160 710c18.667 0 36.5 -3.83301 53.5 -11.5s31.833 -18.5 44.5 -32.5s22.834 -30.833 30.501 -50.5s11.5 -41.5 11.5 -65.5s-3.83301 -45.833 -11.5 -65.5
s-17.834 -36.5 -30.501 -50.5s-27.5 -24.833 -44.5 -32.5s-34.833 -11.5 -53.5 -11.5s-36.5 3.83301 -53.5 11.5s-31.833 18.5 -44.5 32.5s-22.834 30.833 -30.501 50.5s-11.5 41.5 -11.5 65.5s3.83301 45.833 11.5 65.5s17.834 36.5 30.501 50.5s27.5 24.833 44.5 32.5
s34.833 11.5 53.5 11.5z" />
    <glyph glyph-name="guillemotright" unicode="&#xbb;" horiz-adv-x="340" 
d="M95 230l-75 140h20l140 -140l-140 -140h-20zM330 230l-185 -170h-20l115 170l-115 170h20z" />
    <glyph glyph-name="onequarter" unicode="&#xbc;" horiz-adv-x="555" 
d="M465 300v-200.002c17.333 0 33.333 1.66699 48 5c7.33301 1.33301 14.666 3 21.999 5v-10c-7.33301 -5.33301 -14.666 -9.66602 -21.999 -12.999c-6.66699 -3.33301 -14 -6.16602 -22 -8.49902s-16.667 -3.5 -26 -3.5v-55l40 -10v-10h-150v10l40 10v55h-160
c16 14.667 31 30 45 46s27.5 33.167 40.5 51.5s25.5 37.833 37.5 58.5s24.333 43.667 37 69h70zM395 264.998c-7.33301 -16 -15.667 -32.001 -25 -48.001s-18.833 -31.167 -28.5 -45.5s-19.5 -27.666 -29.5 -39.999s-19.333 -22.833 -28 -31.5h111v165zM39.999 674.997v12
l115 23v-290l40 -10v-10h-150v10l40 11v254h-45zM484.999 699.997h45l-455 -700h-45z" />
    <glyph glyph-name="onehalf" unicode="&#xbd;" horiz-adv-x="570" 
d="M40 675v12l115 23v-290l40 -10v-10h-150v10l40 11v254h-45zM485 700h45l-455 -700h-45zM399 300c-8.66699 0 -16.999 -1.66699 -24.999 -5s-15 -7.83301 -21 -13.5s-10.833 -12.167 -14.5 -19.5s-5.5 -14.666 -5.5 -21.999s3.5 -14.166 10.5 -20.499
s16.833 -9.5 29.5 -9.5l10 -40c-1.33301 -1.33301 -3.33301 -2.33301 -6 -3c-5.33301 -1.33301 -10 -2 -14 -2c-12.667 0 -24.167 5.66699 -34.5 17s-15.5 25.666 -15.5 42.999c0 25.333 9.16699 46.666 27.5 63.999s41.5 26 69.5 26c40 0 69.833 -8.83301 89.5 -26.5
s29.5 -39.167 29.5 -64.5c0 -23.333 -8.33301 -46 -25 -68s-35 -41.667 -55 -59c-23.333 -20 -50 -39 -80 -57h141l10 50h10v-90h-231c28.667 25.333 54.334 51.333 77.001 78c10 11.333 19.667 23.5 29 36.5s17.666 26.167 24.999 39.5s13.166 26.833 17.499 40.5
s6.5 27.167 6.5 40.5c0 20 -5.33301 35.833 -16 47.5s-23.667 17.5 -39 17.5z" />
    <glyph glyph-name="threequarters" unicode="&#xbe;" horiz-adv-x="575" 
d="M485 300v-200.002c17.333 0 33.333 1.66699 48 5c7.33301 1.33301 14.666 3 21.999 5v-10c-7.33301 -5.33301 -14.666 -9.66602 -21.999 -12.999c-6.66699 -3.33301 -14 -6.16602 -22 -8.49902s-16.667 -3.5 -26 -3.5v-55l40 -10v-10h-150v10l40 10v55h-160
c16 14.667 31 30 45 46s27.5 33.167 40.5 51.5s25.5 37.833 37.5 58.5s24.333 43.667 37 69h70zM415 264.998c-7.33301 -16 -15.667 -32.001 -25 -48.001s-18.833 -31.167 -28.5 -45.5s-19.5 -27.666 -29.5 -39.999s-19.333 -22.833 -28 -31.5h111v165zM504.999 699.997h45
l-455 -700h-45zM164.999 629.997c0 22.667 -4.33105 39.1689 -12.998 49.502s-19.334 15.5 -32.001 15.5c-26.667 0 -40 -13.333 -40 -40c0 -6.66699 0.666992 -12.667 2 -18c0.666992 -2.66699 1.66699 -5 3 -7l-45 -10c-1.33301 3.33301 -2.33301 6.33301 -3 9
c-1.33301 6.66699 -2 12 -2 16c0 17.333 7.66699 32.5 23 45.5s39.333 19.5 72 19.5c35.333 0 61.666 -7.66699 78.999 -23s26 -34.333 26 -57c0 -15.333 -4.5 -27.5 -13.5 -36.5s-18.833 -16.167 -29.5 -21.5c-12 -6 -26 -10 -42 -12c18.667 -2 35.334 -6.66699 50.001 -14
c12.667 -6 24.167 -14.667 34.5 -26s15.5 -26.333 15.5 -45c0 -22.667 -10.167 -42.5 -30.5 -59.5s-51.833 -25.5 -94.5 -25.5c-35.333 0 -61.666 7.66699 -78.999 23s-26 34.333 -26 57c0 17.333 4.33301 30.833 13 40.5s19.334 14.5 32.001 14.5
c2.66699 0 5.16699 -0.333008 7.5 -1s4.5 -1.33398 6.5 -2.00098c2.66699 -0.666992 4.66699 -1.33398 6 -2.00098l-11 -40c-12.667 0 -21.334 -2.33301 -26.001 -7s-7 -10.667 -7 -18c0 -12.667 6 -24.167 18 -34.5s30.667 -15.5 56 -15.5c17.333 0 31.666 6 42.999 18
s17 29.333 17 52c0 28 -4.33301 47.5 -13 58.5s-19.334 16.5 -32.001 16.5h-25v15h25c7.33301 0 15 5.16699 23 15.5s12 26.833 12 49.5z" />
    <glyph glyph-name="questiondown" unicode="&#xbf;" horiz-adv-x="460" 
d="M300.01 415.003c0 -15.333 -5.33301 -28.332 -15.999 -38.998s-23.665 -15.999 -38.998 -15.999c-15.332 0 -28.3311 5.33301 -38.9971 15.999s-15.999 23.665 -15.999 38.998c0 15.332 5.33301 28.3311 15.999 38.9971s23.665 15.999 38.9971 15.999
c15.333 0 28.332 -5.33301 38.998 -15.999s15.999 -23.665 15.999 -38.9971zM30.0264 -39.9697c0 28.665 4.83008 55.332 14.4961 79.9971s22.665 46.4971 38.998 65.4961c16.332 18.999 34.9971 34.998 55.9961 47.9971s42.8311 21.832 65.4961 26.499l24.998 124.992
h29.998c1.33301 -17.333 3.33301 -34.665 6 -51.9971c2 -14.666 5 -30.332 9 -46.9971c3.99902 -16.666 8.99902 -31.998 14.999 -45.9971c-55.3301 0 -96.6611 -15.166 -123.993 -45.4971c-27.3311 -30.332 -40.9971 -81.8291 -40.9971 -154.491
c0 -35.9971 3.33301 -66.6621 9.99902 -91.9941c6.66699 -25.332 16 -45.9971 27.999 -61.9961s26.665 -27.665 43.998 -34.998c17.332 -7.33301 36.6641 -10.999 57.9961 -10.999s41.3311 4 59.9961 11.999c18.666 7.99902 34.998 18.832 48.9971 32.498
s25.165 29.165 33.498 46.4971s12.499 35.3311 12.499 53.9971c0 17.332 -6.83301 31.6641 -20.498 42.9971c-13.666 11.333 -36.8311 16.999 -69.4961 16.999l-19.999 79.9951c2.66699 1.33301 5.66699 2.33301 9 3s6.83301 1.16699 10.5 1.5s7.16699 0.5 10.5 0.5
c27.998 0 51.6631 -11.166 70.9951 -33.498s28.998 -56.1631 28.998 -101.494c0 -23.999 -4.66602 -46.498 -13.999 -67.4971s-22.332 -39.498 -38.9971 -55.4971c-16.666 -15.999 -36.332 -28.665 -58.9971 -37.998s-46.9971 -13.999 -72.9951 -13.999
c-33.998 0 -64.8291 5.33301 -92.4941 15.999s-51.3301 25.665 -70.9951 44.9971s-34.8311 42.4971 -45.4971 69.4961c-10.666 26.998 -15.999 56.8291 -15.999 89.4941z" />
    <glyph glyph-name="Agrave" unicode="&#xc0;" horiz-adv-x="520" 
d="M335 205h-205l-50 -170l65 -25v-10h-150v10l65 25l195 680h15l210 -690l60 -15v-10h-210v10l60 15zM135 224h194l-100 331zM287 750h-30l-100 120h90z" />
    <glyph glyph-name="Aacute" unicode="&#xc1;" horiz-adv-x="520" 
d="M335 205h-205l-50 -170l65 -25v-10h-150v10l65 25l195 680h15l210 -690l60 -15v-10h-210v10l60 15zM135 224h194l-100 331zM290 870h90l-100 -120h-30z" />
    <glyph glyph-name="Acircumflex" unicode="&#xc2;" horiz-adv-x="520" 
d="M335 205h-205l-50 -170l65 -25v-10h-150v10l65 25l195 680h15l210 -690l60 -15v-10h-210v10l60 15zM135 224h194l-100 331zM172 750h-25l115 130l115 -130h-25l-90 60z" />
    <glyph glyph-name="Atilde" unicode="&#xc3;" horiz-adv-x="520" 
d="M335 205h-205l-50 -170l65 -25v-10h-150v10l65 25l195 680h15l210 -690l60 -15v-10h-210v10l60 15zM135 224h194l-100 331zM370 855c0 -35.333 -6.5 -60.833 -19.5 -76.5s-28.167 -23.5 -45.5 -23.5c-10 0 -19 2.83301 -27 8.5s-15.5 12 -22.5 19s-13.667 13.333 -20 19
s-13.166 8.5 -20.499 8.5c-10 0 -18.333 -3.66699 -25 -11s-10 -18.666 -10 -33.999h-15c0 35.333 6.5 60.833 19.5 76.5s28.167 23.5 45.5 23.5c10 0 19 -2.83301 27 -8.5s15.5 -12 22.5 -19s13.667 -13.333 20 -19s13.166 -8.5 20.499 -8.5c10 0 18.333 3.66699 25 11
s10 18.666 10 33.999h15z" />
    <glyph glyph-name="Adieresis" unicode="&#xc4;" horiz-adv-x="520" 
d="M335 205h-205l-50 -170l65 -25v-10h-150v10l65 25l195 680h15l210 -690l60 -15v-10h-210v10l60 15zM135 224h194l-100 331zM230 795c0 -12.667 -5.16699 -24.167 -15.5 -34.5s-21.833 -15.5 -34.5 -15.5s-24.167 5.16699 -34.5 15.5s-15.5 21.833 -15.5 34.5
s5.16699 24.167 15.5 34.5s21.833 15.5 34.5 15.5s24.167 -5.16699 34.5 -15.5s15.5 -21.833 15.5 -34.5zM395 795c0 -12.667 -5.16699 -24.167 -15.5 -34.5s-21.833 -15.5 -34.5 -15.5s-24.167 5.16699 -34.5 15.5s-15.5 21.833 -15.5 34.5s5.16699 24.167 15.5 34.5
s21.833 15.5 34.5 15.5s24.167 -5.16699 34.5 -15.5s15.5 -21.833 15.5 -34.5z" />
    <glyph glyph-name="Aring" unicode="&#xc5;" horiz-adv-x="520" 
d="M335 205h-205l-50 -170l65 -25v-10h-150v10l65 25l195 680h15l210 -690l60 -15v-10h-210v10l60 15zM135 224h194l-100 331zM342 765c0 -22.667 -7.66699 -40.834 -23 -54.501s-34.333 -20.5 -57 -20.5s-41.667 6.83301 -57 20.5s-23 31.834 -23 54.501
s7.66699 40.834 23 54.501s34.333 20.5 57 20.5s41.667 -6.83301 57 -20.5s23 -31.834 23 -54.501zM297 765c0 17.333 -3.33301 30.833 -10 40.5s-15 14.5 -25 14.5s-18.333 -4.83301 -25 -14.5s-10 -23.167 -10 -40.5s3.33301 -30.833 10 -40.5s15 -14.5 25 -14.5
s18.333 4.83301 25 14.5s10 23.167 10 40.5z" />
    <glyph glyph-name="AE" unicode="&#xc6;" horiz-adv-x="765" 
d="M710 700c-1.33301 -6 -2.33301 -12.998 -3 -20.998c-0.666992 -7.33301 -1.16699 -15.833 -1.5 -25.5s-0.5 -20.834 -0.5 -33.501c0 -9.33301 0.166992 -18.5 0.5 -27.5s0.833008 -17.5 1.5 -25.5c0.666992 -9.33301 1.66699 -18.333 3 -27h-10
c-17.333 17.333 -31.666 38 -42.999 62s-17 50 -17 78h-190v-300h95l45 90h10v-200h-10l-45 90h-95v-340h200c0 28 5.66699 54 17 78s25.666 44.667 42.999 62h10c-1.33301 -8.66699 -2.33301 -17.667 -3 -27c-0.666992 -8 -1.16699 -16.667 -1.5 -26s-0.5 -18.333 -0.5 -27
c0 -12.667 0.166992 -23.834 0.5 -33.501s0.833008 -18.167 1.5 -25.5c0.666992 -8 1.66699 -15 3 -21h-415v10l60 15v225h-210l-100 -215l65 -25v-10h-150v10l65 25l310 665h365zM356 680.002l-192 -410h201v410h-9z" />
    <glyph glyph-name="Ccedilla" unicode="&#xc7;" horiz-adv-x="490" 
d="M285 695c-18.667 0 -37.001 -5.33984 -55.001 -16.0068s-34 -29.167 -48 -55.5s-25.333 -61.666 -34 -105.999s-13 -100.166 -13 -167.499s4.33301 -123.166 13 -167.499s20.334 -79.666 35.001 -105.999s31.667 -44.833 51 -55.5s39.666 -16 60.999 -16
c17.333 0 35 4.66699 53 14s34.5 22.333 49.5 39s27.667 36.334 38 59.001s16.833 47 19.5 73h15c-2.66699 -30 -9.33398 -57.5 -20.001 -82.5s-24.167 -46.667 -40.5 -65s-35.166 -32.5 -56.499 -42.5s-44 -15 -68 -15c-31.333 0 -61.666 7.5 -90.999 22.5
s-55.5 37.667 -78.5 68s-41.333 68.333 -55 114s-20.5 99.167 -20.5 160.5s6.83301 114.833 20.5 160.5s31.667 83.667 54 114s47.5 53 75.5 68s56.333 22.5 85 22.5c16 0 30.5 -2.66699 43.5 -8s24.167 -11.333 33.5 -18c10.667 -7.33301 20 -15.666 28 -24.999
c5.33301 10 12.5 19.5 21.5 28.5s18.5 14.833 28.5 17.5h15c-1.33301 -10 -2.33301 -20 -3 -30c-0.666992 -9.33301 -1.16699 -19.166 -1.5 -29.499s-0.5 -20.5 -0.5 -30.5c0 -11.333 0.166992 -22.5 0.5 -33.5s0.833008 -21.167 1.5 -30.5
c0.666992 -10.667 1.66699 -21 3 -31h-15c-15.333 55.333 -35.833 97.5 -61.5 126.5s-53.5 43.5 -83.5 43.5zM249.999 -0.00683594l25.0029 -0.00292969v-35c25.333 0 44.166 -5.66699 56.499 -17s18.5 -25.666 18.5 -42.999s-6.83301 -31.666 -20.5 -42.999
s-36.834 -17 -69.501 -17c-6.66699 0 -12.334 0.166992 -17.001 0.5s-8.66699 0.833008 -12 1.5c-4 0.666992 -7.66699 1.66699 -11 3v21c2.66699 -1.33301 5.66699 -2.33301 9 -3c6 -2 13 -3 21 -3c15.333 0 26.666 4.16699 33.999 12.5s11 17.5 11 27.5
c0 12.667 -3.66699 23.334 -11 32.001s-18.666 13 -33.999 13v50z" />
    <glyph glyph-name="Egrave" unicode="&#xc8;" 
d="M390 20c0 28 5.66699 54.002 17 78.002s25.666 44.667 42.999 62h10c-1.33301 -8.66699 -2.33301 -17.667 -3 -27c-0.666992 -8 -1.16699 -16.667 -1.5 -26s-0.5 -18.333 -0.5 -27c0 -12.667 0.166992 -23.834 0.5 -33.501s0.833008 -18.167 1.5 -25.5
c0.666992 -8 1.66699 -15 3 -21h-415v10l60 15v650l-60 15v10h405c-1.33301 -6 -2.33301 -13 -3 -21c-0.666992 -7.33301 -1.16699 -15.833 -1.5 -25.5s-0.5 -20.834 -0.5 -33.501c0 -9.33301 0.166992 -18.5 0.5 -27.5s0.833008 -17.5 1.5 -25.5
c0.666992 -9.33301 1.66699 -18.333 3 -27h-10c-17.333 17.333 -31.666 38 -42.999 62s-17 50 -17 78h-190v-300h95l45 90h10v-200h-10l-45 90h-95v-340h200zM297 750.002h-30l-100 120h90z" />
    <glyph glyph-name="Eacute" unicode="&#xc9;" 
d="M390 20c0 28 5.66699 54.002 17 78.002s25.666 44.667 42.999 62h10c-1.33301 -8.66699 -2.33301 -17.667 -3 -27c-0.666992 -8 -1.16699 -16.667 -1.5 -26s-0.5 -18.333 -0.5 -27c0 -12.667 0.166992 -23.834 0.5 -33.501s0.833008 -18.167 1.5 -25.5
c0.666992 -8 1.66699 -15 3 -21h-415v10l60 15v650l-60 15v10h405c-1.33301 -6 -2.33301 -13 -3 -21c-0.666992 -7.33301 -1.16699 -15.833 -1.5 -25.5s-0.5 -20.834 -0.5 -33.501c0 -9.33301 0.166992 -18.5 0.5 -27.5s0.833008 -17.5 1.5 -25.5
c0.666992 -9.33301 1.66699 -18.333 3 -27h-10c-17.333 17.333 -31.666 38 -42.999 62s-17 50 -17 78h-190v-300h95l45 90h10v-200h-10l-45 90h-95v-340h200zM287 870.002h90l-100 -120h-30z" />
    <glyph glyph-name="Ecircumflex" unicode="&#xca;" 
d="M390 20c0 28 5.66699 54.002 17 78.002s25.666 44.667 42.999 62h10c-1.33301 -8.66699 -2.33301 -17.667 -3 -27c-0.666992 -8 -1.16699 -16.667 -1.5 -26s-0.5 -18.333 -0.5 -27c0 -12.667 0.166992 -23.834 0.5 -33.501s0.833008 -18.167 1.5 -25.5
c0.666992 -8 1.66699 -15 3 -21h-415v10l60 15v650l-60 15v10h405c-1.33301 -6 -2.33301 -13 -3 -21c-0.666992 -7.33301 -1.16699 -15.833 -1.5 -25.5s-0.5 -20.834 -0.5 -33.501c0 -9.33301 0.166992 -18.5 0.5 -27.5s0.833008 -17.5 1.5 -25.5
c0.666992 -9.33301 1.66699 -18.333 3 -27h-10c-17.333 17.333 -31.666 38 -42.999 62s-17 50 -17 78h-190v-300h95l45 90h10v-200h-10l-45 90h-95v-340h200zM185 756.002h-25l115 130l115 -130h-25l-90 60z" />
    <glyph glyph-name="Edieresis" unicode="&#xcb;" 
d="M390 20c0 28 5.66699 54.002 17 78.002s25.666 44.667 42.999 62h10c-1.33301 -8.66699 -2.33301 -17.667 -3 -27c-0.666992 -8 -1.16699 -16.667 -1.5 -26s-0.5 -18.333 -0.5 -27c0 -12.667 0.166992 -23.834 0.5 -33.501s0.833008 -18.167 1.5 -25.5
c0.666992 -8 1.66699 -15 3 -21h-415v10l60 15v650l-60 15v10h405c-1.33301 -6 -2.33301 -13 -3 -21c-0.666992 -7.33301 -1.16699 -15.833 -1.5 -25.5s-0.5 -20.834 -0.5 -33.501c0 -9.33301 0.166992 -18.5 0.5 -27.5s0.833008 -17.5 1.5 -25.5
c0.666992 -9.33301 1.66699 -18.333 3 -27h-10c-17.333 17.333 -31.666 38 -42.999 62s-17 50 -17 78h-190v-300h95l45 90h10v-200h-10l-45 90h-95v-340h200zM240 810.002c0 -12.667 -5.16699 -24.167 -15.5 -34.5s-21.833 -15.5 -34.5 -15.5s-24.167 5.16699 -34.5 15.5
s-15.5 21.833 -15.5 34.5s5.16699 24.167 15.5 34.5s21.833 15.5 34.5 15.5s24.167 -5.16699 34.5 -15.5s15.5 -21.833 15.5 -34.5zM405 810.002c0 -12.667 -5.16699 -24.167 -15.5 -34.5s-21.833 -15.5 -34.5 -15.5s-24.167 5.16699 -34.5 15.5s-15.5 21.833 -15.5 34.5
s5.16699 24.167 15.5 34.5s21.833 15.5 34.5 15.5s24.167 -5.16699 34.5 -15.5s15.5 -21.833 15.5 -34.5z" />
    <glyph glyph-name="Igrave" unicode="&#xcc;" horiz-adv-x="295" 
d="M190 25l60 -15v-10h-205v10l60 15v650l-60 15v10h205v-10l-60 -15v-650zM172 750h-30l-100 120h90z" />
    <glyph glyph-name="Iacute" unicode="&#xcd;" horiz-adv-x="295" 
d="M190 25l60 -15v-10h-205v10l60 15v650l-60 15v10h205v-10l-60 -15v-650zM172 870h90l-100 -120h-30z" />
    <glyph glyph-name="Icircumflex" unicode="&#xce;" horiz-adv-x="295" 
d="M190 25l60 -15v-10h-205v10l60 15v650l-60 15v10h205v-10l-60 -15v-650zM60 755h-25l115 130l115 -130h-25l-90 60z" />
    <glyph glyph-name="Idieresis" unicode="&#xcf;" horiz-adv-x="295" 
d="M190 25l60 -15v-10h-205v10l60 15v650l-60 15v10h205v-10l-60 -15v-650zM118 810c0 -12.667 -5.16699 -24.167 -15.5 -34.5s-21.833 -15.5 -34.5 -15.5s-24.167 5.16699 -34.5 15.5s-15.5 21.833 -15.5 34.5s5.16699 24.167 15.5 34.5s21.833 15.5 34.5 15.5
s24.167 -5.16699 34.5 -15.5s15.5 -21.833 15.5 -34.5zM283 810c0 -12.667 -5.16699 -24.167 -15.5 -34.5s-21.833 -15.5 -34.5 -15.5s-24.167 5.16699 -34.5 15.5s-15.5 21.833 -15.5 34.5s5.16699 24.167 15.5 34.5s21.833 15.5 34.5 15.5s24.167 -5.16699 34.5 -15.5
s15.5 -21.833 15.5 -34.5z" />
    <glyph glyph-name="Eth" unicode="&#xd0;" horiz-adv-x="560" 
d="M220 700c44 0 84.5 -8.00098 121.5 -24.001s69.167 -39 96.5 -69s48.666 -66.667 63.999 -110s23 -92.333 23 -147c0 -55.333 -7.66699 -104.666 -23 -147.999s-36.666 -80 -63.999 -110s-59.5 -52.833 -96.5 -68.5s-77.5 -23.5 -121.5 -23.5h-175v10l60 15v315h-60v20
h60v315l-60 15v10h175zM190 19.999l30 -0.00390625c28.667 0 55.834 6.16699 81.501 18.5s48 31.833 67 58.5s34 60.834 45 102.501s16.5 91.834 16.5 150.501s-5.5 108.834 -16.5 150.501s-26 75.834 -45 102.501s-41.333 46.167 -67 58.5s-52.834 18.5 -81.501 18.5h-30
v-320h140v-20h-140v-320z" />
    <glyph glyph-name="Ntilde" unicode="&#xd1;" horiz-adv-x="585" 
d="M460 665l-65 25v10h150v-10l-65 -25v-675h-15l-340 625v-580l65 -25v-10h-150v10l65 25v635l-65 20v10h135l285 -525v490zM395 860c0 -35.333 -6.5 -60.833 -19.5 -76.5s-28.167 -23.5 -45.5 -23.5c-10 0 -19 2.83301 -27 8.5s-15.5 12 -22.5 19s-13.667 13.333 -20 19
s-13.166 8.5 -20.499 8.5c-10 0 -18.333 -3.66699 -25 -11s-10 -18.666 -10 -33.999h-15c0 35.333 6.5 60.833 19.5 76.5s28.167 23.5 45.5 23.5c10 0 19 -2.83301 27 -8.5s15.5 -12 22.5 -19s13.667 -13.333 20 -19s13.166 -8.5 20.499 -8.5c10 0 18.333 3.66699 25 11
s10 18.666 10 33.999h15z" />
    <glyph glyph-name="Ograve" unicode="&#xd2;" horiz-adv-x="550" 
d="M510 350c0 -61.333 -6.83301 -114.833 -20.5 -160.5s-31.667 -83.667 -54 -114s-47.5 -53 -75.5 -68s-56.333 -22.5 -85 -22.5s-57 7.5 -85 22.5s-53.167 37.667 -75.5 68s-40.333 68.333 -54 114s-20.5 99.167 -20.5 160.5s6.83301 114.833 20.5 160.5
s31.667 83.667 54 114s47.5 53 75.5 68s56.333 22.5 85 22.5s57 -7.5 85 -22.5s53.167 -37.667 75.5 -68s40.333 -68.333 54 -114s20.5 -99.167 20.5 -160.5zM415 350c0 68.667 -4.16699 125.5 -12.5 170.5s-19.333 80.833 -33 107.5s-28.834 45.334 -45.501 56.001
s-33 16 -49 16s-32.333 -5.33301 -49 -16s-31.834 -29.334 -45.501 -56.001s-24.667 -62.5 -33 -107.5s-12.5 -101.833 -12.5 -170.5s4.16699 -125.5 12.5 -170.5s19.333 -80.833 33 -107.5s28.834 -45.334 45.501 -56.001s33 -16 49 -16s32.333 5.33301 49 16
s31.834 29.334 45.501 56.001s24.667 62.5 33 107.5s12.5 101.833 12.5 170.5zM300 760h-30l-100 120h90z" />
    <glyph glyph-name="Oacute" unicode="&#xd3;" horiz-adv-x="550" 
d="M510 350c0 -61.333 -6.83301 -114.833 -20.5 -160.5s-31.667 -83.667 -54 -114s-47.5 -53 -75.5 -68s-56.333 -22.5 -85 -22.5s-57 7.5 -85 22.5s-53.167 37.667 -75.5 68s-40.333 68.333 -54 114s-20.5 99.167 -20.5 160.5s6.83301 114.833 20.5 160.5
s31.667 83.667 54 114s47.5 53 75.5 68s56.333 22.5 85 22.5s57 -7.5 85 -22.5s53.167 -37.667 75.5 -68s40.333 -68.333 54 -114s20.5 -99.167 20.5 -160.5zM415 350c0 68.667 -4.16699 125.5 -12.5 170.5s-19.333 80.833 -33 107.5s-28.834 45.334 -45.501 56.001
s-33 16 -49 16s-32.333 -5.33301 -49 -16s-31.834 -29.334 -45.501 -56.001s-24.667 -62.5 -33 -107.5s-12.5 -101.833 -12.5 -170.5s4.16699 -125.5 12.5 -170.5s19.333 -80.833 33 -107.5s28.834 -45.334 45.501 -56.001s33 -16 49 -16s32.333 5.33301 49 16
s31.834 29.334 45.501 56.001s24.667 62.5 33 107.5s12.5 101.833 12.5 170.5zM296 876h90l-100 -120h-30z" />
    <glyph glyph-name="Ocircumflex" unicode="&#xd4;" horiz-adv-x="550" 
d="M510 350c0 -61.333 -6.83301 -114.833 -20.5 -160.5s-31.667 -83.667 -54 -114s-47.5 -53 -75.5 -68s-56.333 -22.5 -85 -22.5s-57 7.5 -85 22.5s-53.167 37.667 -75.5 68s-40.333 68.333 -54 114s-20.5 99.167 -20.5 160.5s6.83301 114.833 20.5 160.5
s31.667 83.667 54 114s47.5 53 75.5 68s56.333 22.5 85 22.5s57 -7.5 85 -22.5s53.167 -37.667 75.5 -68s40.333 -68.333 54 -114s20.5 -99.167 20.5 -160.5zM415 350c0 68.667 -4.16699 125.5 -12.5 170.5s-19.333 80.833 -33 107.5s-28.834 45.334 -45.501 56.001
s-33 16 -49 16s-32.333 -5.33301 -49 -16s-31.834 -29.334 -45.501 -56.001s-24.667 -62.5 -33 -107.5s-12.5 -101.833 -12.5 -170.5s4.16699 -125.5 12.5 -170.5s19.333 -80.833 33 -107.5s28.834 -45.334 45.501 -56.001s33 -16 49 -16s32.333 5.33301 49 16
s31.834 29.334 45.501 56.001s24.667 62.5 33 107.5s12.5 101.833 12.5 170.5zM185 755h-25l115 130l115 -130h-25l-90 60z" />
    <glyph glyph-name="Otilde" unicode="&#xd5;" horiz-adv-x="550" 
d="M510 350c0 -61.333 -6.83301 -114.833 -20.5 -160.5s-31.667 -83.667 -54 -114s-47.5 -53 -75.5 -68s-56.333 -22.5 -85 -22.5s-57 7.5 -85 22.5s-53.167 37.667 -75.5 68s-40.333 68.333 -54 114s-20.5 99.167 -20.5 160.5s6.83301 114.833 20.5 160.5
s31.667 83.667 54 114s47.5 53 75.5 68s56.333 22.5 85 22.5s57 -7.5 85 -22.5s53.167 -37.667 75.5 -68s40.333 -68.333 54 -114s20.5 -99.167 20.5 -160.5zM415 350c0 68.667 -4.16699 125.5 -12.5 170.5s-19.333 80.833 -33 107.5s-28.834 45.334 -45.501 56.001
s-33 16 -49 16s-32.333 -5.33301 -49 -16s-31.834 -29.334 -45.501 -56.001s-24.667 -62.5 -33 -107.5s-12.5 -101.833 -12.5 -170.5s4.16699 -125.5 12.5 -170.5s19.333 -80.833 33 -107.5s28.834 -45.334 45.501 -56.001s33 -16 49 -16s32.333 5.33301 49 16
s31.834 29.334 45.501 56.001s24.667 62.5 33 107.5s12.5 101.833 12.5 170.5zM377 870c0 -35.333 -6.5 -60.833 -19.5 -76.5s-28.167 -23.5 -45.5 -23.5c-10 0 -19 2.83301 -27 8.5s-15.5 12 -22.5 19s-13.667 13.333 -20 19s-13.166 8.5 -20.499 8.5
c-10 0 -18.333 -3.66699 -25 -11s-10 -18.666 -10 -33.999h-15c0 35.333 6.5 60.833 19.5 76.5s28.167 23.5 45.5 23.5c10 0 19 -2.83301 27 -8.5s15.5 -12 22.5 -19s13.667 -13.333 20 -19s13.166 -8.5 20.499 -8.5c10 0 18.333 3.66699 25 11s10 18.666 10 33.999h15z" />
    <glyph glyph-name="Odieresis" unicode="&#xd6;" horiz-adv-x="550" 
d="M510 350c0 -61.333 -6.83301 -114.833 -20.5 -160.5s-31.667 -83.667 -54 -114s-47.5 -53 -75.5 -68s-56.333 -22.5 -85 -22.5s-57 7.5 -85 22.5s-53.167 37.667 -75.5 68s-40.333 68.333 -54 114s-20.5 99.167 -20.5 160.5s6.83301 114.833 20.5 160.5
s31.667 83.667 54 114s47.5 53 75.5 68s56.333 22.5 85 22.5s57 -7.5 85 -22.5s53.167 -37.667 75.5 -68s40.333 -68.333 54 -114s20.5 -99.167 20.5 -160.5zM415 350c0 68.667 -4.16699 125.5 -12.5 170.5s-19.333 80.833 -33 107.5s-28.834 45.334 -45.501 56.001
s-33 16 -49 16s-32.333 -5.33301 -49 -16s-31.834 -29.334 -45.501 -56.001s-24.667 -62.5 -33 -107.5s-12.5 -101.833 -12.5 -170.5s4.16699 -125.5 12.5 -170.5s19.333 -80.833 33 -107.5s28.834 -45.334 45.501 -56.001s33 -16 49 -16s32.333 5.33301 49 16
s31.834 29.334 45.501 56.001s24.667 62.5 33 107.5s12.5 101.833 12.5 170.5zM242 810c0 -12.667 -5.16699 -24.167 -15.5 -34.5s-21.833 -15.5 -34.5 -15.5s-24.167 5.16699 -34.5 15.5s-15.5 21.833 -15.5 34.5s5.16699 24.167 15.5 34.5s21.833 15.5 34.5 15.5
s24.167 -5.16699 34.5 -15.5s15.5 -21.833 15.5 -34.5zM407 810c0 -12.667 -5.16699 -24.167 -15.5 -34.5s-21.833 -15.5 -34.5 -15.5s-24.167 5.16699 -34.5 15.5s-15.5 21.833 -15.5 34.5s5.16699 24.167 15.5 34.5s21.833 15.5 34.5 15.5s24.167 -5.16699 34.5 -15.5
s15.5 -21.833 15.5 -34.5z" />
    <glyph glyph-name="multiply" unicode="&#xd7;" horiz-adv-x="364" 
d="M154 300l-124 124l29 28l123 -124l121 120l28 -28l-121 -120l124 -124l-29 -28l-123 124l-121 -120l-28 28z" />
    <glyph glyph-name="Oslash" unicode="&#xd8;" horiz-adv-x="550" 
d="M100 96c-18 30 -32.501 66 -43.501 108s-16.5 90.667 -16.5 146c0 61.333 6.83301 114.833 20.5 160.5s31.667 83.667 54 114s47.5 53 75.5 68s56.333 22.5 85 22.5c26.667 0 53.167 -6.66699 79.5 -20s50.166 -33 71.499 -59l39 64l30 -20l-46 -76
c18.667 -30 33.5 -66.167 44.5 -108.5s16.5 -90.833 16.5 -145.5c0 -61.333 -6.83301 -114.833 -20.5 -160.5s-31.667 -83.667 -54 -114s-47.5 -53 -75.5 -68s-56.333 -22.5 -85 -22.5c-27.333 0 -54.166 6.5 -80.499 19.5s-50.166 32.833 -71.499 59.5l-38 -64l-30 20z
M414.999 350c0 36 -1.16895 68.332 -3.50195 96.999s-5.83301 54.667 -10.5 78l-241 -400c6.66699 -23.333 14.5 -43 23.5 -59s18.5 -28.833 28.5 -38.5s20.333 -16.667 31 -21s21.334 -6.5 32.001 -6.5c16 0 32.333 5.33301 49 16s31.834 29.334 45.501 56.001
s24.667 62.5 33 107.5s12.5 101.833 12.5 170.5zM134.997 349.999c0 -36 1.16797 -68.332 3.50098 -96.999s5.5 -54.667 9.5 -78l241 400c-13.333 46.667 -30.5 79.167 -51.5 97.5s-41.833 27.5 -62.5 27.5c-16 0 -32.333 -5.33301 -49 -16s-31.834 -29.334 -45.501 -56.001
s-24.667 -62.5 -33 -107.5s-12.5 -101.833 -12.5 -170.5z" />
    <glyph glyph-name="Ugrave" unicode="&#xd9;" horiz-adv-x="570" 
d="M485 200c0 -75.333 -15.5 -130.001 -46.5 -164.001s-75.5 -51 -133.5 -51c-68 0 -120.833 18.833 -158.5 56.5s-56.5 90.5 -56.5 158.5v475l-60 15v10h205v-10l-60 -15v-475c0 -67.333 13.333 -116.666 40 -147.999s60 -47 100 -47c22.667 0 43.167 3.83301 61.5 11.5
s34 19.5 47 35.5s23.167 36.167 30.5 60.5s11 53.5 11 87.5v465l-65 25v10h150v-10l-65 -25v-465zM340 749.999h-30l-100 120h90z" />
    <glyph glyph-name="Uacute" unicode="&#xda;" horiz-adv-x="570" 
d="M485 200c0 -75.333 -15.5 -130.001 -46.5 -164.001s-75.5 -51 -133.5 -51c-68 0 -120.833 18.833 -158.5 56.5s-56.5 90.5 -56.5 158.5v475l-60 15v10h205v-10l-60 -15v-475c0 -67.333 13.333 -116.666 40 -147.999s60 -47 100 -47c22.667 0 43.167 3.83301 61.5 11.5
s34 19.5 47 35.5s23.167 36.167 30.5 60.5s11 53.5 11 87.5v465l-65 25v10h150v-10l-65 -25v-465zM325 868.999h90l-100 -120h-30z" />
    <glyph glyph-name="Ucircumflex" unicode="&#xdb;" horiz-adv-x="570" 
d="M485 200c0 -75.333 -15.5 -130.001 -46.5 -164.001s-75.5 -51 -133.5 -51c-68 0 -120.833 18.833 -158.5 56.5s-56.5 90.5 -56.5 158.5v475l-60 15v10h205v-10l-60 -15v-475c0 -67.333 13.333 -116.666 40 -147.999s60 -47 100 -47c22.667 0 43.167 3.83301 61.5 11.5
s34 19.5 47 35.5s23.167 36.167 30.5 60.5s11 53.5 11 87.5v465l-65 25v10h150v-10l-65 -25v-465zM215 759.999h-25l115 130l115 -130h-25l-90 60z" />
    <glyph glyph-name="Udieresis" unicode="&#xdc;" horiz-adv-x="570" 
d="M485 200c0 -75.333 -15.5 -130.001 -46.5 -164.001s-75.5 -51 -133.5 -51c-68 0 -120.833 18.833 -158.5 56.5s-56.5 90.5 -56.5 158.5v475l-60 15v10h205v-10l-60 -15v-475c0 -67.333 13.333 -116.666 40 -147.999s60 -47 100 -47c22.667 0 43.167 3.83301 61.5 11.5
s34 19.5 47 35.5s23.167 36.167 30.5 60.5s11 53.5 11 87.5v465l-65 25v10h150v-10l-65 -25v-465zM272 809.999c0 -12.667 -5.16699 -24.167 -15.5 -34.5s-21.833 -15.5 -34.5 -15.5s-24.167 5.16699 -34.5 15.5s-15.5 21.833 -15.5 34.5s5.16699 24.167 15.5 34.5
s21.833 15.5 34.5 15.5s24.167 -5.16699 34.5 -15.5s15.5 -21.833 15.5 -34.5zM437 809.999c0 -12.667 -5.16699 -24.167 -15.5 -34.5s-21.833 -15.5 -34.5 -15.5s-24.167 5.16699 -34.5 15.5s-15.5 21.833 -15.5 34.5s5.16699 24.167 15.5 34.5s21.833 15.5 34.5 15.5
s24.167 -5.16699 34.5 -15.5s15.5 -21.833 15.5 -34.5z" />
    <glyph glyph-name="Yacute" unicode="&#xdd;" horiz-adv-x="490" 
d="M295 280v-255l60 -15v-10h-205v10l60 15v250l-155 400l-60 15v10h210v-10l-60 -15l142 -365l138 355l-65 25v10h150v-10l-65 -25zM292 869h90l-100 -120h-30z" />
    <glyph glyph-name="Thorn" unicode="&#xde;" horiz-adv-x="574" 
d="M220 640c47.333 0 90.666 -7.5 129.999 -22.5s73 -35.333 101 -61s49.833 -55.5 65.5 -89.5s23.5 -69.667 23.5 -107s-7.83301 -73 -23.5 -107s-37.5 -63.833 -65.5 -89.5s-61.667 -46 -101 -61s-82.666 -22.5 -129.999 -22.5h-30v-55l60 -15v-10h-205v10l60 15v650
l-60 15v10h205v-10l-60 -15v-35h30zM190 100h30c34 0 64.833 5.5 92.5 16.5s51.334 27.5 71.001 49.5s34.834 49.167 45.501 81.5s16 69.833 16 112.5s-5.33301 80.167 -16 112.5s-25.834 59.5 -45.501 81.5s-43.334 38.5 -71.001 49.5s-58.5 16.5 -92.5 16.5h-30v-520z" />
    <glyph glyph-name="germandbls" unicode="&#xdf;" horiz-adv-x="565" 
d="M275 380c0 17.333 3.16797 33.666 9.50098 48.999s13.166 30.5 20.499 45.5s14.166 30.333 20.499 46s9.5 32.167 9.5 49.5c0 44.667 -8.33301 77.5 -25 98.5s-35 31.5 -55 31.5c-22.667 0 -42.5 -10.333 -59.5 -31s-25.5 -53.667 -25.5 -99v-545l50 -15v-10h-190v10
l60 15v405l-60 15v15h60v110c0 20 3.83301 38.833 11.5 56.5s18.834 33 33.501 46s32 23.333 52 31s42.667 11.5 68 11.5c22.667 0 43.5 -3.83301 62.5 -11.5s35.333 -18 49 -31s24.334 -28.333 32.001 -46s11.5 -36.5 11.5 -56.5c0 -17.333 -3.66699 -33.666 -11 -48.999
s-15.333 -29.833 -24 -43.5l-24 -39.5c-7.33301 -12.667 -11 -25.334 -11 -38.001c0 -18.667 5 -34.667 15 -48s22.667 -26 38 -38s31.833 -24 49.5 -36s34.167 -25.5 49.5 -40.5s28 -32.333 38 -52s15 -43.167 15 -70.5c0 -18.667 -3.33301 -36 -10 -52
s-15.834 -29.667 -27.501 -41s-25.834 -20.333 -42.501 -27s-35 -10 -55 -10c-16.667 0 -31 2.5 -43 7.5s-22.333 10.833 -31 17.5c-10 7.33301 -18.667 15.666 -26 24.999c-2.66699 -10 -8.16699 -19.333 -16.5 -28s-16.166 -14.334 -23.499 -17.001h-15l2 27
c0.666992 8 1.33398 16.5 2.00098 25.5s1 18.167 1 27.5c0 10 -0.333008 20 -1 30s-1.33398 19 -2.00098 27l-2 28h15c12.667 -48 31.167 -85 55.5 -111s49.166 -39 74.499 -39c22.667 0 40.834 7.5 54.501 22.5s20.5 37.5 20.5 67.5c0 20 -5 37.333 -15 52
s-22.333 28.334 -37 41.001s-30.667 24.834 -48 36.501s-33.333 24.834 -48 39.501s-27 31.167 -37 49.5s-15 40.5 -15 66.5z" />
    <glyph glyph-name="agrave" unicode="&#xe0;" horiz-adv-x="465" 
d="M300 245c-58 0 -100.833 -12.832 -128.5 -38.499s-41.5 -61.167 -41.5 -106.5c0 -30 7.33301 -53.333 22 -70s30.667 -25 48 -25c16 0 30.167 4.66699 42.5 14s22.833 19.666 31.5 30.999c10 12.667 18.667 27.667 26 45v150zM225 460.001
c-20 0 -36.6689 -6.83496 -50.002 -20.502s-20 -31.834 -20 -54.501c0 -5.33301 0.166992 -10 0.5 -14s0.833008 -7.66699 1.5 -11s1.66699 -6.66602 3 -9.99902l-80 -20c-1.33301 2 -2.33301 4.66699 -3 8s-1.16699 7 -1.5 11s-0.5 9.33301 -0.5 16
c0 14 3.33301 27.5 10 40.5s16.5 24.667 29.5 35s28.667 18.666 47 24.999s39.5 9.5 63.5 9.5c48 0 85.833 -13.667 113.5 -41s41.5 -63.666 41.5 -108.999v-300l60 -15v-10h-140v60c-7.33301 -14 -16.666 -26.667 -27.999 -38
c-9.33301 -9.33301 -21.166 -17.833 -35.499 -25.5s-31.5 -11.5 -51.5 -11.5c-48 0 -84.167 11.333 -108.5 34s-36.5 53 -36.5 91c0 18.667 5.16699 37.334 15.5 56.001s26 35.334 47 50.001s47.833 26.5 80.5 35.5s71.667 13.5 117 13.5v60c0 50 -7.5 85 -22.5 105
s-32.5 30 -52.5 30zM264.998 514.999h-30l-100 120h90z" />
    <glyph glyph-name="aacute" unicode="&#xe1;" horiz-adv-x="465" 
d="M300 245c-58 0 -100.833 -12.832 -128.5 -38.499s-41.5 -61.167 -41.5 -106.5c0 -30 7.33301 -53.333 22 -70s30.667 -25 48 -25c16 0 30.167 4.66699 42.5 14s22.833 19.666 31.5 30.999c10 12.667 18.667 27.667 26 45v150zM225 460.001
c-20 0 -36.6689 -6.83496 -50.002 -20.502s-20 -31.834 -20 -54.501c0 -5.33301 0.166992 -10 0.5 -14s0.833008 -7.66699 1.5 -11s1.66699 -6.66602 3 -9.99902l-80 -20c-1.33301 2 -2.33301 4.66699 -3 8s-1.16699 7 -1.5 11s-0.5 9.33301 -0.5 16
c0 14 3.33301 27.5 10 40.5s16.5 24.667 29.5 35s28.667 18.666 47 24.999s39.5 9.5 63.5 9.5c48 0 85.833 -13.667 113.5 -41s41.5 -63.666 41.5 -108.999v-300l60 -15v-10h-140v60c-7.33301 -14 -16.666 -26.667 -27.999 -38
c-9.33301 -9.33301 -21.166 -17.833 -35.499 -25.5s-31.5 -11.5 -51.5 -11.5c-48 0 -84.167 11.333 -108.5 34s-36.5 53 -36.5 91c0 18.667 5.16699 37.334 15.5 56.001s26 35.334 47 50.001s47.833 26.5 80.5 35.5s71.667 13.5 117 13.5v60c0 50 -7.5 85 -22.5 105
s-32.5 30 -52.5 30zM239.998 635.999h90l-100 -120h-30z" />
    <glyph glyph-name="acircumflex" unicode="&#xe2;" horiz-adv-x="465" 
d="M300 245c-58 0 -100.833 -12.832 -128.5 -38.499s-41.5 -61.167 -41.5 -106.5c0 -30 7.33301 -53.333 22 -70s30.667 -25 48 -25c16 0 30.167 4.66699 42.5 14s22.833 19.666 31.5 30.999c10 12.667 18.667 27.667 26 45v150zM225 460.001
c-20 0 -36.6689 -6.83496 -50.002 -20.502s-20 -31.834 -20 -54.501c0 -5.33301 0.166992 -10 0.5 -14s0.833008 -7.66699 1.5 -11s1.66699 -6.66602 3 -9.99902l-80 -20c-1.33301 2 -2.33301 4.66699 -3 8s-1.16699 7 -1.5 11s-0.5 9.33301 -0.5 16
c0 14 3.33301 27.5 10 40.5s16.5 24.667 29.5 35s28.667 18.666 47 24.999s39.5 9.5 63.5 9.5c48 0 85.833 -13.667 113.5 -41s41.5 -63.666 41.5 -108.999v-300l60 -15v-10h-140v60c-7.33301 -14 -16.666 -26.667 -27.999 -38
c-9.33301 -9.33301 -21.166 -17.833 -35.499 -25.5s-31.5 -11.5 -51.5 -11.5c-48 0 -84.167 11.333 -108.5 34s-36.5 53 -36.5 91c0 18.667 5.16699 37.334 15.5 56.001s26 35.334 47 50.001s47.833 26.5 80.5 35.5s71.667 13.5 117 13.5v60c0 50 -7.5 85 -22.5 105
s-32.5 30 -52.5 30zM139.998 520.999h-25l115 130l115 -130h-25l-90 60z" />
    <glyph glyph-name="atilde" unicode="&#xe3;" horiz-adv-x="465" 
d="M300 245c-58 0 -100.833 -12.832 -128.5 -38.499s-41.5 -61.167 -41.5 -106.5c0 -30 7.33301 -53.333 22 -70s30.667 -25 48 -25c16 0 30.167 4.66699 42.5 14s22.833 19.666 31.5 30.999c10 12.667 18.667 27.667 26 45v150zM225 460.001
c-20 0 -36.6689 -6.83496 -50.002 -20.502s-20 -31.834 -20 -54.501c0 -5.33301 0.166992 -10 0.5 -14s0.833008 -7.66699 1.5 -11s1.66699 -6.66602 3 -9.99902l-80 -20c-1.33301 2 -2.33301 4.66699 -3 8s-1.16699 7 -1.5 11s-0.5 9.33301 -0.5 16
c0 14 3.33301 27.5 10 40.5s16.5 24.667 29.5 35s28.667 18.666 47 24.999s39.5 9.5 63.5 9.5c48 0 85.833 -13.667 113.5 -41s41.5 -63.666 41.5 -108.999v-300l60 -15v-10h-140v60c-7.33301 -14 -16.666 -26.667 -27.999 -38
c-9.33301 -9.33301 -21.166 -17.833 -35.499 -25.5s-31.5 -11.5 -51.5 -11.5c-48 0 -84.167 11.333 -108.5 34s-36.5 53 -36.5 91c0 18.667 5.16699 37.334 15.5 56.001s26 35.334 47 50.001s47.833 26.5 80.5 35.5s71.667 13.5 117 13.5v60c0 50 -7.5 85 -22.5 105
s-32.5 30 -52.5 30zM332.998 630.999c0 -35.333 -6.5 -60.833 -19.5 -76.5s-28.167 -23.5 -45.5 -23.5c-10 0 -19 2.83301 -27 8.5s-15.5 12 -22.5 19s-13.667 13.333 -20 19s-13.166 8.5 -20.499 8.5c-10 0 -18.333 -3.66699 -25 -11s-10 -18.666 -10 -33.999h-15
c0 35.333 6.5 60.833 19.5 76.5s28.167 23.5 45.5 23.5c10 0 19 -2.83301 27 -8.5s15.5 -12 22.5 -19s13.667 -13.333 20 -19s13.166 -8.5 20.499 -8.5c10 0 18.333 3.66699 25 11s10 18.666 10 33.999h15z" />
    <glyph glyph-name="adieresis" unicode="&#xe4;" horiz-adv-x="465" 
d="M300 245c-58 0 -100.833 -12.832 -128.5 -38.499s-41.5 -61.167 -41.5 -106.5c0 -30 7.33301 -53.333 22 -70s30.667 -25 48 -25c16 0 30.167 4.66699 42.5 14s22.833 19.666 31.5 30.999c10 12.667 18.667 27.667 26 45v150zM225 460.001
c-20 0 -36.6689 -6.83496 -50.002 -20.502s-20 -31.834 -20 -54.501c0 -5.33301 0.166992 -10 0.5 -14s0.833008 -7.66699 1.5 -11s1.66699 -6.66602 3 -9.99902l-80 -20c-1.33301 2 -2.33301 4.66699 -3 8s-1.16699 7 -1.5 11s-0.5 9.33301 -0.5 16
c0 14 3.33301 27.5 10 40.5s16.5 24.667 29.5 35s28.667 18.666 47 24.999s39.5 9.5 63.5 9.5c48 0 85.833 -13.667 113.5 -41s41.5 -63.666 41.5 -108.999v-300l60 -15v-10h-140v60c-7.33301 -14 -16.666 -26.667 -27.999 -38
c-9.33301 -9.33301 -21.166 -17.833 -35.499 -25.5s-31.5 -11.5 -51.5 -11.5c-48 0 -84.167 11.333 -108.5 34s-36.5 53 -36.5 91c0 18.667 5.16699 37.334 15.5 56.001s26 35.334 47 50.001s47.833 26.5 80.5 35.5s71.667 13.5 117 13.5v60c0 50 -7.5 85 -22.5 105
s-32.5 30 -52.5 30zM197.998 580.999c0 -12.667 -5.16699 -24.167 -15.5 -34.5s-21.833 -15.5 -34.5 -15.5s-24.167 5.16699 -34.5 15.5s-15.5 21.833 -15.5 34.5s5.16699 24.167 15.5 34.5s21.833 15.5 34.5 15.5s24.167 -5.16699 34.5 -15.5s15.5 -21.833 15.5 -34.5z
M362.998 580.999c0 -12.667 -5.16699 -24.167 -15.5 -34.5s-21.833 -15.5 -34.5 -15.5s-24.167 5.16699 -34.5 15.5s-15.5 21.833 -15.5 34.5s5.16699 24.167 15.5 34.5s21.833 15.5 34.5 15.5s24.167 -5.16699 34.5 -15.5s15.5 -21.833 15.5 -34.5z" />
    <glyph glyph-name="aring" unicode="&#xe5;" horiz-adv-x="465" 
d="M300 245c-58 0 -100.833 -12.832 -128.5 -38.499s-41.5 -61.167 -41.5 -106.5c0 -30 7.33301 -53.333 22 -70s30.667 -25 48 -25c16 0 30.167 4.66699 42.5 14s22.833 19.666 31.5 30.999c10 12.667 18.667 27.667 26 45v150zM225 460.001
c-20 0 -36.6689 -6.83496 -50.002 -20.502s-20 -31.834 -20 -54.501c0 -5.33301 0.166992 -10 0.5 -14s0.833008 -7.66699 1.5 -11s1.66699 -6.66602 3 -9.99902l-80 -20c-1.33301 2 -2.33301 4.66699 -3 8s-1.16699 7 -1.5 11s-0.5 9.33301 -0.5 16
c0 14 3.33301 27.5 10 40.5s16.5 24.667 29.5 35s28.667 18.666 47 24.999s39.5 9.5 63.5 9.5c48 0 85.833 -13.667 113.5 -41s41.5 -63.666 41.5 -108.999v-300l60 -15v-10h-140v60c-7.33301 -14 -16.666 -26.667 -27.999 -38
c-9.33301 -9.33301 -21.166 -17.833 -35.499 -25.5s-31.5 -11.5 -51.5 -11.5c-48 0 -84.167 11.333 -108.5 34s-36.5 53 -36.5 91c0 18.667 5.16699 37.334 15.5 56.001s26 35.334 47 50.001s47.833 26.5 80.5 35.5s71.667 13.5 117 13.5v60c0 50 -7.5 85 -22.5 105
s-32.5 30 -52.5 30zM304.998 589.999c0 -22.667 -7.66699 -40.834 -23 -54.501s-34.333 -20.5 -57 -20.5s-41.667 6.83301 -57 20.5s-23 31.834 -23 54.501s7.66699 40.834 23 54.501s34.333 20.5 57 20.5s41.667 -6.83301 57 -20.5s23 -31.834 23 -54.501zM259.998 589.999
c0 17.333 -3.33301 30.833 -10 40.5s-15 14.5 -25 14.5s-18.333 -4.83301 -25 -14.5s-10 -23.167 -10 -40.5s3.33301 -30.833 10 -40.5s15 -14.5 25 -14.5s18.333 4.83301 25 14.5s10 23.167 10 40.5z" />
    <glyph glyph-name="ae" unicode="&#xe6;" horiz-adv-x="695" 
d="M385 230c0 -42.667 3.1709 -78.333 9.50391 -107s14.666 -51.834 24.999 -69.501s22 -30.167 35 -37.5s26.5 -11 40.5 -11c17.333 0 33.666 3.33301 48.999 10s29 15.667 41 27s21.833 25 29.5 41s12.834 33.333 15.501 52h15
c-2.66699 -21.333 -8.5 -41.166 -17.5 -59.499s-20.5 -34.166 -34.5 -47.499s-30.167 -23.833 -48.5 -31.5s-38.166 -11.5 -59.499 -11.5c-28 0 -50.833 4.66699 -68.5 14s-31.834 19.666 -42.501 30.999c-12 12.667 -21.667 27.667 -29 45
c-8.66699 -17.333 -20.334 -32.333 -35.001 -45c-12.667 -11.333 -29.167 -21.666 -49.5 -30.999s-45.5 -14 -75.5 -14c-48 0 -84.167 11.333 -108.5 34s-36.5 53 -36.5 91c0 18.667 4.83301 36.667 14.5 54s25 32.833 46 46.5s48 24.5 81 32.5s72.5 12 118.5 12v70
c0 50 -7.5 85 -22.5 105s-32.5 30 -52.5 30s-36.667 -6.83301 -50 -20.5s-20 -31.834 -20 -54.501c0 -5.33301 0.166992 -10 0.5 -14s0.833008 -7.66699 1.5 -11s1.66699 -6.66602 3 -9.99902l-80 -20c-1.33301 2 -2.33301 4.66699 -3 8s-1.16699 7 -1.5 11
s-0.5 9.33301 -0.5 16c0 14 3.33301 27.5 10 40.5s16.5 24.667 29.5 35s28.667 18.666 47 24.999s39.5 9.5 63.5 9.5c25.333 0 46.166 -4.66699 62.499 -14s29.5 -19.666 39.5 -30.999c12 -13.333 21.333 -28.333 28 -45c6 16.667 14.667 31.667 26 45
c9.33301 11.333 21.666 21.666 36.999 30.999s34.333 14 57 14c24 0 46.833 -5.33301 68.5 -16s40.667 -26.167 57 -46.5s29.5 -45.833 39.5 -76.5s15 -66 15 -106h-270zM300.004 235.001c-58 0 -100.833 -11.832 -128.5 -35.499s-41.5 -56.834 -41.5 -99.501
c0 -30 7.33301 -53.333 22 -70s30.667 -25 48 -25c12.667 0 25 3.16699 37 9.5s22.667 15.5 32 27.5s16.833 27 22.5 45s8.5 39 8.5 63v85zM475.004 460.002c-10 0 -19.998 -3.16699 -29.998 -9.5s-19.333 -17.5 -28 -33.5s-15.834 -37.5 -21.501 -64.5
s-9.16699 -61.167 -10.5 -102.5h180c-1.33301 41.333 -4.83301 75.5 -10.5 102.5s-12.834 48.5 -21.501 64.5s-18 27.167 -28 33.5s-20 9.5 -30 9.5z" />
    <glyph glyph-name="ccedilla" unicode="&#xe7;" horiz-adv-x="430" 
d="M240 455c-12.667 0 -25.168 -3.83398 -37.501 -11.501s-23.5 -20.167 -33.5 -37.5s-18.167 -40.333 -24.5 -69s-9.5 -64.334 -9.5 -107.001s3.16699 -78.334 9.5 -107.001s14.833 -51.834 25.5 -69.501s22.834 -30.167 36.501 -37.5s28.167 -11 43.5 -11
c17.333 0 33.666 3.33301 48.999 10s29 15.667 41 27s21.833 25 29.5 41s12.834 33.333 15.501 52h15c-2.66699 -21.333 -8.5 -41.166 -17.5 -59.499s-20.5 -34.166 -34.5 -47.499s-30.167 -23.833 -48.5 -31.5s-38.166 -11.5 -59.499 -11.5c-26 0 -50.833 5.5 -74.5 16.5
s-44.5 27 -62.5 48s-32.167 46.667 -42.5 77s-15.5 64.833 -15.5 103.5s5.16699 73.167 15.5 103.5s24.166 56 41.499 77s37 37 59 48s45 16.5 69 16.5c16 0 30.167 -2.66699 42.5 -8s22.833 -11 31.5 -17c10 -7.33301 18.667 -15.666 26 -24.999
c2.66699 10 8.16699 19.333 16.5 28s16.166 14.334 23.499 17.001h15c-1.33301 -8.66699 -2.33301 -17.667 -3 -27c-0.666992 -8 -1.16699 -16.667 -1.5 -26s-0.5 -18.333 -0.5 -27c0 -10 0.166992 -20.167 0.5 -30.5s0.833008 -19.5 1.5 -27.5
c0.666992 -9.33301 1.66699 -18.333 3 -27h-15c-12.667 48 -31.167 85 -55.5 111s-49.166 39 -74.499 39zM209.999 -0.000976562l25.0029 -0.00292969v-35c25.333 0 44.166 -5.66699 56.499 -17s18.5 -25.666 18.5 -42.999s-6.83301 -31.666 -20.5 -42.999
s-36.834 -17 -69.501 -17c-6.66699 0 -12.334 0.166992 -17.001 0.5s-8.66699 0.833008 -12 1.5c-4 0.666992 -7.66699 1.66699 -11 3v21c2.66699 -1.33301 5.66699 -2.33301 9 -3c6 -2 13 -3 21 -3c15.333 0 26.666 4.16699 33.999 12.5s11 17.5 11 27.5
c0 12.667 -3.66699 23.334 -11 32.001s-18.666 13 -33.999 13v50z" />
    <glyph glyph-name="egrave" unicode="&#xe8;" horiz-adv-x="445" 
d="M135 230c0 -42.667 3.16797 -78.334 9.50098 -107.001s14.666 -51.834 24.999 -69.501s22 -30.167 35 -37.5s26.5 -11 40.5 -11c17.333 0 33.666 3.33301 48.999 10s29 15.667 41 27s21.833 25 29.5 41s12.834 33.333 15.501 52h15
c-2.66699 -21.333 -8.5 -41.166 -17.5 -59.499s-20.5 -34.166 -34.5 -47.499s-30.167 -23.833 -48.5 -31.5s-38.166 -11.5 -59.499 -11.5c-25.333 0 -49.333 5.5 -72 16.5s-42.834 27 -60.501 48s-31.667 46.667 -42 77s-15.5 64.833 -15.5 103.5c0 40 5 75.333 15 106
s23.167 56.167 39.5 76.5s35.333 35.833 57 46.5s44.5 16 68.5 16s46.833 -5.33301 68.5 -16s40.667 -26.167 57 -46.5s29.5 -45.833 39.5 -76.5s15 -66 15 -106h-270zM225.001 460c-10 0 -19.998 -3.16699 -29.998 -9.5s-19.333 -17.5 -28 -33.5
s-15.834 -37.5 -21.501 -64.5s-9.16699 -61.167 -10.5 -102.5h180c-1.33301 41.333 -4.83301 75.5 -10.5 102.5s-12.834 48.5 -21.501 64.5s-18 27.167 -28 33.5s-20 9.5 -30 9.5zM247.003 515h-30l-100 120h90z" />
    <glyph glyph-name="eacute" unicode="&#xe9;" horiz-adv-x="445" 
d="M135 230c0 -42.667 3.16797 -78.334 9.50098 -107.001s14.666 -51.834 24.999 -69.501s22 -30.167 35 -37.5s26.5 -11 40.5 -11c17.333 0 33.666 3.33301 48.999 10s29 15.667 41 27s21.833 25 29.5 41s12.834 33.333 15.501 52h15
c-2.66699 -21.333 -8.5 -41.166 -17.5 -59.499s-20.5 -34.166 -34.5 -47.499s-30.167 -23.833 -48.5 -31.5s-38.166 -11.5 -59.499 -11.5c-25.333 0 -49.333 5.5 -72 16.5s-42.834 27 -60.501 48s-31.667 46.667 -42 77s-15.5 64.833 -15.5 103.5c0 40 5 75.333 15 106
s23.167 56.167 39.5 76.5s35.333 35.833 57 46.5s44.5 16 68.5 16s46.833 -5.33301 68.5 -16s40.667 -26.167 57 -46.5s29.5 -45.833 39.5 -76.5s15 -66 15 -106h-270zM225.001 460c-10 0 -19.998 -3.16699 -29.998 -9.5s-19.333 -17.5 -28 -33.5
s-15.834 -37.5 -21.501 -64.5s-9.16699 -61.167 -10.5 -102.5h180c-1.33301 41.333 -4.83301 75.5 -10.5 102.5s-12.834 48.5 -21.501 64.5s-18 27.167 -28 33.5s-20 9.5 -30 9.5zM240.003 636h90l-100 -120h-30z" />
    <glyph glyph-name="ecircumflex" unicode="&#xea;" horiz-adv-x="445" 
d="M135 230c0 -42.667 3.16797 -78.334 9.50098 -107.001s14.666 -51.834 24.999 -69.501s22 -30.167 35 -37.5s26.5 -11 40.5 -11c17.333 0 33.666 3.33301 48.999 10s29 15.667 41 27s21.833 25 29.5 41s12.834 33.333 15.501 52h15
c-2.66699 -21.333 -8.5 -41.166 -17.5 -59.499s-20.5 -34.166 -34.5 -47.499s-30.167 -23.833 -48.5 -31.5s-38.166 -11.5 -59.499 -11.5c-25.333 0 -49.333 5.5 -72 16.5s-42.834 27 -60.501 48s-31.667 46.667 -42 77s-15.5 64.833 -15.5 103.5c0 40 5 75.333 15 106
s23.167 56.167 39.5 76.5s35.333 35.833 57 46.5s44.5 16 68.5 16s46.833 -5.33301 68.5 -16s40.667 -26.167 57 -46.5s29.5 -45.833 39.5 -76.5s15 -66 15 -106h-270zM225.001 460c-10 0 -19.998 -3.16699 -29.998 -9.5s-19.333 -17.5 -28 -33.5
s-15.834 -37.5 -21.501 -64.5s-9.16699 -61.167 -10.5 -102.5h180c-1.33301 41.333 -4.83301 75.5 -10.5 102.5s-12.834 48.5 -21.501 64.5s-18 27.167 -28 33.5s-20 9.5 -30 9.5zM142.003 525h-25l115 130l115 -130h-25l-90 60z" />
    <glyph glyph-name="edieresis" unicode="&#xeb;" horiz-adv-x="445" 
d="M135 230c0 -42.667 3.16797 -78.334 9.50098 -107.001s14.666 -51.834 24.999 -69.501s22 -30.167 35 -37.5s26.5 -11 40.5 -11c17.333 0 33.666 3.33301 48.999 10s29 15.667 41 27s21.833 25 29.5 41s12.834 33.333 15.501 52h15
c-2.66699 -21.333 -8.5 -41.166 -17.5 -59.499s-20.5 -34.166 -34.5 -47.499s-30.167 -23.833 -48.5 -31.5s-38.166 -11.5 -59.499 -11.5c-25.333 0 -49.333 5.5 -72 16.5s-42.834 27 -60.501 48s-31.667 46.667 -42 77s-15.5 64.833 -15.5 103.5c0 40 5 75.333 15 106
s23.167 56.167 39.5 76.5s35.333 35.833 57 46.5s44.5 16 68.5 16s46.833 -5.33301 68.5 -16s40.667 -26.167 57 -46.5s29.5 -45.833 39.5 -76.5s15 -66 15 -106h-270zM225.001 460c-10 0 -19.998 -3.16699 -29.998 -9.5s-19.333 -17.5 -28 -33.5
s-15.834 -37.5 -21.501 -64.5s-9.16699 -61.167 -10.5 -102.5h180c-1.33301 41.333 -4.83301 75.5 -10.5 102.5s-12.834 48.5 -21.501 64.5s-18 27.167 -28 33.5s-20 9.5 -30 9.5zM194.003 581c0 -12.667 -5.16699 -24.167 -15.5 -34.5s-21.833 -15.5 -34.5 -15.5
s-24.167 5.16699 -34.5 15.5s-15.5 21.833 -15.5 34.5s5.16699 24.167 15.5 34.5s21.833 15.5 34.5 15.5s24.167 -5.16699 34.5 -15.5s15.5 -21.833 15.5 -34.5zM359.003 581c0 -12.667 -5.16699 -24.167 -15.5 -34.5s-21.833 -15.5 -34.5 -15.5s-24.167 5.16699 -34.5 15.5
s-15.5 21.833 -15.5 34.5s5.16699 24.167 15.5 34.5s21.833 15.5 34.5 15.5s24.167 -5.16699 34.5 -15.5s15.5 -21.833 15.5 -34.5z" />
    <glyph glyph-name="igrave" unicode="&#xec;" horiz-adv-x="260" 
d="M95 25v410l-60 15v10h140v-435l60 -15v-10h-200v10zM155 515h-30l-100 120h90z" />
    <glyph glyph-name="iacute" unicode="&#xed;" horiz-adv-x="260" 
d="M95 25v410l-60 15v10h140v-435l60 -15v-10h-200v10zM155 630h90l-100 -120h-30z" />
    <glyph glyph-name="icircumflex" unicode="&#xee;" horiz-adv-x="260" 
d="M95 25v410l-60 15v10h140v-435l60 -15v-10h-200v10zM40 520h-25l115 130l115 -130h-25l-90 60z" />
    <glyph glyph-name="idieresis" unicode="&#xef;" horiz-adv-x="260" 
d="M95 25v410l-60 15v10h140v-435l60 -15v-10h-200v10zM98 580c0 -12.667 -5.16699 -24.167 -15.5 -34.5s-21.833 -15.5 -34.5 -15.5s-24.167 5.16699 -34.5 15.5s-15.5 21.833 -15.5 34.5s5.16699 24.167 15.5 34.5s21.833 15.5 34.5 15.5s24.167 -5.16699 34.5 -15.5
s15.5 -21.833 15.5 -34.5zM263 580c0 -12.667 -5.16699 -24.167 -15.5 -34.5s-21.833 -15.5 -34.5 -15.5s-24.167 5.16699 -34.5 15.5s-15.5 21.833 -15.5 34.5s5.16699 24.167 15.5 34.5s21.833 15.5 34.5 15.5s24.167 -5.16699 34.5 -15.5s15.5 -21.833 15.5 -34.5z" />
    <glyph glyph-name="eth" unicode="&#xf0;" horiz-adv-x="465" 
d="M225 475c17.333 0 32.8311 -2.83105 46.498 -8.49805s25.167 -12.167 34.5 -19.5c11.333 -8 21 -17 29 -27c-3.33301 30.667 -11.666 59.5 -24.999 86.5s-30.666 52.167 -51.999 75.5l-63 -67l-20 20l63 67c-14 13.333 -29.167 26 -45.5 38s-33.833 23.667 -52.5 35
l10 15c20.667 -9.33301 40.334 -19 59.001 -29s36.667 -21 54 -33l62 67l20 -20l-60 -64c42.667 -34.667 75.834 -78.334 99.501 -131.001s35.5 -119.334 35.5 -200.001v-50c0 -38.667 -5.16699 -73.167 -15.5 -103.5s-24.333 -56 -42 -77s-38 -37 -61 -48
s-46.833 -16.5 -71.5 -16.5c-25.333 0 -49.333 5.5 -72 16.5s-42.834 27 -60.501 48s-31.667 46.667 -42 77s-15.5 64.833 -15.5 103.5s5.16699 73.167 15.5 103.5s24.166 56 41.499 77s37 37 59 48s45 16.5 69 16.5zM329.998 230.002c0 44 -3.16895 80.667 -9.50195 110
s-14.5 52.833 -24.5 70.5s-21.167 30.334 -33.5 38.001s-24.833 11.5 -37.5 11.5c-10 0 -20.5 -3.83301 -31.5 -11.5s-21.333 -20.334 -31 -38.001s-17.5 -41.167 -23.5 -70.5s-9 -66 -9 -110s3.16699 -80.667 9.5 -110s14.333 -52.833 24 -70.5
s20.334 -30.334 32.001 -38.001s23.167 -11.5 34.5 -11.5s22.833 3.83301 34.5 11.5s22.334 20.334 32.001 38.001s17.667 41.167 24 70.5s9.5 66 9.5 110z" />
    <glyph glyph-name="ntilde" unicode="&#xf1;" horiz-adv-x="515" 
d="M95 25v410l-60 15v10h140v-60c6.66699 13.333 15.667 25.666 27 36.999c9.33301 9.33301 21.333 18 36 26s32 12 52 12s38.5 -3.66699 55.5 -11s31.833 -17.5 44.5 -30.5s22.5 -28.667 29.5 -47s10.5 -38.833 10.5 -61.5v-300l60 -15v-10h-195v10l55 15v300
c0 47.333 -7.5 80.833 -22.5 100.5s-32.5 29.5 -52.5 29.5c-16.667 0 -31 -4.66699 -43 -14s-22.333 -19.666 -31 -30.999c-10 -13.333 -18.667 -28.333 -26 -45v-340l55 -15v-10h-195v10zM370 626c0 -35.333 -6.5 -60.833 -19.5 -76.5s-28.167 -23.5 -45.5 -23.5
c-10 0 -19 2.83301 -27 8.5s-15.5 12 -22.5 19s-13.667 13.333 -20 19s-13.166 8.5 -20.499 8.5c-10 0 -18.333 -3.66699 -25 -11s-10 -18.666 -10 -33.999h-15c0 35.333 6.5 60.833 19.5 76.5s28.167 23.5 45.5 23.5c10 0 19 -2.83301 27 -8.5s15.5 -12 22.5 -19
s13.667 -13.333 20 -19s13.166 -8.5 20.499 -8.5c10 0 18.333 3.66699 25 11s10 18.666 10 33.999h15z" />
    <glyph glyph-name="ograve" unicode="&#xf2;" horiz-adv-x="470" 
d="M235 460c-11.333 0 -22.833 -3.83301 -34.5 -11.5s-22.334 -20.334 -32.001 -38.001s-17.667 -41.167 -24 -70.5s-9.5 -66 -9.5 -110s3.16699 -80.667 9.5 -110s14.333 -52.833 24 -70.5s20.334 -30.334 32.001 -38.001s23.167 -11.5 34.5 -11.5
s22.833 3.83301 34.5 11.5s22.334 20.334 32.001 38.001s17.667 41.167 24 70.5s9.5 66 9.5 110s-3.16699 80.667 -9.5 110s-14.333 52.833 -24 70.5s-20.334 30.334 -32.001 38.001s-23.167 11.5 -34.5 11.5zM235 475c24.667 0 48.5 -5.5 71.5 -16.5s43.333 -27 61 -48
s31.667 -46.667 42 -77s15.5 -64.833 15.5 -103.5s-5.16699 -73.167 -15.5 -103.5s-24.333 -56 -42 -77s-38 -37 -61 -48s-46.833 -16.5 -71.5 -16.5c-25.333 0 -49.333 5.5 -72 16.5s-42.834 27 -60.501 48s-31.667 46.667 -42 77s-15.5 64.833 -15.5 103.5
s5.16699 73.167 15.5 103.5s24.333 56 42 77s37.834 37 60.501 48s46.667 16.5 72 16.5zM260 516h-30l-100 120h90z" />
    <glyph glyph-name="oacute" unicode="&#xf3;" horiz-adv-x="470" 
d="M235 460c-11.333 0 -22.833 -3.83301 -34.5 -11.5s-22.334 -20.334 -32.001 -38.001s-17.667 -41.167 -24 -70.5s-9.5 -66 -9.5 -110s3.16699 -80.667 9.5 -110s14.333 -52.833 24 -70.5s20.334 -30.334 32.001 -38.001s23.167 -11.5 34.5 -11.5
s22.833 3.83301 34.5 11.5s22.334 20.334 32.001 38.001s17.667 41.167 24 70.5s9.5 66 9.5 110s-3.16699 80.667 -9.5 110s-14.333 52.833 -24 70.5s-20.334 30.334 -32.001 38.001s-23.167 11.5 -34.5 11.5zM235 475c24.667 0 48.5 -5.5 71.5 -16.5s43.333 -27 61 -48
s31.667 -46.667 42 -77s15.5 -64.833 15.5 -103.5s-5.16699 -73.167 -15.5 -103.5s-24.333 -56 -42 -77s-38 -37 -61 -48s-46.833 -16.5 -71.5 -16.5c-25.333 0 -49.333 5.5 -72 16.5s-42.834 27 -60.501 48s-31.667 46.667 -42 77s-15.5 64.833 -15.5 103.5
s5.16699 73.167 15.5 103.5s24.333 56 42 77s37.834 37 60.501 48s46.667 16.5 72 16.5zM250 635h90l-100 -120h-30z" />
    <glyph glyph-name="ocircumflex" unicode="&#xf4;" horiz-adv-x="470" 
d="M235 460c-11.333 0 -22.833 -3.83301 -34.5 -11.5s-22.334 -20.334 -32.001 -38.001s-17.667 -41.167 -24 -70.5s-9.5 -66 -9.5 -110s3.16699 -80.667 9.5 -110s14.333 -52.833 24 -70.5s20.334 -30.334 32.001 -38.001s23.167 -11.5 34.5 -11.5
s22.833 3.83301 34.5 11.5s22.334 20.334 32.001 38.001s17.667 41.167 24 70.5s9.5 66 9.5 110s-3.16699 80.667 -9.5 110s-14.333 52.833 -24 70.5s-20.334 30.334 -32.001 38.001s-23.167 11.5 -34.5 11.5zM235 475c24.667 0 48.5 -5.5 71.5 -16.5s43.333 -27 61 -48
s31.667 -46.667 42 -77s15.5 -64.833 15.5 -103.5s-5.16699 -73.167 -15.5 -103.5s-24.333 -56 -42 -77s-38 -37 -61 -48s-46.833 -16.5 -71.5 -16.5c-25.333 0 -49.333 5.5 -72 16.5s-42.834 27 -60.501 48s-31.667 46.667 -42 77s-15.5 64.833 -15.5 103.5
s5.16699 73.167 15.5 103.5s24.333 56 42 77s37.834 37 60.501 48s46.667 16.5 72 16.5zM145 521h-25l115 130l115 -130h-25l-90 60z" />
    <glyph glyph-name="otilde" unicode="&#xf5;" horiz-adv-x="470" 
d="M235 460c-11.333 0 -22.833 -3.83301 -34.5 -11.5s-22.334 -20.334 -32.001 -38.001s-17.667 -41.167 -24 -70.5s-9.5 -66 -9.5 -110s3.16699 -80.667 9.5 -110s14.333 -52.833 24 -70.5s20.334 -30.334 32.001 -38.001s23.167 -11.5 34.5 -11.5
s22.833 3.83301 34.5 11.5s22.334 20.334 32.001 38.001s17.667 41.167 24 70.5s9.5 66 9.5 110s-3.16699 80.667 -9.5 110s-14.333 52.833 -24 70.5s-20.334 30.334 -32.001 38.001s-23.167 11.5 -34.5 11.5zM235 475c24.667 0 48.5 -5.5 71.5 -16.5s43.333 -27 61 -48
s31.667 -46.667 42 -77s15.5 -64.833 15.5 -103.5s-5.16699 -73.167 -15.5 -103.5s-24.333 -56 -42 -77s-38 -37 -61 -48s-46.833 -16.5 -71.5 -16.5c-25.333 0 -49.333 5.5 -72 16.5s-42.834 27 -60.501 48s-31.667 46.667 -42 77s-15.5 64.833 -15.5 103.5
s5.16699 73.167 15.5 103.5s24.333 56 42 77s37.834 37 60.501 48s46.667 16.5 72 16.5zM337 626c0 -35.333 -6.5 -60.833 -19.5 -76.5s-28.167 -23.5 -45.5 -23.5c-10 0 -19 2.83301 -27 8.5s-15.5 12 -22.5 19s-13.667 13.333 -20 19s-13.166 8.5 -20.499 8.5
c-10 0 -18.333 -3.66699 -25 -11s-10 -18.666 -10 -33.999h-15c0 35.333 6.5 60.833 19.5 76.5s28.167 23.5 45.5 23.5c10 0 19 -2.83301 27 -8.5s15.5 -12 22.5 -19s13.667 -13.333 20 -19s13.166 -8.5 20.499 -8.5c10 0 18.333 3.66699 25 11s10 18.666 10 33.999h15z" />
    <glyph glyph-name="odieresis" unicode="&#xf6;" horiz-adv-x="470" 
d="M235 460c-11.333 0 -22.833 -3.83301 -34.5 -11.5s-22.334 -20.334 -32.001 -38.001s-17.667 -41.167 -24 -70.5s-9.5 -66 -9.5 -110s3.16699 -80.667 9.5 -110s14.333 -52.833 24 -70.5s20.334 -30.334 32.001 -38.001s23.167 -11.5 34.5 -11.5
s22.833 3.83301 34.5 11.5s22.334 20.334 32.001 38.001s17.667 41.167 24 70.5s9.5 66 9.5 110s-3.16699 80.667 -9.5 110s-14.333 52.833 -24 70.5s-20.334 30.334 -32.001 38.001s-23.167 11.5 -34.5 11.5zM235 475c24.667 0 48.5 -5.5 71.5 -16.5s43.333 -27 61 -48
s31.667 -46.667 42 -77s15.5 -64.833 15.5 -103.5s-5.16699 -73.167 -15.5 -103.5s-24.333 -56 -42 -77s-38 -37 -61 -48s-46.833 -16.5 -71.5 -16.5c-25.333 0 -49.333 5.5 -72 16.5s-42.834 27 -60.501 48s-31.667 46.667 -42 77s-15.5 64.833 -15.5 103.5
s5.16699 73.167 15.5 103.5s24.333 56 42 77s37.834 37 60.501 48s46.667 16.5 72 16.5zM202 581c0 -12.667 -5.16699 -24.167 -15.5 -34.5s-21.833 -15.5 -34.5 -15.5s-24.167 5.16699 -34.5 15.5s-15.5 21.833 -15.5 34.5s5.16699 24.167 15.5 34.5s21.833 15.5 34.5 15.5
s24.167 -5.16699 34.5 -15.5s15.5 -21.833 15.5 -34.5zM367 581c0 -12.667 -5.16699 -24.167 -15.5 -34.5s-21.833 -15.5 -34.5 -15.5s-24.167 5.16699 -34.5 15.5s-15.5 21.833 -15.5 34.5s5.16699 24.167 15.5 34.5s21.833 15.5 34.5 15.5s24.167 -5.16699 34.5 -15.5
s15.5 -21.833 15.5 -34.5z" />
    <glyph glyph-name="divide" unicode="&#xf7;" horiz-adv-x="440" 
d="M410 320v-40h-380v40h380zM164 145c0 15.333 5.33301 28.333 16 39s23.667 16 39 16s28.333 -5.33301 39 -16s16 -23.667 16 -39s-5.33301 -28.333 -16 -39s-23.667 -16 -39 -16s-28.333 5.33301 -39 16s-16 23.667 -16 39zM164 455c0 15.333 5.33301 28.333 16 39
s23.667 16 39 16s28.333 -5.33301 39 -16s16 -23.667 16 -39s-5.33301 -28.333 -16 -39s-23.667 -16 -39 -16s-28.333 5.33301 -39 16s-16 23.667 -16 39z" />
    <glyph glyph-name="oslash" unicode="&#xf8;" horiz-adv-x="470" 
d="M235 475c50.667 0 94 -20.667 130 -62l40 47l25 -25l-44 -51c12 -20 21.5 -42.833 28.5 -68.5s10.5 -54.167 10.5 -85.5c0 -38.667 -5.16699 -73.167 -15.5 -103.5s-24.333 -56 -42 -77s-38 -37 -61 -48s-46.833 -16.5 -71.5 -16.5s-48.334 5.16699 -71.001 15.5
s-42.667 25.833 -60 46.5l-39 -47l-25 25l43 51c-12 19.333 -21.333 41.833 -28 67.5s-10 54.5 -10 86.5c0 38.667 5.16699 73.167 15.5 103.5s24.333 56 42 77s37.834 37 60.501 48s46.667 16.5 72 16.5zM235 460c-11.333 0 -22.834 -3.83203 -34.501 -11.499
s-22.334 -20.334 -32.001 -38.001s-17.667 -41.167 -24 -70.5s-9.5 -66 -9.5 -110c0 -16.667 0.5 -32 1.5 -46s2.16699 -27.333 3.5 -40l181 216c-9.33301 37.333 -22.166 63.333 -38.499 78s-32.166 22 -47.499 22zM334.999 230.001c0 32 -1.99902 60.666 -5.99902 85.999
l-180 -216c9.33301 -37.333 22.166 -63.333 38.499 -78s32.166 -22 47.499 -22c11.333 -0 22.833 3.83301 34.5 11.5s22.334 20.334 32.001 38.001s17.667 41.167 24 70.5s9.5 66 9.5 110z" />
    <glyph glyph-name="ugrave" unicode="&#xf9;" 
d="M410 435l-0.00195312 -409.999l60 -15v-10h-140v60c-7.33301 -14 -16.666 -26.667 -27.999 -38c-9.33301 -9.33301 -21.166 -17.833 -35.499 -25.5s-31.5 -11.5 -51.5 -11.5s-38.5 3.66699 -55.5 11s-31.833 17.5 -44.5 30.5s-22.5 28.667 -29.5 47
s-10.5 38.833 -10.5 61.5v300l-60 15v10h195v-10l-55 -15v-300c0 -47.333 7.5 -80.833 22.5 -100.5s32.5 -29.5 52.5 -29.5c16 0 30.167 4.66699 42.5 14s22.833 19.666 31.5 30.999c10 12.667 18.667 27.667 26 45v340l-55 15v10h195v-10zM276.998 516.001h-30l-100 120h90
z" />
    <glyph glyph-name="uacute" unicode="&#xfa;" 
d="M410 435l-0.00195312 -409.999l60 -15v-10h-140v60c-7.33301 -14 -16.666 -26.667 -27.999 -38c-9.33301 -9.33301 -21.166 -17.833 -35.499 -25.5s-31.5 -11.5 -51.5 -11.5s-38.5 3.66699 -55.5 11s-31.833 17.5 -44.5 30.5s-22.5 28.667 -29.5 47
s-10.5 38.833 -10.5 61.5v300l-60 15v10h195v-10l-55 -15v-300c0 -47.333 7.5 -80.833 22.5 -100.5s32.5 -29.5 52.5 -29.5c16 0 30.167 4.66699 42.5 14s22.833 19.666 31.5 30.999c10 12.667 18.667 27.667 26 45v340l-55 15v10h195v-10zM266.998 641.001h90l-100 -120
h-30z" />
    <glyph glyph-name="ucircumflex" unicode="&#xfb;" 
d="M410 435l-0.00195312 -409.999l60 -15v-10h-140v60c-7.33301 -14 -16.666 -26.667 -27.999 -38c-9.33301 -9.33301 -21.166 -17.833 -35.499 -25.5s-31.5 -11.5 -51.5 -11.5s-38.5 3.66699 -55.5 11s-31.833 17.5 -44.5 30.5s-22.5 28.667 -29.5 47
s-10.5 38.833 -10.5 61.5v300l-60 15v10h195v-10l-55 -15v-300c0 -47.333 7.5 -80.833 22.5 -100.5s32.5 -29.5 52.5 -29.5c16 0 30.167 4.66699 42.5 14s22.833 19.666 31.5 30.999c10 12.667 18.667 27.667 26 45v340l-55 15v10h195v-10zM159.998 526.001h-25l115 130
l115 -130h-25l-90 60z" />
    <glyph glyph-name="udieresis" unicode="&#xfc;" 
d="M410 435l-0.00195312 -409.999l60 -15v-10h-140v60c-7.33301 -14 -16.666 -26.667 -27.999 -38c-9.33301 -9.33301 -21.166 -17.833 -35.499 -25.5s-31.5 -11.5 -51.5 -11.5s-38.5 3.66699 -55.5 11s-31.833 17.5 -44.5 30.5s-22.5 28.667 -29.5 47
s-10.5 38.833 -10.5 61.5v300l-60 15v10h195v-10l-55 -15v-300c0 -47.333 7.5 -80.833 22.5 -100.5s32.5 -29.5 52.5 -29.5c16 0 30.167 4.66699 42.5 14s22.833 19.666 31.5 30.999c10 12.667 18.667 27.667 26 45v340l-55 15v10h195v-10zM209.998 581.001
c0 -12.667 -5.16699 -24.167 -15.5 -34.5s-21.833 -15.5 -34.5 -15.5s-24.167 5.16699 -34.5 15.5s-15.5 21.833 -15.5 34.5s5.16699 24.167 15.5 34.5s21.833 15.5 34.5 15.5s24.167 -5.16699 34.5 -15.5s15.5 -21.833 15.5 -34.5zM374.998 581.001
c0 -12.667 -5.16699 -24.167 -15.5 -34.5s-21.833 -15.5 -34.5 -15.5s-24.167 5.16699 -34.5 15.5s-15.5 21.833 -15.5 34.5s5.16699 24.167 15.5 34.5s21.833 15.5 34.5 15.5s24.167 -5.16699 34.5 -15.5s15.5 -21.833 15.5 -34.5z" />
    <glyph glyph-name="yacute" unicode="&#xfd;" horiz-adv-x="435" 
d="M215 -85c-10.667 -31.333 -21 -57.5 -31 -78.5s-20.5 -38 -31.5 -51s-22.333 -22.167 -34 -27.5s-24.5 -8 -38.5 -8c-4 0 -7.66699 0.166992 -11 0.5s-6.66602 0.833008 -9.99902 1.5s-6.33301 1.66699 -9 3l-15 75c2.66699 -1.33301 5.66699 -2.33301 9 -3
s6.66602 -1.16699 9.99902 -1.5s7 -0.5 11 -0.5c40 0 69.167 7.5 87.5 22.5s32.5 37.5 42.5 67.5l28 85l-173 435l-60 15v10h200v-10l-55 -15l127 -319l103 309l-65 25v10h150v-10l-65 -25zM262 641h90l-100 -120h-30z" />
    <glyph glyph-name="thorn" unicode="&#xfe;" horiz-adv-x="500" 
d="M85 675l-60 15.002v10h140v-300c6.66699 13.333 15.667 25.666 27 36.999c9.33301 9.33301 21.333 18 36 26s32 12 52 12c21.333 0 42.5 -5.5 63.5 -16.5s39.667 -27 56 -48s29.666 -46.667 39.999 -77s15.5 -64.833 15.5 -103.5s-5.16699 -73.167 -15.5 -103.5
s-24.166 -56 -41.499 -77s-37 -37 -59 -48s-45 -16.5 -69 -16.5c-19.333 0 -35.5 2.5 -48.5 7.5s-23.833 10.833 -32.5 17.5c-10 7.33301 -18 15.666 -24 24.999v-250l60 -15v-10h-200v10l60 15v890zM255 5.00195c14 0 27.5039 3.66211 40.5039 10.9951
s24.667 19.833 35 37.5s18.666 40.834 24.999 69.501s9.5 64.334 9.5 107.001s-3.16699 78.334 -9.5 107.001s-14.333 51.667 -24 69s-20.334 29.833 -32.001 37.5s-23.167 11.5 -34.5 11.5c-16.667 0 -31 -4.66699 -43 -14s-22.333 -19.666 -31 -30.999
c-10 -13.333 -18.667 -28.333 -26 -45v-300c6 -11.333 13.333 -21.333 22 -30c7.33301 -7.33301 16.666 -14.166 27.999 -20.499s24.666 -9.5 39.999 -9.5z" />
    <glyph glyph-name="ydieresis" unicode="&#xff;" horiz-adv-x="435" 
d="M215 -85c-10.667 -31.333 -21 -57.5 -31 -78.5s-20.5 -38 -31.5 -51s-22.333 -22.167 -34 -27.5s-24.5 -8 -38.5 -8c-4 0 -7.66699 0.166992 -11 0.5s-6.66602 0.833008 -9.99902 1.5s-6.33301 1.66699 -9 3l-15 75c2.66699 -1.33301 5.66699 -2.33301 9 -3
s6.66602 -1.16699 9.99902 -1.5s7 -0.5 11 -0.5c40 0 69.167 7.5 87.5 22.5s32.5 37.5 42.5 67.5l28 85l-173 435l-60 15v10h200v-10l-55 -15l127 -319l103 309l-65 25v10h150v-10l-65 -25zM205 580c0 -12.667 -5.16699 -24.167 -15.5 -34.5s-21.833 -15.5 -34.5 -15.5
s-24.167 5.16699 -34.5 15.5s-15.5 21.833 -15.5 34.5s5.16699 24.167 15.5 34.5s21.833 15.5 34.5 15.5s24.167 -5.16699 34.5 -15.5s15.5 -21.833 15.5 -34.5zM370 580c0 -12.667 -5.16699 -24.167 -15.5 -34.5s-21.833 -15.5 -34.5 -15.5s-24.167 5.16699 -34.5 15.5
s-15.5 21.833 -15.5 34.5s5.16699 24.167 15.5 34.5s21.833 15.5 34.5 15.5s24.167 -5.16699 34.5 -15.5s15.5 -21.833 15.5 -34.5z" />
    <glyph glyph-name="Amacron" unicode="&#x100;" horiz-adv-x="520" 
d="M335 205h-205l-50 -170l65 -25v-10h-150v10l65 25l195 680h15l210 -690l60 -15v-10h-210v10l60 15zM135 224h194l-100 331zM377 815v-40h-230v40h230z" />
    <glyph glyph-name="amacron" unicode="&#x101;" horiz-adv-x="465" 
d="M300 245c-58 0 -100.833 -12.832 -128.5 -38.499s-41.5 -61.167 -41.5 -106.5c0 -30 7.33301 -53.333 22 -70s30.667 -25 48 -25c16 0 30.167 4.66699 42.5 14s22.833 19.666 31.5 30.999c10 12.667 18.667 27.667 26 45v150zM225 460.001
c-20 0 -36.6689 -6.83496 -50.002 -20.502s-20 -31.834 -20 -54.501c0 -5.33301 0.166992 -10 0.5 -14s0.833008 -7.66699 1.5 -11s1.66699 -6.66602 3 -9.99902l-80 -20c-1.33301 2 -2.33301 4.66699 -3 8s-1.16699 7 -1.5 11s-0.5 9.33301 -0.5 16
c0 14 3.33301 27.5 10 40.5s16.5 24.667 29.5 35s28.667 18.666 47 24.999s39.5 9.5 63.5 9.5c48 0 85.833 -13.667 113.5 -41s41.5 -63.666 41.5 -108.999v-300l60 -15v-10h-140v60c-7.33301 -14 -16.666 -26.667 -27.999 -38
c-9.33301 -9.33301 -21.166 -17.833 -35.499 -25.5s-31.5 -11.5 -51.5 -11.5c-48 0 -84.167 11.333 -108.5 34s-36.5 53 -36.5 91c0 18.667 5.16699 37.334 15.5 56.001s26 35.334 47 50.001s47.833 26.5 80.5 35.5s71.667 13.5 117 13.5v60c0 50 -7.5 85 -22.5 105
s-32.5 30 -52.5 30zM349.998 580.999v-40h-230v40h230z" />
    <glyph glyph-name="Abreve" unicode="&#x102;" horiz-adv-x="520" 
d="M335 205h-205l-50 -170l65 -25v-10h-150v10l65 25l195 680h15l210 -690l60 -15v-10h-210v10l60 15zM135 224h194l-100 331zM265 765c12.667 0 23.3311 4.83105 31.998 14.498s13 23.167 13 40.5c0 5.33301 -0.333008 10 -1 14s-1.33398 7.66699 -2.00098 11l-2 10h65
c0.666992 -2 1.33398 -4.33301 2.00098 -7c0.666992 -2 1.33398 -4.66699 2.00098 -8s1 -6.66602 1 -9.99902c0 -22.667 -8.83301 -41.667 -26.5 -57s-45.5 -23 -83.5 -23s-65.833 7.66699 -83.5 23s-26.5 34.333 -26.5 57c0 6.66699 0.666992 12.667 2 18
c0.666992 2.66699 1.66699 5 3 7h65c-1.33301 -3.33301 -2.33301 -6.66602 -3 -9.99902s-1.16699 -7 -1.5 -11s-0.5 -8.66699 -0.5 -14c0 -17.333 4.33301 -30.833 13 -40.5s19.334 -14.5 32.001 -14.5z" />
    <glyph glyph-name="abreve" unicode="&#x103;" horiz-adv-x="465" 
d="M300 245c-58 0 -100.833 -12.832 -128.5 -38.499s-41.5 -61.167 -41.5 -106.5c0 -30 7.33301 -53.333 22 -70s30.667 -25 48 -25c16 0 30.167 4.66699 42.5 14s22.833 19.666 31.5 30.999c10 12.667 18.667 27.667 26 45v150zM225 460.001
c-20 0 -36.6689 -6.83496 -50.002 -20.502s-20 -31.834 -20 -54.501c0 -5.33301 0.166992 -10 0.5 -14s0.833008 -7.66699 1.5 -11s1.66699 -6.66602 3 -9.99902l-80 -20c-1.33301 2 -2.33301 4.66699 -3 8s-1.16699 7 -1.5 11s-0.5 9.33301 -0.5 16
c0 14 3.33301 27.5 10 40.5s16.5 24.667 29.5 35s28.667 18.666 47 24.999s39.5 9.5 63.5 9.5c48 0 85.833 -13.667 113.5 -41s41.5 -63.666 41.5 -108.999v-300l60 -15v-10h-140v60c-7.33301 -14 -16.666 -26.667 -27.999 -38
c-9.33301 -9.33301 -21.166 -17.833 -35.499 -25.5s-31.5 -11.5 -51.5 -11.5c-48 0 -84.167 11.333 -108.5 34s-36.5 53 -36.5 91c0 18.667 5.16699 37.334 15.5 56.001s26 35.334 47 50.001s47.833 26.5 80.5 35.5s71.667 13.5 117 13.5v60c0 50 -7.5 85 -22.5 105
s-32.5 30 -52.5 30zM229.998 535.999c12.667 0 23.3311 4.83105 31.998 14.498s13 23.167 13 40.5c0 5.33301 -0.333008 10 -1 14s-1.33398 7.66699 -2.00098 11l-2 10h65c0.666992 -2 1.33398 -4.33301 2.00098 -7c0.666992 -2 1.33398 -4.66699 2.00098 -8
s1 -6.66602 1 -9.99902c0 -22.667 -8.83301 -41.667 -26.5 -57s-45.5 -23 -83.5 -23s-65.833 7.66699 -83.5 23s-26.5 34.333 -26.5 57c0 6.66699 0.666992 12.667 2 18c0.666992 2.66699 1.66699 5 3 7h65c-1.33301 -3.33301 -2.33301 -6.66602 -3 -9.99902
s-1.16699 -7 -1.5 -11s-0.5 -8.66699 -0.5 -14c0 -17.333 4.33301 -30.833 13 -40.5s19.334 -14.5 32.001 -14.5z" />
    <glyph glyph-name="Aogonek" unicode="&#x104;" horiz-adv-x="520" 
d="M335 205h-205l-50 -170l65 -25v-10h-150v10l65 25l195 680h15l210 -690l60 -15v-10h-210v10l60 15zM135 224h194l-100 331zM395 -85c0 13.333 5.33105 25.335 15.998 36.002s22.667 19.667 36 27c15.333 8 33 15.333 53 22h40c-17.333 -8 -32.333 -16.667 -45 -26
c-11.333 -8 -21.666 -17 -30.999 -27s-14 -20.667 -14 -32c0 -10 3.5 -18.333 10.5 -25s16.833 -10 29.5 -10c6 0 11.833 1.16699 17.5 3.5s10.5 5.16602 14.5 8.49902c4.66699 3.33301 9 7.66602 13 12.999v-25c-4 -4 -9.33301 -7.33301 -16 -10
c-5.33301 -2.66699 -12 -5 -20 -7s-17.667 -3 -29 -3c-25.333 0 -44.166 5.33301 -56.499 16s-18.5 23.667 -18.5 39z" />
    <glyph glyph-name="aogonek" unicode="&#x105;" horiz-adv-x="465" 
d="M300 245c-58 0 -100.833 -12.832 -128.5 -38.499s-41.5 -61.167 -41.5 -106.5c0 -30 7.33301 -53.333 22 -70s30.667 -25 48 -25c16 0 30.167 4.66699 42.5 14s22.833 19.666 31.5 30.999c10 12.667 18.667 27.667 26 45v150zM225 460.001
c-20 0 -36.6689 -6.83496 -50.002 -20.502s-20 -31.834 -20 -54.501c0 -5.33301 0.166992 -10 0.5 -14s0.833008 -7.66699 1.5 -11s1.66699 -6.66602 3 -9.99902l-80 -20c-1.33301 2 -2.33301 4.66699 -3 8s-1.16699 7 -1.5 11s-0.5 9.33301 -0.5 16
c0 14 3.33301 27.5 10 40.5s16.5 24.667 29.5 35s28.667 18.666 47 24.999s39.5 9.5 63.5 9.5c48 0 85.833 -13.667 113.5 -41s41.5 -63.666 41.5 -108.999v-300l60 -15v-10h-140v60c-7.33301 -14 -16.666 -26.667 -27.999 -38
c-9.33301 -9.33301 -21.166 -17.833 -35.499 -25.5s-31.5 -11.5 -51.5 -11.5c-48 0 -84.167 11.333 -108.5 34s-36.5 53 -36.5 91c0 18.667 5.16699 37.334 15.5 56.001s26 35.334 47 50.001s47.833 26.5 80.5 35.5s71.667 13.5 117 13.5v60c0 50 -7.5 85 -22.5 105
s-32.5 30 -52.5 30zM294.998 -85.001c0 13.333 5.33105 25.335 15.998 36.002s22.667 19.667 36 27c15.333 8 33 15.333 53 22h40c-17.333 -8 -32.333 -16.667 -45 -26c-11.333 -8 -21.666 -17 -30.999 -27s-14 -20.667 -14 -32c0 -10 3.5 -18.333 10.5 -25
s16.833 -10 29.5 -10c6 0 11.833 1.16699 17.5 3.5s10.5 5.16602 14.5 8.49902c4.66699 3.33301 9 7.66602 13 12.999v-25c-4 -4 -9.33301 -7.33301 -16 -10c-5.33301 -2.66699 -12 -5 -20 -7s-17.667 -3 -29 -3c-25.333 0 -44.166 5.33301 -56.499 16
s-18.5 23.667 -18.5 39z" />
    <glyph glyph-name="Cacute" unicode="&#x106;" horiz-adv-x="490" 
d="M285 695c-18.667 0 -37.001 -5.33984 -55.001 -16.0068s-34 -29.167 -48 -55.5s-25.333 -61.666 -34 -105.999s-13 -100.166 -13 -167.499s4.33301 -123.166 13 -167.499s20.334 -79.666 35.001 -105.999s31.667 -44.833 51 -55.5s39.666 -16 60.999 -16
c17.333 0 35 4.66699 53 14s34.5 22.333 49.5 39s27.667 36.334 38 59.001s16.833 47 19.5 73h15c-2.66699 -30 -9.33398 -57.5 -20.001 -82.5s-24.167 -46.667 -40.5 -65s-35.166 -32.5 -56.499 -42.5s-44 -15 -68 -15c-31.333 0 -61.666 7.5 -90.999 22.5
s-55.5 37.667 -78.5 68s-41.333 68.333 -55 114s-20.5 99.167 -20.5 160.5s6.83301 114.833 20.5 160.5s31.667 83.667 54 114s47.5 53 75.5 68s56.333 22.5 85 22.5c16 0 30.5 -2.66699 43.5 -8s24.167 -11.333 33.5 -18c10.667 -7.33301 20 -15.666 28 -24.999
c5.33301 10 12.5 19.5 21.5 28.5s18.5 14.833 28.5 17.5h15c-1.33301 -10 -2.33301 -20 -3 -30c-0.666992 -9.33301 -1.16699 -19.166 -1.5 -29.499s-0.5 -20.5 -0.5 -30.5c0 -11.333 0.166992 -22.5 0.5 -33.5s0.833008 -21.167 1.5 -30.5
c0.666992 -10.667 1.66699 -21 3 -31h-15c-15.333 55.333 -35.833 97.5 -61.5 126.5s-53.5 43.5 -83.5 43.5zM279.999 874.993h90l-100 -120h-30z" />
    <glyph glyph-name="cacute" unicode="&#x107;" horiz-adv-x="430" 
d="M240 455c-12.667 0 -25.168 -3.83398 -37.501 -11.501s-23.5 -20.167 -33.5 -37.5s-18.167 -40.333 -24.5 -69s-9.5 -64.334 -9.5 -107.001s3.16699 -78.334 9.5 -107.001s14.833 -51.834 25.5 -69.501s22.834 -30.167 36.501 -37.5s28.167 -11 43.5 -11
c17.333 0 33.666 3.33301 48.999 10s29 15.667 41 27s21.833 25 29.5 41s12.834 33.333 15.501 52h15c-2.66699 -21.333 -8.5 -41.166 -17.5 -59.499s-20.5 -34.166 -34.5 -47.499s-30.167 -23.833 -48.5 -31.5s-38.166 -11.5 -59.499 -11.5c-26 0 -50.833 5.5 -74.5 16.5
s-44.5 27 -62.5 48s-32.167 46.667 -42.5 77s-15.5 64.833 -15.5 103.5s5.16699 73.167 15.5 103.5s24.166 56 41.499 77s37 37 59 48s45 16.5 69 16.5c16 0 30.167 -2.66699 42.5 -8s22.833 -11 31.5 -17c10 -7.33301 18.667 -15.666 26 -24.999
c2.66699 10 8.16699 19.333 16.5 28s16.166 14.334 23.499 17.001h15c-1.33301 -8.66699 -2.33301 -17.667 -3 -27c-0.666992 -8 -1.16699 -16.667 -1.5 -26s-0.5 -18.333 -0.5 -27c0 -10 0.166992 -20.167 0.5 -30.5s0.833008 -19.5 1.5 -27.5
c0.666992 -9.33301 1.66699 -18.333 3 -27h-15c-12.667 48 -31.167 85 -55.5 111s-49.166 39 -74.499 39zM239.999 635.999h90l-100 -120h-30z" />
    <glyph glyph-name="Ccaron" unicode="&#x10c;" horiz-adv-x="490" 
d="M285 695c-18.667 0 -37.001 -5.33984 -55.001 -16.0068s-34 -29.167 -48 -55.5s-25.333 -61.666 -34 -105.999s-13 -100.166 -13 -167.499s4.33301 -123.166 13 -167.499s20.334 -79.666 35.001 -105.999s31.667 -44.833 51 -55.5s39.666 -16 60.999 -16
c17.333 0 35 4.66699 53 14s34.5 22.333 49.5 39s27.667 36.334 38 59.001s16.833 47 19.5 73h15c-2.66699 -30 -9.33398 -57.5 -20.001 -82.5s-24.167 -46.667 -40.5 -65s-35.166 -32.5 -56.499 -42.5s-44 -15 -68 -15c-31.333 0 -61.666 7.5 -90.999 22.5
s-55.5 37.667 -78.5 68s-41.333 68.333 -55 114s-20.5 99.167 -20.5 160.5s6.83301 114.833 20.5 160.5s31.667 83.667 54 114s47.5 53 75.5 68s56.333 22.5 85 22.5c16 0 30.5 -2.66699 43.5 -8s24.167 -11.333 33.5 -18c10.667 -7.33301 20 -15.666 28 -24.999
c5.33301 10 12.5 19.5 21.5 28.5s18.5 14.833 28.5 17.5h15c-1.33301 -10 -2.33301 -20 -3 -30c-0.666992 -9.33301 -1.16699 -19.166 -1.5 -29.499s-0.5 -20.5 -0.5 -30.5c0 -11.333 0.166992 -22.5 0.5 -33.5s0.833008 -21.167 1.5 -30.5
c0.666992 -10.667 1.66699 -21 3 -31h-15c-15.333 55.333 -35.833 97.5 -61.5 126.5s-53.5 43.5 -83.5 43.5zM269.999 819.993l90 60h25l-115 -130l-115 130h25z" />
    <glyph glyph-name="ccaron" unicode="&#x10d;" horiz-adv-x="430" 
d="M240 455c-12.667 0 -25.168 -3.83398 -37.501 -11.501s-23.5 -20.167 -33.5 -37.5s-18.167 -40.333 -24.5 -69s-9.5 -64.334 -9.5 -107.001s3.16699 -78.334 9.5 -107.001s14.833 -51.834 25.5 -69.501s22.834 -30.167 36.501 -37.5s28.167 -11 43.5 -11
c17.333 0 33.666 3.33301 48.999 10s29 15.667 41 27s21.833 25 29.5 41s12.834 33.333 15.501 52h15c-2.66699 -21.333 -8.5 -41.166 -17.5 -59.499s-20.5 -34.166 -34.5 -47.499s-30.167 -23.833 -48.5 -31.5s-38.166 -11.5 -59.499 -11.5c-26 0 -50.833 5.5 -74.5 16.5
s-44.5 27 -62.5 48s-32.167 46.667 -42.5 77s-15.5 64.833 -15.5 103.5s5.16699 73.167 15.5 103.5s24.166 56 41.499 77s37 37 59 48s45 16.5 69 16.5c16 0 30.167 -2.66699 42.5 -8s22.833 -11 31.5 -17c10 -7.33301 18.667 -15.666 26 -24.999
c2.66699 10 8.16699 19.333 16.5 28s16.166 14.334 23.499 17.001h15c-1.33301 -8.66699 -2.33301 -17.667 -3 -27c-0.666992 -8 -1.16699 -16.667 -1.5 -26s-0.5 -18.333 -0.5 -27c0 -10 0.166992 -20.167 0.5 -30.5s0.833008 -19.5 1.5 -27.5
c0.666992 -9.33301 1.66699 -18.333 3 -27h-15c-12.667 48 -31.167 85 -55.5 111s-49.166 39 -74.499 39zM224.999 580.999l90 60h25l-115 -130l-115 130h25z" />
    <glyph glyph-name="Dcaron" unicode="&#x10e;" horiz-adv-x="560" 
d="M220 700c44 0 84.5 -8.00098 121.5 -24.001s69.167 -39 96.5 -69s48.666 -66.667 63.999 -110s23 -92.333 23 -147c0 -55.333 -7.66699 -104.666 -23 -147.999s-36.666 -80 -63.999 -110s-59.5 -52.833 -96.5 -68.5s-77.5 -23.5 -121.5 -23.5h-175v10l60 15v650l-60 15
v10h175zM190 679.999v-660.004h30c28.667 0 55.834 6.16699 81.501 18.5s48 31.833 67 58.5s34 60.834 45 102.501s16.5 91.834 16.5 150.501s-5.5 108.834 -16.5 150.501s-26 75.834 -45 102.501s-41.333 46.167 -67 58.5s-52.834 18.5 -81.501 18.5h-30zM250 818.995
l90 60h25l-115 -130l-115 130h25z" />
    <glyph glyph-name="dcaron" unicode="&#x10f;" horiz-adv-x="585" 
d="M240 455c-14 0 -27.501 -3.82812 -40.501 -11.4951s-24.667 -20.167 -35 -37.5s-18.666 -40.333 -24.999 -69s-9.5 -64.334 -9.5 -107.001s3.16699 -78.334 9.5 -107.001s14.333 -51.834 24 -69.501s20.334 -30.167 32.001 -37.5s23.167 -11 34.5 -11
c16 0 30.167 4.66699 42.5 14s22.833 19.666 31.5 30.999c10 12.667 18.667 27.667 26 45v300c-6.66699 11.333 -14.334 21.333 -23.001 30c-7.33301 7.33301 -16.5 14.166 -27.5 20.499s-24.167 9.5 -39.5 9.5zM409.999 25.0049l59.998 -15.001v-10h-140v60
c-7.33301 -14 -16.666 -26.667 -27.999 -38c-9.33301 -9.33301 -21.166 -17.833 -35.499 -25.5s-31.5 -11.5 -51.5 -11.5c-21.333 0 -42.5 5.5 -63.5 16.5s-39.667 27 -56 48s-29.666 46.667 -39.999 77s-15.5 64.833 -15.5 103.5s5.16699 73.167 15.5 103.5
s24.166 56 41.499 77s37 37 59 48s45 16.5 69 16.5c18.667 0 34.667 -2.66699 48 -8s24.333 -11 33 -17c10 -7.33301 18 -15.666 24 -24.999v250l-60 15v10h140v-675zM514.997 700.004c15.333 0 27.501 -5.66699 36.501 -17s13.5 -25.666 13.5 -42.999
c0 -26.667 -4 -48.334 -12 -65.001s-16.667 -29.667 -26 -39c-11.333 -11.333 -23.666 -20 -36.999 -26l-10 15c10 5.33301 19 11.666 27 18.999c7.33301 6 13.833 12.833 19.5 20.5s8.5 16.167 8.5 25.5c0 2.66699 -0.333008 5.16699 -1 7.5s-1.33398 4.5 -2.00098 6.5
c-0.666992 2.66699 -1.33398 4.66699 -2.00098 6c-2 -1.33301 -4.33301 -2.33301 -7 -3c-5.33301 -1.33301 -9.66602 -2 -12.999 -2c-12.667 0 -23.334 4.33301 -32.001 13s-13 19.334 -13 32.001c0 15.333 4.5 27.5 13.5 36.5s21.167 13.5 36.5 13.5z" />
    <glyph glyph-name="Dcroat" unicode="&#x110;" horiz-adv-x="560" 
d="M220 700c44 0 84.5 -8.00098 121.5 -24.001s69.167 -39 96.5 -69s48.666 -66.667 63.999 -110s23 -92.333 23 -147c0 -55.333 -7.66699 -104.666 -23 -147.999s-36.666 -80 -63.999 -110s-59.5 -52.833 -96.5 -68.5s-77.5 -23.5 -121.5 -23.5h-175v10l60 15v315h-60v20
h60v315l-60 15v10h175zM190 19.999l30 -0.00390625c28.667 0 55.834 6.16699 81.501 18.5s48 31.833 67 58.5s34 60.834 45 102.501s16.5 91.834 16.5 150.501s-5.5 108.834 -16.5 150.501s-26 75.834 -45 102.501s-41.333 46.167 -67 58.5s-52.834 18.5 -81.501 18.5h-30
v-320h140v-20h-140v-320z" />
    <glyph glyph-name="dcroat" unicode="&#x111;" horiz-adv-x="500" 
d="M410 580l59.998 -0.000976562v-20h-60v-535l60 -15v-10h-140v60c-7.33301 -14 -16.666 -26.667 -27.999 -38c-9.33301 -9.33301 -21.166 -17.833 -35.499 -25.5s-31.5 -11.5 -51.5 -11.5c-21.333 0 -42.5 5.5 -63.5 16.5s-39.667 27 -56 48s-29.666 46.667 -39.999 77
s-15.5 64.833 -15.5 103.5s5.16699 73.167 15.5 103.5s24.166 56 41.499 77s37 37 59 48s45 16.5 69 16.5c18.667 0 34.667 -2.66699 48 -8s24.333 -11 33 -17c10 -7.33301 18 -15.666 24 -24.999v135h-140v20h140v95l-60 15v10h140v-120zM239.998 454.999
c-14 0 -27.501 -3.82812 -40.501 -11.4951s-24.667 -20.167 -35 -37.5s-18.666 -40.333 -24.999 -69s-9.5 -64.334 -9.5 -107.001s3.16699 -78.334 9.5 -107.001s14.333 -51.834 24 -69.501s20.334 -30.167 32.001 -37.5s23.167 -11 34.5 -11c16 0 30.167 4.66699 42.5 14
s22.833 19.666 31.5 30.999c10 12.667 18.667 27.667 26 45v300c-6.66699 11.333 -14.334 21.333 -23.001 30c-7.33301 7.33301 -16.5 14.166 -27.5 20.499s-24.167 9.5 -39.5 9.5z" />
    <glyph glyph-name="Emacron" unicode="&#x112;" 
d="M390 20c0 28 5.66699 54.002 17 78.002s25.666 44.667 42.999 62h10c-1.33301 -8.66699 -2.33301 -17.667 -3 -27c-0.666992 -8 -1.16699 -16.667 -1.5 -26s-0.5 -18.333 -0.5 -27c0 -12.667 0.166992 -23.834 0.5 -33.501s0.833008 -18.167 1.5 -25.5
c0.666992 -8 1.66699 -15 3 -21h-415v10l60 15v650l-60 15v10h405c-1.33301 -6 -2.33301 -13 -3 -21c-0.666992 -7.33301 -1.16699 -15.833 -1.5 -25.5s-0.5 -20.834 -0.5 -33.501c0 -9.33301 0.166992 -18.5 0.5 -27.5s0.833008 -17.5 1.5 -25.5
c0.666992 -9.33301 1.66699 -18.333 3 -27h-10c-17.333 17.333 -31.666 38 -42.999 62s-17 50 -17 78h-190v-300h95l45 90h10v-200h-10l-45 90h-95v-340h200zM387 825.002v-40h-230v40h230z" />
    <glyph glyph-name="emacron" unicode="&#x113;" horiz-adv-x="445" 
d="M135 230c0 -42.667 3.16797 -78.334 9.50098 -107.001s14.666 -51.834 24.999 -69.501s22 -30.167 35 -37.5s26.5 -11 40.5 -11c17.333 0 33.666 3.33301 48.999 10s29 15.667 41 27s21.833 25 29.5 41s12.834 33.333 15.501 52h15
c-2.66699 -21.333 -8.5 -41.166 -17.5 -59.499s-20.5 -34.166 -34.5 -47.499s-30.167 -23.833 -48.5 -31.5s-38.166 -11.5 -59.499 -11.5c-25.333 0 -49.333 5.5 -72 16.5s-42.834 27 -60.501 48s-31.667 46.667 -42 77s-15.5 64.833 -15.5 103.5c0 40 5 75.333 15 106
s23.167 56.167 39.5 76.5s35.333 35.833 57 46.5s44.5 16 68.5 16s46.833 -5.33301 68.5 -16s40.667 -26.167 57 -46.5s29.5 -45.833 39.5 -76.5s15 -66 15 -106h-270zM225.001 460c-10 0 -19.998 -3.16699 -29.998 -9.5s-19.333 -17.5 -28 -33.5
s-15.834 -37.5 -21.501 -64.5s-9.16699 -61.167 -10.5 -102.5h180c-1.33301 41.333 -4.83301 75.5 -10.5 102.5s-12.834 48.5 -21.501 64.5s-18 27.167 -28 33.5s-20 9.5 -30 9.5zM347.003 581v-40h-230v40h230z" />
    <glyph glyph-name="Edotaccent" unicode="&#x116;" 
d="M390 20c0 28 5.66699 54.002 17 78.002s25.666 44.667 42.999 62h10c-1.33301 -8.66699 -2.33301 -17.667 -3 -27c-0.666992 -8 -1.16699 -16.667 -1.5 -26s-0.5 -18.333 -0.5 -27c0 -12.667 0.166992 -23.834 0.5 -33.501s0.833008 -18.167 1.5 -25.5
c0.666992 -8 1.66699 -15 3 -21h-415v10l60 15v650l-60 15v10h405c-1.33301 -6 -2.33301 -13 -3 -21c-0.666992 -7.33301 -1.16699 -15.833 -1.5 -25.5s-0.5 -20.834 -0.5 -33.501c0 -9.33301 0.166992 -18.5 0.5 -27.5s0.833008 -17.5 1.5 -25.5
c0.666992 -9.33301 1.66699 -18.333 3 -27h-10c-17.333 17.333 -31.666 38 -42.999 62s-17 50 -17 78h-190v-300h95l45 90h10v-200h-10l-45 90h-95v-340h200zM332 805.002c0 -12.667 -5.16699 -24.167 -15.5 -34.5s-21.833 -15.5 -34.5 -15.5s-24.167 5.16699 -34.5 15.5
s-15.5 21.833 -15.5 34.5s5.16699 24.167 15.5 34.5s21.833 15.5 34.5 15.5s24.167 -5.16699 34.5 -15.5s15.5 -21.833 15.5 -34.5z" />
    <glyph glyph-name="edotaccent" unicode="&#x117;" horiz-adv-x="445" 
d="M135 230c0 -42.667 3.16797 -78.334 9.50098 -107.001s14.666 -51.834 24.999 -69.501s22 -30.167 35 -37.5s26.5 -11 40.5 -11c17.333 0 33.666 3.33301 48.999 10s29 15.667 41 27s21.833 25 29.5 41s12.834 33.333 15.501 52h15
c-2.66699 -21.333 -8.5 -41.166 -17.5 -59.499s-20.5 -34.166 -34.5 -47.499s-30.167 -23.833 -48.5 -31.5s-38.166 -11.5 -59.499 -11.5c-25.333 0 -49.333 5.5 -72 16.5s-42.834 27 -60.501 48s-31.667 46.667 -42 77s-15.5 64.833 -15.5 103.5c0 40 5 75.333 15 106
s23.167 56.167 39.5 76.5s35.333 35.833 57 46.5s44.5 16 68.5 16s46.833 -5.33301 68.5 -16s40.667 -26.167 57 -46.5s29.5 -45.833 39.5 -76.5s15 -66 15 -106h-270zM225.001 460c-10 0 -19.998 -3.16699 -29.998 -9.5s-19.333 -17.5 -28 -33.5
s-15.834 -37.5 -21.501 -64.5s-9.16699 -61.167 -10.5 -102.5h180c-1.33301 41.333 -4.83301 75.5 -10.5 102.5s-12.834 48.5 -21.501 64.5s-18 27.167 -28 33.5s-20 9.5 -30 9.5zM282.003 581c0 -12.667 -5.16699 -24.167 -15.5 -34.5s-21.833 -15.5 -34.5 -15.5
s-24.167 5.16699 -34.5 15.5s-15.5 21.833 -15.5 34.5s5.16699 24.167 15.5 34.5s21.833 15.5 34.5 15.5s24.167 -5.16699 34.5 -15.5s15.5 -21.833 15.5 -34.5z" />
    <glyph glyph-name="Eogonek" unicode="&#x118;" 
d="M390 20c0 28 5.66699 54.002 17 78.002s25.666 44.667 42.999 62h10c-1.33301 -8.66699 -2.33301 -17.667 -3 -27c-0.666992 -8 -1.16699 -16.667 -1.5 -26s-0.5 -18.333 -0.5 -27c0 -12.667 0.166992 -23.834 0.5 -33.501s0.833008 -18.167 1.5 -25.5
c0.666992 -8 1.66699 -15 3 -21h-415v10l60 15v650l-60 15v10h405c-1.33301 -6 -2.33301 -13 -3 -21c-0.666992 -7.33301 -1.16699 -15.833 -1.5 -25.5s-0.5 -20.834 -0.5 -33.501c0 -9.33301 0.166992 -18.5 0.5 -27.5s0.833008 -17.5 1.5 -25.5
c0.666992 -9.33301 1.66699 -18.333 3 -27h-10c-17.333 17.333 -31.666 38 -42.999 62s-17 50 -17 78h-190v-300h95l45 90h10v-200h-10l-45 90h-95v-340h200zM195 -84.998c0 13.333 5.33105 25.335 15.998 36.002s22.667 19.667 36 27c15.333 8 33 15.333 53 22h40
c-17.333 -8 -32.333 -16.667 -45 -26c-11.333 -8 -21.666 -17 -30.999 -27s-14 -20.667 -14 -32c0 -10 3.5 -18.333 10.5 -25s16.833 -10 29.5 -10c6 0 11.833 1.16699 17.5 3.5s10.5 5.16602 14.5 8.49902c4.66699 3.33301 9 7.66602 13 12.999v-25
c-4 -4 -9.33301 -7.33301 -16 -10c-5.33301 -2.66699 -12 -5 -20 -7s-17.667 -3 -29 -3c-25.333 0 -44.166 5.33301 -56.499 16s-18.5 23.667 -18.5 39z" />
    <glyph glyph-name="eogonek" unicode="&#x119;" horiz-adv-x="445" 
d="M135 230c0 -42.667 3.16797 -78.334 9.50098 -107.001s14.666 -51.834 24.999 -69.501s22 -30.167 35 -37.5s26.5 -11 40.5 -11c17.333 0 33.666 3.33301 48.999 10s29 15.667 41 27s21.833 25 29.5 41s12.834 33.333 15.501 52h15
c-2.66699 -21.333 -8.5 -41.166 -17.5 -59.499s-20.5 -34.166 -34.5 -47.499s-30.167 -23.833 -48.5 -31.5s-38.166 -11.5 -59.499 -11.5c-25.333 0 -49.333 5.5 -72 16.5s-42.834 27 -60.501 48s-31.667 46.667 -42 77s-15.5 64.833 -15.5 103.5c0 40 5 75.333 15 106
s23.167 56.167 39.5 76.5s35.333 35.833 57 46.5s44.5 16 68.5 16s46.833 -5.33301 68.5 -16s40.667 -26.167 57 -46.5s29.5 -45.833 39.5 -76.5s15 -66 15 -106h-270zM225.001 460c-10 0 -19.998 -3.16699 -29.998 -9.5s-19.333 -17.5 -28 -33.5
s-15.834 -37.5 -21.501 -64.5s-9.16699 -61.167 -10.5 -102.5h180c-1.33301 41.333 -4.83301 75.5 -10.5 102.5s-12.834 48.5 -21.501 64.5s-18 27.167 -28 33.5s-20 9.5 -30 9.5zM155.003 -85c0 13.333 5.33105 25.335 15.998 36.002s22.667 19.667 36 27
c15.333 8 33 15.333 53 22h40c-17.333 -8 -32.333 -16.667 -45 -26c-11.333 -8 -21.666 -17 -30.999 -27s-14 -20.667 -14 -32c0 -10 3.5 -18.333 10.5 -25s16.833 -10 29.5 -10c6 0 11.833 1.16699 17.5 3.5s10.5 5.16602 14.5 8.49902
c4.66699 3.33301 9 7.66602 13 12.999v-25c-4 -4 -9.33301 -7.33301 -16 -10c-5.33301 -2.66699 -12 -5 -20 -7s-17.667 -3 -29 -3c-25.333 0 -44.166 5.33301 -56.499 16s-18.5 23.667 -18.5 39z" />
    <glyph glyph-name="Ecaron" unicode="&#x11a;" 
d="M390 20c0 28 5.66699 54.002 17 78.002s25.666 44.667 42.999 62h10c-1.33301 -8.66699 -2.33301 -17.667 -3 -27c-0.666992 -8 -1.16699 -16.667 -1.5 -26s-0.5 -18.333 -0.5 -27c0 -12.667 0.166992 -23.834 0.5 -33.501s0.833008 -18.167 1.5 -25.5
c0.666992 -8 1.66699 -15 3 -21h-415v10l60 15v650l-60 15v10h405c-1.33301 -6 -2.33301 -13 -3 -21c-0.666992 -7.33301 -1.16699 -15.833 -1.5 -25.5s-0.5 -20.834 -0.5 -33.501c0 -9.33301 0.166992 -18.5 0.5 -27.5s0.833008 -17.5 1.5 -25.5
c0.666992 -9.33301 1.66699 -18.333 3 -27h-10c-17.333 17.333 -31.666 38 -42.999 62s-17 50 -17 78h-190v-300h95l45 90h10v-200h-10l-45 90h-95v-340h200zM275 820.002l90 60h25l-115 -130l-115 130h25z" />
    <glyph glyph-name="ecaron" unicode="&#x11b;" horiz-adv-x="445" 
d="M135 230c0 -42.667 3.16797 -78.334 9.50098 -107.001s14.666 -51.834 24.999 -69.501s22 -30.167 35 -37.5s26.5 -11 40.5 -11c17.333 0 33.666 3.33301 48.999 10s29 15.667 41 27s21.833 25 29.5 41s12.834 33.333 15.501 52h15
c-2.66699 -21.333 -8.5 -41.166 -17.5 -59.499s-20.5 -34.166 -34.5 -47.499s-30.167 -23.833 -48.5 -31.5s-38.166 -11.5 -59.499 -11.5c-25.333 0 -49.333 5.5 -72 16.5s-42.834 27 -60.501 48s-31.667 46.667 -42 77s-15.5 64.833 -15.5 103.5c0 40 5 75.333 15 106
s23.167 56.167 39.5 76.5s35.333 35.833 57 46.5s44.5 16 68.5 16s46.833 -5.33301 68.5 -16s40.667 -26.167 57 -46.5s29.5 -45.833 39.5 -76.5s15 -66 15 -106h-270zM225.001 460c-10 0 -19.998 -3.16699 -29.998 -9.5s-19.333 -17.5 -28 -33.5
s-15.834 -37.5 -21.501 -64.5s-9.16699 -61.167 -10.5 -102.5h180c-1.33301 41.333 -4.83301 75.5 -10.5 102.5s-12.834 48.5 -21.501 64.5s-18 27.167 -28 33.5s-20 9.5 -30 9.5zM232.003 581l90 60h25l-115 -130l-115 130h25z" />
    <glyph glyph-name="Gbreve" unicode="&#x11e;" horiz-adv-x="525" 
d="M395 320l-100.001 -0.00195312v20h185v-75c0 -45.333 -5.83301 -85.333 -17.5 -120s-27 -63.834 -46 -87.501s-40.833 -41.667 -65.5 -54s-50 -18.5 -76 -18.5c-27.333 0 -54.666 7.5 -81.999 22.5s-52 37.667 -74 68s-39.833 68.333 -53.5 114s-20.5 99.167 -20.5 160.5
s6.83301 114.833 20.5 160.5s31.667 83.667 54 114s47.5 53 75.5 68s56.333 22.5 85 22.5c16 0 30.5 -2.66699 43.5 -8s24.167 -11 33.5 -17c10.667 -7.33301 20 -15.666 28 -24.999c5.33301 10 12.5 19.333 21.5 28s18.5 14.334 28.5 17.001h15
c-1.33301 -10 -2.33301 -20 -3 -30c-0.666992 -9.33301 -1.16699 -19.166 -1.5 -29.499s-0.5 -20.5 -0.5 -30.5c0 -11.333 0.166992 -22.5 0.5 -33.5s0.833008 -21.167 1.5 -30.5c0.666992 -10.667 1.66699 -21 3 -31h-15c-15.333 55.333 -35.833 97.5 -61.5 126.5
s-53.5 43.5 -83.5 43.5c-18.667 0 -37 -5.33301 -55 -16s-34 -29.167 -48 -55.5s-25.333 -61.666 -34 -105.999s-13 -100.166 -13 -167.499c0 -68.667 4.16699 -125.5 12.5 -170.5s19.166 -80.833 32.499 -107.5s27.833 -45.334 43.5 -56.001s31.167 -16 46.5 -16
c14.667 0 29.334 4.16699 44.001 12.5s27.5 22.666 38.5 42.999s20 47.5 27 81.5s10.5 76.667 10.5 128v55zM271.999 774.998c12.667 0 23.3311 4.83105 31.998 14.498s13 23.167 13 40.5c0 5.33301 -0.333008 10 -1 14s-1.33398 7.66699 -2.00098 11l-2 10h65
c0.666992 -2 1.33398 -4.33301 2.00098 -7c0.666992 -2 1.33398 -4.66699 2.00098 -8s1 -6.66602 1 -9.99902c0 -22.667 -8.83301 -41.667 -26.5 -57s-45.5 -23 -83.5 -23s-65.833 7.66699 -83.5 23s-26.5 34.333 -26.5 57c0 6.66699 0.666992 12.667 2 18
c0.666992 2.66699 1.66699 5 3 7h65c-1.33301 -3.33301 -2.33301 -6.66602 -3 -9.99902s-1.16699 -7 -1.5 -11s-0.5 -8.66699 -0.5 -14c0 -17.333 4.33301 -30.833 13 -40.5s19.334 -14.5 32.001 -14.5z" />
    <glyph glyph-name="gbreve" unicode="&#x11f;" horiz-adv-x="485" 
d="M220 150c11.333 0 22.333 2.83301 33 8.5s20.334 14.834 29.001 27.501s15.5 28.834 20.5 48.501s7.5 43.167 7.5 70.5s-2.5 50.833 -7.5 70.5s-11.833 35.667 -20.5 48s-18.334 21.5 -29.001 27.5s-21.667 9 -33 9s-22.333 -3 -33 -9s-20.334 -15.167 -29.001 -27.5
s-15.5 -28.333 -20.5 -48s-7.5 -43.167 -7.5 -70.5s2.5 -50.833 7.5 -70.5s11.833 -35.834 20.5 -48.501s18.334 -21.834 29.001 -27.501s21.667 -8.5 33 -8.5zM240 -236c24.667 0 47 3.50098 67 10.501s36.833 16.5 50.5 28.5s24.167 26 31.5 42s11 32.667 11 50
c0 63.333 -31.667 95 -95 95h-160c-38 0 -65.833 7.66699 -83.5 23s-26.5 34.333 -26.5 57c0 15.333 3.83301 28.833 11.5 40.5s16.167 22.167 25.5 31.5c11.333 10 24 19.333 38 28c-13.333 8.66699 -25 19.334 -35 32.001c-9.33301 11.333 -17.5 25.333 -24.5 42
s-10.5 37 -10.5 61s4.5 46.333 13.5 67s21.5 38.667 37.5 54s35 27.333 57 36s46 13 72 13c11.333 0 22.333 -1 33 -3s20.334 -4.33301 29.001 -7c10 -2.66699 19.333 -6 28 -10c5.33301 7.33301 11.666 14 18.999 20c6.66699 5.33301 15 10 25 14s22 6 36 6
c22.667 0 40.5 -4.16699 53.5 -12.5s23.167 -17.5 30.5 -27.5c8 -12 13.333 -25.333 16 -40l-75 -15c-2 13.333 -5 25.666 -9 36.999c-3.33301 9.33301 -8 18 -14 26s-13.333 12 -22 12c-7.33301 0 -14 -1.66699 -20 -5s-10.667 -6.66602 -14 -9.99902
c-4.66699 -4.66699 -8.33398 -9.66699 -11.001 -15c25.333 -15.333 44.166 -35 56.499 -59s18.5 -51 18.5 -81c0 -24 -4.5 -46.333 -13.5 -67s-21.5 -38.667 -37.5 -54s-35 -27.333 -57 -36s-46 -13 -72 -13c-14 0 -26.667 1.16699 -38 3.5s-21.333 5.16602 -30 8.49902
c-10 3.33301 -19 7.66602 -27 12.999c-9.33301 -6 -17.666 -12.333 -24.999 -19c-6.66699 -5.33301 -12.5 -11.666 -17.5 -18.999s-7.5 -14.666 -7.5 -21.999c0 -10 4.66699 -18.167 14 -24.5s28 -9.5 56 -9.5h160c40 0 72.5 -12.833 97.5 -38.5s37.5 -59.834 37.5 -102.501
c0 -25.333 -4.83301 -48.833 -14.5 -70.5s-23.167 -40.667 -40.5 -57s-38.333 -29.166 -63 -38.499s-52 -14 -82 -14c-37.333 0 -69.833 4.16699 -97.5 12.5s-50.5 19.666 -68.5 33.999s-31.5 31.166 -40.5 50.499s-13.5 40.333 -13.5 63c0 8.66699 1 16.5 3 23.5
s4.33301 12.833 7 17.5c2.66699 5.33301 6 10 10 14l75 -30c-2 -4.66699 -3.66699 -9.66699 -5 -15c-3.33301 -10 -5 -20 -5 -30c0 -35.333 11.833 -64.333 35.5 -87s56.834 -34 99.501 -34zM222 541.001c12.667 0 23.3311 4.83105 31.998 14.498s13 23.167 13 40.5
c0 5.33301 -0.333008 10 -1 14s-1.33398 7.66699 -2.00098 11l-2 10h65c0.666992 -2 1.33398 -4.33301 2.00098 -7c0.666992 -2 1.33398 -4.66699 2.00098 -8s1 -6.66602 1 -9.99902c0 -22.667 -8.83301 -41.667 -26.5 -57s-45.5 -23 -83.5 -23s-65.833 7.66699 -83.5 23
s-26.5 34.333 -26.5 57c0 6.66699 0.666992 12.667 2 18c0.666992 2.66699 1.66699 5 3 7h65c-1.33301 -3.33301 -2.33301 -6.66602 -3 -9.99902s-1.16699 -7 -1.5 -11s-0.5 -8.66699 -0.5 -14c0 -17.333 4.33301 -30.833 13 -40.5s19.334 -14.5 32.001 -14.5z" />
    <glyph glyph-name="Gcommaaccent" unicode="&#x122;" horiz-adv-x="525" 
d="M395 320l-100.001 -0.00195312v20h185v-75c0 -45.333 -5.83301 -85.333 -17.5 -120s-27 -63.834 -46 -87.501s-40.833 -41.667 -65.5 -54s-50 -18.5 -76 -18.5c-27.333 0 -54.666 7.5 -81.999 22.5s-52 37.667 -74 68s-39.833 68.333 -53.5 114s-20.5 99.167 -20.5 160.5
s6.83301 114.833 20.5 160.5s31.667 83.667 54 114s47.5 53 75.5 68s56.333 22.5 85 22.5c16 0 30.5 -2.66699 43.5 -8s24.167 -11 33.5 -17c10.667 -7.33301 20 -15.666 28 -24.999c5.33301 10 12.5 19.333 21.5 28s18.5 14.334 28.5 17.001h15
c-1.33301 -10 -2.33301 -20 -3 -30c-0.666992 -9.33301 -1.16699 -19.166 -1.5 -29.499s-0.5 -20.5 -0.5 -30.5c0 -11.333 0.166992 -22.5 0.5 -33.5s0.833008 -21.167 1.5 -30.5c0.666992 -10.667 1.66699 -21 3 -31h-15c-15.333 55.333 -35.833 97.5 -61.5 126.5
s-53.5 43.5 -83.5 43.5c-18.667 0 -37 -5.33301 -55 -16s-34 -29.167 -48 -55.5s-25.333 -61.666 -34 -105.999s-13 -100.166 -13 -167.499c0 -68.667 4.16699 -125.5 12.5 -170.5s19.166 -80.833 32.499 -107.5s27.833 -45.334 43.5 -56.001s31.167 -16 46.5 -16
c14.667 0 29.334 4.16699 44.001 12.5s27.5 22.666 38.5 42.999s20 47.5 27 81.5s10.5 76.667 10.5 128v55zM281.999 -69.002c15.333 0 27.501 -5.66699 36.501 -17s13.5 -25.666 13.5 -42.999c0 -26.667 -4 -48.334 -12 -65.001s-16.667 -29.667 -26 -39
c-11.333 -11.333 -23.666 -20 -36.999 -26l-10 15c10 5.33301 19 11.666 27 18.999c7.33301 6 13.833 12.833 19.5 20.5s8.5 16.167 8.5 25.5c0 2.66699 -0.333008 5.16699 -1 7.5s-1.33398 4.5 -2.00098 6.5c-0.666992 2.66699 -1.33398 4.66699 -2.00098 6
c-2 -1.33301 -4.33301 -2.33301 -7 -3c-5.33301 -1.33301 -9.66602 -2 -12.999 -2c-12.667 0 -23.334 4.33301 -32.001 13s-13 19.334 -13 32.001c0 15.333 4.5 27.5 13.5 36.5s21.167 13.5 36.5 13.5z" />
    <glyph glyph-name="gcommaaccent" unicode="&#x123;" horiz-adv-x="485" 
d="M220 150c11.333 0 22.333 2.83301 33 8.5s20.334 14.834 29.001 27.501s15.5 28.834 20.5 48.501s7.5 43.167 7.5 70.5s-2.5 50.833 -7.5 70.5s-11.833 35.667 -20.5 48s-18.334 21.5 -29.001 27.5s-21.667 9 -33 9s-22.333 -3 -33 -9s-20.334 -15.167 -29.001 -27.5
s-15.5 -28.333 -20.5 -48s-7.5 -43.167 -7.5 -70.5s2.5 -50.833 7.5 -70.5s11.833 -35.834 20.5 -48.501s18.334 -21.834 29.001 -27.501s21.667 -8.5 33 -8.5zM240 -236c24.667 0 47 3.50098 67 10.501s36.833 16.5 50.5 28.5s24.167 26 31.5 42s11 32.667 11 50
c0 63.333 -31.667 95 -95 95h-160c-38 0 -65.833 7.66699 -83.5 23s-26.5 34.333 -26.5 57c0 15.333 3.83301 28.833 11.5 40.5s16.167 22.167 25.5 31.5c11.333 10 24 19.333 38 28c-13.333 8.66699 -25 19.334 -35 32.001c-9.33301 11.333 -17.5 25.333 -24.5 42
s-10.5 37 -10.5 61s4.5 46.333 13.5 67s21.5 38.667 37.5 54s35 27.333 57 36s46 13 72 13c11.333 0 22.333 -1 33 -3s20.334 -4.33301 29.001 -7c10 -2.66699 19.333 -6 28 -10c5.33301 7.33301 11.666 14 18.999 20c6.66699 5.33301 15 10 25 14s22 6 36 6
c22.667 0 40.5 -4.16699 53.5 -12.5s23.167 -17.5 30.5 -27.5c8 -12 13.333 -25.333 16 -40l-75 -15c-2 13.333 -5 25.666 -9 36.999c-3.33301 9.33301 -8 18 -14 26s-13.333 12 -22 12c-7.33301 0 -14 -1.66699 -20 -5s-10.667 -6.66602 -14 -9.99902
c-4.66699 -4.66699 -8.33398 -9.66699 -11.001 -15c25.333 -15.333 44.166 -35 56.499 -59s18.5 -51 18.5 -81c0 -24 -4.5 -46.333 -13.5 -67s-21.5 -38.667 -37.5 -54s-35 -27.333 -57 -36s-46 -13 -72 -13c-14 0 -26.667 1.16699 -38 3.5s-21.333 5.16602 -30 8.49902
c-10 3.33301 -19 7.66602 -27 12.999c-9.33301 -6 -17.666 -12.333 -24.999 -19c-6.66699 -5.33301 -12.5 -11.666 -17.5 -18.999s-7.5 -14.666 -7.5 -21.999c0 -10 4.66699 -18.167 14 -24.5s28 -9.5 56 -9.5h160c40 0 72.5 -12.833 97.5 -38.5s37.5 -59.834 37.5 -102.501
c0 -25.333 -4.83301 -48.833 -14.5 -70.5s-23.167 -40.667 -40.5 -57s-38.333 -29.166 -63 -38.499s-52 -14 -82 -14c-37.333 0 -69.833 4.16699 -97.5 12.5s-50.5 19.666 -68.5 33.999s-31.5 31.166 -40.5 50.499s-13.5 40.333 -13.5 63c0 8.66699 1 16.5 3 23.5
s4.33301 12.833 7 17.5c2.66699 5.33301 6 10 10 14l75 -30c-2 -4.66699 -3.66699 -9.66699 -5 -15c-3.33301 -10 -5 -20 -5 -30c0 -35.333 11.833 -64.333 35.5 -87s56.834 -34 99.501 -34zM220.004 540.025c-15.333 0 -27.501 5.66797 -36.5 17.001
s-13.499 25.665 -13.499 42.9971c0 26.665 4 48.3301 11.999 64.9951c7.99902 16.666 16.665 29.665 25.998 38.998c11.333 11.333 23.666 19.999 36.999 25.998l10 -14.999c-10 -5.33301 -19 -11.666 -26.999 -18.999c-7.33301 -5.99902 -13.833 -12.832 -19.5 -20.499
c-5.66602 -7.66602 -8.49902 -16.165 -8.49902 -25.498c0 -2.66699 0.333008 -5.16699 1 -7.5s1.33398 -4.5 2.00098 -6.5c0.666992 -2.66699 1.33398 -4.66699 2.00098 -6c1.99902 1.33301 4.33203 2.33301 6.99902 3c5.33301 1.33301 9.66602 2 12.999 2
c12.666 0 23.332 -4.33301 31.998 -12.999c8.66699 -8.66602 13 -19.332 13 -31.998c0 -15.333 -4.5 -27.499 -13.5 -36.498c-8.99902 -8.99902 -21.165 -13.499 -36.4971 -13.499z" />
    <glyph glyph-name="hbar" unicode="&#x127;" horiz-adv-x="515" 
d="M175 360c6.66699 13.333 15.667 25.666 27 36.999c9.33301 9.33301 21.333 18 36 26s32 12 52 12s38.5 -3.66699 55.5 -11s31.833 -17.5 44.5 -30.5s22.5 -28.667 29.5 -47s10.5 -38.833 10.5 -61.5v-260l60 -15v-10h-195v10l55 15v260c0 47.333 -7.5 80.833 -22.5 100.5
s-32.5 29.5 -52.5 29.5c-16.667 0 -31 -4.66699 -43 -14s-22.333 -19.666 -31 -30.999c-10 -13.333 -18.667 -28.333 -26 -45v-300l55 -15v-10h-195v10l60 15v505l-60 15v15h60v115l-60 15v10h140v-140h140v-15l-140 -15v-170z" />
    <glyph glyph-name="Itilde" unicode="&#x128;" horiz-adv-x="295" 
d="M190 25l60 -15v-10h-205v10l60 15v650l-60 15v10h205v-10l-60 -15v-650zM250 860c0 -35.333 -6.5 -60.833 -19.5 -76.5s-28.167 -23.5 -45.5 -23.5c-10 0 -19 2.83301 -27 8.5s-15.5 12 -22.5 19s-13.667 13.333 -20 19s-13.166 8.5 -20.499 8.5
c-10 0 -18.333 -3.66699 -25 -11s-10 -18.666 -10 -33.999h-15c0 35.333 6.5 60.833 19.5 76.5s28.167 23.5 45.5 23.5c10 0 19 -2.83301 27 -8.5s15.5 -12 22.5 -19s13.667 -13.333 20 -19s13.166 -8.5 20.499 -8.5c10 0 18.333 3.66699 25 11s10 18.666 10 33.999h15z" />
    <glyph glyph-name="itilde" unicode="&#x129;" horiz-adv-x="260" 
d="M95 25v410l-60 15v10h140v-435l60 -15v-10h-200v10zM227 625c0 -35.333 -6.5 -60.833 -19.5 -76.5s-28.167 -23.5 -45.5 -23.5c-10 0 -19 2.83301 -27 8.5s-15.5 12 -22.5 19s-13.667 13.333 -20 19s-13.166 8.5 -20.499 8.5c-10 0 -18.333 -3.66699 -25 -11
s-10 -18.666 -10 -33.999h-15c0 35.333 6.5 60.833 19.5 76.5s28.167 23.5 45.5 23.5c10 0 19 -2.83301 27 -8.5s15.5 -12 22.5 -19s13.667 -13.333 20 -19s13.166 -8.5 20.499 -8.5c10 0 18.333 3.66699 25 11s10 18.666 10 33.999h15z" />
    <glyph glyph-name="Imacron" unicode="&#x12a;" horiz-adv-x="295" 
d="M190 25l60 -15v-10h-205v10l60 15v650l-60 15v10h205v-10l-60 -15v-650zM262 825v-40h-230v40h230z" />
    <glyph glyph-name="imacron" unicode="&#x12b;" horiz-adv-x="260" 
d="M95 25v410l-60 15v10h140v-435l60 -15v-10h-200v10zM245 591v-40h-230v40h230z" />
    <glyph glyph-name="Iogonek" unicode="&#x12e;" horiz-adv-x="295" 
d="M190 25l60 -15v-10h-205v10l60 15v650l-60 15v10h205v-10l-60 -15v-650zM75 -85c0 13.333 5.33105 25.335 15.998 36.002s22.667 19.667 36 27c15.333 8 33 15.333 53 22h40c-17.333 -8 -32.333 -16.667 -45 -26c-11.333 -8 -21.666 -17 -30.999 -27s-14 -20.667 -14 -32
c0 -10 3.5 -18.333 10.5 -25s16.833 -10 29.5 -10c6 0 11.833 1.16699 17.5 3.5s10.5 5.16602 14.5 8.49902c4.66699 3.33301 9 7.66602 13 12.999v-25c-4 -4 -9.33301 -7.33301 -16 -10c-5.33301 -2.66699 -12 -5 -20 -7s-17.667 -3 -29 -3
c-25.333 0 -44.166 5.33301 -56.499 16s-18.5 23.667 -18.5 39z" />
    <glyph glyph-name="iogonek" unicode="&#x12f;" horiz-adv-x="260" 
d="M95 25v410l-60 15v10h140v-435l60 -15v-10h-200v10zM180 575c0 -12.667 -5.16699 -24.167 -15.5 -34.5s-21.833 -15.5 -34.5 -15.5s-24.167 5.16699 -34.5 15.5s-15.5 21.833 -15.5 34.5s5.16699 24.167 15.5 34.5s21.833 15.5 34.5 15.5s24.167 -5.16699 34.5 -15.5
s15.5 -21.833 15.5 -34.5zM47 -85c0 13.333 5.33105 25.335 15.998 36.002s22.667 19.667 36 27c15.333 8 33 15.333 53 22h40c-17.333 -8 -32.333 -16.667 -45 -26c-11.333 -8 -21.666 -17 -30.999 -27s-14 -20.667 -14 -32c0 -10 3.5 -18.333 10.5 -25
s16.833 -10 29.5 -10c6 0 11.833 1.16699 17.5 3.5s10.5 5.16602 14.5 8.49902c4.66699 3.33301 9 7.66602 13 12.999v-25c-4 -4 -9.33301 -7.33301 -16 -10c-5.33301 -2.66699 -12 -5 -20 -7s-17.667 -3 -29 -3c-25.333 0 -44.166 5.33301 -56.499 16
s-18.5 23.667 -18.5 39z" />
    <glyph glyph-name="Idotaccent" unicode="&#x130;" horiz-adv-x="295" 
d="M190 25l60 -15v-10h-205v10l60 15v650l-60 15v10h205v-10l-60 -15v-650zM200 810c0 -12.667 -5.16699 -24.167 -15.5 -34.5s-21.833 -15.5 -34.5 -15.5s-24.167 5.16699 -34.5 15.5s-15.5 21.833 -15.5 34.5s5.16699 24.167 15.5 34.5s21.833 15.5 34.5 15.5
s24.167 -5.16699 34.5 -15.5s15.5 -21.833 15.5 -34.5z" />
    <glyph glyph-name="dotlessi" unicode="&#x131;" horiz-adv-x="260" 
d="M95 25v410l-60 15v10h140v-435l60 -15v-10h-200v10z" />
    <glyph glyph-name="ij" unicode="&#x133;" horiz-adv-x="490" 
d="M170 -150c0 11.333 1.66602 21.501 4.99902 30.501s7.33301 16.833 12 23.5c5.33301 7.33301 11.333 14.333 18 21l74 -30l-5.5 -6c-3.66699 -4 -7.66699 -9.16699 -12 -15.5s-8.16602 -14.166 -11.499 -23.499s-5 -19.333 -5 -30c0 -17.333 4.33301 -30.833 13 -40.5
s19.334 -14.5 32.001 -14.5c6 0 12 1.83301 18 5.5s11.333 10 16 19s8.5 21.167 11.5 36.5s4.5 35 4.5 59v555h-165v-415l60 -15v-10h-200v10l60 15v410l-60 15v10h385v-575c0 -20 -3.33301 -38.333 -10 -55s-15.667 -30.834 -27 -42.501s-25 -20.834 -41 -27.501
s-33.333 -10 -52 -10c-17.333 0 -33.333 2.83301 -48 8.5s-27.334 13.167 -38.001 22.5s-19 20 -25 32s-9 24.333 -9 37zM424.999 575.001c0 -12.667 -5.16699 -24.167 -15.5 -34.5s-21.833 -15.5 -34.5 -15.5s-24.167 5.16699 -34.5 15.5s-15.5 21.833 -15.5 34.5
s5.16699 24.167 15.5 34.5s21.833 15.5 34.5 15.5s24.167 -5.16699 34.5 -15.5s15.5 -21.833 15.5 -34.5zM179.999 575.001c0 -12.667 -5.16699 -24.167 -15.5 -34.5s-21.833 -15.5 -34.5 -15.5s-24.167 5.16699 -34.5 15.5s-15.5 21.833 -15.5 34.5
s5.16699 24.167 15.5 34.5s21.833 15.5 34.5 15.5s24.167 -5.16699 34.5 -15.5s15.5 -21.833 15.5 -34.5z" />
    <glyph glyph-name="Jcircumflex" unicode="&#x134;" horiz-adv-x="490" 
d="M400 190c0 -31.333 -4.83398 -59.666 -14.501 -84.999s-23.334 -46.833 -41.001 -64.5s-39.167 -31.334 -64.5 -41.001s-53.666 -14.5 -84.999 -14.5c-25.333 0 -48.833 4.66699 -70.5 14s-40.667 21.666 -57 36.999s-29.166 32.833 -38.499 52.5s-14 40.167 -14 61.5
c0 38 7.83301 66.333 23.5 85s34.5 30.334 56.5 35.001l70 -60c-66.667 -10 -100 -45 -100 -105c0 -12.667 3 -25 9 -37s14.667 -22.667 26 -32s25 -16.833 41 -22.5s34 -8.5 54 -8.5c16 0 31.333 3.5 46 10.5s27.5 18 38.5 33s19.667 34.167 26 57.5s9.5 51.333 9.5 84v485
l-60 15v10h205v-10l-60 -15v-485zM264.999 755h-25l115 130l115 -130h-25l-90 60z" />
    <glyph glyph-name="jcircumflex" unicode="&#x135;" horiz-adv-x="260" 
d="M-60 -150c0 11.333 1.66699 21.502 5 30.502s7.33301 16.833 12 23.5c5.33301 7.33301 11.333 14.333 18 21l75 -30c-6.66699 -6.66699 -12.667 -13.667 -18 -21c-4.66699 -6.66699 -8.66699 -14.5 -12 -23.5s-5 -19.167 -5 -30.5c0 -17.333 4.33301 -30.833 13 -40.5
s19.334 -14.5 32.001 -14.5c6 0 12 1.83301 18 5.5s11.333 10 16 19s8.5 21.167 11.5 36.5s4.5 35 4.5 59v550l-60 15v10h140v-575c0 -20 -3.33301 -38.333 -10 -55s-15.667 -30.834 -27 -42.501s-25 -20.834 -41 -27.501s-33.333 -10 -52 -10
c-17.333 0 -33.333 2.83301 -48 8.5s-27.334 13.167 -38.001 22.5s-19 20 -25 32s-9 24.333 -9 37zM50 520.002h-25l115 130l115 -130h-25l-90 60z" />
    <glyph glyph-name="Kcommaaccent" unicode="&#x136;" horiz-adv-x="540" 
d="M190 260v-235l60 -15v-10h-205v10l60 15v650l-60 15v10h205v-10l-60 -15v-380l215 370l-65 25v10h150v-10l-65 -25l-126 -217l201 -423l60 -15v-10h-215v10l60 15l-158 333zM290 -39c15.333 0 27.501 -5.66699 36.501 -17s13.5 -25.666 13.5 -42.999
c0 -26.667 -4 -48.334 -12 -65.001s-16.667 -29.667 -26 -39c-11.333 -11.333 -23.666 -20 -36.999 -26l-10 15c10 5.33301 19 11.666 27 18.999c7.33301 6 13.833 12.833 19.5 20.5s8.5 16.167 8.5 25.5c0 2.66699 -0.333008 5.16699 -1 7.5s-1.33398 4.5 -2.00098 6.5
c-0.666992 2.66699 -1.33398 4.66699 -2.00098 6c-2 -1.33301 -4.33301 -2.33301 -7 -3c-5.33301 -1.33301 -9.66602 -2 -12.999 -2c-12.667 0 -23.334 4.33301 -32.001 13s-13 19.334 -13 32.001c0 15.333 4.5 27.5 13.5 36.5s21.167 13.5 36.5 13.5z" />
    <glyph glyph-name="kcommaaccent" unicode="&#x137;" horiz-adv-x="460" 
d="M170 163v-138l55 -15v-10h-195v10l60 15v650l-60 15v10h140v-510l165 235l-65 25v10h150v-10l-65 -25l-97 -138l157 -262l60 -15v-10h-205v10l55 15l-116 193zM247 -49c15.333 0 27.501 -5.66699 36.501 -17s13.5 -25.666 13.5 -42.999c0 -26.667 -4 -48.334 -12 -65.001
s-16.667 -29.667 -26 -39c-11.333 -11.333 -23.666 -20 -36.999 -26l-10 15c10 5.33301 19 11.666 27 18.999c7.33301 6 13.833 12.833 19.5 20.5s8.5 16.167 8.5 25.5c0 2.66699 -0.333008 5.16699 -1 7.5s-1.33398 4.5 -2.00098 6.5
c-0.666992 2.66699 -1.33398 4.66699 -2.00098 6c-2 -1.33301 -4.33301 -2.33301 -7 -3c-5.33301 -1.33301 -9.66602 -2 -12.999 -2c-12.667 0 -23.334 4.33301 -32.001 13s-13 19.334 -13 32.001c0 15.333 4.5 27.5 13.5 36.5s21.167 13.5 36.5 13.5z" />
    <glyph glyph-name="kgreenlandic" unicode="&#x138;" horiz-adv-x="470" 
d="M219 221l-44 -75.998v-120l55 -15v-10h-195v10l60 15v410l-60 15v10h205v-10l-65 -15v-255l90 160c15.333 27.333 28.333 49.5 39 66.5s20.167 30.167 28.5 39.5s16.166 15.666 23.499 18.999s15.333 5 24 5c3.33301 0 6.66602 -0.333008 9.99902 -1
s6 -1.33398 8 -2.00098c2.66699 -0.666992 5 -1.33398 7 -2.00098l15 -70l-12 2c-3.33301 0.666992 -7.16602 1.33398 -11.499 2.00098s-8.16602 1 -11.499 1c-27.333 0 -48 -5 -62 -15s-26.667 -25 -38 -45l-25 -44l165 -271l60 -15v-10h-202v10l55 15z" />
    <glyph glyph-name="Lacute" unicode="&#x139;" horiz-adv-x="470" 
d="M190 20l180.001 0.000976562c0 28 5.66699 54 17 78s25.666 44.667 42.999 62h10c-1.33301 -8.66699 -2.33301 -17.667 -3 -27c-0.666992 -8 -1.16699 -16.667 -1.5 -26s-0.5 -18.333 -0.5 -27c0 -12.667 0.166992 -23.834 0.5 -33.501s0.833008 -18.167 1.5 -25.5
c0.666992 -8 1.66699 -15 3 -21h-395v10l60 15v650l-60 15v10h205v-10l-60 -15v-655zM175.001 870.001h90l-100 -120h-30z" />
    <glyph glyph-name="lacute" unicode="&#x13a;" horiz-adv-x="255" 
d="M90 25v650l-60 15v10h140v-675l60 -15v-10h-200v10zM140 870h90l-100 -120h-30z" />
    <glyph glyph-name="Lcommaaccent" unicode="&#x13b;" horiz-adv-x="470" 
d="M190 20l180.001 0.000976562c0 28 5.66699 54 17 78s25.666 44.667 42.999 62h10c-1.33301 -8.66699 -2.33301 -17.667 -3 -27c-0.666992 -8 -1.16699 -16.667 -1.5 -26s-0.5 -18.333 -0.5 -27c0 -12.667 0.166992 -23.834 0.5 -33.501s0.833008 -18.167 1.5 -25.5
c0.666992 -8 1.66699 -15 3 -21h-395v10l60 15v650l-60 15v10h205v-10l-60 -15v-655zM265.001 -58.999c15.333 0 27.501 -5.66699 36.501 -17s13.5 -25.666 13.5 -42.999c0 -26.667 -4 -48.334 -12 -65.001s-16.667 -29.667 -26 -39
c-11.333 -11.333 -23.666 -20 -36.999 -26l-10 15c10 5.33301 19 11.666 27 18.999c7.33301 6 13.833 12.833 19.5 20.5s8.5 16.167 8.5 25.5c0 2.66699 -0.333008 5.16699 -1 7.5s-1.33398 4.5 -2.00098 6.5c-0.666992 2.66699 -1.33398 4.66699 -2.00098 6
c-2 -1.33301 -4.33301 -2.33301 -7 -3c-5.33301 -1.33301 -9.66602 -2 -12.999 -2c-12.667 0 -23.334 4.33301 -32.001 13s-13 19.334 -13 32.001c0 15.333 4.5 27.5 13.5 36.5s21.167 13.5 36.5 13.5z" />
    <glyph glyph-name="lcommaaccent" unicode="&#x13c;" horiz-adv-x="255" 
d="M90 25v650l-60 15v10h140v-675l60 -15v-10h-200v10zM135 -59c15.333 0 27.501 -5.66699 36.501 -17s13.5 -25.666 13.5 -42.999c0 -26.667 -4 -48.334 -12 -65.001s-16.667 -29.667 -26 -39c-11.333 -11.333 -23.666 -20 -36.999 -26l-10 15
c10 5.33301 19 11.666 27 18.999c7.33301 6 13.833 12.833 19.5 20.5s8.5 16.167 8.5 25.5c0 2.66699 -0.333008 5.16699 -1 7.5s-1.33398 4.5 -2.00098 6.5c-0.666992 2.66699 -1.33398 4.66699 -2.00098 6c-2 -1.33301 -4.33301 -2.33301 -7 -3
c-5.33301 -1.33301 -9.66602 -2 -12.999 -2c-12.667 0 -23.334 4.33301 -32.001 13s-13 19.334 -13 32.001c0 15.333 4.5 27.5 13.5 36.5s21.167 13.5 36.5 13.5z" />
    <glyph glyph-name="Lcaron" unicode="&#x13d;" horiz-adv-x="470" 
d="M190 20l180.001 0.000976562c0 28 5.66699 54 17 78s25.666 44.667 42.999 62h10c-1.33301 -8.66699 -2.33301 -17.667 -3 -27c-0.666992 -8 -1.16699 -16.667 -1.5 -26s-0.5 -18.333 -0.5 -27c0 -12.667 0.166992 -23.834 0.5 -33.501s0.833008 -18.167 1.5 -25.5
c0.666992 -8 1.66699 -15 3 -21h-395v10l60 15v650l-60 15v10h205v-10l-60 -15v-655zM345.001 700.001c15.333 0 27.501 -5.66699 36.501 -17s13.5 -25.666 13.5 -42.999c0 -26.667 -4 -48.334 -12 -65.001s-16.667 -29.667 -26 -39
c-11.333 -11.333 -23.666 -20 -36.999 -26l-10 15c10 5.33301 19 11.666 27 18.999c7.33301 6 13.833 12.833 19.5 20.5s8.5 16.167 8.5 25.5c0 2.66699 -0.333008 5.16699 -1 7.5s-1.33398 4.5 -2.00098 6.5c-0.666992 2.66699 -1.33398 4.66699 -2.00098 6
c-2 -1.33301 -4.33301 -2.33301 -7 -3c-5.33301 -1.33301 -9.66602 -2 -12.999 -2c-12.667 0 -23.334 4.33301 -32.001 13s-13 19.334 -13 32.001c0 15.333 4.5 27.5 13.5 36.5s21.167 13.5 36.5 13.5z" />
    <glyph glyph-name="lcaron" unicode="&#x13e;" horiz-adv-x="355" 
d="M95 25v650l-60 15v10h140v-675l60 -15v-10h-200v10zM285 700c15.333 0 27.501 -5.66699 36.501 -17s13.5 -25.666 13.5 -42.999c0 -26.667 -4 -48.334 -12 -65.001s-16.667 -29.667 -26 -39c-11.333 -11.333 -23.666 -20 -36.999 -26l-10 15
c10 5.33301 19 11.666 27 18.999c7.33301 6 13.833 12.833 19.5 20.5s8.5 16.167 8.5 25.5c0 2.66699 -0.333008 5.16699 -1 7.5s-1.33398 4.5 -2.00098 6.5c-0.666992 2.66699 -1.33398 4.66699 -2.00098 6c-2 -1.33301 -4.33301 -2.33301 -7 -3
c-5.33301 -1.33301 -9.66602 -2 -12.999 -2c-12.667 0 -23.334 4.33301 -32.001 13s-13 19.334 -13 32.001c0 15.333 4.5 27.5 13.5 36.5s21.167 13.5 36.5 13.5z" />
    <glyph glyph-name="ldot" unicode="&#x140;" horiz-adv-x="365" 
d="M90 25v650l-60 15v10h140v-675l60 -15v-10h-200v10zM235 350c0 15.333 5.33301 28.333 16 39s23.667 16 39 16s28.333 -5.33301 39 -16s16 -23.667 16 -39s-5.33301 -28.333 -16 -39s-23.667 -16 -39 -16s-28.333 5.33301 -39 16s-16 23.667 -16 39z" />
    <glyph glyph-name="Lslash" unicode="&#x141;" horiz-adv-x="470" 
d="M105 340l0.000976562 335.001l-60 15v10h205v-10l-60 -15v-237l70 82v-40l-70 -82v-378h180c0 28 5.66699 54 17 78s25.666 44.667 42.999 62h10c-1.33301 -8.66699 -2.33301 -17.667 -3 -27c-0.666992 -8 -1.16699 -16.667 -1.5 -26s-0.5 -18.333 -0.5 -27
c0 -12.667 0.166992 -23.834 0.5 -33.501s0.833008 -18.167 1.5 -25.5c0.666992 -8 1.66699 -15 3 -21h-395v10l60 15v275l-60 -70v40z" />
    <glyph glyph-name="lslash" unicode="&#x142;" horiz-adv-x="260" 
d="M95 25v272l-50 -57v40l50 57v338l-60 15v10h140v-273l55 63v-40l-55 -63v-362l60 -15v-10h-200v10z" />
    <glyph glyph-name="Nacute" unicode="&#x143;" horiz-adv-x="585" 
d="M460 665l-65 25v10h150v-10l-65 -25v-675h-15l-340 625v-580l65 -25v-10h-150v10l65 25v635l-65 20v10h135l285 -525v490zM317 870h90l-100 -120h-30z" />
    <glyph glyph-name="nacute" unicode="&#x144;" horiz-adv-x="515" 
d="M95 25v410l-60 15v10h140v-60c6.66699 13.333 15.667 25.666 27 36.999c9.33301 9.33301 21.333 18 36 26s32 12 52 12s38.5 -3.66699 55.5 -11s31.833 -17.5 44.5 -30.5s22.5 -28.667 29.5 -47s10.5 -38.833 10.5 -61.5v-300l60 -15v-10h-195v10l55 15v300
c0 47.333 -7.5 80.833 -22.5 100.5s-32.5 29.5 -52.5 29.5c-16.667 0 -31 -4.66699 -43 -14s-22.333 -19.666 -31 -30.999c-10 -13.333 -18.667 -28.333 -26 -45v-340l55 -15v-10h-195v10zM282 636h90l-100 -120h-30z" />
    <glyph glyph-name="Ncommaaccent" unicode="&#x145;" horiz-adv-x="585" 
d="M460 665l-65 25v10h150v-10l-65 -25v-675h-15l-340 625v-580l65 -25v-10h-150v10l65 25v635l-65 20v10h135l285 -525v490zM292 -29c15.333 0 27.501 -5.66699 36.501 -17s13.5 -25.666 13.5 -42.999c0 -26.667 -4 -48.334 -12 -65.001s-16.667 -29.667 -26 -39
c-11.333 -11.333 -23.666 -20 -36.999 -26l-10 15c10 5.33301 19 11.666 27 18.999c7.33301 6 13.833 12.833 19.5 20.5s8.5 16.167 8.5 25.5c0 2.66699 -0.333008 5.16699 -1 7.5s-1.33398 4.5 -2.00098 6.5c-0.666992 2.66699 -1.33398 4.66699 -2.00098 6
c-2 -1.33301 -4.33301 -2.33301 -7 -3c-5.33301 -1.33301 -9.66602 -2 -12.999 -2c-12.667 0 -23.334 4.33301 -32.001 13s-13 19.334 -13 32.001c0 15.333 4.5 27.5 13.5 36.5s21.167 13.5 36.5 13.5z" />
    <glyph glyph-name="ncommaaccent" unicode="&#x146;" horiz-adv-x="515" 
d="M95 25v410l-60 15v10h140v-60c6.66699 13.333 15.667 25.666 27 36.999c9.33301 9.33301 21.333 18 36 26s32 12 52 12s38.5 -3.66699 55.5 -11s31.833 -17.5 44.5 -30.5s22.5 -28.667 29.5 -47s10.5 -38.833 10.5 -61.5v-300l60 -15v-10h-195v10l55 15v300
c0 47.333 -7.5 80.833 -22.5 100.5s-32.5 29.5 -52.5 29.5c-16.667 0 -31 -4.66699 -43 -14s-22.333 -19.666 -31 -30.999c-10 -13.333 -18.667 -28.333 -26 -45v-340l55 -15v-10h-195v10zM265 -54c15.333 0 27.501 -5.66699 36.501 -17s13.5 -25.666 13.5 -42.999
c0 -26.667 -4 -48.334 -12 -65.001s-16.667 -29.667 -26 -39c-11.333 -11.333 -23.666 -20 -36.999 -26l-10 15c10 5.33301 19 11.666 27 18.999c7.33301 6 13.833 12.833 19.5 20.5s8.5 16.167 8.5 25.5c0 2.66699 -0.333008 5.16699 -1 7.5s-1.33398 4.5 -2.00098 6.5
c-0.666992 2.66699 -1.33398 4.66699 -2.00098 6c-2 -1.33301 -4.33301 -2.33301 -7 -3c-5.33301 -1.33301 -9.66602 -2 -12.999 -2c-12.667 0 -23.334 4.33301 -32.001 13s-13 19.334 -13 32.001c0 15.333 4.5 27.5 13.5 36.5s21.167 13.5 36.5 13.5z" />
    <glyph glyph-name="Ncaron" unicode="&#x147;" horiz-adv-x="585" 
d="M460 665l-65 25v10h150v-10l-65 -25v-675h-15l-340 625v-580l65 -25v-10h-150v10l65 25v635l-65 20v10h135l285 -525v490zM302 805l90 60h25l-115 -130l-115 130h25z" />
    <glyph glyph-name="ncaron" unicode="&#x148;" horiz-adv-x="515" 
d="M95 25v410l-60 15v10h140v-60c6.66699 13.333 15.667 25.666 27 36.999c9.33301 9.33301 21.333 18 36 26s32 12 52 12s38.5 -3.66699 55.5 -11s31.833 -17.5 44.5 -30.5s22.5 -28.667 29.5 -47s10.5 -38.833 10.5 -61.5v-300l60 -15v-10h-195v10l55 15v300
c0 47.333 -7.5 80.833 -22.5 100.5s-32.5 29.5 -52.5 29.5c-16.667 0 -31 -4.66699 -43 -14s-22.333 -19.666 -31 -30.999c-10 -13.333 -18.667 -28.333 -26 -45v-340l55 -15v-10h-195v10zM277 586l90 60h25l-115 -130l-115 130h25z" />
    <glyph glyph-name="Omacron" unicode="&#x14c;" horiz-adv-x="550" 
d="M510 350c0 -61.333 -6.83301 -114.833 -20.5 -160.5s-31.667 -83.667 -54 -114s-47.5 -53 -75.5 -68s-56.333 -22.5 -85 -22.5s-57 7.5 -85 22.5s-53.167 37.667 -75.5 68s-40.333 68.333 -54 114s-20.5 99.167 -20.5 160.5s6.83301 114.833 20.5 160.5
s31.667 83.667 54 114s47.5 53 75.5 68s56.333 22.5 85 22.5s57 -7.5 85 -22.5s53.167 -37.667 75.5 -68s40.333 -68.333 54 -114s20.5 -99.167 20.5 -160.5zM415 350c0 68.667 -4.16699 125.5 -12.5 170.5s-19.333 80.833 -33 107.5s-28.834 45.334 -45.501 56.001
s-33 16 -49 16s-32.333 -5.33301 -49 -16s-31.834 -29.334 -45.501 -56.001s-24.667 -62.5 -33 -107.5s-12.5 -101.833 -12.5 -170.5s4.16699 -125.5 12.5 -170.5s19.333 -80.833 33 -107.5s28.834 -45.334 45.501 -56.001s33 -16 49 -16s32.333 5.33301 49 16
s31.834 29.334 45.501 56.001s24.667 62.5 33 107.5s12.5 101.833 12.5 170.5zM390 815v-40h-230v40h230z" />
    <glyph glyph-name="omacron" unicode="&#x14d;" horiz-adv-x="470" 
d="M235 460c-11.333 0 -22.833 -3.83301 -34.5 -11.5s-22.334 -20.334 -32.001 -38.001s-17.667 -41.167 -24 -70.5s-9.5 -66 -9.5 -110s3.16699 -80.667 9.5 -110s14.333 -52.833 24 -70.5s20.334 -30.334 32.001 -38.001s23.167 -11.5 34.5 -11.5
s22.833 3.83301 34.5 11.5s22.334 20.334 32.001 38.001s17.667 41.167 24 70.5s9.5 66 9.5 110s-3.16699 80.667 -9.5 110s-14.333 52.833 -24 70.5s-20.334 30.334 -32.001 38.001s-23.167 11.5 -34.5 11.5zM235 475c24.667 0 48.5 -5.5 71.5 -16.5s43.333 -27 61 -48
s31.667 -46.667 42 -77s15.5 -64.833 15.5 -103.5s-5.16699 -73.167 -15.5 -103.5s-24.333 -56 -42 -77s-38 -37 -61 -48s-46.833 -16.5 -71.5 -16.5c-25.333 0 -49.333 5.5 -72 16.5s-42.834 27 -60.501 48s-31.667 46.667 -42 77s-15.5 64.833 -15.5 103.5
s5.16699 73.167 15.5 103.5s24.333 56 42 77s37.834 37 60.501 48s46.667 16.5 72 16.5zM360 591v-40h-230v40h230z" />
    <glyph glyph-name="Ohungarumlaut" unicode="&#x150;" horiz-adv-x="550" 
d="M510 350c0 -61.333 -6.83301 -114.833 -20.5 -160.5s-31.667 -83.667 -54 -114s-47.5 -53 -75.5 -68s-56.333 -22.5 -85 -22.5s-57 7.5 -85 22.5s-53.167 37.667 -75.5 68s-40.333 68.333 -54 114s-20.5 99.167 -20.5 160.5s6.83301 114.833 20.5 160.5
s31.667 83.667 54 114s47.5 53 75.5 68s56.333 22.5 85 22.5s57 -7.5 85 -22.5s53.167 -37.667 75.5 -68s40.333 -68.333 54 -114s20.5 -99.167 20.5 -160.5zM415 350c0 68.667 -4.16699 125.5 -12.5 170.5s-19.333 80.833 -33 107.5s-28.834 45.334 -45.501 56.001
s-33 16 -49 16s-32.333 -5.33301 -49 -16s-31.834 -29.334 -45.501 -56.001s-24.667 -62.5 -33 -107.5s-12.5 -101.833 -12.5 -170.5s4.16699 -125.5 12.5 -170.5s19.333 -80.833 33 -107.5s28.834 -45.334 45.501 -56.001s33 -16 49 -16s32.333 5.33301 49 16
s31.834 29.334 45.501 56.001s24.667 62.5 33 107.5s12.5 101.833 12.5 170.5zM235 880h80l-90 -120h-30zM345 880h80l-90 -120h-30z" />
    <glyph glyph-name="ohungarumlaut" unicode="&#x151;" horiz-adv-x="470" 
d="M235 460c-11.333 0 -22.833 -3.83301 -34.5 -11.5s-22.334 -20.334 -32.001 -38.001s-17.667 -41.167 -24 -70.5s-9.5 -66 -9.5 -110s3.16699 -80.667 9.5 -110s14.333 -52.833 24 -70.5s20.334 -30.334 32.001 -38.001s23.167 -11.5 34.5 -11.5
s22.833 3.83301 34.5 11.5s22.334 20.334 32.001 38.001s17.667 41.167 24 70.5s9.5 66 9.5 110s-3.16699 80.667 -9.5 110s-14.333 52.833 -24 70.5s-20.334 30.334 -32.001 38.001s-23.167 11.5 -34.5 11.5zM235 475c24.667 0 48.5 -5.5 71.5 -16.5s43.333 -27 61 -48
s31.667 -46.667 42 -77s15.5 -64.833 15.5 -103.5s-5.16699 -73.167 -15.5 -103.5s-24.333 -56 -42 -77s-38 -37 -61 -48s-46.833 -16.5 -71.5 -16.5c-25.333 0 -49.333 5.5 -72 16.5s-42.834 27 -60.501 48s-31.667 46.667 -42 77s-15.5 64.833 -15.5 103.5
s5.16699 73.167 15.5 103.5s24.333 56 42 77s37.834 37 60.501 48s46.667 16.5 72 16.5zM195 641h80l-90 -120h-30zM305 641h80l-90 -120h-30z" />
    <glyph glyph-name="OE" unicode="&#x152;" horiz-adv-x="765" 
d="M710 700c-1.33301 -6 -2.33301 -12.9971 -3 -20.9971c-0.666992 -7.33301 -1.16699 -15.833 -1.5 -25.5s-0.5 -20.834 -0.5 -33.501c0 -9.33301 0.166992 -18.5 0.5 -27.5s0.833008 -17.5 1.5 -25.5c0.666992 -9.33301 1.66699 -18.333 3 -27h-10
c-17.333 17.333 -31.666 38 -42.999 62s-17 50 -17 78h-190v-300h95l45 90h10v-200h-10l-45 90h-95v-340h200c0 28 5.66699 54 17 78s25.666 44.667 42.999 62h10c-1.33301 -8.66699 -2.33301 -17.667 -3 -27c-0.666992 -8 -1.16699 -16.667 -1.5 -26s-0.5 -18.333 -0.5 -27
c0 -12.667 0.166992 -23.834 0.5 -33.501s0.833008 -18.167 1.5 -25.5c0.666992 -8 1.66699 -15 3 -21h-380c-44 0 -84.5 7.83301 -121.5 23.5s-69.167 38.5 -96.5 68.5s-48.666 66.667 -63.999 110s-23 92.666 -23 147.999c0 54.667 7.66699 103.667 23 147
s36.666 80 63.999 110s59.5 53 96.5 69s77.5 24 121.5 24h370zM340 680.003c-28.667 0 -55.834 -6.16309 -81.501 -18.4961s-48 -31.833 -67 -58.5s-34 -60.834 -45 -102.501s-16.5 -91.834 -16.5 -150.501s5.5 -108.834 16.5 -150.501s26 -75.834 45 -102.501
s41.333 -46.167 67 -58.5s52.834 -18.5 81.501 -18.5h25v660h-25z" />
    <glyph glyph-name="oe" unicode="&#x153;" horiz-adv-x="735" 
d="M235 475c26 0 48.3311 -5 66.998 -15s33.667 -21 45 -33c13.333 -14 24.333 -29.667 33 -47c8.66699 17.333 19.334 33 32.001 47c11.333 12 25.333 23 42 33s37 15 61 15s46.833 -5.33301 68.5 -16s40.667 -26.167 57 -46.5s29.5 -45.833 39.5 -76.5s15 -66 15 -106
h-270c0 -42.667 3.16699 -78.334 9.5 -107.001s14.666 -51.834 24.999 -69.501s22 -30.167 35 -37.5s26.5 -11 40.5 -11c17.333 0 33.666 3.33301 48.999 10s29 15.667 41 27s21.833 25 29.5 41s12.834 33.333 15.501 52h15c-2.66699 -21.333 -8.5 -41.166 -17.5 -59.499
s-20.5 -34.166 -34.5 -47.499s-30.167 -23.833 -48.5 -31.5s-38.166 -11.5 -59.499 -11.5c-26.667 0 -49.167 4.83301 -67.5 14.5s-33.166 20.5 -44.499 32.5c-13.333 14 -24.333 30 -33 48c-8.66699 -18 -19.667 -34 -33 -48c-11.333 -12 -26.333 -22.833 -45 -32.5
s-41 -14.5 -67 -14.5c-25.333 0 -49.333 5.5 -72 16.5s-42.834 27 -60.501 48s-31.667 46.667 -42 77s-15.5 64.833 -15.5 103.5s5.16699 73.167 15.5 103.5s24.333 56 42 77s37.834 37 60.501 48s46.667 16.5 72 16.5zM234.998 460c-11.333 0 -22.833 -3.83301 -34.5 -11.5
s-22.334 -20.334 -32.001 -38.001s-17.667 -41.167 -24 -70.5s-9.5 -66 -9.5 -110s3.16699 -80.667 9.5 -110s14.333 -52.833 24 -70.5s20.334 -30.334 32.001 -38.001s23.167 -11.5 34.5 -11.5s22.833 3.83301 34.5 11.5s22.334 20.334 32.001 38.001
s17.667 41.167 24 70.5s9.5 66 9.5 110s-3.16699 80.667 -9.5 110s-14.333 52.833 -24 70.5s-20.334 30.334 -32.001 38.001s-23.167 11.5 -34.5 11.5zM514.998 460c-10 0 -19.998 -3.16699 -29.998 -9.5s-19.333 -17.5 -28 -33.5s-15.834 -37.5 -21.501 -64.5
s-9.16699 -61.167 -10.5 -102.5h180c-1.33301 41.333 -4.83301 75.5 -10.5 102.5s-12.834 48.5 -21.501 64.5s-18 27.167 -28 33.5s-20 9.5 -30 9.5z" />
    <glyph glyph-name="Racute" unicode="&#x154;" horiz-adv-x="550" 
d="M230 700c42.667 0 79.667 -4.66504 111 -13.998s57.333 -22 78 -38s36 -34.5 46 -55.5s15 -43.5 15 -67.5c0 -19.333 -2.83301 -36.5 -8.5 -51.5s-13 -28.333 -22 -40s-19.5 -21.5 -31.5 -29.5s-24 -14.667 -36 -20c-28.667 -12.667 -61 -20.667 -97 -24
c29.333 -3.33301 56 -10.333 80 -21c20.667 -9.33301 40 -23 58 -41s28.667 -42.333 32 -73l20 -175c1.33301 -12.667 4.33301 -21.667 9 -27s10 -8 16 -8c3.33301 0 6.83301 1.16699 10.5 3.5s7.16699 5.16602 10.5 8.49902s6.33301 7.66602 9 12.999l10 -10
c-4 -8.66699 -9.66699 -16.334 -17 -23.001c-6 -5.33301 -13.833 -10.333 -23.5 -15s-21.167 -7 -34.5 -7c-22.667 0 -41.167 6.5 -55.5 19.5s-22.5 28.167 -24.5 45.5l-20 175c-2.66699 22.667 -7 41.834 -13 57.501s-14.167 28.5 -24.5 38.5s-23.5 17.333 -39.5 22
s-35.333 7 -58 7h-40v-325l60 -15v-10h-205v10l60 15v650l-60 15v10h185zM385 525.002c0 50 -13.333 88.333 -40 115s-65 40 -115 40h-40v-310h40c50 0 88.333 13.333 115 40s40 65 40 115zM280 870.002h90l-100 -120h-30z" />
    <glyph glyph-name="racute" unicode="&#x155;" horiz-adv-x="360" 
d="M175 25l60.001 -15.001v-10h-200v10l60 15v410l-60 15v10h140v-120c8.66699 24.667 19 47 31 67c10.667 17.333 23.667 33 39 47s33.666 21 54.999 21c7.33301 0 14.333 -0.5 21 -1.5s12.667 -2.16699 18 -3.5c6 -2 11.333 -3.66699 16 -5l-30 -75
c-4 2 -8.33301 4.33301 -13 7c-4 2 -8.83301 3.83301 -14.5 5.5s-11.5 2.5 -17.5 2.5c-17.333 0 -32.666 -4.66699 -45.999 -14s-24.333 -19.666 -33 -30.999c-10.667 -13.333 -19.334 -28.333 -26.001 -45v-290zM225.001 640.999h90l-100 -120h-30z" />
    <glyph glyph-name="Rcommaaccent" unicode="&#x156;" horiz-adv-x="550" 
d="M230 700c42.667 0 79.667 -4.66504 111 -13.998s57.333 -22 78 -38s36 -34.5 46 -55.5s15 -43.5 15 -67.5c0 -19.333 -2.83301 -36.5 -8.5 -51.5s-13 -28.333 -22 -40s-19.5 -21.5 -31.5 -29.5s-24 -14.667 -36 -20c-28.667 -12.667 -61 -20.667 -97 -24
c29.333 -3.33301 56 -10.333 80 -21c20.667 -9.33301 40 -23 58 -41s28.667 -42.333 32 -73l20 -175c1.33301 -12.667 4.33301 -21.667 9 -27s10 -8 16 -8c3.33301 0 6.83301 1.16699 10.5 3.5s7.16699 5.16602 10.5 8.49902s6.33301 7.66602 9 12.999l10 -10
c-4 -8.66699 -9.66699 -16.334 -17 -23.001c-6 -5.33301 -13.833 -10.333 -23.5 -15s-21.167 -7 -34.5 -7c-22.667 0 -41.167 6.5 -55.5 19.5s-22.5 28.167 -24.5 45.5l-20 175c-2.66699 22.667 -7 41.834 -13 57.501s-14.167 28.5 -24.5 38.5s-23.5 17.333 -39.5 22
s-35.333 7 -58 7h-40v-325l60 -15v-10h-205v10l60 15v650l-60 15v10h185zM385 525.002c0 50 -13.333 88.333 -40 115s-65 40 -115 40h-40v-310h40c50 0 88.333 13.333 115 40s40 65 40 115zM305 -38.998c15.333 0 27.501 -5.66699 36.501 -17s13.5 -25.666 13.5 -42.999
c0 -26.667 -4 -48.334 -12 -65.001s-16.667 -29.667 -26 -39c-11.333 -11.333 -23.666 -20 -36.999 -26l-10 15c10 5.33301 19 11.666 27 18.999c7.33301 6 13.833 12.833 19.5 20.5s8.5 16.167 8.5 25.5c0 2.66699 -0.333008 5.16699 -1 7.5s-1.33398 4.5 -2.00098 6.5
c-0.666992 2.66699 -1.33398 4.66699 -2.00098 6c-2 -1.33301 -4.33301 -2.33301 -7 -3c-5.33301 -1.33301 -9.66602 -2 -12.999 -2c-12.667 0 -23.334 4.33301 -32.001 13s-13 19.334 -13 32.001c0 15.333 4.5 27.5 13.5 36.5s21.167 13.5 36.5 13.5z" />
    <glyph glyph-name="rcommaaccent" unicode="&#x157;" horiz-adv-x="360" 
d="M175 25l60.001 -15.001v-10h-200v10l60 15v410l-60 15v10h140v-120c8.66699 24.667 19 47 31 67c10.667 17.333 23.667 33 39 47s33.666 21 54.999 21c7.33301 0 14.333 -0.5 21 -1.5s12.667 -2.16699 18 -3.5c6 -2 11.333 -3.66699 16 -5l-30 -75
c-4 2 -8.33301 4.33301 -13 7c-4 2 -8.83301 3.83301 -14.5 5.5s-11.5 2.5 -17.5 2.5c-17.333 0 -32.666 -4.66699 -45.999 -14s-24.333 -19.666 -33 -30.999c-10.667 -13.333 -19.334 -28.333 -26.001 -45v-290zM135.001 -49.001c15.333 0 27.501 -5.66699 36.501 -17
s13.5 -25.666 13.5 -42.999c0 -26.667 -4 -48.334 -12 -65.001s-16.667 -29.667 -26 -39c-11.333 -11.333 -23.666 -20 -36.999 -26l-10 15c10 5.33301 19 11.666 27 18.999c7.33301 6 13.833 12.833 19.5 20.5s8.5 16.167 8.5 25.5c0 2.66699 -0.333008 5.16699 -1 7.5
s-1.33398 4.5 -2.00098 6.5c-0.666992 2.66699 -1.33398 4.66699 -2.00098 6c-2 -1.33301 -4.33301 -2.33301 -7 -3c-5.33301 -1.33301 -9.66602 -2 -12.999 -2c-12.667 0 -23.334 4.33301 -32.001 13s-13 19.334 -13 32.001c0 15.333 4.5 27.5 13.5 36.5
s21.167 13.5 36.5 13.5z" />
    <glyph glyph-name="Rcaron" unicode="&#x158;" horiz-adv-x="550" 
d="M230 700c42.667 0 79.667 -4.66504 111 -13.998s57.333 -22 78 -38s36 -34.5 46 -55.5s15 -43.5 15 -67.5c0 -19.333 -2.83301 -36.5 -8.5 -51.5s-13 -28.333 -22 -40s-19.5 -21.5 -31.5 -29.5s-24 -14.667 -36 -20c-28.667 -12.667 -61 -20.667 -97 -24
c29.333 -3.33301 56 -10.333 80 -21c20.667 -9.33301 40 -23 58 -41s28.667 -42.333 32 -73l20 -175c1.33301 -12.667 4.33301 -21.667 9 -27s10 -8 16 -8c3.33301 0 6.83301 1.16699 10.5 3.5s7.16699 5.16602 10.5 8.49902s6.33301 7.66602 9 12.999l10 -10
c-4 -8.66699 -9.66699 -16.334 -17 -23.001c-6 -5.33301 -13.833 -10.333 -23.5 -15s-21.167 -7 -34.5 -7c-22.667 0 -41.167 6.5 -55.5 19.5s-22.5 28.167 -24.5 45.5l-20 175c-2.66699 22.667 -7 41.834 -13 57.501s-14.167 28.5 -24.5 38.5s-23.5 17.333 -39.5 22
s-35.333 7 -58 7h-40v-325l60 -15v-10h-205v10l60 15v650l-60 15v10h185zM385 525.002c0 50 -13.333 88.333 -40 115s-65 40 -115 40h-40v-310h40c50 0 88.333 13.333 115 40s40 65 40 115zM265 815.002l90 60h25l-115 -130l-115 130h25z" />
    <glyph glyph-name="rcaron" unicode="&#x159;" horiz-adv-x="360" 
d="M175 25l60.001 -15.001v-10h-200v10l60 15v410l-60 15v10h140v-120c8.66699 24.667 19 47 31 67c10.667 17.333 23.667 33 39 47s33.666 21 54.999 21c7.33301 0 14.333 -0.5 21 -1.5s12.667 -2.16699 18 -3.5c6 -2 11.333 -3.66699 16 -5l-30 -75
c-4 2 -8.33301 4.33301 -13 7c-4 2 -8.83301 3.83301 -14.5 5.5s-11.5 2.5 -17.5 2.5c-17.333 0 -32.666 -4.66699 -45.999 -14s-24.333 -19.666 -33 -30.999c-10.667 -13.333 -19.334 -28.333 -26.001 -45v-290zM200.001 590.999l90 60h25l-115 -130l-115 130h25z" />
    <glyph glyph-name="Sacute" unicode="&#x15a;" horiz-adv-x="465" 
d="M110 570c0 -27.333 7.99707 -50.834 23.9971 -70.501s36 -37.834 60 -54.501s50.167 -33 78.5 -49s54.5 -34.167 78.5 -54.5s44 -44.166 60 -71.499s24 -60.666 24 -99.999c0 -26 -4.66699 -50.333 -14 -73s-22.5 -42.334 -39.5 -59.001s-37.167 -29.667 -60.5 -39
s-48.666 -14 -75.999 -14c-25.333 0 -47 2.5 -65 7.5s-33 10.833 -45 17.5c-14 7.33301 -25.667 15.666 -35 24.999c-5.33301 -10 -12.5 -19.333 -21.5 -28s-18.5 -14.334 -28.5 -17.001h-15c0.666992 9.33301 1.33398 19.333 2.00098 30
c0.666992 8.66699 1.33398 18.334 2.00098 29.001s1 21 1 31c0 11.333 -0.333008 22.5 -1 33.5s-1.33398 21.167 -2.00098 30.5l-2 31h15c15.333 -55.333 37.5 -97.5 66.5 -126.5s68.5 -43.5 118.5 -43.5c40 0 72.5 12.833 97.5 38.5s37.5 61.167 37.5 106.5
c0 27.333 -8 50.833 -24 70.5s-36 37.834 -60 54.501s-50.167 33 -78.5 49s-54.5 34.167 -78.5 54.5s-44 44.166 -60 71.499s-24 60.666 -24 99.999c0 22.667 4.33301 44 13 64s20.667 37.5 36 52.5s33.333 26.833 54 35.5s43 13 67 13c20 0 37.667 -2.66699 53 -8
s28.333 -11 39 -17c12 -7.33301 23 -15.666 33 -24.999c5.33301 10 12.5 19.333 21.5 28s18.5 14.334 28.5 17.001h15c-1.33301 -10 -2.33301 -20 -3 -30c-0.666992 -9.33301 -1.16699 -19.166 -1.5 -29.499s-0.5 -20.5 -0.5 -30.5c0 -11.333 0.166992 -22.5 0.5 -33.5
s0.833008 -21.167 1.5 -30.5c0.666992 -10.667 1.66699 -21 3 -31h-15c-15.333 55.333 -36.666 97.5 -63.999 126.5s-61 43.5 -101 43.5c-32.667 0 -60 -11.333 -82 -34s-33 -53 -33 -91zM236.997 874.999h90l-100 -120h-30z" />
    <glyph glyph-name="sacute" unicode="&#x15b;" horiz-adv-x="405" 
d="M215 -15c-21.333 0 -39.6709 2.49902 -55.0039 7.49902s-27.666 10.833 -36.999 17.5c-11.333 7.33301 -20.666 15.666 -27.999 24.999c-2.66699 -10 -8.16699 -19.333 -16.5 -28s-16.166 -14.334 -23.499 -17.001h-15l2 27c0.666992 8 1.33398 16.5 2.00098 25.5
s1 18.167 1 27.5c0 10 -0.333008 20 -1 30s-1.33398 19 -2.00098 27l-2 28h15c12.667 -48 32 -85 58 -111s56.667 -39 92 -39c28 0 50.833 8.66699 68.5 26s26.5 38.666 26.5 63.999c0 18 -6.16699 33.667 -18.5 47s-27.833 25.5 -46.5 36.5s-38.667 21.833 -60 32.5
s-41.333 22.667 -60 36s-34.167 29 -46.5 47s-18.5 40 -18.5 66c0 14.667 3.33301 29 10 43s15.834 26.333 27.501 37s25.834 19.167 42.501 25.5s35 9.5 55 9.5c17.333 0 32.5 -2.66699 45.5 -8s24.167 -11 33.5 -17c10 -7.33301 18.667 -15.666 26 -24.999
c2.66699 10 8.16699 19.333 16.5 28s16.166 14.334 23.499 17.001h15c-1.33301 -8.66699 -2.33301 -17.667 -3 -27c-0.666992 -8 -1.16699 -16.667 -1.5 -26s-0.5 -18.333 -0.5 -27c0 -10 0.166992 -20.167 0.5 -30.5s0.833008 -19.5 1.5 -27.5
c0.666992 -9.33301 1.66699 -18.333 3 -27h-15c-12.667 48 -31.334 85 -56.001 111s-51 39 -79 39c-22.667 0 -41.667 -7.5 -57 -22.5s-23 -32.5 -23 -52.5c0 -16.667 6.33301 -31 19 -43s28.334 -23.167 47.001 -33.5s39.167 -20.833 61.5 -31.5s42.833 -23 61.5 -37
s34.334 -30.667 47.001 -50s19 -42.666 19 -69.999c0 -16 -3.83301 -31.833 -11.5 -47.5s-18.334 -29.667 -32.001 -42s-30 -22.166 -49 -29.499s-39.833 -11 -62.5 -11zM206.995 635.999h90l-100 -120h-30z" />
    <glyph glyph-name="Scedilla" unicode="&#x15e;" horiz-adv-x="465" 
d="M110 570c0 -27.333 7.99707 -50.834 23.9971 -70.501s36 -37.834 60 -54.501s50.167 -33 78.5 -49s54.5 -34.167 78.5 -54.5s44 -44.166 60 -71.499s24 -60.666 24 -99.999c0 -26 -4.66699 -50.333 -14 -73s-22.5 -42.334 -39.5 -59.001s-37.167 -29.667 -60.5 -39
s-48.666 -14 -75.999 -14c-25.333 0 -47 2.5 -65 7.5s-33 10.833 -45 17.5c-14 7.33301 -25.667 15.666 -35 24.999c-5.33301 -10 -12.5 -19.333 -21.5 -28s-18.5 -14.334 -28.5 -17.001h-15c0.666992 9.33301 1.33398 19.333 2.00098 30
c0.666992 8.66699 1.33398 18.334 2.00098 29.001s1 21 1 31c0 11.333 -0.333008 22.5 -1 33.5s-1.33398 21.167 -2.00098 30.5l-2 31h15c15.333 -55.333 37.5 -97.5 66.5 -126.5s68.5 -43.5 118.5 -43.5c40 0 72.5 12.833 97.5 38.5s37.5 61.167 37.5 106.5
c0 27.333 -8 50.833 -24 70.5s-36 37.834 -60 54.501s-50.167 33 -78.5 49s-54.5 34.167 -78.5 54.5s-44 44.166 -60 71.499s-24 60.666 -24 99.999c0 22.667 4.33301 44 13 64s20.667 37.5 36 52.5s33.333 26.833 54 35.5s43 13 67 13c20 0 37.667 -2.66699 53 -8
s28.333 -11 39 -17c12 -7.33301 23 -15.666 33 -24.999c5.33301 10 12.5 19.333 21.5 28s18.5 14.334 28.5 17.001h15c-1.33301 -10 -2.33301 -20 -3 -30c-0.666992 -9.33301 -1.16699 -19.166 -1.5 -29.499s-0.5 -20.5 -0.5 -30.5c0 -11.333 0.166992 -22.5 0.5 -33.5
s0.833008 -21.167 1.5 -30.5c0.666992 -10.667 1.66699 -21 3 -31h-15c-15.333 55.333 -36.666 97.5 -63.999 126.5s-61 43.5 -101 43.5c-32.667 0 -60 -11.333 -82 -34s-33 -53 -33 -91zM206.997 -0.000976562l25.0029 -0.00292969v-35
c25.333 0 44.166 -5.66699 56.499 -17s18.5 -25.666 18.5 -42.999s-6.83301 -31.666 -20.5 -42.999s-36.834 -17 -69.501 -17c-6.66699 0 -12.334 0.166992 -17.001 0.5s-8.66699 0.833008 -12 1.5c-4 0.666992 -7.66699 1.66699 -11 3v21
c2.66699 -1.33301 5.66699 -2.33301 9 -3c6 -2 13 -3 21 -3c15.333 0 26.666 4.16699 33.999 12.5s11 17.5 11 27.5c0 12.667 -3.66699 23.334 -11 32.001s-18.666 13 -33.999 13v50z" />
    </font>
</defs>
</svg>
