<?xml version="1.0" standalone="no"?>
<!DOCTYPE svg PUBLIC "-//W3C//DTD SVG 1.1//EN" "http://www.w3.org/Graphics/SVG/1.1/DTD/svg11.dtd" >
<svg>
<metadata>
Created by FontForge 20090914 at Sat Apr  5 01:23:23 2014
 By www-data
Copyright (c) 2011-2012, Jovanny Lemonad (lemonad@jovanny.ru), with Reserved Font Name 'Yeseva'
</metadata>
<defs>
<font id="YesevaOne" horiz-adv-x="560" >
  <font-face 
    font-family="Yeseva One"
    font-weight="400"
    font-stretch="normal"
    units-per-em="1000"
    panose-1="2 0 5 3 9 0 0 2 0 4"
    ascent="800"
    descent="-200"
    x-height="499.998"
    cap-height="700"
    bbox="-130.002 -309.001 1275 940"
    underline-thickness="50"
    underline-position="-50"
    unicode-range="U+0020-U+2122"
  />
<missing-glyph horiz-adv-x="285" 
 />
    <glyph glyph-name=".notdef" horiz-adv-x="285" 
 />
    <glyph glyph-name="space" unicode=" " horiz-adv-x="280" 
 />
    <glyph glyph-name="exclam" unicode="!" horiz-adv-x="310" 
d="M170 215h-30l-80 385c0 35.333 9.5 63.333 28.5 84s41.167 31 66.5 31s47.5 -10.333 66.5 -31s28.5 -48.667 28.5 -84zM230 70c0 -22.667 -7.5 -41.667 -22.5 -57s-32.5 -23 -52.5 -23s-37.5 7.66699 -52.5 23s-22.5 34.333 -22.5 57s7.5 41.667 22.5 57s32.5 23 52.5 23
s37.5 -7.66699 52.5 -23s22.5 -34.333 22.5 -57z" />
    <glyph glyph-name="quotedbl" unicode="&#x22;" horiz-adv-x="370" 
d="M105 710c17.333 0 31.668 -6 43.001 -18s17 -29.333 17 -52l-40 -195h-40l-40 195c0 22.667 5.66699 40 17 52s25.666 18 42.999 18zM265.002 710c17.333 0 31.668 -6 43.001 -18s17 -29.333 17 -52l-40 -195h-40l-40 195c0 22.667 5.66699 40 17 52s25.666 18 42.999 18
z" />
    <glyph glyph-name="numbersign" unicode="#" horiz-adv-x="650" 
d="M277 515h180l48 185h60l-48 -185h113v-50h-126l-59 -230h135v-50h-148l-47 -185h-60l47 185h-180l-47 -185h-60l47 185h-112v50h125l59 230h-134v50h147l48 185h60zM205 235h180l59 230h-180z" />
    <glyph glyph-name="dollar" unicode="$" horiz-adv-x="595" 
d="M275 10c6.66699 0 11.667 0.331055 15 0.998047v255l-82.5 48.5c-29 16.333 -55.5 34.833 -79.5 55.5s-43.833 44.667 -59.5 72s-23.5 60 -23.5 98c0 24 5 46.5 15 67.5s25.167 39.5 45.5 55.5s45.833 28.667 76.5 38s66.667 14 108 14v65h30v-68
c19.333 -3.33301 37 -8.16602 53 -14.499s29.667 -13.166 41 -20.499c13.333 -8 25.333 -17 36 -27c5.33301 8.66699 11.166 16.5 17.499 23.5s12.166 12.833 17.499 17.5c6.66699 5.33301 13.334 10 20.001 14h25v-190h-40c-8.66699 30.667 -21 58.667 -37 84
c-6.66699 10.667 -14.5 21.167 -23.5 31.5s-19 19.666 -30 27.999s-23 15.166 -36 20.499s-27.5 8.66602 -43.5 9.99902v-248c26 -16.667 53.667 -33 83 -49s56.333 -33.833 81 -53.5s45.167 -42.167 61.5 -67.5s24.5 -55.666 24.5 -90.999
c0 -25.333 -5.16699 -49.166 -15.5 -71.499s-25.833 -42.333 -46.5 -60s-46.667 -32 -78 -43s-68 -17.5 -110 -19.5v-66h-30v65c-28 0.666992 -52.833 4.33398 -74.5 11.001s-40.167 14 -55.5 22c-17.333 9.33301 -32.333 20 -45 32
c-5.33301 -9.33301 -11.166 -17.333 -17.499 -24s-12.166 -12.334 -17.499 -17.001c-6.66699 -5.33301 -13.334 -10 -20.001 -14h-25v190h40c10 -32.667 24 -62 42 -88c8 -11.333 17 -22.166 27 -32.499s21.5 -19.5 34.5 -27.5s27.5 -14.5 43.5 -19.5s33.667 -7.5 53 -7.5z
M400 134.998c0 23.333 -7.5 44.168 -22.5 62.501s-34.167 35.166 -57.5 50.499v-231c24.667 8 44.167 22.167 58.5 42.5s21.5 45.5 21.5 75.5zM215 580c0 -25.333 6.99902 -47.5 20.999 -66.5s32 -36.5 54 -52.5v226c-21.333 -5.33301 -39.166 -17.5 -53.499 -36.5
s-21.5 -42.5 -21.5 -70.5z" />
    <glyph glyph-name="percent" unicode="%" horiz-adv-x="750" 
d="M660 700l-515 -700h-55l515 700h55zM610 165c0 31.333 -1.66699 57 -5 77s-7.66602 35.833 -12.999 47.5s-11.333 19.667 -18 24s-13 6.5 -19 6.5s-12.333 -2.16699 -19 -6.5s-12.667 -12.333 -18 -24s-9.66602 -27.5 -12.999 -47.5s-5 -45.667 -5 -77s1.66699 -57 5 -77
s7.66602 -35.833 12.999 -47.5s11.333 -19.667 18 -24s13 -6.5 19 -6.5s12.333 2.16699 19 6.5s12.667 12.333 18 24s9.66602 27.5 12.999 47.5s5 45.667 5 77zM720 165c0 -26 -4.16699 -49.833 -12.5 -71.5s-19.833 -40.167 -34.5 -55.5s-32 -27.166 -52 -35.499
s-42 -12.5 -66 -12.5s-46 4.16699 -66 12.5s-37.333 20.166 -52 35.499s-26.167 33.833 -34.5 55.5s-12.5 45.5 -12.5 71.5s4.16699 49.833 12.5 71.5s19.833 40.167 34.5 55.5s32 27.166 52 35.499s42 12.5 66 12.5s46 -4.16699 66 -12.5s37.333 -20.166 52 -35.499
s26.167 -33.833 34.5 -55.5s12.5 -45.5 12.5 -71.5zM250 535c0 31.333 -1.66699 57 -5 77s-7.66602 35.833 -12.999 47.5s-11.333 19.667 -18 24s-13 6.5 -19 6.5s-12.333 -2.16699 -19 -6.5s-12.667 -12.333 -18 -24s-9.66602 -27.5 -12.999 -47.5s-5 -45.667 -5 -77
s1.66699 -57 5 -77s7.66602 -35.833 12.999 -47.5s11.333 -19.667 18 -24s13 -6.5 19 -6.5s12.333 2.16699 19 6.5s12.667 12.333 18 24s9.66602 27.5 12.999 47.5s5 45.667 5 77zM360 535c0 -26 -4.16699 -49.833 -12.5 -71.5s-19.833 -40.167 -34.5 -55.5
s-32 -27.166 -52 -35.499s-42 -12.5 -66 -12.5s-46 4.16699 -66 12.5s-37.333 20.166 -52 35.499s-26.167 33.833 -34.5 55.5s-12.5 45.5 -12.5 71.5s4.16699 49.833 12.5 71.5s19.833 40.167 34.5 55.5s32 27.166 52 35.499s42 12.5 66 12.5s46 -4.16699 66 -12.5
s37.333 -20.166 52 -35.499s26.167 -33.833 34.5 -55.5s12.5 -45.5 12.5 -71.5z" />
    <glyph glyph-name="ampersand" unicode="&#x26;" horiz-adv-x="690" 
d="M300 10c16 0 30.834 3.16797 44.501 9.50098s25.167 13.166 34.5 20.499c11.333 8.66699 21.666 18.667 30.999 30l-180 255c-7.33301 -8 -14 -19.333 -20 -34c-5.33301 -12.667 -10 -29.5 -14 -50.5s-6 -47.833 -6 -80.5c0 -50 10.833 -87.5 32.5 -112.5
s47.5 -37.5 77.5 -37.5zM560.001 345.001c0 -20 -2.33203 -39.3281 -6.99902 -57.9951s-9.66699 -35.334 -15 -50.001c-6.66699 -17.333 -13.667 -33 -21 -47l113 -160l50 -15v-15h-140c-28 0 -51.667 4.5 -71 13.5s-34 21.167 -44 36.5
c-10.667 -12.667 -23 -23.667 -37 -33c-12 -8 -27.167 -15.333 -45.5 -22s-39.166 -10 -62.499 -10c-47.333 0 -87.5 4.16699 -120.5 12.5s-59.833 20.166 -80.5 35.499s-35.667 33.833 -45 55.5s-14 45.5 -14 71.5c0 18.667 2.83301 35.667 8.5 51s13 29 22 41
s19.333 22.667 31 32s23.5 17.666 35.5 24.999c28.667 16 61.334 28 98.001 36l-55 80c-12 17.333 -23.333 37.166 -34 59.499s-16 47.5 -16 75.5c0 21.333 4.33301 41.333 13 60s21.667 35 39 49s38.666 25.167 63.999 33.5s55 12.5 89 12.5
c21.333 0 40.666 -3.5 57.999 -10.5s32 -14.5 44 -22.5c14 -9.33301 26.667 -20 38 -32c5.33301 8.66699 11.166 16.5 17.499 23.5s12.166 12.833 17.499 17.5c6.66699 5.33301 13.334 10 20.001 14h25v-190h-40c-9.33301 32 -21.666 61 -36.999 87
c-6.66699 10.667 -14.167 21.334 -22.5 32.001s-17.5 20.167 -27.5 28.5s-21.167 15 -33.5 20s-25.5 7.5 -39.5 7.5c-20 0 -37.5 -8 -52.5 -24s-22.5 -38 -22.5 -66c0 -12.667 2.16699 -25.334 6.5 -38.001s9.66602 -25 15.999 -37s13.166 -23.167 20.499 -33.5l19 -26.5
l178 -250c6 11.333 11.667 23.666 17 36.999c4.66699 11.333 8.83398 24.833 12.501 40.5s5.5 33.167 5.5 52.5l-80 30v15h185v-15z" />
    <glyph glyph-name="quotesingle" unicode="'" horiz-adv-x="210" 
d="M105 710c17.333 0 31.668 -6 43.001 -18s17 -29.333 17 -52l-40 -195h-40l-40 195c0 22.667 5.66699 40 17 52s25.666 18 42.999 18z" />
    <glyph glyph-name="parenleft" unicode="(" horiz-adv-x="355" 
d="M220 265c0 -51.333 2.5 -100.833 7.5 -148.5s12.5 -92.334 22.5 -134.001s22.5 -80.167 37.5 -115.5s32.5 -66 52.5 -92l-10 -15c-37.333 24.667 -73 54 -107 88s-63.833 72 -89.5 114s-46 88.333 -61 139s-22.5 105.334 -22.5 164.001s7.5 113.334 22.5 164.001
s35.333 97 61 139s55.5 79.833 89.5 113.5s69.667 63.167 107 88.5l10 -15c-20 -26 -37.5 -56.667 -52.5 -92s-27.5 -73.833 -37.5 -115.5s-17.5 -86.334 -22.5 -134.001s-7.5 -97.167 -7.5 -148.5z" />
    <glyph glyph-name="parenright" unicode=")" horiz-adv-x="355" 
d="M135 265c0 51.333 -2.5 100.833 -7.5 148.5s-12.5 92.334 -22.5 134.001s-22.5 80.167 -37.5 115.5s-32.5 66 -52.5 92l10 15c37.333 -25.333 73 -54.833 107 -88.5s63.833 -71.5 89.5 -113.5s46 -88.333 61 -139s22.5 -105.334 22.5 -164.001
s-7.5 -113.334 -22.5 -164.001s-35.333 -97 -61 -139s-55.5 -80 -89.5 -114s-69.667 -63.333 -107 -88l-10 15c20 26 37.5 56.667 52.5 92s27.5 73.833 37.5 115.5s17.5 86.334 22.5 134.001s7.5 97.167 7.5 148.5z" />
    <glyph glyph-name="asterisk" unicode="*" horiz-adv-x="390" 
d="M195 370c-12.667 0 -23.334 4.33301 -32.001 13s-13 19.334 -13 32.001l30 100l-70 -75c-11.333 -6.66699 -23.666 -8.66699 -36.999 -6s-22.666 9.66699 -27.999 21s-6.16602 22.666 -2.49902 33.999s11.167 20 22.5 26l100 25l-100 25
c-11.333 6 -18.833 14.667 -22.5 26s-2.83398 22.666 2.49902 33.999s14.666 18.333 27.999 21s25.666 0.666992 36.999 -6l70 -75l-30 100c0 12.667 4.33301 23.334 13 32.001s19.334 13 32.001 13s23.334 -4.33301 32.001 -13s13 -19.334 13 -32.001l-30 -100l70 75
c11.333 6.66699 23.666 8.66699 36.999 6s22.666 -9.66699 27.999 -21s6.16602 -22.666 2.49902 -33.999s-11.167 -20 -22.5 -26l-100 -25l100 -25c11.333 -6 18.833 -14.667 22.5 -26s2.83398 -22.666 -2.49902 -33.999s-14.666 -18.333 -27.999 -21
s-25.666 -0.666992 -36.999 6l-70 75l30 -100c0 -12.667 -4.33301 -23.334 -13 -32.001s-19.334 -13 -32.001 -13z" />
    <glyph glyph-name="plus" unicode="+" horiz-adv-x="515" 
d="M235 95v215h-200v45h200v215h45v-215h200v-45h-200v-215h-45z" />
    <glyph glyph-name="comma" unicode="," horiz-adv-x="245" 
d="M70 -105c15.333 5.33301 29.332 13.001 41.999 23.001c11.333 8.66699 22 20 32 34s17 31.667 21 53c-4 -2.66699 -8.33301 -5.33398 -13 -8.00098c-9.33301 -4.66699 -20 -7 -32 -7c-20 0 -37.5 7.5 -52.5 22.5s-22.5 32.5 -22.5 52.5s7.5 37.5 22.5 52.5
s32.5 22.5 52.5 22.5c22.667 0 41.667 -8 57 -24s23 -38 23 -66c0 -36.667 -6.16699 -66.5 -18.5 -89.5s-26.166 -41.167 -41.499 -54.5c-17.333 -16 -37.333 -28 -60 -36z" />
    <glyph glyph-name="hyphen" unicode="-" horiz-adv-x="470" 
d="M435 345v-45h-400v45h400z" />
    <glyph glyph-name="period" unicode="." horiz-adv-x="240" 
d="M195 65c0 -20 -7.5 -37.5 -22.5 -52.5s-32.5 -22.5 -52.5 -22.5s-37.5 7.5 -52.5 22.5s-22.5 32.5 -22.5 52.5s7.5 37.5 22.5 52.5s32.5 22.5 52.5 22.5s37.5 -7.5 52.5 -22.5s22.5 -32.5 22.5 -52.5z" />
    <glyph glyph-name="slash" unicode="/" horiz-adv-x="350" 
d="M370 750l-345 -800h-45l345 800h45z" />
    <glyph glyph-name="zero" unicode="0" horiz-adv-x="670" 
d="M335 -15c-40 0 -77.667 8 -113 24s-66 39.5 -92 70.5s-46.667 69.167 -62 114.5s-23 97.333 -23 156s7.66699 110.667 23 156s36 83.5 62 114.5s56.667 54.5 92 70.5s73 24 113 24s77.667 -8 113 -24s66 -39.5 92 -70.5s46.667 -69.167 62 -114.5s23 -97.333 23 -156
s-7.66699 -110.667 -23 -156s-36 -83.5 -62 -114.5s-56.667 -54.5 -92 -70.5s-73 -24 -113 -24zM335 5c14 0 27.833 4.66699 41.5 14s26 26.666 37 51.999s19.833 60.333 26.5 105s10 102.667 10 174s-3.33301 129.333 -10 174s-15.5 79.667 -26.5 105
s-23.333 42.666 -37 51.999s-27.5 14 -41.5 14s-27.833 -4.66699 -41.5 -14s-26 -26.666 -37 -51.999s-19.833 -60.333 -26.5 -105s-10 -102.667 -10 -174s3.33301 -129.333 10 -174s15.5 -79.667 26.5 -105s23.333 -42.666 37 -51.999s27.5 -14 41.5 -14z" />
    <glyph glyph-name="one" unicode="1" horiz-adv-x="415" 
d="M305 35l70 -20v-15h-305v15l70 20v549l-105 -74l-20 25l182 165h108v-665z" />
    <glyph glyph-name="two" unicode="2" horiz-adv-x="575" 
d="M519 510c0 -40 -9.66797 -73.832 -29.001 -101.499s-43.833 -51.834 -73.5 -72.501s-62.5 -39.334 -98.5 -56.001s-70.833 -34.334 -104.5 -53.001s-64 -39.5 -91 -62.5s-46.167 -51.167 -57.5 -84.5h370c2.66699 20 7.16699 37.5 13.5 52.5s13.166 27.5 20.499 37.5
c8 12 16.667 22 26 30h30v-200h-495v45c0 40.667 7.83301 76.667 23.5 108s35.334 60 59.001 86s49.334 50.5 77.001 73.5s53.334 46.333 77.001 70s43.334 49 59.001 76s23.5 57.5 23.5 91.5c0 45.333 -11 80 -33 104s-49.333 36 -82 36
c-12.667 0 -23.834 -0.833008 -33.501 -2.5s-18.167 -3.5 -25.5 -5.5l-21 -7v-160c-4.66699 -1.33301 -9 -2.33301 -13 -3s-8.16699 -1.16699 -12.5 -1.5s-9.16602 -0.5 -14.499 -0.5c-22.667 0 -40.834 6.83301 -54.501 20.5s-20.5 31.834 -20.5 54.501
c0 14.667 4.33301 29.834 13 45.501s22 29.667 40 42s40.5 22.5 67.5 30.5s58.5 12 94.5 12c46 0 85.833 -4.83301 119.5 -14.5s61.167 -23.334 82.5 -41.001s37.166 -39.167 47.499 -64.5s15.5 -53.666 15.5 -84.999z" />
    <glyph glyph-name="three" unicode="3" horiz-adv-x="585" 
d="M295 365c44.667 -2 84.6641 -9.66309 119.997 -22.9961c14.667 -6 29.334 -13.5 44.001 -22.5s27.5 -20 38.5 -33s20 -28.333 27 -46s10.5 -37.834 10.5 -60.501c0 -27.333 -5.5 -53 -16.5 -77s-28.333 -44.667 -52 -62s-54.167 -31 -91.5 -41s-82.333 -15 -135 -15
c-36 0 -67.5 4 -94.5 12s-49.5 18.167 -67.5 30.5s-31.333 26.166 -40 41.499s-13 30.666 -13 45.999c0 22.667 6.83301 40.834 20.5 54.501s31.834 20.5 54.501 20.5c5.33301 0 10.166 -0.333008 14.499 -1l12.5 -2c4 -0.666992 8.33301 -1.33398 13 -2.00098v-160
c6 -2.66699 13 -5.33398 21 -8.00098c7.33301 -2 15.833 -3.66699 25.5 -5s20.834 -2 33.501 -2c45.333 0 80.833 13.833 106.5 41.5s38.5 70.5 38.5 128.5c0 60 -12.5 104.167 -37.5 132.5s-57.5 42.5 -97.5 42.5h-50v25h50c14 0 27.333 3.16699 40 9.5
s23.834 15.833 33.501 28.5s17.334 28.834 23.001 48.501s8.5 42.5 8.5 68.5c0 52.667 -10.833 91.667 -32.5 117s-47.5 38 -77.5 38c-10 0 -19.333 -0.833008 -28 -2.5s-16 -3.5 -22 -5.5l-20 -7v-160c-4.66699 -1.33301 -9 -2.33301 -13 -3s-8.16699 -1.16699 -12.5 -1.5
s-9.16602 -0.5 -14.499 -0.5c-22.667 0 -40.834 6.83301 -54.501 20.5s-20.5 31.834 -20.5 54.501c0 14.667 4.33301 29.834 13 45.501s21.667 29.667 39 42s38.666 22.5 63.999 30.5s55 12 89 12c44 0 82.167 -5 114.5 -15s59.333 -23.167 81 -39.5
s37.834 -35.333 48.501 -57s16 -44.5 16 -68.5c0 -20.667 -3 -38.834 -9 -54.501s-14 -29.334 -24 -41.001s-21.333 -21.334 -34 -29.001s-25.334 -14.167 -38.001 -19.5c-31.333 -12 -66.333 -19 -105 -21v-5z" />
    <glyph glyph-name="four" unicode="4" horiz-adv-x="600" 
d="M540 15v-15h-305v15l70 20v150h-285l-20 30l375 495h95v-480h105v-45h-105v-150zM305 230v330l-250 -330h250z" />
    <glyph glyph-name="five" unicode="5" horiz-adv-x="570" 
d="M230 10c18.667 0 36 3.67285 52 11.0059s29.667 19.166 41 35.499s20.333 37.5 27 63.5s10 57.667 10 95c0 72.667 -12.5 124.167 -37.5 154.5s-59.167 45.5 -102.5 45.5c-19.333 0 -37.166 -3.5 -53.499 -10.5s-31.166 -14.5 -44.499 -22.5
c-15.333 -9.33301 -29.333 -20 -42 -32l-20 15l40 335h295c2.66699 20 7.16699 37.5 13.5 52.5s13.166 27.5 20.499 37.5c8 12 16.667 22 26 30h30v-195h-363l-27 -230c12 8 25.667 15.333 41 22c13.333 5.33301 28.666 10.5 45.999 15.5s36.666 7.5 57.999 7.5
c50 0 93.167 -5.33301 129.5 -16s66.5 -25.834 90.5 -45.501s41.667 -43.334 53 -71.001s17 -58.5 17 -92.5c0 -70 -23 -125.833 -69 -167.5s-116.333 -62.5 -211 -62.5c-36 0 -67.5 4 -94.5 12s-49.5 18.167 -67.5 30.5s-31.333 26.166 -40 41.499s-13 30.666 -13 45.999
c0 22.667 6.83301 40.834 20.5 54.501s31.834 20.5 54.501 20.5c5.33301 0 10.166 -0.333008 14.499 -1l12.5 -2c4 -0.666992 8.33301 -1.33398 13 -2.00098v-160c6 -2.66699 13 -5.33398 21 -8.00098c7.33301 -2 15.833 -3.66699 25.5 -5s20.834 -2 33.501 -2z" />
    <glyph glyph-name="six" unicode="6" horiz-adv-x="620" 
d="M320 5c8.66699 0 18.0029 3.3291 28.0029 9.99609s19.167 17.834 27.5 33.501s15.333 36.334 21 62.001s8.5 57.167 8.5 94.5s-2.83301 68.833 -8.5 94.5s-12.834 46.334 -21.501 62.001s-18.334 26.834 -29.001 33.501s-21 10 -31 10c-12.667 0 -24.5 -3 -35.5 -9
s-20.5 -15.5 -28.5 -28.5s-14.333 -30 -19 -51s-7 -46.5 -7 -76.5c0 -46 2.83301 -84.167 8.5 -114.5s13 -54.5 22 -72.5s19.167 -30.5 30.5 -37.5s22.666 -10.5 33.999 -10.5zM365.003 689.996c-22.667 0 -42.9971 -4.16406 -60.9971 -12.4971s-33.167 -24.333 -45.5 -48
s-21.833 -56.334 -28.5 -98.001s-10 -95.5 -10 -161.5c6.66699 11.333 15.667 21.333 27 30c9.33301 7.33301 21.333 14.166 36 20.499s32 9.5 52 9.5c37.333 0 70.833 -5.33301 100.5 -16s54.834 -25.5 75.501 -44.5s36.5 -41.667 47.5 -68s16.5 -55.166 16.5 -86.499
c0 -70 -21.833 -125.833 -65.5 -167.5s-106.834 -62.5 -189.501 -62.5c-40 0 -76.5 7 -109.5 21s-61.5 35.833 -85.5 65.5s-42.5 67.5 -55.5 113.5s-19.5 101 -19.5 165c0 61.333 7 114.833 21 160.5s33.667 83.667 59 114s56.166 53 92.499 68s77.166 22.5 122.499 22.5
c31.333 0 59.166 -4 83.499 -12s44.666 -18.167 60.999 -30.5s28.833 -26.333 37.5 -42s13 -30.834 13 -45.501c0 -22.667 -6.83301 -40.834 -20.5 -54.501s-31.834 -20.5 -54.501 -20.5c-5.33301 0 -10.5 0.166992 -15.5 0.5s-9.16699 0.833008 -12.5 1.5
c-4.66699 0.666992 -8.66699 1.66699 -12 3v160c-6 2 -12.333 4.33301 -19 7c-5.33301 2 -11.666 3.83301 -18.999 5.5s-14.666 2.5 -21.999 2.5z" />
    <glyph glyph-name="seven" unicode="7" horiz-adv-x="530" 
d="M505 700l-0.00292969 -44.999c0 -32.667 -4.5 -63.334 -13.5 -92.001s-20.5 -57.5 -34.5 -86.5l-44.5 -90.5c-15.667 -31.333 -30.5 -65.833 -44.5 -103.5s-25.5 -79.667 -34.5 -126s-13.5 -98.5 -13.5 -156.5h-175c0 56.667 6.66699 107 20 151s30.333 83.667 51 119
s43.834 67.666 69.501 96.999l75 85c24.333 27.333 46.833 54.833 67.5 82.5s36.334 57.834 47.001 90.501h-355c-2.66699 -20 -7.16699 -37.5 -13.5 -52.5s-13.166 -27.5 -20.499 -37.5c-8 -12 -16.667 -22 -26 -30h-30v195h475z" />
    <glyph glyph-name="eight" unicode="8" horiz-adv-x="615" 
d="M535 555c0 -16 -3.83301 -31.999 -11.5 -47.999s-17.667 -30.667 -30 -44s-26.666 -25.166 -42.999 -35.499s-33.166 -17.833 -50.499 -22.5c58 -25.333 103.333 -56.166 136 -92.499s49 -82.166 49 -137.499c0 -25.333 -5.66699 -49.333 -17 -72
s-29 -42.834 -53 -60.501s-54.167 -31.667 -90.5 -42s-79.5 -15.5 -129.5 -15.5c-44 0 -82 4.66699 -114 14s-58.5 22.166 -79.5 38.499s-36.5 35.333 -46.5 57s-15 45.167 -15 70.5c0 18.667 4.33301 37.167 13 55.5s20.5 35.5 35.5 51.5s32.5 30.333 52.5 43
s41.333 22.667 64 30c-20 11.333 -38.333 23.333 -55 36s-30.834 26.667 -42.501 42s-20.834 32.166 -27.501 50.499s-10 38.833 -10 61.5c0 24.667 5 48 15 70s25.5 41.167 46.5 57.5s47.5 29.166 79.5 38.499s70 14 114 14c32.667 0 62 -4.66699 88 -14s48 -21.5 66 -36.5
s31.833 -32 41.5 -51s14.5 -38.5 14.5 -58.5zM420 145.001c0 32.667 -16 65.168 -48 97.501s-74.333 59.833 -127 82.5c-35.333 -12.667 -64.166 -31.834 -86.499 -57.501s-33.5 -59.834 -33.5 -102.501c0 -21.333 4.16699 -41.333 12.5 -60s19.666 -35 33.999 -49
s31.166 -25.167 50.499 -33.5s40.333 -12.5 63 -12.5c42.667 0 75.834 11.833 99.501 35.5s35.5 56.834 35.5 99.501zM235 565.002c0 -53.333 45.001 -99.999 135.001 -139.999c22.667 10 42.5 25.333 59.5 46s25.5 48.667 25.5 84c0 18.667 -3.5 36.167 -10.5 52.5
s-16 30.666 -27 42.999s-23.833 22 -38.5 29s-29.334 10.5 -44.001 10.5c-28 0 -51.667 -10.833 -71 -32.5s-29 -52.5 -29 -92.5z" />
    <glyph glyph-name="nine" unicode="9" horiz-adv-x="620" 
d="M300 695c-8.66699 0 -18.0029 -3.3291 -28.0029 -9.99609s-19.167 -17.834 -27.5 -33.501s-15.333 -36.334 -21 -62.001s-8.5 -57.167 -8.5 -94.5s2.83301 -68.833 8.5 -94.5s12.834 -46.334 21.501 -62.001s18.334 -26.834 29.001 -33.501s21 -10 31 -10
c12.667 0 24.5 3 35.5 9s20.5 15.5 28.5 28.5s14.333 30 19 51s7 46.5 7 76.5c0 46 -2.83301 84.167 -8.5 114.5s-13 54.5 -22 72.5s-19.167 30.5 -30.5 37.5s-22.666 10.5 -33.999 10.5zM254.997 10.0039c22.667 0 42.8271 4.16895 60.4941 12.502s32.834 24.333 45.501 48
s22.334 56.334 29.001 98.001s10 95.5 10 161.5c-7.33301 -11.333 -16.666 -21.333 -27.999 -30c-9.33301 -7.33301 -21.166 -14.166 -35.499 -20.499s-31.5 -9.5 -51.5 -9.5c-37.333 0 -70.833 5.33301 -100.5 16s-54.834 25.5 -75.501 44.5s-36.5 41.667 -47.5 68
s-16.5 55.166 -16.5 86.499c0 70 21.833 125.833 65.5 167.5s106.834 62.5 189.501 62.5c40 0 76.5 -7 109.5 -21s61.5 -35.833 85.5 -65.5s42.5 -67.5 55.5 -113.5s19.5 -101 19.5 -165c0 -61.333 -7 -114.833 -21 -160.5s-33.667 -83.667 -59 -114s-56.333 -53 -93 -68
s-77.334 -22.5 -122.001 -22.5c-31.333 0 -59.166 4 -83.499 12s-44.666 18.167 -60.999 30.5s-28.833 26.166 -37.5 41.499s-13 30.666 -13 45.999c0 22.667 6.83301 40.834 20.5 54.501s31.834 20.5 54.501 20.5c5.33301 0 10.166 -0.333008 14.499 -1l12.5 -2
c4 -0.666992 8.33301 -1.33398 13 -2.00098v-160c6 -2.66699 12.333 -5.33398 19 -8.00098c12.667 -4.66699 26.334 -7 41.001 -7z" />
    <glyph glyph-name="colon" unicode=":" horiz-adv-x="240" 
d="M195 65c0 -20 -7.5 -37.5 -22.5 -52.5s-32.5 -22.5 -52.5 -22.5s-37.5 7.5 -52.5 22.5s-22.5 32.5 -22.5 52.5s7.5 37.5 22.5 52.5s32.5 22.5 52.5 22.5s37.5 -7.5 52.5 -22.5s22.5 -32.5 22.5 -52.5zM195 435c0 -20 -7.5 -37.5 -22.5 -52.5s-32.5 -22.5 -52.5 -22.5
s-37.5 7.5 -52.5 22.5s-22.5 32.5 -22.5 52.5s7.5 37.5 22.5 52.5s32.5 22.5 52.5 22.5s37.5 -7.5 52.5 -22.5s22.5 -32.5 22.5 -52.5z" />
    <glyph glyph-name="semicolon" unicode=";" horiz-adv-x="245" 
d="M70 -105c15.333 5.33301 29.332 13.001 41.999 23.001c11.333 8.66699 22 20 32 34s17 31.667 21 53c-4 -2.66699 -8.33301 -5.33398 -13 -8.00098c-9.33301 -4.66699 -20 -7 -32 -7c-20 0 -37.5 7.5 -52.5 22.5s-22.5 32.5 -22.5 52.5s7.5 37.5 22.5 52.5
s32.5 22.5 52.5 22.5c22.667 0 41.667 -8 57 -24s23 -38 23 -66c0 -36.667 -6.16699 -66.5 -18.5 -89.5s-26.166 -41.167 -41.499 -54.5c-17.333 -16 -37.333 -28 -60 -36zM194.999 435.001c0 -20 -7.5 -37.5 -22.5 -52.5s-32.5 -22.5 -52.5 -22.5s-37.5 7.5 -52.5 22.5
s-22.5 32.5 -22.5 52.5s7.5 37.5 22.5 52.5s32.5 22.5 52.5 22.5s37.5 -7.5 52.5 -22.5s22.5 -32.5 22.5 -52.5z" />
    <glyph glyph-name="less" unicode="&#x3c;" horiz-adv-x="505" 
d="M470 500v-55l-345 -195l345 -195v-55l-445 250z" />
    <glyph glyph-name="equal" unicode="=" horiz-adv-x="460" 
d="M425 430v-45h-390v45h390zM425 280v-45h-390v45h390z" />
    <glyph glyph-name="greater" unicode="&#x3e;" horiz-adv-x="505" 
d="M480 250l-445 -250v55l345 195l-345 195v55z" />
    <glyph glyph-name="question" unicode="?" 
d="M210 690c-12.667 0 -23.833 -0.834961 -33.5 -2.50195s-18.167 -3.5 -25.5 -5.5l-21 -7v-160c-4.66699 -1.33301 -9 -2.33301 -13 -3s-8.16699 -1.16699 -12.5 -1.5s-9.16602 -0.5 -14.499 -0.5c-22.667 0 -40.834 6.83301 -54.501 20.5s-20.5 31.834 -20.5 54.501
c0 14.667 4.33301 29.834 13 45.501s22 29.667 40 42s40.5 22.5 67.5 30.5s58.5 12 94.5 12c51.333 0 95.5 -5.33301 132.5 -16s67.5 -25.167 91.5 -43.5s41.833 -40 53.5 -65s17.5 -51.833 17.5 -80.5c0 -55.333 -20.333 -101.833 -61 -139.5
s-103.667 -62.834 -189 -75.501l-5 -80h-40l-5 95c18.667 7.33301 35.667 16.333 51 27s28.5 23.834 39.5 39.501s19.5 34.334 25.5 56.001s9 47.5 9 77.5c0 65.333 -11.833 111.666 -35.5 138.999s-58.5 41 -104.5 41zM320.001 69.998c0 -22.667 -7.5 -41.667 -22.5 -57
s-32.5 -23 -52.5 -23s-37.5 7.66699 -52.5 23s-22.5 34.333 -22.5 57s7.5 41.667 22.5 57s32.5 23 52.5 23s37.5 -7.66699 52.5 -23s22.5 -34.333 22.5 -57z" />
    <glyph glyph-name="at" unicode="@" horiz-adv-x="840" 
d="M345 260c0 -28.667 1.66699 -52.667 5 -72s7.83301 -34.666 13.5 -45.999s12.167 -19.5 19.5 -24.5s14.666 -7.5 21.999 -7.5c8.66699 0 16.167 3.16699 22.5 9.5s11.5 13.166 15.5 20.499c4.66699 8.66699 8.66699 18.667 12 30v305
c-15.333 0 -29.666 -3.5 -42.999 -10.5s-25 -18.667 -35 -35s-17.833 -38.333 -23.5 -66s-8.5 -62.167 -8.5 -103.5zM75 290c0 -51.333 8.99902 -98.9971 26.999 -142.997s42.667 -82 74 -114s68 -57.167 110 -75.5s86.667 -27.5 134 -27.5c28 0 53.333 3.16699 76 9.5
s42.667 13.166 60 20.499c20 8.66699 38 18.667 54 30l15 -25c-17.333 -12.667 -36.666 -23.667 -57.999 -33c-18 -8 -39.5 -15.333 -64.5 -22s-52.5 -10 -82.5 -10c-52.667 0 -102 10 -148 30s-86.167 47.5 -120.5 82.5s-61.5 76.167 -81.5 123.5s-30 98.666 -30 153.999
c0 54.667 10 105.834 30 153.501s47.167 89 81.5 124s74.5 62.5 120.5 82.5s95.333 30 148 30s102 -10 148 -30s86.167 -47.5 120.5 -82.5s61.5 -76.333 81.5 -124s30 -98.834 30 -153.501c0 -34 -4.66699 -64.167 -14 -90.5s-21.666 -48.833 -36.999 -67.5
s-32.833 -32.834 -52.5 -42.501s-40.167 -14.5 -61.5 -14.5c-38 0 -67.5 4.16699 -88.5 12.5s-36.833 17.5 -47.5 27.5c-12 12 -20 25.333 -24 40c-4.66699 -14.667 -11.667 -28 -21 -40c-8 -10 -19.167 -19.167 -33.5 -27.5s-32.833 -12.5 -55.5 -12.5
c-24 0 -46 4.16699 -66 12.5s-37.333 20.5 -52 36.5s-26.167 35.5 -34.5 58.5s-12.5 48.833 -12.5 77.5c0 75.333 21.667 134.166 65 176.499s106.666 63.5 189.999 63.5h145v-325c0 -25.333 5.33301 -44.166 16 -56.499s23.667 -18.5 39 -18.5c11.333 0 23.333 4 36 12
s24.5 20 35.5 36s20.167 35.833 27.5 59.5s11 51.167 11 82.5c0 51.333 -9 99 -27 143s-42.667 82 -74 114s-68 57.167 -110 75.5s-86.667 27.5 -134 27.5s-92 -9.16699 -134 -27.5s-78.667 -43.5 -110 -75.5s-56 -70 -74 -114s-27 -91.667 -27 -143z" />
    <glyph glyph-name="A" unicode="A" horiz-adv-x="680" 
d="M165 15l-0.00195312 -15h-185v15l80 30l275 665h30l285 -680l50 -15v-15h-120c-37.333 0 -66.666 8.5 -87.999 25.5s-36.666 36.833 -45.999 59.5l-51 120h-239l-66 -160zM165.998 230h219l-110 263z" />
    <glyph glyph-name="B" unicode="B" horiz-adv-x="680" 
d="M395 365c47.333 -2 89.667 -9.33594 127 -22.0029c16 -5.33301 31.667 -12.333 47 -21s29 -19.167 41 -31.5s21.667 -26.666 29 -42.999s11 -35.5 11 -57.5c0 -27.333 -5.33301 -52.666 -16 -75.999s-28.167 -43.5 -52.5 -60.5s-56.333 -30.167 -96 -39.5
s-88.167 -14 -145.5 -14h-290v15l60 15v640l-60 15v15h270c54 0 99.667 -4.66699 137 -14s67.666 -22 90.999 -38s40.333 -34.5 51 -55.5s16 -43.5 16 -67.5c0 -19.333 -3.16699 -36.5 -9.5 -51.5s-14.666 -28 -24.999 -39s-22 -20.167 -35 -27.5s-26.5 -13.333 -40.5 -18
c-32 -11.333 -68.667 -17.666 -110 -18.999v-5zM275.001 354.997v-330.002h65c40 0 73.333 14.333 100 43s40 69.334 40 122.001s-13.333 93.334 -40 122.001s-60 43 -100 43h-65zM275.001 379.995h45c16 0 31.667 3.5 47 10.5s28.666 17 39.999 30s20.5 28.333 27.5 46
s10.5 37.167 10.5 58.5c0 22.667 -3.5 43.167 -10.5 61.5s-16.167 34 -27.5 47s-24.666 23.167 -39.999 30.5s-31 11 -47 11h-45v-295z" />
    <glyph glyph-name="C" unicode="C" horiz-adv-x="650" 
d="M361 715c23.333 0 44.832 -3.50098 64.499 -10.501s36.5 -14.5 50.5 -22.5c16.667 -9.33301 31.334 -20 44.001 -32c5.33301 8.66699 11.166 16.5 17.499 23.5s12.166 12.833 17.499 17.5c6.66699 5.33301 13.334 10 20.001 14h25v-190h-40
c-9.33301 32 -22.333 61 -39 87c-14 22 -32.667 42.167 -56 60.5s-51.666 27.5 -84.999 27.5c-20 0 -39.667 -5.5 -59 -16.5s-36.5 -29.667 -51.5 -56s-27 -61.333 -36 -105s-13.5 -97.834 -13.5 -162.501c0 -65.333 4.66699 -119.666 14 -162.999
s22.333 -78.166 39 -104.499s36.334 -45 59.001 -56s47 -16.5 73 -16.5c24 0 47 5.16699 69 15.5s41.667 24.333 59 42s31.166 37.834 41.499 60.501s15.5 46.667 15.5 72h25c0 -28.667 -5.83301 -56 -17.5 -82s-27.834 -48.833 -48.501 -68.5s-45 -35.334 -73 -47.001
s-58.333 -17.5 -91 -17.5c-52.667 0 -100 8 -142 24s-77.667 39.5 -107 70.5s-51.833 69.167 -67.5 114.5s-23.5 97.333 -23.5 156s7.66699 110.667 23 156s37 83.5 65 114.5s61.333 54.5 100 70.5s81.334 24 128.001 24z" />
    <glyph glyph-name="D" unicode="D" horiz-adv-x="715" 
d="M305 700c120 0 211.667 -30.833 275 -92.5s95 -147.5 95 -257.5s-31.667 -195.833 -95 -257.5s-155 -92.5 -275 -92.5h-255v15l60 15v640l-60 15v15h255zM275 675v-649.996h30c28.667 0 55 5.5 79 16.5s44.5 29.167 61.5 54.5s30.333 58.666 40 99.999
s14.5 92.666 14.5 153.999s-4.83301 112.666 -14.5 153.999s-23 74.666 -40 99.999s-37.5 43.5 -61.5 54.5s-50.333 16.5 -79 16.5h-30z" />
    <glyph glyph-name="E" unicode="E" horiz-adv-x="645" 
d="M390 360c2.66699 13.333 6.33398 26.167 11.001 38.5s9.66699 23.166 15 32.499c6 10.667 12.333 20.334 19 29.001h30v-225h-30c-6.66699 8.66699 -13 18.334 -19 29.001c-5.33301 9.33301 -10.333 20 -15 32s-8.33398 25 -11.001 39h-115v-310h235
c0 26 3.33301 48.667 10 68s14 35.666 22 48.999c9.33301 15.333 20.333 28 33 38h30v-180h-555v15l60 15v640l-60 15v15h535v-180h-30c-12.667 10 -23.667 22.667 -33 38c-8 13.333 -15.333 29.5 -22 48.5s-10 41.833 -10 68.5h-215v-315h115z" />
    <glyph glyph-name="F" unicode="F" horiz-adv-x="610" 
d="M390 360c2.66699 13.333 6.33398 26.166 11.001 38.499s9.66699 23.166 15 32.499c6 10.667 12.333 20.334 19 29.001h30v-225h-30c-6.66699 8.66699 -13 18.334 -19 29.001c-5.33301 9.33301 -10.333 20 -15 32s-8.33398 25 -11.001 39h-115v-305l60 -15v-15h-285v15
l60 15v640l-60 15v15h535v-180h-30c-12.667 10 -23.667 22.667 -33 38c-8 13.333 -15.333 29.5 -22 48.5s-10 41.833 -10 68.5h-215v-315h115z" />
    <glyph glyph-name="G" unicode="G" horiz-adv-x="700" 
d="M365 20c15.333 0 28.4971 4.16602 39.4971 12.499s20.167 17.5 27.5 27.5c8.66699 12 16.334 25.333 23.001 40v230l-60 15v15h285v-15l-60 -15v-335h-15c-29.333 0 -52.833 4.16699 -70.5 12.5s-31.167 17.5 -40.5 27.5c-11.333 12 -19.333 25.333 -24 40
c-8.66699 -17.333 -19.667 -32.333 -33 -45c-11.333 -11.333 -26.333 -21.666 -45 -30.999s-41 -14 -67 -14c-37.333 0 -73 8 -107 24s-63.833 39.5 -89.5 70.5s-46 69.167 -61 114.5s-22.5 97.333 -22.5 156s7.66699 110.667 23 156s37 83.5 65 114.5s61.333 54.5 100 70.5
s81.334 24 128.001 24c23.333 0 44.833 -3.5 64.5 -10.5s36.5 -14.5 50.5 -22.5c16.667 -9.33301 31.334 -20 44.001 -32c5.33301 8.66699 11.166 16.5 17.499 23.5s12.166 12.833 17.499 17.5c6.66699 5.33301 13.334 10 20.001 14h25v-190h-40
c-9.33301 32 -22.333 61 -39 87c-14 22 -32.667 42.167 -56 60.5s-51.666 27.5 -84.999 27.5c-20 0 -39.667 -5.5 -59 -16.5s-36.5 -29.667 -51.5 -56s-27 -61.333 -36 -105s-13.5 -97.834 -13.5 -162.501c0 -65.333 4 -119.166 12 -161.499s18.833 -76 32.5 -101
s29.167 -42.5 46.5 -52.5s35.333 -15 54 -15z" />
    <glyph glyph-name="H" unicode="H" horiz-adv-x="765" 
d="M50 685v15h285v-15l-60 -15v-310h215v310l-60 15v15h285v-15l-60 -15v-640l60 -15v-15h-285v15l60 15v305h-215v-305l60 -15v-15h-285v15l60 15v640z" />
    <glyph glyph-name="I" unicode="I" horiz-adv-x="385" 
d="M50 685v15h285v-15l-60 -15v-640l60 -15v-15h-285v15l60 15v640z" />
    <glyph glyph-name="J" unicode="J" horiz-adv-x="550" 
d="M165 5c17.333 0 33.332 3.33398 47.999 10.001s27.334 17.667 38.001 33s19 35.5 25 60.5s9 55.5 9 91.5v470l-60 15v15h285v-15l-60 -15v-470c0 -67.333 -21 -120 -63 -158s-109.333 -57 -202 -57c-32.667 0 -60.667 3.16699 -84 9.5s-42.5 14.666 -57.5 24.999
s-26 22 -33 35s-10.5 26.5 -10.5 40.5c-0 22.667 6.83301 40.834 20.5 54.501s31.834 20.5 54.501 20.5c5.33301 0 10.166 -0.333008 14.499 -1l12.5 -2c4 -0.666992 8.33301 -1.33398 13 -2.00098v-150c4 -2 8.66699 -3.66699 14 -5c10 -3.33301 22 -5 36 -5z" />
    <glyph glyph-name="K" unicode="K" horiz-adv-x="690" 
d="M700 15v-15h-140c-32.667 0 -59.5 8.5 -80.5 25.5s-39.167 36.833 -54.5 59.5l-150 230v-285l60 -15v-15h-285v15l60 15v640l-60 15v15h285v-15l-60 -15v-314l245 299l-75 30v15h190v-15l-80 -30l-175 -215l270 -410z" />
    <glyph glyph-name="L" unicode="L" horiz-adv-x="610" 
d="M335 700v-14.999l-60 -15v-645h215c0 26 3.33301 48.667 10 68s14 35.666 22 48.999c9.33301 15.333 20.333 28 33 38h30v-180h-535v15l60 15v640l-60 15v15h285z" />
    <glyph glyph-name="M" unicode="M" horiz-adv-x="985" 
d="M935 700l-0.00195312 -15.001l-60 -15v-640l60 -15v-15h-285v15l60 15v545l-235 -585h-30l-305 585v-530l80 -30v-15h-190v15l80 30v625l-60 15v15h125c18.667 0 35 -2.16699 49 -6.5s26.333 -10.166 37 -17.499s19.834 -16.166 27.501 -26.499
s14.834 -21.833 21.501 -34.5l218 -417l167 417c5.33301 14 11.5 26.167 18.5 36.5s15.5 19.166 25.5 26.499s22.333 12.833 37 16.5s32.667 5.5 54 5.5h105z" />
    <glyph glyph-name="N" unicode="N" horiz-adv-x="740" 
d="M605 655l-80 29.999v15h190v-15l-80 -30v-670h-30l-465 545v-485l80 -30v-15h-190v15l80 30v620l-70 20v15h105c20 0 37.333 -2.16699 52 -6.5s27.5 -10 38.5 -17s20.5 -14.667 28.5 -23s15 -16.166 21 -23.499l320 -375v400z" />
    <glyph glyph-name="O" unicode="O" horiz-adv-x="740" 
d="M520 350c0 66 -4.5 121.167 -13.5 165.5s-20.667 79.833 -35 106.5s-30.5 45.5 -48.5 56.5s-35.667 16.5 -53 16.5s-35 -5.5 -53 -16.5s-34.167 -29.833 -48.5 -56.5s-26 -62.167 -35 -106.5s-13.5 -99.5 -13.5 -165.5s4.5 -121.167 13.5 -165.5
s20.667 -79.833 35 -106.5s30.5 -45.5 48.5 -56.5s35.667 -16.5 53 -16.5s35 5.5 53 16.5s34.167 29.833 48.5 56.5s26 62.167 35 106.5s13.5 99.5 13.5 165.5zM695 350c0 -58.667 -7.83301 -110.667 -23.5 -156s-37.667 -83.5 -66 -114.5s-62.5 -54.5 -102.5 -70.5
s-84.333 -24 -133 -24s-93 8 -133 24s-74.167 39.5 -102.5 70.5s-50.333 69.167 -66 114.5s-23.5 97.333 -23.5 156s7.83301 110.667 23.5 156s37.667 83.5 66 114.5s62.5 54.5 102.5 70.5s84.333 24 133 24s93 -8 133 -24s74.167 -39.5 102.5 -70.5
s50.333 -69.167 66 -114.5s23.5 -97.333 23.5 -156z" />
    <glyph glyph-name="P" unicode="P" horiz-adv-x="675" 
d="M330 295c20 0 38.5 3.83008 55.5 11.4971s31.833 19.334 44.5 35.001s22.5 35.334 29.5 59.001s10.5 51.834 10.5 84.501c0 64.667 -13.333 112.5 -40 143.5s-60 46.5 -100 46.5h-55v-380h55zM275 269.997v-239.998l60 -15v-15h-285v15l60 15v640l-60 15v15h280
c57.333 0 105.833 -4.83301 145.5 -14.5s71.667 -23.834 96 -42.501s41.833 -41.167 52.5 -67.5s16 -56.5 16 -90.5s-5.33301 -64.167 -16 -90.5s-28.167 -48.833 -52.5 -67.5s-56.333 -32.834 -96 -42.501s-88.167 -14.5 -145.5 -14.5h-55z" />
    <glyph glyph-name="Q" unicode="Q" horiz-adv-x="740" 
d="M695 350c0 -100.667 -22.001 -181.166 -66.001 -241.499s-103.667 -98.166 -179 -113.499c0 -27.333 1.5 -49.833 4.5 -67.5s6.83301 -31.5 11.5 -41.5s10 -16.833 16 -20.5s12 -5.5 18 -5.5c9.33301 0 16.666 1.66699 21.999 5c2.66699 1.33301 5.33398 3 8.00098 5
l10 -25c-4 -2.66699 -9.33301 -5.33398 -16 -8.00098c-12.667 -4.66699 -30.667 -7 -54 -7c-27.333 0 -52.166 4.16699 -74.499 12.5s-41.333 19.833 -57 34.5s-27.667 32 -36 52s-12.5 42 -12.5 66c-75.333 15.333 -135 53.166 -179 113.499s-66 140.833 -66 241.5
c0 58.667 7.83301 110.667 23.5 156s37.667 83.5 66 114.5s62.5 54.5 102.5 70.5s84.333 24 133 24s93 -8 133 -24s74.167 -39.5 102.5 -70.5s50.333 -69.167 66 -114.5s23.5 -97.333 23.5 -156zM519.999 350.001c0 66 -4.5 121.167 -13.5 165.5s-20.667 79.833 -35 106.5
s-30.5 45.5 -48.5 56.5s-35.667 16.5 -53 16.5s-35 -5.5 -53 -16.5s-34.167 -29.833 -48.5 -56.5s-26 -62.167 -35 -106.5s-13.5 -99.5 -13.5 -165.5s4.5 -121.167 13.5 -165.5s20.667 -79.833 35 -106.5s30.5 -45.5 48.5 -56.5s35.667 -16.5 53 -16.5s35 5.5 53 16.5
s34.167 29.833 48.5 56.5s26 62.167 35 106.5s13.5 99.5 13.5 165.5z" />
    <glyph glyph-name="R" unicode="R" horiz-adv-x="700" 
d="M400 320c22.667 -0.666992 44.332 -4.33496 64.999 -11.002c17.333 -5.33301 35 -14.166 53 -26.499s32 -29.833 42 -52.5l90 -200l50 -15v-15h-140c-30 0 -54.667 7.83301 -74 23.5s-34.666 36.167 -45.999 61.5l-100 225h-65v-280l70 -15v-15h-295v15l60 15v640l-60 15
v15h265c60 0 110.333 -4.83301 151 -14.5s73.5 -23 98.5 -40s43 -37.5 54 -61.5s16.5 -50.333 16.5 -79c0 -22.667 -3.33301 -42.5 -10 -59.5s-15.5 -32 -26.5 -45s-23.667 -23.833 -38 -32.5s-28.833 -15.667 -43.5 -21c-34.667 -13.333 -73.667 -20.666 -117 -21.999v-5z
M314.998 334.999c45.333 0 81.666 14.5 108.999 43.5s41 71.167 41 126.5s-13.667 97.5 -41 126.5s-63.666 43.5 -108.999 43.5h-40v-340h40z" />
    <glyph glyph-name="S" unicode="S" horiz-adv-x="595" 
d="M275 10c38 0 68.332 11.333 90.999 34s34 53 34 91c0 26 -8.83301 48.5 -26.5 67.5s-39.5 36.833 -65.5 53.5s-54.5 33.334 -85.5 50.001s-59.5 35.667 -85.5 57s-47.833 46.166 -65.5 74.499s-26.5 62.5 -26.5 102.5c0 24 5 46.5 15 67.5s25.167 39.5 45.5 55.5
s45.833 28.667 76.5 38s66.667 14 108 14c23.333 0 45 -3.5 65 -10.5s37 -14.5 51 -22.5c16.667 -9.33301 31.334 -20 44.001 -32c5.33301 8.66699 11.166 16.5 17.499 23.5s12.166 12.833 17.499 17.5c6.66699 5.33301 13.334 10 20.001 14h25v-190h-40
c-9.33301 32 -22.333 61 -39 87c-14 22 -32.667 42.167 -56 60.5s-51.666 27.5 -84.999 27.5c-12.667 0 -24.667 -2.66699 -36 -8s-21.333 -12.833 -30 -22.5s-15.667 -21.334 -21 -35.001s-8 -28.5 -8 -44.5c0 -28.667 8.83301 -53.167 26.5 -73.5
s39.5 -39.166 65.5 -56.499s54.5 -34.333 85.5 -51s59.5 -35.167 85.5 -55.5s47.833 -43.5 65.5 -69.5s26.5 -57.333 26.5 -94c0 -26 -5.66699 -50.833 -17 -74.5s-28.333 -44.5 -51 -62.5s-51.334 -32.167 -86.001 -42.5s-75 -15.5 -121 -15.5
c-29.333 0 -55 3.33301 -77 10s-40.667 14 -56 22c-18 9.33301 -33.667 20.333 -47 33c-5.33301 -9.33301 -11.166 -17.333 -17.499 -24s-12.166 -12.334 -17.499 -17.001c-6.66699 -5.33301 -13.334 -10 -20.001 -14h-25v190h40c10 -32.667 24 -62 42 -88
c8 -11.333 17 -22.166 27 -32.499s21.5 -19.5 34.5 -27.5s27.5 -14.5 43.5 -19.5s33.667 -7.5 53 -7.5z" />
    <glyph glyph-name="T" unicode="T" horiz-adv-x="635" 
d="M175 0v15l60 15v645h-115c0 -26.667 -3.5 -49.5 -10.5 -68.5s-14.5 -35.167 -22.5 -48.5c-9.33301 -15.333 -20 -28 -32 -38h-30v180h585v-180h-30c-12.667 10 -23.667 22.667 -33 38c-8 13.333 -15.333 29.5 -22 48.5s-10 41.833 -10 68.5h-115v-645l60 -15v-15h-285z
" />
    <glyph glyph-name="U" unicode="U" horiz-adv-x="710" 
d="M595 655l-79.998 29.998v15h190v-15l-80 -30v-405c0 -41.333 -5.83301 -78.333 -17.5 -111s-27.834 -60.5 -48.501 -83.5s-45 -40.5 -73 -52.5s-58.333 -18 -91 -18c-100 0 -175 23.5 -225 70.5s-75 111.833 -75 194.5v420l-60 15v15h285v-15l-60 -15v-420
c0 -45.333 3.66699 -83.166 11 -113.499s17.666 -55 30.999 -74s29.5 -32.5 48.5 -40.5s40.5 -12 64.5 -12c22.667 0 44.667 5.5 66 16.5s40.5 26.833 57.5 47.5s30.667 45.834 41 75.501s15.5 63.167 15.5 100.5v405z" />
    <glyph glyph-name="V" unicode="V" horiz-adv-x="665" 
d="M575 655l-74.999 30v15h185v-15l-80 -30l-245 -665h-30l-300 680l-50 15v15h120c37.333 0 66.666 -8.5 87.999 -25.5s37 -36.833 47 -59.5l177 -403z" />
    <glyph glyph-name="W" unicode="W" horiz-adv-x="985" 
d="M35 675l-55 10v15h120c38 0 67.833 -8.5 89.5 -25.5s36.834 -36.833 45.501 -59.5l151 -385l88 258l-74 187l-55 10v15h120c38 0 67.667 -8.5 89 -25.5s36.666 -36.833 45.999 -59.5l151 -385l144 425l-75 30v15h185v-15l-80 -30l-225 -665h-30l-180 457l-155 -457h-30z
" />
    <glyph glyph-name="X" unicode="X" horiz-adv-x="665" 
d="M265 296l-220 374l-50 15v15h145c35.333 0 62.833 -7.83301 82.5 -23.5s37.167 -36.167 52.5 -61.5l96 -164l139 204l-75 30v15h190v-15l-80 -30l-157 -231l232 -394l50 -15v-15h-145c-35.333 -0 -62.833 7.83301 -82.5 23.5s-37.167 36.167 -52.5 61.5l-108 183
l-152 -223l75 -30v-15h-190v15l80 30z" />
    <glyph glyph-name="Y" unicode="Y" horiz-adv-x="665" 
d="M50 670l-50 14.998v15h125c18.667 0 35 -2.16699 49 -6.5s26.333 -10.166 37 -17.499s20 -16.166 28 -26.499s15 -21.833 21 -34.5l148 -295l152 335l-75 30v15h190v-15l-80 -30l-175 -385v-240l60 -15v-15h-285v15l60 15v230z" />
    <glyph glyph-name="Z" unicode="Z" horiz-adv-x="635" 
d="M495 25c0 26 3.33301 48.668 10 68.001s14 35.666 22 48.999c9.33301 15.333 20.333 28 33 38h30v-180h-550v25l371 650h-261c0 -26.667 -3.5 -49.5 -10.5 -68.5s-14.5 -35.167 -22.5 -48.5c-9.33301 -15.333 -20 -28 -32 -38h-30v180h540v-25l-370 -650h270z" />
    <glyph glyph-name="bracketleft" unicode="[" horiz-adv-x="350" 
d="M340 720v-25h-95v-890h95v-25h-255v940h255z" />
    <glyph glyph-name="backslash" unicode="\" horiz-adv-x="350" 
d="M25 750l345 -800h-45l-345 800h45z" />
    <glyph glyph-name="bracketright" unicode="]" horiz-adv-x="350" 
d="M265 720v-940h-255v25h95v890h-95v25h255z" />
    <glyph glyph-name="asciicircum" unicode="^" horiz-adv-x="480" 
d="M240 720l210 -290h-60l-150 205l-150 -205h-60z" />
    <glyph glyph-name="underscore" unicode="_" horiz-adv-x="390" 
d="M390 -55v-45h-390v45h390z" />
    <glyph glyph-name="grave" unicode="`" horiz-adv-x="220" 
d="M150 700l40 -150h-35l-135 150h130z" />
    <glyph glyph-name="a" unicode="a" horiz-adv-x="605" 
d="M235 235c-4 -8.66699 -7.33398 -18.667 -10.001 -30c-2.66699 -9.33301 -5 -20.333 -7 -33s-3 -26.667 -3 -42c0 -40 6.16699 -68.333 18.5 -85s26.166 -25 41.499 -25s28.5 4.16699 39.5 12.5s20.167 17.5 27.5 27.5c8.66699 12 16.334 25.333 23.001 40v145
c-15.333 0 -30.666 -0.5 -45.999 -1.5s-29.333 -2.16699 -42 -3.5c-14.667 -2 -28.667 -3.66699 -42 -5zM274.999 515c40 0 75.501 -5.33398 106.501 -16.001s57.167 -25.5 78.5 -44.5s37.5 -41.667 48.5 -68s16.5 -55.166 16.5 -86.499v-270l60 -15v-15h-90
c-24 -0 -43.333 3.83301 -58 11.5s-26.334 16.167 -35.001 25.5c-10 11.333 -17.333 24 -22 38c-8.66699 -17.333 -19.667 -32.333 -33 -45c-11.333 -11.333 -26.333 -21.666 -45 -30.999s-41 -14 -67 -14c-31.333 0 -58.5 3.5 -81.5 10.5s-42.167 16.667 -57.5 29
s-26.833 26.666 -34.5 42.999s-11.5 33.833 -11.5 52.5c0 15.333 1.66699 29.5 5 42.5s7.33301 24.5 12 34.5c5.33301 12 11.333 23 18 33c28 6.66699 57.667 12.667 89 18c26.667 4.66699 56.667 9.16699 90 13.5s67 7.16602 101 8.49902v30c0 38.667 -2.5 70.667 -7.5 96
s-12.167 45.333 -21.5 60s-20.833 24.834 -34.5 30.501s-29.167 8.5 -46.5 8.5c-7.33301 0 -14 -0.5 -20 -1.5s-11.333 -2.16699 -16 -3.5c-5.33301 -2 -10 -3.66699 -14 -5v-150c-4.66699 -1.33301 -9 -2.33301 -13 -3s-8.16699 -1.16699 -12.5 -1.5
s-9.16602 -0.5 -14.499 -0.5c-22.667 0 -40.834 6.83301 -54.501 20.5s-20.5 31.834 -20.5 54.501c0 14 3.5 27.5 10.5 40.5s18 24.667 33 35s34.167 18.666 57.5 24.999s51.333 9.5 84 9.5z" />
    <glyph glyph-name="b" unicode="b" horiz-adv-x="615" 
d="M240 100c6 -14.667 13.335 -28.001 22.002 -40.001c7.33301 -10 16.666 -19.167 27.999 -27.5s24.666 -12.5 39.999 -12.5c8.66699 0 17.5 3 26.5 9s17 17.5 24 34.5s12.833 40.5 17.5 70.5s7 68.667 7 116c0 48.667 -2.33301 88.334 -7 119.001s-11 54.5 -19 71.5
s-17.5 28.667 -28.5 35s-22.833 9.5 -35.5 9.5c-10 0 -19.5 -2 -28.5 -6s-17.167 -8.66699 -24.5 -14c-8 -6 -15.333 -12.667 -22 -20v-345zM150.002 699.999c60 0 90 -29.999 90 -89.999v-135c8.66699 7.33301 19 14 31 20c10 5.33301 22.167 10 36.5 14s30.166 6 47.499 6
c32.667 0 62.5 -5.66699 89.5 -17s50.167 -28 69.5 -50s34.333 -49.5 45 -82.5s16 -71.5 16 -115.5s-5.33301 -82.5 -16 -115.5s-25.167 -60.5 -43.5 -82.5s-40 -38.667 -65 -50s-51.833 -17 -80.5 -17c-26.667 0 -49.167 4.66699 -67.5 14s-33.166 19.666 -44.499 30.999
c-13.333 12.667 -24.333 27.667 -33 45c-4.66699 -14.667 -12.667 -28 -24 -40c-9.33301 -10 -23 -19.167 -41 -27.5s-41.333 -12.5 -70 -12.5h-10v675l-60 15v15h130z" />
    <glyph glyph-name="c" unicode="c" horiz-adv-x="530" 
d="M330 495c-17.333 0 -33.332 -3.66602 -47.999 -10.999s-27.334 -20.166 -38.001 -38.499s-19 -43.333 -25 -75s-9 -71.834 -9 -120.501c0 -47.333 3 -86.5 9 -117.5s14.333 -55.5 25 -73.5s23.334 -30.667 38.001 -38s30.667 -11 48 -11c20 0 38.833 3.66699 56.5 11
s33 17.166 46 29.499s23.333 26.333 31 42s11.5 31.5 11.5 47.5h25c0 -20 -4.5 -39.333 -13.5 -58s-21.833 -35.167 -38.5 -49.5s-36.667 -25.833 -60 -34.5s-49.333 -13 -78 -13c-85.333 0 -151.666 23.5 -198.999 70.5s-71 111.833 -71 194.5s23.667 147.5 71 194.5
s113.666 70.5 198.999 70.5c32.667 0 60.667 -3.16699 84 -9.5s42.5 -14.666 57.5 -24.999s26 -22 33 -35s10.5 -26.5 10.5 -40.5c0 -22.667 -6.83301 -40.834 -20.5 -54.501s-31.834 -20.5 -54.501 -20.5c-5.33301 0 -10.5 0.166992 -15.5 0.5s-9.16699 0.833008 -12.5 1.5
c-4.66699 0.666992 -8.66699 1.66699 -12 3v150c-4 1.33301 -8.66699 3 -14 5c-4.66699 1.33301 -10 2.5 -16 3.5s-12.667 1.5 -20 1.5z" />
    <glyph glyph-name="d" unicode="d" horiz-adv-x="620" 
d="M375 445c-7.33301 7.33301 -15.001 14.001 -23.001 20.001c-7.33301 5.33301 -15.333 10 -24 14s-18 6 -28 6c-12.667 0 -24.5 -3.16699 -35.5 -9.5s-20.5 -18 -28.5 -35s-14.333 -40.833 -19 -71.5s-7 -70.334 -7 -119.001c0 -47.333 2.33301 -86 7 -116
s10.5 -53.5 17.5 -70.5s15 -28.5 24 -34.5s17.833 -9 26.5 -9c15.333 0 28.5 4.16699 39.5 12.5s20.167 17.5 27.5 27.5c8.66699 12 16.334 25.333 23.001 40v345zM444.999 700.001c60 0 90.002 -30.001 90.002 -90.001v-580l60 -15v-15h-90
c-24 -0 -43.333 3.83301 -58 11.5s-26.334 16.167 -35.001 25.5c-10 11.333 -17.333 24 -22 38c-8.66699 -17.333 -19.667 -32.333 -33 -45c-11.333 -11.333 -26.333 -21.666 -45 -30.999s-41 -14 -67 -14c-28.667 0 -55.5 5.66699 -80.5 17s-46.667 28 -65 50
s-32.833 49.5 -43.5 82.5s-16 71.5 -16 115.5s5.33301 82.5 16 115.5s25.667 60.5 45 82.5s42.5 38.667 69.5 50s56.833 17 89.5 17c17.333 0 33.166 -2 47.499 -6s26.5 -8.66699 36.5 -14c12 -6 22.333 -12.667 31 -20v195l-60 15v15h130z" />
    <glyph glyph-name="e" unicode="e" 
d="M210 250c22.667 0 42.667 0.5 60 1.5s32 2.16699 44 3.5c14 1.33301 26 3 36 5c1.33301 6.66699 3 14 5 22c1.33301 7.33301 2.5 15.5 3.5 24.5s1.5 18.5 1.5 28.5c0 30 -2.33301 55.167 -7 75.5s-10.5 36.833 -17.5 49.5s-15 21.667 -24 27s-17.833 8 -26.5 8
s-17.5 -3.16699 -26.5 -9.5s-17 -18.333 -24 -36s-12.833 -42.5 -17.5 -74.5s-7 -73.667 -7 -125zM310 -15c-85.333 0 -151.668 23.5 -199.001 70.5s-71 111.833 -71 194.5c0 41.333 6 78.333 18 111s28.667 60.5 50 83.5s47.166 40.5 77.499 52.5s63.5 18 99.5 18
c37.333 0 70.833 -5.33301 100.5 -16s54.834 -25 75.501 -43s36.5 -39.167 47.5 -63.5s16.5 -50.166 16.5 -77.499c0 -9.33301 -0.5 -17.5 -1.5 -24.5s-2.16699 -13.167 -3.5 -18.5l-5 -17c-29.333 -6 -60.333 -11 -93 -15c-28 -4 -60.333 -7.5 -97 -10.5
s-75 -4.5 -115 -4.5c0 -41.333 3 -75.833 9 -103.5s14.333 -49.667 25 -66s23.334 -28 38.001 -35s30.667 -10.5 48 -10.5c20 0 38.833 3.66699 56.5 11s33 17.166 46 29.499s23.333 26.333 31 42s11.5 31.5 11.5 47.5h25c0 -20 -4.5 -39.333 -13.5 -58
s-21.833 -35.167 -38.5 -49.5s-36.667 -25.833 -60 -34.5s-49.333 -13 -78 -13z" />
    <glyph glyph-name="f" unicode="f" horiz-adv-x="425" 
d="M25 455v24.998h70v50c0 26 4.83301 50.333 14.5 73s23.5 42.334 41.5 59.001s40 29.667 66 39s55.333 14 88 14c27.333 0 51.333 -3.16699 72 -9.5s37.834 -14.666 51.501 -24.999s24 -22 31 -35s10.5 -26.5 10.5 -40.5c0 -22.667 -6.83301 -40.834 -20.5 -54.501
s-31.834 -20.5 -54.501 -20.5c-5.33301 0 -10.5 0.166992 -15.5 0.5s-9.16699 0.833008 -12.5 1.5c-4.66699 0.666992 -8.66699 1.66699 -12 3v155c-2.66699 0.666992 -5.66699 1.33398 -9 2.00098l-10.5 2c-3.66699 0.666992 -7.16699 1 -10.5 1
c-10 0 -19.333 -2.33301 -28 -7s-16 -13 -22 -25s-10.833 -28.667 -14.5 -50s-5.5 -49 -5.5 -83v-50h160v-25h-160v-425l60 -15v-15h-280v15l60 15v425h-70z" />
    <glyph glyph-name="g" unicode="g" horiz-adv-x="605" 
d="M280 505c32.667 0 61.9961 -3.33398 87.9961 -10.001s46.667 -15 62 -25c5.33301 11.333 12.333 21.333 21 30c7.33301 7.33301 17.166 14.166 29.499 20.499s27.166 9.5 44.499 9.5c22.667 0 41.667 -7.83301 57 -23.5s23 -36.167 23 -61.5
c0 -20 -5.33301 -35.833 -16 -47.5s-23.667 -17.5 -39 -17.5c-5.33301 0 -10 0.166992 -14 0.5s-7.66699 0.833008 -11 1.5s-6.66602 1.66699 -9.99902 3v120c-11.333 0 -21 -2.66699 -29 -8s-14.667 -11 -20 -17c-6.66699 -7.33301 -12 -15.666 -16 -24.999
c17.333 -15.333 30 -32.666 38 -51.999s12 -40.333 12 -63c0 -24 -4.5 -46 -13.5 -66s-22.5 -37.333 -40.5 -52s-40.833 -26.167 -68.5 -34.5s-60.167 -12.5 -97.5 -12.5c-25.333 0 -49 2.33301 -71 7s-41.667 10.667 -59 18c-7.33301 -3.33301 -14 -6.66602 -20 -9.99902
c-5.33301 -3.33301 -10 -7 -14 -11s-6 -8.66699 -6 -14c0 -10 5.16699 -18.333 15.5 -25s31.833 -10 64.5 -10h190c50 0 89.167 -14.333 117.5 -43s42.5 -69.334 42.5 -122.001c0 -25.333 -5.16699 -48.833 -15.5 -70.5s-26.166 -40.667 -47.499 -57
s-48.833 -29.166 -82.5 -38.499s-73.5 -14 -119.5 -14c-47.333 0 -87 3.33301 -119 10s-57.667 15.334 -77 26.001s-33.166 22.5 -41.499 35.5s-12.5 25.833 -12.5 38.5c0 22.667 6.83301 40.834 20.5 54.501s31.834 20.5 54.501 20.5c6 0 11.5 -0.333008 16.5 -1
s9.16699 -1.33398 12.5 -2.00098c4 -0.666992 7.66699 -1.33398 11 -2.00098v-140c12 -4 24.667 -7.33301 38 -10c11.333 -2.66699 24.5 -5 39.5 -7s30.833 -3 47.5 -3c44 0 80.833 3.5 110.5 10.5s53.834 16 72.501 27s32 23.667 40 38s12 29.166 12 44.499
c0 8.66699 -2 17 -6 25s-10.667 15 -20 21s-21.666 10.667 -36.999 14s-34.333 5 -57 5h-190c-52.667 0 -91.667 10.833 -117 32.5s-38 47.5 -38 77.5c0 20 4.83301 36.833 14.5 50.5s20.5 25.167 32.5 34.5c14 10 30 18.333 48 25c-25.333 15.333 -43.333 33.833 -54 55.5
s-16 46.5 -16 74.5c0 24 4.5 46 13.5 66s22.5 37.333 40.5 52s40.833 26.167 68.5 34.5s60.167 12.5 97.5 12.5zM279.996 194.999c10 0 19.333 2.16699 28 6.5s16 12 22 23s10.833 25.833 14.5 44.5s5.5 42.334 5.5 71.001s-1.83301 52.334 -5.5 71.001
s-8.5 33.5 -14.5 44.5s-13.333 18.667 -22 23s-18 6.5 -28 6.5s-19.333 -2.16699 -28 -6.5s-16 -12 -22 -23s-10.833 -25.833 -14.5 -44.5s-5.5 -42.334 -5.5 -71.001s1.83301 -52.334 5.5 -71.001s8.5 -33.5 14.5 -44.5s13.333 -18.667 22 -23s18 -6.5 28 -6.5z" />
    <glyph glyph-name="h" unicode="h" horiz-adv-x="665" 
d="M425 350c0 22.667 -2.33496 42.166 -7.00195 58.499s-10.5 29.833 -17.5 40.5s-15 18.5 -24 23.5s-17.833 7.5 -26.5 7.5c-15.333 0 -28.666 -4.16699 -39.999 -12.5s-20.666 -17.5 -27.999 -27.5c-8.66699 -12 -16 -25.333 -22 -40v-370l60 -15v-15h-280v15l60 15v640
l-60 15v15h130c60 0 90 -30 90 -90v-160c8.66699 12 19 22.667 31 32c10.667 8 24.167 15.5 40.5 22.5s35.833 10.5 58.5 10.5c28.667 0 55 -4.66699 79 -14s44.5 -21.666 61.5 -36.999s30.333 -32.833 40 -52.5s14.5 -40.167 14.5 -61.5v-320l60 -15v-15h-130
c-60 0 -90 30 -90 90v260z" />
    <glyph glyph-name="i" unicode="i" horiz-adv-x="340" 
d="M95 625c0 11.333 2.33301 22.166 7 32.499s10.834 19.333 18.501 27s16.667 13.834 27 18.501s21.166 7 32.499 7s22.166 -2.33301 32.499 -7s19.333 -10.834 27 -18.501s13.834 -16.667 18.501 -27s7 -21.166 7 -32.499s-2.33301 -22.166 -7 -32.499
s-10.834 -19.333 -18.501 -27s-16.667 -13.834 -27 -18.501s-21.166 -7 -32.499 -7s-22.166 2.33301 -32.499 7s-19.333 10.834 -27 18.501s-13.834 16.667 -18.501 27s-7 21.166 -7 32.499zM170 500c60 0 90 -30 90 -90v-380l60 -15v-15h-280v15l60 15v440l-60 15v15h130z
" />
    <glyph glyph-name="j" unicode="j" horiz-adv-x="330" 
d="M90 625c0 11.333 2.33301 22.166 7 32.499s10.834 19.333 18.501 27s16.667 13.834 27 18.501s21.166 7 32.499 7s22.166 -2.33301 32.499 -7s19.333 -10.834 27 -18.501s13.834 -16.667 18.501 -27s7 -21.166 7 -32.499s-2.33301 -22.166 -7 -32.499
s-10.834 -19.333 -18.501 -27s-16.667 -13.834 -27 -18.501s-21.166 -7 -32.499 -7s-22.166 2.33301 -32.499 7s-19.333 10.834 -27 18.501s-13.834 16.667 -18.501 27s-7 21.166 -7 32.499zM5 -190c1.33301 -1.33301 3.33301 -2.33105 6 -2.99805
c5.33301 -1.33301 10 -2 14 -2c8.66699 0 17.167 2.5 25.5 7.5s15.833 13.667 22.5 26s12 29.166 16 50.499s6 48.333 6 81v500l-60 15v15h130c60 0 90 -30 90 -90v-440c0 -26 -4.83301 -50.333 -14.5 -73s-24 -42.334 -43 -59.001s-42.167 -29.667 -69.5 -39
s-58.333 -14 -93 -14c-52.667 0 -90 8.83301 -112 26.5s-33 40.5 -33 68.5c0 22.667 6.83301 40.834 20.5 54.501s31.834 20.5 54.501 20.5c5.33301 0 10.166 -0.333008 14.499 -1l12.5 -2c4 -0.666992 8.33301 -1.33398 13 -2.00098v-140z" />
    <glyph glyph-name="k" unicode="k" horiz-adv-x="600" 
d="M170 700c60 0 89.999 -30 89.999 -90v-350l185 195l-75 30v15h190v-15l-80 -30l-115 -120l195 -305l50 -15v-15h-130c-17.333 0 -32.666 2 -45.999 6s-25.333 9.83301 -36 17.5s-20.167 16.667 -28.5 27s-16.5 21.833 -24.5 34.5l-85 135v-190l60 -15v-15h-280v15l60 15
v640l-60 15v15h130z" />
    <glyph glyph-name="l" unicode="l" horiz-adv-x="340" 
d="M170 700c60 0 90 -30 90 -90v-580l60 -15v-15h-280v15l60 15v640l-60 15v15h130z" />
    <glyph glyph-name="m" unicode="m" horiz-adv-x="950" 
d="M710 350c0 24 -2 44.1689 -6 60.502s-9.16699 29.666 -15.5 39.999s-13.333 17.833 -21 22.5s-15.167 7 -22.5 7c-12.667 0 -23.834 -4.16699 -33.501 -12.5s-18.167 -17.5 -25.5 -27.5c-8 -12 -15 -25.333 -21 -40v-370l60 -15v-15h-280v15l60 15v320
c0 24 -2 44.167 -6 60.5s-9.16699 29.666 -15.5 39.999s-13.333 17.833 -21 22.5s-15.167 7 -22.5 7c-12.667 0 -23.834 -4.16699 -33.501 -12.5s-18.167 -17.5 -25.5 -27.5c-8 -12 -15 -25.333 -21 -40v-370l60 -15v-15h-280v15l60 15v440l-60 15v15h90
c23.333 0 42.5 -4 57.5 -12s26.833 -16.667 35.5 -26c10 -11.333 17.333 -23.666 22 -36.999c8.66699 16.667 19.334 31.667 32.001 45c11.333 11.333 25.333 21.666 42 30.999s37 14 61 14c40 0 74.5 -8.83301 103.5 -26.5s51.167 -40.5 66.5 -68.5
c8.66699 17.333 19.334 33 32.001 47c11.333 12 25.333 23 42 33s37 15 61 15c27.333 0 52.333 -4.33301 75 -13s42.167 -20.5 58.5 -35.5s29 -32.5 38 -52.5s13.5 -41.333 13.5 -64v-320l60 -15v-15h-130c-60 0 -90 30 -90 90v260z" />
    <glyph glyph-name="n" unicode="n" horiz-adv-x="665" 
d="M425 350c0 22.667 -2.33398 42.166 -7.00098 58.499s-10.5 29.833 -17.5 40.5s-15 18.5 -24 23.5s-17.833 7.5 -26.5 7.5c-15.333 0 -28.666 -4.16699 -39.999 -12.5s-20.666 -17.5 -27.999 -27.5c-8.66699 -12 -16 -25.333 -22 -40v-370l60 -15v-15h-280v15l60 15v440
l-60 15v15h90c23.333 0 42.5 -4 57.5 -12s26.833 -16.667 35.5 -26c10 -11.333 17.333 -23.666 22 -36.999c8.66699 16.667 19.667 31.667 33 45c11.333 11.333 26.166 21.666 44.499 30.999s40.833 14 67.5 14c28.667 0 55 -4.66699 79 -14s44.5 -21.666 61.5 -36.999
s30.333 -32.833 40 -52.5s14.5 -40.167 14.5 -61.5v-320l60 -15v-15h-130c-60 0 -90 30 -90 90v260z" />
    <glyph glyph-name="o" unicode="o" horiz-adv-x="610" 
d="M305 5c11.333 0 22.666 3.66699 33.999 11s21.5 20.166 30.5 38.499s16.333 43.333 22 75s8.5 71.834 8.5 120.501s-2.83301 88.834 -8.5 120.501s-13 56.667 -22 75s-19.167 31.166 -30.5 38.499s-22.666 11 -33.999 11s-22.666 -3.66699 -33.999 -11
s-21.5 -20.166 -30.5 -38.499s-16.333 -43.333 -22 -75s-8.5 -71.834 -8.5 -120.501s2.83301 -88.834 8.5 -120.501s13 -56.667 22 -75s19.167 -31.166 30.5 -38.499s22.666 -11 33.999 -11zM305 515c41.333 0 78.333 -6 111 -18s60.5 -29.5 83.5 -52.5
s40.5 -50.833 52.5 -83.5s18 -69.667 18 -111s-6 -78.333 -18 -111s-29.5 -60.5 -52.5 -83.5s-50.833 -40.5 -83.5 -52.5s-69.667 -18 -111 -18s-78.333 6 -111 18s-60.5 29.5 -83.5 52.5s-40.5 50.833 -52.5 83.5s-18 69.667 -18 111s6 78.333 18 111s29.5 60.5 52.5 83.5
s50.833 40.5 83.5 52.5s69.667 18 111 18z" />
    <glyph glyph-name="p" unicode="p" horiz-adv-x="625" 
d="M250 55c6.66699 -7.33301 13.998 -14.001 21.998 -20.001c7.33301 -5.33301 15.5 -10 24.5 -14s18.5 -6 28.5 -6c12.667 0 24.5 3.16699 35.5 9.5s20.5 18 28.5 35s14.333 40.833 19 71.5s7 70.334 7 119.001c0 47.333 -2.33301 86 -7 116s-10.5 53.5 -17.5 70.5
s-15 28.5 -24 34.5s-17.833 9 -26.5 9c-15.333 0 -28.666 -4.16699 -39.999 -12.5s-20.666 -17.5 -27.999 -27.5c-8.66699 -12 -16 -25.333 -22 -40v-345zM89.998 469.999l-60 15v15h90c23.333 0 42.5 -4 57.5 -12s26.833 -16.667 35.5 -26
c10 -11.333 17.333 -23.666 22 -36.999c8.66699 16.667 19.667 31.667 33 45c11.333 11.333 26.166 21.666 44.499 30.999s40.833 14 67.5 14c28.667 0 55.5 -5.66699 80.5 -17s46.667 -28 65 -50s32.833 -49.5 43.5 -82.5s16 -71.5 16 -115.5s-5.33301 -82.5 -16 -115.5
s-25.667 -60.5 -45 -82.5s-42.5 -38.667 -69.5 -50s-56.833 -17 -89.5 -17c-17.333 0 -33.166 2 -47.499 6s-26.5 8.66699 -36.5 14c-12 6 -22.333 12.667 -31 20v-195l60 -15v-15h-280v15l60 15v640z" />
    <glyph glyph-name="q" unicode="q" horiz-adv-x="615" 
d="M375 400c-6.66699 14.667 -14.333 28.001 -23 40.001c-7.33301 10 -16.5 19.167 -27.5 27.5s-24.167 12.5 -39.5 12.5c-8.66699 0 -17.5 -3 -26.5 -9s-17 -17.5 -24 -34.5s-12.833 -40.5 -17.5 -70.5s-7 -68.667 -7 -116c0 -48.667 2.33301 -88.334 7 -119.001
s11 -54.5 19 -71.5s17.5 -28.667 28.5 -35s22.833 -9.5 35.5 -9.5c10 0 19.333 2 28 6s16.667 8.66699 24 14c8 6 15.667 12.667 23 20v345zM375.001 25.001c-8.66699 -7.33301 -19.001 -14.001 -31.001 -20.001c-10 -5.33301 -22.167 -10 -36.5 -14s-30.166 -6 -47.499 -6
c-32.667 0 -62.5 5.66699 -89.5 17s-50.167 28 -69.5 50s-34.333 49.5 -45 82.5s-16 71.5 -16 115.5s5.33301 82.5 16 115.5s25.167 60.5 43.5 82.5s40 38.667 65 50s51.833 17 80.5 17c26 0 48.333 -4.66699 67 -14s33.667 -19.666 45 -30.999
c13.333 -13.333 24.333 -28.333 33 -45c4.66699 14.667 12.667 28 24 40c9.33301 10 22.833 19.167 40.5 27.5s41.167 12.5 70.5 12.5h10v-675l60 -15v-15h-280v15l60 15v195z" />
    <glyph glyph-name="r" unicode="r" horiz-adv-x="505" 
d="M385 480c-20 0 -37.8301 -4.16699 -53.4971 -12.5s-28.834 -17.5 -39.501 -27.5c-12 -12 -22.667 -25.333 -32 -40v-370l60 -15v-15h-280v15l60 15v440l-60 15v15h90c23.333 0 42.5 -4 57.5 -12s26.833 -16.667 35.5 -26c10 -11.333 17.333 -23.666 22 -36.999
c10 14.667 22.333 28 37 40c12.667 10 28.167 19.167 46.5 27.5s40.166 12.5 65.499 12.5c36 0 62.667 -8.33301 80 -25s26 -40 26 -70c0 -22.667 -6.83301 -40.834 -20.5 -54.501s-31.834 -20.5 -54.501 -20.5c-5.33301 0 -10.5 0.166992 -15.5 0.5
s-9.16699 0.833008 -12.5 1.5c-4.66699 0.666992 -8.66699 1.66699 -12 3v140z" />
    <glyph glyph-name="s" unicode="s" horiz-adv-x="540" 
d="M275 -15c-24 0 -45.167 2.67188 -63.5 8.00488s-34.166 11.666 -47.499 18.999c-15.333 8 -28.333 17.333 -39 28c-5.33301 -7.33301 -11.166 -14 -17.499 -20s-12.166 -10.667 -17.499 -14c-6.66699 -4.66699 -13.334 -8.33398 -20.001 -11.001h-25v170h40
c9.33301 -29.333 22 -55.333 38 -78c13.333 -19.333 30.666 -37 51.999 -53s48 -24 80 -24c28 0 49.167 7 63.5 21s21.5 33.667 21.5 59c0 18.667 -7.16699 34.667 -21.5 48s-32.166 26 -53.499 38s-44.666 24.167 -69.999 36.5s-48.666 26.166 -69.999 41.499
s-39.166 33 -53.499 53s-21.5 44.333 -21.5 73c0 18.667 3.83301 36.167 11.5 52.5s20 30.666 37 42.999s38.833 22 65.5 29s58.667 10.5 96 10.5c20 0 38.333 -2.83301 55 -8.5s31 -12.167 43 -19.5c14 -8 26.667 -17 38 -27c5.33301 7.33301 11.166 13.833 17.499 19.5
s12.166 10.5 17.499 14.5c6.66699 4 13.334 7.66699 20.001 11h25v-170h-40c-10 28.667 -22.333 54.334 -37 77.001c-12.667 19.333 -28.667 37.166 -48 53.499s-43 24.5 -71 24.5c-17.333 0 -32.5 -6.66699 -45.5 -20s-19.5 -30 -19.5 -50s7.16699 -37.333 21.5 -52
s32.166 -28.334 53.499 -41.001s44.666 -25 69.999 -37s48.666 -25.5 69.999 -40.5s39.166 -32 53.499 -51s21.5 -41.833 21.5 -68.5c0 -21.333 -4 -40.833 -12 -58.5s-21 -33 -39 -46s-41.667 -23 -71 -30s-65.333 -10.5 -108 -10.5z" />
    <glyph glyph-name="t" unicode="t" horiz-adv-x="450" 
d="M85 550c0 60 30.002 90 90.002 90h70v-140h140v-25h-140v-305c0 -32.667 1.83301 -59.334 5.5 -80.001s8.66699 -37 15 -49s14.166 -20.167 23.499 -24.5s19.666 -6.5 30.999 -6.5s22.333 2.83301 33 8.5s20.334 14 29.001 25s15.5 24.5 20.5 40.5s7.5 34.667 7.5 56h25
c0 -50 -12.5 -88.333 -37.5 -115s-57.5 -40 -97.5 -40c-34 0 -64.167 4.66699 -90.5 14s-48.833 22.333 -67.5 39s-32.834 36.334 -42.501 59.001s-14.5 47 -14.5 73v305h-70v25h70v50z" />
    <glyph glyph-name="u" unicode="u" horiz-adv-x="650" 
d="M155 500c60 0 89.999 -30 89.999 -90v-260c0 -22.667 2.33301 -42.167 7 -58.5s10.5 -29.833 17.5 -40.5s15 -18.5 24 -23.5s17.833 -7.5 26.5 -7.5c15.333 0 28.5 4.16699 39.5 12.5s20.167 17.5 27.5 27.5c8.66699 12 16.334 25.333 23.001 40v370l-60 15v15h280v-15
l-60 -15v-475h-10c-29.333 0 -52.833 4.16699 -70.5 12.5s-31.167 17.5 -40.5 27.5c-11.333 12 -19.333 25.333 -24 40c-8.66699 -17.333 -19.667 -32.333 -33 -45c-11.333 -11.333 -26.333 -21.666 -45 -30.999s-41 -14 -67 -14c-28.667 0 -55 4.66699 -79 14
s-44.5 21.666 -61.5 36.999s-30.333 32.833 -40 52.5s-14.5 40.167 -14.5 61.5v320l-60 15v15h130z" />
    <glyph glyph-name="v" unicode="v" 
d="M470 455l-75.002 29.998v15h185v-15l-80 -30l-190 -465h-30l-250 480l-50 15v15h125c18.667 0 35 -2.16699 49 -6.5s26.333 -10.166 37 -17.499s19.834 -16.166 27.501 -26.499s14.834 -21.833 21.501 -34.5l119 -231z" />
    <glyph glyph-name="w" unicode="w" horiz-adv-x="835" 
d="M30 470l-49.998 15v15h115c37.333 0 66.166 -8 86.499 -24s36.5 -36.333 48.5 -61l110 -230l57 146l-67 139l-50 15v15h115c37.333 0 66.166 -8 86.499 -24s36.5 -36.333 48.5 -61l110 -230l105 270l-75 30v15h185v-15l-80 -30l-185 -465h-30l-148 308l-122 -308h-30z
" />
    <glyph glyph-name="x" unicode="x" horiz-adv-x="555" 
d="M214 204l-168.999 265.998l-50 15v15h135c17.333 0 32.666 -2.16699 45.999 -6.5s25.166 -10.166 35.499 -17.499s19.833 -16.166 28.5 -26.499s17 -21.833 25 -34.5l51 -81l94 121l-75 30v15h190v-15l-80 -30l-114 -145l179 -280l50 -15v-15h-135
c-17.333 0 -32.666 2 -45.999 6s-25.333 9.83301 -36 17.5s-20.167 16.667 -28.5 27s-16.5 21.833 -24.5 34.5l-60 94l-105 -134l75 -30v-15h-190v15l80 30z" />
    <glyph glyph-name="y" unicode="y" 
d="M470 455l-75.001 29.998v15h185v-15l-80 -30l-200 -515c-21.333 -55.333 -44.166 -95 -68.499 -119s-51.5 -36 -81.5 -36s-53.333 8 -70 24s-25 38 -25 66c0 25.333 6.83301 45 20.5 59s31.834 21 54.501 21c5.33301 0 10.166 -0.333008 14.499 -1l12.5 -2
c4 -0.666992 8.33301 -1.33398 13 -2.00098v-135c8.66699 1.33301 17.167 4.33301 25.5 9s16.5 11.834 24.5 21.501s16 22.167 24 37.5s16.667 34.333 26 57l20 50l-260 480l-50 15v15h125c18.667 0 35 -2.16699 49 -6.5s26.167 -10.166 36.5 -17.499
s19.5 -16.166 27.5 -26.499s15.333 -21.833 22 -34.5l125 -231z" />
    <glyph glyph-name="z" unicode="z" horiz-adv-x="545" 
d="M145 475c0 -24 -3.5 -45.168 -10.5 -63.501s-14.5 -34.166 -22.5 -47.499c-9.33301 -15.333 -20 -28.333 -32 -39h-30v175h455v-25l-285 -450h190c0 23.333 3.33301 44.333 10 63s14 34.667 22 48c9.33301 15.333 20.333 28.333 33 39h30v-175h-465v25l285 450h-180z" />
    <glyph glyph-name="braceleft" unicode="{" horiz-adv-x="370" 
d="M30 265c22.667 0 40.834 7.83105 54.501 23.498s20.5 41.167 20.5 76.5v205c0 20 4.33301 39 13 57s21.167 34 37.5 48s36.666 25 60.999 33s52.166 12 83.499 12h60v-25h-10c-25.333 0 -45.833 -8.66699 -61.5 -26s-23.5 -43.666 -23.5 -78.999v-185
c0 -37.333 -8.33301 -66.5 -25 -87.5s-35 -36.5 -55 -46.5c-23.333 -12 -50 -19 -80 -21c30 -2 56.667 -9 80 -21c20 -10 38.333 -25.5 55 -46.5s25 -50.167 25 -87.5v-185c0 -35.333 7.83301 -61.666 23.5 -78.999s36.167 -26 61.5 -26h10v-25h-60
c-31.333 0 -59.166 4 -83.499 12s-44.666 19 -60.999 33s-28.833 30 -37.5 48s-13 37 -13 57v205c0 35.333 -6.83301 60.833 -20.5 76.5s-31.834 23.5 -54.501 23.5v30z" />
    <glyph glyph-name="bar" unicode="|" horiz-adv-x="225" 
d="M140 700v-900h-55v900h55z" />
    <glyph glyph-name="braceright" unicode="}" horiz-adv-x="370" 
d="M340 235c-22.667 0 -40.834 -7.83105 -54.501 -23.498s-20.5 -41.167 -20.5 -76.5v-205c0 -20 -4.33301 -39 -13 -57s-21.167 -34 -37.5 -48s-36.666 -25 -60.999 -33s-52.166 -12 -83.499 -12h-60v25h10c25.333 0 45.833 8.66699 61.5 26s23.5 43.666 23.5 78.999v185
c0 37.333 8.33301 66.5 25 87.5s35 36.5 55 46.5c23.333 12 50 19 80 21c-30 2 -56.667 9 -80 21c-20 10 -38.333 25.5 -55 46.5s-25 50.167 -25 87.5v185c0 35.333 -7.83301 61.666 -23.5 78.999s-36.167 26 -61.5 26h-10v25h60c31.333 0 59.166 -4 83.499 -12
s44.666 -19 60.999 -33s28.833 -30 37.5 -48s13 -37 13 -57v-205c0 -35.333 6.83301 -60.833 20.5 -76.5s31.834 -23.5 54.501 -23.5v-30z" />
    <glyph glyph-name="asciitilde" unicode="~" horiz-adv-x="515" 
d="M380 345c22.667 0 41.668 7.5 57.001 22.5s23 32.5 23 52.5h25c0 -65.333 -12.333 -112.5 -37 -141.5s-57.334 -43.5 -98.001 -43.5c-24 0 -44.667 3.83301 -62 11.5s-33.833 16.334 -49.5 26.001s-31.5 18.334 -47.5 26.001s-34.667 11.5 -56 11.5
c-22.667 0 -41.667 -7.5 -57 -22.5s-23 -32.5 -23 -52.5h-25c0 65.333 12.5 112.5 37.5 141.5s57.5 43.5 97.5 43.5c24 0 44.833 -3.83301 62.5 -11.5s34.5 -16.334 50.5 -26.001s32 -18.334 48 -26.001s34 -11.5 54 -11.5z" />
    <glyph glyph-name="nonbreakingspace" unicode="&#xa0;" horiz-adv-x="-229" 
 />
    <glyph glyph-name="exclamdown" unicode="&#xa1;" horiz-adv-x="310" 
d="M250 -100c0 -35.333 -9.5 -63.333 -28.5 -84s-41.167 -31 -66.5 -31s-47.5 10.333 -66.5 31s-28.5 48.667 -28.5 84l80 385h30zM230 430c0 -22.667 -7.5 -41.667 -22.5 -57s-32.5 -23 -52.5 -23s-37.5 7.66699 -52.5 23s-22.5 34.333 -22.5 57s7.5 41.667 22.5 57
s32.5 23 52.5 23s37.5 -7.66699 52.5 -23s22.5 -34.333 22.5 -57z" />
    <glyph glyph-name="cent" unicode="&#xa2;" horiz-adv-x="530" 
d="M330 580l-0.000976562 -65.9971c28.667 -1.33301 53.334 -5.33301 74.001 -12s37.834 -15 51.501 -25s23.667 -21.333 30 -34s9.5 -25.334 9.5 -38.001c0 -22.667 -6.83301 -40.834 -20.5 -54.501s-31.834 -20.5 -54.501 -20.5c-5.33301 0 -10.5 0.166992 -15.5 0.5
s-9.16699 0.833008 -12.5 1.5c-4.66699 0.666992 -8.66699 1.66699 -12 3v150c-4 1.33301 -8.66699 3 -14 5c-4.66699 1.33301 -10 2.5 -16 3.5s-12.667 1.5 -20 1.5v-485c20 0 38.833 3.66699 56.5 11s33 17.166 46 29.499s23.333 26.333 31 42s11.5 31.5 11.5 47.5h25
c0 -19.333 -4 -37.833 -12 -55.5s-19.5 -33.5 -34.5 -47.5s-32.833 -25.5 -53.5 -34.5s-44 -14.5 -70 -16.5v-66h-30v65c-83.333 2 -147.5 26.333 -192.5 73s-67.5 110.667 -67.5 192c0 80.667 22.667 144.5 68 191.5s109.333 71.5 192 73.5v65h30zM209.999 250.003
c0 -40.667 2.16699 -75.168 6.5 -103.501s10.5 -51.666 18.5 -69.999s17.5 -32.5 28.5 -42.5s23.167 -17 36.5 -21v478c-13.333 -3.33301 -25.5 -10 -36.5 -20s-20.5 -24.5 -28.5 -43.5s-14.167 -43 -18.5 -72s-6.5 -64.167 -6.5 -105.5z" />
    <glyph glyph-name="sterling" unicode="&#xa3;" horiz-adv-x="600" 
d="M284 380l176.002 0.00292969v-30h-177l-8 -180c-1.33301 -26.667 -7 -47.5 -17 -62.5s-20.667 -26.5 -32 -34.5c-13.333 -9.33301 -28.666 -15.333 -45.999 -18h295c2.66699 20 7.16699 37.5 13.5 52.5s13.166 27.5 20.499 37.5c8 12 16.667 22 26 30h30v-175h-530v24
c10 1.33301 19.333 4.5 28 9.5s16.167 13 22.5 24s11.666 25.667 15.999 44s7.16602 41.166 8.49902 68.499l8 180h-73v30h74l6 130c3.33301 62.667 24.333 112.5 63 149.5s94.334 55.5 167.001 55.5c32.667 0 60.167 -3.16699 82.5 -9.5s40.333 -14.5 54 -24.5
s23.5 -21.5 29.5 -34.5s9 -26.5 9 -40.5c0 -22.667 -6.83301 -40.834 -20.5 -54.501s-31.834 -20.5 -54.501 -20.5c-5.33301 0 -10.5 0.166992 -15.5 0.5s-9.16699 0.833008 -12.5 1.5c-4.66699 0.666992 -8.66699 1.66699 -12 3v150
c-2.66699 1.33301 -5.66699 2.66602 -9 3.99902s-7.5 2.5 -12.5 3.5s-11.167 1.5 -18.5 1.5c-11.333 0 -21.833 -2.66699 -31.5 -8s-18.167 -14.833 -25.5 -28.5s-13.333 -32.5 -18 -56.5s-8 -54.667 -10 -92z" />
    <glyph glyph-name="currency" unicode="&#xa4;" horiz-adv-x="690" 
d="M50 205l75 0.00195312v65h-75v30h75v370l-60 15v15h280c57.333 0 105.833 -4.83301 145.5 -14.5s71.667 -23.834 96 -42.501s41.833 -41.167 52.5 -67.5s16 -56.5 16 -90.5s-5.33301 -64.167 -16 -90.5s-28.167 -48.833 -52.5 -67.5s-56.333 -32.834 -96 -42.501
s-88.167 -14.5 -145.5 -14.5h-55v-65h250v-30h-250v-145l60 -15v-15h-285v15l60 15v145h-75v30zM345 300.002c40 0 73.333 15.167 100 45.5s40 76.833 40 139.5c0 64.667 -13.333 112.5 -40 143.5s-60 46.5 -100 46.5h-55v-375h55z" />
    <glyph glyph-name="yen" unicode="&#xa5;" horiz-adv-x="665" 
d="M130 220l125 -0.00195312v40l-10 20h-115v30h100l-180 360l-50 15v15h125c18.667 0 35 -2.16699 49 -6.5s26.333 -10.166 37 -17.499s20 -16.166 28 -26.499s15 -21.833 21 -34.5l148 -293l152 333l-75 30v15h190v-15l-80 -30l-158 -345h108v-30h-121l-4 -10v-50h125v-30
h-125v-160l60 -15v-15h-285v15l60 15v160h-125v30z" />
    <glyph glyph-name="brokenbar" unicode="&#xa6;" horiz-adv-x="225" 
d="M140 700v-360h-55v360h55zM85 -200v360h55v-360h-55z" />
    <glyph glyph-name="section" unicode="&#xa7;" horiz-adv-x="520" 
d="M230 -210c-32.667 0 -60.6699 3.16699 -84.0029 9.5s-42.5 14.666 -57.5 24.999s-26 22 -33 35s-10.5 26.5 -10.5 40.5c0 22.667 6.83301 40.834 20.5 54.501s31.834 20.5 54.501 20.5c5.33301 0 10.166 -0.333008 14.499 -1l12.5 -2
c4 -0.666992 8.33301 -1.33398 13 -2.00098v-150c4 -2 8.66699 -3.66699 14 -5c10 -3.33301 22 -5 36 -5c32.667 0 58.334 9.66699 77.001 29s28 48 28 86c0 23.333 -6.83301 43.333 -20.5 60s-30.667 31.667 -51 45s-42.333 26.166 -66 38.499s-45.667 26.166 -66 41.499
s-37.333 32.833 -51 52.5s-20.5 43.834 -20.5 72.501s10.833 55.5 32.5 80.5s55.834 43.167 102.501 54.5c-15.333 10 -29.833 20.833 -43.5 32.5s-25.834 24.667 -36.501 39s-19.167 30.333 -25.5 48s-9.5 37.834 -9.5 60.501s4.5 43.667 13.5 63s22.667 36.166 41 50.499
s41.666 25.666 69.999 33.999s61.833 12.5 100.5 12.5c30 0 56 -3.16699 78 -9.5s40.167 -14.666 54.5 -24.999s25 -22 32 -35s10.5 -26.5 10.5 -40.5c0 -22.667 -6.83301 -40.834 -20.5 -54.501s-31.834 -20.5 -54.501 -20.5c-5.33301 0 -10.5 0.166992 -15.5 0.5
s-9.16699 0.833008 -12.5 1.5c-4.66699 0.666992 -8.66699 1.66699 -12 3v155c-4.66699 0.666992 -9 1.33398 -13 2.00098l-12.5 2c-4.33301 0.666992 -9.16602 1 -14.499 1c-20 0 -38.333 -9.5 -55 -28.5s-25 -46.167 -25 -81.5c0 -24 6.33301 -44.5 19 -61.5
s28.334 -32.5 47.001 -46.5s39.167 -27.333 61.5 -40s42.833 -26.667 61.5 -42s34.334 -33 47.001 -53s19 -44 19 -72c0 -25.333 -10.667 -50 -32 -74s-55.666 -41 -102.999 -51c16.667 -9.33301 33.167 -19.666 49.5 -30.999s30.833 -24.166 43.5 -38.499
s22.834 -31 30.501 -50s11.5 -40.833 11.5 -65.5c0 -24 -4.66699 -46 -14 -66s-24 -37.333 -44 -52s-45.833 -26.167 -77.5 -34.5s-69.834 -12.5 -114.501 -12.5zM319.997 150c1.33301 3.33301 2.99902 8 4.99902 14c1.33301 5.33301 2.5 12 3.5 20s1.5 18.333 1.5 31
c0 21.333 -6.83301 40.666 -20.5 57.999s-28.5 32 -44.5 44c-19.333 14 -41 26.667 -65 38c-2 -3.33301 -3.66699 -8 -5 -14c-1.33301 -5.33301 -2.5 -12 -3.5 -20s-1.5 -18.333 -1.5 -31c0 -21.333 6.66699 -40.666 20 -57.999s28.333 -32 45 -44
c18.667 -14 40.334 -26.667 65.001 -38z" />
    <glyph glyph-name="dieresis" unicode="&#xa8;" horiz-adv-x="365" 
d="M20 630c0 20 6.66699 36.667 20 50s30 20 50 20s36.667 -6.66699 50 -20s20 -30 20 -50s-6.66699 -36.667 -20 -50s-30 -20 -50 -20s-36.667 6.66699 -50 20s-20 30 -20 50zM205 630c0 20 6.66699 36.667 20 50s30 20 50 20s36.667 -6.66699 50 -20s20 -30 20 -50
s-6.66699 -36.667 -20 -50s-30 -20 -50 -20s-36.667 6.66699 -50 20s-20 30 -20 50z" />
    <glyph glyph-name="copyright" unicode="&#xa9;" horiz-adv-x="840" 
d="M460 545c-11.333 0 -22.666 -3.33398 -33.999 -10.001s-21.5 -17.667 -30.5 -33s-16.333 -35.5 -22 -60.5s-8.5 -55.5 -8.5 -91.5c0 -35.333 2.83301 -65 8.5 -89s13.167 -43.5 22.5 -58.5s20 -25.833 32 -32.5s24.333 -10 37 -10c16 0 31 2.83301 45 8.5
s26.167 13.5 36.5 23.5s18.5 21.667 24.5 35s9 27.666 9 42.999h25c0 -17.333 -3.83301 -34.166 -11.5 -50.499s-18.5 -30.833 -32.5 -43.5s-30.833 -22.667 -50.5 -30s-41.5 -11 -65.5 -11c-70.667 0 -125 18.833 -163 56.5s-57 90.5 -57 158.5s18.833 120.833 56.5 158.5
s90.5 56.5 158.5 56.5c27.333 0 51.166 -2.83301 71.499 -8.5s37 -13.167 50 -22.5s22.667 -20 29 -32s9.5 -24.333 9.5 -37c0 -20 -5.83301 -35.833 -17.5 -47.5s-27.5 -17.5 -47.5 -17.5c-5.33301 0 -10.5 0.166992 -15.5 0.5s-9.16699 0.833008 -12.5 1.5
c-4.66699 0.666992 -8.66699 1.66699 -12 3v135l-10 2c-3.33301 0.666992 -7 1.33398 -11 2.00098s-8.66699 1 -14 1zM40 349.999c0 54.667 10 105.834 30 153.501s47.167 89 81.5 124s74.5 62.5 120.5 82.5s95.333 30 148 30s102 -10 148 -30s86.167 -47.5 120.5 -82.5
s61.5 -76.333 81.5 -124s30 -98.834 30 -153.501c0 -55.333 -10 -106.666 -30 -153.999s-47.167 -88.5 -81.5 -123.5s-74.5 -62.5 -120.5 -82.5s-95.333 -30 -148 -30s-102 10 -148 30s-86.167 47.5 -120.5 82.5s-61.5 76.167 -81.5 123.5s-30 98.666 -30 153.999z
M765 349.999c0 52.667 -8.83301 101 -26.5 145s-42 82 -73 114s-67.5 56.833 -109.5 74.5s-87.333 26.5 -136 26.5s-94 -8.83301 -136 -26.5s-78.5 -42.5 -109.5 -74.5s-55.333 -70 -73 -114s-26.5 -92.333 -26.5 -145s8.83301 -101 26.5 -145s42 -82 73 -114
s67.5 -56.833 109.5 -74.5s87.333 -26.5 136 -26.5s94 8.83301 136 26.5s78.5 42.5 109.5 74.5s55.333 70 73 114s26.5 92.333 26.5 145z" />
    <glyph glyph-name="ordfeminine" unicode="&#xaa;" horiz-adv-x="415" 
d="M155 520c-2.66699 -4.66699 -5.33301 -10.333 -8 -17c-4.66699 -12.667 -7 -27 -7 -43c0 -25.333 5 -44.166 15 -56.499s20 -18.5 30 -18.5c7.33301 0 14 2.66699 20 8s11.333 11.333 16 18c5.33301 7.33301 10 16.333 14 27v87c-10 0 -19.833 -0.333008 -29.5 -1
s-18.167 -1.33398 -25.5 -2.00098zM195.001 710.001c48 0 84.9961 -12.9971 110.996 -38.9971s39 -63 39 -111v-165l40 -10v-15h-60c-17.333 0 -31.333 2.5 -42 7.5s-18.667 10.833 -24 17.5c-6.66699 7.33301 -11.334 15.666 -14.001 24.999
c-4.66699 -11.333 -11 -21.333 -19 -30c-7.33301 -7.33301 -16.666 -14.166 -27.999 -20.499s-25.666 -9.5 -42.999 -9.5c-42.667 0 -74.167 8.66699 -94.5 26s-30.5 38.666 -30.5 63.999c0 10 1 19 3 27s4.33301 14.667 7 20c2.66699 6.66699 6 12.667 10 18
c18.667 5.33301 38.334 10.333 59.001 15c17.333 3.33301 37 6.66602 59 9.99902s44.333 5 67 5v35c0 42.667 -5.66699 71.667 -17 87s-25.666 23 -42.999 23c-5.33301 0 -10.166 -0.333008 -14.499 -1l-12.5 -2c-4.66699 -0.666992 -9 -1.33398 -13 -2.00098v-100
c-3.33301 -1.33301 -6.66602 -2.33301 -9.99902 -3s-7 -1.16699 -11 -1.5s-8.66699 -0.5 -14 -0.5c-15.333 0 -27.5 4.5 -36.5 13.5s-13.5 21.167 -13.5 36.5c0 10 2.66699 19.833 8 29.5s13.666 18.167 24.999 25.5s26.333 13.333 45 18s41 7 67 7z" />
    <glyph glyph-name="guillemotleft" unicode="&#xab;" horiz-adv-x="440" 
d="M15 250l260 230l25 -25l-185 -205l185 -205l-25 -25zM195 250l190 175l25 -25l-120 -150l120 -150l-25 -25z" />
    <glyph glyph-name="logicalnot" unicode="&#xac;" horiz-adv-x="470" 
d="M395 320h-365v45h410v-145h-45v100z" />
    <glyph glyph-name="uni00AD" unicode="&#xad;" horiz-adv-x="460" 
d="M430 345v-45h-400v45h400z" />
    <glyph glyph-name="registered" unicode="&#xae;" horiz-adv-x="840" 
d="M560 140c-25.333 0 -45.832 6.16797 -61.499 18.501s-26.834 26.166 -33.501 41.499l-55 125h-20v-160l50 -10v-15h-230v15l50 10v370l-50 10v15h190c42.667 0 78 -3 106 -9s50.5 -14.333 67.5 -25s29 -23.334 36 -38.001s10.5 -30.667 10.5 -48
c0 -25.333 -7.33301 -45 -22 -59s-30.667 -24.333 -48 -31c-20.667 -8 -44 -13 -70 -15c13.333 -1.33301 26 -4.33301 38 -9c10.667 -4 21.167 -10.167 31.5 -18.5s18.833 -19.166 25.5 -32.499l50 -110l35 -10v-15h-100zM390.001 535.001v-190h10
c26.667 0 46.667 8.33301 60 25s20 40 20 70s-7.66699 53.333 -23 70s-34.333 25 -57 25h-10zM40.001 350.001c0 54.667 10 105.834 30 153.501s47.167 89 81.5 124s74.5 62.5 120.5 82.5s95.333 30 148 30s102 -10 148 -30s86.167 -47.5 120.5 -82.5
s61.5 -76.333 81.5 -124s30 -98.834 30 -153.501c0 -55.333 -10 -106.666 -30 -153.999s-47.167 -88.5 -81.5 -123.5s-74.5 -62.5 -120.5 -82.5s-95.333 -30 -148 -30s-102 10 -148 30s-86.167 47.5 -120.5 82.5s-61.5 76.167 -81.5 123.5s-30 98.666 -30 153.999z
M765.001 350.001c0 52.667 -8.83301 101 -26.5 145s-42 82 -73 114s-67.5 56.833 -109.5 74.5s-87.333 26.5 -136 26.5s-94 -8.83301 -136 -26.5s-78.5 -42.5 -109.5 -74.5s-55.333 -70 -73 -114s-26.5 -92.333 -26.5 -145s8.83301 -101 26.5 -145s42 -82 73 -114
s67.5 -56.833 109.5 -74.5s87.333 -26.5 136 -26.5s94 8.83301 136 26.5s78.5 42.5 109.5 74.5s55.333 70 73 114s26.5 92.333 26.5 145z" />
    <glyph glyph-name="macron" unicode="&#xaf;" horiz-adv-x="300" 
d="M20 655v45h260v-45h-260z" />
    <glyph glyph-name="degree" unicode="&#xb0;" horiz-adv-x="370" 
d="M340 555c0 -21.333 -3.66699 -41.333 -11 -60s-17.666 -35 -30.999 -49s-29.5 -25.167 -48.5 -33.5s-40.5 -12.5 -64.5 -12.5s-45.5 4.16699 -64.5 12.5s-35.167 19.5 -48.5 33.5s-23.666 30.333 -30.999 49s-11 38.667 -11 60s3.66699 41.333 11 60s17.666 35 30.999 49
s29.5 25.167 48.5 33.5s40.5 12.5 64.5 12.5s45.5 -4.16699 64.5 -12.5s35.167 -19.5 48.5 -33.5s23.666 -30.333 30.999 -49s11 -38.667 11 -60zM265 555c0 35.333 -7.66699 61.666 -23 78.999s-34.333 26 -57 26s-41.667 -8.66699 -57 -26s-23 -43.666 -23 -78.999
s7.66699 -61.666 23 -78.999s34.333 -26 57 -26s41.667 8.66699 57 26s23 43.666 23 78.999z" />
    <glyph glyph-name="plusminus" unicode="&#xb1;" horiz-adv-x="505" 
d="M230 135v185h-200v45h200v205h45v-205h200v-45h-200v-185h-45zM465 95v-45h-425v45h425z" />
    <glyph glyph-name="twosuperior" unicode="&#xb2;" horiz-adv-x="345" 
d="M175 710c47.333 0 82.501 -9.83105 105.501 -29.498s34.5 -43.167 34.5 -70.5c0 -20 -4.83301 -37 -14.5 -51s-22.334 -26.167 -38.001 -36.5s-33.167 -19.333 -52.5 -27l-57.5 -23c-19 -7.66699 -36.667 -16 -53 -25s-29.5 -19.833 -39.5 -32.5h190
c1.33301 11.333 4.16602 21.833 8.49902 31.5s8.83301 18.167 13.5 25.5c5.33301 8 11.333 15.667 18 23h20v-125h-280v30c0 20 4.33301 37 13 51s19.5 26.5 32.5 37.5s27 21.167 42 30.5s29 19.166 42 29.499s23.833 21.833 32.5 34.5s13 28.334 13 47.001
c0 17.333 -5.16699 31.666 -15.5 42.999s-21.833 17 -34.5 17c-5.33301 0 -10.166 -0.333008 -14.499 -1l-12.5 -2c-4.66699 -0.666992 -9 -1.33398 -13 -2.00098v-100c-3.33301 -1.33301 -6.66602 -2.33301 -9.99902 -3s-7 -1.16699 -11 -1.5s-8.66699 -0.5 -14 -0.5
c-15.333 0 -27.5 4.5 -36.5 13.5s-13.5 21.167 -13.5 36.5c0 10 2.66699 19.833 8 29.5s13.666 18.167 24.999 25.5s26.333 13.333 45 18s41 7 67 7z" />
    <glyph glyph-name="threesuperior" unicode="&#xb3;" horiz-adv-x="360" 
d="M175 360c-26 0 -48.335 2.33301 -67.002 7s-33.667 10.667 -45 18s-19.666 15.833 -24.999 25.5s-8 19.5 -8 29.5c0 15.333 4.5 27.5 13.5 36.5s21.167 13.5 36.5 13.5c5.33301 0 10 -0.333008 14 -1s7.66699 -1.33398 11 -2.00098l10 -2v-100
c4 -1.33301 8.33301 -2.33301 13 -3c4 -0.666992 8.16699 -1.16699 12.5 -1.5s9.16602 -0.5 14.499 -0.5c20 0 35.833 6.33301 47.5 19s17.5 31.334 17.5 56.001c0 25.333 -5.66699 44.166 -17 56.499s-25.666 18.5 -42.999 18.5h-26v20h26c10 0 20 6 30 18s15 29.333 15 52
s-5 40 -15 52s-20 18 -30 18c-5.33301 0 -10.166 -0.333008 -14.499 -1l-12.5 -2c-4.66699 -0.666992 -9 -1.33398 -13 -2.00098v-100c-3.33301 -1.33301 -6.66602 -2.33301 -9.99902 -3s-7 -1.16699 -11 -1.5s-8.66699 -0.5 -14 -0.5c-15.333 0 -27.5 4.5 -36.5 13.5
s-13.5 21.167 -13.5 36.5c0 10 2.66699 19.833 8 29.5s13.666 18.167 24.999 25.5s26.333 13.333 45 18s41 7 67 7c22.667 0 42.334 -2.5 59.001 -7.5s30.667 -11.833 42 -20.5s19.833 -18.334 25.5 -29.001s8.5 -21.667 8.5 -33c0 -19.333 -5.83301 -34.166 -17.5 -44.499
s-24.167 -18.166 -37.5 -23.499c-16.667 -6.66699 -35 -10.667 -55 -12c23.333 -2 44 -6.33301 62 -13c15.333 -5.33301 29.666 -13.666 42.999 -24.999s20 -27 20 -47c0 -25.333 -12.167 -47.5 -36.5 -66.5s-63.833 -28.5 -118.5 -28.5z" />
    <glyph glyph-name="acute" unicode="&#xb4;" horiz-adv-x="220" 
d="M200 700l-135 -150h-35l40 150h130z" />
    <glyph glyph-name="mu" unicode="&#xb5;" horiz-adv-x="655" 
d="M30 -200l-0.00195312 15l60 15v640l-60 15v15h130c60 0 90 -30 90 -90v-250c0 -22.667 2.33301 -42.167 7 -58.5s10.5 -29.833 17.5 -40.5s15 -18.5 24 -23.5s17.833 -7.5 26.5 -7.5c15.333 0 28.5 4.16699 39.5 12.5s20.167 17.5 27.5 27.5
c8.66699 12 16.334 25.333 23.001 40v360l-60 15v15h280v-15l-60 -15v-475h-10c-29.333 0 -52.833 4.66699 -70.5 14s-31.167 19.666 -40.5 30.999c-11.333 12.667 -19.333 27.667 -24 45c-6 -17.333 -14 -32.333 -24 -45c-8.66699 -11.333 -19.667 -21.666 -33 -30.999
s-29.333 -14 -48 -14c-12.667 0 -23.667 1.66699 -33 5s-17 7.33301 -23 12c-7.33301 5.33301 -13.666 11.333 -18.999 18v-140c0 -60 -30 -90 -90 -90h-130z" />
    <glyph glyph-name="mu" unicode="&#x3bc;" horiz-adv-x="655" 
d="M30 -200l-0.00195312 15l60 15v640l-60 15v15h130c60 0 90 -30 90 -90v-250c0 -22.667 2.33301 -42.167 7 -58.5s10.5 -29.833 17.5 -40.5s15 -18.5 24 -23.5s17.833 -7.5 26.5 -7.5c15.333 0 28.5 4.16699 39.5 12.5s20.167 17.5 27.5 27.5
c8.66699 12 16.334 25.333 23.001 40v360l-60 15v15h280v-15l-60 -15v-475h-10c-29.333 0 -52.833 4.66699 -70.5 14s-31.167 19.666 -40.5 30.999c-11.333 12.667 -19.333 27.667 -24 45c-6 -17.333 -14 -32.333 -24 -45c-8.66699 -11.333 -19.667 -21.666 -33 -30.999
s-29.333 -14 -48 -14c-12.667 0 -23.667 1.66699 -33 5s-17 7.33301 -23 12c-7.33301 5.33301 -13.666 11.333 -18.999 18v-140c0 -60 -30 -90 -90 -90h-130z" />
    <glyph glyph-name="paragraph" unicode="&#xb6;" horiz-adv-x="590" 
d="M270 -200v470c-78 0 -136.667 18.833 -176 56.5s-59 90.5 -59 158.5s19.667 120.833 59 158.5s98 56.5 176 56.5h295v-30h-80v-870h-55v870h-105v-870h-55z" />
    <glyph glyph-name="periodcentered" unicode="&#xb7;" horiz-adv-x="280" 
d="M215 350c0 -22.667 -7.5 -41.667 -22.5 -57s-32.5 -23 -52.5 -23s-37.5 7.66699 -52.5 23s-22.5 34.333 -22.5 57s7.5 41.667 22.5 57s32.5 23 52.5 23s37.5 -7.66699 52.5 -23s22.5 -34.333 22.5 -57z" />
    <glyph glyph-name="cedilla" unicode="&#xb8;" horiz-adv-x="201" 
d="M51 0h34.998v-50c30 0 53.333 -7.5 70 -22.5s25 -32.5 25 -52.5s-8.66699 -37.5 -26 -52.5s-43.666 -22.5 -78.999 -22.5c-7.33301 0 -14.333 0.166992 -21 0.5s-12.667 0.833008 -18 1.5c-6 0.666992 -11.667 1.66699 -17 3v30c2.66699 -2 6 -3.66699 10 -5
c6.66699 -3.33301 15.334 -5 26.001 -5c15.333 0 27.5 4.5 36.5 13.5s13.5 21.167 13.5 36.5s-4.83301 27.5 -14.5 36.5s-23.167 13.5 -40.5 13.5v75z" />
    <glyph glyph-name="onesuperior" unicode="&#xb9;" horiz-adv-x="285" 
d="M215 395l40 -10v-15h-190v15l40 10v225l-60 -45l-15 15l110 110h75v-305z" />
    <glyph glyph-name="ordmasculine" unicode="&#xba;" horiz-adv-x="390" 
d="M250 535c0 31.333 -1.66699 57 -5 77s-7.66602 35.833 -12.999 47.5s-11.333 19.667 -18 24s-13 6.5 -19 6.5s-12.333 -2.16699 -19 -6.5s-12.667 -12.333 -18 -24s-9.66602 -27.5 -12.999 -47.5s-5 -45.667 -5 -77s1.66699 -57 5 -77s7.66602 -35.833 12.999 -47.5
s11.333 -19.667 18 -24s13 -6.5 19 -6.5s12.333 2.16699 19 6.5s12.667 12.333 18 24s9.66602 27.5 12.999 47.5s5 45.667 5 77zM360 535c0 -26 -4.16699 -49.833 -12.5 -71.5s-19.833 -40.167 -34.5 -55.5s-32 -27.166 -52 -35.499s-42 -12.5 -66 -12.5
s-46 4.16699 -66 12.5s-37.333 20.166 -52 35.499s-26.167 33.833 -34.5 55.5s-12.5 45.5 -12.5 71.5s4.16699 49.833 12.5 71.5s19.833 40.167 34.5 55.5s32 27.166 52 35.499s42 12.5 66 12.5s46 -4.16699 66 -12.5s37.333 -20.166 52 -35.499s26.167 -33.833 34.5 -55.5
s12.5 -45.5 12.5 -71.5z" />
    <glyph glyph-name="guillemotright" unicode="&#xbb;" horiz-adv-x="440" 
d="M165 20l-25 25l185 205l-185 205l25 25l260 -230zM55 75l-25 25l120 150l-120 150l25 25l190 -175z" />
    <glyph glyph-name="onequarter" unicode="&#xbc;" horiz-adv-x="705" 
d="M635 700l-515 -700h-55l515 700h55zM205 395l40 -10v-15h-190v15l40 10v225l-60 -45l-15 15l110 110h75v-305zM535 340c47.333 0 82.501 -9.83105 105.501 -29.498s34.5 -43.167 34.5 -70.5c0 -20 -4.83301 -37 -14.5 -51s-22.334 -26.167 -38.001 -36.5
s-33.167 -19.333 -52.5 -27l-57.5 -23c-19 -7.66699 -36.667 -16 -53 -25s-29.5 -19.833 -39.5 -32.5h190c1.33301 11.333 4.16602 21.833 8.49902 31.5s8.83301 18.167 13.5 25.5c5.33301 8 11.333 15.667 18 23h20v-125h-280v30c0 20 4.33301 37 13 51
s19.5 26.5 32.5 37.5s27 21.167 42 30.5s29 19.166 42 29.499s23.833 21.833 32.5 34.5s13 28.334 13 47.001c0 17.333 -5.16699 31.666 -15.5 42.999s-21.833 17 -34.5 17c-5.33301 0 -10.166 -0.333008 -14.499 -1l-12.5 -2c-4.66699 -0.666992 -9 -1.33398 -13 -2.00098
v-100c-3.33301 -1.33301 -6.66602 -2.33301 -9.99902 -3s-7 -1.16699 -11 -1.5s-8.66699 -0.5 -14 -0.5c-15.333 0 -27.5 4.5 -36.5 13.5s-13.5 21.167 -13.5 36.5c0 10 2.66699 19.833 8 29.5s13.666 18.167 24.999 25.5s26.333 13.333 45 18s41 7 67 7z" />
    <glyph glyph-name="onehalf" unicode="&#xbd;" horiz-adv-x="687" 
d="M645 700l-515 -700h-55l515 700h55zM205 395l40 -10v-15h-190v15l40 10v225l-60 -45l-15 15l110 110h75v-305zM325 100l210 230h60v-225h62v-30h-62v-50l40 -10v-15h-190v15l40 10v50h-145zM365 105h120v130z" />
    <glyph glyph-name="threequarters" unicode="&#xbe;" horiz-adv-x="707" 
d="M345 100l210 230h60v-225h62v-30h-62v-50l40 -10v-15h-190v15l40 10v50h-145zM385 105h120v130zM675 700l-515 -700h-55l515 700h55zM175 360c-26 0 -48.335 2.33301 -67.002 7s-33.667 10.667 -45 18s-19.666 15.833 -24.999 25.5s-8 19.5 -8 29.5
c0 15.333 4.5 27.5 13.5 36.5s21.167 13.5 36.5 13.5c5.33301 0 10 -0.333008 14 -1s7.66699 -1.33398 11 -2.00098l10 -2v-100c4 -1.33301 8.33301 -2.33301 13 -3c4 -0.666992 8.16699 -1.16699 12.5 -1.5s9.16602 -0.5 14.499 -0.5c20 0 35.833 6.33301 47.5 19
s17.5 31.334 17.5 56.001c0 25.333 -5.66699 44.166 -17 56.499s-25.666 18.5 -42.999 18.5h-26v20h26c10 0 20 6 30 18s15 29.333 15 52s-5 40 -15 52s-20 18 -30 18c-5.33301 0 -10.166 -0.333008 -14.499 -1l-12.5 -2c-4.66699 -0.666992 -9 -1.33398 -13 -2.00098v-100
c-3.33301 -1.33301 -6.66602 -2.33301 -9.99902 -3s-7 -1.16699 -11 -1.5s-8.66699 -0.5 -14 -0.5c-15.333 0 -27.5 4.5 -36.5 13.5s-13.5 21.167 -13.5 36.5c0 10 2.66699 19.833 8 29.5s13.666 18.167 24.999 25.5s26.333 13.333 45 18s41 7 67 7
c22.667 0 42.334 -2.5 59.001 -7.5s30.667 -11.833 42 -20.5s19.833 -18.334 25.5 -29.001s8.5 -21.667 8.5 -33c0 -19.333 -5.83301 -34.166 -17.5 -44.499s-24.167 -18.166 -37.5 -23.499c-16.667 -6.66699 -35 -10.667 -55 -12c23.333 -2 44 -6.33301 62 -13
c15.333 -5.33301 29.666 -13.666 42.999 -24.999s20 -27 20 -47c0 -25.333 -12.167 -47.5 -36.5 -66.5s-63.833 -28.5 -118.5 -28.5z" />
    <glyph glyph-name="questiondown" unicode="&#xbf;" 
d="M350 -190c12.667 0 23.832 0.663086 33.499 1.99609s18.167 3 25.5 5c8 2.66699 15 5.33398 21 8.00098v160c3.33301 0.666992 7.33301 1.33398 12 2.00098c3.33301 0.666992 7.5 1.33398 12.5 2.00098s10.167 1 15.5 1c22.667 0 40.834 -6.83301 54.501 -20.5
s20.5 -31.834 20.5 -54.501c0 -15.333 -4.33301 -30.666 -13 -45.999s-22 -29.166 -40 -41.499s-40.5 -22.5 -67.5 -30.5s-58.5 -12 -94.5 -12c-51.333 0 -95.5 5.33301 -132.5 16s-67.5 25.167 -91.5 43.5s-41.833 40 -53.5 65s-17.5 51.833 -17.5 80.5
c0 55.333 20.333 101.833 61 139.5s103.667 62.834 189 75.501l5 80h40l5 -95c-18.667 -7.33301 -35.667 -16.333 -51 -27s-28.5 -23.834 -39.5 -39.501s-19.5 -34.334 -25.5 -56.001s-9 -47.5 -9 -77.5c0 -65.333 11.833 -111.666 35.5 -138.999s58.5 -41 104.5 -41z
M239.998 429.996c0 22.667 7.5 41.667 22.5 57s32.5 23 52.5 23s37.5 -7.66699 52.5 -23s22.5 -34.333 22.5 -57s-7.5 -41.667 -22.5 -57s-32.5 -23 -52.5 -23s-37.5 7.66699 -52.5 23s-22.5 34.333 -22.5 57z" />
    <glyph glyph-name="Agrave" unicode="&#xc0;" horiz-adv-x="680" 
d="M165 15l-0.00195312 -15h-185v15l80 30l275 665h30l285 -680l50 -15v-15h-120c-37.333 0 -66.666 8.5 -87.999 25.5s-36.666 36.833 -45.999 59.5l-51 120h-239l-66 -160zM165.998 230h219l-110 263zM329.998 900l40 -150h-35l-135 150h130z" />
    <glyph glyph-name="Aacute" unicode="&#xc1;" horiz-adv-x="680" 
d="M165 15l-0.00195312 -15h-185v15l80 30l275 665h30l285 -680l50 -15v-15h-120c-37.333 0 -66.666 8.5 -87.999 25.5s-36.666 36.833 -45.999 59.5l-51 120h-239l-66 -160zM165.998 230h219l-110 263zM499.998 900l-135 -150h-35l40 150h130z" />
    <glyph glyph-name="Acircumflex" unicode="&#xc2;" horiz-adv-x="680" 
d="M165 15l-0.00195312 -15h-185v15l80 30l275 665h30l285 -680l50 -15v-15h-120c-37.333 0 -66.666 8.5 -87.999 25.5s-36.666 36.833 -45.999 59.5l-51 120h-239l-66 -160zM165.998 230h219l-110 263zM354.998 905l145 -165h-35l-110 70l-110 -70h-35z" />
    <glyph glyph-name="Atilde" unicode="&#xc3;" horiz-adv-x="680" 
d="M165 15l-0.00195312 -15h-185v15l80 30l275 665h30l285 -680l50 -15v-15h-120c-37.333 0 -66.666 8.5 -87.999 25.5s-36.666 36.833 -45.999 59.5l-51 120h-239l-66 -160zM165.998 230h219l-110 263zM401.998 765c-15.333 0 -28.168 2.66699 -38.501 8s-20 11 -29 17
l-25.5 17c-8 5.33301 -17 8 -27 8c-12.667 0 -23.334 -4.33301 -32.001 -13s-13 -19.334 -13 -32.001h-20c0 40 8 69.167 24 87.5s38 27.5 66 27.5c14.667 0 27.334 -2.66699 38.001 -8s20.5 -11 29.5 -17l25.5 -17c8 -5.33301 17 -8 27 -8
c12.667 0 23.334 4.33301 32.001 13s13 19.334 13 32.001h20c0 -40 -8 -69.167 -24 -87.5s-38 -27.5 -66 -27.5z" />
    <glyph glyph-name="Adieresis" unicode="&#xc4;" horiz-adv-x="680" 
d="M165 15l-0.00195312 -15h-185v15l80 30l275 665h30l285 -680l50 -15v-15h-120c-37.333 0 -66.666 8.5 -87.999 25.5s-36.666 36.833 -45.999 59.5l-51 120h-239l-66 -160zM165.998 230h219l-110 263zM191.998 830c0 20 6.66699 36.667 20 50s30 20 50 20
s36.667 -6.66699 50 -20s20 -30 20 -50s-6.66699 -36.667 -20 -50s-30 -20 -50 -20s-36.667 6.66699 -50 20s-20 30 -20 50zM376.998 830c0 20 6.66699 36.667 20 50s30 20 50 20s36.667 -6.66699 50 -20s20 -30 20 -50s-6.66699 -36.667 -20 -50s-30 -20 -50 -20
s-36.667 6.66699 -50 20s-20 30 -20 50z" />
    <glyph glyph-name="Aring" unicode="&#xc5;" horiz-adv-x="680" 
d="M165 15v-15h-185v15l80 30l262 633c-23.333 6 -42 17.833 -56 35.5s-21 38.167 -21 61.5c0 14 2.66699 27 8 39s12.666 22.5 21.999 31.5s20.333 16.167 33 21.5s26.667 8 42 8c14.667 0 28.5 -2.66699 41.5 -8s24.167 -12.5 33.5 -21.5s16.666 -19.5 21.999 -31.5
s8 -25 8 -39c0 -23.333 -7.16699 -43.833 -21.5 -61.5s-32.833 -29.5 -55.5 -35.5l272 -648l50 -15v-15h-120c-37.333 0 -66.666 8.5 -87.999 25.5s-36.666 36.833 -45.999 59.5l-51 120h-239l-66 -160zM166 230h219l-110 263zM405 775c0 20 -5.33301 35.833 -16 47.5
s-23.667 17.5 -39 17.5s-28.333 -5.83301 -39 -17.5s-16 -27.5 -16 -47.5s5.33301 -35.833 16 -47.5s23.667 -17.5 39 -17.5s28.333 5.83301 39 17.5s16 27.5 16 47.5z" />
    <glyph glyph-name="AE" unicode="&#xc6;" horiz-adv-x="991" 
d="M465 265l-257 0.000976562l-122 -220l75 -30v-15h-191v15l80 30l366 655h514v-180h-30c-12.667 10 -23.667 22.667 -33 38c-8 13.333 -15.333 29.5 -22 48.5s-10 41.833 -10 68.5h-205v-315h105c2.66699 13.333 6.33398 26.166 11.001 38.499s9.66699 23.166 15 32.499
c6 10.667 12.333 20.334 19 29.001h30v-225h-30c-6.66699 8.66699 -13 18.334 -19 29.001c-5.33301 9.33301 -10.333 20 -15 32s-8.33398 25 -11.001 39h-105v-310h225c0 26 3.33301 48.667 10 68s14 35.666 22 48.999c9.33301 15.333 20.333 28 33 38h30v-180h-545v15
l60 15v235zM223 290.001h242v385h-27z" />
    <glyph glyph-name="Ccedilla" unicode="&#xc7;" horiz-adv-x="650" 
d="M361 715c23.333 0 44.8301 -3.50195 64.4971 -10.502s36.5 -14.5 50.5 -22.5c16.667 -9.33301 31.334 -20 44.001 -32c5.33301 8.66699 11.166 16.5 17.499 23.5s12.166 12.833 17.499 17.5c6.66699 5.33301 13.334 10 20.001 14h25v-190h-40
c-9.33301 32 -22.333 61 -39 87c-14 22 -32.667 42.167 -56 60.5s-51.666 27.5 -84.999 27.5c-20 0 -39.667 -5.5 -59 -16.5s-36.5 -29.667 -51.5 -56s-27 -61.333 -36 -105s-13.5 -97.834 -13.5 -162.501c0 -65.333 4.66699 -119.666 14 -162.999
s22.333 -78.166 39 -104.499s36.334 -45 59.001 -56s47 -16.5 73 -16.5c24 0 47 5.16699 69 15.5s41.667 24.333 59 42s31.166 37.834 41.499 60.501s15.5 46.667 15.5 72h25c0 -28.667 -5.83301 -56 -17.5 -82s-27.834 -48.833 -48.501 -68.5s-45 -35.334 -73 -47.001
s-58.333 -17.5 -91 -17.5h-12v-35c30 0 53.333 -7.5 70 -22.5s25 -32.5 25 -52.5s-8.66699 -37.5 -26 -52.5s-43.666 -22.5 -78.999 -22.5c-7.33301 0 -14.333 0.166992 -21 0.5s-12.667 0.833008 -18 1.5c-6 0.666992 -11.667 1.66699 -17 3v30
c2.66699 -2 6 -3.66699 10 -5c6.66699 -3.33301 15.334 -5 26.001 -5c15.333 0 27.5 4.5 36.5 13.5s13.5 21.167 13.5 36.5s-4.83301 27.5 -14.5 36.5s-23.167 13.5 -40.5 13.5v63c-92 8.66699 -163.833 43.834 -215.5 105.501s-77.5 147.167 -77.5 256.5
c0 58.667 7.66699 110.667 23 156s37 83.5 65 114.5s61.333 54.5 100 70.5s81.334 24 128.001 24z" />
    <glyph glyph-name="Egrave" unicode="&#xc8;" horiz-adv-x="645" 
d="M390 360c2.66699 13.333 6.33398 26.167 11.001 38.5s9.66699 23.166 15 32.499c6 10.667 12.333 20.334 19 29.001h30v-225h-30c-6.66699 8.66699 -13 18.334 -19 29.001c-5.33301 9.33301 -10.333 20 -15 32s-8.33398 25 -11.001 39h-115v-310h235
c0 26 3.33301 48.667 10 68s14 35.666 22 48.999c9.33301 15.333 20.333 28 33 38h30v-180h-555v15l60 15v640l-60 15v15h535v-180h-30c-12.667 10 -23.667 22.667 -33 38c-8 13.333 -15.333 29.5 -22 48.5s-10 41.833 -10 68.5h-215v-315h115zM347 900.001l40 -150h-35
l-135 150h130z" />
    <glyph glyph-name="Eacute" unicode="&#xc9;" horiz-adv-x="645" 
d="M390 360c2.66699 13.333 6.33398 26.167 11.001 38.5s9.66699 23.166 15 32.499c6 10.667 12.333 20.334 19 29.001h30v-225h-30c-6.66699 8.66699 -13 18.334 -19 29.001c-5.33301 9.33301 -10.333 20 -15 32s-8.33398 25 -11.001 39h-115v-310h235
c0 26 3.33301 48.667 10 68s14 35.666 22 48.999c9.33301 15.333 20.333 28 33 38h30v-180h-555v15l60 15v640l-60 15v15h535v-180h-30c-12.667 10 -23.667 22.667 -33 38c-8 13.333 -15.333 29.5 -22 48.5s-10 41.833 -10 68.5h-215v-315h115zM467 900.001l-135 -150h-35
l40 150h130z" />
    <glyph glyph-name="Ecircumflex" unicode="&#xca;" horiz-adv-x="645" 
d="M390 360c2.66699 13.333 6.33398 26.167 11.001 38.5s9.66699 23.166 15 32.499c6 10.667 12.333 20.334 19 29.001h30v-225h-30c-6.66699 8.66699 -13 18.334 -19 29.001c-5.33301 9.33301 -10.333 20 -15 32s-8.33398 25 -11.001 39h-115v-310h235
c0 26 3.33301 48.667 10 68s14 35.666 22 48.999c9.33301 15.333 20.333 28 33 38h30v-180h-555v15l60 15v640l-60 15v15h535v-180h-30c-12.667 10 -23.667 22.667 -33 38c-8 13.333 -15.333 29.5 -22 48.5s-10 41.833 -10 68.5h-215v-315h115zM342 925.001l145 -165h-35
l-110 70l-110 -70h-35z" />
    <glyph glyph-name="Edieresis" unicode="&#xcb;" horiz-adv-x="645" 
d="M390 360c2.66699 13.333 6.33398 26.167 11.001 38.5s9.66699 23.166 15 32.499c6 10.667 12.333 20.334 19 29.001h30v-225h-30c-6.66699 8.66699 -13 18.334 -19 29.001c-5.33301 9.33301 -10.333 20 -15 32s-8.33398 25 -11.001 39h-115v-310h235
c0 26 3.33301 48.667 10 68s14 35.666 22 48.999c9.33301 15.333 20.333 28 33 38h30v-180h-555v15l60 15v640l-60 15v15h535v-180h-30c-12.667 10 -23.667 22.667 -33 38c-8 13.333 -15.333 29.5 -22 48.5s-10 41.833 -10 68.5h-215v-315h115zM180 840.001
c0 20 6.66699 36.667 20 50s30 20 50 20s36.667 -6.66699 50 -20s20 -30 20 -50s-6.66699 -36.667 -20 -50s-30 -20 -50 -20s-36.667 6.66699 -50 20s-20 30 -20 50zM365 840.001c0 20 6.66699 36.667 20 50s30 20 50 20s36.667 -6.66699 50 -20s20 -30 20 -50
s-6.66699 -36.667 -20 -50s-30 -20 -50 -20s-36.667 6.66699 -50 20s-20 30 -20 50z" />
    <glyph glyph-name="Igrave" unicode="&#xcc;" horiz-adv-x="385" 
d="M50 685v15h285v-15l-60 -15v-640l60 -15v-15h-285v15l60 15v640zM177 900l40 -150h-35l-135 150h130z" />
    <glyph glyph-name="Iacute" unicode="&#xcd;" horiz-adv-x="385" 
d="M50 685v15h285v-15l-60 -15v-640l60 -15v-15h-285v15l60 15v640zM337 900l-135 -150h-35l40 150h130z" />
    <glyph glyph-name="Icircumflex" unicode="&#xce;" horiz-adv-x="385" 
d="M50 685v15h285v-15l-60 -15v-640l60 -15v-15h-285v15l60 15v640zM192 930l145 -165h-35l-110 70l-110 -70h-35z" />
    <glyph glyph-name="Idieresis" unicode="&#xcf;" horiz-adv-x="385" 
d="M50 685v15h285v-15l-60 -15v-640l60 -15v-15h-285v15l60 15v640zM30 845c0 20 6.66699 36.667 20 50s30 20 50 20s36.667 -6.66699 50 -20s20 -30 20 -50s-6.66699 -36.667 -20 -50s-30 -20 -50 -20s-36.667 6.66699 -50 20s-20 30 -20 50zM215 845
c0 20 6.66699 36.667 20 50s30 20 50 20s36.667 -6.66699 50 -20s20 -30 20 -50s-6.66699 -36.667 -20 -50s-30 -20 -50 -20s-36.667 6.66699 -50 20s-20 30 -20 50z" />
    <glyph glyph-name="Eth" unicode="&#xd0;" horiz-adv-x="715" 
d="M115 370v300l-60 15v15h255c120 0 211.667 -30.833 275 -92.5s95 -147.5 95 -257.5s-31.667 -195.833 -95 -257.5s-155 -92.5 -275 -92.5h-255v15l60 15v310h-65v30h65zM280 675v-304.996h120v-30h-120v-315h30c28.667 0 55 5.5 79 16.5s44.5 29.167 61.5 54.5
s30.333 58.666 40 99.999s14.5 92.666 14.5 153.999s-4.83301 112.666 -14.5 153.999s-23 74.666 -40 99.999s-37.5 43.5 -61.5 54.5s-50.333 16.5 -79 16.5h-30z" />
    <glyph glyph-name="Ntilde" unicode="&#xd1;" horiz-adv-x="740" 
d="M605 655l-80 29.999v15h190v-15l-80 -30v-670h-30l-465 545v-485l80 -30v-15h-190v15l80 30v620l-70 20v15h105c20 0 37.333 -2.16699 52 -6.5s27.5 -10 38.5 -17s20.5 -14.667 28.5 -23s15 -16.166 21 -23.499l320 -375v400zM440 764.999
c-15.333 0 -28.168 2.66699 -38.501 8s-20 11 -29 17l-25.5 17c-8 5.33301 -17 8 -27 8c-12.667 0 -23.334 -4.33301 -32.001 -13s-13 -19.334 -13 -32.001h-20c0 40 8 69.167 24 87.5s38 27.5 66 27.5c14.667 0 27.334 -2.66699 38.001 -8s20.5 -11 29.5 -17l25.5 -17
c8 -5.33301 17 -8 27 -8c12.667 0 23.334 4.33301 32.001 13s13 19.334 13 32.001h20c0 -40 -8 -69.167 -24 -87.5s-38 -27.5 -66 -27.5z" />
    <glyph glyph-name="Ograve" unicode="&#xd2;" horiz-adv-x="740" 
d="M520 350c0 66 -4.5 121.167 -13.5 165.5s-20.667 79.833 -35 106.5s-30.5 45.5 -48.5 56.5s-35.667 16.5 -53 16.5s-35 -5.5 -53 -16.5s-34.167 -29.833 -48.5 -56.5s-26 -62.167 -35 -106.5s-13.5 -99.5 -13.5 -165.5s4.5 -121.167 13.5 -165.5
s20.667 -79.833 35 -106.5s30.5 -45.5 48.5 -56.5s35.667 -16.5 53 -16.5s35 5.5 53 16.5s34.167 29.833 48.5 56.5s26 62.167 35 106.5s13.5 99.5 13.5 165.5zM695 350c0 -58.667 -7.83301 -110.667 -23.5 -156s-37.667 -83.5 -66 -114.5s-62.5 -54.5 -102.5 -70.5
s-84.333 -24 -133 -24s-93 8 -133 24s-74.167 39.5 -102.5 70.5s-50.333 69.167 -66 114.5s-23.5 97.333 -23.5 156s7.83301 110.667 23.5 156s37.667 83.5 66 114.5s62.5 54.5 102.5 70.5s84.333 24 133 24s93 -8 133 -24s74.167 -39.5 102.5 -70.5
s50.333 -69.167 66 -114.5s23.5 -97.333 23.5 -156zM355 900l40 -150h-35l-135 150h130z" />
    <glyph glyph-name="Oacute" unicode="&#xd3;" horiz-adv-x="740" 
d="M520 350c0 66 -4.5 121.167 -13.5 165.5s-20.667 79.833 -35 106.5s-30.5 45.5 -48.5 56.5s-35.667 16.5 -53 16.5s-35 -5.5 -53 -16.5s-34.167 -29.833 -48.5 -56.5s-26 -62.167 -35 -106.5s-13.5 -99.5 -13.5 -165.5s4.5 -121.167 13.5 -165.5
s20.667 -79.833 35 -106.5s30.5 -45.5 48.5 -56.5s35.667 -16.5 53 -16.5s35 5.5 53 16.5s34.167 29.833 48.5 56.5s26 62.167 35 106.5s13.5 99.5 13.5 165.5zM695 350c0 -58.667 -7.83301 -110.667 -23.5 -156s-37.667 -83.5 -66 -114.5s-62.5 -54.5 -102.5 -70.5
s-84.333 -24 -133 -24s-93 8 -133 24s-74.167 39.5 -102.5 70.5s-50.333 69.167 -66 114.5s-23.5 97.333 -23.5 156s7.83301 110.667 23.5 156s37.667 83.5 66 114.5s62.5 54.5 102.5 70.5s84.333 24 133 24s93 -8 133 -24s74.167 -39.5 102.5 -70.5
s50.333 -69.167 66 -114.5s23.5 -97.333 23.5 -156zM515 900l-135 -150h-35l40 150h130z" />
    <glyph glyph-name="Ocircumflex" unicode="&#xd4;" horiz-adv-x="740" 
d="M520 350c0 66 -4.5 121.167 -13.5 165.5s-20.667 79.833 -35 106.5s-30.5 45.5 -48.5 56.5s-35.667 16.5 -53 16.5s-35 -5.5 -53 -16.5s-34.167 -29.833 -48.5 -56.5s-26 -62.167 -35 -106.5s-13.5 -99.5 -13.5 -165.5s4.5 -121.167 13.5 -165.5
s20.667 -79.833 35 -106.5s30.5 -45.5 48.5 -56.5s35.667 -16.5 53 -16.5s35 5.5 53 16.5s34.167 29.833 48.5 56.5s26 62.167 35 106.5s13.5 99.5 13.5 165.5zM695 350c0 -58.667 -7.83301 -110.667 -23.5 -156s-37.667 -83.5 -66 -114.5s-62.5 -54.5 -102.5 -70.5
s-84.333 -24 -133 -24s-93 8 -133 24s-74.167 39.5 -102.5 70.5s-50.333 69.167 -66 114.5s-23.5 97.333 -23.5 156s7.83301 110.667 23.5 156s37.667 83.5 66 114.5s62.5 54.5 102.5 70.5s84.333 24 133 24s93 -8 133 -24s74.167 -39.5 102.5 -70.5
s50.333 -69.167 66 -114.5s23.5 -97.333 23.5 -156zM370 930l145 -165h-35l-110 70l-110 -70h-35z" />
    <glyph glyph-name="Otilde" unicode="&#xd5;" horiz-adv-x="740" 
d="M520 350c0 66 -4.5 121.167 -13.5 165.5s-20.667 79.833 -35 106.5s-30.5 45.5 -48.5 56.5s-35.667 16.5 -53 16.5s-35 -5.5 -53 -16.5s-34.167 -29.833 -48.5 -56.5s-26 -62.167 -35 -106.5s-13.5 -99.5 -13.5 -165.5s4.5 -121.167 13.5 -165.5
s20.667 -79.833 35 -106.5s30.5 -45.5 48.5 -56.5s35.667 -16.5 53 -16.5s35 5.5 53 16.5s34.167 29.833 48.5 56.5s26 62.167 35 106.5s13.5 99.5 13.5 165.5zM695 350c0 -58.667 -7.83301 -110.667 -23.5 -156s-37.667 -83.5 -66 -114.5s-62.5 -54.5 -102.5 -70.5
s-84.333 -24 -133 -24s-93 8 -133 24s-74.167 39.5 -102.5 70.5s-50.333 69.167 -66 114.5s-23.5 97.333 -23.5 156s7.83301 110.667 23.5 156s37.667 83.5 66 114.5s62.5 54.5 102.5 70.5s84.333 24 133 24s93 -8 133 -24s74.167 -39.5 102.5 -70.5
s50.333 -69.167 66 -114.5s23.5 -97.333 23.5 -156zM422 775c-15.333 0 -28.168 2.66699 -38.501 8s-20 11 -29 17l-25.5 17c-8 5.33301 -17 8 -27 8c-12.667 0 -23.334 -4.33301 -32.001 -13s-13 -19.334 -13 -32.001h-20c0 40 8 69.167 24 87.5s38 27.5 66 27.5
c14.667 0 27.334 -2.66699 38.001 -8s20.5 -11 29.5 -17l25.5 -17c8 -5.33301 17 -8 27 -8c12.667 0 23.334 4.33301 32.001 13s13 19.334 13 32.001h20c0 -40 -8 -69.167 -24 -87.5s-38 -27.5 -66 -27.5z" />
    <glyph glyph-name="Odieresis" unicode="&#xd6;" horiz-adv-x="740" 
d="M520 350c0 66 -4.5 121.167 -13.5 165.5s-20.667 79.833 -35 106.5s-30.5 45.5 -48.5 56.5s-35.667 16.5 -53 16.5s-35 -5.5 -53 -16.5s-34.167 -29.833 -48.5 -56.5s-26 -62.167 -35 -106.5s-13.5 -99.5 -13.5 -165.5s4.5 -121.167 13.5 -165.5
s20.667 -79.833 35 -106.5s30.5 -45.5 48.5 -56.5s35.667 -16.5 53 -16.5s35 5.5 53 16.5s34.167 29.833 48.5 56.5s26 62.167 35 106.5s13.5 99.5 13.5 165.5zM695 350c0 -58.667 -7.83301 -110.667 -23.5 -156s-37.667 -83.5 -66 -114.5s-62.5 -54.5 -102.5 -70.5
s-84.333 -24 -133 -24s-93 8 -133 24s-74.167 39.5 -102.5 70.5s-50.333 69.167 -66 114.5s-23.5 97.333 -23.5 156s7.83301 110.667 23.5 156s37.667 83.5 66 114.5s62.5 54.5 102.5 70.5s84.333 24 133 24s93 -8 133 -24s74.167 -39.5 102.5 -70.5
s50.333 -69.167 66 -114.5s23.5 -97.333 23.5 -156zM207 845c0 20 6.66699 36.667 20 50s30 20 50 20s36.667 -6.66699 50 -20s20 -30 20 -50s-6.66699 -36.667 -20 -50s-30 -20 -50 -20s-36.667 6.66699 -50 20s-20 30 -20 50zM392 845c0 20 6.66699 36.667 20 50
s30 20 50 20s36.667 -6.66699 50 -20s20 -30 20 -50s-6.66699 -36.667 -20 -50s-30 -20 -50 -20s-36.667 6.66699 -50 20s-20 30 -20 50z" />
    <glyph glyph-name="multiply" unicode="&#xd7;" horiz-adv-x="406" 
d="M344 167l-141 141l-141 -141l-32 31l141 142l-141 141l32 32l141 -141l141 141l32 -32l-141 -141l141 -142z" />
    <glyph glyph-name="Oslash" unicode="&#xd8;" horiz-adv-x="740" 
d="M695 350c0 -58.667 -7.83301 -110.669 -23.5 -156.002s-37.667 -83.5 -66 -114.5s-62.5 -54.5 -102.5 -70.5s-84.333 -24 -133 -24c-83.333 0 -152.333 23.667 -207 71l-43 -56h-35l57 75c-29.333 31.333 -52.833 69.833 -70.5 115.5s-26.5 98.834 -26.5 159.501
c0 58.667 7.83301 110.667 23.5 156s37.667 83.5 66 114.5s62.5 54.5 102.5 70.5s84.333 24 133 24c82.667 0 151.667 -23.667 207 -71l43 56h35l-58 -76c30 -31.333 53.833 -69.666 71.5 -114.999s26.5 -98.333 26.5 -159zM520 349.998c0 31.333 -1.16895 60 -3.50195 86
s-5.16602 49.667 -8.49902 71l-269 -351c6.66699 -28 15 -51.667 25 -71s20.833 -35 32.5 -47s23.834 -20.5 36.501 -25.5s25 -7.5 37 -7.5c17.333 0 35 5.5 53 16.5s34.167 29.833 48.5 56.5s26 62.167 35 106.5s13.5 99.5 13.5 165.5zM219.998 349.998
c0 -62.667 4.00098 -115.333 12.001 -158l268 351c-7.33301 28 -15.833 51.667 -25.5 71s-20.334 35 -32.001 47s-23.667 20.667 -36 26s-24.5 8 -36.5 8c-17.333 0 -35 -5.5 -53 -16.5s-34.167 -29.833 -48.5 -56.5s-26 -62.167 -35 -106.5s-13.5 -99.5 -13.5 -165.5z" />
    <glyph glyph-name="Ugrave" unicode="&#xd9;" horiz-adv-x="710" 
d="M595 655l-79.998 29.998v15h190v-15l-80 -30v-405c0 -41.333 -5.83301 -78.333 -17.5 -111s-27.834 -60.5 -48.501 -83.5s-45 -40.5 -73 -52.5s-58.333 -18 -91 -18c-100 0 -175 23.5 -225 70.5s-75 111.833 -75 194.5v420l-60 15v15h285v-15l-60 -15v-420
c0 -45.333 3.66699 -83.166 11 -113.499s17.666 -55 30.999 -74s29.5 -32.5 48.5 -40.5s40.5 -12 64.5 -12c22.667 0 44.667 5.5 66 16.5s40.5 26.833 57.5 47.5s30.667 45.834 41 75.501s15.5 63.167 15.5 100.5v405zM400.002 899.998l40 -150h-35l-135 150h130z" />
    <glyph glyph-name="Uacute" unicode="&#xda;" horiz-adv-x="710" 
d="M595 655l-79.998 29.998v15h190v-15l-80 -30v-405c0 -41.333 -5.83301 -78.333 -17.5 -111s-27.834 -60.5 -48.501 -83.5s-45 -40.5 -73 -52.5s-58.333 -18 -91 -18c-100 0 -175 23.5 -225 70.5s-75 111.833 -75 194.5v420l-60 15v15h285v-15l-60 -15v-420
c0 -45.333 3.66699 -83.166 11 -113.499s17.666 -55 30.999 -74s29.5 -32.5 48.5 -40.5s40.5 -12 64.5 -12c22.667 0 44.667 5.5 66 16.5s40.5 26.833 57.5 47.5s30.667 45.834 41 75.501s15.5 63.167 15.5 100.5v405zM540.002 899.998l-135 -150h-35l40 150h130z" />
    <glyph glyph-name="Ucircumflex" unicode="&#xdb;" horiz-adv-x="710" 
d="M595 655l-79.998 29.998v15h190v-15l-80 -30v-405c0 -41.333 -5.83301 -78.333 -17.5 -111s-27.834 -60.5 -48.501 -83.5s-45 -40.5 -73 -52.5s-58.333 -18 -91 -18c-100 0 -175 23.5 -225 70.5s-75 111.833 -75 194.5v420l-60 15v15h285v-15l-60 -15v-420
c0 -45.333 3.66699 -83.166 11 -113.499s17.666 -55 30.999 -74s29.5 -32.5 48.5 -40.5s40.5 -12 64.5 -12c22.667 0 44.667 5.5 66 16.5s40.5 26.833 57.5 47.5s30.667 45.834 41 75.501s15.5 63.167 15.5 100.5v405zM405.002 924.998l145 -165h-35l-110 70l-110 -70h-35z
" />
    <glyph glyph-name="Udieresis" unicode="&#xdc;" horiz-adv-x="710" 
d="M595 655l-79.998 29.998v15h190v-15l-80 -30v-405c0 -41.333 -5.83301 -78.333 -17.5 -111s-27.834 -60.5 -48.501 -83.5s-45 -40.5 -73 -52.5s-58.333 -18 -91 -18c-100 0 -175 23.5 -225 70.5s-75 111.833 -75 194.5v420l-60 15v15h285v-15l-60 -15v-420
c0 -45.333 3.66699 -83.166 11 -113.499s17.666 -55 30.999 -74s29.5 -32.5 48.5 -40.5s40.5 -12 64.5 -12c22.667 0 44.667 5.5 66 16.5s40.5 26.833 57.5 47.5s30.667 45.834 41 75.501s15.5 63.167 15.5 100.5v405zM232.002 839.998c0 20 6.66699 36.667 20 50
s30 20 50 20s36.667 -6.66699 50 -20s20 -30 20 -50s-6.66699 -36.667 -20 -50s-30 -20 -50 -20s-36.667 6.66699 -50 20s-20 30 -20 50zM417.002 839.998c0 20 6.66699 36.667 20 50s30 20 50 20s36.667 -6.66699 50 -20s20 -30 20 -50s-6.66699 -36.667 -20 -50
s-30 -20 -50 -20s-36.667 6.66699 -50 20s-20 30 -20 50z" />
    <glyph glyph-name="Yacute" unicode="&#xdd;" horiz-adv-x="665" 
d="M50 670l-50 14.998v15h125c18.667 0 35 -2.16699 49 -6.5s26.333 -10.166 37 -17.499s20 -16.166 28 -26.499s15 -21.833 21 -34.5l148 -295l152 335l-75 30v15h190v-15l-80 -30l-175 -385v-240l60 -15v-15h-285v15l60 15v230zM487 899.998l-135 -150h-35l40 150h130z
" />
    <glyph glyph-name="Thorn" unicode="&#xde;" horiz-adv-x="700" 
d="M320 610c60 0 112 -6.5 156 -19.5s80.333 -31 109 -54s50 -50.5 64 -82.5s21 -66.667 21 -104s-7 -72 -21 -104s-35.333 -59.5 -64 -82.5s-65 -41 -109 -54s-96 -19.5 -156 -19.5h-45v-60l60 -15v-15h-285v15l60 15v640l-60 15v15h285v-15l-60 -15v-60h45zM275 115h45
c24 0 46.5 5 67.5 15s39.5 24.833 55.5 44.5s28.667 44.167 38 73.5s14 63.333 14 102s-4.66699 72.667 -14 102s-22 53.833 -38 73.5s-34.5 34.5 -55.5 44.5s-43.5 15 -67.5 15h-45v-470z" />
    <glyph glyph-name="germandbls" unicode="&#xdf;" horiz-adv-x="690" 
d="M470 10c10 0 19.165 5.33691 27.498 16.0039s12.5 28.667 12.5 54c0 21.333 -4.66699 40 -14 56s-21 30.5 -35 43.5s-29.333 25.667 -46 38s-32 25.5 -46 39.5s-25.667 30 -35 48s-14 39.667 -14 65c0 27.333 4.5 49.5 13.5 66.5s18.667 32.667 29 47s20 29.333 29 45
s13.5 36.167 13.5 61.5c0 32.667 -7.5 57.5 -22.5 74.5s-32.5 25.5 -52.5 25.5c-11.333 0 -21.833 -2.66699 -31.5 -8s-18.167 -15 -25.5 -29s-13 -33.333 -17 -58s-6 -56.334 -6 -95.001v-500h-220v15l60 15v470c0 31.333 5.5 60.166 16.5 86.499s26.833 49 47.5 68
s45.834 33.833 75.501 44.5s63.167 16 100.5 16c31.333 0 59.666 -4.5 84.999 -13.5s46.833 -20.5 64.5 -34.5s31.334 -29.667 41.001 -47s14.5 -34 14.5 -50c0 -27.333 -3.16699 -49.333 -9.5 -66s-13.166 -31.334 -20.499 -44.001l-20.5 -36.5
c-6.33301 -11.667 -9.5 -26.167 -9.5 -43.5c0 -16.667 4.66699 -31.167 14 -43.5s21 -23.833 35 -34.5s29.333 -21.334 46 -32.001s32 -22.5 46 -35.5s25.667 -27.833 35 -44.5s14 -36.667 14 -60c0 -42.667 -14.667 -77.5 -44 -104.5s-73 -40.5 -131 -40.5
c-17.333 0 -32.333 2.33301 -45 7s-23 9.66699 -31 15c-9.33301 6.66699 -17.333 14.334 -24 23.001c-5.33301 -7.33301 -11.166 -13.333 -17.499 -18s-12.166 -8.33398 -17.499 -11.001c-6.66699 -2.66699 -13.334 -4.66699 -20.001 -6h-25v170h40
c9.33301 -29.333 20 -55.333 32 -78c10.667 -19.333 23.167 -37 37.5 -53s31.166 -24 50.499 -24z" />
    <glyph glyph-name="agrave" unicode="&#xe0;" horiz-adv-x="605" 
d="M235 235c-4 -8.66699 -7.33398 -18.667 -10.001 -30c-2.66699 -9.33301 -5 -20.333 -7 -33s-3 -26.667 -3 -42c0 -40 6.16699 -68.333 18.5 -85s26.166 -25 41.499 -25s28.5 4.16699 39.5 12.5s20.167 17.5 27.5 27.5c8.66699 12 16.334 25.333 23.001 40v145
c-15.333 0 -30.666 -0.5 -45.999 -1.5s-29.333 -2.16699 -42 -3.5c-14.667 -2 -28.667 -3.66699 -42 -5zM274.999 515c40 0 75.501 -5.33398 106.501 -16.001s57.167 -25.5 78.5 -44.5s37.5 -41.667 48.5 -68s16.5 -55.166 16.5 -86.499v-270l60 -15v-15h-90
c-24 -0 -43.333 3.83301 -58 11.5s-26.334 16.167 -35.001 25.5c-10 11.333 -17.333 24 -22 38c-8.66699 -17.333 -19.667 -32.333 -33 -45c-11.333 -11.333 -26.333 -21.666 -45 -30.999s-41 -14 -67 -14c-31.333 0 -58.5 3.5 -81.5 10.5s-42.167 16.667 -57.5 29
s-26.833 26.666 -34.5 42.999s-11.5 33.833 -11.5 52.5c0 15.333 1.66699 29.5 5 42.5s7.33301 24.5 12 34.5c5.33301 12 11.333 23 18 33c28 6.66699 57.667 12.667 89 18c26.667 4.66699 56.667 9.16699 90 13.5s67 7.16602 101 8.49902v30c0 38.667 -2.5 70.667 -7.5 96
s-12.167 45.333 -21.5 60s-20.833 24.834 -34.5 30.501s-29.167 8.5 -46.5 8.5c-7.33301 0 -14 -0.5 -20 -1.5s-11.333 -2.16699 -16 -3.5c-5.33301 -2 -10 -3.66699 -14 -5v-150c-4.66699 -1.33301 -9 -2.33301 -13 -3s-8.16699 -1.16699 -12.5 -1.5
s-9.16602 -0.5 -14.499 -0.5c-22.667 0 -40.834 6.83301 -54.501 20.5s-20.5 31.834 -20.5 54.501c0 14 3.5 27.5 10.5 40.5s18 24.667 33 35s34.167 18.666 57.5 24.999s51.333 9.5 84 9.5zM285 709.999l40 -150h-35l-135 150h130z" />
    <glyph glyph-name="aacute" unicode="&#xe1;" horiz-adv-x="605" 
d="M235 235c-4 -8.66699 -7.33398 -18.667 -10.001 -30c-2.66699 -9.33301 -5 -20.333 -7 -33s-3 -26.667 -3 -42c0 -40 6.16699 -68.333 18.5 -85s26.166 -25 41.499 -25s28.5 4.16699 39.5 12.5s20.167 17.5 27.5 27.5c8.66699 12 16.334 25.333 23.001 40v145
c-15.333 0 -30.666 -0.5 -45.999 -1.5s-29.333 -2.16699 -42 -3.5c-14.667 -2 -28.667 -3.66699 -42 -5zM274.999 515c40 0 75.501 -5.33398 106.501 -16.001s57.167 -25.5 78.5 -44.5s37.5 -41.667 48.5 -68s16.5 -55.166 16.5 -86.499v-270l60 -15v-15h-90
c-24 -0 -43.333 3.83301 -58 11.5s-26.334 16.167 -35.001 25.5c-10 11.333 -17.333 24 -22 38c-8.66699 -17.333 -19.667 -32.333 -33 -45c-11.333 -11.333 -26.333 -21.666 -45 -30.999s-41 -14 -67 -14c-31.333 0 -58.5 3.5 -81.5 10.5s-42.167 16.667 -57.5 29
s-26.833 26.666 -34.5 42.999s-11.5 33.833 -11.5 52.5c0 15.333 1.66699 29.5 5 42.5s7.33301 24.5 12 34.5c5.33301 12 11.333 23 18 33c28 6.66699 57.667 12.667 89 18c26.667 4.66699 56.667 9.16699 90 13.5s67 7.16602 101 8.49902v30c0 38.667 -2.5 70.667 -7.5 96
s-12.167 45.333 -21.5 60s-20.833 24.834 -34.5 30.501s-29.167 8.5 -46.5 8.5c-7.33301 0 -14 -0.5 -20 -1.5s-11.333 -2.16699 -16 -3.5c-5.33301 -2 -10 -3.66699 -14 -5v-150c-4.66699 -1.33301 -9 -2.33301 -13 -3s-8.16699 -1.16699 -12.5 -1.5
s-9.16602 -0.5 -14.499 -0.5c-22.667 0 -40.834 6.83301 -54.501 20.5s-20.5 31.834 -20.5 54.501c0 14 3.5 27.5 10.5 40.5s18 24.667 33 35s34.167 18.666 57.5 24.999s51.333 9.5 84 9.5zM425 709.999l-135 -150h-35l40 150h130z" />
    <glyph glyph-name="acircumflex" unicode="&#xe2;" horiz-adv-x="605" 
d="M235 235c-4 -8.66699 -7.33398 -18.667 -10.001 -30c-2.66699 -9.33301 -5 -20.333 -7 -33s-3 -26.667 -3 -42c0 -40 6.16699 -68.333 18.5 -85s26.166 -25 41.499 -25s28.5 4.16699 39.5 12.5s20.167 17.5 27.5 27.5c8.66699 12 16.334 25.333 23.001 40v145
c-15.333 0 -30.666 -0.5 -45.999 -1.5s-29.333 -2.16699 -42 -3.5c-14.667 -2 -28.667 -3.66699 -42 -5zM274.999 515c40 0 75.501 -5.33398 106.501 -16.001s57.167 -25.5 78.5 -44.5s37.5 -41.667 48.5 -68s16.5 -55.166 16.5 -86.499v-270l60 -15v-15h-90
c-24 -0 -43.333 3.83301 -58 11.5s-26.334 16.167 -35.001 25.5c-10 11.333 -17.333 24 -22 38c-8.66699 -17.333 -19.667 -32.333 -33 -45c-11.333 -11.333 -26.333 -21.666 -45 -30.999s-41 -14 -67 -14c-31.333 0 -58.5 3.5 -81.5 10.5s-42.167 16.667 -57.5 29
s-26.833 26.666 -34.5 42.999s-11.5 33.833 -11.5 52.5c0 15.333 1.66699 29.5 5 42.5s7.33301 24.5 12 34.5c5.33301 12 11.333 23 18 33c28 6.66699 57.667 12.667 89 18c26.667 4.66699 56.667 9.16699 90 13.5s67 7.16602 101 8.49902v30c0 38.667 -2.5 70.667 -7.5 96
s-12.167 45.333 -21.5 60s-20.833 24.834 -34.5 30.501s-29.167 8.5 -46.5 8.5c-7.33301 0 -14 -0.5 -20 -1.5s-11.333 -2.16699 -16 -3.5c-5.33301 -2 -10 -3.66699 -14 -5v-150c-4.66699 -1.33301 -9 -2.33301 -13 -3s-8.16699 -1.16699 -12.5 -1.5
s-9.16602 -0.5 -14.499 -0.5c-22.667 0 -40.834 6.83301 -54.501 20.5s-20.5 31.834 -20.5 54.501c0 14 3.5 27.5 10.5 40.5s18 24.667 33 35s34.167 18.666 57.5 24.999s51.333 9.5 84 9.5zM300 729.999l145 -165h-35l-110 70l-110 -70h-35z" />
    <glyph glyph-name="atilde" unicode="&#xe3;" horiz-adv-x="605" 
d="M235 235c-4 -8.66699 -7.33398 -18.667 -10.001 -30c-2.66699 -9.33301 -5 -20.333 -7 -33s-3 -26.667 -3 -42c0 -40 6.16699 -68.333 18.5 -85s26.166 -25 41.499 -25s28.5 4.16699 39.5 12.5s20.167 17.5 27.5 27.5c8.66699 12 16.334 25.333 23.001 40v145
c-15.333 0 -30.666 -0.5 -45.999 -1.5s-29.333 -2.16699 -42 -3.5c-14.667 -2 -28.667 -3.66699 -42 -5zM274.999 515c40 0 75.501 -5.33398 106.501 -16.001s57.167 -25.5 78.5 -44.5s37.5 -41.667 48.5 -68s16.5 -55.166 16.5 -86.499v-270l60 -15v-15h-90
c-24 -0 -43.333 3.83301 -58 11.5s-26.334 16.167 -35.001 25.5c-10 11.333 -17.333 24 -22 38c-8.66699 -17.333 -19.667 -32.333 -33 -45c-11.333 -11.333 -26.333 -21.666 -45 -30.999s-41 -14 -67 -14c-31.333 0 -58.5 3.5 -81.5 10.5s-42.167 16.667 -57.5 29
s-26.833 26.666 -34.5 42.999s-11.5 33.833 -11.5 52.5c0 15.333 1.66699 29.5 5 42.5s7.33301 24.5 12 34.5c5.33301 12 11.333 23 18 33c28 6.66699 57.667 12.667 89 18c26.667 4.66699 56.667 9.16699 90 13.5s67 7.16602 101 8.49902v30c0 38.667 -2.5 70.667 -7.5 96
s-12.167 45.333 -21.5 60s-20.833 24.834 -34.5 30.501s-29.167 8.5 -46.5 8.5c-7.33301 0 -14 -0.5 -20 -1.5s-11.333 -2.16699 -16 -3.5c-5.33301 -2 -10 -3.66699 -14 -5v-150c-4.66699 -1.33301 -9 -2.33301 -13 -3s-8.16699 -1.16699 -12.5 -1.5
s-9.16602 -0.5 -14.499 -0.5c-22.667 0 -40.834 6.83301 -54.501 20.5s-20.5 31.834 -20.5 54.501c0 14 3.5 27.5 10.5 40.5s18 24.667 33 35s34.167 18.666 57.5 24.999s51.333 9.5 84 9.5zM347 584.999c-15.333 0 -28.168 2.66699 -38.501 8s-20 11 -29 17l-25.5 17
c-8 5.33301 -17 8 -27 8c-12.667 0 -23.334 -4.33301 -32.001 -13s-13 -19.334 -13 -32.001h-20c0 40 8 69.167 24 87.5s38 27.5 66 27.5c14.667 0 27.334 -2.66699 38.001 -8s20.5 -11 29.5 -17l25.5 -17c8 -5.33301 17 -8 27 -8c12.667 0 23.334 4.33301 32.001 13
s13 19.334 13 32.001h20c0 -40 -8 -69.167 -24 -87.5s-38 -27.5 -66 -27.5z" />
    <glyph glyph-name="adieresis" unicode="&#xe4;" horiz-adv-x="605" 
d="M235 235c-4 -8.66699 -7.33398 -18.667 -10.001 -30c-2.66699 -9.33301 -5 -20.333 -7 -33s-3 -26.667 -3 -42c0 -40 6.16699 -68.333 18.5 -85s26.166 -25 41.499 -25s28.5 4.16699 39.5 12.5s20.167 17.5 27.5 27.5c8.66699 12 16.334 25.333 23.001 40v145
c-15.333 0 -30.666 -0.5 -45.999 -1.5s-29.333 -2.16699 -42 -3.5c-14.667 -2 -28.667 -3.66699 -42 -5zM274.999 515c40 0 75.501 -5.33398 106.501 -16.001s57.167 -25.5 78.5 -44.5s37.5 -41.667 48.5 -68s16.5 -55.166 16.5 -86.499v-270l60 -15v-15h-90
c-24 -0 -43.333 3.83301 -58 11.5s-26.334 16.167 -35.001 25.5c-10 11.333 -17.333 24 -22 38c-8.66699 -17.333 -19.667 -32.333 -33 -45c-11.333 -11.333 -26.333 -21.666 -45 -30.999s-41 -14 -67 -14c-31.333 0 -58.5 3.5 -81.5 10.5s-42.167 16.667 -57.5 29
s-26.833 26.666 -34.5 42.999s-11.5 33.833 -11.5 52.5c0 15.333 1.66699 29.5 5 42.5s7.33301 24.5 12 34.5c5.33301 12 11.333 23 18 33c28 6.66699 57.667 12.667 89 18c26.667 4.66699 56.667 9.16699 90 13.5s67 7.16602 101 8.49902v30c0 38.667 -2.5 70.667 -7.5 96
s-12.167 45.333 -21.5 60s-20.833 24.834 -34.5 30.501s-29.167 8.5 -46.5 8.5c-7.33301 0 -14 -0.5 -20 -1.5s-11.333 -2.16699 -16 -3.5c-5.33301 -2 -10 -3.66699 -14 -5v-150c-4.66699 -1.33301 -9 -2.33301 -13 -3s-8.16699 -1.16699 -12.5 -1.5
s-9.16602 -0.5 -14.499 -0.5c-22.667 0 -40.834 6.83301 -54.501 20.5s-20.5 31.834 -20.5 54.501c0 14 3.5 27.5 10.5 40.5s18 24.667 33 35s34.167 18.666 57.5 24.999s51.333 9.5 84 9.5zM137 644.999c0 20 6.66699 36.667 20 50s30 20 50 20s36.667 -6.66699 50 -20
s20 -30 20 -50s-6.66699 -36.667 -20 -50s-30 -20 -50 -20s-36.667 6.66699 -50 20s-20 30 -20 50zM322 644.999c0 20 6.66699 36.667 20 50s30 20 50 20s36.667 -6.66699 50 -20s20 -30 20 -50s-6.66699 -36.667 -20 -50s-30 -20 -50 -20s-36.667 6.66699 -50 20
s-20 30 -20 50z" />
    <glyph glyph-name="aring" unicode="&#xe5;" horiz-adv-x="605" 
d="M235 235c-4 -8.66699 -7.33398 -18.667 -10.001 -30c-2.66699 -9.33301 -5 -20.333 -7 -33s-3 -26.667 -3 -42c0 -40 6.16699 -68.333 18.5 -85s26.166 -25 41.499 -25s28.5 4.16699 39.5 12.5s20.167 17.5 27.5 27.5c8.66699 12 16.334 25.333 23.001 40v145
c-15.333 0 -30.666 -0.5 -45.999 -1.5s-29.333 -2.16699 -42 -3.5c-14.667 -2 -28.667 -3.66699 -42 -5zM274.999 515c40 0 75.501 -5.33398 106.501 -16.001s57.167 -25.5 78.5 -44.5s37.5 -41.667 48.5 -68s16.5 -55.166 16.5 -86.499v-270l60 -15v-15h-90
c-24 -0 -43.333 3.83301 -58 11.5s-26.334 16.167 -35.001 25.5c-10 11.333 -17.333 24 -22 38c-8.66699 -17.333 -19.667 -32.333 -33 -45c-11.333 -11.333 -26.333 -21.666 -45 -30.999s-41 -14 -67 -14c-31.333 0 -58.5 3.5 -81.5 10.5s-42.167 16.667 -57.5 29
s-26.833 26.666 -34.5 42.999s-11.5 33.833 -11.5 52.5c0 15.333 1.66699 29.5 5 42.5s7.33301 24.5 12 34.5c5.33301 12 11.333 23 18 33c28 6.66699 57.667 12.667 89 18c26.667 4.66699 56.667 9.16699 90 13.5s67 7.16602 101 8.49902v30c0 38.667 -2.5 70.667 -7.5 96
s-12.167 45.333 -21.5 60s-20.833 24.834 -34.5 30.501s-29.167 8.5 -46.5 8.5c-7.33301 0 -14 -0.5 -20 -1.5s-11.333 -2.16699 -16 -3.5c-5.33301 -2 -10 -3.66699 -14 -5v-150c-4.66699 -1.33301 -9 -2.33301 -13 -3s-8.16699 -1.16699 -12.5 -1.5
s-9.16602 -0.5 -14.499 -0.5c-22.667 0 -40.834 6.83301 -54.501 20.5s-20.5 31.834 -20.5 54.501c0 14 3.5 27.5 10.5 40.5s18 24.667 33 35s34.167 18.666 57.5 24.999s51.333 9.5 84 9.5zM405 664.999c0 -14 -2.66699 -27 -8 -39s-12.666 -22.5 -21.999 -31.5
s-20.5 -16.167 -33.5 -21.5s-26.833 -8 -41.5 -8c-15.333 0 -29.333 2.66699 -42 8s-23.667 12.5 -33 21.5s-16.666 19.5 -21.999 31.5s-8 25 -8 39s2.66699 27 8 39s12.666 22.5 21.999 31.5s20.333 16.167 33 21.5s26.667 8 42 8c14.667 0 28.5 -2.66699 41.5 -8
s24.167 -12.5 33.5 -21.5s16.666 -19.5 21.999 -31.5s8 -25 8 -39zM355 664.999c0 20 -5.33301 35.833 -16 47.5s-23.667 17.5 -39 17.5s-28.333 -5.83301 -39 -17.5s-16 -27.5 -16 -47.5s5.33301 -35.833 16 -47.5s23.667 -17.5 39 -17.5s28.333 5.83301 39 17.5
s16 27.5 16 47.5z" />
    <glyph glyph-name="ae" unicode="&#xe6;" horiz-adv-x="880" 
d="M630 -15c-34 0 -62.4971 4.83398 -85.4971 14.501s-41.5 20.5 -55.5 32.5c-16.667 14 -29.667 30 -39 48c-14 -18 -30.333 -34 -49 -48c-16.667 -12 -37 -22.833 -61 -32.5s-52.333 -14.5 -85 -14.5c-36 0 -67 3.5 -93 10.5s-47.333 16.667 -64 29
s-28.834 26.666 -36.501 42.999s-11.5 33.833 -11.5 52.5c0 15.333 1.66699 28.833 5 40.5s7.33301 22.167 12 31.5c5.33301 10 11.333 19.333 18 28c28 6.66699 57.667 12.667 89 18c26.667 4.66699 56.667 9.16699 90 13.5s67 7.16602 101 8.49902v40
c0 38.667 -2.5 70.667 -7.5 96s-12.167 45.333 -21.5 60s-20.833 24.834 -34.5 30.501s-29.167 8.5 -46.5 8.5c-7.33301 0 -14 -0.5 -20 -1.5s-11.333 -2.16699 -16 -3.5c-5.33301 -2 -10 -3.66699 -14 -5v-150c-4.66699 -1.33301 -9 -2.33301 -13 -3
s-8.16699 -1.16699 -12.5 -1.5s-9.16602 -0.5 -14.499 -0.5c-22.667 0 -40.834 6.83301 -54.501 20.5s-20.5 31.834 -20.5 54.501c0 14 3.5 27.5 10.5 40.5s18 24.667 33 35s34.167 18.666 57.5 24.999s51.333 9.5 84 9.5s60 -4.66699 82 -14s40 -19.666 54 -30.999
c16 -13.333 29 -28.333 39 -45c9.33301 16.667 21.666 31.667 36.999 45c13.333 11.333 30.5 21.666 51.5 30.999s46.5 14 76.5 14c34.667 0 66.167 -5.33301 94.5 -16s52.5 -25 72.5 -43s35.5 -39.167 46.5 -63.5s16.5 -50.166 16.5 -77.499c0 -7.33301 -0.5 -14 -1.5 -20
s-2.16699 -11.333 -3.5 -16c-2 -5.33301 -3.66699 -10 -5 -14c-29.333 -6 -60.333 -11 -93 -15c-28 -4 -60.333 -7.5 -97 -10.5s-75 -4.5 -115 -4.5v-22c0.666992 -39.333 4 -72 10 -98s14.333 -46.667 25 -62s23.167 -26.333 37.5 -33s30.166 -10 47.499 -10
c20 0 38.833 3.66699 56.5 11s33 17.166 46 29.499s23.333 26.333 31 42s11.5 31.5 11.5 47.5h25c0 -20 -4.5 -39.333 -13.5 -58s-21.833 -35.167 -38.5 -49.5s-36.667 -25.833 -60 -34.5s-49.333 -13 -78 -13zM530.003 260.001c22.667 0 42.6689 0.5 60.002 1.5
s32 2.16699 44 3.5c14 1.33301 26 3 36 5c1.33301 6.66699 3 13.667 5 21c1.33301 6 2.5 13 3.5 21s1.5 15.667 1.5 23c0 30 -2.33301 55.167 -7 75.5s-10.5 36.833 -17.5 49.5s-15 21.667 -24 27s-17.833 8 -26.5 8s-17.334 -3 -26.001 -9s-16.5 -17.333 -23.5 -34
s-12.833 -40 -17.5 -70s-7.33398 -69 -8.00098 -117v-5zM235.005 225.001c-4 -8.66699 -7.33105 -18.667 -9.99805 -30c-2.66699 -9.33301 -5 -20.333 -7 -33s-3 -26.667 -3 -42c0 -40 6.16699 -68.333 18.5 -85s26.166 -25 41.499 -25c17.333 0 31.666 4.83301 42.999 14.5
s20.666 20.5 27.999 32.5c8 14 14.333 30 19 48v130c-15.333 0 -30.666 -0.5 -45.999 -1.5s-29.333 -2.16699 -42 -3.5c-14.667 -2 -28.667 -3.66699 -42 -5z" />
    <glyph glyph-name="ccedilla" unicode="&#xe7;" horiz-adv-x="530" 
d="M330 495c-17.333 0 -33.333 -3.66602 -48 -10.999s-27.334 -20.166 -38.001 -38.499s-19 -43.333 -25 -75s-9 -71.834 -9 -120.501c0 -47.333 3 -86.5 9 -117.5s14.333 -55.5 25 -73.5s23.334 -30.667 38.001 -38s30.667 -11 48 -11c20 0 38.833 3.66699 56.5 11
s33 17.166 46 29.499s23.333 26.333 31 42s11.5 31.5 11.5 47.5h25c0 -20 -4.5 -39.333 -13.5 -58s-21.833 -35.167 -38.5 -49.5s-36.667 -25.833 -60 -34.5s-49.333 -13 -78 -13h-5v-35c30 0 53.333 -7.5 70 -22.5s25 -32.5 25 -52.5s-8.66699 -37.5 -26 -52.5
s-43.666 -22.5 -78.999 -22.5c-7.33301 0 -14.333 0.166992 -21 0.5s-12.667 0.833008 -18 1.5c-6 0.666992 -11.667 1.66699 -17 3v30c2.66699 -2 6 -3.66699 10 -5c6.66699 -3.33301 15.334 -5 26.001 -5c15.333 0 27.5 4.5 36.5 13.5s13.5 21.167 13.5 36.5
s-4.83301 27.5 -14.5 36.5s-23.167 13.5 -40.5 13.5v62c-72.667 6.66699 -129.167 33.167 -169.5 79.5s-60.5 107.5 -60.5 183.5c0 82.667 23.667 147.5 71 194.5s113.666 70.5 198.999 70.5c32.667 0 60.667 -3.16699 84 -9.5s42.5 -14.666 57.5 -24.999s26 -22 33 -35
s10.5 -26.5 10.5 -40.5c0 -22.667 -6.83301 -40.834 -20.5 -54.501s-31.834 -20.5 -54.501 -20.5c-5.33301 0 -10.5 0.166992 -15.5 0.5s-9.16699 0.833008 -12.5 1.5c-4.66699 0.666992 -8.66699 1.66699 -12 3v150c-4 1.33301 -8.66699 3 -14 5
c-4.66699 1.33301 -10 2.5 -16 3.5s-12.667 1.5 -20 1.5z" />
    <glyph glyph-name="egrave" unicode="&#xe8;" 
d="M210 250c22.667 0 42.667 0.5 60 1.5s32 2.16699 44 3.5c14 1.33301 26 3 36 5c1.33301 6.66699 3 14 5 22c1.33301 7.33301 2.5 15.5 3.5 24.5s1.5 18.5 1.5 28.5c0 30 -2.33301 55.167 -7 75.5s-10.5 36.833 -17.5 49.5s-15 21.667 -24 27s-17.833 8 -26.5 8
s-17.5 -3.16699 -26.5 -9.5s-17 -18.333 -24 -36s-12.833 -42.5 -17.5 -74.5s-7 -73.667 -7 -125zM310 -15c-85.333 0 -151.668 23.5 -199.001 70.5s-71 111.833 -71 194.5c0 41.333 6 78.333 18 111s28.667 60.5 50 83.5s47.166 40.5 77.499 52.5s63.5 18 99.5 18
c37.333 0 70.833 -5.33301 100.5 -16s54.834 -25 75.501 -43s36.5 -39.167 47.5 -63.5s16.5 -50.166 16.5 -77.499c0 -9.33301 -0.5 -17.5 -1.5 -24.5s-2.16699 -13.167 -3.5 -18.5l-5 -17c-29.333 -6 -60.333 -11 -93 -15c-28 -4 -60.333 -7.5 -97 -10.5
s-75 -4.5 -115 -4.5c0 -41.333 3 -75.833 9 -103.5s14.333 -49.667 25 -66s23.334 -28 38.001 -35s30.667 -10.5 48 -10.5c20 0 38.833 3.66699 56.5 11s33 17.166 46 29.499s23.333 26.333 31 42s11.5 31.5 11.5 47.5h25c0 -20 -4.5 -39.333 -13.5 -58
s-21.833 -35.167 -38.5 -49.5s-36.667 -25.833 -60 -34.5s-49.333 -13 -78 -13zM269.998 710l40 -150h-35l-135 150h130z" />
    <glyph glyph-name="eacute" unicode="&#xe9;" 
d="M210 250c22.667 0 42.667 0.5 60 1.5s32 2.16699 44 3.5c14 1.33301 26 3 36 5c1.33301 6.66699 3 14 5 22c1.33301 7.33301 2.5 15.5 3.5 24.5s1.5 18.5 1.5 28.5c0 30 -2.33301 55.167 -7 75.5s-10.5 36.833 -17.5 49.5s-15 21.667 -24 27s-17.833 8 -26.5 8
s-17.5 -3.16699 -26.5 -9.5s-17 -18.333 -24 -36s-12.833 -42.5 -17.5 -74.5s-7 -73.667 -7 -125zM310 -15c-85.333 0 -151.668 23.5 -199.001 70.5s-71 111.833 -71 194.5c0 41.333 6 78.333 18 111s28.667 60.5 50 83.5s47.166 40.5 77.499 52.5s63.5 18 99.5 18
c37.333 0 70.833 -5.33301 100.5 -16s54.834 -25 75.501 -43s36.5 -39.167 47.5 -63.5s16.5 -50.166 16.5 -77.499c0 -9.33301 -0.5 -17.5 -1.5 -24.5s-2.16699 -13.167 -3.5 -18.5l-5 -17c-29.333 -6 -60.333 -11 -93 -15c-28 -4 -60.333 -7.5 -97 -10.5
s-75 -4.5 -115 -4.5c0 -41.333 3 -75.833 9 -103.5s14.333 -49.667 25 -66s23.334 -28 38.001 -35s30.667 -10.5 48 -10.5c20 0 38.833 3.66699 56.5 11s33 17.166 46 29.499s23.333 26.333 31 42s11.5 31.5 11.5 47.5h25c0 -20 -4.5 -39.333 -13.5 -58
s-21.833 -35.167 -38.5 -49.5s-36.667 -25.833 -60 -34.5s-49.333 -13 -78 -13zM419.998 710l-135 -150h-35l40 150h130z" />
    <glyph glyph-name="ecircumflex" unicode="&#xea;" 
d="M210 250c22.667 0 42.667 0.5 60 1.5s32 2.16699 44 3.5c14 1.33301 26 3 36 5c1.33301 6.66699 3 14 5 22c1.33301 7.33301 2.5 15.5 3.5 24.5s1.5 18.5 1.5 28.5c0 30 -2.33301 55.167 -7 75.5s-10.5 36.833 -17.5 49.5s-15 21.667 -24 27s-17.833 8 -26.5 8
s-17.5 -3.16699 -26.5 -9.5s-17 -18.333 -24 -36s-12.833 -42.5 -17.5 -74.5s-7 -73.667 -7 -125zM310 -15c-85.333 0 -151.668 23.5 -199.001 70.5s-71 111.833 -71 194.5c0 41.333 6 78.333 18 111s28.667 60.5 50 83.5s47.166 40.5 77.499 52.5s63.5 18 99.5 18
c37.333 0 70.833 -5.33301 100.5 -16s54.834 -25 75.501 -43s36.5 -39.167 47.5 -63.5s16.5 -50.166 16.5 -77.499c0 -9.33301 -0.5 -17.5 -1.5 -24.5s-2.16699 -13.167 -3.5 -18.5l-5 -17c-29.333 -6 -60.333 -11 -93 -15c-28 -4 -60.333 -7.5 -97 -10.5
s-75 -4.5 -115 -4.5c0 -41.333 3 -75.833 9 -103.5s14.333 -49.667 25 -66s23.334 -28 38.001 -35s30.667 -10.5 48 -10.5c20 0 38.833 3.66699 56.5 11s33 17.166 46 29.499s23.333 26.333 31 42s11.5 31.5 11.5 47.5h25c0 -20 -4.5 -39.333 -13.5 -58
s-21.833 -35.167 -38.5 -49.5s-36.667 -25.833 -60 -34.5s-49.333 -13 -78 -13zM284.998 730l145 -165h-35l-110 70l-110 -70h-35z" />
    <glyph glyph-name="edieresis" unicode="&#xeb;" 
d="M210 250c22.667 0 42.667 0.5 60 1.5s32 2.16699 44 3.5c14 1.33301 26 3 36 5c1.33301 6.66699 3 14 5 22c1.33301 7.33301 2.5 15.5 3.5 24.5s1.5 18.5 1.5 28.5c0 30 -2.33301 55.167 -7 75.5s-10.5 36.833 -17.5 49.5s-15 21.667 -24 27s-17.833 8 -26.5 8
s-17.5 -3.16699 -26.5 -9.5s-17 -18.333 -24 -36s-12.833 -42.5 -17.5 -74.5s-7 -73.667 -7 -125zM310 -15c-85.333 0 -151.668 23.5 -199.001 70.5s-71 111.833 -71 194.5c0 41.333 6 78.333 18 111s28.667 60.5 50 83.5s47.166 40.5 77.499 52.5s63.5 18 99.5 18
c37.333 0 70.833 -5.33301 100.5 -16s54.834 -25 75.501 -43s36.5 -39.167 47.5 -63.5s16.5 -50.166 16.5 -77.499c0 -9.33301 -0.5 -17.5 -1.5 -24.5s-2.16699 -13.167 -3.5 -18.5l-5 -17c-29.333 -6 -60.333 -11 -93 -15c-28 -4 -60.333 -7.5 -97 -10.5
s-75 -4.5 -115 -4.5c0 -41.333 3 -75.833 9 -103.5s14.333 -49.667 25 -66s23.334 -28 38.001 -35s30.667 -10.5 48 -10.5c20 0 38.833 3.66699 56.5 11s33 17.166 46 29.499s23.333 26.333 31 42s11.5 31.5 11.5 47.5h25c0 -20 -4.5 -39.333 -13.5 -58
s-21.833 -35.167 -38.5 -49.5s-36.667 -25.833 -60 -34.5s-49.333 -13 -78 -13zM121.998 645c0 20 6.66699 36.667 20 50s30 20 50 20s36.667 -6.66699 50 -20s20 -30 20 -50s-6.66699 -36.667 -20 -50s-30 -20 -50 -20s-36.667 6.66699 -50 20s-20 30 -20 50zM306.998 645
c0 20 6.66699 36.667 20 50s30 20 50 20s36.667 -6.66699 50 -20s20 -30 20 -50s-6.66699 -36.667 -20 -50s-30 -20 -50 -20s-36.667 6.66699 -50 20s-20 30 -20 50z" />
    <glyph glyph-name="igrave" unicode="&#xec;" horiz-adv-x="340" 
d="M170 500c60 0 90 -30 90 -90v-380l60 -15v-15h-280v15l60 15v440l-60 15v15h130zM155 700l40 -150h-35l-135 150h130z" />
    <glyph glyph-name="iacute" unicode="&#xed;" horiz-adv-x="340" 
d="M170 500c60 0 90 -30 90 -90v-380l60 -15v-15h-280v15l60 15v440l-60 15v15h130zM305 700l-135 -150h-35l40 150h130z" />
    <glyph glyph-name="icircumflex" unicode="&#xee;" horiz-adv-x="340" 
d="M170 500c60 0 90 -30 90 -90v-380l60 -15v-15h-280v15l60 15v440l-60 15v15h130zM170 725l145 -165h-35l-110 70l-110 -70h-35z" />
    <glyph glyph-name="idieresis" unicode="&#xef;" horiz-adv-x="340" 
d="M170 500c60 0 90 -30 90 -90v-380l60 -15v-15h-280v15l60 15v440l-60 15v15h130zM-1 640c0 20 6.66699 36.667 20 50s30 20 50 20s36.667 -6.66699 50 -20s20 -30 20 -50s-6.66699 -36.667 -20 -50s-30 -20 -50 -20s-36.667 6.66699 -50 20s-20 30 -20 50zM184 640
c0 20 6.66699 36.667 20 50s30 20 50 20s36.667 -6.66699 50 -20s20 -30 20 -50s-6.66699 -36.667 -20 -50s-30 -20 -50 -20s-36.667 6.66699 -50 20s-20 30 -20 50z" />
    <glyph glyph-name="eth" unicode="&#xf0;" horiz-adv-x="605" 
d="M350 659c68 -30 120.831 -77.166 158.498 -141.499s56.5 -146.833 56.5 -247.5c0 -92.667 -23.5 -163.334 -70.5 -212.001s-112.167 -73 -195.5 -73c-41.333 0 -78.166 6 -110.499 18s-60 28.667 -83 50s-40.5 47.166 -52.5 77.499s-18 63.5 -18 99.5
c0 36.667 5.83301 70 17.5 100s28 55.667 49 77s45.833 38 74.5 50s60 18 94 18c23.333 0 43.5 -4 60.5 -12s31.167 -16.667 42.5 -26c12.667 -11.333 23.334 -23.666 32.001 -36.999c-2.66699 46 -11.5 85.333 -26.5 118s-34.5 61.667 -58.5 87l-41 -75l-21 13l44 80
c-46 38 -101 57 -165 57v20c36 0 69.667 -2.66699 101 -8s61 -13 89 -23l40 73l21 -13zM204.998 230.001c0 -44 2.83398 -80.333 8.50098 -109s13 -51.667 22 -69s19 -29.5 30 -36.5s22.167 -10.5 33.5 -10.5s22.833 3.5 34.5 10.5s22 19.167 31 36.5s16.333 40.333 22 69
s8.5 65 8.5 109v10c0 40 -2.83301 73.667 -8.5 101s-13.5 49.5 -23.5 66.5s-21.333 29.167 -34 36.5s-26 11 -40 11c-8.66699 0 -17.834 -3.5 -27.501 -10.5s-18.667 -19.167 -27 -36.5s-15.333 -40.333 -21 -69s-8.5 -65 -8.5 -109z" />
    <glyph glyph-name="ntilde" unicode="&#xf1;" horiz-adv-x="665" 
d="M425 350c0 22.667 -2.33398 42.166 -7.00098 58.499s-10.5 29.833 -17.5 40.5s-15 18.5 -24 23.5s-17.833 7.5 -26.5 7.5c-15.333 0 -28.666 -4.16699 -39.999 -12.5s-20.666 -17.5 -27.999 -27.5c-8.66699 -12 -16 -25.333 -22 -40v-370l60 -15v-15h-280v15l60 15v440
l-60 15v15h90c23.333 0 42.5 -4 57.5 -12s26.833 -16.667 35.5 -26c10 -11.333 17.333 -23.666 22 -36.999c8.66699 16.667 19.667 31.667 33 45c11.333 11.333 26.166 21.666 44.499 30.999s40.833 14 67.5 14c28.667 0 55 -4.66699 79 -14s44.5 -21.666 61.5 -36.999
s30.333 -32.833 40 -52.5s14.5 -40.167 14.5 -61.5v-320l60 -15v-15h-130c-60 0 -90 30 -90 90v260zM389.999 575.999c-15.333 0 -28.168 2.66699 -38.501 8s-20 11 -29 17l-25.5 17c-8 5.33301 -17 8 -27 8c-12.667 0 -23.334 -4.33301 -32.001 -13
s-13 -19.334 -13 -32.001h-20c0 40 8 69.167 24 87.5s38 27.5 66 27.5c14.667 0 27.334 -2.66699 38.001 -8s20.5 -11 29.5 -17l25.5 -17c8 -5.33301 17 -8 27 -8c12.667 0 23.334 4.33301 32.001 13s13 19.334 13 32.001h20c0 -40 -8 -69.167 -24 -87.5
s-38 -27.5 -66 -27.5z" />
    <glyph glyph-name="ograve" unicode="&#xf2;" horiz-adv-x="610" 
d="M305 5c11.333 0 22.666 3.66699 33.999 11s21.5 20.166 30.5 38.499s16.333 43.333 22 75s8.5 71.834 8.5 120.501s-2.83301 88.834 -8.5 120.501s-13 56.667 -22 75s-19.167 31.166 -30.5 38.499s-22.666 11 -33.999 11s-22.666 -3.66699 -33.999 -11
s-21.5 -20.166 -30.5 -38.499s-16.333 -43.333 -22 -75s-8.5 -71.834 -8.5 -120.501s2.83301 -88.834 8.5 -120.501s13 -56.667 22 -75s19.167 -31.166 30.5 -38.499s22.666 -11 33.999 -11zM305 515c41.333 0 78.333 -6 111 -18s60.5 -29.5 83.5 -52.5
s40.5 -50.833 52.5 -83.5s18 -69.667 18 -111s-6 -78.333 -18 -111s-29.5 -60.5 -52.5 -83.5s-50.833 -40.5 -83.5 -52.5s-69.667 -18 -111 -18s-78.333 6 -111 18s-60.5 29.5 -83.5 52.5s-40.5 50.833 -52.5 83.5s-18 69.667 -18 111s6 78.333 18 111s29.5 60.5 52.5 83.5
s50.833 40.5 83.5 52.5s69.667 18 111 18zM290 710l40 -150h-35l-135 150h130z" />
    <glyph glyph-name="oacute" unicode="&#xf3;" horiz-adv-x="600" 
d="M301 5c11.333 0 22.666 3.66699 33.999 11s21.5 20.166 30.5 38.499s16.333 43.333 22 75s8.5 71.834 8.5 120.501s-2.83301 88.834 -8.5 120.501s-13 56.667 -22 75s-19.167 31.166 -30.5 38.499s-22.666 11 -33.999 11s-22.666 -3.66699 -33.999 -11
s-21.5 -20.166 -30.5 -38.499s-16.333 -43.333 -22 -75s-8.5 -71.834 -8.5 -120.501s2.83301 -88.834 8.5 -120.501s13 -56.667 22 -75s19.167 -31.166 30.5 -38.499s22.666 -11 33.999 -11zM301 515c41.333 0 78.333 -6 111 -18s60.5 -29.5 83.5 -52.5
s40.5 -50.833 52.5 -83.5s18 -69.667 18 -111s-6 -78.333 -18 -111s-29.5 -60.5 -52.5 -83.5s-50.833 -40.5 -83.5 -52.5s-69.667 -18 -111 -18s-78.333 6 -111 18s-60.5 29.5 -83.5 52.5s-40.5 50.833 -52.5 83.5s-18 69.667 -18 111s6 78.333 18 111s29.5 60.5 52.5 83.5
s50.833 40.5 83.5 52.5s69.667 18 111 18zM435 710l-135 -150h-35l40 150h130z" />
    <glyph glyph-name="ocircumflex" unicode="&#xf4;" horiz-adv-x="610" 
d="M305 5c11.333 0 22.666 3.66699 33.999 11s21.5 20.166 30.5 38.499s16.333 43.333 22 75s8.5 71.834 8.5 120.501s-2.83301 88.834 -8.5 120.501s-13 56.667 -22 75s-19.167 31.166 -30.5 38.499s-22.666 11 -33.999 11s-22.666 -3.66699 -33.999 -11
s-21.5 -20.166 -30.5 -38.499s-16.333 -43.333 -22 -75s-8.5 -71.834 -8.5 -120.501s2.83301 -88.834 8.5 -120.501s13 -56.667 22 -75s19.167 -31.166 30.5 -38.499s22.666 -11 33.999 -11zM305 515c41.333 0 78.333 -6 111 -18s60.5 -29.5 83.5 -52.5
s40.5 -50.833 52.5 -83.5s18 -69.667 18 -111s-6 -78.333 -18 -111s-29.5 -60.5 -52.5 -83.5s-50.833 -40.5 -83.5 -52.5s-69.667 -18 -111 -18s-78.333 6 -111 18s-60.5 29.5 -83.5 52.5s-40.5 50.833 -52.5 83.5s-18 69.667 -18 111s6 78.333 18 111s29.5 60.5 52.5 83.5
s50.833 40.5 83.5 52.5s69.667 18 111 18zM305 730l145 -165h-35l-110 70l-110 -70h-35z" />
    <glyph glyph-name="otilde" unicode="&#xf5;" horiz-adv-x="610" 
d="M305 5c11.333 0 22.666 3.66699 33.999 11s21.5 20.166 30.5 38.499s16.333 43.333 22 75s8.5 71.834 8.5 120.501s-2.83301 88.834 -8.5 120.501s-13 56.667 -22 75s-19.167 31.166 -30.5 38.499s-22.666 11 -33.999 11s-22.666 -3.66699 -33.999 -11
s-21.5 -20.166 -30.5 -38.499s-16.333 -43.333 -22 -75s-8.5 -71.834 -8.5 -120.501s2.83301 -88.834 8.5 -120.501s13 -56.667 22 -75s19.167 -31.166 30.5 -38.499s22.666 -11 33.999 -11zM305 515c41.333 0 78.333 -6 111 -18s60.5 -29.5 83.5 -52.5
s40.5 -50.833 52.5 -83.5s18 -69.667 18 -111s-6 -78.333 -18 -111s-29.5 -60.5 -52.5 -83.5s-50.833 -40.5 -83.5 -52.5s-69.667 -18 -111 -18s-78.333 6 -111 18s-60.5 29.5 -83.5 52.5s-40.5 50.833 -52.5 83.5s-18 69.667 -18 111s6 78.333 18 111s29.5 60.5 52.5 83.5
s50.833 40.5 83.5 52.5s69.667 18 111 18zM352 576c-15.333 0 -28.168 2.66699 -38.501 8s-20 11 -29 17l-25.5 17c-8 5.33301 -17 8 -27 8c-12.667 0 -23.334 -4.33301 -32.001 -13s-13 -19.334 -13 -32.001h-20c0 40 8 69.167 24 87.5s38 27.5 66 27.5
c14.667 0 27.334 -2.66699 38.001 -8s20.5 -11 29.5 -17l25.5 -17c8 -5.33301 17 -8 27 -8c12.667 0 23.334 4.33301 32.001 13s13 19.334 13 32.001h20c0 -40 -8 -69.167 -24 -87.5s-38 -27.5 -66 -27.5z" />
    <glyph glyph-name="odieresis" unicode="&#xf6;" horiz-adv-x="610" 
d="M305 5c11.333 0 22.666 3.66699 33.999 11s21.5 20.166 30.5 38.499s16.333 43.333 22 75s8.5 71.834 8.5 120.501s-2.83301 88.834 -8.5 120.501s-13 56.667 -22 75s-19.167 31.166 -30.5 38.499s-22.666 11 -33.999 11s-22.666 -3.66699 -33.999 -11
s-21.5 -20.166 -30.5 -38.499s-16.333 -43.333 -22 -75s-8.5 -71.834 -8.5 -120.501s2.83301 -88.834 8.5 -120.501s13 -56.667 22 -75s19.167 -31.166 30.5 -38.499s22.666 -11 33.999 -11zM305 515c41.333 0 78.333 -6 111 -18s60.5 -29.5 83.5 -52.5
s40.5 -50.833 52.5 -83.5s18 -69.667 18 -111s-6 -78.333 -18 -111s-29.5 -60.5 -52.5 -83.5s-50.833 -40.5 -83.5 -52.5s-69.667 -18 -111 -18s-78.333 6 -111 18s-60.5 29.5 -83.5 52.5s-40.5 50.833 -52.5 83.5s-18 69.667 -18 111s6 78.333 18 111s29.5 60.5 52.5 83.5
s50.833 40.5 83.5 52.5s69.667 18 111 18zM142 645c0 20 6.66699 36.667 20 50s30 20 50 20s36.667 -6.66699 50 -20s20 -30 20 -50s-6.66699 -36.667 -20 -50s-30 -20 -50 -20s-36.667 6.66699 -50 20s-20 30 -20 50zM327 645c0 20 6.66699 36.667 20 50s30 20 50 20
s36.667 -6.66699 50 -20s20 -30 20 -50s-6.66699 -36.667 -20 -50s-30 -20 -50 -20s-36.667 6.66699 -50 20s-20 30 -20 50z" />
    <glyph glyph-name="divide" unicode="&#xf7;" horiz-adv-x="500" 
d="M30 310v45h440v-45h-440zM325 150c0 -20 -7.5 -37.5 -22.5 -52.5s-32.5 -22.5 -52.5 -22.5s-37.5 7.5 -52.5 22.5s-22.5 32.5 -22.5 52.5s7.5 37.5 22.5 52.5s32.5 22.5 52.5 22.5s37.5 -7.5 52.5 -22.5s22.5 -32.5 22.5 -52.5zM325 515c0 -20 -7.5 -37.5 -22.5 -52.5
s-32.5 -22.5 -52.5 -22.5s-37.5 7.5 -52.5 22.5s-22.5 32.5 -22.5 52.5s7.5 37.5 22.5 52.5s32.5 22.5 52.5 22.5s37.5 -7.5 52.5 -22.5s22.5 -32.5 22.5 -52.5z" />
    <glyph glyph-name="oslash" unicode="&#xf8;" horiz-adv-x="610" 
d="M530 500l-40.999 -50c24.667 -22.667 44.334 -50.834 59.001 -84.501s22 -72.167 22 -115.5c0 -41.333 -6 -78.333 -18 -111s-29.5 -60.5 -52.5 -83.5s-50.833 -40.5 -83.5 -52.5s-69.667 -18 -111 -18c-66 0 -120.333 15.667 -163 47l-27 -32h-35l41 49
c-24.667 23.333 -44.334 51.833 -59.001 85.5s-22 72.167 -22 115.5c0 41.333 6 78.333 18 111s29.5 60.5 52.5 83.5s50.833 40.5 83.5 52.5s69.667 18 111 18c32.667 0 62.667 -4.16699 90 -12.5s51.666 -20.166 72.999 -35.499l27 33h35zM305.001 5
c11.333 0 22.667 3.66309 34 10.9961s21.5 20.166 30.5 38.499s16.333 43.333 22 75s8.5 71.834 8.5 120.501c0 16.667 -0.333008 32.334 -1 47.001s-1.66699 28.334 -3 41.001l-177 -213c4 -23.333 9.16699 -42.666 15.5 -57.999s13.333 -27.666 21 -36.999
s15.667 -15.833 24 -19.5s16.833 -5.5 25.5 -5.5zM210.002 249.996c0 -17.333 0.332031 -33.166 0.999023 -47.499s1.66699 -28.166 3 -41.499l177 213c-4 23.333 -9.33301 42.666 -16 57.999s-13.667 27.666 -21 36.999s-15.333 16 -24 20s-17 6 -25 6
c-11.333 0 -22.666 -3.66699 -33.999 -11s-21.5 -20.166 -30.5 -38.499s-16.333 -43.333 -22 -75s-8.5 -71.834 -8.5 -120.501z" />
    <glyph glyph-name="ugrave" unicode="&#xf9;" horiz-adv-x="650" 
d="M155 500c60 0 89.999 -30 89.999 -90v-260c0 -22.667 2.33301 -42.167 7 -58.5s10.5 -29.833 17.5 -40.5s15 -18.5 24 -23.5s17.833 -7.5 26.5 -7.5c15.333 0 28.5 4.16699 39.5 12.5s20.167 17.5 27.5 27.5c8.66699 12 16.334 25.333 23.001 40v370l-60 15v15h280v-15
l-60 -15v-475h-10c-29.333 0 -52.833 4.16699 -70.5 12.5s-31.167 17.5 -40.5 27.5c-11.333 12 -19.333 25.333 -24 40c-8.66699 -17.333 -19.667 -32.333 -33 -45c-11.333 -11.333 -26.333 -21.666 -45 -30.999s-41 -14 -67 -14c-28.667 0 -55 4.66699 -79 14
s-44.5 21.666 -61.5 36.999s-30.333 32.833 -40 52.5s-14.5 40.167 -14.5 61.5v320l-60 15v15h130zM304.999 710l40 -150h-35l-135 150h130z" />
    <glyph glyph-name="uacute" unicode="&#xfa;" horiz-adv-x="650" 
d="M155 500c60 0 89.999 -30 89.999 -90v-260c0 -22.667 2.33301 -42.167 7 -58.5s10.5 -29.833 17.5 -40.5s15 -18.5 24 -23.5s17.833 -7.5 26.5 -7.5c15.333 0 28.5 4.16699 39.5 12.5s20.167 17.5 27.5 27.5c8.66699 12 16.334 25.333 23.001 40v370l-60 15v15h280v-15
l-60 -15v-475h-10c-29.333 0 -52.833 4.16699 -70.5 12.5s-31.167 17.5 -40.5 27.5c-11.333 12 -19.333 25.333 -24 40c-8.66699 -17.333 -19.667 -32.333 -33 -45c-11.333 -11.333 -26.333 -21.666 -45 -30.999s-41 -14 -67 -14c-28.667 0 -55 4.66699 -79 14
s-44.5 21.666 -61.5 36.999s-30.333 32.833 -40 52.5s-14.5 40.167 -14.5 61.5v320l-60 15v15h130zM464.999 700l-135 -150h-35l40 150h130z" />
    <glyph glyph-name="ucircumflex" unicode="&#xfb;" horiz-adv-x="650" 
d="M155 500c60 0 89.999 -30 89.999 -90v-260c0 -22.667 2.33301 -42.167 7 -58.5s10.5 -29.833 17.5 -40.5s15 -18.5 24 -23.5s17.833 -7.5 26.5 -7.5c15.333 0 28.5 4.16699 39.5 12.5s20.167 17.5 27.5 27.5c8.66699 12 16.334 25.333 23.001 40v370l-60 15v15h280v-15
l-60 -15v-475h-10c-29.333 0 -52.833 4.16699 -70.5 12.5s-31.167 17.5 -40.5 27.5c-11.333 12 -19.333 25.333 -24 40c-8.66699 -17.333 -19.667 -32.333 -33 -45c-11.333 -11.333 -26.333 -21.666 -45 -30.999s-41 -14 -67 -14c-28.667 0 -55 4.66699 -79 14
s-44.5 21.666 -61.5 36.999s-30.333 32.833 -40 52.5s-14.5 40.167 -14.5 61.5v320l-60 15v15h130zM329.999 730l145 -165h-35l-110 70l-110 -70h-35z" />
    <glyph glyph-name="udieresis" unicode="&#xfc;" horiz-adv-x="650" 
d="M155 500c60 0 89.999 -30 89.999 -90v-260c0 -22.667 2.33301 -42.167 7 -58.5s10.5 -29.833 17.5 -40.5s15 -18.5 24 -23.5s17.833 -7.5 26.5 -7.5c15.333 0 28.5 4.16699 39.5 12.5s20.167 17.5 27.5 27.5c8.66699 12 16.334 25.333 23.001 40v370l-60 15v15h280v-15
l-60 -15v-475h-10c-29.333 0 -52.833 4.16699 -70.5 12.5s-31.167 17.5 -40.5 27.5c-11.333 12 -19.333 25.333 -24 40c-8.66699 -17.333 -19.667 -32.333 -33 -45c-11.333 -11.333 -26.333 -21.666 -45 -30.999s-41 -14 -67 -14c-28.667 0 -55 4.66699 -79 14
s-44.5 21.666 -61.5 36.999s-30.333 32.833 -40 52.5s-14.5 40.167 -14.5 61.5v320l-60 15v15h130zM166.999 645c0 20 6.66699 36.667 20 50s30 20 50 20s36.667 -6.66699 50 -20s20 -30 20 -50s-6.66699 -36.667 -20 -50s-30 -20 -50 -20s-36.667 6.66699 -50 20
s-20 30 -20 50zM351.999 645c0 20 6.66699 36.667 20 50s30 20 50 20s36.667 -6.66699 50 -20s20 -30 20 -50s-6.66699 -36.667 -20 -50s-30 -20 -50 -20s-36.667 6.66699 -50 20s-20 30 -20 50z" />
    <glyph glyph-name="yacute" unicode="&#xfd;" 
d="M470 455l-75.001 29.998v15h185v-15l-80 -30l-200 -515c-21.333 -55.333 -44.166 -95 -68.499 -119s-51.5 -36 -81.5 -36s-53.333 8 -70 24s-25 38 -25 66c0 25.333 6.83301 45 20.5 59s31.834 21 54.501 21c5.33301 0 10.166 -0.333008 14.499 -1l12.5 -2
c4 -0.666992 8.33301 -1.33398 13 -2.00098v-135c8.66699 1.33301 17.167 4.33301 25.5 9s16.5 11.834 24.5 21.501s16 22.167 24 37.5s16.667 34.333 26 57l20 50l-260 480l-50 15v15h125c18.667 0 35 -2.16699 49 -6.5s26.167 -10.166 36.5 -17.499
s19.5 -16.166 27.5 -26.499s15.333 -21.833 22 -34.5l125 -231zM446.999 699.998l-135 -150h-35l40 150h130z" />
    <glyph glyph-name="thorn" unicode="&#xfe;" horiz-adv-x="625" 
d="M160 700c60 0 89.999 -30 89.999 -90v-160c9.33301 12 20.333 22.667 33 32c11.333 8 25 15.5 41 22.5s34.667 10.5 56 10.5c28.667 0 55.5 -5.66699 80.5 -17s46.667 -28 65 -50s32.833 -49.5 43.5 -82.5s16 -71.5 16 -115.5s-5.33301 -82.5 -16 -115.5
s-25.667 -60.5 -45 -82.5s-42.5 -38.667 -69.5 -50s-56.833 -17 -89.5 -17c-17.333 0 -33.166 2 -47.499 6s-26.5 8.66699 -36.5 14c-12 6 -22.333 12.667 -31 20v-195l60 -15v-15h-280v15l60 15v840l-60 15v15h130zM249.999 55c6.66699 -7.33301 14 -14.001 22 -20.001
c7.33301 -5.33301 15.5 -10 24.5 -14s18.5 -6 28.5 -6c12.667 0 24.5 3.16699 35.5 9.5s20.5 18 28.5 35s14.333 40.833 19 71.5s7 70.334 7 119.001c0 47.333 -2.33301 86 -7 116s-10.5 53.5 -17.5 70.5s-15 28.5 -24 34.5s-17.833 9 -26.5 9
c-14 0 -26.5 -4.16699 -37.5 -12.5s-20.5 -17.5 -28.5 -27.5c-9.33301 -12 -17.333 -25.333 -24 -40v-345z" />
    <glyph glyph-name="ydieresis" unicode="&#xff;" 
d="M470 455l-75.001 29.998v15h185v-15l-80 -30l-200 -515c-21.333 -55.333 -44.166 -95 -68.499 -119s-51.5 -36 -81.5 -36s-53.333 8 -70 24s-25 38 -25 66c0 25.333 6.83301 45 20.5 59s31.834 21 54.501 21c5.33301 0 10.166 -0.333008 14.499 -1l12.5 -2
c4 -0.666992 8.33301 -1.33398 13 -2.00098v-135c8.66699 1.33301 17.167 4.33301 25.5 9s16.5 11.834 24.5 21.501s16 22.167 24 37.5s16.667 34.333 26 57l20 50l-260 480l-50 15v15h125c18.667 0 35 -2.16699 49 -6.5s26.167 -10.166 36.5 -17.499
s19.5 -16.166 27.5 -26.499s15.333 -21.833 22 -34.5l125 -231zM144.999 644.998c0 20 6.66699 36.667 20 50s30 20 50 20s36.667 -6.66699 50 -20s20 -30 20 -50s-6.66699 -36.667 -20 -50s-30 -20 -50 -20s-36.667 6.66699 -50 20s-20 30 -20 50zM329.999 644.998
c0 20 6.66699 36.667 20 50s30 20 50 20s36.667 -6.66699 50 -20s20 -30 20 -50s-6.66699 -36.667 -20 -50s-30 -20 -50 -20s-36.667 6.66699 -50 20s-20 30 -20 50z" />
    <glyph glyph-name="Amacron" unicode="&#x100;" horiz-adv-x="680" 
d="M165 15l-0.00195312 -15h-185v15l80 30l275 665h30l285 -680l50 -15v-15h-120c-37.333 0 -66.666 8.5 -87.999 25.5s-36.666 36.833 -45.999 59.5l-51 120h-239l-66 -160zM165.998 230h219l-110 263zM229.998 784v45h260v-45h-260z" />
    <glyph glyph-name="amacron" unicode="&#x101;" horiz-adv-x="605" 
d="M235 235c-4 -8.66699 -7.33398 -18.667 -10.001 -30c-2.66699 -9.33301 -5 -20.333 -7 -33s-3 -26.667 -3 -42c0 -40 6.16699 -68.333 18.5 -85s26.166 -25 41.499 -25s28.5 4.16699 39.5 12.5s20.167 17.5 27.5 27.5c8.66699 12 16.334 25.333 23.001 40v145
c-15.333 0 -30.666 -0.5 -45.999 -1.5s-29.333 -2.16699 -42 -3.5c-14.667 -2 -28.667 -3.66699 -42 -5zM274.999 515c40 0 75.501 -5.33398 106.501 -16.001s57.167 -25.5 78.5 -44.5s37.5 -41.667 48.5 -68s16.5 -55.166 16.5 -86.499v-270l60 -15v-15h-90
c-24 -0 -43.333 3.83301 -58 11.5s-26.334 16.167 -35.001 25.5c-10 11.333 -17.333 24 -22 38c-8.66699 -17.333 -19.667 -32.333 -33 -45c-11.333 -11.333 -26.333 -21.666 -45 -30.999s-41 -14 -67 -14c-31.333 0 -58.5 3.5 -81.5 10.5s-42.167 16.667 -57.5 29
s-26.833 26.666 -34.5 42.999s-11.5 33.833 -11.5 52.5c0 15.333 1.66699 29.5 5 42.5s7.33301 24.5 12 34.5c5.33301 12 11.333 23 18 33c28 6.66699 57.667 12.667 89 18c26.667 4.66699 56.667 9.16699 90 13.5s67 7.16602 101 8.49902v30c0 38.667 -2.5 70.667 -7.5 96
s-12.167 45.333 -21.5 60s-20.833 24.834 -34.5 30.501s-29.167 8.5 -46.5 8.5c-7.33301 0 -14 -0.5 -20 -1.5s-11.333 -2.16699 -16 -3.5c-5.33301 -2 -10 -3.66699 -14 -5v-150c-4.66699 -1.33301 -9 -2.33301 -13 -3s-8.16699 -1.16699 -12.5 -1.5
s-9.16602 -0.5 -14.499 -0.5c-22.667 0 -40.834 6.83301 -54.501 20.5s-20.5 31.834 -20.5 54.501c0 14 3.5 27.5 10.5 40.5s18 24.667 33 35s34.167 18.666 57.5 24.999s51.333 9.5 84 9.5zM170 600.999v45h260v-45h-260z" />
    <glyph glyph-name="Abreve" unicode="&#x102;" horiz-adv-x="680" 
d="M165 15l-0.00195312 -15h-185v15l80 30l275 665h30l285 -680l50 -15v-15h-120c-37.333 0 -66.666 8.5 -87.999 25.5s-36.666 36.833 -45.999 59.5l-51 120h-239l-66 -160zM165.998 230h219l-110 263zM349.998 775c17.333 0 30.8379 1.83301 40.5049 5.5
s14.5 5.16699 14.5 4.5v110l12 2c3.33301 0.666992 7 1.33398 11 2.00098s8 1 12 1c17.333 0 31.666 -5.66699 42.999 -17s17 -25.666 17 -42.999c0 -22.667 -11.333 -42.5 -34 -59.5s-61.334 -25.5 -116.001 -25.5c-27.333 0 -50.5 2.33301 -69.5 7
s-34.5 10.834 -46.5 18.501s-20.667 16.667 -26 27s-8 21.166 -8 32.499c0 17.333 5.66699 31.666 17 42.999s25.666 17 42.999 17c3.33301 0 7.16602 -0.333008 11.499 -1s8.16602 -1.33398 11.499 -2.00098l12 -2v-110c0 0.666992 4.83301 -0.833008 14.5 -4.5
s23.167 -5.5 40.5 -5.5z" />
    <glyph glyph-name="abreve" unicode="&#x103;" horiz-adv-x="605" 
d="M235 235c-4 -8.66699 -7.33398 -18.667 -10.001 -30c-2.66699 -9.33301 -5 -20.333 -7 -33s-3 -26.667 -3 -42c0 -40 6.16699 -68.333 18.5 -85s26.166 -25 41.499 -25s28.5 4.16699 39.5 12.5s20.167 17.5 27.5 27.5c8.66699 12 16.334 25.333 23.001 40v145
c-15.333 0 -30.666 -0.5 -45.999 -1.5s-29.333 -2.16699 -42 -3.5c-14.667 -2 -28.667 -3.66699 -42 -5zM274.999 515c40 0 75.501 -5.33398 106.501 -16.001s57.167 -25.5 78.5 -44.5s37.5 -41.667 48.5 -68s16.5 -55.166 16.5 -86.499v-270l60 -15v-15h-90
c-24 -0 -43.333 3.83301 -58 11.5s-26.334 16.167 -35.001 25.5c-10 11.333 -17.333 24 -22 38c-8.66699 -17.333 -19.667 -32.333 -33 -45c-11.333 -11.333 -26.333 -21.666 -45 -30.999s-41 -14 -67 -14c-31.333 0 -58.5 3.5 -81.5 10.5s-42.167 16.667 -57.5 29
s-26.833 26.666 -34.5 42.999s-11.5 33.833 -11.5 52.5c0 15.333 1.66699 29.5 5 42.5s7.33301 24.5 12 34.5c5.33301 12 11.333 23 18 33c28 6.66699 57.667 12.667 89 18c26.667 4.66699 56.667 9.16699 90 13.5s67 7.16602 101 8.49902v30c0 38.667 -2.5 70.667 -7.5 96
s-12.167 45.333 -21.5 60s-20.833 24.834 -34.5 30.501s-29.167 8.5 -46.5 8.5c-7.33301 0 -14 -0.5 -20 -1.5s-11.333 -2.16699 -16 -3.5c-5.33301 -2 -10 -3.66699 -14 -5v-150c-4.66699 -1.33301 -9 -2.33301 -13 -3s-8.16699 -1.16699 -12.5 -1.5
s-9.16602 -0.5 -14.499 -0.5c-22.667 0 -40.834 6.83301 -54.501 20.5s-20.5 31.834 -20.5 54.501c0 14 3.5 27.5 10.5 40.5s18 24.667 33 35s34.167 18.666 57.5 24.999s51.333 9.5 84 9.5zM300 594.999c17.333 0 30.8379 1.83301 40.5049 5.5s14.5 5.16699 14.5 4.5v110
l12 2c3.33301 0.666992 7 1.33398 11 2.00098s8 1 12 1c17.333 0 31.666 -5.66699 42.999 -17s17 -25.666 17 -42.999c0 -22.667 -11.333 -42.5 -34 -59.5s-61.334 -25.5 -116.001 -25.5c-27.333 0 -50.5 2.33301 -69.5 7s-34.5 10.834 -46.5 18.501s-20.667 16.667 -26 27
s-8 21.166 -8 32.499c0 17.333 5.66699 31.666 17 42.999s25.666 17 42.999 17c3.33301 0 7.16602 -0.333008 11.499 -1s8.16602 -1.33398 11.499 -2.00098l12 -2v-110c0 0.666992 4.83301 -0.833008 14.5 -4.5s23.167 -5.5 40.5 -5.5z" />
    <glyph glyph-name="Aogonek" unicode="&#x104;" horiz-adv-x="680" 
d="M165 15l-0.00195312 -15h-185v15l80 30l275 665h30l285 -680l50 -15v-15c-18 -8.66699 -34 -19 -48 -31c-12 -10.667 -22.833 -23.667 -32.5 -39s-14.5 -33.666 -14.5 -54.999c0 -26.667 13.333 -40 40 -40c6 0 11.833 1 17.5 3s10.5 4.33301 14.5 7
c4.66699 2.66699 9 6 13 10v-30c-5.33301 -2.66699 -11.333 -5.33398 -18 -8.00098c-12.667 -4.66699 -28.334 -7 -47.001 -7c-35.333 0 -61.666 7.5 -78.999 22.5s-26 32.5 -26 52.5c0 13.333 3 25.5 9 36.5s13.667 20.667 23 29s19.5 15.5 30.5 21.5s21.5 11 31.5 15
s18.667 7 26 9s12 3.33301 14 4h-74c-37.333 0 -66.666 8.5 -87.999 25.5s-36.666 36.833 -45.999 59.5l-51 120h-239l-66 -160zM165.998 230h219l-110 263z" />
    <glyph glyph-name="aogonek" unicode="&#x105;" horiz-adv-x="605" 
d="M275 515c40 0 75.5029 -5.33301 106.503 -16s57.167 -25.5 78.5 -44.5s37.5 -41.667 48.5 -68s16.5 -55.166 16.5 -86.499v-270l60 -15v-15c-18 -8.66699 -34 -19 -48 -31c-12 -10.667 -22.833 -23.667 -32.5 -39s-14.5 -33.666 -14.5 -54.999
c0 -26.667 13.333 -40 40 -40c6 0 11.833 1 17.5 3s10.5 4.33301 14.5 7c4.66699 2.66699 9 6 13 10v-30c-5.33301 -2.66699 -11.333 -5.33398 -18 -8.00098c-12.667 -4.66699 -28.334 -7 -47.001 -7c-35.333 0 -61.666 7.5 -78.999 22.5s-26 32.5 -26 52.5
c0 13.333 3 25.5 9 36.5s13.667 20.667 23 29s19.5 15.5 30.5 21.5s21.5 11 31.5 15s18.667 7 26 9s12 3.33301 14 4h-44c-22.667 0 -41.334 3.5 -56.001 10.5s-26.334 15 -35.001 24s-14.667 17.333 -18 25s-5.33301 12.5 -6 14.5c0 -0.666992 -2.83301 -5.66699 -8.5 -15
s-14.334 -19.5 -26.001 -30.5s-26.5 -21 -44.5 -30s-40 -13.5 -66 -13.5c-31.333 0 -58.5 3.5 -81.5 10.5s-42.167 16.667 -57.5 29s-26.833 26.666 -34.5 42.999s-11.5 33.833 -11.5 52.5c0 15.333 1.66699 29.5 5 42.5s7.33301 24.5 12 34.5c5.33301 12 11.333 23 18 33
c28 6.66699 57.667 12.667 89 18c26.667 4.66699 56.667 9.16699 90 13.5s67 7.16602 101 8.49902v30c0 38.667 -2.5 70.667 -7.5 96s-12.167 45.333 -21.5 60s-20.833 24.834 -34.5 30.501s-29.167 8.5 -46.5 8.5c-7.33301 0 -14 -0.5 -20 -1.5s-11.333 -2.16699 -16 -3.5
c-5.33301 -2 -10 -3.66699 -14 -5v-150c-4.66699 -1.33301 -9 -2.33301 -13 -3s-8.16699 -1.16699 -12.5 -1.5s-9.16602 -0.5 -14.499 -0.5c-22.667 0 -40.834 6.83301 -54.501 20.5s-20.5 31.834 -20.5 54.501c0 14 3.5 27.5 10.5 40.5s18 24.667 33 35
s34.167 18.666 57.5 24.999s51.333 9.5 84 9.5zM235.003 235c-4 -8.66699 -7.33398 -18.667 -10.001 -30c-2.66699 -9.33301 -5 -20.333 -7 -33s-3 -26.667 -3 -42c0 -40 6.16699 -68.333 18.5 -85s26.166 -25 41.499 -25s28.5 4.16699 39.5 12.5s20.167 17.5 27.5 27.5
c8.66699 12 16.334 25.333 23.001 40v145c-15.333 0 -30.666 -0.5 -45.999 -1.5s-29.333 -2.16699 -42 -3.5c-14.667 -2 -28.667 -3.66699 -42 -5z" />
    <glyph glyph-name="Cacute" unicode="&#x106;" horiz-adv-x="650" 
d="M361 715c23.333 0 44.832 -3.50098 64.499 -10.501s36.5 -14.5 50.5 -22.5c16.667 -9.33301 31.334 -20 44.001 -32c5.33301 8.66699 11.166 16.5 17.499 23.5s12.166 12.833 17.499 17.5c6.66699 5.33301 13.334 10 20.001 14h25v-190h-40
c-9.33301 32 -22.333 61 -39 87c-14 22 -32.667 42.167 -56 60.5s-51.666 27.5 -84.999 27.5c-20 0 -39.667 -5.5 -59 -16.5s-36.5 -29.667 -51.5 -56s-27 -61.333 -36 -105s-13.5 -97.834 -13.5 -162.501c0 -65.333 4.66699 -119.666 14 -162.999
s22.333 -78.166 39 -104.499s36.334 -45 59.001 -56s47 -16.5 73 -16.5c24 0 47 5.16699 69 15.5s41.667 24.333 59 42s31.166 37.834 41.499 60.501s15.5 46.667 15.5 72h25c0 -28.667 -5.83301 -56 -17.5 -82s-27.834 -48.833 -48.501 -68.5s-45 -35.334 -73 -47.001
s-58.333 -17.5 -91 -17.5c-52.667 0 -100 8 -142 24s-77.667 39.5 -107 70.5s-51.833 69.167 -67.5 114.5s-23.5 97.333 -23.5 156s7.66699 110.667 23 156s37 83.5 65 114.5s61.333 54.5 100 70.5s81.334 24 128.001 24zM491.999 899.999l-135 -150h-35l40 150h130z" />
    <glyph glyph-name="cacute" unicode="&#x107;" horiz-adv-x="530" 
d="M330 495c-17.333 0 -33.332 -3.66602 -47.999 -10.999s-27.334 -20.166 -38.001 -38.499s-19 -43.333 -25 -75s-9 -71.834 -9 -120.501c0 -47.333 3 -86.5 9 -117.5s14.333 -55.5 25 -73.5s23.334 -30.667 38.001 -38s30.667 -11 48 -11c20 0 38.833 3.66699 56.5 11
s33 17.166 46 29.499s23.333 26.333 31 42s11.5 31.5 11.5 47.5h25c0 -20 -4.5 -39.333 -13.5 -58s-21.833 -35.167 -38.5 -49.5s-36.667 -25.833 -60 -34.5s-49.333 -13 -78 -13c-85.333 0 -151.666 23.5 -198.999 70.5s-71 111.833 -71 194.5s23.667 147.5 71 194.5
s113.666 70.5 198.999 70.5c32.667 0 60.667 -3.16699 84 -9.5s42.5 -14.666 57.5 -24.999s26 -22 33 -35s10.5 -26.5 10.5 -40.5c0 -22.667 -6.83301 -40.834 -20.5 -54.501s-31.834 -20.5 -54.501 -20.5c-5.33301 0 -10.5 0.166992 -15.5 0.5s-9.16699 0.833008 -12.5 1.5
c-4.66699 0.666992 -8.66699 1.66699 -12 3v150c-4 1.33301 -8.66699 3 -14 5c-4.66699 1.33301 -10 2.5 -16 3.5s-12.667 1.5 -20 1.5zM425.001 710.001l-135 -150h-35l40 150h130z" />
    <glyph glyph-name="Ccircumflex" unicode="&#x108;" horiz-adv-x="650" 
d="M361 715c23.333 0 44.832 -3.50098 64.499 -10.501s36.5 -14.5 50.5 -22.5c16.667 -9.33301 31.334 -20 44.001 -32c5.33301 8.66699 11.166 16.5 17.499 23.5s12.166 12.833 17.499 17.5c6.66699 5.33301 13.334 10 20.001 14h25v-190h-40
c-9.33301 32 -22.333 61 -39 87c-14 22 -32.667 42.167 -56 60.5s-51.666 27.5 -84.999 27.5c-20 0 -39.667 -5.5 -59 -16.5s-36.5 -29.667 -51.5 -56s-27 -61.333 -36 -105s-13.5 -97.834 -13.5 -162.501c0 -65.333 4.66699 -119.666 14 -162.999
s22.333 -78.166 39 -104.499s36.334 -45 59.001 -56s47 -16.5 73 -16.5c24 0 47 5.16699 69 15.5s41.667 24.333 59 42s31.166 37.834 41.499 60.501s15.5 46.667 15.5 72h25c0 -28.667 -5.83301 -56 -17.5 -82s-27.834 -48.833 -48.501 -68.5s-45 -35.334 -73 -47.001
s-58.333 -17.5 -91 -17.5c-52.667 0 -100 8 -142 24s-77.667 39.5 -107 70.5s-51.833 69.167 -67.5 114.5s-23.5 97.333 -23.5 156s7.66699 110.667 23 156s37 83.5 65 114.5s61.333 54.5 100 70.5s81.334 24 128.001 24zM346.999 929.999l145 -165h-35l-110 70l-110 -70
h-35z" />
    <glyph glyph-name="ccircumflex" unicode="&#x109;" horiz-adv-x="530" 
d="M330 495c-17.333 0 -33.332 -3.66602 -47.999 -10.999s-27.334 -20.166 -38.001 -38.499s-19 -43.333 -25 -75s-9 -71.834 -9 -120.501c0 -47.333 3 -86.5 9 -117.5s14.333 -55.5 25 -73.5s23.334 -30.667 38.001 -38s30.667 -11 48 -11c20 0 38.833 3.66699 56.5 11
s33 17.166 46 29.499s23.333 26.333 31 42s11.5 31.5 11.5 47.5h25c0 -20 -4.5 -39.333 -13.5 -58s-21.833 -35.167 -38.5 -49.5s-36.667 -25.833 -60 -34.5s-49.333 -13 -78 -13c-85.333 0 -151.666 23.5 -198.999 70.5s-71 111.833 -71 194.5s23.667 147.5 71 194.5
s113.666 70.5 198.999 70.5c32.667 0 60.667 -3.16699 84 -9.5s42.5 -14.666 57.5 -24.999s26 -22 33 -35s10.5 -26.5 10.5 -40.5c0 -22.667 -6.83301 -40.834 -20.5 -54.501s-31.834 -20.5 -54.501 -20.5c-5.33301 0 -10.5 0.166992 -15.5 0.5s-9.16699 0.833008 -12.5 1.5
c-4.66699 0.666992 -8.66699 1.66699 -12 3v150c-4 1.33301 -8.66699 3 -14 5c-4.66699 1.33301 -10 2.5 -16 3.5s-12.667 1.5 -20 1.5zM285.001 730.001l145 -165h-35l-110 70l-110 -70h-35z" />
    <glyph glyph-name="Cdotaccent" unicode="&#x10a;" horiz-adv-x="650" 
d="M361 715c23.333 0 44.832 -3.50098 64.499 -10.501s36.5 -14.5 50.5 -22.5c16.667 -9.33301 31.334 -20 44.001 -32c5.33301 8.66699 11.166 16.5 17.499 23.5s12.166 12.833 17.499 17.5c6.66699 5.33301 13.334 10 20.001 14h25v-190h-40
c-9.33301 32 -22.333 61 -39 87c-14 22 -32.667 42.167 -56 60.5s-51.666 27.5 -84.999 27.5c-20 0 -39.667 -5.5 -59 -16.5s-36.5 -29.667 -51.5 -56s-27 -61.333 -36 -105s-13.5 -97.834 -13.5 -162.501c0 -65.333 4.66699 -119.666 14 -162.999
s22.333 -78.166 39 -104.499s36.334 -45 59.001 -56s47 -16.5 73 -16.5c24 0 47 5.16699 69 15.5s41.667 24.333 59 42s31.166 37.834 41.499 60.501s15.5 46.667 15.5 72h25c0 -28.667 -5.83301 -56 -17.5 -82s-27.834 -48.833 -48.501 -68.5s-45 -35.334 -73 -47.001
s-58.333 -17.5 -91 -17.5c-52.667 0 -100 8 -142 24s-77.667 39.5 -107 70.5s-51.833 69.167 -67.5 114.5s-23.5 97.333 -23.5 156s7.66699 110.667 23 156s37 83.5 65 114.5s61.333 54.5 100 70.5s81.334 24 128.001 24zM286.999 844.999c0 20 6.66699 36.667 20 50
s30 20 50 20s36.667 -6.66699 50 -20s20 -30 20 -50s-6.66699 -36.667 -20 -50s-30 -20 -50 -20s-36.667 6.66699 -50 20s-20 30 -20 50z" />
    <glyph glyph-name="cdotaccent" unicode="&#x10b;" horiz-adv-x="530" 
d="M330 495c-17.333 0 -33.332 -3.66602 -47.999 -10.999s-27.334 -20.166 -38.001 -38.499s-19 -43.333 -25 -75s-9 -71.834 -9 -120.501c0 -47.333 3 -86.5 9 -117.5s14.333 -55.5 25 -73.5s23.334 -30.667 38.001 -38s30.667 -11 48 -11c20 0 38.833 3.66699 56.5 11
s33 17.166 46 29.499s23.333 26.333 31 42s11.5 31.5 11.5 47.5h25c0 -20 -4.5 -39.333 -13.5 -58s-21.833 -35.167 -38.5 -49.5s-36.667 -25.833 -60 -34.5s-49.333 -13 -78 -13c-85.333 0 -151.666 23.5 -198.999 70.5s-71 111.833 -71 194.5s23.667 147.5 71 194.5
s113.666 70.5 198.999 70.5c32.667 0 60.667 -3.16699 84 -9.5s42.5 -14.666 57.5 -24.999s26 -22 33 -35s10.5 -26.5 10.5 -40.5c0 -22.667 -6.83301 -40.834 -20.5 -54.501s-31.834 -20.5 -54.501 -20.5c-5.33301 0 -10.5 0.166992 -15.5 0.5s-9.16699 0.833008 -12.5 1.5
c-4.66699 0.666992 -8.66699 1.66699 -12 3v150c-4 1.33301 -8.66699 3 -14 5c-4.66699 1.33301 -10 2.5 -16 3.5s-12.667 1.5 -20 1.5zM225.001 645.001c0 20 6.66699 36.667 20 50s30 20 50 20s36.667 -6.66699 50 -20s20 -30 20 -50s-6.66699 -36.667 -20 -50
s-30 -20 -50 -20s-36.667 6.66699 -50 20s-20 30 -20 50z" />
    <glyph glyph-name="Ccaron" unicode="&#x10c;" horiz-adv-x="650" 
d="M361 715c23.333 0 44.832 -3.50098 64.499 -10.501s36.5 -14.5 50.5 -22.5c16.667 -9.33301 31.334 -20 44.001 -32c5.33301 8.66699 11.166 16.5 17.499 23.5s12.166 12.833 17.499 17.5c6.66699 5.33301 13.334 10 20.001 14h25v-190h-40
c-9.33301 32 -22.333 61 -39 87c-14 22 -32.667 42.167 -56 60.5s-51.666 27.5 -84.999 27.5c-20 0 -39.667 -5.5 -59 -16.5s-36.5 -29.667 -51.5 -56s-27 -61.333 -36 -105s-13.5 -97.834 -13.5 -162.501c0 -65.333 4.66699 -119.666 14 -162.999
s22.333 -78.166 39 -104.499s36.334 -45 59.001 -56s47 -16.5 73 -16.5c24 0 47 5.16699 69 15.5s41.667 24.333 59 42s31.166 37.834 41.499 60.501s15.5 46.667 15.5 72h25c0 -28.667 -5.83301 -56 -17.5 -82s-27.834 -48.833 -48.501 -68.5s-45 -35.334 -73 -47.001
s-58.333 -17.5 -91 -17.5c-52.667 0 -100 8 -142 24s-77.667 39.5 -107 70.5s-51.833 69.167 -67.5 114.5s-23.5 97.333 -23.5 156s7.66699 110.667 23 156s37 83.5 65 114.5s61.333 54.5 100 70.5s81.334 24 128.001 24zM381.999 764.999h-60l-115 150h35l110 -80l110 80
h35z" />
    <glyph glyph-name="ccaron" unicode="&#x10d;" horiz-adv-x="530" 
d="M330 495c-17.333 0 -33.332 -3.66602 -47.999 -10.999s-27.334 -20.166 -38.001 -38.499s-19 -43.333 -25 -75s-9 -71.834 -9 -120.501c0 -47.333 3 -86.5 9 -117.5s14.333 -55.5 25 -73.5s23.334 -30.667 38.001 -38s30.667 -11 48 -11c20 0 38.833 3.66699 56.5 11
s33 17.166 46 29.499s23.333 26.333 31 42s11.5 31.5 11.5 47.5h25c0 -20 -4.5 -39.333 -13.5 -58s-21.833 -35.167 -38.5 -49.5s-36.667 -25.833 -60 -34.5s-49.333 -13 -78 -13c-85.333 0 -151.666 23.5 -198.999 70.5s-71 111.833 -71 194.5s23.667 147.5 71 194.5
s113.666 70.5 198.999 70.5c32.667 0 60.667 -3.16699 84 -9.5s42.5 -14.666 57.5 -24.999s26 -22 33 -35s10.5 -26.5 10.5 -40.5c0 -22.667 -6.83301 -40.834 -20.5 -54.501s-31.834 -20.5 -54.501 -20.5c-5.33301 0 -10.5 0.166992 -15.5 0.5s-9.16699 0.833008 -12.5 1.5
c-4.66699 0.666992 -8.66699 1.66699 -12 3v150c-4 1.33301 -8.66699 3 -14 5c-4.66699 1.33301 -10 2.5 -16 3.5s-12.667 1.5 -20 1.5zM305.001 566.001h-60l-115 150h35l110 -80l110 80h35z" />
    <glyph glyph-name="Dcaron" unicode="&#x10e;" horiz-adv-x="715" 
d="M305 700c120 0 211.667 -30.833 275 -92.5s95 -147.5 95 -257.5s-31.667 -195.833 -95 -257.5s-155 -92.5 -275 -92.5h-255v15l60 15v640l-60 15v15h255zM275 675v-649.996h30c28.667 0 55 5.5 79 16.5s44.5 29.167 61.5 54.5s30.333 58.666 40 99.999
s14.5 92.666 14.5 153.999s-4.83301 112.666 -14.5 153.999s-23 74.666 -40 99.999s-37.5 43.5 -61.5 54.5s-50.333 16.5 -79 16.5h-30zM367 760.004h-60l-115 150h35l110 -80l110 80h35z" />
    <glyph glyph-name="dcaron" unicode="&#x10f;" horiz-adv-x="760" 
d="M375 445c-7.33301 7.33301 -15.001 14.001 -23.001 20.001c-7.33301 5.33301 -15.333 10 -24 14s-18 6 -28 6c-12.667 0 -24.5 -3.16699 -35.5 -9.5s-20.5 -18 -28.5 -35s-14.333 -40.833 -19 -71.5s-7 -70.334 -7 -119.001c0 -47.333 2.33301 -86 7 -116
s10.5 -53.5 17.5 -70.5s15 -28.5 24 -34.5s17.833 -9 26.5 -9c15.333 0 28.5 4.16699 39.5 12.5s20.167 17.5 27.5 27.5c8.66699 12 16.334 25.333 23.001 40v345zM444.999 700.001c60 0 90.002 -30.001 90.002 -90.001v-580l60 -15v-15h-90
c-24 -0 -43.333 3.83301 -58 11.5s-26.334 16.167 -35.001 25.5c-10 11.333 -17.333 24 -22 38c-8.66699 -17.333 -19.667 -32.333 -33 -45c-11.333 -11.333 -26.333 -21.666 -45 -30.999s-41 -14 -67 -14c-28.667 0 -55.5 5.66699 -80.5 17s-46.667 28 -65 50
s-32.833 49.5 -43.5 82.5s-16 71.5 -16 115.5s5.33301 82.5 16 115.5s25.667 60.5 45 82.5s42.5 38.667 69.5 50s56.833 17 89.5 17c17.333 0 33.166 -2 47.499 -6s26.5 -8.66699 36.5 -14c12 -6 22.333 -12.667 31 -20v195l-60 15v15h130zM615.001 470
c13.333 5.33301 25.667 12.668 37 22.001c9.33301 8 18.666 18.833 27.999 32.5s16 30.5 20 50.5c-3.33301 -2.66699 -7 -5.33398 -11 -8.00098c-8 -4.66699 -17.667 -7 -29 -7c-20 0 -36.667 6.66699 -50 20s-20 30 -20 50s6.66699 36.667 20 50s30 20 50 20
c22.667 0 40.834 -7.16699 54.501 -21.5s20.5 -35.5 20.5 -63.5c0 -32.667 -5.83301 -59.5 -17.5 -80.5s-24.167 -37.833 -37.5 -50.5c-16.667 -14.667 -35 -26 -55 -34z" />
    <glyph glyph-name="Dcroat" unicode="&#x110;" horiz-adv-x="720" 
d="M115 370v300l-60 15v15h255c120 0 211.667 -30.833 275 -92.5s95 -147.5 95 -257.5s-31.667 -195.833 -95 -257.5s-155 -92.5 -275 -92.5h-255v15l60 15v310h-65v30h65zM280 675v-304.996h120v-30h-120v-315h30c28.667 0 55 5.5 79 16.5s44.5 29.167 61.5 54.5
s30.333 58.666 40 99.999s14.5 92.666 14.5 153.999s-4.83301 112.666 -14.5 153.999s-23 74.666 -40 99.999s-37.5 43.5 -61.5 54.5s-50.333 16.5 -79 16.5h-30z" />
    <glyph glyph-name="dcroat" unicode="&#x111;" horiz-adv-x="625" 
d="M445 700c60 0 90.002 -30.0029 90.002 -90.0029v-20h65v-30h-65v-530l60 -15v-15h-90c-24 0 -43.333 3.83301 -58 11.5s-26.334 16.167 -35.001 25.5c-10 11.333 -17.333 24 -22 38c-8.66699 -17.333 -19.667 -32.333 -33 -45
c-11.333 -11.333 -26.333 -21.666 -45 -30.999s-41 -14 -67 -14c-28.667 0 -55.5 5.5 -80.5 16.5s-46.667 27.333 -65 49s-32.833 48.334 -43.5 80.001s-16 68.167 -16 109.5s5.33301 77.833 16 109.5s25.667 58.334 45 80.001s42.5 38 69.5 49s56.833 16.5 89.5 16.5
c17.333 0 33.166 -2 47.499 -6s26.5 -8.66699 36.5 -14c12 -6 22.333 -12.667 31 -20v105h-125v30h125v80l-60 15v15h130zM375.002 424.997l-6.00098 5.99805c-4 4 -9.5 8.5 -16.5 13.5s-15 9.66699 -24 14s-18.5 6.5 -28.5 6.5c-12.667 0 -24.5 -3 -35.5 -9
s-20.5 -17.333 -28.5 -34s-14.333 -39.667 -19 -69s-7 -67 -7 -113c0 -45.333 2.33301 -82.166 7 -110.499s10.5 -50.666 17.5 -66.999s15 -27.5 24 -33.5s17.833 -9 26.5 -9c15.333 0 28.5 4.16699 39.5 12.5s20.167 17.5 27.5 27.5c8.66699 12 16.334 25.333 23.001 40
v325z" />
    <glyph glyph-name="Emacron" unicode="&#x112;" horiz-adv-x="645" 
d="M390 360c2.66699 13.333 6.33398 26.167 11.001 38.5s9.66699 23.166 15 32.499c6 10.667 12.333 20.334 19 29.001h30v-225h-30c-6.66699 8.66699 -13 18.334 -19 29.001c-5.33301 9.33301 -10.333 20 -15 32s-8.33398 25 -11.001 39h-115v-310h235
c0 26 3.33301 48.667 10 68s14 35.666 22 48.999c9.33301 15.333 20.333 28 33 38h30v-180h-555v15l60 15v640l-60 15v15h535v-180h-30c-12.667 10 -23.667 22.667 -33 38c-8 13.333 -15.333 29.5 -22 48.5s-10 41.833 -10 68.5h-215v-315h115zM222 794.001v45h260v-45h-260
z" />
    <glyph glyph-name="emacron" unicode="&#x113;" 
d="M210 250c22.667 0 42.667 0.5 60 1.5s32 2.16699 44 3.5c14 1.33301 26 3 36 5c1.33301 6.66699 3 14 5 22c1.33301 7.33301 2.5 15.5 3.5 24.5s1.5 18.5 1.5 28.5c0 30 -2.33301 55.167 -7 75.5s-10.5 36.833 -17.5 49.5s-15 21.667 -24 27s-17.833 8 -26.5 8
s-17.5 -3.16699 -26.5 -9.5s-17 -18.333 -24 -36s-12.833 -42.5 -17.5 -74.5s-7 -73.667 -7 -125zM310 -15c-85.333 0 -151.668 23.5 -199.001 70.5s-71 111.833 -71 194.5c0 41.333 6 78.333 18 111s28.667 60.5 50 83.5s47.166 40.5 77.499 52.5s63.5 18 99.5 18
c37.333 0 70.833 -5.33301 100.5 -16s54.834 -25 75.501 -43s36.5 -39.167 47.5 -63.5s16.5 -50.166 16.5 -77.499c0 -9.33301 -0.5 -17.5 -1.5 -24.5s-2.16699 -13.167 -3.5 -18.5l-5 -17c-29.333 -6 -60.333 -11 -93 -15c-28 -4 -60.333 -7.5 -97 -10.5
s-75 -4.5 -115 -4.5c0 -41.333 3 -75.833 9 -103.5s14.333 -49.667 25 -66s23.334 -28 38.001 -35s30.667 -10.5 48 -10.5c20 0 38.833 3.66699 56.5 11s33 17.166 46 29.499s23.333 26.333 31 42s11.5 31.5 11.5 47.5h25c0 -20 -4.5 -39.333 -13.5 -58
s-21.833 -35.167 -38.5 -49.5s-36.667 -25.833 -60 -34.5s-49.333 -13 -78 -13zM154.998 601v45h260v-45h-260z" />
    <glyph glyph-name="Ebreve" unicode="&#x114;" horiz-adv-x="645" 
d="M390 360c2.66699 13.333 6.33398 26.167 11.001 38.5s9.66699 23.166 15 32.499c6 10.667 12.333 20.334 19 29.001h30v-225h-30c-6.66699 8.66699 -13 18.334 -19 29.001c-5.33301 9.33301 -10.333 20 -15 32s-8.33398 25 -11.001 39h-115v-310h235
c0 26 3.33301 48.667 10 68s14 35.666 22 48.999c9.33301 15.333 20.333 28 33 38h30v-180h-555v15l60 15v640l-60 15v15h535v-180h-30c-12.667 10 -23.667 22.667 -33 38c-8 13.333 -15.333 29.5 -22 48.5s-10 41.833 -10 68.5h-215v-315h115zM342 790.001
c17.333 0 30.8379 1.83301 40.5049 5.5s14.5 5.16699 14.5 4.5v110l12 2c3.33301 0.666992 7 1.33398 11 2.00098s8 1 12 1c17.333 0 31.666 -5.66699 42.999 -17s17 -25.666 17 -42.999c0 -22.667 -11.333 -42.5 -34 -59.5s-61.334 -25.5 -116.001 -25.5
c-27.333 0 -50.5 2.33301 -69.5 7s-34.5 10.834 -46.5 18.501s-20.667 16.667 -26 27s-8 21.166 -8 32.499c0 17.333 5.66699 31.666 17 42.999s25.666 17 42.999 17c3.33301 0 7.16602 -0.333008 11.499 -1s8.16602 -1.33398 11.499 -2.00098l12 -2v-110
c0 0.666992 4.83301 -0.833008 14.5 -4.5s23.167 -5.5 40.5 -5.5z" />
    <glyph glyph-name="ebreve" unicode="&#x115;" 
d="M210 250c22.667 0 42.667 0.5 60 1.5s32 2.16699 44 3.5c14 1.33301 26 3 36 5c1.33301 6.66699 3 14 5 22c1.33301 7.33301 2.5 15.5 3.5 24.5s1.5 18.5 1.5 28.5c0 30 -2.33301 55.167 -7 75.5s-10.5 36.833 -17.5 49.5s-15 21.667 -24 27s-17.833 8 -26.5 8
s-17.5 -3.16699 -26.5 -9.5s-17 -18.333 -24 -36s-12.833 -42.5 -17.5 -74.5s-7 -73.667 -7 -125zM310 -15c-85.333 0 -151.668 23.5 -199.001 70.5s-71 111.833 -71 194.5c0 41.333 6 78.333 18 111s28.667 60.5 50 83.5s47.166 40.5 77.499 52.5s63.5 18 99.5 18
c37.333 0 70.833 -5.33301 100.5 -16s54.834 -25 75.501 -43s36.5 -39.167 47.5 -63.5s16.5 -50.166 16.5 -77.499c0 -9.33301 -0.5 -17.5 -1.5 -24.5s-2.16699 -13.167 -3.5 -18.5l-5 -17c-29.333 -6 -60.333 -11 -93 -15c-28 -4 -60.333 -7.5 -97 -10.5
s-75 -4.5 -115 -4.5c0 -41.333 3 -75.833 9 -103.5s14.333 -49.667 25 -66s23.334 -28 38.001 -35s30.667 -10.5 48 -10.5c20 0 38.833 3.66699 56.5 11s33 17.166 46 29.499s23.333 26.333 31 42s11.5 31.5 11.5 47.5h25c0 -20 -4.5 -39.333 -13.5 -58
s-21.833 -35.167 -38.5 -49.5s-36.667 -25.833 -60 -34.5s-49.333 -13 -78 -13zM279.998 595c17.333 0 30.8379 1.83301 40.5049 5.5s14.5 5.16699 14.5 4.5v110l12 2c3.33301 0.666992 7 1.33398 11 2.00098s8 1 12 1c17.333 0 31.666 -5.66699 42.999 -17
s17 -25.666 17 -42.999c0 -22.667 -11.333 -42.5 -34 -59.5s-61.334 -25.5 -116.001 -25.5c-27.333 0 -50.5 2.33301 -69.5 7s-34.5 10.834 -46.5 18.501s-20.667 16.667 -26 27s-8 21.166 -8 32.499c0 17.333 5.66699 31.666 17 42.999s25.666 17 42.999 17
c3.33301 0 7.16602 -0.333008 11.499 -1s8.16602 -1.33398 11.499 -2.00098l12 -2v-110c0 0.666992 4.83301 -0.833008 14.5 -4.5s23.167 -5.5 40.5 -5.5z" />
    <glyph glyph-name="Edotaccent" unicode="&#x116;" horiz-adv-x="645" 
d="M390 360c2.66699 13.333 6.33398 26.167 11.001 38.5s9.66699 23.166 15 32.499c6 10.667 12.333 20.334 19 29.001h30v-225h-30c-6.66699 8.66699 -13 18.334 -19 29.001c-5.33301 9.33301 -10.333 20 -15 32s-8.33398 25 -11.001 39h-115v-310h235
c0 26 3.33301 48.667 10 68s14 35.666 22 48.999c9.33301 15.333 20.333 28 33 38h30v-180h-555v15l60 15v640l-60 15v15h535v-180h-30c-12.667 10 -23.667 22.667 -33 38c-8 13.333 -15.333 29.5 -22 48.5s-10 41.833 -10 68.5h-215v-315h115zM282 840.001
c0 20 6.66699 36.667 20 50s30 20 50 20s36.667 -6.66699 50 -20s20 -30 20 -50s-6.66699 -36.667 -20 -50s-30 -20 -50 -20s-36.667 6.66699 -50 20s-20 30 -20 50z" />
    <glyph glyph-name="edotaccent" unicode="&#x117;" 
d="M210 250c22.667 0 42.667 0.5 60 1.5s32 2.16699 44 3.5c14 1.33301 26 3 36 5c1.33301 6.66699 3 14 5 22c1.33301 7.33301 2.5 15.5 3.5 24.5s1.5 18.5 1.5 28.5c0 30 -2.33301 55.167 -7 75.5s-10.5 36.833 -17.5 49.5s-15 21.667 -24 27s-17.833 8 -26.5 8
s-17.5 -3.16699 -26.5 -9.5s-17 -18.333 -24 -36s-12.833 -42.5 -17.5 -74.5s-7 -73.667 -7 -125zM310 -15c-85.333 0 -151.668 23.5 -199.001 70.5s-71 111.833 -71 194.5c0 41.333 6 78.333 18 111s28.667 60.5 50 83.5s47.166 40.5 77.499 52.5s63.5 18 99.5 18
c37.333 0 70.833 -5.33301 100.5 -16s54.834 -25 75.501 -43s36.5 -39.167 47.5 -63.5s16.5 -50.166 16.5 -77.499c0 -9.33301 -0.5 -17.5 -1.5 -24.5s-2.16699 -13.167 -3.5 -18.5l-5 -17c-29.333 -6 -60.333 -11 -93 -15c-28 -4 -60.333 -7.5 -97 -10.5
s-75 -4.5 -115 -4.5c0 -41.333 3 -75.833 9 -103.5s14.333 -49.667 25 -66s23.334 -28 38.001 -35s30.667 -10.5 48 -10.5c20 0 38.833 3.66699 56.5 11s33 17.166 46 29.499s23.333 26.333 31 42s11.5 31.5 11.5 47.5h25c0 -20 -4.5 -39.333 -13.5 -58
s-21.833 -35.167 -38.5 -49.5s-36.667 -25.833 -60 -34.5s-49.333 -13 -78 -13zM214.998 645c0 20 6.66699 36.667 20 50s30 20 50 20s36.667 -6.66699 50 -20s20 -30 20 -50s-6.66699 -36.667 -20 -50s-30 -20 -50 -20s-36.667 6.66699 -50 20s-20 30 -20 50z" />
    <glyph glyph-name="Eogonek" unicode="&#x118;" horiz-adv-x="645" 
d="M50 685v15.001h535v-180h-30c-12.667 10 -23.667 22.667 -33 38c-8 13.333 -15.333 29.5 -22 48.5s-10 41.833 -10 68.5h-215v-315h115c2.66699 13.333 6.33398 26.166 11.001 38.499s9.66699 23.166 15 32.499c6 10.667 12.333 20.334 19 29.001h30v-225h-30
c-6.66699 8.66699 -13 18.334 -19 29.001c-5.33301 9.33301 -10.333 20 -15 32s-8.33398 25 -11.001 39h-115v-310h235c0 26 3.33301 48.667 10 68s14 35.666 22 48.999c9.33301 15.333 20.333 28 33 38h30v-180h-160c-18 -8.66699 -34 -19 -48 -31
c-12 -10.667 -22.833 -23.667 -32.5 -39s-14.5 -33.666 -14.5 -54.999c0 -26.667 13.333 -40 40 -40c6 0 11.833 1 17.5 3s10.5 4.33301 14.5 7c4.66699 2.66699 9 6 13 10v-30c-5.33301 -2.66699 -11.333 -5.33398 -18 -8.00098c-12.667 -4.66699 -28.334 -7 -47.001 -7
c-35.333 0 -61.666 7.5 -78.999 22.5s-26 32.5 -26 52.5c0 13.333 3 25.5 9 36.5s13.667 20.667 23 29s19.5 15.5 30.5 21.5s21.5 11 31.5 15s18.667 7 26 9s12 3.33301 14 4h-349v15l60 15v640z" />
    <glyph glyph-name="eogonek" unicode="&#x119;" 
d="M205 -115c0 12.667 2.83105 24.3311 8.49805 34.998s12.834 20.167 21.501 28.5s18.334 15.5 29.001 21.5s21 11 31 15c-80.667 2.66699 -143.334 27.334 -188.001 74.001s-67 110.334 -67 191.001c0 41.333 6 78.333 18 111s28.667 60.5 50 83.5
s47.166 40.5 77.499 52.5s63.5 18 99.5 18c37.333 0 70.833 -5.33301 100.5 -16s54.834 -25 75.501 -43s36.5 -39.167 47.5 -63.5s16.5 -50.166 16.5 -77.499c0 -10 -0.5 -18.667 -1.5 -26s-2.16699 -13.666 -3.5 -18.999l-5 -15c-29.333 -6 -60.333 -11 -93 -15
c-28 -4 -60.333 -7.5 -97 -10.5s-75 -4.5 -115 -4.5c0 -41.333 3 -75.833 9 -103.5s14.333 -49.667 25 -66s23.334 -28 38.001 -35s30.667 -10.5 48 -10.5c20 0 38.833 3.66699 56.5 11s33 17.166 46 29.499s23.333 26.333 31 42s11.5 31.5 11.5 47.5h25
c0 -16 -3 -31.833 -9 -47.5s-14.667 -30 -26 -43s-25 -24.5 -41 -34.5s-34 -17.333 -54 -22c-6.66699 -4 -14.5 -9.16699 -23.5 -15.5s-17.667 -14.333 -26 -24s-15.5 -21 -21.5 -34s-9 -27.833 -9 -44.5c0 -26.667 13.333 -40 40 -40c6 0 11.833 1 17.5 3
s10.5 4.33301 14.5 7c4.66699 2.66699 9 6 13 10v-30c-5.33301 -2.66699 -11.333 -5.33398 -18 -8.00098c-12.667 -4.66699 -28.334 -7 -47.001 -7c-35.333 0 -61.666 7.5 -78.999 22.5s-26 32.5 -26 52.5zM209.998 249.997c22.667 0 42.667 0.5 60 1.5s32 2.16699 44 3.5
c14 1.33301 26 3 36 5c1.33301 6.66699 3 14 5 22c1.33301 7.33301 2.5 15.5 3.5 24.5s1.5 18.5 1.5 28.5c0 30 -2.33301 55.167 -7 75.5s-10.5 36.833 -17.5 49.5s-15 21.667 -24 27s-17.833 8 -26.5 8s-17.5 -3.16699 -26.5 -9.5s-17 -18.333 -24 -36
s-12.833 -42.5 -17.5 -74.5s-7 -73.667 -7 -125z" />
    <glyph glyph-name="Ecaron" unicode="&#x11a;" horiz-adv-x="645" 
d="M390 360c2.66699 13.333 6.33398 26.167 11.001 38.5s9.66699 23.166 15 32.499c6 10.667 12.333 20.334 19 29.001h30v-225h-30c-6.66699 8.66699 -13 18.334 -19 29.001c-5.33301 9.33301 -10.333 20 -15 32s-8.33398 25 -11.001 39h-115v-310h235
c0 26 3.33301 48.667 10 68s14 35.666 22 48.999c9.33301 15.333 20.333 28 33 38h30v-180h-555v15l60 15v640l-60 15v15h535v-180h-30c-12.667 10 -23.667 22.667 -33 38c-8 13.333 -15.333 29.5 -22 48.5s-10 41.833 -10 68.5h-215v-315h115zM382 760.001h-60l-115 150h35
l110 -80l110 80h35z" />
    <glyph glyph-name="ecaron" unicode="&#x11b;" 
d="M210 250c22.667 0 42.667 0.5 60 1.5s32 2.16699 44 3.5c14 1.33301 26 3 36 5c1.33301 6.66699 3 14 5 22c1.33301 7.33301 2.5 15.5 3.5 24.5s1.5 18.5 1.5 28.5c0 30 -2.33301 55.167 -7 75.5s-10.5 36.833 -17.5 49.5s-15 21.667 -24 27s-17.833 8 -26.5 8
s-17.5 -3.16699 -26.5 -9.5s-17 -18.333 -24 -36s-12.833 -42.5 -17.5 -74.5s-7 -73.667 -7 -125zM310 -15c-85.333 0 -151.668 23.5 -199.001 70.5s-71 111.833 -71 194.5c0 41.333 6 78.333 18 111s28.667 60.5 50 83.5s47.166 40.5 77.499 52.5s63.5 18 99.5 18
c37.333 0 70.833 -5.33301 100.5 -16s54.834 -25 75.501 -43s36.5 -39.167 47.5 -63.5s16.5 -50.166 16.5 -77.499c0 -9.33301 -0.5 -17.5 -1.5 -24.5s-2.16699 -13.167 -3.5 -18.5l-5 -17c-29.333 -6 -60.333 -11 -93 -15c-28 -4 -60.333 -7.5 -97 -10.5
s-75 -4.5 -115 -4.5c0 -41.333 3 -75.833 9 -103.5s14.333 -49.667 25 -66s23.334 -28 38.001 -35s30.667 -10.5 48 -10.5c20 0 38.833 3.66699 56.5 11s33 17.166 46 29.499s23.333 26.333 31 42s11.5 31.5 11.5 47.5h25c0 -20 -4.5 -39.333 -13.5 -58
s-21.833 -35.167 -38.5 -49.5s-36.667 -25.833 -60 -34.5s-49.333 -13 -78 -13zM319.998 566h-60l-115 150h35l110 -80l110 80h35z" />
    <glyph glyph-name="Gcircumflex" unicode="&#x11c;" horiz-adv-x="700" 
d="M365 20c15.333 0 28.4971 4.16602 39.4971 12.499s20.167 17.5 27.5 27.5c8.66699 12 16.334 25.333 23.001 40v230l-60 15v15h285v-15l-60 -15v-335h-15c-29.333 0 -52.833 4.16699 -70.5 12.5s-31.167 17.5 -40.5 27.5c-11.333 12 -19.333 25.333 -24 40
c-8.66699 -17.333 -19.667 -32.333 -33 -45c-11.333 -11.333 -26.333 -21.666 -45 -30.999s-41 -14 -67 -14c-37.333 0 -73 8 -107 24s-63.833 39.5 -89.5 70.5s-46 69.167 -61 114.5s-22.5 97.333 -22.5 156s7.66699 110.667 23 156s37 83.5 65 114.5s61.333 54.5 100 70.5
s81.334 24 128.001 24c23.333 0 44.833 -3.5 64.5 -10.5s36.5 -14.5 50.5 -22.5c16.667 -9.33301 31.334 -20 44.001 -32c5.33301 8.66699 11.166 16.5 17.499 23.5s12.166 12.833 17.499 17.5c6.66699 5.33301 13.334 10 20.001 14h25v-190h-40
c-9.33301 32 -22.333 61 -39 87c-14 22 -32.667 42.167 -56 60.5s-51.666 27.5 -84.999 27.5c-20 0 -39.667 -5.5 -59 -16.5s-36.5 -29.667 -51.5 -56s-27 -61.333 -36 -105s-13.5 -97.834 -13.5 -162.501c0 -65.333 4 -119.166 12 -161.499s18.833 -76 32.5 -101
s29.167 -42.5 46.5 -52.5s35.333 -15 54 -15zM354.997 934.999l145 -165h-35l-110 70l-110 -70h-35z" />
    <glyph glyph-name="gcircumflex" unicode="&#x11d;" horiz-adv-x="605" 
d="M280 505c32.667 0 61.9961 -3.33398 87.9961 -10.001s46.667 -15 62 -25c5.33301 11.333 12.333 21.333 21 30c7.33301 7.33301 17.166 14.166 29.499 20.499s27.166 9.5 44.499 9.5c22.667 0 41.667 -7.83301 57 -23.5s23 -36.167 23 -61.5
c0 -20 -5.33301 -35.833 -16 -47.5s-23.667 -17.5 -39 -17.5c-5.33301 0 -10 0.166992 -14 0.5s-7.66699 0.833008 -11 1.5s-6.66602 1.66699 -9.99902 3v120c-11.333 0 -21 -2.66699 -29 -8s-14.667 -11 -20 -17c-6.66699 -7.33301 -12 -15.666 -16 -24.999
c17.333 -15.333 30 -32.666 38 -51.999s12 -40.333 12 -63c0 -24 -4.5 -46 -13.5 -66s-22.5 -37.333 -40.5 -52s-40.833 -26.167 -68.5 -34.5s-60.167 -12.5 -97.5 -12.5c-25.333 0 -49 2.33301 -71 7s-41.667 10.667 -59 18c-7.33301 -3.33301 -14 -6.66602 -20 -9.99902
c-5.33301 -3.33301 -10 -7 -14 -11s-6 -8.66699 -6 -14c0 -10 5.16699 -18.333 15.5 -25s31.833 -10 64.5 -10h190c50 0 89.167 -14.333 117.5 -43s42.5 -69.334 42.5 -122.001c0 -25.333 -5.16699 -48.833 -15.5 -70.5s-26.166 -40.667 -47.499 -57
s-48.833 -29.166 -82.5 -38.499s-73.5 -14 -119.5 -14c-47.333 0 -87 3.33301 -119 10s-57.667 15.334 -77 26.001s-33.166 22.5 -41.499 35.5s-12.5 25.833 -12.5 38.5c0 22.667 6.83301 40.834 20.5 54.501s31.834 20.5 54.501 20.5c6 0 11.5 -0.333008 16.5 -1
s9.16699 -1.33398 12.5 -2.00098c4 -0.666992 7.66699 -1.33398 11 -2.00098v-140c12 -4 24.667 -7.33301 38 -10c11.333 -2.66699 24.5 -5 39.5 -7s30.833 -3 47.5 -3c44 0 80.833 3.5 110.5 10.5s53.834 16 72.501 27s32 23.667 40 38s12 29.166 12 44.499
c0 8.66699 -2 17 -6 25s-10.667 15 -20 21s-21.666 10.667 -36.999 14s-34.333 5 -57 5h-190c-52.667 0 -91.667 10.833 -117 32.5s-38 47.5 -38 77.5c0 20 4.83301 36.833 14.5 50.5s20.5 25.167 32.5 34.5c14 10 30 18.333 48 25c-25.333 15.333 -43.333 33.833 -54 55.5
s-16 46.5 -16 74.5c0 24 4.5 46 13.5 66s22.5 37.333 40.5 52s40.833 26.167 68.5 34.5s60.167 12.5 97.5 12.5zM279.996 194.999c10 0 19.333 2.16699 28 6.5s16 12 22 23s10.833 25.833 14.5 44.5s5.5 42.334 5.5 71.001s-1.83301 52.334 -5.5 71.001
s-8.5 33.5 -14.5 44.5s-13.333 18.667 -22 23s-18 6.5 -28 6.5s-19.333 -2.16699 -28 -6.5s-16 -12 -22 -23s-10.833 -25.833 -14.5 -44.5s-5.5 -42.334 -5.5 -71.001s1.83301 -52.334 5.5 -71.001s8.5 -33.5 14.5 -44.5s13.333 -18.667 22 -23s18 -6.5 28 -6.5z
M289.996 724.999l145 -165h-35l-110 70l-110 -70h-35z" />
    <glyph glyph-name="Gbreve" unicode="&#x11e;" horiz-adv-x="700" 
d="M365 20c15.333 0 28.4971 4.16602 39.4971 12.499s20.167 17.5 27.5 27.5c8.66699 12 16.334 25.333 23.001 40v230l-60 15v15h285v-15l-60 -15v-335h-15c-29.333 0 -52.833 4.16699 -70.5 12.5s-31.167 17.5 -40.5 27.5c-11.333 12 -19.333 25.333 -24 40
c-8.66699 -17.333 -19.667 -32.333 -33 -45c-11.333 -11.333 -26.333 -21.666 -45 -30.999s-41 -14 -67 -14c-37.333 0 -73 8 -107 24s-63.833 39.5 -89.5 70.5s-46 69.167 -61 114.5s-22.5 97.333 -22.5 156s7.66699 110.667 23 156s37 83.5 65 114.5s61.333 54.5 100 70.5
s81.334 24 128.001 24c23.333 0 44.833 -3.5 64.5 -10.5s36.5 -14.5 50.5 -22.5c16.667 -9.33301 31.334 -20 44.001 -32c5.33301 8.66699 11.166 16.5 17.499 23.5s12.166 12.833 17.499 17.5c6.66699 5.33301 13.334 10 20.001 14h25v-190h-40
c-9.33301 32 -22.333 61 -39 87c-14 22 -32.667 42.167 -56 60.5s-51.666 27.5 -84.999 27.5c-20 0 -39.667 -5.5 -59 -16.5s-36.5 -29.667 -51.5 -56s-27 -61.333 -36 -105s-13.5 -97.834 -13.5 -162.501c0 -65.333 4 -119.166 12 -161.499s18.833 -76 32.5 -101
s29.167 -42.5 46.5 -52.5s35.333 -15 54 -15zM349.997 789.999c17.333 0 30.8379 1.83301 40.5049 5.5s14.5 5.16699 14.5 4.5v110l12 2c3.33301 0.666992 7 1.33398 11 2.00098s8 1 12 1c17.333 0 31.666 -5.66699 42.999 -17s17 -25.666 17 -42.999
c0 -22.667 -11.333 -42.5 -34 -59.5s-61.334 -25.5 -116.001 -25.5c-27.333 0 -50.5 2.33301 -69.5 7s-34.5 10.834 -46.5 18.501s-20.667 16.667 -26 27s-8 21.166 -8 32.499c0 17.333 5.66699 31.666 17 42.999s25.666 17 42.999 17
c3.33301 0 7.16602 -0.333008 11.499 -1s8.16602 -1.33398 11.499 -2.00098l12 -2v-110c0 0.666992 4.83301 -0.833008 14.5 -4.5s23.167 -5.5 40.5 -5.5z" />
    <glyph glyph-name="gbreve" unicode="&#x11f;" horiz-adv-x="605" 
d="M280 505c32.667 0 61.9961 -3.33398 87.9961 -10.001s46.667 -15 62 -25c5.33301 11.333 12.333 21.333 21 30c7.33301 7.33301 17.166 14.166 29.499 20.499s27.166 9.5 44.499 9.5c22.667 0 41.667 -7.83301 57 -23.5s23 -36.167 23 -61.5
c0 -20 -5.33301 -35.833 -16 -47.5s-23.667 -17.5 -39 -17.5c-5.33301 0 -10 0.166992 -14 0.5s-7.66699 0.833008 -11 1.5s-6.66602 1.66699 -9.99902 3v120c-11.333 0 -21 -2.66699 -29 -8s-14.667 -11 -20 -17c-6.66699 -7.33301 -12 -15.666 -16 -24.999
c17.333 -15.333 30 -32.666 38 -51.999s12 -40.333 12 -63c0 -24 -4.5 -46 -13.5 -66s-22.5 -37.333 -40.5 -52s-40.833 -26.167 -68.5 -34.5s-60.167 -12.5 -97.5 -12.5c-25.333 0 -49 2.33301 -71 7s-41.667 10.667 -59 18c-7.33301 -3.33301 -14 -6.66602 -20 -9.99902
c-5.33301 -3.33301 -10 -7 -14 -11s-6 -8.66699 -6 -14c0 -10 5.16699 -18.333 15.5 -25s31.833 -10 64.5 -10h190c50 0 89.167 -14.333 117.5 -43s42.5 -69.334 42.5 -122.001c0 -25.333 -5.16699 -48.833 -15.5 -70.5s-26.166 -40.667 -47.499 -57
s-48.833 -29.166 -82.5 -38.499s-73.5 -14 -119.5 -14c-47.333 0 -87 3.33301 -119 10s-57.667 15.334 -77 26.001s-33.166 22.5 -41.499 35.5s-12.5 25.833 -12.5 38.5c0 22.667 6.83301 40.834 20.5 54.501s31.834 20.5 54.501 20.5c6 0 11.5 -0.333008 16.5 -1
s9.16699 -1.33398 12.5 -2.00098c4 -0.666992 7.66699 -1.33398 11 -2.00098v-140c12 -4 24.667 -7.33301 38 -10c11.333 -2.66699 24.5 -5 39.5 -7s30.833 -3 47.5 -3c44 0 80.833 3.5 110.5 10.5s53.834 16 72.501 27s32 23.667 40 38s12 29.166 12 44.499
c0 8.66699 -2 17 -6 25s-10.667 15 -20 21s-21.666 10.667 -36.999 14s-34.333 5 -57 5h-190c-52.667 0 -91.667 10.833 -117 32.5s-38 47.5 -38 77.5c0 20 4.83301 36.833 14.5 50.5s20.5 25.167 32.5 34.5c14 10 30 18.333 48 25c-25.333 15.333 -43.333 33.833 -54 55.5
s-16 46.5 -16 74.5c0 24 4.5 46 13.5 66s22.5 37.333 40.5 52s40.833 26.167 68.5 34.5s60.167 12.5 97.5 12.5zM279.996 194.999c10 0 19.333 2.16699 28 6.5s16 12 22 23s10.833 25.833 14.5 44.5s5.5 42.334 5.5 71.001s-1.83301 52.334 -5.5 71.001
s-8.5 33.5 -14.5 44.5s-13.333 18.667 -22 23s-18 6.5 -28 6.5s-19.333 -2.16699 -28 -6.5s-16 -12 -22 -23s-10.833 -25.833 -14.5 -44.5s-5.5 -42.334 -5.5 -71.001s1.83301 -52.334 5.5 -71.001s8.5 -33.5 14.5 -44.5s13.333 -18.667 22 -23s18 -6.5 28 -6.5z
M279.996 589.999c17.333 0 30.8379 1.83301 40.5049 5.5s14.5 5.16699 14.5 4.5v110l12 2c3.33301 0.666992 7 1.33398 11 2.00098s8 1 12 1c17.333 0 31.666 -5.66699 42.999 -17s17 -25.666 17 -42.999c0 -22.667 -11.333 -42.5 -34 -59.5s-61.334 -25.5 -116.001 -25.5
c-27.333 0 -50.5 2.33301 -69.5 7s-34.5 10.834 -46.5 18.501s-20.667 16.667 -26 27s-8 21.166 -8 32.499c0 17.333 5.66699 31.666 17 42.999s25.666 17 42.999 17c3.33301 0 7.16602 -0.333008 11.499 -1s8.16602 -1.33398 11.499 -2.00098l12 -2v-110
c0 0.666992 4.83301 -0.833008 14.5 -4.5s23.167 -5.5 40.5 -5.5z" />
    <glyph glyph-name="Gdotaccent" unicode="&#x120;" horiz-adv-x="700" 
d="M365 20c15.333 0 28.4971 4.16602 39.4971 12.499s20.167 17.5 27.5 27.5c8.66699 12 16.334 25.333 23.001 40v230l-60 15v15h285v-15l-60 -15v-335h-15c-29.333 0 -52.833 4.16699 -70.5 12.5s-31.167 17.5 -40.5 27.5c-11.333 12 -19.333 25.333 -24 40
c-8.66699 -17.333 -19.667 -32.333 -33 -45c-11.333 -11.333 -26.333 -21.666 -45 -30.999s-41 -14 -67 -14c-37.333 0 -73 8 -107 24s-63.833 39.5 -89.5 70.5s-46 69.167 -61 114.5s-22.5 97.333 -22.5 156s7.66699 110.667 23 156s37 83.5 65 114.5s61.333 54.5 100 70.5
s81.334 24 128.001 24c23.333 0 44.833 -3.5 64.5 -10.5s36.5 -14.5 50.5 -22.5c16.667 -9.33301 31.334 -20 44.001 -32c5.33301 8.66699 11.166 16.5 17.499 23.5s12.166 12.833 17.499 17.5c6.66699 5.33301 13.334 10 20.001 14h25v-190h-40
c-9.33301 32 -22.333 61 -39 87c-14 22 -32.667 42.167 -56 60.5s-51.666 27.5 -84.999 27.5c-20 0 -39.667 -5.5 -59 -16.5s-36.5 -29.667 -51.5 -56s-27 -61.333 -36 -105s-13.5 -97.834 -13.5 -162.501c0 -65.333 4 -119.166 12 -161.499s18.833 -76 32.5 -101
s29.167 -42.5 46.5 -52.5s35.333 -15 54 -15zM284.997 844.999c0 20 6.66699 36.667 20 50s30 20 50 20s36.667 -6.66699 50 -20s20 -30 20 -50s-6.66699 -36.667 -20 -50s-30 -20 -50 -20s-36.667 6.66699 -50 20s-20 30 -20 50z" />
    <glyph glyph-name="gdotaccent" unicode="&#x121;" horiz-adv-x="605" 
d="M280 505c32.667 0 61.9961 -3.33398 87.9961 -10.001s46.667 -15 62 -25c5.33301 11.333 12.333 21.333 21 30c7.33301 7.33301 17.166 14.166 29.499 20.499s27.166 9.5 44.499 9.5c22.667 0 41.667 -7.83301 57 -23.5s23 -36.167 23 -61.5
c0 -20 -5.33301 -35.833 -16 -47.5s-23.667 -17.5 -39 -17.5c-5.33301 0 -10 0.166992 -14 0.5s-7.66699 0.833008 -11 1.5s-6.66602 1.66699 -9.99902 3v120c-11.333 0 -21 -2.66699 -29 -8s-14.667 -11 -20 -17c-6.66699 -7.33301 -12 -15.666 -16 -24.999
c17.333 -15.333 30 -32.666 38 -51.999s12 -40.333 12 -63c0 -24 -4.5 -46 -13.5 -66s-22.5 -37.333 -40.5 -52s-40.833 -26.167 -68.5 -34.5s-60.167 -12.5 -97.5 -12.5c-25.333 0 -49 2.33301 -71 7s-41.667 10.667 -59 18c-7.33301 -3.33301 -14 -6.66602 -20 -9.99902
c-5.33301 -3.33301 -10 -7 -14 -11s-6 -8.66699 -6 -14c0 -10 5.16699 -18.333 15.5 -25s31.833 -10 64.5 -10h190c50 0 89.167 -14.333 117.5 -43s42.5 -69.334 42.5 -122.001c0 -25.333 -5.16699 -48.833 -15.5 -70.5s-26.166 -40.667 -47.499 -57
s-48.833 -29.166 -82.5 -38.499s-73.5 -14 -119.5 -14c-47.333 0 -87 3.33301 -119 10s-57.667 15.334 -77 26.001s-33.166 22.5 -41.499 35.5s-12.5 25.833 -12.5 38.5c0 22.667 6.83301 40.834 20.5 54.501s31.834 20.5 54.501 20.5c6 0 11.5 -0.333008 16.5 -1
s9.16699 -1.33398 12.5 -2.00098c4 -0.666992 7.66699 -1.33398 11 -2.00098v-140c12 -4 24.667 -7.33301 38 -10c11.333 -2.66699 24.5 -5 39.5 -7s30.833 -3 47.5 -3c44 0 80.833 3.5 110.5 10.5s53.834 16 72.501 27s32 23.667 40 38s12 29.166 12 44.499
c0 8.66699 -2 17 -6 25s-10.667 15 -20 21s-21.666 10.667 -36.999 14s-34.333 5 -57 5h-190c-52.667 0 -91.667 10.833 -117 32.5s-38 47.5 -38 77.5c0 20 4.83301 36.833 14.5 50.5s20.5 25.167 32.5 34.5c14 10 30 18.333 48 25c-25.333 15.333 -43.333 33.833 -54 55.5
s-16 46.5 -16 74.5c0 24 4.5 46 13.5 66s22.5 37.333 40.5 52s40.833 26.167 68.5 34.5s60.167 12.5 97.5 12.5zM279.996 194.999c10 0 19.333 2.16699 28 6.5s16 12 22 23s10.833 25.833 14.5 44.5s5.5 42.334 5.5 71.001s-1.83301 52.334 -5.5 71.001
s-8.5 33.5 -14.5 44.5s-13.333 18.667 -22 23s-18 6.5 -28 6.5s-19.333 -2.16699 -28 -6.5s-16 -12 -22 -23s-10.833 -25.833 -14.5 -44.5s-5.5 -42.334 -5.5 -71.001s1.83301 -52.334 5.5 -71.001s8.5 -33.5 14.5 -44.5s13.333 -18.667 22 -23s18 -6.5 28 -6.5z
M209.996 639.999c0 20 6.66699 36.667 20 50s30 20 50 20s36.667 -6.66699 50 -20s20 -30 20 -50s-6.66699 -36.667 -20 -50s-30 -20 -50 -20s-36.667 6.66699 -50 20s-20 30 -20 50z" />
    <glyph glyph-name="Gcommaaccent" unicode="&#x122;" horiz-adv-x="700" 
d="M365 20c15.333 0 28.4971 4.16602 39.4971 12.499s20.167 17.5 27.5 27.5c8.66699 12 16.334 25.333 23.001 40v230l-60 15v15h285v-15l-60 -15v-335h-15c-29.333 0 -52.833 4.16699 -70.5 12.5s-31.167 17.5 -40.5 27.5c-11.333 12 -19.333 25.333 -24 40
c-8.66699 -17.333 -19.667 -32.333 -33 -45c-11.333 -11.333 -26.333 -21.666 -45 -30.999s-41 -14 -67 -14c-37.333 0 -73 8 -107 24s-63.833 39.5 -89.5 70.5s-46 69.167 -61 114.5s-22.5 97.333 -22.5 156s7.66699 110.667 23 156s37 83.5 65 114.5s61.333 54.5 100 70.5
s81.334 24 128.001 24c23.333 0 44.833 -3.5 64.5 -10.5s36.5 -14.5 50.5 -22.5c16.667 -9.33301 31.334 -20 44.001 -32c5.33301 8.66699 11.166 16.5 17.499 23.5s12.166 12.833 17.499 17.5c6.66699 5.33301 13.334 10 20.001 14h25v-190h-40
c-9.33301 32 -22.333 61 -39 87c-14 22 -32.667 42.167 -56 60.5s-51.666 27.5 -84.999 27.5c-20 0 -39.667 -5.5 -59 -16.5s-36.5 -29.667 -51.5 -56s-27 -61.333 -36 -105s-13.5 -97.834 -13.5 -162.501c0 -65.333 4 -119.166 12 -161.499s18.833 -76 32.5 -101
s29.167 -42.5 46.5 -52.5s35.333 -15 54 -15zM306.997 -289.001c13.333 5.33301 25.667 12.668 37 22.001c9.33301 8 18.666 18.833 27.999 32.5s16 30.5 20 50.5c-3.33301 -2.66699 -7 -5.33398 -11 -8.00098c-8 -4.66699 -17.667 -7 -29 -7c-20 0 -36.667 6.66699 -50 20
s-20 30 -20 50s6.66699 36.667 20 50s30 20 50 20c22.667 0 40.834 -7.16699 54.501 -21.5s20.5 -35.5 20.5 -63.5c0 -32.667 -5.83301 -59.5 -17.5 -80.5s-24.167 -37.833 -37.5 -50.5c-16.667 -14.667 -35 -26 -55 -34z" />
    <glyph glyph-name="gcommaaccent" unicode="&#x123;" horiz-adv-x="605" 
d="M280 505c32.667 0 61.9961 -3.33398 87.9961 -10.001s46.667 -15 62 -25c5.33301 11.333 12.333 21.333 21 30c7.33301 7.33301 17.166 14.166 29.499 20.499s27.166 9.5 44.499 9.5c22.667 0 41.667 -7.83301 57 -23.5s23 -36.167 23 -61.5
c0 -20 -5.33301 -35.833 -16 -47.5s-23.667 -17.5 -39 -17.5c-5.33301 0 -10 0.166992 -14 0.5s-7.66699 0.833008 -11 1.5s-6.66602 1.66699 -9.99902 3v120c-11.333 0 -21 -2.66699 -29 -8s-14.667 -11 -20 -17c-6.66699 -7.33301 -12 -15.666 -16 -24.999
c17.333 -15.333 30 -32.666 38 -51.999s12 -40.333 12 -63c0 -24 -4.5 -46 -13.5 -66s-22.5 -37.333 -40.5 -52s-40.833 -26.167 -68.5 -34.5s-60.167 -12.5 -97.5 -12.5c-25.333 0 -49 2.33301 -71 7s-41.667 10.667 -59 18c-7.33301 -3.33301 -14 -6.66602 -20 -9.99902
c-5.33301 -3.33301 -10 -7 -14 -11s-6 -8.66699 -6 -14c0 -10 5.16699 -18.333 15.5 -25s31.833 -10 64.5 -10h190c50 0 89.167 -14.333 117.5 -43s42.5 -69.334 42.5 -122.001c0 -25.333 -5.16699 -48.833 -15.5 -70.5s-26.166 -40.667 -47.499 -57
s-48.833 -29.166 -82.5 -38.499s-73.5 -14 -119.5 -14c-47.333 0 -87 3.33301 -119 10s-57.667 15.334 -77 26.001s-33.166 22.5 -41.499 35.5s-12.5 25.833 -12.5 38.5c0 22.667 6.83301 40.834 20.5 54.501s31.834 20.5 54.501 20.5c6 0 11.5 -0.333008 16.5 -1
s9.16699 -1.33398 12.5 -2.00098c4 -0.666992 7.66699 -1.33398 11 -2.00098v-140c12 -4 24.667 -7.33301 38 -10c11.333 -2.66699 24.5 -5 39.5 -7s30.833 -3 47.5 -3c44 0 80.833 3.5 110.5 10.5s53.834 16 72.501 27s32 23.667 40 38s12 29.166 12 44.499
c0 8.66699 -2 17 -6 25s-10.667 15 -20 21s-21.666 10.667 -36.999 14s-34.333 5 -57 5h-190c-52.667 0 -91.667 10.833 -117 32.5s-38 47.5 -38 77.5c0 20 4.83301 36.833 14.5 50.5s20.5 25.167 32.5 34.5c14 10 30 18.333 48 25c-25.333 15.333 -43.333 33.833 -54 55.5
s-16 46.5 -16 74.5c0 24 4.5 46 13.5 66s22.5 37.333 40.5 52s40.833 26.167 68.5 34.5s60.167 12.5 97.5 12.5zM279.996 194.999c10 0 19.333 2.16699 28 6.5s16 12 22 23s10.833 25.833 14.5 44.5s5.5 42.334 5.5 71.001s-1.83301 52.334 -5.5 71.001
s-8.5 33.5 -14.5 44.5s-13.333 18.667 -22 23s-18 6.5 -28 6.5s-19.333 -2.16699 -28 -6.5s-16 -12 -22 -23s-10.833 -25.833 -14.5 -44.5s-5.5 -42.334 -5.5 -71.001s1.83301 -52.334 5.5 -71.001s8.5 -33.5 14.5 -44.5s13.333 -18.667 22 -23s18 -6.5 28 -6.5z
M329.999 799.985c-13.333 -5.33301 -25.6631 -12.667 -36.9961 -22c-9.33301 -7.99902 -18.666 -18.832 -27.999 -32.498s-15.999 -30.498 -19.999 -50.4971c3.33301 2.66699 6.99902 5.33398 10.998 8.00098c8 4.66602 17.666 6.99902 28.999 6.99902
c19.999 0 36.6641 -6.66602 49.9961 -19.999c13.333 -13.332 19.999 -29.9971 19.999 -49.9961s-6.66602 -36.665 -19.999 -49.998c-13.332 -13.333 -29.9971 -19.999 -49.9961 -19.999c-22.665 0 -40.8311 7.16602 -54.4971 21.499
c-13.666 14.332 -20.499 35.4971 -20.499 63.4961c0 32.665 5.83301 59.4971 17.499 80.4961s24.165 37.8311 37.498 50.4961c16.665 14.666 34.9971 25.999 54.9961 33.998z" />
    <glyph glyph-name="Hcircumflex" unicode="&#x124;" horiz-adv-x="765" 
d="M50 685v15h285v-15l-60 -15v-310h215v310l-60 15v15h285v-15l-60 -15v-640l60 -15v-15h-285v15l60 15v305h-215v-305l60 -15v-15h-285v15l60 15v640zM382 930l145 -165h-35l-110 70l-110 -70h-35z" />
    <glyph glyph-name="hcircumflex" unicode="&#x125;" horiz-adv-x="665" 
d="M425 350c0 22.667 -2.33496 42.166 -7.00195 58.499s-10.5 29.833 -17.5 40.5s-15 18.5 -24 23.5s-17.833 7.5 -26.5 7.5c-15.333 0 -28.666 -4.16699 -39.999 -12.5s-20.666 -17.5 -27.999 -27.5c-8.66699 -12 -16 -25.333 -22 -40v-370l60 -15v-15h-280v15l60 15v640
l-60 15v15h130c60 0 90 -30 90 -90v-160c8.66699 12 19 22.667 31 32c10.667 8 24.167 15.5 40.5 22.5s35.833 10.5 58.5 10.5c28.667 0 55 -4.66699 79 -14s44.5 -21.666 61.5 -36.999s30.333 -32.833 40 -52.5s14.5 -40.167 14.5 -61.5v-320l60 -15v-15h-130
c-60 0 -90 30 -90 90v260zM164.998 904.999l145 -165h-35l-110 70l-110 -70h-35z" />
    <glyph glyph-name="hbar" unicode="&#x127;" horiz-adv-x="670" 
d="M265 545l-0.00195312 -125.001c8.66699 12 19 22.667 31 32c10.667 8 24.167 15.5 40.5 22.5s35.833 10.5 58.5 10.5c28.667 0 55 -4.66699 79 -14s44.5 -21.666 61.5 -36.999s30.333 -32.833 40 -52.5s14.5 -40.167 14.5 -61.5v-290l60 -15v-15h-130
c-60 0 -90 30 -90 90v230c0 22.667 -2.33301 42.167 -7 58.5s-10.5 29.833 -17.5 40.5s-15 18.5 -24 23.5s-17.833 7.5 -26.5 7.5c-15.333 0 -28.666 -4.16699 -39.999 -12.5s-20.666 -17.5 -27.999 -27.5c-8.66699 -12 -16 -25.333 -22 -40v-340l60 -15v-15h-280v15l60 15
v515h-65v25h65v100l-60 15v15h130c60 0 90 -30 90 -90v-40h125v-25h-125z" />
    <glyph glyph-name="Itilde" unicode="&#x128;" horiz-adv-x="375" 
d="M46 685v15h285v-15l-60 -15v-640l60 -15v-15h-285v15l60 15v640zM235 775c-15.333 0 -28.168 2.66699 -38.501 8s-20 11 -29 17l-25.5 17c-8 5.33301 -17 8 -27 8c-12.667 0 -23.334 -4.33301 -32.001 -13s-13 -19.334 -13 -32.001h-20c0 40 8 69.167 24 87.5
s38 27.5 66 27.5c14.667 0 27.334 -2.66699 38.001 -8s20.5 -11 29.5 -17l25.5 -17c8 -5.33301 17 -8 27 -8c12.667 0 23.334 4.33301 32.001 13s13 19.334 13 32.001h20c0 -40 -8 -69.167 -24 -87.5s-38 -27.5 -66 -27.5z" />
    <glyph glyph-name="itilde" unicode="&#x129;" horiz-adv-x="343" 
d="M173 500c60 0 90 -30 90 -90v-380l60 -15v-15h-280v15l60 15v440l-60 15v15h130zM220 576c-15.333 0 -28.168 2.66699 -38.501 8s-20 11 -29 17l-25.5 17c-8 5.33301 -17 8 -27 8c-12.667 0 -23.334 -4.33301 -32.001 -13s-13 -19.334 -13 -32.001h-20
c0 40 8 69.167 24 87.5s38 27.5 66 27.5c14.667 0 27.334 -2.66699 38.001 -8s20.5 -11 29.5 -17l25.5 -17c8 -5.33301 17 -8 27 -8c12.667 0 23.334 4.33301 32.001 13s13 19.334 13 32.001h20c0 -40 -8 -69.167 -24 -87.5s-38 -27.5 -66 -27.5z" />
    <glyph glyph-name="Imacron" unicode="&#x12a;" horiz-adv-x="385" 
d="M50 685v15h285v-15l-60 -15v-640l60 -15v-15h-285v15l60 15v640zM60 780v45h260v-45h-260z" />
    <glyph glyph-name="imacron" unicode="&#x12b;" horiz-adv-x="340" 
d="M170 500c60 0 90 -30 90 -90v-380l60 -15v-15h-280v15l60 15v440l-60 15v15h130zM40 601v45h260v-45h-260z" />
    <glyph glyph-name="Ibreve" unicode="&#x12c;" horiz-adv-x="385" 
d="M50 685v15h285v-15l-60 -15v-640l60 -15v-15h-285v15l60 15v640zM195 785c17.333 0 30.8379 1.83301 40.5049 5.5s14.5 5.16699 14.5 4.5v110l12 2c3.33301 0.666992 7 1.33398 11 2.00098s8 1 12 1c17.333 0 31.666 -5.66699 42.999 -17s17 -25.666 17 -42.999
c0 -22.667 -11.333 -42.5 -34 -59.5s-61.334 -25.5 -116.001 -25.5c-27.333 0 -50.5 2.33301 -69.5 7s-34.5 10.834 -46.5 18.501s-20.667 16.667 -26 27s-8 21.166 -8 32.499c0 17.333 5.66699 31.666 17 42.999s25.666 17 42.999 17
c3.33301 0 7.16602 -0.333008 11.499 -1s8.16602 -1.33398 11.499 -2.00098l12 -2v-110c0 0.666992 4.83301 -0.833008 14.5 -4.5s23.167 -5.5 40.5 -5.5z" />
    <glyph glyph-name="ibreve" unicode="&#x12d;" horiz-adv-x="340" 
d="M170 500c60 0 90 -30 90 -90v-380l60 -15v-15h-280v15l60 15v440l-60 15v15h130zM170 585c17.333 0 30.8379 1.83301 40.5049 5.5s14.5 5.16699 14.5 4.5v110l12 2c3.33301 0.666992 7 1.33398 11 2.00098s8 1 12 1c17.333 0 31.666 -5.66699 42.999 -17
s17 -25.666 17 -42.999c0 -22.667 -11.333 -42.5 -34 -59.5s-61.334 -25.5 -116.001 -25.5c-27.333 0 -50.5 2.33301 -69.5 7s-34.5 10.834 -46.5 18.501s-20.667 16.667 -26 27s-8 21.166 -8 32.499c0 17.333 5.66699 31.666 17 42.999s25.666 17 42.999 17
c3.33301 0 7.16602 -0.333008 11.499 -1s8.16602 -1.33398 11.499 -2.00098l12 -2v-110c0 0.666992 4.83301 -0.833008 14.5 -4.5s23.167 -5.5 40.5 -5.5z" />
    <glyph glyph-name="Iogonek" unicode="&#x12e;" horiz-adv-x="385" 
d="M50 685v15h285v-15l-60 -15v-640l60 -15v-15h-60c-18 -8.66699 -34 -19 -48 -31c-12 -10.667 -22.833 -23.667 -32.5 -39s-14.5 -33.666 -14.5 -54.999c0 -26.667 13.333 -40 40 -40c6 0 11.833 1 17.5 3s10.5 4.33301 14.5 7c4.66699 2.66699 9 6 13 10v-30
c-5.33301 -2.66699 -11.333 -5.33398 -18 -8.00098c-12.667 -4.66699 -28.334 -7 -47.001 -7c-35.333 0 -61.666 7.5 -78.999 22.5s-26 32.5 -26 52.5c0 13.333 3 25.5 9 36.5s13.667 20.667 23 29s19.5 15.5 30.5 21.5s21.5 11 31.5 15s18.667 7 26 9s12 3.33301 14 4h-179
v15l60 15v640z" />
    <glyph glyph-name="iogonek" unicode="&#x12f;" horiz-adv-x="340" 
d="M170 500c60 0 90 -30 90 -90v-380l60 -15v-15h-60c-18 -8.66699 -34 -19 -48 -31c-12 -10.667 -22.833 -23.667 -32.5 -39s-14.5 -33.666 -14.5 -54.999c0 -26.667 13.333 -40 40 -40c6 0 11.833 1 17.5 3s10.5 4.33301 14.5 7c4.66699 2.66699 9 6 13 10v-30
c-5.33301 -2.66699 -11.333 -5.33398 -18 -8.00098c-12.667 -4.66699 -28.334 -7 -47.001 -7c-35.333 0 -61.666 7.5 -78.999 22.5s-26 32.5 -26 52.5c0 13.333 3 25.5 9 36.5s13.667 20.667 23 29s19.5 15.5 30.5 21.5s21.5 11 31.5 15s18.667 7 26 9s12 3.33301 14 4h-174
v15l60 15v440l-60 15v15h130zM95 625c0 11.333 2.33301 22.166 7 32.499s10.834 19.333 18.501 27s16.667 13.834 27 18.501s21.166 7 32.499 7s22.166 -2.33301 32.499 -7s19.333 -10.834 27 -18.501s13.834 -16.667 18.501 -27s7 -21.166 7 -32.499
s-2.33301 -22.166 -7 -32.499s-10.834 -19.333 -18.501 -27s-16.667 -13.834 -27 -18.501s-21.166 -7 -32.499 -7s-22.166 2.33301 -32.499 7s-19.333 10.834 -27 18.501s-13.834 16.667 -18.501 27s-7 21.166 -7 32.499z" />
    <glyph glyph-name="Idotaccent" unicode="&#x130;" horiz-adv-x="385" 
d="M50 685v15h285v-15l-60 -15v-640l60 -15v-15h-285v15l60 15v640zM122 840c0 20 6.66699 36.667 20 50s30 20 50 20s36.667 -6.66699 50 -20s20 -30 20 -50s-6.66699 -36.667 -20 -50s-30 -20 -50 -20s-36.667 6.66699 -50 20s-20 30 -20 50z" />
    <glyph glyph-name="dotlessi" unicode="&#x131;" horiz-adv-x="340" 
d="M170 500c60 0 90 -30 90 -90v-380l60 -15v-15h-280v15l60 15v440l-60 15v15h130z" />
    <glyph glyph-name="ij" unicode="&#x133;" horiz-adv-x="640" 
d="M315 -190c1.33301 -1.33301 3.33301 -2.33105 6 -2.99805c5.33301 -1.33301 10 -2 14 -2c8.66699 0 17.167 2.5 25.5 7.5s15.833 13.667 22.5 26s12 29.166 16 50.499s6 48.333 6 81v505h-145v-445l60 -15v-15h-280v15l60 15v440l-60 15v15h435c60 0 90 -30 90 -90v-440
c0 -26 -4.83301 -50.333 -14.5 -73s-24 -42.334 -43 -59.001s-42.167 -29.667 -69.5 -39s-58.333 -14 -93 -14c-52.667 0 -90 8.83301 -112 26.5s-33 40.5 -33 68.5c0 22.667 6.83301 40.834 20.5 54.501s31.834 20.5 54.501 20.5c5.33301 0 10.166 -0.333008 14.499 -1
l12.5 -2c4 -0.666992 8.33301 -1.33398 13 -2.00098v-140zM400 625.002c0 11.333 2.33301 22.166 7 32.499s10.834 19.333 18.501 27s16.667 13.834 27 18.501s21.166 7 32.499 7s22.166 -2.33301 32.499 -7s19.333 -10.834 27 -18.501s13.834 -16.667 18.501 -27
s7 -21.166 7 -32.499s-2.33301 -22.166 -7 -32.499s-10.834 -19.333 -18.501 -27s-16.667 -13.834 -27 -18.501s-21.166 -7 -32.499 -7s-22.166 2.33301 -32.499 7s-19.333 10.834 -27 18.501s-13.834 16.667 -18.501 27s-7 21.166 -7 32.499zM95 625.002
c0 11.333 2.33301 22.166 7 32.499s10.834 19.333 18.501 27s16.667 13.834 27 18.501s21.166 7 32.499 7s22.166 -2.33301 32.499 -7s19.333 -10.834 27 -18.501s13.834 -16.667 18.501 -27s7 -21.166 7 -32.499s-2.33301 -22.166 -7 -32.499s-10.834 -19.333 -18.501 -27
s-16.667 -13.834 -27 -18.501s-21.166 -7 -32.499 -7s-22.166 2.33301 -32.499 7s-19.333 10.834 -27 18.501s-13.834 16.667 -18.501 27s-7 21.166 -7 32.499z" />
    <glyph glyph-name="Jcircumflex" unicode="&#x134;" horiz-adv-x="550" 
d="M165 5c17.333 0 33.332 3.33398 47.999 10.001s27.334 17.667 38.001 33s19 35.5 25 60.5s9 55.5 9 91.5v470l-60 15v15h285v-15l-60 -15v-470c0 -67.333 -21 -120 -63 -158s-109.333 -57 -202 -57c-32.667 0 -60.667 3.16699 -84 9.5s-42.5 14.666 -57.5 24.999
s-26 22 -33 35s-10.5 26.5 -10.5 40.5c-0 22.667 6.83301 40.834 20.5 54.501s31.834 20.5 54.501 20.5c5.33301 0 10.166 -0.333008 14.499 -1l12.5 -2c4 -0.666992 8.33301 -1.33398 13 -2.00098v-150c4 -2 8.66699 -3.66699 14 -5c10 -3.33301 22 -5 36 -5z
M361.999 925.001l145 -165h-35l-110 70l-110 -70h-35z" />
    <glyph glyph-name="jcircumflex" unicode="&#x135;" horiz-adv-x="340" 
d="M5 -190c1.33301 -1.33301 3.33301 -2.33105 6 -2.99805c5.33301 -1.33301 10 -2 14 -2c8.66699 0 17.167 2.5 25.5 7.5s15.833 13.667 22.5 26s12 29.166 16 50.499s6 48.333 6 81v500l-60 15v15h130c60 0 90 -30 90 -90v-440c0 -26 -4.83301 -50.333 -14.5 -73
s-24 -42.334 -43 -59.001s-42.167 -29.667 -69.5 -39s-58.333 -14 -93 -14c-52.667 0 -90 8.83301 -112 26.5s-33 40.5 -33 68.5c0 22.667 6.83301 40.834 20.5 54.501s31.834 20.5 54.501 20.5c5.33301 0 10.166 -0.333008 14.499 -1l12.5 -2
c4 -0.666992 8.33301 -1.33398 13 -2.00098v-140zM155 730.002l145 -165h-35l-110 70l-110 -70h-35z" />
    <glyph glyph-name="Kcommaaccent" unicode="&#x136;" horiz-adv-x="690" 
d="M700 15v-15h-140c-32.667 0 -59.5 8.5 -80.5 25.5s-39.167 36.833 -54.5 59.5l-150 230v-285l60 -15v-15h-285v15l60 15v640l-60 15v15h285v-15l-60 -15v-314l245 299l-75 30v15h190v-15l-80 -30l-175 -215l270 -410zM330 -264c13.333 5.33301 25.667 12.668 37 22.001
c9.33301 8 18.666 18.833 27.999 32.5s16 30.5 20 50.5c-3.33301 -2.66699 -7 -5.33398 -11 -8.00098c-8 -4.66699 -17.667 -7 -29 -7c-20 0 -36.667 6.66699 -50 20s-20 30 -20 50s6.66699 36.667 20 50s30 20 50 20c22.667 0 40.834 -7.16699 54.501 -21.5
s20.5 -35.5 20.5 -63.5c0 -32.667 -5.83301 -59.5 -17.5 -80.5s-24.167 -37.833 -37.5 -50.5c-16.667 -14.667 -35 -26 -55 -34z" />
    <glyph glyph-name="kcommaaccent" unicode="&#x137;" horiz-adv-x="600" 
d="M170 700c60 0 89.999 -30 89.999 -90v-350l185 195l-75 30v15h190v-15l-80 -30l-115 -120l195 -305l50 -15v-15h-130c-17.333 0 -32.666 2 -45.999 6s-25.333 9.83301 -36 17.5s-20.167 16.667 -28.5 27s-16.5 21.833 -24.5 34.5l-85 135v-190l60 -15v-15h-280v15l60 15
v640l-60 15v15h130zM284.999 -274c13.333 5.33301 25.667 12.668 37 22.001c9.33301 8 18.666 18.833 27.999 32.5s16 30.5 20 50.5c-3.33301 -2.66699 -7 -5.33398 -11 -8.00098c-8 -4.66699 -17.667 -7 -29 -7c-20 0 -36.667 6.66699 -50 20s-20 30 -20 50
s6.66699 36.667 20 50s30 20 50 20c22.667 0 40.834 -7.16699 54.501 -21.5s20.5 -35.5 20.5 -63.5c0 -32.667 -5.83301 -59.5 -17.5 -80.5s-24.167 -37.833 -37.5 -50.5c-16.667 -14.667 -35 -26 -55 -34z" />
    <glyph glyph-name="kgreenlandic" unicode="&#x138;" horiz-adv-x="600" 
d="M170 500c60 0 89.999 -30 89.999 -90v-150l185 195l-75 30v15h190v-15l-80 -30l-115 -120l195 -305l50 -15v-15h-130c-17.333 0 -32.666 2 -45.999 6s-25.333 9.83301 -36 17.5s-20.167 16.667 -28.5 27s-16.5 21.833 -24.5 34.5l-85 135v-190l60 -15v-15h-280v15l60 15
v440l-60 15v15h130z" />
    <glyph glyph-name="Lacute" unicode="&#x139;" horiz-adv-x="610" 
d="M335 700v-14.999l-60 -15v-645h215c0 26 3.33301 48.667 10 68s14 35.666 22 48.999c9.33301 15.333 20.333 28 33 38h30v-180h-535v15l60 15v640l-60 15v15h285zM330 900.001l-135 -150h-35l40 150h130z" />
    <glyph glyph-name="lacute" unicode="&#x13a;" horiz-adv-x="340" 
d="M170 700c60 0 90 -30 90 -90v-580l60 -15v-15h-280v15l60 15v640l-60 15v15h130zM307 900l-135 -150h-35l40 150h130z" />
    <glyph glyph-name="Lcommaaccent" unicode="&#x13b;" horiz-adv-x="610" 
d="M335 700v-14.999l-60 -15v-645h215c0 26 3.33301 48.667 10 68s14 35.666 22 48.999c9.33301 15.333 20.333 28 33 38h30v-180h-535v15l60 15v640l-60 15v15h285zM307 -283.999c13.333 5.33301 25.667 12.668 37 22.001c9.33301 8 18.666 18.833 27.999 32.5
s16 30.5 20 50.5c-3.33301 -2.66699 -7 -5.33398 -11 -8.00098c-8 -4.66699 -17.667 -7 -29 -7c-20 0 -36.667 6.66699 -50 20s-20 30 -20 50s6.66699 36.667 20 50s30 20 50 20c22.667 0 40.834 -7.16699 54.501 -21.5s20.5 -35.5 20.5 -63.5
c0 -32.667 -5.83301 -59.5 -17.5 -80.5s-24.167 -37.833 -37.5 -50.5c-16.667 -14.667 -35 -26 -55 -34z" />
    <glyph glyph-name="lcommaaccent" unicode="&#x13c;" horiz-adv-x="340" 
d="M170 700c60 0 90 -30 90 -90v-580l60 -15v-15h-280v15l60 15v640l-60 15v15h130zM138 -284c13.333 5.33301 25.667 12.668 37 22.001c9.33301 8 18.666 18.833 27.999 32.5s16 30.5 20 50.5c-3.33301 -2.66699 -7 -5.33398 -11 -8.00098c-8 -4.66699 -17.667 -7 -29 -7
c-20 0 -36.667 6.66699 -50 20s-20 30 -20 50s6.66699 36.667 20 50s30 20 50 20c22.667 0 40.834 -7.16699 54.501 -21.5s20.5 -35.5 20.5 -63.5c0 -32.667 -5.83301 -59.5 -17.5 -80.5s-24.167 -37.833 -37.5 -50.5c-16.667 -14.667 -35 -26 -55 -34z" />
    <glyph glyph-name="Lcaron" unicode="&#x13d;" horiz-adv-x="610" 
d="M335 700v-14.999l-60 -15v-645h215c0 26 3.33301 48.667 10 68s14 35.666 22 48.999c9.33301 15.333 20.333 28 33 38h30v-180h-535v15l60 15v640l-60 15v15h285zM392 469.001c13.333 5.33301 25.667 12.668 37 22.001c9.33301 8 18.666 18.833 27.999 32.5
s16 30.5 20 50.5c-3.33301 -2.66699 -7 -5.33398 -11 -8.00098c-8 -4.66699 -17.667 -7 -29 -7c-20 0 -36.667 6.66699 -50 20s-20 30 -20 50s6.66699 36.667 20 50s30 20 50 20c22.667 0 40.834 -7.16699 54.501 -21.5s20.5 -35.5 20.5 -63.5
c0 -32.667 -5.83301 -59.5 -17.5 -80.5s-24.167 -37.833 -37.5 -50.5c-16.667 -14.667 -35 -26 -55 -34z" />
    <glyph glyph-name="lcaron" unicode="&#x13e;" horiz-adv-x="485" 
d="M170 700c60 0 90 -30 90 -90v-580l60 -15v-15h-280v15l60 15v640l-60 15v15h130zM340 470c13.333 5.33301 25.667 12.668 37 22.001c9.33301 8 18.666 18.833 27.999 32.5s16 30.5 20 50.5c-3.33301 -2.66699 -7 -5.33398 -11 -8.00098c-8 -4.66699 -17.667 -7 -29 -7
c-20 0 -36.667 6.66699 -50 20s-20 30 -20 50s6.66699 36.667 20 50s30 20 50 20c22.667 0 40.834 -7.16699 54.501 -21.5s20.5 -35.5 20.5 -63.5c0 -32.667 -5.83301 -59.5 -17.5 -80.5s-24.167 -37.833 -37.5 -50.5c-16.667 -14.667 -35 -26 -55 -34z" />
    <glyph glyph-name="Ldot" unicode="&#x13f;" horiz-adv-x="610" 
d="M335 700v-14.999l-60 -15v-645h215c0 26 3.33301 48.667 10 68s14 35.666 22 48.999c9.33301 15.333 20.333 28 33 38h30v-180h-535v15l60 15v640l-60 15v15h285zM345 351.001c0 20 6.66699 36.667 20 50s30 20 50 20s36.667 -6.66699 50 -20s20 -30 20 -50
s-6.66699 -36.667 -20 -50s-30 -20 -50 -20s-36.667 6.66699 -50 20s-20 30 -20 50z" />
    <glyph glyph-name="ldot" unicode="&#x140;" horiz-adv-x="485" 
d="M170 700c60 0 90 -30 90 -90v-580l60 -15v-15h-280v15l60 15v640l-60 15v15h130zM315 351c0 20 6.66699 36.667 20 50s30 20 50 20s36.667 -6.66699 50 -20s20 -30 20 -50s-6.66699 -36.667 -20 -50s-30 -20 -50 -20s-36.667 6.66699 -50 20s-20 30 -20 50z" />
    <glyph glyph-name="Lslash" unicode="&#x141;" horiz-adv-x="620" 
d="M345 700v-14.999l-60 -15v-219l80 49v-35l-80 -49v-391h215c0 26 3.33301 48.667 10 68s14 35.666 22 48.999c9.33301 15.333 20.333 28 33 38h30v-180h-535v15l60 15v286l-85 -51v35l85 51v319l-60 15v15h285z" />
    <glyph glyph-name="lslash" unicode="&#x142;" horiz-adv-x="365" 
d="M175 700c60 0 90 -30 90 -90v-159l80 49v-35l-80 -49v-386l60 -15v-15h-280v15l60 15v287l-85 -52v35l85 52v318l-60 15v15h130z" />
    <glyph glyph-name="Nacute" unicode="&#x143;" horiz-adv-x="740" 
d="M605 655l-80 29.999v15h190v-15l-80 -30v-670h-30l-465 545v-485l80 -30v-15h-190v15l80 30v620l-70 20v15h105c20 0 37.333 -2.16699 52 -6.5s27.5 -10 38.5 -17s20.5 -14.667 28.5 -23s15 -16.166 21 -23.499l320 -375v400zM507 889.999l-135 -150h-35l40 150h130z" />
    <glyph glyph-name="nacute" unicode="&#x144;" horiz-adv-x="665" 
d="M425 350c0 22.667 -2.33398 42.166 -7.00098 58.499s-10.5 29.833 -17.5 40.5s-15 18.5 -24 23.5s-17.833 7.5 -26.5 7.5c-15.333 0 -28.666 -4.16699 -39.999 -12.5s-20.666 -17.5 -27.999 -27.5c-8.66699 -12 -16 -25.333 -22 -40v-370l60 -15v-15h-280v15l60 15v440
l-60 15v15h90c23.333 0 42.5 -4 57.5 -12s26.833 -16.667 35.5 -26c10 -11.333 17.333 -23.666 22 -36.999c8.66699 16.667 19.667 31.667 33 45c11.333 11.333 26.166 21.666 44.499 30.999s40.833 14 67.5 14c28.667 0 55 -4.66699 79 -14s44.5 -21.666 61.5 -36.999
s30.333 -32.833 40 -52.5s14.5 -40.167 14.5 -61.5v-320l60 -15v-15h-130c-60 0 -90 30 -90 90v260zM476.999 709.999l-135 -150h-35l40 150h130z" />
    <glyph glyph-name="Ncommaaccent" unicode="&#x145;" horiz-adv-x="740" 
d="M605 655l-80 29.999v15h190v-15l-80 -30v-670h-30l-465 545v-485l80 -30v-15h-190v15l80 30v620l-70 20v15h105c20 0 37.333 -2.16699 52 -6.5s27.5 -10 38.5 -17s20.5 -14.667 28.5 -23s15 -16.166 21 -23.499l320 -375v400zM325 -225.001
c13.333 5.33301 25.667 12.668 37 22.001c9.33301 8 18.666 18.833 27.999 32.5s16 30.5 20 50.5c-3.33301 -2.66699 -7 -5.33398 -11 -8.00098c-8 -4.66699 -17.667 -7 -29 -7c-20 0 -36.667 6.66699 -50 20s-20 30 -20 50s6.66699 36.667 20 50s30 20 50 20
c22.667 0 40.834 -7.16699 54.501 -21.5s20.5 -35.5 20.5 -63.5c0 -32.667 -5.83301 -59.5 -17.5 -80.5s-24.167 -37.833 -37.5 -50.5c-16.667 -14.667 -35 -26 -55 -34z" />
    <glyph glyph-name="ncommaaccent" unicode="&#x146;" horiz-adv-x="665" 
d="M425 350c0 22.667 -2.33398 42.166 -7.00098 58.499s-10.5 29.833 -17.5 40.5s-15 18.5 -24 23.5s-17.833 7.5 -26.5 7.5c-15.333 0 -28.666 -4.16699 -39.999 -12.5s-20.666 -17.5 -27.999 -27.5c-8.66699 -12 -16 -25.333 -22 -40v-370l60 -15v-15h-280v15l60 15v440
l-60 15v15h90c23.333 0 42.5 -4 57.5 -12s26.833 -16.667 35.5 -26c10 -11.333 17.333 -23.666 22 -36.999c8.66699 16.667 19.667 31.667 33 45c11.333 11.333 26.166 21.666 44.499 30.999s40.833 14 67.5 14c28.667 0 55 -4.66699 79 -14s44.5 -21.666 61.5 -36.999
s30.333 -32.833 40 -52.5s14.5 -40.167 14.5 -61.5v-320l60 -15v-15h-130c-60 0 -90 30 -90 90v260zM314.999 -274.001c13.333 5.33301 25.667 12.668 37 22.001c9.33301 8 18.666 18.833 27.999 32.5s16 30.5 20 50.5c-3.33301 -2.66699 -7 -5.33398 -11 -8.00098
c-8 -4.66699 -17.667 -7 -29 -7c-20 0 -36.667 6.66699 -50 20s-20 30 -20 50s6.66699 36.667 20 50s30 20 50 20c22.667 0 40.834 -7.16699 54.501 -21.5s20.5 -35.5 20.5 -63.5c0 -32.667 -5.83301 -59.5 -17.5 -80.5s-24.167 -37.833 -37.5 -50.5
c-16.667 -14.667 -35 -26 -55 -34z" />
    <glyph glyph-name="Ncaron" unicode="&#x147;" horiz-adv-x="740" 
d="M605 655l-80 29.999v15h190v-15l-80 -30v-670h-30l-465 545v-485l80 -30v-15h-190v15l80 30v620l-70 20v15h105c20 0 37.333 -2.16699 52 -6.5s27.5 -10 38.5 -17s20.5 -14.667 28.5 -23s15 -16.166 21 -23.499l320 -375v400zM412 739.999h-60l-115 150h35l110 -80
l110 80h35z" />
    <glyph glyph-name="ncaron" unicode="&#x148;" horiz-adv-x="665" 
d="M425 350c0 22.667 -2.33398 42.166 -7.00098 58.499s-10.5 29.833 -17.5 40.5s-15 18.5 -24 23.5s-17.833 7.5 -26.5 7.5c-15.333 0 -28.666 -4.16699 -39.999 -12.5s-20.666 -17.5 -27.999 -27.5c-8.66699 -12 -16 -25.333 -22 -40v-370l60 -15v-15h-280v15l60 15v440
l-60 15v15h90c23.333 0 42.5 -4 57.5 -12s26.833 -16.667 35.5 -26c10 -11.333 17.333 -23.666 22 -36.999c8.66699 16.667 19.667 31.667 33 45c11.333 11.333 26.166 21.666 44.499 30.999s40.833 14 67.5 14c28.667 0 55 -4.66699 79 -14s44.5 -21.666 61.5 -36.999
s30.333 -32.833 40 -52.5s14.5 -40.167 14.5 -61.5v-320l60 -15v-15h-130c-60 0 -90 30 -90 90v260zM356.999 565.999h-60l-115 150h35l110 -80l110 80h35z" />
    </font>
</defs>
</svg>
