<?xml version="1.0" encoding="UTF-8" standalone="no"?>
<!DOCTYPE svg PUBLIC "-//W3C//DTD SVG 1.1//EN" "http://www.w3.org/Graphics/SVG/1.1/DTD/svg11.dtd">
<svg width="100%" height="100%" viewBox="0 0 16 16" version="1.1" xmlns="http://www.w3.org/2000/svg" xmlns:xlink="http://www.w3.org/1999/xlink" xml:space="preserve" style="fill-rule:evenodd;clip-rule:evenodd;stroke-linejoin:round;stroke-miterlimit:1.41421;">
    <path d="M15.117,0L0.883,0C0.395,0 0,0.395 0,0.883L0,15.117C0,15.605 0.395,16 0.883,16L8.546,16L8.546,9.804L6.46,9.804L6.46,7.39L8.546,7.39L8.546,5.607C8.546,3.541 9.808,2.417 11.652,2.417C12.535,2.417 13.294,2.481 13.515,2.511L13.515,4.671L12.235,4.671C11.235,4.671 11.04,5.151 11.04,5.851L11.04,7.391L13.43,7.391L13.12,9.811L11.04,9.811L11.04,16L15.117,16C15.605,16 16,15.605 16,15.117L16,0.883C16,0.395 15.605,0 15.117,0" style="fill:rgb(59,89,152);fill-rule:nonzero;"/>
</svg>
