<?xml version="1.0" encoding="UTF-8" standalone="no"?>
<!DOCTYPE svg PUBLIC "-//W3C//DTD SVG 1.1//EN" "http://www.w3.org/Graphics/SVG/1.1/DTD/svg11.dtd">
<svg width="100%" height="100%" viewBox="0 0 16 16" version="1.1" xmlns="http://www.w3.org/2000/svg" xmlns:xlink="http://www.w3.org/1999/xlink" xml:space="preserve" style="fill-rule:evenodd;clip-rule:evenodd;stroke-linejoin:round;stroke-miterlimit:1.41421;">
    <path d="M11.822,2.31L11.464,4.176C11.421,4.378 11.167,4.591 10.931,4.591L7.61,4.591C7.236,4.591 6.968,4.851 6.968,5.221L6.968,5.631C6.968,6.011 7.238,6.271 7.612,6.271L10.432,6.271C10.695,6.271 10.955,6.561 10.897,6.841L10.54,8.681C10.507,8.841 10.33,9.101 10.016,9.101L7.712,9.101C7.292,9.101 7.166,9.161 6.886,9.501C6.606,9.851 4.082,12.881 4.082,12.881C4.057,12.911 4.032,12.901 4.032,12.871L4.032,2.28C4.032,2.04 4.239,1.76 4.55,1.76L11.4,1.76C11.65,1.76 11.886,1.997 11.822,2.307L11.822,2.31ZM12.122,9.63C12.218,9.245 13.286,3.774 13.642,2.04M12.327,0L3.792,0C2.615,0 2.27,0.886 2.27,1.443L2.27,15.003C2.27,15.63 2.606,15.863 2.796,15.94C2.986,16.017 3.509,16.082 3.823,15.72C3.823,15.72 7.853,11.045 7.921,10.976C8.031,10.871 8.031,10.871 8.131,10.871L10.741,10.871C11.841,10.871 12.011,10.091 12.131,9.631C12.231,9.251 13.301,3.781 13.651,2.041C13.92,0.72 13.58,0 12.33,0L12.327,0Z" style="fill:rgb(249,72,119);fill-rule:nonzero;"/>
</svg>
