<?xml version="1.0" encoding="UTF-8" standalone="no"?>
<!DOCTYPE svg PUBLIC "-//W3C//DTD SVG 1.1//EN" "http://www.w3.org/Graphics/SVG/1.1/DTD/svg11.dtd">
<svg width="100%" height="100%" viewBox="0 0 173 173" version="1.1" xmlns="http://www.w3.org/2000/svg" xmlns:xlink="http://www.w3.org/1999/xlink" xml:space="preserve" style="fill-rule:evenodd;clip-rule:evenodd;stroke-linejoin:round;stroke-miterlimit:1.41421;">
    <g transform="matrix(1,0,0,1,-8.34e-06,0.00037038)">
        <g transform="matrix(1,0,0,1,-241.939,-182.026)">
            <g transform="matrix(0.774411,0,0,0.74138,53.8036,46.3909)">
                <rect x="242.94" y="182.949" width="222.888" height="232.581" style="fill:rgb(171,171,171);"/>
            </g>
        </g>
        <g transform="matrix(1,0,0,1,-241.939,-182.026)">
            <g transform="matrix(0.766148,0,0,0.733468,56.7323,48.7584)">
                <rect x="242.94" y="182.949" width="222.888" height="232.581" style="fill:url(#_Linear1);"/>
            </g>
        </g>
        <g transform="matrix(1,0,0,1,-241.939,-182.026)">
            <g transform="matrix(6.12323e-17,1,-1,6.12323e-17,511.311,40.3455)">
                <path d="M142.601,103.685L307.367,268.452L142.601,268.452L142.601,103.685Z" style="fill:rgb(44,44,44);"/>
            </g>
        </g>
        <g transform="matrix(1,0,0,1,-241.939,-182.026)">
            <g transform="matrix(6.11667e-17,-0.998929,0.999995,6.12321e-17,145.175,495.984)">
                <path d="M142.601,103.685L307.367,268.452L142.601,268.452L142.601,103.685Z" style="fill:rgb(255,242,242);"/>
            </g>
        </g>
    </g>
    <defs>
        <linearGradient id="_Linear1" x1="0" y1="0" x2="1" y2="0" gradientUnits="userSpaceOnUse" gradientTransform="matrix(222.888,0,0,222.888,242.94,299.24)"><stop offset="0%" style="stop-color:rgb(255,0,0);stop-opacity:1"/><stop offset="15%" style="stop-color:rgb(255,105,0);stop-opacity:1"/><stop offset="35%" style="stop-color:rgb(253,255,0);stop-opacity:1"/><stop offset="50%" style="stop-color:rgb(0,255,12);stop-opacity:1"/><stop offset="65%" style="stop-color:rgb(0,248,255);stop-opacity:1"/><stop offset="84%" style="stop-color:rgb(0,16,255);stop-opacity:1"/><stop offset="100%" style="stop-color:rgb(255,0,254);stop-opacity:1"/></linearGradient>
    </defs>
</svg>
