<?xml version="1.0" encoding="UTF-8" standalone="no"?>
<!DOCTYPE svg PUBLIC "-//W3C//DTD SVG 1.1//EN" "http://www.w3.org/Graphics/SVG/1.1/DTD/svg11.dtd">
<svg width="100%" height="100%" viewBox="0 0 16 16" version="1.1" xmlns="http://www.w3.org/2000/svg" xmlns:xlink="http://www.w3.org/1999/xlink" xml:space="preserve" style="fill-rule:evenodd;clip-rule:evenodd;stroke-linejoin:round;stroke-miterlimit:1.41421;">
    <path d="M16,3.038C15.41,3.298 14.78,3.475 14.115,3.555C14.792,3.148 15.313,2.505 15.558,1.739C14.924,2.109 14.221,2.379 13.473,2.529C12.875,1.889 12.023,1.489 11.077,1.489C9.265,1.489 7.795,2.959 7.795,4.769C7.795,5.029 7.825,5.279 7.88,5.519C5.152,5.389 2.733,4.079 1.114,2.099C0.83,2.58 0.67,3.14 0.67,3.75C0.67,4.89 1.25,5.893 2.13,6.482C1.592,6.465 1.085,6.317 0.643,6.072L0.643,6.112C0.643,7.702 1.773,9.03 3.276,9.332C3,9.406 2.71,9.446 2.411,9.446C2.201,9.446 2.001,9.426 1.801,9.388C2.221,10.692 3.431,11.641 4.871,11.668C3.751,12.548 2.331,13.072 0.801,13.072C0.541,13.072 0.281,13.057 0.021,13.027C1.481,13.957 3.201,14.501 5.061,14.501C11.101,14.501 14.401,9.501 14.401,5.171C14.401,5.031 14.401,4.891 14.391,4.751C15.031,4.291 15.591,3.711 16.031,3.051L16,3.038Z" style="fill:rgb(29,161,242);fill-rule:nonzero;"/>
</svg>
